<svg width="219" height="121" viewBox="0 0 219 121" fill="none" xmlns="http://www.w3.org/2000/svg">
<path fill-rule="evenodd" clip-rule="evenodd" d="M157.231 0.808932C155.923 0.997955 154.685 1.69944 153.414 2.97169C152.072 4.31408 150.99 5.97029 150.119 8.0126C149.46 9.55721 149.209 10.4863 148.826 12.8051C148.402 15.3726 147.57 20.1487 146.943 23.6143C145.652 30.7504 144.629 35.7187 143.651 39.6018C143.447 40.4133 143.298 41.0932 143.321 41.1127C143.344 41.1323 144.325 41.5363 145.501 42.0104C146.912 42.5795 147.683 42.9203 147.769 43.0127C148.029 43.2923 147.867 43.7641 147.478 43.8619C147.374 43.888 146.771 43.6694 145.234 43.0473C144.078 42.5797 143.046 42.1476 142.941 42.0872C142.836 42.0269 142.766 42.0042 142.786 42.0368C142.848 42.1362 141.376 44.1897 140.132 45.7419C136.293 50.5289 131.061 55.7155 123.258 62.47L121.642 63.8682H113.169H104.696L104.171 64.957C99.6024 74.4309 97.8906 84.3753 99.1053 94.3875C99.8153 100.239 101.551 106.183 104.301 112.181L104.692 113.035H115.853H127.013L127.503 113.588C128.821 115.074 130.714 116.507 132.688 117.511C134.862 118.618 136.835 119.221 139.376 119.557C140.313 119.681 147.134 119.74 161.333 119.747C174.061 119.753 178.575 119.691 184.244 119.431C197.387 118.831 204.122 117.161 207.613 113.638C209.623 111.611 211.097 108.783 211.686 105.825C211.955 104.476 212.006 103.875 212.007 102.032C212.008 100.237 211.974 99.7534 211.742 98.3255C211.578 97.3104 211.131 95.4774 210.904 94.8845C210.883 94.8299 211.124 94.6335 211.643 94.2811C216.817 90.7707 219.101 85.89 218.363 79.9203C218.098 77.7746 217.378 75.3783 216.428 73.4807L216.21 73.0455L216.312 72.8437C216.773 71.9326 217.463 69.7247 217.78 68.1487C218.138 66.3678 218.191 65.7964 218.191 63.6945C218.191 62.0147 218.176 61.7159 218.056 60.9147C217.885 59.7849 217.505 58.2717 217.146 57.2952C216.79 56.3259 216.029 54.8031 215.503 54.0044C214.824 52.9749 213.704 51.8878 212.586 51.1747C209.331 49.0979 204.311 47.9908 195.974 47.5109C191.448 47.2504 186.525 47.1723 176.23 47.1979C169.226 47.2153 167.776 47.2057 167.776 47.1419C167.776 47.0996 167.697 46.9855 167.6 46.8884C167.447 46.735 167.394 46.7159 167.196 46.7426C167.07 46.7595 166.967 46.7674 166.967 46.7602C166.967 46.753 167.069 46.2408 167.193 45.622C167.934 41.9307 168.389 38.2731 168.654 33.8701C168.754 32.2104 168.754 25.9365 168.654 24.2568C168.279 17.9661 167.547 13.4561 166.275 9.60516C165.248 6.49676 164.031 4.3501 162.446 2.85523C160.738 1.24425 158.983 0.555685 157.231 0.808932ZM142.749 41.2682C142.677 41.3601 142.679 41.3621 142.771 41.2901C142.867 41.2144 142.898 41.1669 142.85 41.1669C142.838 41.1669 142.793 41.2125 142.749 41.2682Z" fill="#EAB600"/>
<path fill-rule="evenodd" clip-rule="evenodd" d="M155.293 3.88867C155.613 3.88867 155.873 4.13376 155.873 4.4361C155.873 4.95433 155.704 7.03453 155.056 11.4096C154.383 15.9423 151.811 18.6357 150.512 19.4531C150.245 19.6209 149.885 19.5529 149.708 19.3013C149.53 19.0498 149.602 18.7099 149.869 18.5422C150.889 17.8998 153.28 15.4839 153.907 11.2578C154.557 6.87399 154.713 4.86674 154.713 4.4361C154.713 4.13376 154.973 3.88867 155.293 3.88867Z" fill="#01365C"/>
<path d="M167.906 46.9453H166.873L165.494 56.8245L164.346 61.6519C164.116 62.6248 163.588 64.7952 163.312 65.6934C162.968 66.816 161.819 68.3877 161.13 69.9594C160.441 71.5311 156.421 79.9508 155.732 81.7471C155.043 83.5433 150.909 89.381 149.875 90.8404C148.842 92.2999 144.018 97.913 144.133 103.189C144.225 107.411 147.77 108.84 149.531 109.027C149.799 110.299 151.07 113.136 154.01 114.304C156.95 115.471 165.418 115.015 169.284 114.64L165.839 113.967L159.178 111.834L155.962 106.445L156.192 103.189L158.029 98.3621L162.049 95.8923L164.69 94.5451L162.049 93.3102L159.407 90.8404V86.3499L161.13 80.9612L165.724 76.3584L172.845 74.0009L173.878 73.215L173.074 72.6537C171.352 72.3543 167.745 71.7107 167.102 71.5311C166.459 71.3514 165.303 69.5103 164.805 68.6122L167.906 46.9453Z" fill="#B5900E"/>
<path fill-rule="evenodd" clip-rule="evenodd" d="M191.363 53.2328C196.745 53.1363 201.904 53.3273 205.014 53.5337C205.327 53.5544 205.563 53.8214 205.542 54.1301C205.521 54.4388 205.251 54.6723 204.939 54.6515C201.857 54.4471 196.731 54.2571 191.383 54.353C186.025 54.449 180.488 54.8316 176.564 55.7579C171.659 56.9157 168.955 58.6387 167.444 60.1205C166.125 61.4139 165.687 62.5421 165.477 63.0828C165.447 63.1596 165.422 63.2246 165.399 63.2765C165.1 63.9675 164.99 64.6687 164.877 66.1239C164.823 66.8151 164.852 67.4095 164.94 67.8841C165.03 68.3665 165.175 68.6869 165.321 68.8681C165.342 68.8945 165.365 68.9229 165.39 68.9533C165.888 69.5748 167.019 70.9869 169.088 71.4741C170.286 71.7564 173.22 72.3068 176.518 72.8066C179.646 73.2806 183.072 73.7044 185.631 73.8122C189.871 73.9906 205.264 73.8865 212.446 73.8117C212.759 73.8084 213.015 74.0566 213.019 74.366C213.022 74.6753 212.771 74.9288 212.458 74.932C205.293 75.0066 189.861 75.1116 185.583 74.9316C182.983 74.8221 179.547 74.3973 176.431 73.9267C175.135 74.1151 173.135 74.4552 171.242 74.8779C170.275 75.0939 169.343 75.3298 168.552 75.576C167.749 75.8259 167.132 76.0738 166.767 76.302C165.734 76.9474 164.295 78.0947 163.032 79.3713C161.751 80.6669 160.737 82.0096 160.44 83.0408C160.103 84.2071 159.772 85.5204 159.607 86.7819C159.441 88.0541 159.453 89.215 159.753 90.1044C160.038 90.9521 160.807 91.7901 161.753 92.4586C162.697 93.1256 163.717 93.5529 164.393 93.6484C164.507 93.6646 164.65 93.6852 164.818 93.7096C165.265 93.7742 165.89 93.8648 166.655 93.968C169.643 94.3719 174.66 94.9572 178.8 94.8753C181.016 94.8314 186.122 94.7705 191.539 94.7059C193.051 94.6878 194.588 94.6695 196.092 94.6511C199.54 94.6091 202.82 94.5671 205.26 94.5286C206.48 94.5094 207.488 94.491 208.201 94.474C208.558 94.4655 208.839 94.4574 209.035 94.4497C209.133 94.4459 209.206 94.4423 209.255 94.4391C209.269 94.4382 209.28 94.4374 209.287 94.4367C209.288 94.4366 209.289 94.4366 209.29 94.4365C209.564 94.3855 209.841 94.5411 209.931 94.8101C210.03 95.1036 209.87 95.4208 209.573 95.5187C209.5 95.5428 209.426 95.549 209.421 95.5495C209.393 95.5525 209.362 95.5549 209.33 95.557C209.266 95.5612 209.181 95.5653 209.079 95.5692C208.875 95.5772 208.587 95.5855 208.228 95.5941C207.51 95.6112 206.498 95.6296 205.278 95.6489C202.836 95.6874 199.554 95.7294 196.106 95.7715C194.599 95.7898 193.061 95.8082 191.547 95.8262C186.132 95.8909 181.033 95.9517 178.822 95.9955C174.615 96.0787 169.563 95.4906 166.561 95.0862C165.553 95.1668 163.94 95.468 162.354 96.1153C160.73 96.7778 159.205 97.7742 158.342 99.1968C156.009 103.043 156.079 105.012 156.364 106.044C156.526 106.634 156.91 107.798 157.523 108.957C158.144 110.131 158.957 111.215 159.941 111.751C160.431 112.017 161.353 112.305 162.59 112.581C163.808 112.853 165.278 113.102 166.824 113.311C169.923 113.729 173.288 113.977 175.512 113.922C179.133 113.833 194.457 113.288 201.671 113.026C201.984 113.015 202.246 113.256 202.258 113.565C202.269 113.875 202.025 114.134 201.712 114.146C194.503 114.407 179.169 114.952 175.54 115.042C173.233 115.099 169.802 114.843 166.671 114.421C165.103 114.209 163.6 113.955 162.34 113.674C161.099 113.397 160.038 113.082 159.396 112.732C158.115 112.035 157.172 110.711 156.519 109.476C155.858 108.226 155.448 106.981 155.271 106.339C154.876 104.906 154.946 102.617 157.37 98.6204C158.41 96.9059 160.189 95.7868 161.922 95.0796C162.421 94.8757 162.923 94.7036 163.411 94.56C162.667 94.3181 161.842 93.8982 161.095 93.3703C160.059 92.6384 159.072 91.6277 158.678 90.4587C158.298 89.3313 158.31 87.9713 158.484 86.6386C158.659 85.2952 159.008 83.9196 159.35 82.733C159.732 81.4114 160.928 79.8971 162.223 78.5877C163.537 77.2594 165.043 76.0539 166.162 75.3547C166.658 75.0451 167.392 74.7625 168.212 74.5073C169.044 74.2484 170.009 74.0048 170.993 73.785C171.66 73.6359 172.34 73.497 172.999 73.3712C171.139 73.0496 169.625 72.7523 168.825 72.564C166.366 71.9849 165.022 70.3014 164.51 69.6599C164.483 69.6263 164.459 69.5956 164.437 69.568C164.13 69.1889 163.935 68.6691 163.826 68.0871C163.717 67.4973 163.688 66.8032 163.748 66.0379C163.861 64.5801 163.978 63.7127 164.358 62.8351C164.377 62.7932 164.398 62.7366 164.425 62.6669C164.633 62.1266 165.147 60.7949 166.646 59.3247C168.335 57.6694 171.238 55.8631 176.301 54.6681C180.351 53.7122 185.99 53.3291 191.363 53.2328ZM209.3 94.4356C209.3 94.4356 209.299 94.4357 209.298 94.4357C209.31 94.434 209.313 94.4342 209.3 94.4356ZM170.365 61.149C170.054 61.176 169.779 60.948 169.752 60.6398C169.724 60.3315 169.955 60.0598 170.267 60.0329L170.316 60.5909C170.267 60.0329 170.267 60.0329 170.267 60.0329L170.273 60.0323L170.291 60.0308C170.307 60.0295 170.33 60.0277 170.359 60.0254C170.419 60.0207 170.506 60.0143 170.617 60.0067C170.839 59.9915 171.158 59.972 171.551 59.9543C172.335 59.9189 173.414 59.8905 174.589 59.9189C175.762 59.9472 177.042 60.0325 178.227 60.2274C179.4 60.4205 180.531 60.729 181.37 61.2323C184.599 63.1678 185.093 66.4012 184.924 67.827C184.887 68.1342 184.606 68.354 184.295 68.3179C183.985 68.2817 183.762 68.0033 183.799 67.696C183.931 66.5823 183.535 63.8402 180.783 62.1904C180.127 61.7974 179.165 61.5176 178.041 61.3326C176.927 61.1494 175.704 61.0666 174.561 61.0389C173.42 61.0113 172.369 61.0389 171.603 61.0735C171.22 61.0908 170.909 61.1098 170.695 61.1244C170.587 61.1317 170.504 61.138 170.448 61.1423C170.42 61.1445 170.399 61.1462 170.385 61.1473L170.37 61.1486L170.366 61.1489L170.365 61.149ZM164.335 82.5503C164.335 82.5503 164.335 82.5503 164.333 82.485L164.335 82.5503C164.023 82.5627 163.759 82.3222 163.747 82.013C163.734 81.7039 163.977 81.4432 164.29 81.4308L164.312 81.9705C164.29 81.4308 164.29 81.4308 164.29 81.4308L164.317 81.4298C164.335 81.4291 164.361 81.4282 164.395 81.427C164.462 81.4246 164.562 81.4214 164.688 81.4177C164.942 81.4102 165.306 81.4011 165.75 81.394C166.636 81.3799 167.843 81.3743 169.119 81.4082C170.393 81.442 171.748 81.5155 172.927 81.6616C174.076 81.804 175.157 82.0251 175.812 82.403C177.225 83.2186 178.122 84.0589 178.665 84.8952C179.212 85.739 179.377 86.5471 179.377 87.2565C179.377 88.2796 179.147 90.5757 179.034 91.5758C179 91.8833 178.72 92.1049 178.409 92.0707C178.098 92.0366 177.874 91.7596 177.908 91.4521C178.023 90.4355 178.245 88.2052 178.245 87.2565C178.245 86.7333 178.127 86.141 177.711 85.5002C177.291 84.852 176.546 84.1238 175.241 83.3708C174.808 83.1213 173.943 82.9166 172.786 82.7733C171.659 82.6337 170.346 82.5616 169.089 82.5282C167.833 82.4948 166.644 82.5004 165.768 82.5143C165.33 82.5212 164.971 82.5303 164.722 82.5376C164.597 82.5412 164.5 82.5444 164.434 82.5467C164.402 82.5479 164.377 82.5488 164.36 82.5494L164.337 82.5503L164.335 82.5503ZM160.727 102.493C160.415 102.514 160.144 102.281 160.123 101.972C160.101 101.663 160.337 101.396 160.649 101.375L160.688 101.934C160.649 101.375 160.649 101.375 160.649 101.375L160.65 101.375L160.651 101.375L160.676 101.373C160.693 101.372 160.717 101.37 160.75 101.368C160.814 101.364 160.909 101.359 161.03 101.353C161.271 101.34 161.617 101.324 162.039 101.309C162.882 101.281 164.03 101.261 165.246 101.295C166.459 101.329 167.755 101.417 168.888 101.608C169.99 101.794 171.05 102.094 171.696 102.622C173.956 104.469 174.295 106.966 174.163 108.051C174.126 108.358 173.844 108.577 173.533 108.54C173.223 108.503 173.001 108.224 173.038 107.917C173.133 107.135 172.883 105.045 170.975 103.486C170.579 103.162 169.786 102.896 168.697 102.713C167.638 102.534 166.402 102.448 165.214 102.415C164.029 102.382 162.905 102.401 162.078 102.429C161.664 102.443 161.325 102.459 161.09 102.471C160.973 102.478 160.881 102.483 160.819 102.487C160.788 102.489 160.765 102.49 160.749 102.491L160.732 102.492L160.728 102.492L160.727 102.493Z" fill="#01365C"/>
<path fill-rule="evenodd" clip-rule="evenodd" d="M35.4662 20.0508H52.2266V70.0508H62.7266V86.0508H52.2266V99.5508H31.2266V86.0508H0.226562V70.3932L35.4662 20.0508ZM35.9869 21.0508L1.22656 70.7084V85.0508H32.2266V98.5508H51.2266V85.0508H61.7266V71.0508H51.2266V21.0508H35.9869ZM32.2266 49.9346V71.0508H17.7786L32.2266 49.9346ZM19.6745 70.0508H31.2266V53.167L19.6745 70.0508Z" fill="#001EFC"/>
</svg>
