<svg width="220" height="128" viewBox="0 0 220 128" fill="none" xmlns="http://www.w3.org/2000/svg">
<path d="M98.512 37.3182C98.3335 37.4383 87.2194 48.3367 87.1856 48.4247C87.0701 48.7255 87.2721 49.0188 87.5947 49.0188C87.7948 49.0188 87.8117 49.0047 88.9032 47.9258C89.5115 47.3246 92.0638 44.8218 94.5751 42.3639C97.0865 39.9061 99.1412 37.8717 99.1412 37.8431C99.1412 37.8145 99.152 37.8019 99.1654 37.8152L98.8752 37.2406C98.721 37.238 98.5892 37.2662 98.512 37.3182Z" fill="#040829"/>
<path fill-rule="evenodd" clip-rule="evenodd" d="M84.224 17.9075C84.5583 17.6073 89.1866 13.4667 94.5091 8.7062C103.553 0.617316 104.198 0.0507812 104.358 0.0507812C104.592 0.0507812 104.798 0.247133 104.798 0.471226C104.798 0.603517 104.75 0.682143 104.546 0.88894C104.369 1.06847 86.8018 16.7921 83.9808 19.2962C83.695 19.5499 83.5516 19.5237 83.0462 19.1253C81.7039 18.0671 80.0723 17.2655 78.6479 16.9645C77.9719 16.8216 76.8363 16.7857 76.2158 16.8877C74.8826 17.1067 73.6691 17.7541 72.6103 18.811C71.5776 19.842 70.9506 21.022 70.6569 22.4875C70.5126 23.2079 70.5007 24.8025 70.6335 25.6129C70.9363 27.4593 71.6636 29.4636 72.6334 31.1243C72.9153 31.607 72.9476 31.8025 72.7757 31.9853C72.6311 32.1392 72.4672 32.1705 72.2774 32.0804C72.1542 32.022 72.0523 31.8894 71.8255 31.4922C71.4326 30.8042 71.01 29.9106 70.6959 29.1039C68.753 24.1137 69.5029 20.0172 72.8306 17.4436C73.8114 16.6852 74.8689 16.2215 76.0579 16.0288C76.6168 15.9382 77.6549 15.9392 78.2644 16.0309C79.8726 16.2731 81.6975 17.0559 83.1933 18.1454L83.6161 18.4533L84.224 17.9075ZM48.7357 36.7499C48.7601 36.6388 50.0128 35.4943 54.6846 31.3147C60.3961 26.2047 60.609 26.0201 60.7893 26.0201C60.8087 26.0201 60.822 26.0154 60.8341 26.0111C60.8389 26.0093 60.8435 26.0077 60.8481 26.0065C60.9586 25.977 61.127 26.1652 65.2636 30.787L65.2718 30.7961C65.713 31.2892 66.1994 31.8326 66.7355 32.4314C70.2157 36.3186 71.5654 37.8574 71.5968 37.9742C71.6305 38.0988 71.6223 38.1635 71.5614 38.2565C71.5045 38.3433 62.4018 46.5193 59.9163 48.7161C59.7401 48.8718 59.5608 48.915 59.3795 48.8454C59.2874 48.8101 48.8593 37.1768 48.7679 37.0073C48.7305 36.9382 48.7174 36.8331 48.7357 36.7499ZM70.4296 37.8788C70.3555 37.7998 68.1539 35.3418 65.5375 32.4167C62.921 29.4915 60.7665 27.0944 60.7498 27.0898C60.7226 27.0823 50.2228 36.4659 49.9231 36.7654L49.8012 36.8873L54.685 42.3504C57.3712 45.3551 59.5841 47.8097 59.6026 47.8052C59.6212 47.8007 62.0952 45.5978 65.1005 42.9098L70.5645 38.0226L70.4296 37.8788Z" fill="#040829"/>
<path d="M71.443 49.9925C68.2504 52.8437 65.6424 55.2005 65.6475 55.23C65.6598 55.3024 76.0014 66.8473 76.0398 66.8318C76.0986 66.8081 87.6359 56.472 87.6359 56.4431C87.6359 56.4211 82.1316 50.2558 77.4494 45.0334L77.2478 44.8086L71.443 49.9925Z" fill="#EAB600"/>
<path d="M72.5817 57.3424L72.4775 58.0715L79.2483 59.7382L79.5608 59.5299L76.6442 48.1758H75.915L78.5192 58.6965L72.5817 57.3424Z" fill="#040829"/>
<path fill-rule="evenodd" clip-rule="evenodd" d="M98.875 37.2402L99.1652 37.8148C99.1883 37.8379 102.161 46.0358 102.161 46.0764L102.161 46.0773C102.164 46.0793 102.18 46.0649 102.206 46.0394C102.235 46.0103 102.275 45.9668 102.32 45.9162C102.637 45.5582 107.883 39.6958 108.001 39.5679C108.025 39.5421 108.046 39.5168 108.063 39.4944C108.093 39.4544 108.109 39.424 108.102 39.4172C108.039 39.3576 99.0792 37.2436 98.875 37.2402Z" fill="#040829"/>
<path d="M115.941 41.3485L108.102 39.4172C108.109 39.424 108.093 39.4544 108.063 39.4944L115.881 41.4359C115.923 41.3832 115.943 41.3528 115.941 41.3485Z" fill="#040829"/>
<path d="M102.206 46.0394C102.18 46.0649 102.164 46.0793 102.161 46.0773L104.894 53.5959C104.895 53.5686 104.912 53.5724 104.932 53.6042C104.934 53.6078 104.942 53.605 104.955 53.5959L102.206 46.0394Z" fill="#040829"/>
<path d="M137.994 75.0358C137.97 74.9962 138.262 75.2454 138.643 75.5895C139.025 75.9335 145.474 81.7111 152.975 88.4285C160.476 95.1459 167.232 101.197 167.988 101.876L169.363 103.111L170.768 101.543C171.541 100.681 172.243 99.8968 172.329 99.8012L172.486 99.6275L142.369 72.6524C125.804 57.8162 112.231 45.6691 112.206 45.659C112.18 45.6488 111.462 46.4168 110.61 47.3655L109.061 49.0904L109.246 49.2581C109.348 49.3503 113.858 53.3907 119.268 58.2368C124.678 63.0828 129.095 67.0569 129.084 67.0683L137.994 75.0358Z" fill="#040829"/>
<path d="M120.196 45.0551L118.103 43.1797C116.28 41.5454 115.824 41.1596 115.941 41.3485C115.943 41.3528 115.923 41.3832 115.881 41.4359C115.694 41.6752 115.087 42.3748 114.363 43.1812L112.759 44.9698L112.913 45.119C112.997 45.2011 125.945 56.8003 141.685 70.895C157.426 84.9897 170.923 97.0775 171.68 97.7567L173.056 98.9916L174.666 97.1954C175.552 96.2075 176.298 95.3992 176.322 95.3992L120.196 45.0551Z" fill="#040829"/>
<path d="M186.682 104.713C186.497 104.499 185.455 103.529 184.367 102.557C183.736 101.992 182.714 101.078 181.643 100.121L170.768 112.644C171.714 113.492 172.599 114.287 173.176 114.804C174.276 115.793 175.364 116.735 175.593 116.899C179.266 119.531 184.404 118.73 187.093 115.105C189.405 111.989 189.234 107.656 186.682 104.713Z" fill="#040829"/>
<path d="M165.293 107.684C165.301 107.65 167.825 104.81 168.615 103.946L168.796 103.748L154.186 90.6612L139.576 77.5746L126.908 66.2312L117.734 58.0142C112.689 53.4949 108.539 49.7896 108.513 49.7803C108.486 49.7709 107.678 50.6405 106.717 51.7126C105.685 52.8635 105.08 53.5101 104.955 53.5959C104.942 53.605 104.934 53.6078 104.932 53.6042C104.912 53.5724 104.895 53.5686 104.894 53.5959C104.893 53.6786 105.16 53.9204 112.348 60.3498C116.171 63.7693 119.358 66.6239 119.43 66.6934L119.562 66.8197L122.256 69.227L125.227 67.5504L128.827 71.6004L128.58 74.8781L165.293 107.684Z" fill="#040829"/>
<path fill-rule="evenodd" clip-rule="evenodd" d="M144.862 41.5768C144.816 41.5888 144.73 41.5892 144.67 41.5777C144.611 41.5663 144.648 41.5565 144.753 41.5559C144.859 41.5554 144.908 41.5648 144.862 41.5768ZM144.141 41.6207C144.125 41.6366 144.084 41.6383 144.049 41.6245C144.011 41.6092 144.023 41.5979 144.078 41.5956C144.129 41.5935 144.157 41.6048 144.141 41.6207ZM143.723 41.6397C143.758 41.6397 143.772 41.6541 143.755 41.6716C143.737 41.6892 143.708 41.6892 143.691 41.6716C143.673 41.6541 143.688 41.6397 143.723 41.6397Z" fill="#EAB600"/>
<path fill-rule="evenodd" clip-rule="evenodd" d="M151.108 40.4921C149.36 40.5886 147.649 40.8657 145.76 41.3584C145.444 41.4409 145.164 41.5272 145.139 41.5501C145.113 41.574 145.249 41.5918 145.458 41.5918C146.353 41.5918 147.758 41.9717 148.812 42.4984C152.267 44.2245 155.451 48.4206 158.306 55.0077C158.517 55.4952 158.99 56.6368 159.357 57.5446C160.061 59.2837 160.079 59.3537 159.871 59.5415C159.738 59.6621 159.427 59.6583 159.308 59.5344C159.258 59.4824 158.926 58.7174 158.57 57.8346C158.214 56.9518 157.736 55.7983 157.507 55.2712C156.974 54.0426 155.741 51.5567 155.19 50.5996C152.45 45.8417 149.586 43.2155 146.407 42.5455C145.719 42.4004 144.518 42.3902 143.713 42.5226C143.081 42.6266 142.937 42.6011 142.849 42.3693L142.8 42.2386L141.068 42.4858C136.193 43.1819 129.587 44.005 122.648 44.7809L120.196 45.055L176.323 95.3991C176.347 95.3991 177.723 96.612 179.379 98.0943C181.035 99.5767 183.28 101.585 184.368 102.557C185.455 103.529 186.497 104.499 186.682 104.713C189.234 107.656 189.405 111.989 187.093 115.105C184.405 118.73 179.266 119.531 175.593 116.899C175.364 116.735 174.277 115.793 173.176 114.804C172.075 113.816 169.849 111.819 168.228 110.367C166.608 108.915 165.287 107.707 165.293 107.684L146.435 90.8332L139.576 77.5745L139.313 77.1124C139.168 76.8583 138.822 76.3032 138.544 75.879C138.266 75.4547 138.019 75.0752 137.994 75.0357C137.715 74.6049 136.471 72.84 135.289 71.6124C133.207 69.4481 130.423 67.7496 129.084 67.0682C129.073 67.0795 128.977 67.0446 128.871 66.9907C128.612 66.8588 128.036 66.629 127.418 66.4108L126.908 66.2311C122.703 65.0095 120.259 66.1145 119.562 66.8197L119.39 67.0587C118.843 67.8212 118.599 68.8121 118.599 70.2672C118.599 71.2049 118.651 71.8222 118.822 72.876C119.543 77.3318 121.793 83.7273 126.536 94.8002C128.778 100.033 131.853 107.044 132.316 107.977C136.265 115.934 143.036 121.583 152.354 124.695C156.688 126.142 161.217 127.001 166.517 127.381C169.164 127.571 169.862 127.573 190.271 127.462L209.749 127.355L210.064 127.082C210.642 126.581 212.195 124.995 212.82 124.267C216.515 119.961 218.72 115.018 219.485 109.329C219.692 107.785 219.727 107.171 219.727 105.102C219.727 102.671 219.614 101.248 219.246 99.0732C218.162 92.6713 215.269 86.0959 212.155 82.9581C211.16 81.955 210.576 81.61 209.804 81.5701C209.36 81.5471 206.647 81.4308 204.939 81.3615C201.799 81.2341 198.552 81.1462 194.321 81.0741C192.791 81.0481 191.161 81.0132 190.698 80.9967L189.856 80.9667L189.804 80.8401C189.776 80.7705 189.548 80.2392 189.299 79.6594C188.739 78.3602 188.143 76.8188 187.011 73.742C184.194 66.0894 182.529 61.9301 180.079 56.4292C178.262 52.3507 176.451 49.5134 174.19 47.2045C172.06 45.0304 169.888 43.672 167.392 42.9539C165.616 42.4429 163.654 42.3312 162.013 42.6477C161.728 42.7026 161.469 42.7373 161.437 42.7249C161.405 42.7126 161.658 43.094 161.999 43.5725C164.11 46.5317 166.348 50.1553 168.35 53.8577C169.028 55.1106 169.513 56.0915 169.513 56.208C169.513 56.3703 169.42 56.4967 169.248 56.5686C168.943 56.6958 168.816 56.5876 168.481 55.918C166.734 52.4188 163.659 47.3369 161.293 44.0354C160.611 43.083 160.59 43.047 160.611 42.8506L160.633 42.6479L160.267 42.4336C158.958 41.6668 157.112 41.0134 155.455 40.7311C154.165 40.5112 152.46 40.4175 151.108 40.4921ZM129.67 45.1715C129.805 44.8077 129.801 44.6506 129.649 44.4703C129.417 44.1952 128.996 44.3277 128.93 44.6963C128.88 44.9729 128.765 45.1295 128.466 45.3295C127.698 45.8434 125.825 46.2941 123.685 46.4803C123.355 46.509 123.029 46.5542 122.96 46.5808C122.712 46.6766 122.652 47.032 122.851 47.231C122.976 47.3555 122.977 47.3557 123.558 47.3259C123.878 47.3094 124.475 47.2515 124.883 47.1972C127.616 46.8337 129.318 46.1134 129.67 45.1715ZM171.559 59.7713C171.535 59.6198 170.771 58.2795 170.599 58.0862C170.455 57.9246 170.13 57.9346 169.996 58.1046C169.823 58.3246 169.864 58.4563 170.379 59.3251C170.888 60.1836 170.969 60.2657 171.247 60.2047C171.44 60.1622 171.589 59.9553 171.559 59.7713ZM140.179 62.1422C140.101 61.6572 140.003 60.9802 139.962 60.6376C139.938 60.4391 139.912 60.2174 139.889 60.0347C139.873 59.902 139.86 59.7898 139.852 59.7221L139.816 59.4295L139.637 59.4917C139.138 59.6651 137.674 59.8949 137.068 59.8949C136.927 59.8949 136.819 59.9132 136.828 59.9355C136.851 59.9955 140.282 63.0621 140.303 63.0415C140.313 63.0319 140.257 62.6272 140.179 62.1422ZM162.77 65.0237C162.77 64.8654 161.379 62.6346 161.185 62.4824C161.118 62.4296 161.028 62.3878 160.986 62.3894C160.656 62.4024 160.453 62.739 160.604 63.0245C160.82 63.4332 162.066 65.3272 162.159 65.388C162.414 65.5555 162.77 65.3436 162.77 65.0237ZM126.483 69.8032C126.184 69.2685 125.699 68.5969 125.56 68.5224C125.309 68.3882 125.002 68.5151 124.954 68.7728C124.917 68.9723 124.969 69.0836 125.317 69.5496C125.639 69.9806 126.102 70.8535 126.296 71.3943C126.962 73.2539 126.972 75.5825 126.323 77.533C125.576 79.774 124.064 81.1208 122.293 81.1208C121.98 81.1208 121.94 81.1323 121.812 81.2608C121.655 81.4174 121.638 81.5392 121.743 81.7427C121.836 81.9233 121.947 81.9554 122.445 81.9465C123.228 81.9324 124 81.6929 124.669 81.2558C125.165 80.932 125.848 80.2456 126.187 79.7313C128.004 76.9719 128.13 72.7396 126.483 69.8032ZM139.984 106.803C139.984 106.727 139.935 106.609 139.876 106.542C139.683 106.322 139.519 106.333 139.142 106.59C137.17 107.937 135.239 109.28 135.144 109.37C134.888 109.617 135.07 110.062 135.426 110.059C135.571 110.058 135.916 109.839 137.683 108.621C138.83 107.831 139.817 107.13 139.876 107.063C139.935 106.996 139.984 106.879 139.984 106.803Z" fill="#EAB600"/>
<path fill-rule="evenodd" clip-rule="evenodd" d="M170.599 58.0862C170.771 58.2795 171.535 59.6198 171.559 59.7713C171.589 59.9553 171.44 60.1622 171.247 60.2047C170.969 60.2657 170.888 60.1836 170.379 59.3251C169.864 58.4563 169.823 58.3246 169.996 58.1046C170.13 57.9346 170.455 57.9246 170.599 58.0862Z" fill="#EAB600"/>
<path fill-rule="evenodd" clip-rule="evenodd" d="M36.7771 95.1122C34.9438 96.3589 31.8271 96.9822 27.4271 96.9822C23.9071 96.9822 20.3871 96.3955 16.8671 95.2222C13.6389 94.1461 10.4724 92.5766 7.36756 90.5137C7.08691 90.3272 6.80676 90.1367 6.52711 89.9422L0.0371094 104.572C3.19044 107.139 7.33378 109.192 12.4671 110.732C17.6004 112.199 22.9171 112.932 28.4171 112.932C37.7304 112.932 45.1371 110.952 50.6371 106.992C56.1371 103.032 58.8871 97.6055 58.8871 90.7122C58.8871 85.6522 57.5304 81.4722 54.8171 78.1722C52.6497 75.4775 49.7803 73.4848 46.209 72.1939C45.7265 72.0196 45.2313 71.858 44.7232 71.7092C45.2201 71.5254 45.7023 71.3289 46.1697 71.1199C49.1289 69.7964 51.4981 67.9672 53.2771 65.6322C55.6238 62.4789 56.7971 58.7022 56.7971 54.3022C56.7971 49.9022 55.6238 46.0889 53.2771 42.8622C51.0038 39.6355 47.7771 37.1422 43.5971 35.3822C39.4904 33.6222 34.6138 32.7422 28.9671 32.7422C23.7604 32.7422 18.5904 33.5122 13.4571 35.0522C8.39711 36.5189 4.29044 38.5355 1.13711 41.1022L7.62711 55.7322C7.90397 55.5326 8.18197 55.3372 8.4611 55.1461C11.3611 53.1605 14.3831 51.6325 17.5271 50.5622C21.0471 49.3155 24.3838 48.6922 27.5371 48.6922C30.6171 48.6922 33.0004 49.4255 34.6871 50.8922C36.4471 52.3589 37.3271 54.4855 37.3271 57.2722C37.3271 59.9122 36.4104 61.7822 34.5771 62.8822C32.8171 63.9822 29.8838 64.5322 25.7771 64.5322H15.6571V80.3722H27.8671C32.0471 80.3722 35.0171 80.9955 36.7771 82.2422C38.6104 83.4889 39.5271 85.5789 39.5271 88.5122C39.5271 91.5922 38.6104 93.7922 36.7771 95.1122ZM37.3473 81.4206C39.5342 82.912 40.5271 85.37 40.5271 88.5122C40.5271 91.7872 39.5439 94.3523 37.3614 95.9237L37.3505 95.9316L37.3394 95.9391C35.2429 97.3648 31.8635 97.9822 27.4271 97.9822C23.7939 97.9822 20.1673 97.3763 16.5509 96.1709C13.2808 95.0808 10.0825 93.5018 6.95633 91.4407L1.26627 104.267C4.21446 106.514 8.03078 108.357 12.748 109.772C17.7874 111.212 23.0094 111.932 28.4171 111.932C37.5975 111.932 44.7762 109.98 50.0528 106.181C55.2865 102.412 57.8871 97.2905 57.8871 90.7122C57.8871 85.8392 56.5848 81.8967 54.0447 78.8073L54.0379 78.7989C51.783 75.9956 48.7054 73.9747 44.753 72.7621C44.3264 72.9137 43.8902 73.0563 43.4445 73.19L41.7606 73.6952L42.647 70.1497L43.6094 70.3795C43.9716 70.466 44.3285 70.5584 44.6798 70.6567C48.0229 69.3675 50.6071 67.4847 52.4783 65.0306C54.6791 62.0712 55.7971 58.5119 55.7971 54.3022C55.7971 50.0907 54.6779 46.4885 52.4684 43.4504L52.464 43.4443L52.4596 43.4381C50.3096 40.3864 47.2427 38.0022 43.2091 36.3038L43.2032 36.3013C39.2492 34.6068 34.5128 33.7422 28.9671 33.7422C23.8606 33.7422 18.7873 34.4972 13.7445 36.01L13.7355 36.0127C9.08887 37.3596 5.30973 39.1652 2.36631 41.407L8.04889 54.2169C10.9711 52.2347 14.0214 50.6998 17.1992 49.6175C20.805 48.341 24.2531 47.6922 27.5371 47.6922C30.7626 47.6922 33.4087 48.4595 35.3353 50.1307C37.367 51.828 38.3271 54.2632 38.3271 57.2722C38.3271 60.1643 37.3025 62.4094 35.0993 63.7351C33.0877 64.9886 29.9144 65.5322 25.7771 65.5322H16.6571V79.3722H27.8671C32.0848 79.3722 35.3208 79.9895 37.3473 81.4206Z" fill="#001EFC"/>
</svg>
