<svg width="230" height="111" viewBox="0 0 230 111" fill="none" xmlns="http://www.w3.org/2000/svg">
<path fill-rule="evenodd" clip-rule="evenodd" d="M132.876 57.4037L132.899 57.3032C132.911 57.248 132.974 56.9615 133.039 56.6667C133.945 52.536 136.753 48.8997 140.578 46.9028C142.687 45.8014 144.934 45.2566 147.373 45.2554C149.749 45.2541 151.884 45.7495 153.959 46.7836C154.348 46.9776 154.394 47.0123 154.318 47.0539C154.153 47.1441 151.087 49.0373 150.099 49.6584L149.111 50.2797L148.73 50.2201C148.146 50.129 146.664 50.1335 146.018 50.2284C143.84 50.5484 141.872 51.5544 140.351 53.126C138.86 54.6657 138.027 56.3926 137.663 58.699C137.646 58.8057 137.537 58.9757 137.32 59.235C136.931 59.6986 136.43 60.4352 136.218 60.8532C136.132 61.0239 135.993 61.3678 135.91 61.6174C135.488 62.8796 135.609 64.0461 136.316 65.5233C137.114 67.1927 138.199 68.4839 139.524 69.34C141.677 70.7313 144.599 71.1527 148.281 70.603C151.353 70.1444 155.229 68.9061 159.33 67.0733C159.86 66.8366 160.332 66.6311 160.38 66.6165C160.452 66.5944 160.438 66.6405 160.294 66.8989C158.169 70.7036 154.532 73.3628 150.279 74.22C146.74 74.9332 142.946 74.2864 139.861 72.4437C138.792 71.8052 137.872 71.0866 136.964 70.1805C134.953 68.1751 133.579 65.6529 132.991 62.8906C132.933 62.6204 132.877 62.3908 132.867 62.3802C132.856 62.3697 130.994 62.3661 128.728 62.3724L124.609 62.3838L125.106 62.9049C125.58 63.4011 125.602 63.4319 125.557 63.5491C125.481 63.7481 125.546 63.9089 125.775 64.0906C125.891 64.1819 125.989 64.2575 125.993 64.2586C125.997 64.2597 126.054 64.5217 126.119 64.8408C126.757 67.9815 128.015 70.8044 129.785 73.0656C130.517 74.0011 131.744 75.1741 132.712 75.8647C133.76 76.612 135.085 77.2904 136.246 77.6744C136.517 77.7641 136.538 77.7805 136.543 77.9065C136.548 78.0493 136.697 78.2427 136.837 78.2867C136.906 78.3088 136.92 78.3608 136.92 78.6166C136.92 79.5938 137.399 80.9124 138.122 81.9217C138.503 82.4531 139.276 83.2574 139.844 83.7117C142.122 85.5341 145.555 86.8372 150.131 87.617C152.484 88.0179 155.319 88.3439 157.778 88.4963C158.886 88.5649 161.665 88.5645 162.583 88.4956C166.195 88.2249 168.678 87.4875 170.356 86.1875C171.285 85.4682 171.938 84.4915 172.095 83.5885C172.122 83.4349 172.16 83.3093 172.18 83.3093C172.2 83.3093 172.423 83.3579 172.676 83.4173C177.592 84.5711 182.187 84.4139 186.069 82.9589C189.381 81.7175 192.395 79.4844 195.031 76.3193C195.297 75.9999 195.551 75.6947 195.597 75.6409L195.679 75.5432L205.94 78.5713L216.201 81.5993L216.326 81.4605C216.512 81.2539 217.448 79.9089 218.007 79.0438C220.062 75.8657 222.054 71.9856 223.662 68.023C227.68 58.1272 229.662 47.5631 228.905 40.0738C228.867 39.693 228.819 39.3652 228.8 39.3453C228.78 39.3254 227.069 38.8098 224.997 38.1996L215.819 35.4966C209.982 33.7775 207.778 33.1409 205.221 32.4349C181.734 25.9502 164.893 23.6904 152.996 25.4269C147.43 26.2393 142.783 27.8456 138.11 30.5734C136.331 31.6115 133.619 33.4146 132.171 34.5215C126.18 39.1033 122.328 45.3942 121.621 51.7536C121.518 52.6791 121.52 54.3955 121.624 55.2598C121.693 55.8382 121.926 57.1155 121.994 57.2916L132.876 57.4037ZM161.837 50.5162C160.531 48.6736 159.399 47.1241 159.331 47.0878C159.061 46.9445 158.748 47.1366 158.745 47.4467C158.744 47.5848 158.905 47.8315 159.939 49.278C160.596 50.1974 161.189 51.007 161.257 51.0769C161.35 51.1724 161.424 51.2042 161.55 51.2042C161.904 51.2042 162.059 50.8304 161.837 50.5162ZM173.469 60.118C173.345 59.8412 173.193 59.5694 173.131 59.5141C172.97 59.3701 172.778 59.3833 172.611 59.5498C172.492 59.6678 172.477 59.7093 172.497 59.8613C172.527 60.0846 173.137 61.333 173.546 62.0083C175.266 64.8516 178.034 67.462 181.399 69.4155C184.835 71.4105 188.902 72.6898 193.187 73.1233C197.003 73.5093 201.039 73.2574 205.258 72.3698C205.778 72.2604 205.885 72.2233 205.972 72.1226C206.194 71.8656 206.031 71.4731 205.702 71.4731C205.618 71.4731 205.269 71.5323 204.925 71.6046C198.699 72.9155 192.609 72.7535 187.371 71.1375C184.234 70.1698 181.331 68.667 178.929 66.768C176.49 64.8393 174.498 62.4139 173.469 60.118Z" fill="#EAB600"/>
<path d="M137.259 46.0778L139.6 47.6781L147.844 49.8401C148.125 49.9002 148.953 50.4454 149.143 50.5232L154.005 47.5003C160.037 43.944 172.227 36.7424 172.731 36.3868C173.019 36.0312 173.812 35.1125 174.172 34.6976C171.681 34.5197 166.213 34.1285 164.268 33.9863C161.837 33.8085 157.786 34.6086 156.165 35.0532C154.545 35.4977 151.574 37.8093 150.583 38.5206C149.593 39.2319 145.632 41.8102 144.911 42.3436C144.335 42.7704 139.57 45.0109 137.259 46.0778Z" fill="#C09911"/>
<path d="M137.529 59.325L149.143 50.5232L147.844 49.8401C146.302 49.5112 143.856 49.8915 140.993 52.1171C137.608 54.7488 137.349 58.0803 137.529 59.325Z" fill="#C09911"/>
<path d="M172.551 60.3919C172.263 60.7476 164.328 64.8077 160.397 66.7933C161.477 66.9711 163.764 67.3623 164.268 67.5046C164.898 67.6824 167.149 68.8382 167.599 69.1938C168.05 69.5494 169.04 69.9051 170.21 72.839C171.147 75.1862 170 76.7806 169.31 77.2844C169.76 77.7586 170.804 78.9737 171.381 80.0406C171.957 81.1075 172.161 82.7374 172.191 83.4191C173.091 83.5969 175.198 84.0059 176.422 84.2192C177.647 84.4326 179.694 84.4267 180.564 84.397C180.894 83.6562 181.644 81.8187 182.004 80.3962C182.455 78.618 182.365 74.6172 182.004 73.4614C182.509 72.8924 184.915 72.0981 186.056 71.7721C184.255 70.9127 180.132 68.8204 178.043 67.3267C175.432 65.4597 173.091 61.9034 172.551 60.3919Z" fill="#C09911"/>
<path fill-rule="evenodd" clip-rule="evenodd" d="M124.933 63.9255C125.074 63.7257 125.356 63.6743 125.563 63.8106L133.281 68.8896L133.281 68.8897C133.281 68.8897 133.281 68.8897 133.025 69.2514C132.769 69.6131 132.769 69.6131 132.769 69.6131L125.052 64.534C124.845 64.3977 124.791 64.1252 124.933 63.9255ZM162.072 67.3125C162.254 67.6518 162.416 68.1271 162.53 68.9295C162.556 69.1143 162.592 69.3164 162.63 69.5339C162.783 70.3919 162.978 71.4884 162.78 72.6939L166.481 72.3188C166.731 72.2935 166.954 72.468 166.98 72.7085C167.007 72.949 166.826 73.1645 166.576 73.1897L162.557 73.5969C162.145 74.8406 161.258 76.1487 159.55 77.474C157.714 78.8981 154.902 78.9291 152.29 78.4699C149.649 78.0055 147.056 77.0122 145.519 76.2036C145.299 76.0879 145.218 75.8219 145.338 75.6096C145.458 75.3973 145.734 75.3191 145.954 75.4349C147.413 76.2026 149.914 77.1621 152.453 77.6084C155.021 78.06 157.475 77.9596 158.981 76.7916C160.7 75.4578 161.46 74.1995 161.768 73.0797C162.11 71.8383 161.918 70.739 161.744 69.7431C161.702 69.5056 161.662 69.2741 161.63 69.0479C161.526 68.3091 161.385 67.9378 161.265 67.7138C161.205 67.6003 161.144 67.5147 161.077 67.4221C161.072 67.4154 161.067 67.4084 161.062 67.4013C161 67.3161 160.922 67.2091 160.857 67.0828L161.669 66.6912C161.703 66.7576 161.745 66.8149 161.817 66.9149L161.821 66.9199C161.893 67.019 161.983 67.1443 162.072 67.3125ZM133.4 69.4982C133.259 69.698 132.976 69.7494 132.769 69.6131L133.025 69.2514L133.281 68.8897C133.488 69.026 133.541 69.2985 133.4 69.4982ZM170.185 77.239C170.375 77.3969 170.396 77.6734 170.232 77.8566C169.994 78.1227 169.579 78.4307 168.991 78.7546C168.395 79.0828 167.597 79.4408 166.572 79.7975C164.52 80.511 161.542 81.2253 157.41 81.6837C153.229 82.1476 147.97 81.3896 143.79 80.5297C141.693 80.0984 139.854 79.6385 138.539 79.2864C137.882 79.1104 137.355 78.9612 136.992 78.8558C136.811 78.8031 136.67 78.7614 136.575 78.7328C136.527 78.7185 136.491 78.7074 136.466 78.6999L136.438 78.6913L136.43 78.6891L136.428 78.6883C136.428 78.6883 136.428 78.6882 136.566 78.2713L136.428 78.6882C136.189 78.6145 136.057 78.368 136.134 78.1377C136.21 77.9074 136.466 77.7805 136.705 77.8543L136.666 77.9719C136.705 77.8543 136.705 77.8543 136.705 77.8543L136.705 77.8544L136.707 77.8548L136.713 77.8568L136.739 77.8648C136.763 77.872 136.798 77.8827 136.844 77.8966C136.937 77.9245 137.075 77.9654 137.254 78.0173C137.611 78.121 138.132 78.2684 138.782 78.4427C140.084 78.7912 141.904 79.2464 143.979 79.6733C148.143 80.5298 153.28 81.2605 157.307 80.8137C161.383 80.3614 164.291 79.6598 166.264 78.9737C167.25 78.6306 167.998 78.2927 168.54 77.9942C169.09 77.6915 169.404 77.4419 169.544 77.2848C169.708 77.1016 169.995 77.0812 170.185 77.239ZM160.964 82.4477C160.963 82.4477 160.964 82.4476 160.964 82.4477L160.963 82.4492L160.959 82.4592C160.958 82.4643 160.955 82.4709 160.952 82.479C160.95 82.4859 160.947 82.4939 160.944 82.5029C160.931 82.5419 160.913 82.5996 160.892 82.6713C160.85 82.8156 160.8 83.0115 160.767 83.2225C160.734 83.436 160.721 83.6488 160.742 83.8321C160.764 84.0189 160.817 84.1338 160.876 84.1979C161.113 84.455 161.465 84.6806 161.833 84.8598C162.197 85.0372 162.544 85.1535 162.742 85.2042C162.984 85.2665 163.128 85.5064 163.063 85.7401C162.999 85.9737 162.75 86.1126 162.508 86.0503C162.251 85.9843 161.845 85.8466 161.424 85.6416C161.006 85.4384 160.541 85.1532 160.197 84.7797C159.966 84.5285 159.873 84.2122 159.84 83.9294C159.807 83.6431 159.83 83.3479 159.869 83.093C159.909 82.8354 159.969 82.6023 160.017 82.4346C160.042 82.3503 160.064 82.2813 160.081 82.2326C160.089 82.2082 160.096 82.1889 160.1 82.1752C160.103 82.1683 160.105 82.1628 160.106 82.1588L160.108 82.154L160.109 82.1518L160.109 82.1516C160.109 82.1515 160.109 82.1514 160.536 82.2995L160.109 82.1514C160.194 81.9238 160.454 81.8057 160.69 81.8875C160.926 81.9693 161.048 82.2199 160.964 82.4474C160.964 82.4474 160.964 82.4474 160.964 82.4474C160.964 82.4474 160.964 82.4476 160.964 82.4477Z" fill="#01365C"/>
<path fill-rule="evenodd" clip-rule="evenodd" d="M54.4525 28.998H52.0212H49.5898L49.6058 54.3905C49.6177 73.4197 49.635 79.9298 49.6748 80.3686C49.8862 82.7011 50.1276 84.2034 50.5831 86.0214C52.2615 92.7198 56.1224 98.7215 61.5628 103.089C65.0716 105.905 69.1123 107.934 73.4574 109.059C75.2394 109.52 76.9448 109.804 79.0684 109.993C80.0524 110.08 83.0167 110.066 84.0636 109.969C86.824 109.714 89.0244 109.26 91.5119 108.432C97.1003 106.572 102.036 103.2 105.855 98.6332C109.876 93.8251 112.377 87.9582 113.066 81.7198C113.236 80.1767 113.238 80.0697 113.256 71.3264L113.274 62.6896H111.449H109.624V68.1171V73.5447H106.744H103.864V75.8193V78.094H99.9041H95.944V70.3918V62.6896H94.594H93.2439V60.1897V57.6899H112.909L113.27 57.6448V43.3214V28.998H110.84H108.409H100.129H81.431H62.7328H54.4525ZM81.431 46.9924L81.4425 42.3193L81.4539 37.6461H70.0233H58.5927V42.3306V47.0151L70.0118 47.0037L81.431 46.9924ZM94.4842 45.8888C95.8648 43.63 95.8746 43.6084 95.6142 43.3842C95.4642 43.255 95.2298 43.2419 95.0955 43.3552C94.9832 43.4499 92.3977 47.6673 92.3589 47.8192C92.3157 47.9878 92.4496 48.2144 92.6271 48.273C92.8261 48.3387 92.9761 48.2823 93.1209 48.0874C93.1818 48.0054 93.7953 47.016 94.4842 45.8888ZM99.7691 50.6228C99.7691 50.4824 99.7408 50.4057 99.6587 50.3235C99.5818 50.2465 99.4983 50.2129 99.3843 50.2129C99.1878 50.2129 99.079 50.3124 97.6038 51.8421C96.6448 52.8365 96.619 52.8681 96.619 53.049C96.619 53.2984 96.7708 53.4559 97.0112 53.4559C97.1738 53.4559 97.2244 53.4134 98.0157 52.6114L98.0264 52.6006C99.5976 51.0081 99.7522 50.8513 99.7675 50.682C99.7691 50.6635 99.7691 50.6448 99.7691 50.6241V50.6228ZM84.6057 69.2365C87.6597 67.9949 89.8129 64.9977 89.8129 61.4976C89.8129 56.8857 86.0747 53.1471 81.4635 53.1471C76.8523 53.1471 73.1142 56.8857 73.1142 61.4976C73.1142 64.9977 75.2674 67.9949 78.3213 69.2365V80.9819H84.6057V69.2365Z" fill="#040829"/>
<path d="M54.5527 28.9982V14.5245V0.0507812H81.4324H108.312V14.5245V28.9982H100.062V18.6857V8.37315H81.4324H62.8027V18.6857V28.9982H54.5527Z" fill="#040829"/>
<path fill-rule="evenodd" clip-rule="evenodd" d="M157.885 3.51254C158.064 3.32863 158.38 3.30733 158.589 3.46497C158.798 3.62261 158.822 3.8995 158.643 4.08341L158.264 3.79798L157.885 3.51254ZM153.852 8.99568C153.672 9.1796 153.357 9.20089 153.148 9.04325C152.939 8.88561 152.914 8.60873 153.094 8.42481L157.885 3.51268L157.885 3.51254C157.885 3.51252 157.885 3.51254 158.264 3.79798C158.643 4.08341 158.643 4.08339 158.643 4.08341L153.852 8.99568Z" fill="#EAB600"/>
<path fill-rule="evenodd" clip-rule="evenodd" d="M160.336 106.222C160.492 106.415 160.463 106.698 160.271 106.854C160.078 107.011 159.795 106.981 159.639 106.789L159.987 106.506L160.336 106.222ZM155.461 101.648C155.304 101.455 155.334 101.173 155.526 101.016C155.719 100.86 156.001 100.889 156.158 101.081L160.336 106.222L160.336 106.222C160.336 106.223 160.336 106.222 159.987 106.506C159.639 106.789 159.639 106.789 159.639 106.789L155.461 101.648Z" fill="#EAB600"/>
<path fill-rule="evenodd" clip-rule="evenodd" d="M152.978 102.391C153.134 102.583 153.105 102.866 152.913 103.022C152.72 103.179 152.437 103.15 152.281 102.957L152.629 102.674L152.978 102.391ZM149.174 99.1343C149.018 98.9419 149.047 98.659 149.239 98.5026C149.432 98.3462 149.715 98.3754 149.871 98.5679L152.978 102.391C152.978 102.391 152.978 102.391 152.629 102.674C152.281 102.957 152.281 102.957 152.281 102.957L149.174 99.1343Z" fill="#EAB600"/>
<path fill-rule="evenodd" clip-rule="evenodd" d="M157.365 60.3748C157.365 66.3019 152.807 70.9004 147.431 70.9004C142.055 70.9004 137.498 66.3019 137.498 60.3748C137.498 54.4477 142.055 49.8491 147.431 49.8491C152.807 49.8491 157.365 54.4477 157.365 60.3748ZM162.241 60.3748C162.241 68.9415 155.611 75.8862 147.431 75.8862C139.97 75.8862 133.798 70.2444 132.771 62.7274H121.318H109.864V73.855H103.904V78.4715H95.9572V73.855V72.193V62.703H93.248V57.111H132.89C134.207 49.9573 140.217 44.8633 147.431 44.8633C155.611 44.8633 162.241 51.808 162.241 60.3748Z" fill="#BBE0F3"/>
<path d="M154.414 46.7488C154.248 46.8415 151.156 48.7861 150.16 49.4242L149.163 50.0623C144.174 53.262 141.571 55.2767 137.272 59.2612C136.88 59.7375 136.374 60.4941 136.161 60.9234C136.074 61.0988 135.934 61.452 135.85 61.7084C135.425 63.0049 135.547 64.2032 136.259 65.7205C137.064 67.4353 138.159 68.7617 139.495 69.6411C141.666 71.0702 144.612 71.503 148.326 70.9384C151.424 70.4673 155.333 69.1954 159.469 67.3127C160.003 67.0696 160.479 66.8585 160.527 66.8435C161.567 66.3576 163.991 64.965 164.425 64.7455C164.859 64.526 164.067 62.1542 163.736 60.8128L160.902 53.1302L156.384 45.5391L154.414 46.7488Z" fill="#EAB600"/>
<path fill-rule="evenodd" clip-rule="evenodd" d="M145.748 56.5157C145.858 56.3059 146.11 56.2294 146.31 56.3448C146.925 56.6992 148.236 57.8119 148.74 59.5465C149.028 60.5393 148.646 61.5182 148.046 62.3619C147.44 63.2127 146.556 64.0101 145.667 64.688C144.775 65.3693 143.855 65.9466 143.162 66.3526C142.814 66.556 142.522 66.7172 142.316 66.8279C142.213 66.8832 142.131 66.9259 142.075 66.955C142.047 66.9696 142.026 66.9807 142.011 66.9883L141.994 66.997L141.989 66.9993L141.987 67.0002C141.987 67.0002 141.987 67.0003 141.808 66.6093L141.987 67.0003C141.781 67.1037 141.534 67.0125 141.435 66.7965C141.337 66.5806 141.424 66.3217 141.63 66.2183C141.63 66.2183 141.63 66.2183 141.63 66.2183L141.634 66.2161L141.649 66.2086C141.662 66.2018 141.682 66.1915 141.708 66.1778C141.761 66.1505 141.839 66.1096 141.938 66.0563C142.137 65.9496 142.42 65.7933 142.758 65.5956C143.435 65.1997 144.323 64.6411 145.18 63.9871C146.042 63.3297 146.849 62.5924 147.382 61.8434C147.921 61.0874 148.124 60.4015 147.949 59.7989C147.526 58.3427 146.399 57.3859 145.911 57.1045C145.711 56.9891 145.638 56.7255 145.748 56.5157Z" fill="#01365C"/>
<path fill-rule="evenodd" clip-rule="evenodd" d="M28.38 54.2502L2.86 80.8702V96.0502H58.08V79.6602H28.1606L43.78 63.7102C48.1067 59.1636 51.15 55.0569 52.91 51.3902C54.7433 47.6502 55.66 43.4702 55.66 38.8502C55.66 34.3769 54.4867 30.4902 52.14 27.1902C49.8667 23.8169 46.6033 21.2502 42.35 19.4902C38.17 17.6569 33.2567 16.7402 27.61 16.7402C22.4033 16.7402 17.27 17.5102 12.21 19.0502C7.22333 20.5169 3.15333 22.5336 0 25.1002L6.49 39.7302C6.77185 39.5403 7.05395 39.3542 7.33631 39.1719C10.4334 37.1728 13.5613 35.6355 16.72 34.5602C20.1667 33.3136 23.43 32.6902 26.51 32.6902C29.4433 32.6902 31.68 33.3136 33.22 34.5602C34.76 35.8069 35.53 37.7136 35.53 40.2802C35.53 42.4802 34.9067 44.7536 33.66 47.1002C32.4867 49.3736 30.7267 51.7569 28.38 54.2502ZM6.92594 38.2469C10.039 36.2509 13.1933 34.7053 16.3888 33.6166C19.9211 32.3399 23.2971 31.6902 26.51 31.6902C29.5663 31.6902 32.0632 32.3372 33.8492 33.783C35.6896 35.2728 36.53 37.5082 36.53 40.2802C36.53 42.6728 35.8517 45.1044 34.546 47.5639C33.3184 49.9409 31.4969 52.3976 29.1082 54.9356L29.1019 54.9423L3.86 81.2721V95.0502H57.08V80.6602H28.5809L25.0898 81.0508L27.7402 78.6602L43.0556 63.0209C43.0572 63.0191 43.0589 63.0174 43.0606 63.0156C47.3472 58.5104 50.312 54.4919 52.0085 50.9575L52.0121 50.9501C53.7712 47.3615 54.66 43.3345 54.66 38.8502C54.66 34.5618 53.5388 30.8828 51.325 27.7698L51.3178 27.7595L51.3107 27.7491C49.1613 24.5596 46.064 22.1093 41.9677 20.4142L41.958 20.4102L41.9483 20.406C37.9212 18.6397 33.1503 17.7402 27.61 17.7402C22.5036 17.7402 17.4683 18.4952 12.5012 20.0069L12.4922 20.0096C7.91496 21.3559 4.1704 23.1613 1.22908 25.4048L6.92594 38.2469Z" fill="#001EFC"/>
</svg>
