<svg width="200" height="144" viewBox="0 0 200 144" fill="none" xmlns="http://www.w3.org/2000/svg">
<path fill-rule="evenodd" clip-rule="evenodd" d="M106.662 9.27072L107.062 9.4119L80.0083 20.6206L79.4783 20.0481C77.4371 17.8426 76.4593 15.8245 76.3356 13.5616C76.2651 12.2715 76.6113 10.6165 77.1973 9.44243C77.9128 8.00887 79.1403 6.82444 80.6546 6.10654C85.5257 3.797 94.0756 4.83725 106.662 9.27072ZM75.2909 42.6791C75.2806 42.6874 74.9957 42.7483 74.6578 42.8146C73.417 43.0581 72.244 43.5409 71.1849 44.2441C68.8835 45.7721 67.4171 47.6341 66.9179 49.6623C66.3349 52.0311 67.0963 54.7133 69.1282 57.448C70.0456 58.6827 71.4055 60.098 72.7536 61.2211C73.1103 61.5184 73.4232 61.7806 73.4489 61.804C73.5611 61.9062 73.3369 62.2074 72.592 62.9547C71.7508 63.7987 71.2693 64.425 70.878 65.1842C69.9617 66.9621 69.8462 68.8606 70.5269 70.9541C70.9269 72.1842 71.8619 73.8147 72.9292 75.1433C73.5715 75.9429 74.8947 77.2894 75.8332 78.0986C79.6992 81.4317 84.701 83.9773 88.9767 84.7878C89.9077 84.9643 90.7391 85.0259 91.8111 84.9977L92.8072 84.9716C93.5917 84.951 94.8622 84.533 95.2613 84.3335C95.2709 84.3287 95.2809 84.3237 95.2912 84.3186C95.3109 84.3089 95.3319 84.2985 95.3542 84.2875C95.811 84.0627 96.8063 83.5727 97.4562 82.7372C98.1546 81.8393 98.6534 80.7418 98.853 79.7442C99.0525 78.7465 99.1523 77.0504 98.0548 73.6583C96.9573 70.2662 93.5652 66.874 93.4655 66.7743C93.3937 66.7025 93.4252 66.5275 93.4485 66.3978C93.4576 66.3472 93.4655 66.3034 93.4655 66.2754V66.1757C93.5985 66.0759 93.9843 65.7367 94.4631 65.178C95.0618 64.4796 95.5606 62.2847 95.6604 61.5863C95.7601 60.8879 95.3611 58.294 94.6627 56.1988C93.9643 54.1037 91.6696 51.3102 90.8715 50.512C90.7406 50.3812 90.5776 50.1993 90.3775 49.9762C89.3573 48.8386 87.3746 46.6275 83.7879 44.6257C80.3559 42.7101 76.6932 42.5298 75.2909 42.6791ZM138.078 129.577L138.051 125.401L141.394 97.8022L147.71 45.6675C142.002 39.7543 138.027 34.5306 135.885 30.1259C135.373 29.0736 135.059 28.2252 134.819 27.2469C134.542 26.1183 134.474 25.5576 134.476 24.422C134.477 23.4775 134.491 23.3216 134.622 22.7676C135.063 20.9026 135.748 19.441 136.634 18.4736C137.077 18.112 138.281 17.3291 139.558 17.0896C140.835 16.8502 142.908 17.297 143.784 17.5504L144.49 17.8032C150.935 20.11 160.999 27.1935 176.552 40.3695C180.089 43.3661 183.016 45.907 184.066 46.8922C187.357 49.9806 190.484 53.864 192.776 57.7103C196.899 64.6261 199.239 72.1085 199.734 79.9551C199.804 81.0623 199.803 83.9432 199.733 85.0371C199.366 90.7487 197.924 95.8776 195.485 100.151C194.966 101.059 194.102 102.364 193.543 103.083L193.109 103.64V118.678V133.716L192.843 134.248C191.201 137.531 186.592 140.136 179.725 141.662C175.731 142.549 171.589 142.999 166.769 143.067C161.559 143.14 156.92 142.727 152.236 141.772C152.1 141.744 151.965 141.716 151.83 141.687C147.988 140.867 144.568 139.609 142.254 138.162C140.433 137.022 139.088 135.663 138.338 134.207L138.104 133.752L138.078 129.577ZM164.845 31.4795C164.845 31.2615 164.714 31.0736 164.513 31.0034C164.415 30.9692 164.368 30.9516 164.321 30.9531C164.272 30.9547 164.224 30.9766 164.121 31.0213C163.983 31.0815 163.716 31.508 162.398 33.7697C161.252 35.7364 160.838 36.4914 160.838 36.6149C160.838 36.8643 161.089 37.0956 161.358 37.0956C161.489 37.0956 161.607 37.0577 161.675 36.9938C161.735 36.9378 162.473 35.7109 163.315 34.2673C164.412 32.3864 164.845 31.5963 164.845 31.4795ZM137.925 22.4613C138.044 22.2757 138.291 22.2217 138.477 22.3407C139.106 22.7443 140.372 23.4444 141.8 24.1136C143.232 24.7844 144.796 25.4093 146.029 25.6789C147.591 26.0206 148.687 26.039 149.498 25.9115C150.304 25.7849 150.853 25.5112 151.325 25.2277C151.777 24.9566 152.196 24.5639 152.519 24.2055C152.678 24.0279 152.811 23.8629 152.908 23.7322C152.957 23.6668 152.996 23.6113 153.024 23.5681C153.039 23.5465 153.05 23.5289 153.058 23.5155C153.067 23.5012 153.07 23.4952 153.069 23.4959C153.168 23.2987 153.408 23.2188 153.605 23.3174C153.802 23.416 153.882 23.6557 153.783 23.8528C153.709 24.0016 153.455 24.3579 153.112 24.7395C152.761 25.1293 152.282 25.5847 151.736 25.9121C151.211 26.2273 150.563 26.5521 149.622 26.7C148.688 26.8468 147.489 26.8153 145.858 26.4586C144.537 26.1696 142.908 25.5141 141.462 24.8364C140.012 24.157 138.713 23.4404 138.046 23.0126C137.861 22.8937 137.807 22.6468 137.925 22.4613ZM77.3241 59.6486C77.1269 59.55 77.047 59.3103 77.1456 59.1132C77.2057 58.993 77.5676 58.3408 78.1036 57.5962C78.6353 56.8577 79.3695 55.9837 80.1804 55.4638C81.2577 54.7731 82.1152 54.3624 83.1347 54.2342C84.1404 54.1077 85.2656 54.2616 86.8663 54.6117C88.2165 54.9071 89.5131 55.6301 90.6159 56.3628C91.1699 56.7308 91.6825 57.1066 92.1331 57.4386C92.1584 57.4573 92.1836 57.4759 92.2085 57.4942C92.6311 57.8058 92.9885 58.0693 93.2818 58.2573C93.4673 58.3762 93.5213 58.6231 93.4024 58.8086C93.2834 58.9942 93.0366 59.0482 92.851 58.9292C92.5348 58.7265 92.1572 58.4481 91.7451 58.1442C91.7167 58.1233 91.6882 58.1023 91.6595 58.0811C91.209 57.7491 90.7103 57.3837 90.1742 57.0276C89.0971 56.3119 87.8996 55.6548 86.6957 55.3915C85.1037 55.0432 84.0941 54.918 83.2343 55.0261C82.3881 55.1325 81.6494 55.47 80.6112 56.1357C79.9313 56.5716 79.2687 57.3439 78.7514 58.0625C78.2385 58.775 77.8991 59.3908 77.8595 59.4701C77.7609 59.6672 77.5212 59.7472 77.3241 59.6486ZM80.5166 78.1057C80.3195 78.0072 80.2396 77.7674 80.3382 77.5703C80.3379 77.5707 80.3385 77.5697 80.34 77.5664C80.3415 77.5633 80.3434 77.5592 80.3459 77.5539C80.3509 77.5431 80.3572 77.5291 80.3652 77.5115C80.3711 77.4984 80.3782 77.4827 80.3861 77.4651C80.3984 77.438 80.4126 77.4064 80.4277 77.3731C80.4791 77.2597 80.5489 77.107 80.6347 76.9264C80.806 76.5655 81.0415 76.0915 81.3221 75.5922C81.6021 75.0938 81.9303 74.564 82.2881 74.0942C82.6423 73.6289 83.0428 73.1989 83.4728 72.9233C84.5389 72.2397 85.5378 71.682 86.7201 71.4369C87.9086 71.1906 89.2441 71.2671 90.9841 71.7789C92.7205 72.2896 93.9346 72.9324 94.8349 73.5865C95.7092 74.2217 96.276 74.8601 96.7196 75.3598C96.7321 75.3739 96.7445 75.3879 96.7569 75.4017C96.9032 75.5665 96.8883 75.8188 96.7235 75.9651C96.5588 76.1115 96.3065 76.0966 96.1602 75.9318C96.1501 75.9205 96.14 75.9092 96.1299 75.8978C95.6878 75.3999 95.1693 74.816 94.3658 74.2322C93.545 73.6359 92.4146 73.0316 90.7589 72.5446C89.1068 72.0587 87.9084 72.0058 86.8821 72.2185C85.8496 72.4325 84.9529 72.9224 83.9036 73.5952C83.5881 73.7974 83.2542 74.1427 82.9231 74.5776C82.5955 75.008 82.2874 75.5035 82.0179 75.9831C81.5802 76.7622 81.2664 77.4562 81.1247 77.7695C81.0898 77.8466 81.0654 77.9007 81.0521 77.9273C80.9535 78.1244 80.7138 78.2043 80.5166 78.1057Z" fill="#EAB600"/>
<path d="M138.053 125.403L138.079 129.579L138.106 133.755L138.34 134.209C139.09 135.666 140.435 137.024 142.256 138.164C144.57 139.612 147.99 140.87 151.832 141.69C152.73 140.73 154.964 137.612 156.72 132.823C158.915 126.837 159.913 122.148 162.507 118.956C165.101 115.763 174.28 105.387 174.28 100.997C174.28 97.4854 170.821 84.4357 169.092 78.3498C168.373 73.8004 168.925 66.6104 169.291 63.5841C167.296 62.1208 162.706 58.7354 160.312 56.8996C157.918 55.0639 151.733 49.4966 148.94 46.9424L147.712 45.6699L138.053 125.403Z" fill="#C09911"/>
<path fill-rule="evenodd" clip-rule="evenodd" d="M118.395 4.7381L107.094 9.42297L80.0405 20.6317L79.863 20.7052L74.0221 23.1214C70.9072 24.4099 68.3367 25.4839 68.31 25.508L76.0382 27.8757L119.543 133.097L128.813 129.254L138.083 125.412L180.795 107.896L159.723 56.419C157.012 54.2301 151.548 49.3079 148.971 46.951L159.141 71.4804C164.735 84.9715 169.312 96.0337 169.311 96.0632C169.31 96.1132 120.091 116.528 119.899 116.558C119.828 116.569 118.147 112.551 111.576 96.6652L103.219 76.4629L90.2429 45.1356C89.1294 42.4586 88.2287 40.2989 87.7091 39.062C86.3263 35.7697 85.2175 33.0678 85.2452 33.0575C85.2729 33.0473 96.4034 28.4332 109.98 22.8039C123.556 17.1746 134.676 12.5675 134.69 12.5659C134.705 12.5643 135.222 13.7817 135.839 15.2714C136.456 16.7612 136.969 18.0125 136.979 18.0522L148.971 46.951C151.548 49.3079 157.012 54.2301 159.723 56.419L143.816 17.5615L140.665 9.93895L137.513 2.31637L133.678 1.18237C131.568 0.558638 129.809 0.049447 129.769 0.0507839C129.728 0.0521208 124.61 2.16145 118.395 4.7381ZM153.096 111.574C151.992 108.907 151.987 108.895 151.844 108.819C151.586 108.68 151.344 108.767 147.166 110.508C144.874 111.462 142.968 112.258 142.93 112.275C142.843 112.314 142.705 112.577 142.704 112.705C142.703 112.758 143.178 113.954 143.759 115.363C144.692 117.626 144.834 117.936 144.975 118.023C145.064 118.077 145.186 118.121 145.248 118.121C145.429 118.122 153.821 114.621 153.96 114.488C154.193 114.263 154.153 114.126 153.096 111.574Z" fill="#040829"/>
<path d="M68.31 25.508C68.2818 25.5334 69.7496 29.1511 71.8015 34.1135C73.7487 38.8224 75.3334 42.682 75.3231 42.6902L92.8394 84.9827L102.318 107.896L111.796 130.809L115.67 131.953L119.543 133.097L76.0382 27.8757L68.31 25.508Z" fill="#040829"/>
<path d="M126.745 20.4599C126.68 20.4725 126.565 20.5553 126.491 20.6439C126.306 20.8637 126.31 21.1194 126.502 21.3319C126.64 21.4835 126.812 21.5371 129.08 22.1341C130.417 22.486 131.576 22.7742 131.654 22.7746C131.845 22.7755 132.104 22.549 132.145 22.3452C132.184 22.1492 132.07 21.8435 131.93 21.7696C131.834 21.7189 126.925 20.4153 126.884 20.4297C126.873 20.4337 126.81 20.4473 126.745 20.4599Z" fill="#040829"/>
<path d="M130.576 29.4508C129.624 29.9748 127.586 31.2018 127.491 31.3089C127.31 31.5124 127.326 31.8296 127.527 32.0306C127.817 32.3209 127.904 32.2904 129.609 31.2973C130.45 30.808 131.191 30.359 131.257 30.2995C131.49 30.0884 131.462 29.6591 131.204 29.49C130.992 29.3514 130.781 29.3382 130.576 29.4508Z" fill="#040829"/>
<path d="M147.647 111.466C145.707 112.272 144.081 112.95 144.033 112.973C143.958 113.009 144.058 113.286 144.748 114.952C145.189 116.018 145.565 116.881 145.583 116.87C145.602 116.859 147.227 116.184 149.196 115.369C151.165 114.555 152.794 113.871 152.817 113.849C152.87 113.798 151.3 109.992 151.228 109.997C151.198 109.999 149.586 110.66 147.647 111.466Z" fill="#040829"/>
<path d="M68.31 25.5078C68.2818 25.5332 69.7496 29.1509 71.8015 34.1133C73.7487 38.8222 75.3334 42.6818 75.3231 42.69L92.8394 84.9825L102.318 107.896L111.796 130.809L115.67 131.953L119.543 133.097L76.0382 27.8755L68.31 25.5078Z" fill="#040829"/>
<path d="M134.656 12.5566L85.335 33.1372L119.817 116.581L169.398 96.1709L134.656 12.5566Z" fill="#F6FBFD"/>
<path fill-rule="evenodd" clip-rule="evenodd" d="M115.728 15.946C115.834 16.2004 115.714 16.4924 115.459 16.5982L102.617 21.9419C102.363 22.0477 102.071 21.9273 101.965 21.673C101.859 21.4186 101.98 21.1266 102.234 21.0207L115.076 15.6771C115.33 15.5712 115.622 15.6916 115.728 15.946Z" fill="#040829"/>
<path fill-rule="evenodd" clip-rule="evenodd" d="M144.155 70.1181C144.261 70.3725 144.14 70.6644 143.886 70.7702L108.788 85.3559C108.534 85.4616 108.242 85.3411 108.136 85.0867C108.03 84.8323 108.151 84.5403 108.405 84.4346L143.503 69.8489C143.757 69.7431 144.049 69.8637 144.155 70.1181ZM147.409 77.7947C147.515 78.0491 147.394 78.3411 147.14 78.4468L112.042 93.0325C111.788 93.1382 111.496 93.0177 111.39 92.7633C111.284 92.5089 111.405 92.2169 111.659 92.1112L146.757 77.5255C147.011 77.4198 147.303 77.5403 147.409 77.7947Z" fill="#01365C"/>
<path fill-rule="evenodd" clip-rule="evenodd" d="M131.523 30.2726C131.664 30.5093 131.587 30.8155 131.35 30.9565L128.31 32.767C128.074 32.908 127.767 32.8304 127.627 32.5937C127.486 32.357 127.563 32.0509 127.8 31.9099L130.839 30.0993C131.076 29.9583 131.382 30.0359 131.523 30.2726Z" fill="#19144F"/>
<path fill-rule="evenodd" clip-rule="evenodd" d="M132.256 23.09C132.186 23.3562 131.912 23.5147 131.646 23.4438L126.952 22.195C126.685 22.1242 126.527 21.8509 126.598 21.5847C126.669 21.3184 126.942 21.16 127.208 21.2309L131.903 22.4797C132.169 22.5505 132.327 22.8238 132.256 23.09Z" fill="#19144F"/>
<path d="M119.388 14.9084C119.388 15.5061 118.904 15.9907 118.306 15.9907C117.708 15.9907 117.224 15.5061 117.224 14.9084C117.224 14.3107 117.708 13.8262 118.306 13.8262C118.904 13.8262 119.388 14.3107 119.388 14.9084Z" fill="#040829"/>
<path d="M90.2969 45.541L124.94 31.1136L138.224 63.0108L103.581 77.4383L90.2969 45.541Z" fill="#01365C"/>
<path fill-rule="evenodd" clip-rule="evenodd" d="M184.066 46.8103C183.016 45.8252 180.089 43.2842 176.552 40.2876C160.999 27.1117 150.935 20.0282 144.49 17.7214L143.784 17.4686C142.908 17.2152 140.835 16.7684 139.558 17.0078C138.281 17.2472 137.077 18.0302 136.634 18.3918C135.748 19.3591 135.063 20.8208 134.622 22.6858C134.491 23.2397 134.477 23.3957 134.476 24.3402C134.474 25.4758 134.542 26.0364 134.819 27.1651C135.059 28.1434 135.373 28.9918 135.885 30.044C138.027 34.4487 142.002 39.6725 147.71 45.5857L148.938 46.8582C152.656 50.2037 160.26 57.0106 160.939 57.4739C161.617 57.9372 176.639 50.5579 184.066 46.8103ZM75.2909 42.5973C75.2806 42.6055 74.9957 42.6665 74.6578 42.7328C73.417 42.9763 72.244 43.4591 71.1849 44.1623C68.8835 45.6903 67.4171 47.5523 66.9179 49.5805C66.3349 51.9493 67.0963 54.6314 69.1282 57.3661C70.0456 58.6009 71.4055 60.0162 72.7536 61.1393C73.1103 61.4365 73.4232 61.6988 73.4489 61.7222C73.5611 61.8244 73.3369 62.1256 72.592 62.8729C71.7508 63.7169 71.2693 64.3432 70.878 65.1024C69.9617 66.8803 69.8462 68.7788 70.5269 70.8722C70.9269 72.1023 71.8619 73.7329 72.9292 75.0614C73.5715 75.8611 74.8947 77.2076 75.8332 78.0167C79.6992 81.3499 84.701 83.8955 88.9767 84.706C89.9077 84.8825 90.7391 84.944 91.8111 84.9159L92.8072 84.8898C93.5917 84.8692 94.8622 84.4512 95.2613 84.2517C95.2757 84.2444 95.2911 84.2368 95.3073 84.2288L95.3542 84.2057C95.811 83.9809 96.8063 83.4909 97.4562 82.6554C98.1546 81.7575 98.6534 80.66 98.8529 79.6623C99.0525 78.6646 99.1523 76.9686 98.0548 73.5765C96.9573 70.1843 93.5652 66.7922 93.4655 66.6924C93.3937 66.6207 93.4252 66.4457 93.4485 66.316V66.316C93.4576 66.2654 93.4655 66.2216 93.4655 66.1936V66.0938C93.5985 65.9941 93.9843 65.6549 94.4631 65.0961C95.0618 64.3978 95.5606 62.2029 95.6604 61.5045C95.7601 60.8061 95.3611 58.2121 94.6627 56.117C93.9643 54.0219 91.6696 51.2283 90.8715 50.4302C90.7406 50.2993 90.5776 50.1175 90.3775 49.8944C89.3573 48.7568 87.3746 46.5457 83.7879 44.5439C80.3559 42.6283 76.6932 42.448 75.2909 42.5973ZM164.594 30.913C164.795 30.9831 164.926 31.171 164.926 31.3891C164.926 31.5059 164.493 32.2959 163.396 34.1768C162.554 35.6205 161.816 36.8474 161.756 36.9034C161.688 36.9673 161.57 37.0052 161.439 37.0052C161.169 37.0052 160.919 36.7739 160.919 36.5245C160.919 36.401 161.333 35.646 162.479 33.6792C163.797 31.4176 164.064 30.991 164.202 30.9309L164.216 30.925C164.309 30.8842 164.355 30.8642 164.401 30.8627C164.446 30.8613 164.492 30.8772 164.581 30.9083L164.594 30.913ZM138.558 22.2503C138.372 22.1313 138.125 22.1853 138.006 22.3709C137.887 22.5564 137.941 22.8033 138.127 22.9222C138.794 23.35 140.093 24.0666 141.543 24.7459C142.989 25.4237 144.618 26.0792 145.939 26.3682C147.57 26.7249 148.769 26.7564 149.703 26.6095C150.644 26.4617 151.292 26.1368 151.817 25.8217C152.363 25.4943 152.842 25.0389 153.193 24.649C153.536 24.2674 153.79 23.9112 153.864 23.7624C153.963 23.5653 153.883 23.3255 153.686 23.227C153.488 23.1284 153.249 23.2083 153.15 23.4054L153.15 23.4059C153.149 23.4068 153.148 23.4093 153.146 23.4134C153.144 23.4164 153.142 23.4203 153.139 23.4251C153.131 23.4385 153.12 23.456 153.105 23.4776C153.077 23.5208 153.038 23.5764 152.989 23.6418C152.892 23.7725 152.759 23.9375 152.599 24.1151C152.277 24.4735 151.858 24.8661 151.406 25.1373C150.934 25.4208 150.384 25.6945 149.579 25.8211C148.768 25.9486 147.672 25.9302 146.11 25.5885C144.877 25.3188 143.313 24.694 141.881 24.0232C140.453 23.354 139.187 22.6539 138.558 22.2503ZM77.4049 59.5582C77.2078 59.4596 77.1279 59.2199 77.2264 59.0227C77.2865 58.9026 77.6484 58.2503 78.1845 57.5057C78.7161 56.7673 79.4503 55.8933 80.2612 55.3734C81.3385 54.6827 82.1961 54.2719 83.2155 54.1438C84.2212 54.0173 85.3465 54.1712 86.9471 54.5213C88.2973 54.8167 89.594 55.5397 90.6968 56.2723C91.2507 56.6404 91.7634 57.0162 92.2139 57.3482L92.2893 57.4038C92.7119 57.7154 93.0694 57.9789 93.3626 58.1669C93.5481 58.2858 93.6021 58.5326 93.4832 58.7182C93.3643 58.9038 93.1174 58.9577 92.9319 58.8388C92.6157 58.6361 92.238 58.3576 91.8259 58.0538L91.7404 57.9907C91.2899 57.6587 90.7911 57.2933 90.2551 56.9371C89.1779 56.2215 87.9804 55.5644 86.7765 55.301C85.1846 54.9528 84.175 54.8276 83.3151 54.9357C82.469 55.0421 81.7302 55.3796 80.692 56.0453C80.0122 56.4812 79.3496 57.2534 78.8322 57.9721C78.3193 58.6845 77.98 59.3003 77.9403 59.3797C77.8417 59.5768 77.602 59.6567 77.4049 59.5582ZM80.419 77.4799C80.3204 77.677 80.4003 77.9167 80.5975 78.0153C80.7946 78.1139 81.0343 78.034 81.1329 77.8368C81.1462 77.8102 81.1706 77.7562 81.2055 77.6791C81.3472 77.3658 81.661 76.6718 82.0988 75.8927C82.3682 75.4131 82.6763 74.9176 83.0039 74.4872C83.3351 74.0523 83.6689 73.707 83.9844 73.5047C85.0337 72.8319 85.9305 72.3421 86.9629 72.1281C87.9892 71.9153 89.1876 71.9683 90.8397 72.4542C92.4955 72.9412 93.6258 73.5455 94.4466 74.1418C95.2502 74.7256 95.7686 75.3095 96.2108 75.8074L96.241 75.8414C96.3874 76.0062 96.6396 76.0211 96.8044 75.8747C96.9692 75.7283 96.9841 75.4761 96.8377 75.3113L96.8004 75.2693C96.3568 74.7697 95.7901 74.1313 94.9157 73.4961C94.0155 72.842 92.8013 72.1992 91.0649 71.6885C89.3249 71.1767 87.9894 71.1002 86.8009 71.3465C85.6186 71.5916 84.6198 72.1492 83.5536 72.8328C83.1237 73.1085 82.7231 73.5384 82.3689 74.0037C82.0112 74.4736 81.6829 75.0034 81.4029 75.5017C81.1224 76.0011 80.8869 76.4751 80.7155 76.836C80.6298 77.0166 80.5599 77.1692 80.5086 77.2827C80.4986 77.3046 80.4891 77.3257 80.4802 77.3453L80.467 77.3747L80.446 77.421C80.4381 77.4386 80.4317 77.4526 80.4267 77.4634C80.4243 77.4688 80.4223 77.4729 80.4209 77.476C80.4195 77.4788 80.419 77.48 80.419 77.48L80.419 77.4799Z" fill="#EAB600"/>
<path fill-rule="evenodd" clip-rule="evenodd" d="M138.007 22.3713C138.125 22.1857 138.372 22.1317 138.558 22.2507C139.187 22.6543 140.453 23.3544 141.881 24.0236C143.313 24.6944 144.877 25.3192 146.11 25.5889C147.672 25.9306 148.768 25.949 149.579 25.8215C150.385 25.6949 150.934 25.4212 151.406 25.1377C151.858 24.8665 152.277 24.4739 152.6 24.1155C152.759 23.9379 152.892 23.7729 152.989 23.6422C153.038 23.5768 153.077 23.5212 153.105 23.478C153.12 23.4564 153.131 23.4389 153.139 23.4255C153.148 23.4112 153.151 23.4052 153.15 23.4058C153.249 23.2087 153.489 23.1288 153.686 23.2274C153.883 23.3259 153.963 23.5656 153.864 23.7628C153.79 23.9116 153.536 24.2678 153.193 24.6494C152.842 25.0393 152.363 25.4947 151.817 25.8221C151.292 26.1372 150.644 26.4621 149.703 26.6099C148.769 26.7568 147.57 26.7253 145.939 26.3686C144.618 26.0796 142.989 25.4241 141.543 24.7463C140.093 24.067 138.794 23.3504 138.127 22.9226C137.942 22.8037 137.888 22.5568 138.007 22.3713Z" fill="#040829"/>
<path fill-rule="evenodd" clip-rule="evenodd" d="M80.5975 78.0164C80.4004 77.9178 80.3205 77.6781 80.4191 77.481C80.4188 77.4814 80.4194 77.4803 80.4209 77.4771C80.4224 77.474 80.4243 77.4699 80.4268 77.4645C80.4318 77.4537 80.4381 77.4397 80.4461 77.4221C80.452 77.409 80.4591 77.3933 80.467 77.3757C80.4793 77.3486 80.4935 77.3171 80.5086 77.2837C80.56 77.1703 80.6298 77.0177 80.7156 76.837C80.8869 76.4761 81.1224 76.0022 81.403 75.5028C81.6829 75.0044 82.0112 74.4747 82.3689 74.0048C82.7232 73.5395 83.1237 73.1096 83.5536 72.8339C84.6198 72.1503 85.6187 71.5926 86.801 71.3476C87.9895 71.1013 89.325 71.1778 91.065 71.6895C92.8013 72.2002 94.0155 72.8431 94.9158 73.4971C95.7901 74.1324 96.3569 74.7707 96.8005 75.2704C96.813 75.2845 96.8254 75.2985 96.8378 75.3124C96.9841 75.4772 96.9692 75.7294 96.8044 75.8758C96.6397 76.0222 96.3874 76.0072 96.241 75.8425C96.231 75.8312 96.2209 75.8198 96.2108 75.8084C95.7687 75.3105 95.2502 74.7267 94.4466 74.1428C93.6259 73.5465 92.4955 72.9422 90.8398 72.4553C89.1877 71.9693 87.9892 71.9164 86.963 72.1291C85.9305 72.3431 85.0338 72.833 83.9845 73.5058C83.669 73.7081 83.3351 74.0534 83.004 74.4883C82.6764 74.9186 82.3682 75.4141 82.0988 75.8937C81.6611 76.6729 81.3472 77.3668 81.2055 77.6802C81.1707 77.7572 81.1462 77.8113 81.1329 77.8379C81.0344 78.035 80.7947 78.1149 80.5975 78.0164Z" fill="#040829"/>
<path fill-rule="evenodd" clip-rule="evenodd" d="M77.4044 59.5593C77.2073 59.4608 77.1274 59.2211 77.226 59.0239C77.2861 58.9037 77.648 58.2515 78.184 57.5069C78.7157 56.7684 79.4498 55.8945 80.2608 55.3746C81.3381 54.6838 82.1956 54.2731 83.2151 54.1449C84.2208 54.0185 85.346 54.1724 86.9467 54.5225C88.2969 54.8179 89.5935 55.5409 90.6963 56.2735C91.2502 56.6415 91.7629 57.0173 92.2134 57.3494C92.2388 57.3681 92.264 57.3866 92.2889 57.405C92.7115 57.7166 93.0689 57.9801 93.3621 58.1681C93.5477 58.287 93.6017 58.5338 93.4827 58.7194C93.3638 58.9049 93.117 58.9589 92.9314 58.84C92.6152 58.6373 92.2376 58.3588 91.8255 58.055C91.7971 58.0341 91.7686 58.013 91.7399 57.9919C91.2894 57.6599 90.7907 57.2945 90.2546 56.9383C89.1775 56.2227 87.98 55.5656 86.7761 55.3022C85.1841 54.954 84.1745 54.8287 83.3147 54.9369C82.4685 55.0432 81.7298 55.3808 80.6916 56.0465C80.0117 56.4824 79.3491 57.2546 78.8318 57.9732C78.3189 58.6857 77.9795 59.3015 77.9399 59.3809C77.8413 59.578 77.6016 59.6579 77.4044 59.5593Z" fill="#040829"/>
<path fill-rule="evenodd" clip-rule="evenodd" d="M1.84766 97.6624H16.6777H18.6797V96.6624H18.6777V55.4699L16.6777 56.614L2.94766 64.4683V49.0644L26.4119 35.7324H37.2477V96.6624H37.2422L37.2539 97.6624H54.1877V112.052H1.84766V97.6624ZM55.1877 96.6624H38.2477V34.7324H26.1477L1.94766 48.4824V66.1924L17.6777 57.194V96.6624H0.847656V113.052H55.1877V96.6624Z" fill="#001EFC"/>
</svg>
