<svg width="30" height="30" viewBox="0 0 30 30" fill="none" xmlns="http://www.w3.org/2000/svg">
<g opacity="0.7">
<path fill-rule="evenodd" clip-rule="evenodd" d="M15.6944 1.87498L16.4232 1.87593C22.7355 2.22421 27.7757 7.26443 28.125 13.6111L28.125 14.304C28.1299 16.2356 27.6786 18.141 26.809 19.8628C24.7045 24.0735 20.402 26.7343 15.696 26.7361C13.852 26.7409 12.0318 26.3299 10.3704 25.5349L2.69756 28.0929C2.24154 28.245 1.80621 27.8502 1.88261 27.3996L1.90699 27.3024L4.46492 19.625L4.37198 19.4304C3.70475 17.9694 3.33101 16.3914 3.27204 14.7873L3.26381 14.3053C3.26563 9.59794 5.92639 5.29543 10.1348 3.19215C11.8589 2.32129 13.7644 1.86999 15.6944 1.87498ZM16.3543 3.12403L15.6927 3.12498C13.9579 3.12049 12.2467 3.5258 10.6959 4.30908C6.90859 6.20194 4.51539 10.0718 4.51375 14.3072C4.50922 16.0419 4.91452 17.7532 5.69662 19.3016C5.77175 19.4503 5.78437 19.6229 5.73167 19.781L3.48736 26.5113L10.2189 24.2682C10.3375 24.2287 10.4642 24.2259 10.5829 24.2587L10.6983 24.3033C12.2467 25.0854 13.958 25.4907 15.6941 25.4861C19.9281 25.4845 23.7979 23.0913 25.692 19.3016C26.4741 17.7532 26.8794 16.0419 26.8749 14.3056L26.8758 13.6456C26.5627 7.96947 22.0304 3.43721 16.3543 3.12403Z" fill="#21232B"/>
</g>
</svg>
