<svg width="30" height="30" viewBox="0 0 30 30" fill="none" xmlns="http://www.w3.org/2000/svg">
<g opacity="0.7">
<path fill-rule="evenodd" clip-rule="evenodd" d="M14.7775 4.28349C16.601 2.57123 19.2684 2.10808 21.5624 3.1054C23.6714 4.02228 25.0993 6.01604 25.3037 8.29182L25.3228 8.57771L25.3287 8.86985V11.1505C25.33 12.723 24.7382 14.2256 23.6914 15.3689L23.476 15.5927L23.34 15.7187L23.3683 15.7288C24.8039 16.2543 26.1319 17.0337 27.2893 18.0282L27.6687 18.3677L28.0022 18.6898C28.5493 19.2378 29.0461 19.8339 29.4854 20.4693C30.0174 21.2271 30.0737 22.2211 29.6326 23.03C29.2622 23.7401 28.5804 24.2284 27.7916 24.3573L27.5923 24.382L27.387 24.3904H24.5377C24.2104 24.3904 23.9452 24.1251 23.9452 23.7979C23.9452 23.5559 24.0913 23.3436 24.3251 23.2491L24.4305 23.2161L24.5377 23.2055L27.3821 23.2055C27.8847 23.2094 28.3464 22.9294 28.5781 22.4769C28.8053 22.057 28.7766 21.5449 28.503 21.1521C28.105 20.5744 27.6561 20.0334 27.1617 19.5358C25.9251 18.292 24.4227 17.3486 22.774 16.7759L22.3588 16.6404L21.9334 16.5193L20.617 16.1754L21.7679 15.4457C23.0843 14.6203 23.9445 13.2415 24.1155 11.7163L24.1395 11.4287L24.1472 11.1472L24.1472 8.8691C24.1533 6.84213 22.9535 5.00565 21.0948 4.19692C19.2362 3.38818 17.0746 3.76209 15.597 5.14681C15.443 5.29343 15.2225 5.34675 15.0185 5.28669C14.8145 5.22663 14.6581 5.06231 14.6081 4.85562C14.5581 4.64894 14.6222 4.4313 14.7775 4.28349ZM15.3262 6.78129C13.3834 5.65964 10.9898 5.65964 9.04705 6.78129C7.10429 7.90295 5.9075 9.97585 5.9075 12.2192V14.4863L5.91587 14.8113L5.94002 15.1229L5.98305 15.4549C6.1901 16.7748 6.81352 17.9927 7.76265 18.9305L7.89621 19.055L7.43637 19.2329C5.86715 19.876 4.4396 20.8282 3.24036 22.0362C2.71526 22.5611 2.23613 23.1314 1.80903 23.7399C1.25312 24.5193 1.18264 25.5472 1.62783 26.3968C2.05323 27.2306 2.9166 27.7531 3.85532 27.7433L20.5239 27.7433L20.7293 27.7349L20.9286 27.7102C21.7174 27.5812 22.3992 27.0928 22.7696 26.3827C23.2068 25.5751 23.1507 24.5857 22.6228 23.8295C22.1847 23.1893 21.6879 22.5884 21.1397 22.0362L20.805 21.7138L20.4244 21.3741C19.2631 20.3791 17.9314 19.6007 16.4922 19.0772L16.4662 19.0675L16.6016 18.9421L16.8183 18.7179C17.8715 17.5726 18.4673 16.0646 18.4657 14.486V12.2192L18.4586 11.9205L18.4365 11.6168C18.2414 9.60223 17.0884 7.79869 15.3262 6.78129ZM9.29708 7.21434C11.0851 6.182 13.2881 6.182 15.0762 7.21434C16.7791 8.19754 17.864 9.97846 17.959 11.9387L17.9658 12.2252L17.9657 14.4863L17.9579 14.7928C17.8726 16.4212 17.098 17.9424 15.8194 18.9695L15.458 19.2599L15.8992 19.4023L16.3213 19.5471C17.9973 20.1567 19.5215 21.1261 20.7856 22.3892C21.3117 22.9192 21.7892 23.4967 22.2115 24.1138C22.6325 24.7169 22.6771 25.5034 22.3281 26.1481C22.0043 26.7688 21.389 27.1773 20.6977 27.236L20.5135 27.2435L3.85273 27.2433L3.66631 27.2365C2.98879 27.1799 2.384 26.7787 2.07199 26.1672C1.71304 25.4821 1.76967 24.6562 2.21722 24.0287C2.62878 23.4424 3.08925 22.8943 3.59455 22.3891C4.95669 21.0171 6.62449 19.9888 8.46124 19.3883L8.89843 19.2454L8.54069 18.9563L8.30882 18.7585C7.17897 17.7418 6.49563 16.3154 6.41546 14.7917L6.40744 14.4798L6.40752 12.2192L6.41431 11.9387C6.50907 9.98288 7.59029 8.19975 9.29708 7.21434ZM14.9871 7.3745C16.6355 8.32622 17.6811 10.0466 17.777 11.9348L17.7842 12.2192L17.7841 14.4927L17.7765 14.7883C17.6866 16.4986 16.8152 18.0691 15.4226 19.051L15.1715 19.218L14.9912 19.3313L15.2019 19.3863L15.6372 19.5102C17.5322 20.0885 19.2556 21.1266 20.6532 22.5326C21.1691 23.0512 21.6372 23.6153 22.0512 24.217C22.39 24.705 22.4585 25.3273 22.2407 25.8798L22.1576 26.0611L22.0604 26.2264C21.7538 26.6891 21.2546 26.9855 20.7078 27.0368L20.5239 27.0446L3.84481 27.0444L3.65575 27.0354C3.04928 26.9735 2.51367 26.6077 2.23777 26.0654C1.91098 25.4464 1.96318 24.6956 2.37116 24.1297C2.77535 23.558 3.22806 23.0222 3.72321 22.5294C5.12778 21.1144 6.86118 20.0735 8.76579 19.4977L9.17648 19.3814L9.37995 19.3275L9.20029 19.2149L8.95445 19.0508C7.55641 18.0629 6.69259 16.4894 6.60347 14.7878L6.59584 14.4863L6.59593 12.2126L6.60378 11.9207C6.70437 10.0334 7.75266 8.32151 9.39293 7.3745C11.1238 6.3752 13.2563 6.3752 14.9871 7.3745ZM7.12649 11.6568C7.30239 10.0577 8.23224 8.62197 9.64292 7.80752C11.2191 6.89754 13.1609 6.89754 14.7371 7.80752C16.3132 8.71751 17.2842 10.3992 17.2842 12.2192V14.4863L17.2769 14.7688L17.2534 15.057C17.0847 16.5855 16.2239 17.9681 14.9048 18.7951L13.754 19.5247L15.0703 19.8686L15.4958 19.9897L15.911 20.1252C17.5597 20.6979 19.0621 21.6413 20.2987 22.8852C20.7934 23.3825 21.2423 23.9234 21.6399 24.5013C21.9104 24.891 21.9411 25.3993 21.7205 25.8185L21.6362 25.9621L21.538 26.0911C21.2906 26.3762 20.9196 26.5477 20.5258 26.5447L3.8561 26.5446L3.69243 26.537L3.53559 26.5105C3.17503 26.4253 2.85703 26.18 2.68166 25.8353C2.44182 25.3809 2.47985 24.8339 2.77808 24.4202C3.16702 23.8701 3.60115 23.3563 4.07699 22.8827C5.52022 21.4288 7.32415 20.3874 9.30346 19.865L10.6202 19.521L9.47256 18.7956L9.23742 18.6387L9.00625 18.4651C7.80384 17.5075 7.09323 16.043 7.09583 14.4867L7.09583 12.2192L7.10333 11.9406L7.12649 11.6568ZM15.121 4.64684C16.7977 3.07245 19.2522 2.64627 21.3631 3.56398L21.6122 3.67938C23.4941 4.60608 24.73 6.48845 24.8231 8.59389L24.8288 8.87499L24.8287 11.1507L24.8209 11.456C24.7359 13.0781 23.9665 14.5941 22.6956 15.6206L22.337 15.9102L22.7754 16.0528L23.1964 16.1983C24.8682 16.8104 26.3881 17.7806 27.6484 19.0431C28.1743 19.5699 28.6518 20.1429 29.0751 20.7552C29.499 21.3589 29.5436 22.1487 29.1914 22.7947C28.8673 23.4161 28.252 23.8246 27.5607 23.8832L27.3765 23.8907L24.5376 23.8904L24.5016 23.8832C24.4684 23.8691 24.4452 23.8363 24.4452 23.798C24.4452 23.7548 24.475 23.7176 24.5162 23.7079L24.5662 23.7039L27.3801 23.7055L27.5512 23.6988C28.1735 23.6451 28.7316 23.2743 29.0205 22.7098C29.3349 22.1289 29.2948 21.4142 28.914 20.8674C28.4998 20.2662 28.0318 19.7022 27.5163 19.1834C26.1185 17.7774 24.3952 16.7394 22.5002 16.1609L22.065 16.037L21.855 15.9813L22.0345 15.8687L22.2851 15.702C23.6752 14.7222 24.5461 13.1559 24.639 11.4491L24.6471 11.1541L24.6472 8.86989L24.6412 8.59282C24.5428 6.47796 23.2509 4.58981 21.2943 3.73847C19.2526 2.85013 16.8783 3.26084 15.2537 4.78337C15.2276 4.80816 15.1923 4.81669 15.1597 4.80709C15.1271 4.79748 15.1021 4.7712 15.0941 4.73815C15.0861 4.7051 15.0963 4.67029 15.121 4.64684Z" fill="#21232B"/>
<path fill-rule="evenodd" clip-rule="evenodd" d="M27.8254 18.8664C28.3619 19.4038 28.849 19.9884 29.2808 20.613C29.7582 21.293 29.8087 22.1849 29.411 22.9144C29.0177 23.6684 28.2375 24.141 27.387 24.1404H24.5377C24.3485 24.1404 24.1952 23.9871 24.1952 23.7979C24.1952 23.6088 24.3485 23.4555 24.5377 23.4555H27.3801C27.9773 23.4601 28.526 23.1275 28.798 22.5959C29.0702 22.0929 29.0357 21.4795 28.7089 21.0103C28.3025 20.4202 27.844 19.8678 27.3391 19.3596C25.8638 17.8757 24.0197 16.8118 21.9966 16.2774L21.2363 16.0787L21.9007 15.6575C23.4536 14.6839 24.3967 12.9801 24.3973 11.1472V8.86984C24.4036 6.74309 23.1448 4.81621 21.1946 3.96767C19.2445 3.11913 16.9765 3.51144 15.4247 4.96574C15.3354 5.05077 15.2075 5.0817 15.0892 5.04686C14.9709 5.01203 14.8801 4.91673 14.8511 4.79686C14.8222 4.67699 14.8593 4.55077 14.9486 4.46574C16.6994 2.82182 19.2604 2.37715 21.4628 3.33467C23.6652 4.29219 25.0868 6.46828 25.0788 8.86984V11.1507C25.0802 12.9621 24.2619 14.6768 22.8528 15.815C24.728 16.4251 26.4321 17.4708 27.8254 18.8664ZM20.9623 22.2123C19.5649 20.816 17.8559 19.7714 15.976 19.1644C17.3936 18.0256 18.2175 16.3047 18.2157 14.4863V12.2192C18.2157 10.0652 17.0666 8.07482 15.2012 6.99783C13.3358 5.92083 11.0375 5.92083 9.17208 6.99783C7.30667 8.07482 6.15753 10.0652 6.15753 12.2192V14.4863C6.15656 16.2976 6.97482 18.0122 8.38355 19.1507C6.50917 19.7635 4.80718 20.8129 3.4178 22.2123C2.90227 22.7277 2.43247 23.2869 2.01369 23.8836C1.51141 24.5878 1.44786 25.5146 1.84931 26.2808C2.23283 27.0325 3.00893 27.5021 3.85273 27.4932H20.524C21.3744 27.4938 22.1546 27.0212 22.5479 26.2671C22.942 25.5392 22.8916 24.6513 22.4178 23.9726C21.987 23.343 21.4998 22.7538 20.9623 22.2123ZM21.9418 25.935C21.6697 26.4666 21.1211 26.7992 20.5239 26.7946H3.85613C3.26741 26.8013 2.72586 26.4734 2.45887 25.9487C2.17642 25.4136 2.22154 24.7648 2.57531 24.274C2.97121 23.7141 3.41463 23.1893 3.90065 22.7055C5.37419 21.2211 7.21735 20.1571 9.23969 19.6233L9.99997 19.4247L9.33901 19.0069C7.7848 18.0301 6.8428 16.322 6.84586 14.4863V12.2192C6.84586 10.3099 7.86445 8.54567 9.51795 7.59102C11.1714 6.63638 13.2086 6.63638 14.8621 7.59102C16.5156 8.54567 17.5342 10.3099 17.5342 12.2192V14.4863C17.5372 16.3229 16.5937 18.0313 15.0376 19.0069L14.3733 19.4281L15.1335 19.6268C17.1567 20.161 19.0008 21.2249 20.476 22.7089C20.9813 23.2169 21.4398 23.7693 21.8459 24.3596C22.1696 24.8259 22.2053 25.4341 21.9383 25.935H21.9418Z" fill="#21232B"/>
</g>
</svg>
