<svg width="30" height="30" viewBox="0 0 30 30" fill="none" xmlns="http://www.w3.org/2000/svg">
<path fill-rule="evenodd" clip-rule="evenodd" d="M3.06781 27.0508L8.85595 24.9831L14.6441 27.0508C14.7372 27.0845 14.8391 27.0845 14.9322 27.0508L20.7204 24.9831L26.5085 27.0508C26.6527 27.1064 26.8158 27.0791 26.934 26.9794C27.0522 26.8797 27.1067 26.7236 27.0763 26.572L25.3814 17.6737C25.3538 17.5346 25.2583 17.4184 25.1271 17.3644L20.0424 15.2458C19.9401 15.1994 19.8227 15.1994 19.7204 15.2458L18.8009 15.6356C20.2458 13.4195 21.5678 10.9746 21.5678 9.27966C21.5678 5.53536 18.5325 2.5 14.7881 2.5C11.0438 2.5 8.00849 5.53536 8.00849 9.27966C8.00849 10.9534 9.32628 13.4195 10.7754 15.6356L9.86442 15.2585C9.76209 15.2121 9.64471 15.2121 9.54239 15.2585L4.45764 17.3771C4.32645 17.4312 4.23102 17.5473 4.2034 17.6864L2.50849 26.5847C2.48507 26.7322 2.541 26.8811 2.65571 26.9767C2.77042 27.0723 2.92698 27.1005 3.06781 27.0508ZM14.7881 5.88982C16.6603 5.88982 18.1779 7.4075 18.1779 9.27966C18.1779 11.1518 16.6603 12.6695 14.7881 12.6695C12.916 12.6695 11.3983 11.1518 11.3983 9.27966C11.3983 7.4075 12.916 5.88982 14.7881 5.88982ZM14.7881 6.73729C13.384 6.73729 12.2458 7.87555 12.2458 9.27966C12.2458 10.6838 13.384 11.822 14.7881 11.822C16.1922 11.822 17.3305 10.6838 17.3305 9.27966C17.3305 7.87555 16.1922 6.73729 14.7881 6.73729ZM21.1145 24.2246L26.0975 26.0042L24.5975 18.0593L20.3602 16.2966L21.1145 24.2246ZM19.5042 16.2585L20.2669 24.2585L15.2119 26.0508V20.4491L15.2506 20.4019C15.6383 19.9294 16.7456 18.58 17.928 16.9068L19.5042 16.2585ZM20.7203 9.27967C20.7203 6.0034 18.0644 3.34746 14.7881 3.34746C11.5118 3.34746 8.8559 6.0034 8.8559 9.27967C8.8559 12.1526 13.5169 18.0593 14.7881 19.6314C16.0593 18.0593 20.7203 12.1526 20.7203 9.27967ZM14.3645 20.4492V26.0509L9.30938 24.2458L10.0721 16.2458L11.6484 16.9068C12.8729 18.6398 14.017 20.0339 14.3645 20.4492ZM9.2288 16.2966L4.99152 18.0593L3.4788 26.0042L8.46186 24.2246L9.2288 16.2966Z" fill="white"/>
<path d="M8.85595 24.9831L8.88959 24.8889L8.85595 24.8769L8.8223 24.8889L8.85595 24.9831ZM3.06781 27.0508L3.10105 27.1452L3.10145 27.145L3.06781 27.0508ZM14.6441 27.0508L14.6781 26.9568L14.6777 26.9567L14.6441 27.0508ZM14.9322 27.0508L14.8986 26.9567L14.8982 26.9568L14.9322 27.0508ZM20.7204 24.9831L20.754 24.8889L20.7204 24.8769L20.6867 24.8889L20.7204 24.9831ZM26.5085 27.0508L26.5445 26.9575L26.5421 26.9567L26.5085 27.0508ZM26.934 26.9794L26.8695 26.9029L26.934 26.9794ZM27.0763 26.572L26.978 26.5907L26.9782 26.5917L27.0763 26.572ZM25.3814 17.6737L25.4796 17.655L25.4795 17.6543L25.3814 17.6737ZM25.1271 17.3644L25.0887 17.4567L25.089 17.4569L25.1271 17.3644ZM20.0424 15.2458L20.0011 15.3369L20.0039 15.3381L20.0424 15.2458ZM19.7204 15.2458L19.7594 15.3379L19.7617 15.3368L19.7204 15.2458ZM18.8009 15.6356L18.7171 15.581L18.538 15.8557L18.8399 15.7277L18.8009 15.6356ZM10.7754 15.6356L10.7372 15.728L11.0363 15.8518L10.8591 15.5809L10.7754 15.6356ZM9.86442 15.2585L9.82309 15.3496L9.82617 15.3509L9.86442 15.2585ZM9.54239 15.2585L9.58087 15.3508L9.58369 15.3495L9.54239 15.2585ZM4.45764 17.3771L4.49573 17.4696L4.4961 17.4694L4.45764 17.3771ZM4.2034 17.6864L4.10531 17.667L4.10517 17.6677L4.2034 17.6864ZM2.50849 26.5847L2.41021 26.566L2.40973 26.5691L2.50849 26.5847ZM2.65571 26.9767L2.59169 27.0535H2.59169L2.65571 26.9767ZM26.0975 26.0042L26.0639 26.0984L26.2281 26.1571L26.1958 25.9857L26.0975 26.0042ZM21.1145 24.2246L21.0149 24.2341L21.0209 24.2974L21.0808 24.3188L21.1145 24.2246ZM24.5975 18.0593L24.6958 18.0408L24.6858 17.9877L24.6359 17.967L24.5975 18.0593ZM20.3602 16.2966L20.3986 16.2043L20.2449 16.1403L20.2607 16.3061L20.3602 16.2966ZM20.2669 24.2585L20.3004 24.3527L20.3739 24.3266L20.3665 24.249L20.2669 24.2585ZM19.5042 16.2585L19.6038 16.249L19.591 16.1147L19.4662 16.166L19.5042 16.2585ZM15.2119 26.0508H15.1119V26.1924L15.2453 26.1451L15.2119 26.0508ZM15.2119 20.4491L15.1345 20.3857L15.1119 20.4134V20.4491H15.2119ZM15.2506 20.4019L15.1733 20.3384L15.1733 20.3385L15.2506 20.4019ZM17.928 16.9068L17.8899 16.8143L17.8631 16.8253L17.8463 16.8491L17.928 16.9068ZM14.7881 19.6314L14.7103 19.6942L14.7881 19.7904L14.8659 19.6942L14.7881 19.6314ZM14.3645 26.0509L14.3308 26.145L14.4645 26.1928V26.0509H14.3645ZM14.3645 20.4492H14.4645V20.4129L14.4412 20.385L14.3645 20.4492ZM9.30938 24.2458L9.20983 24.2363L9.20244 24.3138L9.27575 24.34L9.30938 24.2458ZM10.0721 16.2458L10.1108 16.1536L9.98544 16.101L9.97254 16.2363L10.0721 16.2458ZM11.6484 16.9068L11.73 16.8491L11.7135 16.8257L11.687 16.8146L11.6484 16.9068ZM4.99152 18.0593L4.95311 17.967L4.90336 17.9877L4.89328 18.0406L4.99152 18.0593ZM9.2288 16.2966L9.32834 16.3062L9.3444 16.1402L9.1904 16.2043L9.2288 16.2966ZM3.4788 26.0042L3.38057 25.9855L3.34789 26.1572L3.51244 26.0984L3.4788 26.0042ZM8.46186 24.2246L8.49549 24.3188L8.55528 24.2974L8.56139 24.2342L8.46186 24.2246ZM8.8223 24.8889L3.03417 26.9567L3.10145 27.145L8.88959 25.0772L8.8223 24.8889ZM14.6777 26.9567L8.88959 24.8889L8.8223 25.0772L14.6104 27.145L14.6777 26.9567ZM14.8982 26.9568C14.8271 26.9825 14.7492 26.9825 14.6781 26.9568L14.6101 27.1449C14.7251 27.1865 14.8511 27.1865 14.9662 27.1449L14.8982 26.9568ZM20.6867 24.8889L14.8986 26.9567L14.9659 27.145L20.754 25.0772L20.6867 24.8889ZM26.5421 26.9567L20.754 24.8889L20.6867 25.0772L26.4748 27.145L26.5421 26.9567ZM26.8695 26.9029C26.7792 26.9791 26.6547 27 26.5444 26.9575L26.4725 27.1442C26.6508 27.2129 26.8524 27.179 26.9985 27.0558L26.8695 26.9029ZM26.9782 26.5917C27.0015 26.7075 26.9598 26.8268 26.8695 26.9029L26.9985 27.0558C27.1446 26.9327 27.2119 26.7397 27.1743 26.5523L26.9782 26.5917ZM25.2831 17.6924L26.978 26.5907L27.1745 26.5533L25.4796 17.655L25.2831 17.6924ZM25.089 17.4569C25.1893 17.4982 25.2622 17.5869 25.2833 17.6932L25.4795 17.6543C25.4453 17.4823 25.3274 17.3387 25.1652 17.2719L25.089 17.4569ZM20.0039 15.3381L25.0887 17.4567L25.1656 17.2721L20.0808 15.1535L20.0039 15.3381ZM19.7617 15.3368C19.8377 15.3023 19.925 15.3023 20.0011 15.3368L20.0837 15.1547C19.9551 15.0964 19.8076 15.0964 19.679 15.1547L19.7617 15.3368ZM18.8399 15.7277L19.7594 15.3378L19.6813 15.1537L18.7618 15.5435L18.8399 15.7277ZM21.4678 9.27966C21.4678 10.1049 21.1449 11.1237 20.6355 12.22C20.1272 13.314 19.4383 14.4748 18.7171 15.581L18.8846 15.6902C19.6083 14.5803 20.3029 13.4105 20.8169 12.3043C21.3297 11.2005 21.6678 10.1494 21.6678 9.27966H21.4678ZM14.7881 2.6C18.4772 2.6 21.4678 5.59059 21.4678 9.27966H21.6678C21.6678 5.48013 18.5877 2.4 14.7881 2.4V2.6ZM8.10849 9.27966C8.10849 5.59059 11.0991 2.6 14.7881 2.6V2.4C10.9886 2.4 7.90849 5.48013 7.90849 9.27966H8.10849ZM10.8591 15.5809C10.1359 14.4749 9.44704 13.3089 8.93927 12.2122C8.43035 11.1131 8.10849 10.0943 8.10849 9.27966H7.90849C7.90849 10.1388 8.24552 11.1899 8.75778 12.2963C9.2712 13.4051 9.96578 14.5802 10.6917 15.6903L10.8591 15.5809ZM9.82617 15.3509L10.7372 15.728L10.8137 15.5432L9.90267 15.1661L9.82617 15.3509ZM9.58369 15.3495C9.65977 15.315 9.74704 15.315 9.82311 15.3495L9.90572 15.1674C9.77715 15.1091 9.62966 15.1091 9.50108 15.1674L9.58369 15.3495ZM4.4961 17.4694L9.58085 15.3508L9.50392 15.1662L4.41918 17.2848L4.4961 17.4694ZM4.30149 17.7059C4.32259 17.5996 4.3955 17.5109 4.49573 17.4696L4.41955 17.2847C4.2574 17.3514 4.13945 17.495 4.10532 17.667L4.30149 17.7059ZM2.60672 26.6035L4.30164 17.7052L4.10517 17.6677L2.41025 26.566L2.60672 26.6035ZM2.71973 26.8999C2.63209 26.8269 2.58936 26.7131 2.60725 26.6004L2.40973 26.5691C2.38078 26.7513 2.44991 26.9354 2.59169 27.0535L2.71973 26.8999ZM3.03457 26.9565C2.92698 26.9945 2.80737 26.9729 2.71973 26.8999L2.59169 27.0535C2.73347 27.1717 2.92698 27.2065 3.10105 27.1452L3.03457 26.9565ZM18.2779 9.27966C18.2779 7.35228 16.7155 5.78982 14.7881 5.78982V5.98982C16.605 5.98982 18.0779 7.46273 18.0779 9.27966H18.2779ZM14.7881 12.7695C16.7155 12.7695 18.2779 11.207 18.2779 9.27966H18.0779C18.0779 11.0966 16.605 12.5695 14.7881 12.5695V12.7695ZM11.2983 9.27966C11.2983 11.207 12.8607 12.7695 14.7881 12.7695V12.5695C12.9712 12.5695 11.4983 11.0966 11.4983 9.27966H11.2983ZM14.7881 5.78982C12.8607 5.78982 11.2983 7.35228 11.2983 9.27966H11.4983C11.4983 7.46273 12.9712 5.98982 14.7881 5.98982V5.78982ZM12.3458 9.27966C12.3458 7.93078 13.4392 6.83729 14.7881 6.83729V6.63729C13.3288 6.63729 12.1458 7.82032 12.1458 9.27966H12.3458ZM14.7881 11.722C13.4392 11.722 12.3458 10.6285 12.3458 9.27966H12.1458C12.1458 10.739 13.3288 11.922 14.7881 11.922V11.722ZM17.2305 9.27966C17.2305 10.6285 16.137 11.722 14.7881 11.722V11.922C16.2475 11.922 17.4305 10.739 17.4305 9.27966H17.2305ZM14.7881 6.83729C16.137 6.83729 17.2305 7.93078 17.2305 9.27966H17.4305C17.4305 7.82032 16.2475 6.63729 14.7881 6.63729V6.83729ZM26.1311 25.9101L21.1481 24.1304L21.0808 24.3188L26.0639 26.0984L26.1311 25.9101ZM24.4992 18.0779L25.9992 26.0228L26.1958 25.9857L24.6958 18.0408L24.4992 18.0779ZM20.3218 16.3889L24.5591 18.1517L24.6359 17.967L20.3986 16.2043L20.3218 16.3889ZM21.214 24.2151L20.4598 16.2871L20.2607 16.3061L21.0149 24.2341L21.214 24.2151ZM20.3665 24.249L19.6038 16.249L19.4047 16.268L20.1674 24.2679L20.3665 24.249ZM15.2453 26.1451L20.3004 24.3527L20.2335 24.1642L15.1784 25.9566L15.2453 26.1451ZM15.1119 20.4491V26.0508H15.3119V20.4491H15.1119ZM15.1733 20.3385L15.1345 20.3857L15.2892 20.5126L15.3279 20.4653L15.1733 20.3385ZM17.8463 16.8491C16.6661 18.5193 15.5607 19.8664 15.1733 20.3384L15.3279 20.4653C15.716 19.9924 16.8251 18.6408 18.0096 16.9645L17.8463 16.8491ZM19.4662 16.166L17.8899 16.8143L17.966 16.9992L19.5423 16.3509L19.4662 16.166ZM14.7881 3.44746C18.0091 3.44746 20.6203 6.05863 20.6203 9.27967H20.8203C20.8203 5.94817 18.1196 3.24746 14.7881 3.24746V3.44746ZM8.9559 9.27967C8.9559 6.05863 11.5671 3.44746 14.7881 3.44746V3.24746C11.4566 3.24746 8.7559 5.94817 8.7559 9.27967H8.9559ZM14.8659 19.5685C14.2309 18.7833 12.7504 16.9167 11.4291 14.8887C10.7684 13.8747 10.1488 12.8223 9.69472 11.8459C9.23938 10.8668 8.9559 9.9753 8.9559 9.27967H8.7559C8.7559 10.0205 9.05505 10.9447 9.51337 11.9302C9.97298 12.9185 10.5981 13.9797 11.2615 14.9979C12.5885 17.0346 14.0741 18.9074 14.7103 19.6942L14.8659 19.5685ZM20.6203 9.27967C20.6203 9.9753 20.3368 10.8668 19.8815 11.8459C19.4274 12.8223 18.8078 13.8747 18.1471 14.8887C16.8258 16.9167 15.3453 18.7833 14.7103 19.5685L14.8659 19.6942C15.5021 18.9074 16.9877 17.0346 18.3147 14.9979C18.9781 13.9797 19.6032 12.9185 20.0628 11.9302C20.5212 10.9447 20.8203 10.0205 20.8203 9.27967H20.6203ZM14.4645 26.0509V20.4492H14.2645V26.0509H14.4645ZM9.27575 24.34L14.3308 26.145L14.3981 25.9567L9.34301 24.1516L9.27575 24.34ZM9.97254 16.2363L9.20983 24.2363L9.40893 24.2553L10.1716 16.2553L9.97254 16.2363ZM11.687 16.8146L10.1108 16.1536L10.0334 16.338L11.6097 16.999L11.687 16.8146ZM14.4412 20.385C14.0947 19.971 12.9525 18.5792 11.73 16.8491L11.5667 16.9645C12.7934 18.7005 13.9393 20.0969 14.2878 20.5133L14.4412 20.385ZM5.02993 18.1517L9.26721 16.3889L9.1904 16.2043L4.95311 17.967L5.02993 18.1517ZM3.57704 26.023L5.08975 18.078L4.89328 18.0406L3.38057 25.9855L3.57704 26.023ZM8.42822 24.1304L3.44517 25.9101L3.51244 26.0984L8.49549 24.3188L8.42822 24.1304ZM9.12927 16.287L8.36232 24.215L8.56139 24.2342L9.32834 16.3062L9.12927 16.287Z" fill="white"/>
</svg>
