<svg width="30" height="30" viewBox="0 0 30 30" fill="none" xmlns="http://www.w3.org/2000/svg">
<g opacity="0.7">
<path fill-rule="evenodd" clip-rule="evenodd" d="M14.5999 2.99994C17.5777 2.99994 19.9999 5.4225 19.9999 8.39994C19.9999 11.3774 17.5777 13.7999 14.5999 13.7999C11.6222 13.7999 9.19995 11.3774 9.19995 8.39994C9.19995 5.4225 11.6222 2.99994 14.5999 2.99994ZM14.6 4.19992C12.2843 4.19992 10.4 6.084 10.4 8.39992C10.4 10.7158 12.2843 12.5999 14.6 12.5999C16.9156 12.5999 18.8 10.7158 18.8 8.39992C18.8 6.084 16.9156 4.19992 14.6 4.19992Z" fill="#21232B"/>
<path d="M17.0187 7.27464C17.2256 7.01594 17.1834 6.63831 16.925 6.43147C16.666 6.22434 16.2886 6.26682 16.0812 6.52522L14.0562 9.05647L13.025 8.23147C12.766 8.02405 12.3886 8.06712 12.1812 8.32522C11.9744 8.58391 12.0166 8.96155 12.275 9.16839L13.775 10.3684C13.8857 10.4569 14.0181 10.4999 14.1494 10.4999C14.3258 10.4999 14.4998 10.4229 14.6187 10.2746L17.0187 7.27464Z" fill="#21232B"/>
<path fill-rule="evenodd" clip-rule="evenodd" d="M15.9807 21.6H23.0182C24.3313 21.6 25.4 22.6688 25.4 23.9821C25.4 25.3313 24.3313 26.4 23.0182 26.4H15.2H14.6H7.38184C6.73027 26.4 6.2 26.9303 6.2 27.5821C6.2 28.2697 6.73027 28.8 7.38184 28.8H15.2C15.5316 28.8 15.8 29.0687 15.8 29.4C15.8 29.7313 15.5316 30 15.2 30H7.38184C6.06875 30 5 28.9313 5 27.6179C5 26.2688 6.06875 25.2 7.38184 25.2H14.6H15.2H23.0182C23.6697 25.2 24.2 24.6697 24.2 24.0179C24.2 23.3303 23.6697 22.8 23.0182 22.8H14.6C14.5194 22.8 14.4407 22.7837 14.3679 22.7532C14.2949 22.7225 14.2295 22.6779 14.1745 22.6226L14.1734 22.6219C13.8477 22.2923 6.2 14.4841 6.2 8.4C6.2 3.76816 9.96816 0 14.6 0C19.2318 0 23 3.76816 23 8.4C23 13.2697 18.1035 19.2401 15.9807 21.6ZM21.8 8.39998C21.8 4.42996 18.5703 1.19998 14.6 1.19998C10.6297 1.19998 7.40002 4.42996 7.40002 8.39998C7.40002 13.2164 12.9922 19.594 14.6 21.3278C16.2072 19.5934 21.8 13.2126 21.8 8.39998Z" fill="#21232B"/>
</g>
</svg>
