<svg width="30" height="30" viewBox="0 0 30 30" fill="none" xmlns="http://www.w3.org/2000/svg">
<g opacity="0.7">
<path fill-rule="evenodd" clip-rule="evenodd" d="M12.7783 6.05442V4.42177C12.7783 4.12121 13.0089 3.87755 13.2935 3.87755C13.578 3.87755 13.8086 4.12121 13.8086 4.42177V6.05442H17.9301V0.544218C17.9301 0.243654 18.1607 0 18.4453 0C18.7298 0 18.9604 0.243654 18.9604 0.544218V6.05442H21.1792C22.6001 6.05442 23.75 7.274 23.75 8.77992V27.2745C23.75 28.7796 22.6003 30 21.1792 30H10.5595C9.13867 30 7.98873 28.7804 7.98873 27.2745V17.483H6.76518C6.48065 17.483 6.25 17.2393 6.25 16.9388V10.4082C6.25 10.1076 6.48065 9.86395 6.76518 9.86395H7.98873V8.77992C7.98873 7.27487 9.13843 6.05442 10.5595 6.05442H12.7783ZM7.2804 10.9524V16.3946H7.98877V10.9524H7.2804ZM9.01912 8.77988V27.2745C9.01912 28.1802 9.70867 28.9115 10.5595 28.9115H21.1793C22.0302 28.9115 22.7197 28.1796 22.7197 27.2745V8.77988C22.7197 7.87412 22.0301 7.14281 21.1793 7.14281H10.5595C9.70864 7.14281 9.01912 7.87476 9.01912 8.77988ZM12.1102 9.86391H19.6286C19.9131 9.86391 20.1438 10.1076 20.1438 10.4081V16.9387C20.1438 17.2393 19.9131 17.483 19.6286 17.483H12.1102C11.8257 17.483 11.595 17.2393 11.595 16.9387V10.4081C11.595 10.1076 11.8257 9.86391 12.1102 9.86391ZM12.6253 10.9524V16.3946H19.1134V10.9524H12.6253ZM13.0359 21.8367C12.6091 21.8367 12.2631 21.4712 12.2631 21.0204C12.2631 20.5695 12.6091 20.2041 13.0359 20.2041C13.4627 20.2041 13.8087 20.5695 13.8087 21.0204C13.8087 21.4712 13.4627 21.8367 13.0359 21.8367ZM18.7029 21.8367C18.2761 21.8367 17.9301 21.4712 17.9301 21.0204C17.9301 20.5695 18.2761 20.2041 18.7029 20.2041C19.1297 20.2041 19.4757 20.5695 19.4757 21.0204C19.4757 21.4712 19.1297 21.8367 18.7029 21.8367ZM13.0359 26.1905C12.6091 26.1905 12.2631 25.825 12.2631 25.3741C12.2631 24.9233 12.6091 24.5578 13.0359 24.5578C13.4627 24.5578 13.8087 24.9233 13.8087 25.3741C13.8087 25.825 13.4627 26.1905 13.0359 26.1905ZM18.7029 26.1905C18.2761 26.1905 17.9301 25.825 17.9301 25.3741C17.9301 24.9233 18.2761 24.5578 18.7029 24.5578C19.1297 24.5578 19.4757 24.9233 19.4757 25.3741C19.4757 25.825 19.1297 26.1905 18.7029 26.1905ZM15.8694 24.0136C15.4426 24.0136 15.0966 23.6482 15.0966 23.1973C15.0966 22.7465 15.4426 22.381 15.8694 22.381C16.2962 22.381 16.6422 22.7465 16.6422 23.1973C16.6422 23.6482 16.2962 24.0136 15.8694 24.0136Z" fill="#21232B"/>
</g>
</svg>
