<svg width="163" height="40" viewBox="0 0 163 40" fill="none" xmlns="http://www.w3.org/2000/svg">
<path d="M82.8467 0.461881C86.5769 0.494269 89.7431 0.406599 89.8833 0.266437C90.3886 -0.238928 111.074 0.0380453 112.436 0.568539C113.204 0.867291 115.214 1.30062 116.903 1.5318C119.818 1.92995 119.718 1.9562 114.949 2.04164C108.32 2.16058 109.769 3.01886 117.492 3.54935C121.451 3.82074 123.509 4.19991 123.897 4.72817C124.299 5.27541 126.292 5.59818 130.598 5.81372C137.814 6.17558 138.996 6.56535 132.878 6.56535C130.506 6.56535 128.701 6.78704 128.869 7.05843C129.231 7.64365 134.79 8.44609 137.565 8.31374C138.64 8.26181 139.896 8.47178 140.357 8.78002C141.064 9.253 141.069 9.34179 140.39 9.34905C138.735 9.36636 141.754 10.9969 143.474 11.0148C145.481 11.0355 145.982 11.3928 145.557 12.5002C145.366 12.9983 144.845 13.1708 144.175 12.9586C143.584 12.771 141.878 12.9302 140.385 13.3132C136.529 14.3011 137.851 15.4006 143.077 15.553C145.266 15.6167 147.058 15.8736 147.058 16.1237C147.058 16.3739 148.314 16.7452 149.85 16.9485C151.385 17.1523 152.642 17.4768 152.642 17.6694C152.642 17.8621 153.396 18.3529 154.317 18.7611C156.294 19.6362 156.513 20.9188 154.736 21.2176C154.045 21.3337 155.427 21.7771 157.807 22.2032C160.188 22.6287 162.135 23.1341 162.135 23.3262C162.135 24.0862 159.267 26.1099 158.189 26.1099C157.559 26.1099 157.169 26.3137 157.323 26.5627C157.477 26.8118 156.55 27.0229 155.262 27.0312C153.974 27.0402 151.665 27.2596 150.129 27.5193L147.337 27.9906L150.129 28.4613C151.665 28.7204 153.535 29.0091 154.286 29.1041C155.596 29.2688 156.689 30.5772 155.517 30.5772C153.72 30.5772 151.985 31.7398 152.627 32.5132C153.189 33.1911 152.984 33.2637 151.291 32.989C149.985 32.7773 149.291 32.8834 149.291 33.2961C149.291 33.6434 149.543 33.9277 149.85 33.9277C150.157 33.9277 150.408 34.141 150.408 34.4012C150.408 34.8217 140.316 35.79 137.19 35.6694C136.524 35.6437 135.016 36.0279 133.84 36.5232C130.457 37.9477 128.674 38.3587 128.325 37.7941C128.149 37.5093 128.648 37.0313 129.434 36.7326C131.759 35.8486 131.096 35.6252 127.117 35.953C124.052 36.2054 119.452 37.8366 121.804 37.8366C122.18 37.8366 122.487 38.1169 122.487 38.4603C122.487 38.8506 122.018 38.9372 121.231 38.6909C119.455 38.1364 117.791 38.2442 117.563 38.9288C117.314 39.6754 113.881 39.6743 111.186 38.926C109.104 38.3475 108.148 38.3754 108.359 39.0081C108.489 39.3962 103.566 39.0265 100.709 38.4341C99.6343 38.2107 95.6137 38.1024 91.7746 38.1923C88.3358 38.2733 80.7188 38.4542 73.9807 38.6151C76.0177 38.6749 77.7973 38.733 79.1807 38.7859C90.3636 39.2136 50.8373 39.1684 71.6717 38.6703C72.4241 38.6523 73.1964 38.6338 73.9807 38.6151C67.6515 38.4293 58.8376 38.2265 51.7029 38.1091C42.2718 37.9538 43.9 37.578 43.0993 37.2731C42.298 36.9688 38.2522 36.7197 34.1077 36.7197C28.6447 36.7197 26.6797 36.5461 26.9628 36.0882C27.2347 35.6481 29.2355 35.5521 33.5571 35.771C38.0037 35.996 39.4674 35.9201 38.7241 35.5035C37.5319 34.8351 35.9209 34.6352 27.6178 34.1253C23.0684 33.8461 21.7505 33.5965 22.1693 33.0923C22.8065 32.3239 19.5174 31.1356 16.755 31.1356C14.7385 31.1356 14.1578 30.6481 14.9848 29.6513C15.6884 28.8036 15.7314 28.817 11.5611 28.5892C6.6069 28.3189 2.62652 27.6801 2.62652 27.1558C2.62652 26.8877 3.19219 26.6644 3.88295 26.6599C4.89871 26.6526 4.97912 26.5477 4.30176 26.1099C3.65344 25.691 3.84274 25.5542 5.13938 25.5045C6.78503 25.4414 6.79006 25.4325 5.41859 24.993C4.25876 24.6217 4.2113 24.5357 5.13938 24.4871C6.40307 24.4201 3.71487 22.7594 2.3434 22.7594C1.01047 22.7594 0.910513 21.1115 2.22725 20.8485C3.97174 20.4995 14.8441 19.3463 16.9124 19.2905C17.955 19.2626 18.6346 18.9493 18.6346 18.497C18.6346 17.613 18.1666 17.4634 12.678 16.5967C10.3745 16.2326 8.05598 15.5519 7.52549 15.084C6.99444 14.616 5.12877 13.9459 3.3787 13.5952C-4.13365 12.0903 0.161676 11.4308 23.5671 10.4938C28.7882 10.2844 31.5837 10.0694 29.7789 10.0147C25.1842 9.87619 15.938 8.22998 15.1115 7.40353C14.0634 6.35539 18.2733 6.04826 39.368 5.63447C52.4259 5.37872 47.8911 5.0889 47.7269 4.66116C47.5667 4.24402 49.362 4.06198 53.425 4.08208C56.6878 4.09828 59.7965 3.90115 60.3343 3.64373C60.8977 3.37345 61.3115 3.39411 61.3115 3.69175C61.3115 3.97598 64.1281 4.24681 67.5708 4.29372C71.0139 4.34063 73.7072 4.25575 73.5558 4.10498C73.4051 3.95421 71.2792 3.77272 68.8322 3.7018C66.3852 3.63144 63.7545 3.40137 62.9867 3.19141C59.8462 2.33313 67.5646 1.9428 81.6791 2.24601C89.6722 2.41801 98.3483 2.34597 100.959 2.08575C103.569 1.82553 52.3405 1.46144 60.4498 1.27661C68.5591 1.09233 75.3902 0.819824 75.6298 0.671844C75.8693 0.523865 79.117 0.429493 82.8467 0.461881Z" fill="#FF9C19"/>
<path d="M24.2651 2.01874C21.3613 1.94056 21.3546 1.9361 23.5671 1.57815C24.7956 1.37991 26.1151 1.31681 26.4987 1.43799C27.9188 1.88751 27.118 2.0958 24.2651 2.01874Z" fill="#FF9C19"/>
<path d="M38.9749 1.81883C38.2775 1.68425 37.5677 1.4352 37.3974 1.26544C37.2276 1.09512 37.6319 1.03873 38.2964 1.14036C38.961 1.24199 39.6707 1.49104 39.874 1.69374C40.0767 1.89701 39.6724 1.95341 38.9749 1.81883Z" fill="#FF9C19"/>
<path d="M47.9095 2.76255C45.5692 2.95744 41.0433 2.53304 41.891 2.19855C43.3825 1.60942 51.1098 1.40337 51.4437 1.94335C51.7079 2.3711 51.1997 2.48893 47.9095 2.76255Z" fill="#FF9C19"/>
<path d="M149.431 15.8697C149.047 16.0249 148.419 16.0249 148.035 15.8697C147.651 15.715 147.965 15.5882 148.733 15.5882C149.501 15.5882 149.815 15.715 149.431 15.8697Z" fill="#FF9C19"/>
<path d="M139.875 39.9518C139.472 40.0858 138.877 39.9306 138.552 39.6056C138.138 39.1913 138.356 39.1187 139.285 39.3616C140.04 39.5593 140.293 39.8122 139.875 39.9518Z" fill="#FF9C19"/>
</svg>
