<svg width="119" height="183" viewBox="0 0 119 183" fill="none" xmlns="http://www.w3.org/2000/svg">
<path d="M36.1753 108.229H11.1664H11.091C10.8541 104.179 11.0521 100.115 11.6816 96.1084C17.3746 97.8363 25.3549 99.6405 34.9186 101.648L36.2507 101.927C38.3118 102.448 40.8504 102.232 41.9689 104.989C42.0694 105.231 42.1825 105.65 42.3207 106.108H42.0694L37.5075 106.323C37.2881 106.331 37.0739 106.392 36.8838 106.503C36.6938 106.615 36.5338 106.771 36.4182 106.96C36.3025 107.148 36.2347 107.363 36.2209 107.585C36.207 107.806 36.2475 108.027 36.3387 108.229H36.1753Z" fill="#CAD7E4"/>
<path d="M38.5757 93.6067C37.3889 94.434 36.4532 95.5674 35.8702 96.8841C35.2871 98.2008 35.079 99.6505 35.2683 101.076V101.381C25.5128 99.3739 17.3212 97.5701 11.5653 95.8425C5.80945 94.1149 2.47642 92.5778 1.93801 90.9645C-2.20264 78.5283 6.92473 53.3763 11.7063 48.7016C14.4881 45.9958 20.9106 43.8871 27.8331 42.5533C28.1447 41.6735 28.6947 40.8956 29.4227 40.3049C29.5212 40.2535 29.6242 40.211 29.7303 40.1778C33.935 39.3327 38.2681 39.3327 42.4728 40.1778C42.7207 40.2422 42.9612 40.3316 43.1907 40.4446C43.6443 40.6272 44.0436 40.9213 44.3508 41.2991C44.6581 41.6769 44.8632 42.126 44.9469 42.6041C44.9469 42.6041 57.8945 44.0522 60.3301 47.0883C63.2529 50.6959 68.3807 63.1322 72.6367 82.2121L56.651 82.7457C55.6935 82.7866 54.7816 83.1626 54.0775 83.8068C53.3734 84.4511 52.9226 85.3219 52.8052 86.2644L50.2413 102.169C49.9977 99.971 49.8311 97.316 47.4723 96.6173C45.1136 95.9187 42.0241 94.8389 38.5757 93.6067Z" fill="#CAD7E4"/>
<path d="M99.6477 169.91H99.8834V170.017C100.931 170.257 107.611 173.927 113.308 174.607C116.045 174.941 118.625 176.475 118.023 179.944H87.7949V169.844L99.6477 169.91Z" fill="#CAD7E4"/>
<path d="M55.2366 147.535C55.8321 149.124 57.4285 155.673 60.3046 159.984C61.7996 162.184 62.3318 165.071 59.443 166.813L40.2988 144.635L47.2926 138.531C49.8152 141.659 52.523 144.632 55.4013 147.433L55.2366 147.535Z" fill="#000229"/>
<path fill-rule="evenodd" clip-rule="evenodd" d="M12.0039 128.98C12.0039 128.676 12.2511 128.431 12.556 128.431H56.2988V129.528H13.1081V181.877H76.5846V133.166H77.6887V182.426C77.6887 182.729 77.4415 182.975 77.1366 182.975H12.556C12.2511 182.975 12.0039 182.729 12.0039 182.426V128.98Z" fill="#000229"/>
<path fill-rule="evenodd" clip-rule="evenodd" d="M29.8231 40.3011C29.2031 40.8277 28.7341 41.5142 28.466 42.2884C28.4023 42.4724 28.2473 42.6084 28.0585 42.6459C24.6699 43.3201 21.4157 44.1798 18.6765 45.2057C15.9235 46.2368 13.7463 47.4159 12.4607 48.7009L12.4602 48.7014C11.3611 49.7975 9.95101 52.1783 8.51288 55.404C7.08473 58.6073 5.65696 62.579 4.50127 66.7972C3.34543 71.0159 2.4652 75.4686 2.126 79.6354C1.78621 83.8094 1.99277 87.6571 2.97928 90.6882C3.07049 90.9663 3.31164 91.3033 3.78175 91.6901C4.24676 92.0726 4.89603 92.4712 5.7339 92.8837C7.40923 93.7084 9.76579 94.5536 12.7285 95.43C18.6498 97.1816 26.9014 99.0322 36.7579 101.092L36.5387 102.169C26.6848 100.11 18.3932 98.2515 12.4245 96.4859C9.44227 95.6037 7.01713 94.7382 5.25978 93.8731C4.3813 93.4406 3.65148 92.9995 3.09788 92.5441C2.54958 92.0931 2.13258 91.5941 1.94925 91.0345L1.94892 91.0335C0.897693 87.8041 0.698926 83.7895 1.04447 79.5449C1.39062 75.2928 2.28647 70.7702 3.45563 66.5029C4.62494 62.235 6.07108 58.2098 7.52395 54.951C8.96666 51.7151 10.4445 49.1687 11.6987 47.9178M29.8231 40.3011C29.8871 40.2712 30.0356 40.2185 30.299 40.1565C30.5883 40.0884 30.9662 40.0202 31.4164 39.9565C32.3156 39.8293 33.4768 39.7239 34.7432 39.671C37.2893 39.5645 40.1934 39.6729 42.2282 40.2085C42.2371 40.2109 42.246 40.213 42.2549 40.2148C42.7477 40.3179 43.2004 40.5637 43.558 40.9225C43.9157 41.2812 44.1629 41.7375 44.2698 42.2358C44.3191 42.4663 44.508 42.6391 44.7391 42.6656L44.7556 42.5177C44.7391 42.6656 44.7391 42.6656 44.7391 42.6656L44.7475 42.6665L44.7739 42.6696C44.7841 42.6708 44.7965 42.6723 44.8111 42.674C44.8301 42.6763 44.8528 42.6791 44.879 42.6822C44.9716 42.6935 45.1083 42.7105 45.2834 42.7332C45.6335 42.7787 46.1372 42.8472 46.7495 42.9389C47.9747 43.1225 49.6311 43.3988 51.3597 43.7698C53.0912 44.1415 54.881 44.6052 56.3785 45.1607C57.1271 45.4385 57.7917 45.7352 58.3349 46.0487C58.8832 46.3652 59.2781 46.6821 59.517 46.988L59.5195 46.9912C60.9053 48.7392 62.8681 52.628 65.0187 58.5412C67.162 64.4346 69.4742 72.2888 71.5771 81.9248L72.6367 81.6872C70.5249 72.0105 68.1997 64.1076 66.0369 58.1608C63.882 52.2356 61.8705 48.2016 60.3668 46.3039C60.0063 45.843 59.4789 45.4433 58.872 45.093C58.2593 44.7392 57.5348 44.4184 56.7515 44.1278C55.185 43.5467 53.339 43.0703 51.5845 42.6938C49.8273 42.3166 48.1476 42.0365 46.9082 41.8508C46.2881 41.7579 45.7774 41.6885 45.4213 41.6422C45.3499 41.633 45.2847 41.6246 45.2261 41.6172C45.0439 41.0615 44.7346 40.5552 44.3214 40.1407C43.8178 39.6355 43.1812 39.2883 42.4881 39.1405C40.2966 38.5664 37.2705 38.4644 34.6984 38.572C33.4032 38.6261 32.2063 38.7342 31.2663 38.8671C30.797 38.9335 30.385 39.0071 30.0536 39.0851C29.7426 39.1582 29.4419 39.2484 29.2405 39.3704C29.2175 39.3842 29.1956 39.3998 29.175 39.417C28.4627 40.0081 27.9069 40.7673 27.5548 41.6258C24.2342 42.2984 21.0295 43.1518 18.3003 44.174C15.5044 45.2212 13.1513 46.466 11.6987 47.9178" fill="#000229"/>
<path fill-rule="evenodd" clip-rule="evenodd" d="M12.4187 116.892C9.96939 111.593 9.30939 104.536 10.7078 95.0986L11.8087 95.2554C10.4261 104.586 11.1049 111.408 13.4319 116.441C15.7486 121.453 19.7303 124.759 25.111 127.007C27.0347 127.709 29.0438 128.16 31.0871 128.35L56.4645 128.249L56.469 129.34L31.0372 129.441L31.0101 129.439C28.856 129.241 26.738 128.765 24.7106 128.025L24.6987 128.02L24.687 128.015C19.1047 125.686 14.8767 122.209 12.4187 116.892Z" fill="#000229"/>
<path fill-rule="evenodd" clip-rule="evenodd" d="M98.4312 135.706C98.029 127.695 97.6043 122.889 96.8906 119.577L97.9587 119.341C98.6942 122.754 99.1212 127.648 99.523 135.649C99.7965 141.096 100.059 148.003 100.397 156.889C100.556 161.073 100.731 165.695 100.933 170.81L99.8404 170.855C99.6388 165.733 99.463 161.107 99.304 156.923C98.9664 148.041 98.7043 141.145 98.4312 135.706Z" fill="#000229"/>
<path fill-rule="evenodd" clip-rule="evenodd" d="M92.3077 80.957L92.3234 80.9574C93.0066 80.9727 93.6781 81.1354 94.2906 81.4339C94.9031 81.7324 95.4416 82.1594 95.8682 82.685C96.2948 83.2106 96.5991 83.8218 96.7596 84.4757C96.9197 85.1275 96.9331 85.8059 96.7988 86.4633L92.8455 108.313C92.6909 109.299 92.2046 110.207 91.4643 110.89C90.7223 111.574 89.7681 111.993 88.755 112.08L88.7486 112.08L53.1291 114.289L53.1162 114.289C52.4233 114.299 51.7368 114.157 51.1066 113.874C50.4764 113.59 49.9185 113.171 49.4734 112.648C49.0283 112.126 48.7072 111.512 48.5335 110.851C48.3607 110.194 48.3382 109.508 48.4674 108.841L52.0424 86.0791C52.1755 85.0381 52.6789 84.077 53.4635 83.3664C54.2502 82.654 55.2684 82.2398 56.3365 82.1977L56.3392 82.1976L92.3077 80.957ZM92.3138 82.0239L56.3798 83.2633C56.3794 83.2633 56.3789 83.2633 56.3785 83.2633C55.5675 83.2956 54.7944 83.6102 54.197 84.1512C53.5993 84.6925 53.2164 85.4251 53.1165 86.2185L53.1155 86.2265L49.535 109.023L49.5331 109.033C49.4322 109.547 49.449 110.077 49.5823 110.584C49.7156 111.091 49.9621 111.562 50.3037 111.963C50.6454 112.365 51.0736 112.686 51.5573 112.904C52.0372 113.12 52.5597 113.229 53.0874 113.223L88.6675 111.017C89.4364 110.95 90.1602 110.631 90.7235 110.112C91.2883 109.591 91.6588 108.898 91.7756 108.145L91.7766 108.138L95.7344 86.2641L95.7357 86.2579C95.8399 85.7514 95.8299 85.2286 95.7066 84.7263C95.5832 84.224 95.3495 83.7544 95.0218 83.3507C94.6941 82.9469 94.2804 82.6189 93.8099 82.3896C93.3439 82.1625 92.8335 82.0377 92.3138 82.0239Z" fill="#000229"/>
<path fill-rule="evenodd" clip-rule="evenodd" d="M37.9938 106.49L42.4587 106.247L42.4006 105.199L37.9042 105.444L37.8895 105.446C37.4966 105.489 37.1283 105.657 36.8395 105.925C36.5507 106.192 36.3569 106.545 36.2868 106.931C36.2168 107.316 36.2743 107.714 36.4508 108.065C36.6274 108.415 36.9134 108.7 37.2664 108.877L37.2875 108.887L51.0253 114.29L51.4158 113.314L37.7249 107.93C37.584 107.855 37.4698 107.738 37.3983 107.596C37.3236 107.448 37.2993 107.28 37.3289 107.117C37.3585 106.954 37.4405 106.804 37.5626 106.691C37.6816 106.581 37.8324 106.511 37.9938 106.49Z" fill="#000229"/>
<path fill-rule="evenodd" clip-rule="evenodd" d="M36.2553 108.229L10.9941 108.184L10.9964 107.219L36.2575 107.264L36.2553 108.229Z" fill="#000229"/>
<path fill-rule="evenodd" clip-rule="evenodd" d="M43.9105 99.2126C44.1741 99.058 44.5089 99.1537 44.6584 99.4263C45.419 100.814 45.9373 102.329 46.1896 103.902C46.2599 104.338 46.3698 105.057 46.3629 105.757C46.3594 106.107 46.3267 106.477 46.2335 106.816C46.1409 107.153 45.9763 107.504 45.6785 107.758L45.6763 107.759L45.6763 107.759C45.4127 107.982 45.134 108.139 44.8391 108.201C44.5348 108.264 44.2465 108.22 43.99 108.093C43.5112 107.856 43.1923 107.359 42.9739 106.913C42.7449 106.445 42.5689 105.908 42.4305 105.452C42.3862 105.307 42.3468 105.173 42.3112 105.053C42.2273 104.769 42.164 104.554 42.1064 104.413L42.1042 104.408L42.1042 104.408C41.6078 103.156 40.8194 102.593 39.8903 102.263C39.4102 102.093 38.8927 101.987 38.3431 101.888C38.2349 101.869 38.1248 101.85 38.0135 101.831C37.573 101.754 37.1131 101.674 36.6766 101.564C36.3822 101.489 36.2018 101.182 36.2736 100.878C36.3454 100.574 36.6422 100.387 36.9366 100.461C37.3306 100.561 37.7396 100.632 38.1753 100.708C38.2917 100.728 38.4099 100.749 38.5303 100.77C39.0879 100.87 39.6781 100.989 40.2458 101.19C41.4117 101.603 42.4791 102.365 43.1184 103.975C43.1994 104.174 43.2889 104.477 43.3811 104.79C43.413 104.897 43.4451 105.006 43.4773 105.112C43.6132 105.56 43.7673 106.021 43.953 106.401C44.1493 106.802 44.3296 107.003 44.4631 107.069C44.5129 107.093 44.5591 107.101 44.6212 107.088C44.6925 107.073 44.8117 107.024 44.9813 106.881C45.0468 106.825 45.121 106.714 45.1781 106.506C45.2348 106.3 45.2627 106.04 45.2657 105.745C45.2715 105.155 45.1774 104.523 45.1072 104.088L45.1072 104.087C44.8759 102.646 44.4009 101.257 43.7039 99.986C43.5544 99.7134 43.6469 99.3672 43.9105 99.2126Z" fill="#000229"/>
<path fill-rule="evenodd" clip-rule="evenodd" d="M46.7726 98.2019C46.9957 98.0438 47.2766 98.1474 47.3999 98.4333C47.6269 98.9592 47.8665 99.8718 48.0507 100.891C48.2371 101.922 48.377 103.118 48.3848 104.232C48.3924 105.32 48.2753 106.437 47.8716 107.219C47.6612 107.626 47.368 107.952 46.9788 108.115C46.5948 108.277 46.1619 108.262 45.6923 108.096C45.4466 108.008 45.3024 107.683 45.3703 107.368C45.4382 107.053 45.6924 106.868 45.9382 106.955C46.2843 107.078 46.5247 107.061 46.6912 106.991C46.8526 106.923 46.9872 106.788 47.1016 106.566C47.3477 106.089 47.4688 105.273 47.4616 104.242C47.4546 103.237 47.3269 102.129 47.1513 101.158C46.9736 100.175 46.757 99.3882 46.5921 99.006C46.4687 98.7201 46.5495 98.3601 46.7726 98.2019Z" fill="#000229"/>
<path fill-rule="evenodd" clip-rule="evenodd" d="M49.9716 106.225C50.2925 106.28 50.4749 106.476 50.3792 106.661C50.2534 106.905 49.9699 107.066 49.6308 107.149C49.3167 107.225 48.9827 107.23 48.7122 107.211C48.437 107.193 48.1722 107.146 47.9638 107.089C47.8616 107.061 47.7501 107.024 47.6536 106.977C47.6055 106.953 47.5449 106.919 47.4924 106.873C47.4419 106.83 47.373 106.753 47.373 106.651C47.373 106.457 47.6445 106.3 47.9793 106.3C48.1887 106.3 48.3733 106.361 48.4822 106.455C48.4828 106.455 48.4833 106.455 48.4839 106.455C48.5726 106.48 48.7096 106.505 48.8539 106.514C49.0029 106.525 49.1059 106.515 49.1593 106.502C49.1877 106.495 49.202 106.49 49.2172 106.461C49.313 106.275 49.6508 106.169 49.9716 106.225Z" fill="#000229"/>
<path fill-rule="evenodd" clip-rule="evenodd" d="M55.453 60.7559L55.5816 61.3006C56.203 63.9322 56.9997 67.0326 57.7705 70.0321C57.9952 70.9066 58.2177 71.7725 58.433 72.6157C59.3813 76.3293 60.1995 79.637 60.429 81.2398L60.5085 81.7954L59.4808 81.9674L59.4012 81.4118C59.1833 79.8899 58.3869 76.6603 57.4305 72.915C57.2164 72.0764 56.9947 71.2137 56.7705 70.3412C55.9992 67.3397 55.1983 64.223 54.5739 61.5787L54.4453 61.034L55.453 60.7559Z" fill="#000229"/>
<path fill-rule="evenodd" clip-rule="evenodd" d="M39.289 94.0048C37.0041 95.1999 35.4003 97.3784 35.4003 101.159H34.2363C34.2363 97.0488 36.0162 94.4882 38.7121 93.0781L39.289 94.0048Z" fill="#000229"/>
<path fill-rule="evenodd" clip-rule="evenodd" d="M22.5652 111.259C22.8609 111.25 23.1077 111.494 23.1163 111.803C23.2214 115.573 21.6643 118.408 19.2728 120.324C16.8994 122.225 13.7214 123.212 10.5471 123.379C10.2515 123.395 9.99993 123.156 9.98506 122.847C9.9702 122.537 10.1977 122.274 10.4932 122.258C13.5112 122.099 16.4631 121.162 18.6218 119.433C20.7625 117.718 22.1395 115.216 22.0453 111.836C22.0366 111.526 22.2694 111.268 22.5652 111.259Z" fill="#000229"/>
<path fill-rule="evenodd" clip-rule="evenodd" d="M36.2687 2.43495C35.5561 2.67535 34.8129 3.16713 34.0578 4.00748L34.0574 4.00792C33.1462 5.01979 32.5425 6.53217 32.12 8.20281C31.7274 9.75535 31.5058 11.3804 31.3173 12.7636C31.304 12.8608 31.2909 12.9568 31.2779 13.0515C31.2372 13.3487 30.9626 13.5567 30.6645 13.5161C30.3664 13.4755 30.1577 13.2017 30.1984 12.9046C30.2117 12.8074 30.2252 12.7084 30.2389 12.6078C30.4262 11.2335 30.6553 9.55154 31.0635 7.93732C31.4993 6.21399 32.1561 4.49343 33.2465 3.28259C34.0971 2.33604 34.9913 1.7193 35.9194 1.40616C36.8517 1.09165 37.7844 1.09504 38.6874 1.33659C40.4685 1.81303 42.1274 3.2123 43.5579 4.90733C46.4269 8.30684 48.6225 13.1934 49.2431 15.6091L49.2434 15.6103C49.5583 16.8481 49.3482 18.3986 48.8892 19.9768C48.4253 21.5717 47.6846 23.2691 46.8587 24.8381C46.0323 26.4082 45.112 27.8656 44.2799 28.981C43.8642 29.5381 43.4647 30.0178 43.1045 30.3859C42.7608 30.7371 42.4009 31.042 42.063 31.176C40.5073 31.7933 38.7033 31.3497 37.1968 30.5054C35.6809 29.6559 34.3349 28.3311 33.6691 26.969C33.5373 26.6994 33.6497 26.3743 33.9201 26.243C34.1906 26.1116 34.5167 26.2236 34.6485 26.4932C35.1989 27.6191 36.3676 28.7948 37.7307 29.5587C39.1033 30.3279 40.5424 30.6104 41.66 30.1669L41.6604 30.1667C41.7689 30.1238 41.9928 29.9666 42.3246 29.6275C42.6401 29.3051 43.0079 28.8659 43.4056 28.3328C44.2003 27.2677 45.0909 25.8591 45.894 24.3334C46.6976 22.8068 47.4052 21.1788 47.8427 19.6744C48.2851 18.1534 48.4298 16.8309 48.1873 15.8775C47.6039 13.6074 45.4797 8.87152 42.7242 5.60653C41.3422 3.96906 39.8624 2.77542 38.405 2.38558C37.6888 2.19399 36.9772 2.1959 36.2687 2.43495Z" fill="#000229"/>
<path fill-rule="evenodd" clip-rule="evenodd" d="M30.1941 18.4353C29.7812 25.7621 29.7449 33.1334 30.0854 40.4703L29.4163 40.5546C29.0729 33.1556 29.1096 25.7219 29.526 18.333L30.1941 18.4353Z" fill="#000229"/>
<path fill-rule="evenodd" clip-rule="evenodd" d="M40.8763 34.0793C40.7017 32.8987 40.5333 31.7599 40.2988 30.7092L41.3225 30.4531C41.5666 31.547 41.7453 32.7552 41.9231 33.9563C41.9983 34.4649 42.0734 34.9722 42.1531 35.469C42.426 37.1684 42.7565 38.7726 43.3304 40.0862L42.3758 40.5539C41.7389 39.0961 41.3907 37.3655 41.1162 35.6556C41.031 35.1248 40.9531 34.598 40.8763 34.0793Z" fill="#000229"/>
<path fill-rule="evenodd" clip-rule="evenodd" d="M29.3702 11.2708C30.3082 11.363 31.2327 12.1569 32.1242 13.6564C32.2881 13.9322 32.2255 14.3076 31.9843 14.4949C31.7431 14.6823 31.4147 14.6107 31.2508 14.335C30.4231 12.9428 29.742 12.519 29.2797 12.4735C28.841 12.4304 28.4011 12.7143 28.0072 13.3408C27.617 13.9614 27.3428 14.821 27.2462 15.6434C27.1462 16.4945 27.2533 17.1419 27.4536 17.4483C27.755 17.8943 28.2436 18.1124 28.8321 18.1335C29.4233 18.1546 30.0405 17.9701 30.4745 17.713C30.7334 17.5597 31.0521 17.6753 31.1862 17.9713C31.3204 18.2673 31.2192 18.6316 30.9603 18.7849C30.3751 19.1315 29.5801 19.368 28.799 19.3401C28.0163 19.3121 27.1733 19.0116 26.6149 18.1818L26.6117 18.1771L26.6118 18.1771C26.1561 17.4858 26.0875 16.4359 26.1995 15.4827C26.3151 14.4987 26.6418 13.4439 27.1496 12.6363C27.6536 11.8346 28.4087 11.1762 29.3702 11.2708Z" fill="#000229"/>
<path fill-rule="evenodd" clip-rule="evenodd" d="M54.25 1.17004C53.9046 0.421185 53.1467 0.190356 52.4111 0.156204C51.6438 0.120577 50.6852 0.284156 49.6297 0.568053C47.5095 1.13831 44.8482 2.23659 42.2268 3.45347C37.488 5.65316 32.7962 8.2801 31.5014 9.00504L31.2051 9.17036L31.6865 10.2521C31.7451 10.2199 31.848 10.1622 31.9909 10.0823L42.6452 4.5671L49.8851 1.74105L52.3658 1.362L53.2838 1.7207C53.3853 1.94025 53.3821 2.12283 53.3047 2.31788C53.2154 2.54327 53.0144 2.80971 52.6708 3.10251C51.9845 3.68727 50.9043 4.2321 49.7117 4.70086C49.1087 4.93789 48.4894 5.15075 47.8977 5.33636C47.3311 5.5141 46.7897 5.66685 46.3119 5.79189C45.8244 5.91951 45.406 6.01751 45.0985 6.08324C44.9444 6.11616 44.8203 6.14053 44.7304 6.15638C44.6756 6.16606 44.6434 6.17068 44.6281 6.17289C44.6204 6.174 44.6169 6.1745 44.6169 6.17472C44.6169 6.17491 44.6193 6.1749 44.6236 6.1749L44.6264 6.17489V7.38174C44.7047 7.38174 44.8151 7.36339 44.9006 7.34831C45.0057 7.32977 45.142 7.30288 45.3035 7.26838C45.6269 7.19926 46.0599 7.09772 46.5608 6.96661C47.5612 6.70475 48.8444 6.32187 50.0737 5.83866C51.291 5.36018 52.5045 4.76482 53.3314 4.06029C53.7443 3.70845 54.1046 3.29297 54.2983 2.80464C54.5039 2.28599 54.5051 1.72229 54.25 1.17004Z" fill="#000229"/>
<path fill-rule="evenodd" clip-rule="evenodd" d="M30.0535 14.4814C30.2549 14.7186 30.2406 15.0875 30.0216 15.3056C29.3912 15.9332 28.5718 16.2915 27.7157 16.3139C27.4183 16.3216 27.1714 16.0669 27.1642 15.7449C27.157 15.4228 27.3923 15.1555 27.6897 15.1477C28.2847 15.1321 28.8543 14.8831 29.2924 14.4469C29.5114 14.2289 29.8521 14.2443 30.0535 14.4814Z" fill="#000229"/>
<path d="M37.7729 19.3435C38.0519 19.3435 38.2781 19.1173 38.2781 18.8383C38.2781 18.5592 38.0519 18.333 37.7729 18.333C37.4938 18.333 37.2676 18.5592 37.2676 18.8383C37.2676 19.1173 37.4938 19.3435 37.7729 19.3435Z" fill="#000229"/>
<path d="M44.8451 19.3435C45.1242 19.3435 45.3504 19.1173 45.3504 18.8383C45.3504 18.5592 45.1242 18.333 44.8451 18.333C44.5661 18.333 44.3398 18.5592 44.3398 18.8383C44.3398 19.1173 44.5661 19.3435 44.8451 19.3435Z" fill="#000229"/>
<path fill-rule="evenodd" clip-rule="evenodd" d="M42.486 16.3683C42.7909 16.501 42.917 16.8281 42.7676 17.0989C42.5071 17.571 42.5034 18.2667 42.6514 19.1095C42.723 19.5177 42.8244 19.9328 42.9279 20.3404C42.9429 20.3994 42.958 20.4585 42.973 20.5175C43.0601 20.8585 43.1464 21.1965 43.207 21.4997L43.2077 21.5031L43.2083 21.5066C43.2517 21.741 43.3059 22.0533 43.3241 22.3762C43.3419 22.6929 43.3282 23.0623 43.207 23.3993C43.0811 23.7492 42.8219 24.1035 42.3356 24.2819C41.8748 24.451 41.328 24.417 40.729 24.2492C40.4051 24.1585 40.2253 23.8518 40.3275 23.5642C40.4296 23.2766 40.775 23.117 41.0989 23.2077C41.5653 23.3383 41.7837 23.3028 41.8659 23.2726C41.9226 23.2518 41.9842 23.2093 42.0354 23.0671C42.0911 22.9121 42.1105 22.6942 42.0957 22.4307C42.0813 22.1748 42.0375 21.9154 41.9953 21.6872C41.9403 21.4125 41.8618 21.1051 41.7747 20.7637C41.7594 20.7037 41.7438 20.6426 41.7281 20.5805C41.6242 20.171 41.5146 19.725 41.4361 19.2776C41.2837 18.4094 41.2229 17.4162 41.6631 16.6184C41.8126 16.3476 42.181 16.2356 42.486 16.3683Z" fill="#000229"/>
<path fill-rule="evenodd" clip-rule="evenodd" d="M88.8957 169.75C86.5762 156.822 83.5226 144.038 79.7497 131.461L78.6992 131.78C82.5041 144.463 85.5751 157.358 87.8968 170.399L87.9778 170.854H99.9205V169.75H88.8957Z" fill="#000229"/>
<path fill-rule="evenodd" clip-rule="evenodd" d="M99.4689 170.243C99.5347 169.967 99.8251 169.794 100.117 169.856C100.297 169.894 100.551 169.987 100.827 170.095C101.117 170.209 101.479 170.359 101.893 170.531C101.924 170.544 101.956 170.557 101.988 170.571C102.805 170.911 103.833 171.339 104.989 171.778C107.399 172.693 110.326 173.64 112.997 173.935L112.998 173.935C114.387 174.091 115.803 174.539 116.799 175.423C117.823 176.332 118.343 177.652 118.011 179.393C117.965 179.636 117.741 179.813 117.479 179.814L88.3402 179.944C88.0405 179.946 87.7964 179.718 87.7949 179.436C87.7935 179.154 88.0353 178.924 88.335 178.923L117.004 178.794C117.127 177.59 116.716 176.753 116.054 176.166C115.29 175.488 114.131 175.091 112.87 174.95C110.051 174.639 107.016 173.649 104.583 172.726C103.41 172.28 102.368 171.846 101.552 171.507C101.519 171.493 101.486 171.479 101.454 171.466C101.037 171.292 100.687 171.147 100.41 171.039C100.12 170.925 99.9519 170.869 99.8792 170.853C99.5868 170.791 99.4031 170.518 99.4689 170.243Z" fill="#000229"/>
<path fill-rule="evenodd" clip-rule="evenodd" d="M118.111 182.345C118.111 182.693 117.868 182.975 117.568 182.975H88.3382C88.0383 182.975 87.7953 182.693 87.7953 182.345V179.564C87.7953 179.216 88.0383 178.934 88.3382 178.934H117.568C117.868 178.934 118.111 179.216 118.111 179.564V182.345ZM117.025 181.716V180.193H88.8811V181.716H117.025Z" fill="#000229"/>
<path fill-rule="evenodd" clip-rule="evenodd" d="M87.7949 179.944V169.844H88.8055V179.944H87.7949Z" fill="#000229"/>
<path d="M55.5037 147.618C56.0392 149.293 57.4417 155.874 60.2978 160.119C61.6748 162.183 62.2485 164.805 60.0683 166.609C59.8936 166.756 59.6703 166.828 59.4448 166.811C59.2192 166.794 59.0087 166.689 58.857 166.519L40.5096 145.242C40.3613 145.068 40.2863 144.841 40.3006 144.61C40.3149 144.379 40.4174 144.164 40.5861 144.009L46.8719 138.531" fill="#CAD7E4"/>
<path fill-rule="evenodd" clip-rule="evenodd" d="M41.4926 144.64L47.7479 139.351L47.0376 138.531L40.7709 143.83L40.7659 143.834C40.4916 144.078 40.3249 144.418 40.3016 144.782C40.2784 145.146 40.4004 145.504 40.6415 145.78L58.9239 166.348L58.9266 166.351C59.172 166.619 59.5123 166.783 59.877 166.81C60.2413 166.836 60.6019 166.723 60.8842 166.494C62.1074 165.511 62.5763 164.277 62.5271 163.014C62.479 161.778 61.9389 160.548 61.2186 159.501L61.2174 159.499C59.8387 157.511 58.7973 154.953 58.0308 152.663C57.6489 151.522 57.338 150.456 57.0885 149.572C57.0214 149.333 56.9581 149.106 56.8988 148.893C56.7409 148.327 56.6111 147.861 56.5106 147.556L55.472 147.89C55.5641 148.169 55.6832 148.597 55.8371 149.149C55.8979 149.367 55.9641 149.605 56.0363 149.861C56.2878 150.753 56.604 151.837 56.9937 153.001C57.7702 155.321 58.8496 157.994 60.3155 160.108C60.9667 161.055 61.3981 162.09 61.4357 163.055C61.4722 163.993 61.1413 164.897 60.1938 165.658L60.1913 165.66C60.1258 165.713 60.042 165.74 59.9573 165.734C59.8736 165.727 59.7955 165.69 59.7387 165.629L41.4683 145.075C41.4679 145.074 41.4676 145.074 41.4672 145.073C41.4136 145.011 41.3865 144.931 41.3917 144.85C41.3969 144.77 41.433 144.694 41.4926 144.64Z" fill="#000229"/>
<path fill-rule="evenodd" clip-rule="evenodd" d="M35.8095 24.3957C36.1598 24.3677 36.4786 24.5304 36.5214 24.7591C36.6012 25.1849 37.096 25.4331 37.8057 25.5349C38.1538 25.5849 38.5094 25.5898 38.795 25.5642C38.9374 25.5515 39.049 25.5324 39.1264 25.5129C39.1746 25.5007 39.1974 25.4916 39.2037 25.489C39.4443 25.3273 39.8399 25.3195 40.0951 25.4733C40.3545 25.6296 40.3706 25.8935 40.1313 26.0628C39.9722 26.1753 39.767 26.2458 39.5862 26.2913C39.3968 26.339 39.1853 26.3714 38.9685 26.3908C38.5357 26.4295 38.0284 26.4211 37.5314 26.3498C36.5506 26.2091 35.4257 25.783 35.2528 24.8604C35.21 24.6317 35.4592 24.4237 35.8095 24.3957Z" fill="#000229"/>
<path fill-rule="evenodd" clip-rule="evenodd" d="M20.2119 61.7909C20.4989 61.8807 20.6577 62.183 20.5668 62.4662C19.2163 66.6711 17.7014 71.419 16.6095 75.2787C16.0632 77.2098 15.6261 78.9074 15.3682 80.1984C15.239 80.8452 15.1576 81.3764 15.128 81.7774C15.1131 81.9781 15.1122 82.1342 15.1215 82.2494C15.1286 82.338 15.1403 82.3816 15.1444 82.3954C15.153 82.4052 15.1872 82.4449 15.2742 82.5146C15.3844 82.6029 15.543 82.7111 15.7544 82.8385C16.1763 83.0927 16.7667 83.3987 17.504 83.748C18.9761 84.4455 20.9901 85.295 23.3125 86.2209C27.9549 88.0717 33.7971 90.2144 38.9279 92.0336C39.2112 92.1341 39.3583 92.4422 39.2565 92.7217C39.1548 93.0013 38.8426 93.1466 38.5593 93.0461C33.423 91.225 27.5657 89.0768 22.9042 87.2184C20.5747 86.2898 18.5357 85.4302 17.0322 84.7179C16.2818 84.3624 15.6538 84.0384 15.1863 83.7567C14.9531 83.6162 14.7494 83.48 14.587 83.3498C14.4373 83.2298 14.2719 83.0758 14.1754 82.8906C14.0841 82.7154 14.0493 82.5141 14.0348 82.3347C14.0196 82.1459 14.0236 81.931 14.0408 81.6991C14.075 81.2351 14.1659 80.6553 14.2987 79.9903C14.5648 78.6578 15.011 76.9285 15.5596 74.9894C16.6574 71.1087 18.1782 66.3429 19.5277 62.1412C19.6186 61.858 19.925 61.7011 20.2119 61.7909Z" fill="#000229"/>
<path fill-rule="evenodd" clip-rule="evenodd" d="M95.45 100.878C94.7879 100.626 94.1307 100.389 93.4639 100.178L93.7892 99.1387C94.4825 99.3582 95.1604 99.6028 95.8332 99.8582L95.835 99.8589C103.06 102.631 105.658 111.941 99.4938 117.525C98.3599 118.552 95.1763 120.863 91.0482 123.744C86.9042 126.636 81.7696 130.129 76.7012 133.534C71.6326 136.939 66.6283 140.257 62.7441 142.799C58.8802 145.329 56.0839 147.118 55.4653 147.435L55.1016 147.622L46.3633 138.204L46.7132 137.832L47.1066 138.206C46.7132 137.832 46.7131 137.832 46.7132 137.832L46.9074 137.626C47.0346 137.491 47.2221 137.291 47.4633 137.035C47.9458 136.523 48.6431 135.784 49.5027 134.873C51.2218 133.052 53.59 130.548 56.1862 127.814C61.377 122.349 67.4843 115.961 71.1362 112.287L71.9022 113.058C68.2605 116.721 62.1615 123.1 56.9695 128.567C54.3742 131.3 52.0068 133.803 50.2882 135.624C49.4289 136.534 48.7318 137.273 48.2496 137.785C48.0932 137.951 47.9595 138.093 47.8501 138.209L55.3242 146.265C56.3025 145.683 58.7924 144.086 62.1533 141.886C66.0334 139.346 71.0341 136.03 76.0996 132.628C81.1653 129.224 86.294 125.735 90.4307 122.848C94.5834 119.95 97.6983 117.685 98.769 116.715C104.243 111.757 102.031 103.403 95.45 100.878Z" fill="#000229"/>
<path fill-rule="evenodd" clip-rule="evenodd" d="M42.8471 16.6572L42.5615 16.0972C42.3171 16.2967 42.2468 16.7092 42.4045 17.0186C42.5621 17.3277 42.8879 17.4168 43.1323 17.2175M43.1326 17.2173L43.133 17.217L43.1436 17.2087C43.154 17.2006 43.1708 17.1878 43.1935 17.1713C43.2389 17.1382 43.307 17.0908 43.3928 17.0376C43.5661 16.93 43.8017 16.8046 44.0607 16.7225C44.5932 16.5536 45.0896 16.5989 45.4423 17.1003C45.6357 17.3753 45.9686 17.3998 46.1859 17.1551C46.4032 16.9104 46.4226 16.4891 46.2292 16.2141C45.4917 15.1656 44.4938 15.2109 43.8046 15.4295C43.4526 15.5411 43.1454 15.7064 42.9287 15.8409C42.8194 15.9088 42.7307 15.9704 42.6681 16.016C42.6367 16.0388 42.6117 16.0578 42.5937 16.0717C42.5848 16.0787 42.5775 16.0843 42.5721 16.0886L42.5654 16.094L42.5631 16.0959L42.5622 16.0966L42.5619 16.0969C42.5617 16.097 42.5615 16.0972 42.8471 16.6572" fill="#000229"/>
<path fill-rule="evenodd" clip-rule="evenodd" d="M38.2789 17.0632C37.8432 17.0632 37.4139 17.1379 37.0271 17.2808C36.7688 17.3763 36.451 17.3044 36.3171 17.1204C36.1831 16.9364 36.2839 16.7098 36.5421 16.6144C37.0787 16.416 37.6744 16.3125 38.2789 16.3125C38.8834 16.3125 39.479 16.416 40.0156 16.6144C40.2739 16.7098 40.3746 16.9364 40.2407 17.1204C40.1068 17.3044 39.7889 17.3763 39.5307 17.2808C39.1439 17.1379 38.7146 17.0632 38.2789 17.0632Z" fill="#000229"/>
<path fill-rule="evenodd" clip-rule="evenodd" d="M58.0276 168.827C57.7998 169.025 57.4546 169.001 57.2564 168.773L37.9392 146.585C37.741 146.357 37.765 146.012 37.9927 145.814L39.8146 144.23C40.0423 144.031 40.3876 144.055 40.5857 144.283L59.903 166.471C60.1012 166.699 60.0772 167.044 59.8495 167.242L58.0276 168.827ZM57.7223 167.644L58.7195 166.777L40.1199 145.412L39.1226 146.28L57.7223 167.644Z" fill="#000229"/>
<path fill-rule="evenodd" clip-rule="evenodd" d="M72.7099 5.70334C72.6678 5.74526 72.6335 6.18332 72.6335 6.67681V7.5739H74.8667H77.1V8.19062V8.80734L76.1579 8.94512C73.6509 9.3116 71.3817 10.4475 69.6032 12.2259C65.9595 15.8697 65.0613 21.4243 67.372 26.0252C68.8409 28.9498 71.3623 31.0324 74.6624 32.0469L75.6684 32.3561L77.7299 32.3625L79.7913 32.3688L80.593 32.1518C81.0339 32.0324 81.7347 31.7964 82.1504 31.6273L82.9061 31.32L83.6182 31.7506C84.4987 32.2829 85.4288 32.6033 86.6248 32.7865L87.5429 32.927L88.5122 32.7868C91.0963 32.4132 93.2516 30.9426 94.3725 28.7881C95.5829 26.4614 95.6251 24.0169 94.4953 21.6753L94.0186 20.6871L93.0322 19.708C91.9917 18.6752 91.0538 18.0955 89.7863 17.7014L89.1303 17.4975L88.938 16.9185C88.1591 14.5736 86.4016 12.2203 84.4437 10.9009C83.2697 10.1097 81.7001 9.42361 80.4564 9.15791C79.8386 9.02597 79.2689 8.90068 79.1901 8.87949C79.0974 8.85453 79.0469 8.61723 79.0469 8.20734V7.5739H80.9939H82.9408V6.60042V5.62695H77.8635C75.0709 5.62695 72.7518 5.66131 72.7099 5.70334ZM79.0197 17.432L79.0496 21.85L76.709 23.7309C75.4216 24.7654 74.316 25.6117 74.2521 25.6117C74.137 25.6117 73.0911 24.3343 73.0921 24.1951C73.0924 24.1553 73.9932 23.4014 75.0941 22.5195L77.0955 20.9162L77.0977 17.002L77.1 13.088L77.3004 13.0433C77.4107 13.0188 77.8358 13.0022 78.2452 13.0063L78.9897 13.0139L79.0197 17.432ZM89.7742 18.435C92.1584 19.2585 93.9106 21.2207 94.4577 23.6796L94.654 24.5618L94.5891 25.5612C94.4259 28.0807 92.9226 30.3176 90.6713 31.3906C89.4889 31.9542 88.8468 32.1007 87.5706 32.098C86.2816 32.0954 85.6669 31.9525 84.4412 31.3707L83.4793 30.9141L82.6642 30.0953C81.2254 28.6499 80.5986 27.1104 80.6059 25.0391L80.6102 23.7793L80.9084 22.9393C81.3161 21.791 81.8376 20.9556 82.6698 20.1171C83.4595 19.3215 84.7977 18.5574 85.8791 18.2846C86.8504 18.0395 88.8534 18.1169 89.7742 18.435ZM87.3582 20.9243C87.2592 21.0234 87.1783 21.2445 87.1783 21.416V21.7276L86.6363 21.8726C85.9929 22.0446 85.4114 22.4614 85.174 22.9206C85.0796 23.1032 85.0023 23.5347 85.0023 23.8794V24.5062L85.3022 24.8626C85.6963 25.3309 86.0745 25.516 87.2106 25.7965C88.5829 26.1354 88.9273 26.4232 88.4872 26.8634C88.2324 27.1181 87.0518 27.0921 86.2621 26.8143C85.9156 26.6924 85.5773 26.5911 85.5102 26.589C85.35 26.5841 85.0023 27.3205 85.0023 27.6646V27.9347L85.4317 28.1057C85.668 28.1997 86.1576 28.3377 86.5197 28.4125L87.1783 28.5484V28.7769C87.1783 29.1875 87.3969 29.4484 87.7409 29.4484C88.1243 29.4484 88.2888 29.282 88.3421 28.8404L88.3808 28.5186L89.0423 28.2507C89.8592 27.9197 89.998 27.8065 90.2914 27.2313L90.5248 26.7738L90.4711 26.215L90.4174 25.6561L90.0376 25.2643C89.6554 24.8698 89.2346 24.6922 87.8654 24.3473C87.0301 24.1368 86.8347 24.0169 86.8347 23.7145C86.8347 23.1555 87.8952 22.9893 89.0091 23.3738L89.6375 23.5907L89.7238 23.4559C89.7714 23.3818 89.8959 23.0998 90.0007 22.8292L90.1911 22.3371L90.0618 22.2078C89.9907 22.1367 89.5841 21.9908 89.1583 21.8836L88.3842 21.6887L88.3149 21.3497C88.2768 21.1632 88.2085 20.9508 88.1633 20.8776C88.0449 20.686 87.5689 20.7137 87.3582 20.9243Z" fill="#040829"/>
</svg>
