<svg width="83" height="185" viewBox="0 0 83 185" fill="none" xmlns="http://www.w3.org/2000/svg">
<path d="M52.3362 58.6393C54.283 71.6759 56.9151 91.0235 57.0347 97.3343H56.4909L15.0962 97.4108H14.3348C14.5632 93.2399 14.9004 92.8578 15.1832 86.667L24.8956 87.1583C19.7077 86.4814 12.4206 82.9984 7.10219 78.5218C3.2194 75.2463 0.369838 71.4685 0.141438 67.8654C-0.0543328 64.8737 1.3487 62.5263 2.64296 59.8512C4.26351 56.4774 13.6714 44.1832 15.9663 42.2834C18.6201 40.0997 27.4733 38.7895 27.4733 38.7895C27.8322 37.8942 28.0171 37.0862 28.8872 36.5512C28.9424 36.5197 29.0007 36.4941 29.0612 36.4748C32.6736 35.6675 36.4128 35.6155 40.0461 36.3219C40.2071 36.3647 40.361 36.4309 40.5029 36.5184C40.9217 36.7476 41.2808 37.0727 41.551 37.4673C41.8212 37.8619 41.995 38.3149 42.0582 38.7895C42.0582 38.7895 47.4202 38.582 50.6504 40.3508C55.2661 43.1111 59.6043 46.3143 63.6039 49.9154C63.7528 45.5422 63.5928 41.1638 63.1253 36.8132L68.5634 36.4093H68.7157C70.6843 43.135 75.0239 59.1306 72.468 61.6746C70.5429 63.6509 53.9785 59.207 52.3362 58.6393ZM20.1645 58.1916C19.6424 58.7375 19.0769 59.2835 18.6201 59.8512C16.3256 62.3283 14.1827 64.9426 12.2031 67.6798C10.1475 71.1409 24.95 80.2142 28.5174 81.0767C28.5174 81.0767 28.5174 81.3279 28.5174 81.7318C28.4412 83.2495 28.1585 86.9072 27.1796 87.1911C27.8322 88.0536 32.3349 91.2091 34.0533 91.493C36.5657 91.9297 39.6546 89.4403 41.5253 87.9117C42.6037 87.9682 43.6605 87.5931 44.4639 86.8685C45.2672 86.1439 45.7515 85.1291 45.8105 84.0466L46.822 63.6072C46.8723 62.5235 46.4933 61.4639 45.7678 60.6598C45.0423 59.8558 44.0292 59.3728 42.9501 59.3162L20.1645 58.1916Z" fill="#CAD7E4"/>
<path d="M54.8258 177.369C57.1134 177.647 59.2704 179 58.7366 182.087V182.064H41.1214C41.6116 179.023 39.4655 177.682 37.1887 177.439C36.0409 177.283 34.9075 177.023 33.8008 176.664V176.514C33.8008 176.306 33.8008 175.219 33.8008 173.427H43.518C44.4004 173.577 50.0761 176.768 54.8258 177.369Z" fill="#CAD7E4"/>
<path d="M37.5228 177.399C39.7839 177.676 41.9152 179.015 41.4284 182.018V182.087H16.5454C16.5454 181.279 16.5454 178.161 16.4805 173.427H26.4012C27.0611 173.577 30.5448 175.494 34.2556 176.637C35.3233 176.986 36.416 177.241 37.5228 177.399Z" fill="#CAD7E4"/>
<path d="M43.4232 17.064C43.4156 17.1883 43.3658 17.3055 43.2831 17.3939C43.2003 17.4822 43.0902 17.5359 42.973 17.5449C42.8559 17.5539 42.7396 17.5176 42.6457 17.4427C42.5518 17.3678 42.4867 17.2595 42.4623 17.1376C42.4527 17.0028 42.4934 16.8694 42.5757 16.7661C42.658 16.6628 42.7752 16.5979 42.9022 16.5854C42.9661 16.5804 43.0303 16.5888 43.0911 16.6102C43.1519 16.6315 43.2081 16.6654 43.2565 16.7099C43.3049 16.7544 43.3446 16.8086 43.3732 16.8693C43.4018 16.9301 43.4188 16.9963 43.4232 17.064Z" fill="#000229"/>
<path d="M36.6882 17.025C36.6947 17.1532 36.6514 17.279 36.5674 17.376C36.4834 17.4731 36.3652 17.5338 36.2374 17.5456C36.1106 17.552 35.9862 17.5083 35.8912 17.4239C35.7961 17.3396 35.7378 17.2213 35.7289 17.0944C35.7226 17.0318 35.7291 16.9685 35.748 16.9084C35.7669 16.8484 35.7979 16.7929 35.839 16.7452C35.8801 16.6976 35.9305 16.6588 35.9871 16.6313C36.0437 16.6038 36.1053 16.5882 36.1681 16.5854C36.2951 16.5757 36.4207 16.6164 36.518 16.6986C36.6153 16.7809 36.6764 16.8981 36.6882 17.025Z" fill="#000229"/>
<path fill-rule="evenodd" clip-rule="evenodd" d="M30.0754 36.4538C30.0534 36.4617 30.0321 36.4714 30.0116 36.4826C29.4157 36.8506 29.2279 37.3407 28.9472 38.0735C28.8943 38.2117 28.838 38.3586 28.7751 38.5149C28.7121 38.6715 28.5706 38.7829 28.4036 38.8075L28.3977 38.8084L28.3791 38.8112C28.3625 38.8137 28.3376 38.8174 28.3048 38.8225C28.2393 38.8325 28.1425 38.8477 28.0181 38.8677C27.7692 38.9077 27.4101 38.9674 26.9707 39.0457C26.0915 39.2023 24.8928 39.433 23.6134 39.7297C22.3326 40.0266 20.9787 40.3877 19.7862 40.804C18.5827 41.2242 17.5912 41.6848 16.9973 42.1634C16.4534 42.6124 15.447 43.7146 14.1935 45.2089C12.9493 46.6919 11.4889 48.5278 10.0484 50.4121C8.60802 52.2963 7.19028 54.2253 6.03116 55.8942C4.86565 57.5723 3.98003 58.9615 3.58673 59.7768L3.58614 59.778C3.42012 60.1197 3.25411 60.4533 3.09101 60.7811C1.93536 63.1038 0.925714 65.1329 1.091 67.648L1.09107 67.649C1.31006 71.0891 4.07004 74.8002 7.99557 78.0976C13.3487 82.5841 20.6704 86.0577 25.8303 86.7285C26.5179 86.8149 27.2109 86.8506 27.9038 86.8353C27.9073 86.8352 27.9108 86.8352 27.9143 86.8352H27.9321C27.9489 86.8215 27.9727 86.7986 28.0026 86.7604C28.0689 86.6758 28.1423 86.5452 28.217 86.3623C28.3664 85.9967 28.491 85.4972 28.5917 84.9331C28.7911 83.8159 28.8812 82.5383 28.92 81.7746V81.4836C27.9215 81.1705 26.4222 80.4645 24.7529 79.5462C22.8501 78.4995 20.6791 77.1507 18.6864 75.7178C16.6988 74.2887 14.8657 72.7597 13.6564 71.3507C13.0533 70.6479 12.5826 69.9493 12.3362 69.2862C12.0879 68.618 12.0494 67.9293 12.4096 67.3254C12.4169 67.3131 12.4248 67.3012 12.4332 67.2896C14.4528 64.509 16.6388 61.8531 18.9791 59.3363C19.3405 58.8908 19.7695 58.4534 20.1762 58.0385C20.308 57.9041 20.4375 57.7721 20.5615 57.643C22.1814 55.8886 23.9068 54.2346 25.7281 52.6903C25.9283 52.5206 26.2281 52.5452 26.3979 52.7453C26.5677 52.9453 26.5431 53.2451 26.3429 53.4148C24.5499 54.9352 22.8514 56.5635 21.2568 58.2907L21.2504 58.2976C21.1092 58.4446 20.9683 58.5884 20.8292 58.7302C20.4269 59.1406 20.0402 59.5351 19.7079 59.9463C19.701 59.9548 19.6938 59.9632 19.6863 59.9713C17.3732 62.4577 15.2126 65.0816 13.2163 67.8286C13.063 68.0984 13.0424 68.4581 13.2272 68.9554C13.4177 69.4681 13.8078 70.068 14.3777 70.732C15.5144 72.0565 17.2766 73.5338 19.2414 74.9466C21.201 76.3556 23.3394 77.6843 25.2111 78.7139C27.0988 79.7522 28.6687 80.4602 29.5065 80.6619C29.72 80.7133 29.8704 80.9042 29.8704 81.1237V81.7866C29.8704 81.7945 29.8702 81.8025 29.8698 81.8105C29.8309 82.5838 29.7386 83.9168 29.5273 85.1C29.4222 85.6889 29.2836 86.2645 29.097 86.7215C29.0036 86.9499 28.8908 87.1676 28.7508 87.3463C28.6118 87.5237 28.4216 87.6933 28.1678 87.7666C28.1249 87.779 28.0805 87.7852 28.0359 87.7852H27.9193C27.1814 87.8013 26.4433 87.7631 25.711 87.6711L25.709 87.6708C20.3259 86.9714 12.8394 83.3972 7.38451 78.8253L7.38411 78.825C3.41894 75.4942 0.38797 71.5608 0.142577 67.7098C-0.0405592 64.9209 1.0954 62.6467 2.24565 60.3439C2.40836 60.0182 2.57135 59.6919 2.73094 59.3635C3.16113 58.4719 4.0878 57.0264 5.25044 55.3524C6.41976 53.6688 7.84642 51.7278 9.29325 49.8352C10.7401 47.9426 12.2097 46.095 13.4652 44.5984C14.71 43.1147 15.7721 41.942 16.3946 41.4289L16.3983 41.4258C17.1254 40.8389 18.2481 40.3347 19.4729 39.9071C20.71 39.4752 22.1003 39.1052 23.3987 38.8042C24.6985 38.5028 25.9139 38.2689 26.804 38.1103C27.2492 38.031 27.6136 37.9705 27.867 37.9297C27.9116 37.9225 27.9527 37.9159 27.9903 37.91C28.0053 37.8701 28.0203 37.83 28.0354 37.7895C28.3133 37.0466 28.6228 36.2188 29.5228 35.6678C29.5272 35.665 29.5317 35.6624 29.5363 35.6598C29.6211 35.6117 29.7107 35.5725 29.8036 35.5429C29.8171 35.5386 29.8307 35.5349 29.8445 35.5318C33.5789 34.7009 37.4443 34.6473 41.2003 35.3745C41.2108 35.3765 41.2212 35.3789 41.2316 35.3817C41.4359 35.4357 41.6314 35.5188 41.8121 35.6284C42.2987 35.8957 42.7161 36.2732 43.0307 36.7306C43.2666 37.0737 43.4399 37.4545 43.5436 37.8554C43.6852 37.8545 43.8605 37.8547 44.0641 37.8577C44.6359 37.8662 45.4328 37.8963 46.3347 37.9835C48.1236 38.1563 50.385 38.5582 52.1128 39.5003C52.1181 39.5032 52.1233 39.5061 52.1284 39.5092C56.8438 42.317 61.2757 45.5753 65.3619 49.2383C65.5047 49.362 65.6488 49.4851 65.7936 49.6088C66.3062 50.0469 66.8285 50.4931 67.3399 51.0043C67.5255 51.1898 67.5255 51.4906 67.3399 51.6761C67.1543 51.8616 66.8534 51.8616 66.6678 51.6761C66.1852 51.1937 65.7 50.779 65.1924 50.3452C65.0426 50.2171 64.8908 50.0874 64.7365 49.9537L64.7304 49.9484C60.6914 46.3273 56.3108 43.1061 51.6499 40.3301C50.0962 39.4855 47.9962 39.0985 46.2433 38.9291C45.3728 38.845 44.6024 38.8158 44.0501 38.8077C43.7741 38.8036 43.5531 38.8048 43.4019 38.807C43.3263 38.8081 43.2681 38.8094 43.2293 38.8105C43.2099 38.811 43.1953 38.8115 43.1858 38.8118L43.1754 38.8121L43.1731 38.8122L43.1727 38.8122C43.1727 38.8122 43.1728 38.8122 43.1545 38.3375L42.9419 38.7624C42.8011 38.692 42.7043 38.5565 42.6834 38.4005C42.6291 37.9943 42.4798 37.6066 42.2475 37.2689C42.0152 36.9312 41.7066 36.6529 41.3466 36.4568C41.3394 36.4529 41.3323 36.4488 41.3253 36.4445C41.2248 36.3827 41.1162 36.3355 41.0026 36.304C37.3882 35.6066 33.6692 35.6576 30.0754 36.4538Z" fill="#000229"/>
<path fill-rule="evenodd" clip-rule="evenodd" d="M27.9219 86.8271C27.9326 86.8474 27.9455 86.8666 27.9603 86.8845L27.9611 86.8855L27.9611 86.8855C28.0836 87.0338 28.4445 87.3353 28.9998 87.7318C29.5379 88.116 30.216 88.5598 30.9291 88.988C31.6427 89.4165 32.3848 89.8252 33.0513 90.1415C33.7313 90.4642 34.288 90.6688 34.6455 90.7229L34.6494 90.7235L34.6494 90.7235C35.7562 90.8997 37.0554 90.4881 38.3736 89.7941C39.6768 89.108 40.9088 88.195 41.862 87.4816L42.4621 88.1595C41.5141 88.869 40.2259 89.8261 38.8459 90.5526C37.4815 91.271 35.9352 91.8146 34.4892 91.585C33.9737 91.5066 33.3043 91.2452 32.6153 90.9182C31.9119 90.5844 31.141 90.1591 30.4094 89.7199C29.6773 89.2803 28.9778 88.8228 28.4168 88.4222C27.8734 88.0342 27.4138 87.6677 27.2045 87.4146C27.1511 87.3502 27.1048 87.2811 27.0664 87.2082L27.9219 86.8271Z" fill="#000229"/>
<path fill-rule="evenodd" clip-rule="evenodd" d="M51.3597 49.3063C51.6126 49.2632 51.8515 49.4398 51.8932 49.7006C52.2499 51.9302 52.6928 54.905 53.1893 58.2997L53.1894 58.3001C55.1191 71.5749 57.7374 91.3356 57.8569 97.8079C57.8592 97.9363 57.8114 98.0604 57.7241 98.1522C57.6368 98.2439 57.5175 98.2956 57.3929 98.2956H56.8532L15.7771 98.3735H15.0207C14.8932 98.3735 14.7714 98.3194 14.6837 98.2239C14.5961 98.1285 14.5504 98 14.5573 97.8687C14.6562 96.0051 14.7757 94.8753 14.9013 93.6889C14.9207 93.5055 14.9403 93.3207 14.96 93.1316C15.1061 91.7256 15.2591 90.0657 15.399 86.9207C15.4107 86.6567 15.6278 86.4524 15.8838 86.4645C16.1399 86.4766 16.3379 86.7005 16.3262 86.9646C16.1854 90.1304 16.0308 91.8097 15.8828 93.2336C15.863 93.4242 15.8434 93.61 15.8239 93.7938C15.7105 94.8651 15.6039 95.8731 15.5124 97.4163H15.7762L56.8524 97.3384L56.8532 97.3384L56.9159 97.3384C56.685 90.4819 54.1587 71.4243 52.2715 58.4421C51.775 55.0475 51.333 52.0788 50.9774 49.8564C50.9357 49.5956 51.1068 49.3493 51.3597 49.3063Z" fill="#000229"/>
<path fill-rule="evenodd" clip-rule="evenodd" d="M35.7066 79.1887C36.6189 79.109 37.5368 79.109 38.4492 79.1887L38.4589 79.1895L38.4686 79.1907C38.8158 79.2346 39.1393 79.3859 39.391 79.6223C39.6426 79.8586 39.8092 80.1673 39.8659 80.5027C39.9225 80.838 39.8664 81.1822 39.7057 81.4841C39.548 81.7803 39.298 82.0204 38.9916 82.1703C38.6668 82.3534 38.0981 82.5741 37.5564 82.7772C37.4071 82.8332 37.2581 82.8884 37.1125 82.9424C36.6958 83.097 36.3077 83.2408 36.0256 83.3599L36.0238 83.3606C35.8851 83.4185 35.7464 83.5513 35.6317 83.7903C35.5176 84.0282 35.4463 84.3353 35.4248 84.6649C35.4034 84.993 35.4331 85.3192 35.5014 85.5863C35.5736 85.8686 35.6716 86.0195 35.7326 86.0721C35.9231 86.234 36.2732 86.3888 36.7881 86.5141C37.2909 86.6364 37.8971 86.7183 38.5484 86.769C39.85 86.8703 41.2791 86.8436 42.312 86.7943L42.3241 86.7937H42.4614V87.7446H42.3481C41.2968 87.7944 39.8265 87.8224 38.47 87.7168C37.7897 87.6638 37.1248 87.5763 36.5498 87.4364C35.9875 87.2996 35.4534 87.0994 35.0855 86.7862L35.0843 86.7852C34.8034 86.5443 34.6411 86.1701 34.5504 85.8153C34.4556 85.4446 34.4198 85.0203 34.4469 84.6049C34.4738 84.191 34.5648 83.7613 34.7434 83.3891C34.9213 83.0182 35.2053 82.6674 35.6358 82.4875C35.94 82.3592 36.3599 82.2035 36.7833 82.0465C36.9243 81.9942 37.0656 81.9418 37.2032 81.8902C37.7803 81.6739 38.2724 81.4785 38.5089 81.3427L38.5257 81.3331L38.5433 81.3248C38.6687 81.2653 38.771 81.1681 38.8351 81.0478C38.8991 80.9274 38.9215 80.7902 38.8989 80.6566C38.8763 80.5229 38.8099 80.3998 38.7096 80.3056C38.6113 80.2134 38.4856 80.1536 38.3503 80.1347C37.5025 80.0614 36.6497 80.0615 35.8019 80.135C35.4298 80.1793 34.9845 80.3036 34.4637 80.4741C34.2568 80.5418 34.0277 80.6205 33.7891 80.7025C33.46 80.8155 33.1127 80.9348 32.7808 81.0401C31.6062 81.4126 30.2582 81.7376 28.9902 81.4641L29.2028 80.5359C30.1908 80.749 31.3153 80.5045 32.4764 80.1363C32.8131 80.0295 33.1243 79.9223 33.433 79.816C33.6701 79.7343 33.9058 79.6532 34.1504 79.5731C34.6817 79.3992 35.2111 79.2461 35.6921 79.1901L35.6993 79.1893L35.7066 79.1887Z" fill="#000229"/>
<path fill-rule="evenodd" clip-rule="evenodd" d="M33.2578 4.57629C32.2382 5.9608 31.5821 7.58101 31.3501 9.28749L31.3485 9.29952L31.3462 9.31145C31.1761 10.2107 31.0512 11.1015 30.9383 11.9074C30.9168 12.0609 30.8957 12.2114 30.8748 12.3582C30.8386 12.6131 30.6035 12.7901 30.3497 12.7537C30.096 12.7173 29.9196 12.4812 29.9559 12.2264C29.9763 12.0829 29.9971 11.9348 30.0184 11.7827C30.1308 10.9805 30.2585 10.0685 30.4321 9.14929C30.6876 7.28445 31.4075 5.51444 32.5253 4.00324L32.5379 3.98623L32.5519 3.97043C33.8719 2.48841 35.3042 1.96965 36.7445 2.20452C38.1433 2.43263 39.4573 3.35811 40.6134 4.55252L40.6145 4.5537C41.279 5.24509 41.8867 5.98936 42.4316 6.77922C44.0731 9.13981 45.3362 11.7441 46.1751 14.4974L46.1784 14.5082L46.1811 14.5192C46.4494 15.5817 46.2705 16.9126 45.8794 18.2673C45.4841 19.6362 44.8531 21.0932 44.1495 22.4401C43.4454 23.7877 42.6614 25.0387 41.9524 25.9961C41.5983 26.4744 41.2579 26.8861 40.951 27.2021C40.6581 27.5037 40.3513 27.7655 40.0633 27.8804L40.0624 27.8808C39.8535 27.9636 39.6372 28.0263 39.4165 28.0679L39.4149 28.0682C38.1454 28.3034 36.7629 27.8484 35.6067 27.123C34.4458 26.3947 33.433 25.3447 32.9122 24.2688C32.8001 24.0373 32.8961 23.7583 33.1267 23.6458C33.3572 23.5332 33.6349 23.6296 33.747 23.8612C34.176 24.7474 35.052 25.6758 36.0984 26.3323C37.149 26.9914 38.2915 27.3278 39.2452 27.1516C39.4078 27.1209 39.5671 27.0748 39.721 27.0138C39.8135 26.9768 40.0042 26.8419 40.2866 26.5511C40.5554 26.2744 40.8687 25.8974 41.2076 25.4398C41.8846 24.5255 42.6433 23.3164 43.3275 22.0069C44.0122 20.6964 44.615 19.299 44.9878 18.0077C45.3631 16.7077 45.487 15.5766 45.284 14.759C44.4735 12.1027 43.2541 9.59014 41.6702 7.31243L41.6692 7.31099C41.1528 6.5624 40.5769 5.85702 39.9472 5.20174C38.8476 4.0658 37.7062 3.30583 36.5958 3.12475C35.531 2.95111 34.4047 3.29605 33.2578 4.57629Z" fill="#000229"/>
<path fill-rule="evenodd" clip-rule="evenodd" d="M29.7582 30.558C29.7798 32.2796 29.8017 34.0265 29.8017 35.8282H29.0754C29.0754 34.0578 29.0537 32.3285 29.0322 30.6162C28.9778 26.2812 28.9247 22.0551 29.2287 17.5459L29.9525 17.6228C29.6518 22.0836 29.704 26.241 29.7582 30.558Z" fill="#000229"/>
<path fill-rule="evenodd" clip-rule="evenodd" d="M39.6051 27.665C39.5978 27.5889 39.5875 27.5136 39.5742 27.4394L40.2263 27.168C40.2458 27.2771 40.2612 27.3879 40.2723 27.4998C40.4056 28.4584 40.5085 29.5038 40.611 30.5453C40.6631 31.0752 40.7152 31.6041 40.7711 32.12C40.9404 33.6825 41.1474 35.1578 41.4987 36.3761L40.8798 36.7903C40.4923 35.4462 40.2748 33.8623 40.1042 32.2877C40.0445 31.7372 39.9908 31.191 39.938 30.6534C39.8371 29.6271 39.7393 28.6322 39.609 27.6981L39.6067 27.6816L39.6051 27.665Z" fill="#000229"/>
<path fill-rule="evenodd" clip-rule="evenodd" d="M28.357 11.88C29.1032 11.6275 29.9111 11.821 30.6942 12.4888L30.6997 12.4935L30.7051 12.4984C31.1189 12.8723 31.4843 13.2962 31.793 13.7604C31.9466 13.9914 31.8834 14.303 31.6518 14.4563C31.4203 14.6095 31.108 14.5465 30.9544 14.3155C30.6933 13.9229 30.3845 13.5641 30.035 13.2474C29.4516 12.7521 29.0078 12.72 28.6803 12.8309C28.3111 12.9558 27.9446 13.3101 27.6478 13.8513C27.3563 14.3829 27.1697 15.0295 27.1219 15.6213C27.074 16.2157 27.1724 16.657 27.3347 16.8876C27.6177 17.172 27.9769 17.3693 28.3695 17.4558C28.7723 17.5446 29.1925 17.5127 29.5772 17.3641L29.6054 17.3532L29.6348 17.3458C29.8169 17.2995 29.9921 17.2296 30.1559 17.1378C30.3982 17.002 30.7049 17.0878 30.8411 17.3295C30.9772 17.5712 30.8912 17.8773 30.6489 18.0131C30.4169 18.1432 30.1693 18.2433 29.9121 18.3112C29.3503 18.5219 28.739 18.5655 28.1525 18.4363C27.5561 18.3048 27.0118 18.0007 26.5881 17.5618L26.568 17.5411L26.5505 17.5182C26.1546 17.001 26.0619 16.2458 26.1188 15.5407C26.1775 14.8143 26.4026 14.0301 26.765 13.3694C27.122 12.7182 27.6514 12.1188 28.357 11.88Z" fill="#000229"/>
<path fill-rule="evenodd" clip-rule="evenodd" d="M48.4099 2.15507C49.0417 2.18437 49.6903 2.3642 49.9874 2.93408C50.2046 3.35121 50.2073 3.77753 50.0356 4.17144C49.8738 4.54283 49.5698 4.85885 49.2206 5.12638C48.5221 5.66161 47.4935 6.11393 46.4555 6.47917C44.3723 7.21217 42.0524 7.66079 41.7022 7.69765L41.6017 6.77681C41.8655 6.74905 44.112 6.32002 46.1375 5.60732C47.1538 5.24971 48.0651 4.83717 48.6407 4.39615C48.9286 4.17555 49.0953 3.9756 49.1688 3.807C49.2325 3.66096 49.2351 3.52315 49.1481 3.35615C49.0944 3.25299 48.9166 3.10571 48.3654 3.08015C47.8398 3.05579 47.1207 3.15281 46.2468 3.3573C44.5069 3.76443 42.2821 4.56581 40.0345 5.47891C36.6243 6.8703 33.2223 8.49163 31.4827 9.32071C31.0515 9.5262 30.7224 9.68302 30.5207 9.77561L30.3728 9.84822L29.9512 9.01988L30.1104 8.9417L30.1161 8.93905C30.3068 8.85164 30.6268 8.69911 31.0506 8.49714C32.7781 7.67369 36.2297 6.02843 39.6731 4.62355L39.6737 4.62328C41.9321 3.70577 44.2132 2.88114 46.0282 2.45641C46.9318 2.24496 47.7524 2.12459 48.4099 2.15507Z" fill="#000229"/>
<path fill-rule="evenodd" clip-rule="evenodd" d="M35.5762 13.7642C36.1484 13.6458 36.7367 13.6872 37.2925 13.8852C37.559 13.9801 37.709 14.3086 37.6275 14.6191C37.546 14.9295 37.264 15.1042 36.9975 15.0093C36.5944 14.8657 36.1678 14.8356 35.7527 14.9215C35.3377 15.0074 34.9461 15.2069 34.6101 15.5034C34.388 15.6994 34.0715 15.6486 33.9032 15.3899C33.7349 15.1312 33.7785 14.7625 34.0007 14.5665C34.4639 14.1576 35.0039 13.8827 35.5762 13.7642Z" fill="#000229"/>
<path fill-rule="evenodd" clip-rule="evenodd" d="M29.8188 14.7512C30.0099 14.8651 29.9953 15.042 29.7861 15.1461C29.1845 15.4457 28.4026 15.6151 27.5877 15.6223C27.3044 15.6249 27.0711 15.5018 27.0665 15.3474C27.0619 15.193 27.2877 15.0658 27.571 15.0633C28.1356 15.0583 28.6773 14.9409 29.0942 14.7333C29.3033 14.6292 29.6278 14.6372 29.8188 14.7512Z" fill="#000229"/>
<path fill-rule="evenodd" clip-rule="evenodd" d="M42.0495 13.7364C42.734 13.6495 43.5302 13.7082 44.0681 13.9414C44.3418 14.0601 44.4613 14.3647 44.335 14.6218C44.2087 14.8789 43.8844 14.9911 43.6107 14.8724C43.3235 14.748 42.7551 14.6815 42.1957 14.7526C41.9246 14.787 41.6916 14.8497 41.5218 14.9301C41.3481 15.0124 41.289 15.0889 41.2716 15.1282L41.2703 15.1312L41.269 15.1341C41.1763 15.3366 41.1257 15.6427 41.1303 16.0523C41.1348 16.454 41.1916 16.9141 41.2788 17.3992C41.404 18.0958 41.5831 18.8006 41.7425 19.4279C41.8073 19.6831 41.8688 19.9254 41.9222 20.1491L41.9229 20.152L41.9235 20.1549C42.0332 20.6415 42.2162 21.4927 42.0815 22.1653C42.0117 22.5134 41.8379 22.9103 41.4227 23.1428C41.0099 23.3739 40.5016 23.3621 39.9614 23.2078C39.673 23.1255 39.5103 22.8391 39.598 22.5682C39.6857 22.2973 39.9906 22.1444 40.279 22.2268C40.6781 22.3408 40.8267 22.2827 40.8637 22.262C40.8983 22.2427 40.9673 22.182 41.0086 21.9757C41.0959 21.5402 40.9748 20.8967 40.8562 20.3703C40.8089 20.172 40.7517 19.9467 40.6898 19.703C40.5279 19.0656 40.3341 18.3026 40.2024 17.57C40.1103 17.058 40.0441 16.5396 40.0387 16.0632C40.0334 15.5956 40.0857 15.1248 40.2649 14.7318C40.4193 14.3854 40.7259 14.1587 41.0304 14.0145C41.3398 13.868 41.6986 13.781 42.0495 13.7364Z" fill="#000229"/>
<path fill-rule="evenodd" clip-rule="evenodd" d="M41.3052 24.3302C41.5131 24.4132 41.5616 24.5747 41.4135 24.6911C41.211 24.8503 40.9479 24.9822 40.6431 25.0774C40.3383 25.1726 39.9995 25.2287 39.6512 25.2416C39.303 25.2545 38.954 25.2239 38.6294 25.152C38.3049 25.0801 38.013 24.9687 37.7748 24.8259C37.6005 24.7215 37.6106 24.5577 37.7972 24.4602C37.9838 24.3627 38.2764 24.3683 38.4506 24.4727C38.5953 24.5595 38.7725 24.6271 38.9696 24.6708C39.1667 24.7144 39.3787 24.733 39.5902 24.7252C39.8017 24.7173 40.0075 24.6833 40.1925 24.6255C40.3776 24.5677 40.5375 24.4875 40.6604 24.3909C40.8086 24.2745 41.0972 24.2473 41.3052 24.3302Z" fill="#000229"/>
<path fill-rule="evenodd" clip-rule="evenodd" d="M33.158 165.609C33.0632 160.658 32.9425 154.354 32.8398 147.456L34.3044 147.447C34.4067 154.323 34.5279 160.652 34.6229 165.618C34.6858 168.903 34.7372 171.591 34.7642 173.445L34.7643 173.449L34.7643 173.459V176.314H33.2996V173.451C33.2723 171.578 33.2209 168.89 33.158 165.609Z" fill="#000229"/>
<path fill-rule="evenodd" clip-rule="evenodd" d="M22.7293 100.298C22.9891 100.291 23.2055 100.504 23.2127 100.774C23.2817 103.362 22.4528 105.453 21.0623 107.046C19.6794 108.631 17.7609 109.701 15.669 110.306L15.6681 110.306C14.5235 110.635 13.347 110.828 12.1609 110.882C11.9013 110.894 11.6817 110.684 11.6704 110.414C11.6591 110.143 11.8603 109.915 12.1199 109.903C13.2352 109.852 14.3415 109.671 15.4178 109.362C17.3848 108.793 19.1313 107.802 20.366 106.387C21.5932 104.981 22.3344 103.136 22.2721 100.801C22.2649 100.531 22.4696 100.306 22.7293 100.298Z" fill="#000229"/>
<path fill-rule="evenodd" clip-rule="evenodd" d="M16.1057 97.4123C16.3597 97.419 16.5603 97.6349 16.5538 97.8946C16.4576 101.694 16.4576 105.789 16.4576 110.056L16.4576 110.058C16.3697 130.935 16.6296 155.815 16.7814 170.341C16.7959 171.724 16.8093 173.014 16.8214 174.196C16.8792 178.231 16.885 181.028 16.8856 182.108L41.0373 181.99C41.2915 181.988 41.4985 182.198 41.4997 182.458C41.5009 182.717 41.2959 182.929 41.0417 182.93L16.4277 183.05C16.3053 183.051 16.1877 183.002 16.1009 182.914C16.0141 182.825 15.9653 182.705 15.9653 182.58V182.405C15.9653 181.64 15.9653 178.69 15.9012 174.209L15.9011 174.207C15.8891 173.024 15.8756 171.735 15.8611 170.351C15.7094 155.826 15.4493 130.939 15.5373 110.055V110.052C15.5373 105.789 15.5373 101.683 15.6337 97.8703C15.6403 97.6106 15.8516 97.4056 16.1057 97.4123Z" fill="#000229"/>
<path fill-rule="evenodd" clip-rule="evenodd" d="M40.2343 106.073C40.51 106.084 40.7238 106.302 40.7118 106.56C40.0725 120.292 37.8783 133.921 34.166 147.219C31.7444 156.359 28.9388 165.083 26.2306 173.157C26.4155 173.225 26.6396 173.313 26.8941 173.415C27.0868 173.493 27.2965 173.578 27.5228 173.67C27.9093 173.827 28.3441 174.004 28.8246 174.195C30.3405 174.796 32.2511 175.508 34.2155 176.038L34.223 176.04C35.3756 176.37 36.5559 176.608 37.7514 176.752C39.0246 176.889 40.3189 177.293 41.2345 178.085C42.1696 178.895 42.6584 180.066 42.3855 181.606C42.3929 181.825 42.2354 182.025 41.9995 182.076C41.7308 182.135 41.4621 181.978 41.3993 181.727C41.379 181.645 41.3776 181.561 41.3951 181.478C41.6264 180.215 41.2326 179.358 40.556 178.772C39.8514 178.162 38.7883 177.805 37.6339 177.681L37.6273 177.68C36.3762 177.53 35.1408 177.281 33.9345 176.936C31.9144 176.39 29.9625 175.662 28.4348 175.056C27.9521 174.865 27.5056 174.683 27.115 174.524C26.8902 174.433 26.684 174.349 26.5 174.275C26.2445 174.172 26.031 174.088 25.8612 174.026C25.6826 173.961 25.5807 173.931 25.5362 173.922C25.3055 173.876 25.1406 173.685 25.1406 173.464V173.356C25.1406 173.308 25.1484 173.261 25.1636 173.215C27.905 165.051 30.7485 156.232 33.1968 146.991L33.1983 146.985C36.8932 133.75 39.0771 120.186 39.7134 106.52C39.7254 106.262 39.9586 106.061 40.2343 106.073Z" fill="#000229"/>
<path fill-rule="evenodd" clip-rule="evenodd" d="M57.5246 97.4122C57.7889 97.4181 57.9984 97.634 57.9924 97.8945C57.3057 128.009 50.6599 153.913 44.2608 174.018C44.3062 174.035 44.3525 174.054 44.3996 174.072C44.6596 174.177 44.9836 174.315 45.355 174.474L45.5019 174.537C46.2244 174.846 47.1228 175.232 48.1288 175.627C50.2862 176.475 52.902 177.355 55.2757 177.633C56.5018 177.772 57.7509 178.182 58.6285 178.997C59.5322 179.837 59.9875 181.056 59.6881 182.664C59.6464 182.888 59.4483 183.05 59.2172 183.05H41.0139C40.7495 183.05 40.5352 182.839 40.5352 182.579C40.5352 182.318 40.7495 182.107 41.0139 182.107H58.8022C58.9143 180.996 58.5532 180.224 57.9717 179.684C57.2992 179.059 56.2775 178.696 55.1659 178.571L55.1638 178.571C52.6613 178.278 49.9502 177.359 47.7741 176.504C46.7538 176.102 45.8431 175.712 45.1214 175.403L44.9732 175.339C44.5998 175.179 44.2864 175.046 44.0387 174.946C43.7784 174.842 43.629 174.791 43.5653 174.778C43.4331 174.751 43.3187 174.67 43.2505 174.555C43.1822 174.44 43.1665 174.302 43.207 174.175C49.6355 154.051 56.3463 128.083 57.0352 97.8733C57.0411 97.6128 57.2602 97.4064 57.5246 97.4122Z" fill="#000229"/>
<path fill-rule="evenodd" clip-rule="evenodd" d="M33.8008 173.427H44.3853V174.389H33.8008V173.427Z" fill="#000229"/>
<path fill-rule="evenodd" clip-rule="evenodd" d="M16.4805 173.427H26.1028V174.389H16.4805V173.427Z" fill="#000229"/>
<path fill-rule="evenodd" clip-rule="evenodd" d="M15.1797 182.251C15.1797 181.973 15.3872 181.748 15.6433 181.748H40.5265C40.7825 181.748 40.9901 181.973 40.9901 182.251V184.472C40.9901 184.749 40.7825 184.974 40.5265 184.974H15.6433C15.3872 184.974 15.1797 184.749 15.1797 184.472V182.251ZM16.1069 182.753V183.969H40.0629V182.753H16.1069Z" fill="#000229"/>
<path fill-rule="evenodd" clip-rule="evenodd" d="M40.9902 182.251C40.9902 181.973 41.1972 181.748 41.4524 181.748H58.8104C59.0657 181.748 59.2726 181.973 59.2726 182.251V184.472C59.2726 184.749 59.0657 184.974 58.8104 184.974H41.4524C41.1972 184.974 40.9902 184.749 40.9902 184.472V182.251ZM41.9146 182.753V183.969H58.3483V182.753H41.9146Z" fill="#000229"/>
<path fill-rule="evenodd" clip-rule="evenodd" d="M7.78778 81.6481L7.97048 78.2128L7.04713 78.167L6.86437 81.6034L6.86427 81.6055C6.80883 82.7538 7.2263 83.8766 8.02545 84.7285C8.8246 85.5805 9.94047 86.0923 11.1292 86.1522L11.1306 86.1523L22.2085 86.8271L22.255 85.9353L15.5413 85.4682L11.1774 85.2606C10.2329 85.2128 9.34562 84.806 8.71067 84.1291C8.07578 83.4523 7.74401 82.5603 7.78778 81.6481Z" fill="#000229"/>
<path fill-rule="evenodd" clip-rule="evenodd" d="M21.436 57.9401H21.291V56.998H21.4573L43.1511 58.0941C44.2981 58.1573 45.3749 58.6974 46.146 59.5963C46.9171 60.4952 47.32 61.6799 47.2665 62.8915L46.3536 83.4421L46.3535 83.4441C46.3241 84.0511 46.1806 84.6459 45.9312 85.1938C45.6819 85.7417 45.3318 86.2317 44.9012 86.6351C44.4707 87.0386 43.9684 87.3476 43.4236 87.5439C42.8838 87.7385 42.3129 87.8186 41.7437 87.7799H41.1672V86.8378H41.7585V87.3088L41.7888 86.8389C42.245 86.8717 42.7027 86.8083 43.1354 86.6523C43.5681 86.4964 43.9671 86.251 44.309 85.9305C44.651 85.6101 44.9291 85.2209 45.1271 84.7857C45.3251 84.3508 45.4391 83.8786 45.4625 83.3967C45.4625 83.3965 45.4625 83.3962 45.4625 83.396L46.3753 62.8477C46.3753 62.8476 46.3753 62.8477 46.3753 62.8477C46.4178 61.8848 46.0976 60.9432 45.4848 60.2288C44.8722 59.5146 44.0168 59.0854 43.1055 59.035C43.1052 59.035 43.1049 59.0349 43.1046 59.0349L21.436 57.9401Z" fill="#000229"/>
<path fill-rule="evenodd" clip-rule="evenodd" d="M69.6498 35.8291L69.7468 36.1689C70.7135 39.5551 72.2653 45.3031 73.2617 50.5314C73.7595 53.1435 74.1221 55.6434 74.2002 57.6613C74.2392 58.6694 74.208 59.5751 74.0803 60.3225C73.9548 61.0566 73.725 61.7069 73.3111 62.1309C73.121 62.3259 72.8703 62.4553 72.6071 62.5439C72.3402 62.6338 72.0311 62.692 71.695 62.7271C71.0232 62.7973 70.1927 62.7803 69.2704 62.7041C67.423 62.5514 65.1394 62.1546 62.8806 61.6809C58.4871 60.7596 54.1194 59.533 53.1214 59.1951H53.1002V59.1879C53.0811 59.1813 53.0633 59.1751 53.0469 59.1693L53.1002 59.0093V58.2477H53.273L53.3456 58.2735C54.1242 58.5504 58.5673 59.8097 63.0632 60.7524C65.3094 61.2234 67.5509 61.6115 69.3437 61.7597C70.2415 61.8339 71.0099 61.8464 71.6026 61.7845C71.8988 61.7535 72.1384 61.7053 72.3225 61.6432C72.51 61.5801 72.6133 61.5112 72.6646 61.4586C72.8159 61.3037 72.9535 61.0483 73.0613 60.6735C73.0659 60.6577 73.0704 60.6416 73.0748 60.6254C73.113 60.4857 73.1472 60.3301 73.1767 60.1578C73.2885 59.5036 73.321 58.6728 73.2834 57.6991C73.2081 55.7534 72.8559 53.309 72.3614 50.7144C71.6581 47.024 70.6741 43.0652 69.8175 39.8717C69.5123 38.7335 69.2232 37.6925 68.9687 36.7955L64.3712 37.1468C64.7937 41.3983 64.9348 45.6747 64.7934 49.9464L63.8764 49.9141C64.0217 45.5239 63.8656 41.1286 63.4093 36.7612L63.3584 36.2742L69.1662 35.8304L69.1831 35.8291H69.6498Z" fill="#000229"/>
<path fill-rule="evenodd" clip-rule="evenodd" d="M64.5666 29.134C64.3334 29.1728 64.116 29.2213 63.8971 29.2702C63.7449 29.3042 63.5919 29.3383 63.4323 29.3695C62.9673 29.4695 62.5181 29.6261 62.096 29.8352C61.3215 30.2425 60.9547 30.7819 60.8291 31.3582C60.699 31.9549 60.8186 32.6384 61.1187 33.3133C61.4177 33.9854 61.8807 34.6133 62.3816 35.0821C62.8968 35.5641 63.3893 35.8204 63.7325 35.8592C64.0049 35.89 64.1993 36.123 64.1666 36.3796C64.1339 36.6362 63.8865 36.8193 63.6141 36.7885C62.9462 36.713 62.2573 36.285 61.6813 35.7461C61.0912 35.1938 60.5532 34.464 60.2023 33.675C59.8525 32.8888 59.6731 32.0078 59.8557 31.1699C60.0425 30.3129 60.5989 29.5486 61.6177 29.0148L61.6226 29.0122L61.6275 29.0098C62.1292 28.7606 62.6634 28.5744 63.2165 28.4559L63.2212 28.4549L63.226 28.4539C63.3283 28.434 63.4612 28.4047 63.6075 28.3724C63.859 28.317 64.1505 28.2527 64.3957 28.2119L64.3994 28.2113L64.3994 28.2113C64.901 28.1316 65.4821 28.0875 66.0065 28.1985C66.5437 28.3123 67.052 28.5993 67.3112 29.1781C67.4838 29.483 67.5269 29.8388 67.431 30.1732C67.3322 30.5176 67.0936 30.8117 66.7667 30.9921L66.7452 31.004L66.7225 31.0137C66.2166 31.2321 65.6862 31.3961 65.1414 31.5029C65.0914 31.5135 65.0419 31.5269 64.9934 31.5425C65.1352 31.629 65.2691 31.7271 65.3937 31.836C65.7261 32.1268 65.982 32.4863 66.1414 32.8862C66.2742 33.1467 66.3819 33.418 66.4632 33.6967C66.5359 33.9459 66.3803 34.2035 66.1157 34.2719C65.8511 34.3404 65.5777 34.1938 65.505 33.9446C65.4378 33.7139 65.348 33.4895 65.2369 33.2744L65.2258 33.2528L65.217 33.2303C65.1123 32.9603 64.9412 32.7175 64.7175 32.5219C64.4967 32.3288 64.231 32.1871 63.9416 32.1081C63.876 32.0927 63.7903 32.0611 63.7104 31.9945C63.607 31.9083 63.55 31.7938 63.5357 31.6792C63.5123 31.4916 63.6064 31.3511 63.636 31.3084C63.7172 31.1912 63.8409 31.0891 63.951 31.0118C64.1857 30.8468 64.5379 30.6704 64.9289 30.5885L64.9323 30.5878L64.9358 30.5871C65.3994 30.4966 65.8509 30.358 66.2822 30.1742C66.3751 30.1173 66.4427 30.0301 66.4718 29.929C66.5026 29.8215 66.4874 29.7069 66.4294 29.6099L66.4135 29.5833L66.4014 29.555C66.2984 29.3141 66.1036 29.1784 65.7885 29.1117C65.4525 29.0405 65.0234 29.0615 64.5666 29.134Z" fill="#000229"/>
<path fill-rule="evenodd" clip-rule="evenodd" d="M60.8112 22.5161C60.9527 22.4939 61.0473 22.5016 61.1182 22.5183L61.3911 22.656L62.0448 23.5973L62.6439 25.2335L62.7387 25.5282C62.9149 26.0768 63.1062 26.6727 63.3337 27.2873C63.5416 27.8498 63.7659 28.4466 64.044 29.0453C64.1327 29.2363 64.4443 29.3447 64.7401 29.2874C65.0358 29.2301 65.2036 29.0288 65.1149 28.8378C64.847 28.261 64.6292 27.6822 64.4211 27.1194C64.1978 26.5163 64.0104 25.9326 63.8342 25.3838C63.802 25.2833 63.7701 25.1841 63.7384 25.0861C63.5354 24.4575 63.3401 23.8758 63.1163 23.3909C62.8965 22.915 62.6292 22.4847 62.2465 22.191C62.0483 22.0389 61.8041 21.9115 61.5026 21.8402C61.1968 21.7679 60.8737 21.7632 60.5471 21.8144C60.0583 21.8912 59.7841 22.1466 59.634 22.3917C59.4822 22.6398 59.4092 22.9488 59.3804 23.2769C59.3224 23.9378 59.4367 24.7824 59.6219 25.6291C59.9923 27.3229 60.6684 29.1183 60.9562 29.6628C61.056 29.8515 61.3737 29.9522 61.6659 29.8878C61.9581 29.8234 62.114 29.6181 62.0143 29.4294C61.7561 28.941 61.0931 27.193 60.7289 25.5281C60.5468 24.6954 60.445 23.9068 60.4967 23.3177C60.5227 23.0207 60.5861 22.8005 60.6738 22.6572C60.7166 22.5872 60.7572 22.5492 60.7839 22.5306C60.7963 22.5219 60.8043 22.5184 60.8071 22.5173C60.8094 22.5164 60.8102 22.5163 60.8112 22.5161Z" fill="#000229"/>
<path fill-rule="evenodd" clip-rule="evenodd" d="M64.8233 26.3954C64.7091 26.4947 64.6331 26.6324 64.653 26.846C64.6764 27.0962 64.468 27.3159 64.1876 27.3368C63.9072 27.3576 63.6609 27.1717 63.6375 26.9215C63.5923 26.4374 63.7799 26.0332 64.1119 25.7444C64.4307 25.4671 64.8548 25.3183 65.2668 25.2667C65.6802 25.215 66.1232 25.2553 66.5103 25.3974C66.8959 25.539 67.2588 25.7958 67.436 26.1916C67.6255 26.5819 67.7826 26.9841 67.9061 27.395C68.2371 28.3978 68.4219 29.4617 68.4404 30.4241C68.4586 31.3647 68.3192 32.2599 67.952 32.906C67.8163 33.2101 67.5783 33.4696 67.2704 33.6484C66.9538 33.8323 66.5797 33.9214 66.2025 33.9028C65.9216 33.8889 65.7064 33.6744 65.722 33.4237C65.7375 33.1731 65.9779 32.9811 66.2589 32.995C66.4198 33.0029 66.5794 32.9649 66.7145 32.8864C66.8495 32.808 66.9531 32.6932 67.0101 32.5587L67.0207 32.5337L67.0345 32.5099C67.2974 32.0582 67.4388 31.3302 67.4216 30.4398C67.4046 29.5618 67.2346 28.577 66.9269 27.6467L66.9251 27.6411L66.9234 27.6355C66.812 27.2637 66.6698 26.8998 66.498 26.5468L66.4943 26.5392L66.4909 26.5316C66.4416 26.4193 66.3256 26.3127 66.1226 26.2382C65.9183 26.1633 65.6599 26.1356 65.4084 26.1671C65.1553 26.1988 64.9507 26.2845 64.8233 26.3954Z" fill="#000229"/>
<path fill-rule="evenodd" clip-rule="evenodd" d="M68.1775 26.1373C67.9356 26.2093 67.703 26.4775 67.741 26.9572C67.76 27.1971 67.6107 27.4099 67.4076 27.4323C67.2045 27.4547 67.0244 27.2784 67.0054 27.0385C66.9317 26.1076 67.4207 25.4625 67.997 25.291C68.2807 25.2066 68.594 25.2344 68.8675 25.4101C69.1472 25.5897 69.3569 25.906 69.4491 26.3315L69.4491 26.3317C69.7555 27.7484 69.8859 28.9425 69.8847 29.9045C69.8836 30.8563 69.7537 31.6164 69.51 32.1385C69.423 32.3292 69.3064 32.4989 69.1662 32.6386L69.1522 32.6526L69.1371 32.6648C68.8445 32.9022 68.4841 32.9928 68.1351 32.9166C67.786 32.8404 67.4768 32.6038 67.2753 32.2586C67.1595 32.0602 67.2017 31.7884 67.3697 31.6516C67.5376 31.5148 67.7676 31.5647 67.8834 31.7631C67.9739 31.918 68.1126 32.0242 68.2692 32.0584C68.42 32.0913 68.5754 32.0549 68.7039 31.9572C68.7672 31.8907 68.8201 31.8116 68.8603 31.7233L68.8613 31.7209L68.8625 31.7185C69.0218 31.3781 69.1449 30.7843 69.146 29.9033C69.147 29.0311 69.0283 27.9115 68.7333 26.5477C68.6881 26.3391 68.6003 26.2318 68.5147 26.1768C68.4228 26.1178 68.3029 26.0999 68.1775 26.1373Z" fill="#000229"/>
<path fill-rule="evenodd" clip-rule="evenodd" d="M68.7251 31.9983C68.9292 31.9282 69.139 32.0834 69.1937 32.3449C69.4736 33.6827 69.4736 35.0913 69.1937 36.4292C69.139 36.6907 68.9292 36.8458 68.7251 36.7758C68.521 36.7057 68.3998 36.4369 68.4545 36.1754C68.6996 35.0038 68.6996 33.7702 68.4545 32.5987C68.3998 32.3372 68.521 32.0684 68.7251 31.9983Z" fill="#000229"/>
<path d="M66.3267 2.32564C66.3465 2.30186 66.3712 2.28217 66.3993 2.26777C66.4274 2.25337 66.4583 2.24456 66.49 2.24188C66.5218 2.2392 66.5538 2.2427 66.5841 2.25217C66.6145 2.26164 66.6424 2.27688 66.6664 2.29696L67.534 3.02467L64.8051 6.27338H66.6118L68.5935 3.91459L70.1481 5.22035C70.194 5.25903 70.2223 5.31329 70.2269 5.37155C70.2315 5.42981 70.212 5.48746 70.1725 5.53222L69.5232 6.27338H71.3526C71.5792 5.95745 71.6767 5.57353 71.6268 5.19389C71.5768 4.81426 71.3829 4.46509 71.0815 4.21213L67.5998 1.28785C67.4319 1.14697 67.2355 1.04018 67.0228 0.973997C66.81 0.907814 66.5853 0.88363 66.3624 0.90292C66.1395 0.922211 65.9231 0.984572 65.7264 1.08619C65.5296 1.18782 65.3567 1.32657 65.2182 1.49398L61.2641 6.27338H63.0614L66.3267 2.32564ZM57.7579 5.82528C57.5707 5.82528 57.3912 5.89609 57.2588 6.02215C57.1265 6.1482 57.0521 6.31916 57.0521 6.49742C57.0521 6.67569 57.1265 6.84665 57.2588 6.9727C57.3912 7.09875 57.5707 7.16957 57.7579 7.16957H69.9909C70.802 7.16957 71.5799 7.47644 72.1534 8.02266C72.727 8.56888 73.0492 9.30972 73.0492 10.0822V15.9075C73.0492 16.6799 72.727 17.4208 72.1534 17.967C71.5799 18.5132 70.802 18.8201 69.9909 18.8201H58.6989C57.8878 18.8201 57.1099 18.5132 56.5364 17.967C55.9628 17.4208 55.6406 16.6799 55.6406 15.9075V6.49742C55.6406 5.96263 55.8637 5.44974 56.2608 5.07159C56.6578 4.69343 57.1964 4.48099 57.7579 4.48099H61.823L60.7013 5.82528H57.7579ZM67.4032 13.2189C67.4032 13.5899 67.7193 13.891 68.1089 13.891H69.9909C70.1781 13.891 70.3576 13.8202 70.49 13.6942C70.6223 13.5681 70.6967 13.3971 70.6967 13.2189C70.6967 13.0406 70.6223 12.8697 70.49 12.7436C70.3576 12.6175 70.1781 12.5467 69.9909 12.5467H68.1089C67.9217 12.5467 67.7422 12.6175 67.6099 12.7436C67.4775 12.8697 67.4032 13.0406 67.4032 13.2189Z" fill="#000229"/>
</svg>
