<svg width="71" height="185" viewBox="0 0 71 185" fill="none" xmlns="http://www.w3.org/2000/svg">
<path d="M32.9751 182.254V182.308C32.4511 179.452 34.5687 178.201 36.8145 177.934C37.944 177.789 39.0599 177.553 40.1513 177.228C43.8196 176.158 47.2526 174.394 47.9156 174.244H57.6799C57.6264 178.618 57.605 181.506 57.6157 182.265L32.9751 182.254Z" fill="#CAD7E4"/>
<path d="M32.9421 182.363H15.6274C15.1248 179.518 17.2423 178.267 19.4775 178.01C24.1297 177.465 29.7123 174.502 30.5786 174.32H40.0969C40.0969 175.978 40.0969 176.973 40.0969 177.176V177.315C39.0055 177.64 37.8896 177.876 36.7601 178.021C34.5463 178.256 32.4181 179.497 32.9421 182.363Z" fill="#CAD7E4"/>
<path d="M18.6661 78.057C19.7356 70.9557 20.8051 63.9507 21.543 59.876C21.543 59.876 13.7252 64.2395 12.9124 67.8757C12.6129 69.2125 16.9871 75.8753 18.6554 78.0249L18.6661 78.057ZM50.4293 69.8007C49.3599 69.9611 48.2904 70.0681 47.2958 70.1429C47.0145 69.785 46.6505 69.5006 46.2351 69.3144C45.8197 69.1281 45.3653 69.0454 44.9109 69.0735C44.4277 69.0368 43.9434 69.1306 43.5089 69.3451C43.0743 69.5596 42.7053 69.8868 42.4404 70.2927C37.692 70.2927 35.2429 70.7632 34.4729 71.2124C32.7831 72.1963 31.8206 73.2551 31.8741 75.2443C31.9305 77.0069 32.4268 78.7275 33.3178 80.2494C33.4467 80.4512 33.5934 80.6409 33.7563 80.8162C34.3956 81.4813 35.2724 81.8658 36.1947 81.8857C36.5797 81.8857 37.8524 81.6504 38.0021 81.1585C38.1518 80.6665 37.7454 80.228 37.5209 80.089C37.0396 79.6826 36.4514 79.8216 35.938 79.7468C34.6761 78.6773 38.8363 76.8592 43.0072 76.902H44.0018H46.5258C47.7343 76.902 49.0176 76.795 50.3438 76.6881C49.8873 75.6011 49.6522 74.434 49.6522 73.2551C49.6522 72.0762 49.8873 70.9091 50.3438 69.8221L50.4293 69.8007ZM56.0761 68.2607C56.4613 68.0634 56.8206 67.8192 57.1456 67.5334C59.4771 65.3945 59.2846 62.0257 55.4024 59.0739C55.4024 59.0739 55.6911 63.8545 56.012 68.1751L56.0761 68.2607ZM56.5788 75.8646C57.306 85.7679 58.2044 97.3074 58.322 99.2218L16.2277 99.318C16.2277 97.393 16.5913 94.0349 17.0726 90.0137C17.4897 86.463 18.0351 82.399 18.6019 78.3565H18.495C16.8024 79.8204 15.5724 81.7453 14.9551 83.8963C14.897 84.4855 14.9258 85.0801 15.0406 85.6609H14.9551C7.21211 80.1959 2.41019 72.6134 0.998487 67.1805C-0.605717 61.0631 14.6663 49.3738 18.3239 46.8606C22.3772 44.08 31.3393 42.7111 31.3393 42.7111C31.6923 41.8234 31.8741 41.0213 32.7296 40.4973L32.9328 40.4117C36.6732 39.855 40.4754 39.855 44.2157 40.4117H44.3334C45.1996 40.5721 45.7344 42.0159 45.6809 42.7431C45.6809 42.7431 55.0494 43.3634 57.3595 44.6682C60.4503 46.4328 72.6529 62.1433 69.5087 68.774C67.6585 72.6669 62.3111 74.7737 56.6109 75.8646H56.5788Z" fill="#CAD7E4"/>
<path d="M45.9152 72.6143C45.8348 74.1358 46.0829 75.6568 46.6424 77.0739" stroke="#000229" stroke-width="0.86" stroke-miterlimit="10"/>
<path d="M43.3908 72.4434C43.286 74.0383 43.5305 75.6369 44.1074 77.1276" stroke="#000229" stroke-width="0.86" stroke-miterlimit="10"/>
<path d="M50.2473 76.6553C48.1084 76.7729 44.6326 76.9547 43.0391 76.9226" stroke="#000229" stroke-width="0.86" stroke-linejoin="round"/>
<path d="M40.3879 148.374C40.2489 163.817 40.035 176.394 40.0885 177.143" stroke="#000229" stroke-width="0.86" stroke-miterlimit="10"/>
<path d="M56.6105 75.9182C57.3377 85.8215 58.2361 97.3611 58.3537 99.2754L16.2594 99.3717C16.4091 92.7303 19.8849 68.9239 21.6068 59.9189C21.6068 59.9189 13.7355 64.2717 12.9227 67.9079C12.6232 69.2447 17.0508 75.9075 18.7192 78.0571" stroke="#000229" stroke-width="0.86" stroke-linejoin="round"/>
<path d="M17.1454 89.9915C16.5286 90.6704 15.7324 91.1611 14.8487 91.4071C13.9651 91.6531 13.0299 91.6443 12.151 91.3818C10.7927 90.8684 10.1938 90.1626 11.0815 89.1466C11.9691 88.1306 13.1242 88.922 14.1723 88.6333C15.9262 88.1413 14.6535 85.2537 14.9316 83.9383C15.5489 81.7872 16.7789 79.8623 18.4715 78.3984" stroke="#000229" stroke-width="0.86" stroke-miterlimit="10"/>
<path d="M55.4776 59.9614C55.4776 59.4053 55.4776 59.0737 55.4776 59.0737C59.317 62.0255 59.5523 65.3943 57.2102 67.5332C55.8305 68.7952 50.4832 69.8219 50.4832 69.8219C50.0078 70.895 49.7515 72.0524 49.7295 73.2259C49.7074 74.3994 49.9201 75.5656 50.3549 76.6558C58.1513 76.1211 66.9423 74.2816 69.6053 68.7738C72.7495 62.1431 60.5469 46.4005 57.4454 44.6359C55.1354 43.3311 45.7668 42.7109 45.7668 42.7109C45.7668 41.9836 45.2856 40.5719 44.4193 40.3794C40.6762 39.6736 33.6391 39.9944 32.8156 40.497C31.9921 40.9997 31.7461 41.8232 31.4253 42.7109C31.4253 42.7109 22.4631 44.0798 18.4098 46.8604C14.7522 49.3736 -0.519779 61.0629 1.08442 67.1803C2.50682 72.6132 7.30873 80.1957 15.0624 85.7142" stroke="#000229" stroke-width="0.86" stroke-linejoin="round"/>
<path d="M56.0317 68.1751C55.8178 65.341 55.5825 61.6406 55.4648 59.8867" stroke="#000229" stroke-width="0.86" stroke-linejoin="round"/>
<path d="M42.5251 70.292C37.7232 70.292 35.2527 70.7626 34.472 71.2117C32.7823 72.1956 31.8197 73.2544 31.8732 75.2436C31.9043 77.2701 32.5742 79.235 33.7876 80.8584C34.4269 81.5234 35.3037 81.908 36.2259 81.9278C36.611 81.9278 37.8836 81.6925 38.0333 81.2006C38.1831 80.7086 37.7767 80.2701 37.5521 80.1311C37.0708 79.7247 36.4826 79.8637 35.9693 79.7889C34.6966 78.7194 38.9317 76.8799 43.1454 76.9548" stroke="#000229" stroke-width="0.86" stroke-miterlimit="10"/>
<path d="M44.9104 72.5917C46.3398 72.5917 47.4985 71.8017 47.4985 70.8271C47.4985 69.8525 46.3398 69.0625 44.9104 69.0625C43.481 69.0625 42.3223 69.8525 42.3223 70.8271C42.3223 71.8017 43.481 72.5917 44.9104 72.5917Z" stroke="#000229" stroke-width="0.86" stroke-miterlimit="10"/>
<path d="M51.0158 103.115C50.8447 108.987 56.0637 111.874 61.379 112.142" stroke="#000229" stroke-width="0.86" stroke-miterlimit="10" stroke-linecap="round"/>
<path d="M34.4182 108.462C35.1348 131.84 41.7762 154.919 47.8294 174.17V174.298C46.9738 174.48 41.4126 177.442 36.7283 177.988C34.4931 178.255 32.3649 179.496 32.8889 182.362L57.5829 182.469C57.4867 181.079 58.3102 130.535 57.8931 99.5957" stroke="#000229" stroke-width="0.86" stroke-linecap="round" stroke-linejoin="round"/>
<path d="M17.2521 99.7773C17.9151 129.295 24.3747 154.641 30.5563 174.287C29.69 174.469 24.1394 177.431 19.4552 177.977C17.2093 178.244 15.0917 179.485 15.6158 182.351H33.1551" stroke="#000229" stroke-width="0.86" stroke-linecap="round" stroke-linejoin="round"/>
<path d="M33.6816 17.4936C34.0132 15.0659 34.4517 11.4832 36.1414 9.60095C41.5636 3.53706 47.8414 15.8787 48.8574 19.8465C49.7985 23.5468 44.5795 31.8887 43.0716 32.4769C40.815 33.3859 37.5959 31.247 36.5692 29.1402" stroke="#000229" stroke-width="0.86" stroke-miterlimit="10" stroke-linecap="round"/>
<path d="M32.9223 40.5823C32.9223 34.2511 32.58 28.4973 33.1041 22.1768" stroke="#000229" stroke-width="0.86" stroke-miterlimit="10"/>
<path d="M42.4609 32.3799C43.0598 34.829 43.1882 37.9411 44.247 40.1549" stroke="#000229" stroke-width="0.86" stroke-miterlimit="10"/>
<path d="M34.5582 18.6258C31.5636 14.2196 29.3605 20.0054 30.5049 21.5241C30.9238 21.9326 31.468 22.1885 32.0498 22.2505C32.6317 22.3126 33.2176 22.1773 33.7133 21.8663" stroke="#000229" stroke-width="0.86" stroke-miterlimit="10" stroke-linecap="round"/>
<path d="M45.1876 12.3491C45.5512 12.3491 54.139 10.6487 52.9305 8.28515C51.5509 5.60078 35.0169 14.0924 33.9902 14.5415" stroke="#000229" stroke-width="0.86" stroke-miterlimit="10"/>
<path d="M40.6202 20.5831C40.1998 20.4058 39.7436 20.3299 39.2884 20.3615C38.8332 20.3931 38.3919 20.5313 38 20.7649" stroke="#000229" stroke-width="0.86" stroke-miterlimit="10" stroke-linecap="round"/>
<path d="M46.3321 20.5832C45.9098 20.4059 45.4519 20.3299 44.995 20.3615C44.5381 20.393 44.095 20.5313 43.7012 20.7651" stroke="#000229" stroke-width="0.86" stroke-miterlimit="10" stroke-linecap="round"/>
<path d="M42.1289 29.8914C42.8134 30.7149 44.2678 30.0519 44.9523 29.6134" stroke="#000229" stroke-width="0.86" stroke-linecap="round" stroke-linejoin="round"/>
<path d="M33.1567 19.4717C32.7006 19.8911 32.1077 20.1305 31.4883 20.1454" stroke="#000229" stroke-width="0.86" stroke-miterlimit="10" stroke-linecap="round"/>
<path d="M39.4336 22.5839C39.6816 22.5839 39.8827 22.3828 39.8827 22.1347C39.8827 21.8866 39.6816 21.6855 39.4336 21.6855C39.1855 21.6855 38.9844 21.8866 38.9844 22.1347C38.9844 22.3828 39.1855 22.5839 39.4336 22.5839Z" fill="#000229"/>
<path d="M44.9863 22.5839C45.2344 22.5839 45.4355 22.3828 45.4355 22.1347C45.4355 21.8866 45.2344 21.6855 44.9863 21.6855C44.7382 21.6855 44.5371 21.8866 44.5371 22.1347C44.5371 22.3828 44.7382 22.5839 44.9863 22.5839Z" fill="#000229"/>
<path d="M43.6803 19.9092C43.1562 21.2139 43.7658 23.2673 43.969 24.6255C44.0973 25.5453 44.3005 27.3313 42.707 26.7645" stroke="#000229" stroke-width="0.86" stroke-miterlimit="10" stroke-linecap="round"/>
<path d="M30.1621 174.287H39.9371" stroke="#000229" stroke-width="0.86" stroke-miterlimit="10"/>
<path d="M47.873 174.287H57.648" stroke="#000229" stroke-width="0.86" stroke-miterlimit="10"/>
<path d="M57.6248 182.309H32.9414V184.341H57.6248V182.309Z" stroke="#000229" stroke-width="0.86" stroke-linecap="round" stroke-linejoin="round"/>
<path d="M32.9105 182.309H15.6172V184.341H32.9105V182.309Z" stroke="#000229" stroke-width="0.86" stroke-linecap="round" stroke-linejoin="round"/>
<path d="M33.4139 80.3887C33.21 80.0154 33.0883 79.6027 33.0569 79.1785C33.0256 78.7543 33.0853 78.3282 33.2321 77.9289C33.5675 77.125 34.1524 76.4502 34.9005 76.0039" stroke="#000229" stroke-width="0.86" stroke-linecap="round" stroke-linejoin="round"/>
<path d="M32.472 78.1211C32.2803 77.7647 32.166 77.3718 32.1366 76.9683C32.1071 76.5647 32.1631 76.1594 32.3009 75.7789C32.6114 75.0147 33.1587 74.3701 33.8623 73.9395" stroke="#000229" stroke-width="0.86" stroke-linecap="round" stroke-linejoin="round"/>
<path d="M12.0551 88.5591C11.9374 86.8693 14.2796 87.2543 15.0817 87.6287" stroke="#000229" stroke-width="0.86" stroke-miterlimit="10"/>
<path d="M13.3084 87.1683C13.18 86.0988 14.3778 86.163 14.966 86.2592" stroke="#000229" stroke-width="0.86" stroke-miterlimit="10"/>
<path d="M47.2422 70.0995C48.2864 70.0737 49.3287 69.9952 50.365 69.8643" stroke="#000229" stroke-width="0.86" stroke-miterlimit="10"/>
<path d="M47.4772 174.416C46.5896 174.641 41.4454 177.443 36.7825 177.988C34.5367 178.255 32.8897 179.421 32.9325 182.715" stroke="#000229" stroke-width="0.86" stroke-linejoin="round"/>
<path d="M19.1775 6.26321V3.30078H5.54176V6.26321C5.57555 7.28452 5.88584 8.27752 6.43956 9.13635C6.99329 9.99519 7.76969 10.6877 8.686 11.14C8.9391 11.2854 9.15491 11.4876 9.3164 11.7308C9.47788 11.9739 9.58059 12.2513 9.61643 12.541C9.59338 12.8317 9.49691 13.1117 9.33603 13.3549C9.17516 13.598 8.95517 13.7964 8.69669 13.9313C7.77365 14.3759 6.98809 15.062 6.42325 15.9168C5.85841 16.7716 5.53534 17.7632 5.48828 18.7867V21.8347H19.1775V18.8402C19.1285 17.8186 18.8046 16.8291 18.2399 15.9764C17.6751 15.1236 16.8906 14.4392 15.9691 13.9955C15.7065 13.8618 15.4829 13.6626 15.3199 13.4172C15.1569 13.1717 15.06 12.8883 15.0386 12.5945C15.0386 11.7924 15.9584 11.2042 15.9584 11.2042C16.8966 10.7552 17.6933 10.0568 18.2611 9.18528C18.8289 8.31379 19.1459 7.30287 19.1775 6.26321Z" stroke="#000229" stroke-width="0.86" stroke-miterlimit="10"/>
<path d="M18.997 21.791H5.75697C5.16632 21.791 4.6875 22.2698 4.6875 22.8605V22.8712C4.6875 23.4618 5.16632 23.9407 5.75697 23.9407H18.997C19.5877 23.9407 20.0665 23.4618 20.0665 22.8712V22.8605C20.0665 22.2698 19.5877 21.791 18.997 21.791Z" stroke="#000229" stroke-width="0.86" stroke-miterlimit="10"/>
<path d="M18.997 1.15137H5.75697C5.16632 1.15137 4.6875 1.63018 4.6875 2.22084V2.23153C4.6875 2.82218 5.16632 3.301 5.75697 3.301H18.997C19.5877 3.301 20.0665 2.82218 20.0665 2.23153V2.22084C20.0665 1.63018 19.5877 1.15137 18.997 1.15137Z" stroke="#000229" stroke-width="0.86" stroke-miterlimit="10"/>
<path d="M13.5746 14.2197V12.4657C13.5746 11.5995 14.6441 10.7118 15.3499 10.2412C16.3738 9.5812 17.1489 8.59916 17.553 7.44993C17.6247 7.24359 17.6459 7.02308 17.615 6.80685C17.5841 6.59061 17.5018 6.38491 17.3751 6.20695C17.2485 6.02899 17.0811 5.88392 16.8869 5.78387C16.6927 5.68382 16.4774 5.63169 16.2589 5.63184H8.48391C8.26547 5.63169 8.05017 5.68382 7.85599 5.78387C7.66181 5.88392 7.49439 6.02899 7.36772 6.20695C7.24105 6.38491 7.15881 6.59061 7.12787 6.80685C7.09692 7.02308 7.11818 7.24359 7.18985 7.44993C7.59396 8.59916 8.36906 9.5812 9.39296 10.2412C10.1202 10.7118 11.3501 11.5246 11.3501 12.3802V14.2411C11.3501 14.9148 10.2806 15.5458 9.64963 15.888C8.87703 16.3364 8.22508 16.9659 7.74997 17.7224C7.27487 18.4788 6.99088 19.3394 6.92249 20.2301C6.91957 20.281 6.9271 20.332 6.9446 20.3799C6.9621 20.4278 6.98921 20.4717 7.02426 20.5087C7.05931 20.5458 7.10157 20.5753 7.14844 20.5954C7.1953 20.6155 7.24579 20.6259 7.2968 20.6258H17.5316C17.5784 20.6259 17.6247 20.6164 17.6677 20.5979C17.7107 20.5793 17.7494 20.5522 17.7815 20.5181C17.8136 20.484 17.8383 20.4437 17.8542 20.3997C17.8701 20.3557 17.8768 20.3089 17.8738 20.2622C17.8133 19.3652 17.5328 18.497 17.0572 17.7341C16.5816 16.9713 15.9254 16.3373 15.1467 15.888C14.5478 15.5565 13.5746 14.8934 13.5746 14.2197Z" fill="#000229"/>
</svg>
