<svg width="64" height="141" viewBox="0 0 64 141" fill="none" xmlns="http://www.w3.org/2000/svg">
<path d="M39.7932 44.6907C41.2769 54.6263 43.2829 69.3716 43.374 74.1813H42.9596L11.4115 74.2396H10.8312C11.0053 71.0609 11.2623 70.7696 11.4778 66.0514L18.8799 66.4259C14.926 65.91 9.37236 63.2555 5.31901 59.8438C2.35982 57.3474 0.188087 54.4682 0.0140166 51.7222C-0.135186 49.4422 0.934103 47.6531 1.9205 45.6144C3.15557 43.0431 10.3256 33.6733 12.0746 32.2254C14.0971 30.5612 20.8444 29.5626 20.8444 29.5626C21.1179 28.8803 21.2589 28.2645 21.922 27.8567C21.964 27.8328 22.0085 27.8132 22.0546 27.7985C24.8077 27.1833 27.6575 27.1436 30.4265 27.682C30.5492 27.7146 30.6665 27.7651 30.7747 27.8318C31.0939 28.0065 31.3675 28.2542 31.5735 28.5549C31.7794 28.8557 31.9118 29.2009 31.96 29.5626C31.96 29.5626 36.0465 29.4045 38.5084 30.7526C42.0261 32.8562 45.3324 35.2975 48.3806 38.042C48.4941 34.709 48.3722 31.3721 48.0159 28.0565L52.1604 27.7486H52.2765C53.7768 32.8745 57.0841 45.0652 55.1362 47.004C53.669 48.5102 41.0448 45.1234 39.7932 44.6907ZM15.2742 44.3495C14.8763 44.7656 14.4453 45.1817 14.0971 45.6144C12.3484 47.5022 10.7153 49.4947 9.20657 51.5807C7.63994 54.2186 18.9213 61.1336 21.6401 61.791C21.6401 61.791 21.6401 61.9823 21.6401 62.2902C21.5821 63.4469 21.3666 66.2345 20.6206 66.4509C21.1179 67.1083 24.5496 69.5131 25.8593 69.7295C27.774 70.0623 30.1281 68.1651 31.5538 67.0001C32.3758 67.0432 33.1812 66.7573 33.7934 66.205C34.4057 65.6528 34.7748 64.8794 34.8197 64.0543L35.5906 48.4769C35.629 47.651 35.3401 46.8434 34.7872 46.2306C34.2343 45.6179 33.4622 45.2497 32.6397 45.2066L15.2742 44.3495Z" fill="#CAD7E4"/>
<path d="M41.6917 135.179C43.4352 135.39 45.0791 136.421 44.6723 138.774V138.756H31.2472C31.6208 136.439 29.9852 135.417 28.25 135.232C27.3752 135.112 26.5114 134.915 25.668 134.641V134.527C25.668 134.368 25.668 133.54 25.668 132.174H33.0738C33.7463 132.288 38.0718 134.72 41.6917 135.179Z" fill="#CAD7E4"/>
<path d="M28.5058 135.201C30.229 135.412 31.8533 136.433 31.4823 138.721V138.774H12.5182C12.5182 138.158 12.5182 135.782 12.4688 132.174H20.0296C20.5326 132.288 23.1876 133.749 26.0157 134.62C26.8294 134.886 27.6622 135.081 28.5058 135.201Z" fill="#CAD7E4"/>
<path d="M33.0009 13.0045C32.9951 13.0992 32.9572 13.1885 32.8942 13.2559C32.8311 13.3233 32.7472 13.3641 32.6579 13.371C32.5686 13.3778 32.4799 13.3502 32.4084 13.2931C32.3369 13.2361 32.2872 13.1535 32.2686 13.0606C32.2613 12.9579 32.2923 12.8562 32.355 12.7774C32.4177 12.6987 32.5071 12.6493 32.6039 12.6397C32.6526 12.6359 32.7015 12.6423 32.7479 12.6586C32.7942 12.6749 32.837 12.7007 32.8739 12.7346C32.9108 12.7685 32.941 12.8098 32.9628 12.8561C32.9846 12.9025 32.9976 12.9529 33.0009 13.0045Z" fill="#000229"/>
<path d="M27.8657 12.9748C27.8706 13.0725 27.8376 13.1684 27.7736 13.2423C27.7096 13.3163 27.6195 13.3626 27.5222 13.3715C27.4255 13.3764 27.3307 13.3431 27.2583 13.2788C27.1858 13.2145 27.1414 13.1244 27.1346 13.0277C27.1298 12.9799 27.1347 12.9317 27.1491 12.886C27.1636 12.8402 27.1872 12.7979 27.2185 12.7615C27.2498 12.7252 27.2882 12.6957 27.3314 12.6747C27.3745 12.6538 27.4214 12.6419 27.4693 12.6397C27.5661 12.6324 27.6618 12.6634 27.736 12.7261C27.8101 12.7887 27.8567 12.8781 27.8657 12.9748Z" fill="#000229"/>
<path fill-rule="evenodd" clip-rule="evenodd" d="M22.8275 27.7822C22.8108 27.7883 22.7946 27.7956 22.7789 27.8042C22.3248 28.0846 22.1817 28.4582 21.9678 29.0167C21.9274 29.122 21.8845 29.2339 21.8366 29.353C21.7885 29.4724 21.6807 29.5573 21.5534 29.576L21.549 29.5767L21.5348 29.5788C21.5221 29.5807 21.5031 29.5836 21.4782 29.5874C21.4282 29.5951 21.3544 29.6066 21.2596 29.6219C21.07 29.6524 20.7963 29.6979 20.4614 29.7576C19.7913 29.8769 18.8778 30.0528 17.9027 30.2788C16.9266 30.5051 15.8947 30.7804 14.9859 31.0977C14.0686 31.4179 13.313 31.7689 12.8604 32.1337C12.4458 32.4759 11.6788 33.3159 10.7235 34.4547C9.77528 35.585 8.66222 36.9842 7.56443 38.4202C6.46665 39.8562 5.38615 41.3264 4.50275 42.5983C3.61448 43.8773 2.93952 44.936 2.63977 45.5573L2.63932 45.5583C2.51279 45.8187 2.38627 46.073 2.26197 46.3228C1.38121 48.0929 0.611736 49.6394 0.737708 51.5562L0.737756 51.557C0.904661 54.1788 3.00812 57.0071 5.99988 59.5202C10.0796 62.9394 15.6597 65.5868 19.5922 66.098C20.1163 66.1639 20.6445 66.1911 21.1725 66.1794C21.1752 66.1794 21.1779 66.1793 21.1805 66.1793H21.1941C21.2069 66.1689 21.225 66.1514 21.2478 66.1224C21.2984 66.0579 21.3543 65.9584 21.4113 65.819C21.5251 65.5403 21.62 65.1596 21.6968 64.7297C21.8488 63.8783 21.9175 62.9045 21.947 62.3225V62.1008C21.186 61.8621 20.0434 61.324 18.7711 60.6242C17.3209 59.8265 15.6663 58.7985 14.1476 57.7065C12.6329 56.6173 11.2358 55.452 10.3142 54.3781C9.8545 53.8426 9.49582 53.3101 9.30803 52.8048C9.11879 52.2955 9.08945 51.7706 9.36395 51.3104C9.36953 51.301 9.37554 51.2919 9.38195 51.2831C10.9211 49.1639 12.5871 47.1397 14.3708 45.2216C14.6462 44.8821 14.9731 44.5487 15.2831 44.2325C15.3836 44.1301 15.4822 44.0295 15.5768 43.9311C16.8113 42.594 18.1263 41.3335 19.5144 40.1565C19.6669 40.0272 19.8955 40.0459 20.0248 40.1984C20.1542 40.3509 20.1355 40.5794 19.9829 40.7087C18.6164 41.8674 17.3219 43.1084 16.1067 44.4248L16.1018 44.43C15.9942 44.542 15.8867 44.6516 15.7807 44.7597C15.4742 45.0725 15.1794 45.3731 14.9262 45.6865C14.9209 45.693 14.9154 45.6994 14.9097 45.7056C13.1469 47.6006 11.5002 49.6003 9.97873 51.6939C9.86193 51.8995 9.84621 52.1736 9.98705 52.5526C10.1323 52.9434 10.4296 53.4006 10.8639 53.9067C11.7302 54.916 13.0732 56.042 14.5706 57.1187C16.0641 58.1926 17.6939 59.2052 19.1203 59.9898C20.559 60.7812 21.7555 61.3208 22.394 61.4745C22.5567 61.5137 22.6713 61.6592 22.6713 61.8265V62.3316C22.6713 62.3377 22.6712 62.3438 22.6709 62.3498C22.6412 62.9392 22.5708 63.9552 22.4099 64.8569C22.3298 65.3057 22.2241 65.7444 22.0819 66.0927C22.0107 66.2668 21.9248 66.4327 21.818 66.5689C21.7121 66.7041 21.5671 66.8333 21.3737 66.8892C21.341 66.8986 21.3072 66.9034 21.2732 66.9034H21.1843C20.622 66.9156 20.0594 66.8865 19.5013 66.8164L19.4998 66.8162C15.3972 66.2831 9.6915 63.5591 5.53417 60.0748L5.53387 60.0745C2.5119 57.5361 0.201906 54.5383 0.0148842 51.6033C-0.124689 49.4778 0.74106 47.7446 1.6177 45.9896C1.7417 45.7413 1.86593 45.4926 1.98755 45.2423C2.31541 44.5629 3.02165 43.4612 3.90773 42.1854C4.79891 40.9023 5.88621 39.423 6.98888 37.9806C8.09153 36.5382 9.21155 35.1301 10.1685 33.9894C11.1171 32.8587 11.9266 31.9649 12.401 31.5739L12.4039 31.5715C12.958 31.1242 13.8136 30.74 14.7471 30.4141C15.6899 30.0849 16.7495 29.8029 17.7391 29.5735C18.7297 29.3438 19.656 29.1656 20.3343 29.0447C20.6737 28.9843 20.9513 28.9381 21.1445 28.907C21.1785 28.9016 21.2098 28.8966 21.2384 28.892C21.2499 28.8616 21.2613 28.831 21.2728 28.8002C21.4846 28.234 21.7205 27.6031 22.4064 27.1832C22.4098 27.1811 22.4132 27.1791 22.4167 27.1771C22.4813 27.1404 22.5496 27.1105 22.6204 27.088C22.6307 27.0847 22.6411 27.0819 22.6516 27.0796C25.4977 26.4463 28.4436 26.4055 31.3062 26.9596C31.3142 26.9612 31.3221 26.963 31.33 26.9651C31.4857 27.0063 31.6347 27.0696 31.7724 27.1531C32.1433 27.3569 32.4614 27.6446 32.7012 27.9932C32.881 28.2546 33.013 28.5449 33.092 28.8504C33.2 28.8497 33.3336 28.8499 33.4888 28.8522C33.9246 28.8586 34.5319 28.8816 35.2192 28.948C36.5826 29.0797 38.3061 29.386 39.6229 30.104C39.6269 30.1062 39.6309 30.1085 39.6348 30.1108C43.2286 32.2507 46.6062 34.734 49.7204 37.5256C49.8293 37.6199 49.9391 37.7137 50.0494 37.808C50.4401 38.1419 50.8381 38.482 51.2279 38.8716C51.3694 39.013 51.3694 39.2422 51.2279 39.3836C51.0865 39.525 50.8572 39.525 50.7157 39.3836C50.3479 39.0159 49.9781 38.6999 49.5913 38.3692C49.4771 38.2716 49.3614 38.1728 49.2438 38.0709L49.2392 38.0668C46.1609 35.3071 42.8223 32.8522 39.2701 30.7365C38.086 30.0927 36.4855 29.7978 35.1496 29.6687C34.4861 29.6046 33.899 29.5824 33.4781 29.5762C33.2677 29.5731 33.0993 29.574 32.9841 29.5757C32.9264 29.5765 32.8821 29.5775 32.8525 29.5783C32.8378 29.5787 32.8267 29.5791 32.8194 29.5793L32.8115 29.5796L32.8097 29.5796L32.8094 29.5796C32.8094 29.5796 32.8095 29.5796 32.7955 29.2179L32.6335 29.5417C32.5262 29.488 32.4524 29.3847 32.4365 29.2658C32.3951 28.9563 32.2813 28.6608 32.1043 28.4034C31.9273 28.146 31.692 27.934 31.4177 27.7845C31.4122 27.7815 31.4068 27.7784 31.4015 27.7751C31.3249 27.7281 31.2421 27.692 31.1555 27.668C28.4009 27.1365 25.5665 27.1754 22.8275 27.7822Z" fill="#000229"/>
<path fill-rule="evenodd" clip-rule="evenodd" d="M21.1852 66.1738C21.1933 66.1893 21.2031 66.2039 21.2145 66.2175L21.2151 66.2183L21.2151 66.2183C21.3084 66.3313 21.5835 66.5611 22.0067 66.8633C22.4168 67.1561 22.9336 67.4944 23.4771 67.8207C24.021 68.1472 24.5865 68.4588 25.0945 68.6998C25.6127 68.9458 26.037 69.1017 26.3095 69.1429L26.3125 69.1433L26.3125 69.1434C27.1559 69.2776 28.1461 68.964 29.1507 68.435C30.144 67.9121 31.0829 67.2163 31.8093 66.6726L32.2667 67.1892C31.5442 67.73 30.5624 68.4594 29.5107 69.0131C28.4709 69.5606 27.2924 69.9749 26.1903 69.8C25.7975 69.7402 25.2873 69.541 24.7622 69.2917C24.2261 69.0373 23.6386 68.7132 23.081 68.3785C22.5231 68.0435 21.99 67.6948 21.5624 67.3895C21.1482 67.0937 20.7979 66.8144 20.6384 66.6215C20.5977 66.5725 20.5625 66.5198 20.5332 66.4642L21.1852 66.1738Z" fill="#000229"/>
<path fill-rule="evenodd" clip-rule="evenodd" d="M39.0487 37.5782C39.2414 37.5454 39.4235 37.6799 39.4553 37.8787C39.7271 39.578 40.0647 41.8451 40.4431 44.4323L40.4431 44.4327C41.9138 54.5497 43.9093 69.61 44.0004 74.5426C44.0022 74.6406 43.9657 74.7351 43.8992 74.805C43.8327 74.875 43.7417 74.9143 43.6467 74.9143H43.2355L11.9301 74.9737H11.3537C11.2565 74.9737 11.1637 74.9325 11.0969 74.8597C11.0301 74.787 10.9952 74.6891 11.0005 74.589C11.0758 73.1687 11.167 72.3077 11.2627 71.4035C11.2775 71.2637 11.2924 71.1228 11.3074 70.9787C11.4187 69.9072 11.5354 68.6422 11.642 66.2452C11.6509 66.044 11.8163 65.8883 12.0115 65.8976C12.2066 65.9068 12.3575 66.0774 12.3486 66.2787C12.2413 68.6914 12.1235 69.9713 12.0107 71.0565C11.9956 71.2017 11.9807 71.3433 11.9658 71.4834C11.8794 72.2999 11.7981 73.0681 11.7284 74.2442H11.9295L43.2348 74.1848L43.2355 74.1848L43.2833 74.1848C43.1073 68.9593 41.1819 54.435 39.7436 44.5408C39.3652 41.9537 39.0283 39.6912 38.7573 37.9974C38.7255 37.7987 38.856 37.611 39.0487 37.5782Z" fill="#000229"/>
<path fill-rule="evenodd" clip-rule="evenodd" d="M27.1187 60.3522C27.8141 60.2915 28.5136 60.2915 29.2089 60.3522L29.2163 60.3528L29.2237 60.3538C29.4884 60.3872 29.7349 60.5025 29.9267 60.6826C30.1185 60.8627 30.2454 61.098 30.2886 61.3536C30.3318 61.6092 30.289 61.8715 30.1665 62.1016C30.0464 62.3273 29.8559 62.5103 29.6223 62.6246C29.3748 62.7641 28.9413 62.9323 28.5285 63.0871C28.4148 63.1298 28.3012 63.1719 28.1902 63.213C27.8726 63.3308 27.5769 63.4405 27.3619 63.5312L27.3605 63.5318C27.2548 63.5759 27.1491 63.6771 27.0617 63.8592C26.9747 64.0406 26.9203 64.2746 26.904 64.5258C26.8877 64.7759 26.9103 65.0244 26.9624 65.228C27.0174 65.4431 27.0921 65.5582 27.1385 65.5982C27.2838 65.7217 27.5506 65.8396 27.943 65.9351C28.3262 66.0284 28.7882 66.0907 29.2846 66.1293C30.2765 66.2066 31.3657 66.1862 32.1529 66.1486L32.1621 66.1482H32.2668V66.8729H32.1804C31.3792 66.9109 30.2587 66.9322 29.2248 66.8517C28.7063 66.8114 28.1996 66.7447 27.7614 66.638C27.3328 66.5338 26.9258 66.3812 26.6454 66.1425L26.6445 66.1417C26.4304 65.9582 26.3067 65.673 26.2376 65.4025C26.1653 65.12 26.1381 64.7966 26.1587 64.4801C26.1792 64.1646 26.2486 63.8371 26.3846 63.5534C26.5202 63.2708 26.7367 63.0035 27.0648 62.8663C27.2966 62.7685 27.6166 62.6499 27.9393 62.5302C28.0468 62.4904 28.1545 62.4505 28.2594 62.4111C28.6992 62.2462 29.0742 62.0974 29.2545 61.9939L29.2673 61.9865L29.2806 61.9802C29.3762 61.9348 29.4542 61.8608 29.503 61.7691C29.5518 61.6773 29.5689 61.5728 29.5517 61.4709C29.5345 61.369 29.4839 61.2752 29.4074 61.2035C29.3325 61.1331 29.2367 61.0876 29.1336 61.0732C28.4875 61.0173 27.8375 61.0174 27.1913 61.0734C26.9078 61.1072 26.5684 61.2019 26.1715 61.3318C26.0138 61.3834 25.8392 61.4434 25.6574 61.5059C25.4065 61.5921 25.1419 61.683 24.8889 61.7632C23.9937 62.0471 22.9664 62.2948 22 62.0864L22.162 61.379C22.915 61.5413 23.772 61.355 24.6569 61.0744C24.9135 60.993 25.1507 60.9113 25.386 60.8303C25.5667 60.7681 25.7463 60.7062 25.9327 60.6452C26.3376 60.5126 26.7411 60.396 27.1077 60.3533L27.1132 60.3527L27.1187 60.3522Z" fill="#000229"/>
<path fill-rule="evenodd" clip-rule="evenodd" d="M25.2525 3.48752C24.4754 4.5427 23.9754 5.7775 23.7986 7.07806L23.7974 7.08723L23.7956 7.09633C23.666 7.78167 23.5708 8.46061 23.4847 9.07479C23.4683 9.19179 23.4523 9.30645 23.4363 9.41834C23.4087 9.61258 23.2296 9.74754 23.0362 9.71979C22.8428 9.69204 22.7084 9.51209 22.736 9.31786C22.7516 9.20852 22.7674 9.09563 22.7836 8.97974C22.8693 8.36836 22.9667 7.67333 23.0989 6.97273C23.2937 5.55149 23.8424 4.20252 24.6942 3.05078L24.7038 3.03782L24.7145 3.02578C25.7205 1.89628 26.8121 1.50092 27.9098 1.67993C28.9759 1.85377 29.9773 2.55911 30.8584 3.46941L30.8592 3.4703C31.3657 3.99723 31.8288 4.56446 32.2441 5.16643C33.4952 6.96552 34.4578 8.95034 35.0971 11.0487L35.0996 11.057L35.1018 11.0653C35.3062 11.875 35.1698 12.8894 34.8718 13.9218C34.5705 14.9652 34.0897 16.0756 33.5534 17.102C33.0167 18.1291 32.4192 19.0825 31.8789 19.8122C31.609 20.1767 31.3496 20.4905 31.1157 20.7313C30.8925 20.9612 30.6587 21.1607 30.4392 21.2483L30.4385 21.2486C30.2793 21.3117 30.1144 21.3594 29.9462 21.3912L29.945 21.3914C28.9775 21.5706 27.9238 21.2239 27.0426 20.671C26.1579 20.1159 25.386 19.3157 24.9891 18.4958C24.9037 18.3193 24.9769 18.1067 25.1525 18.0209C25.3282 17.9351 25.5399 18.0086 25.6253 18.1851C25.9523 18.8605 26.6199 19.5681 27.4174 20.0684C28.2181 20.5708 29.0889 20.8271 29.8157 20.6929C29.9396 20.6695 30.061 20.6343 30.1783 20.5878C30.2488 20.5596 30.3941 20.4568 30.6093 20.2352C30.8142 20.0243 31.053 19.737 31.3113 19.3882C31.8272 18.6914 32.4055 17.7699 32.9269 16.7719C33.4487 15.7732 33.9082 14.7081 34.1923 13.724C34.4783 12.7332 34.5727 11.8711 34.418 11.248C33.8003 9.22363 32.871 7.30873 31.6638 5.57281L31.6631 5.57171C31.2695 5.00119 30.8306 4.4636 30.3507 3.9642C29.5126 3.09846 28.6428 2.51927 27.7965 2.38126C26.9849 2.24892 26.1266 2.51181 25.2525 3.48752Z" fill="#000229"/>
<path fill-rule="evenodd" clip-rule="evenodd" d="M22.5853 23.289C22.6017 24.601 22.6185 25.9324 22.6185 27.3056H22.0649C22.0649 25.9563 22.0483 24.6383 22.032 23.3333C21.9905 20.0295 21.9501 16.8087 22.1817 13.3721L22.7333 13.4306C22.5042 16.8304 22.544 19.9988 22.5853 23.289Z" fill="#000229"/>
<path fill-rule="evenodd" clip-rule="evenodd" d="M30.088 21.0838C30.0824 21.0259 30.0746 20.9685 30.0645 20.9119L30.5614 20.7051C30.5763 20.7883 30.588 20.8727 30.5965 20.9579C30.6981 21.6886 30.7765 22.4853 30.8546 23.279C30.8944 23.6829 30.934 24.086 30.9766 24.4792C31.1057 25.67 31.2634 26.7944 31.5311 27.7229L31.0595 28.0385C30.7641 27.0142 30.5984 25.807 30.4684 24.607C30.4229 24.1874 30.382 23.7711 30.3417 23.3614C30.2648 22.5793 30.1902 21.821 30.0909 21.1091L30.0892 21.0965L30.088 21.0838Z" fill="#000229"/>
<path fill-rule="evenodd" clip-rule="evenodd" d="M21.5182 9.05391C22.0869 8.86142 22.7027 9.00893 23.2995 9.51786L23.3037 9.52144L23.3078 9.52514C23.6231 9.81013 23.9016 10.1332 24.1369 10.487C24.254 10.6631 24.2058 10.9005 24.0293 11.0173C23.8528 11.1341 23.6148 11.0861 23.4978 10.91C23.2988 10.6108 23.0634 10.3374 22.797 10.096C22.3525 9.71855 22.0142 9.69408 21.7646 9.77856C21.4832 9.87379 21.2039 10.1438 20.9777 10.5563C20.7556 10.9614 20.6134 11.4542 20.5769 11.9052C20.5404 12.3582 20.6154 12.6946 20.7391 12.8703C20.9548 13.087 21.2285 13.2374 21.5277 13.3034C21.8347 13.371 22.155 13.3467 22.4482 13.2335L22.4697 13.2252L22.4921 13.2195C22.6309 13.1843 22.7644 13.131 22.8892 13.061C23.0739 12.9575 23.3077 13.0229 23.4114 13.2071C23.5152 13.3913 23.4496 13.6246 23.265 13.7281C23.0881 13.8272 22.8995 13.9036 22.7034 13.9553C22.2752 14.1159 21.8094 14.1491 21.3623 14.0506C20.9078 13.9504 20.493 13.7186 20.1701 13.3842L20.1548 13.3684L20.1415 13.3509C19.8397 12.9567 19.7691 12.3812 19.8125 11.8438C19.8571 11.2902 20.0287 10.6925 20.3049 10.189C20.577 9.69271 20.9805 9.2359 21.5182 9.05391Z" fill="#000229"/>
<path fill-rule="evenodd" clip-rule="evenodd" d="M36.8003 1.64224C37.2819 1.66457 37.7762 1.80162 38.0026 2.23595C38.1682 2.55385 38.1702 2.87876 38.0394 3.17897C37.916 3.46202 37.6844 3.70287 37.4182 3.90676C36.8858 4.31468 36.1019 4.6594 35.3108 4.93776C33.7232 5.4964 31.9551 5.83831 31.6882 5.8664L31.6117 5.1646C31.8127 5.14345 33.5248 4.81647 35.0685 4.2733C35.843 4.00075 36.5376 3.68635 36.9763 3.35023C37.1957 3.18211 37.3228 3.02971 37.3788 2.90122C37.4273 2.78992 37.4292 2.68489 37.363 2.55761C37.322 2.47899 37.1865 2.36675 36.7664 2.34727C36.3659 2.3287 35.8178 2.40264 35.1518 2.5585C33.8258 2.86878 32.1302 3.47953 30.4172 4.17544C27.8182 5.23585 25.2254 6.47152 23.8996 7.10338C23.571 7.25999 23.3202 7.37951 23.1665 7.45007L23.0538 7.50541L22.7324 6.87411L22.8537 6.81453L22.8581 6.81251C23.0035 6.74589 23.2474 6.62964 23.5703 6.47571C24.8869 5.84814 27.5175 4.59424 30.1418 3.52354L30.1423 3.52333C31.8634 2.82407 33.6019 2.1956 34.9852 1.8719C35.6739 1.71075 36.2992 1.61901 36.8003 1.64224Z" fill="#000229"/>
<path fill-rule="evenodd" clip-rule="evenodd" d="M27.021 10.4897C27.4572 10.3995 27.9055 10.4311 28.3291 10.5819C28.5322 10.6543 28.6465 10.9047 28.5844 11.1412C28.5223 11.3778 28.3074 11.5109 28.1043 11.4386C27.797 11.3292 27.4719 11.3063 27.1556 11.3718C26.8393 11.4372 26.5408 11.5892 26.2848 11.8152C26.1155 11.9646 25.8743 11.9259 25.746 11.7287C25.6178 11.5315 25.651 11.2506 25.8203 11.1012C26.1734 10.7896 26.5849 10.58 27.021 10.4897Z" fill="#000229"/>
<path fill-rule="evenodd" clip-rule="evenodd" d="M22.6309 11.2422C22.7765 11.3291 22.7654 11.4638 22.606 11.5432C22.1474 11.7716 21.5515 11.9007 20.9305 11.9062C20.7146 11.9081 20.5368 11.8143 20.5333 11.6966C20.5297 11.5789 20.7019 11.482 20.9178 11.4801C21.348 11.4763 21.7609 11.3868 22.0786 11.2286C22.238 11.1492 22.4853 11.1553 22.6309 11.2422Z" fill="#000229"/>
<path fill-rule="evenodd" clip-rule="evenodd" d="M31.9509 10.4685C32.4726 10.4023 33.0794 10.4471 33.4894 10.6248C33.698 10.7152 33.7891 10.9474 33.6928 11.1433C33.5965 11.3393 33.3494 11.4248 33.1408 11.3343C32.9219 11.2395 32.4887 11.1888 32.0624 11.243C31.8558 11.2692 31.6782 11.317 31.5488 11.3783C31.4164 11.441 31.3714 11.4993 31.3581 11.5293L31.3571 11.5315L31.3561 11.5337C31.2854 11.6881 31.2469 11.9214 31.2504 12.2335C31.2538 12.5397 31.2971 12.8904 31.3636 13.2601C31.459 13.7909 31.5955 14.3281 31.7169 14.8062C31.7663 15.0007 31.8132 15.1854 31.8539 15.3558L31.8544 15.3581L31.8549 15.3603C31.9385 15.7311 32.078 16.3798 31.9753 16.8924C31.9221 17.1577 31.7897 17.4602 31.4732 17.6374C31.1586 17.8136 30.7712 17.8046 30.3595 17.687C30.1397 17.6242 30.0157 17.4059 30.0826 17.1995C30.1494 16.993 30.3818 16.8765 30.6016 16.9393C30.9058 17.0262 31.019 16.9819 31.0472 16.9662C31.0736 16.9514 31.1262 16.9051 31.1577 16.7479C31.2241 16.4161 31.1319 15.9256 31.0415 15.5244C31.0054 15.3733 30.9618 15.2016 30.9147 15.0158C30.7913 14.5301 30.6436 13.9486 30.5432 13.3902C30.473 13 30.4226 12.6049 30.4185 12.2418C30.4144 11.8855 30.4543 11.5267 30.5908 11.2271C30.7085 10.9631 30.9422 10.7904 31.1742 10.6805C31.41 10.5688 31.6835 10.5025 31.9509 10.4685Z" fill="#000229"/>
<path fill-rule="evenodd" clip-rule="evenodd" d="M31.387 18.5425C31.5455 18.6056 31.5824 18.7288 31.4696 18.8175C31.3152 18.9388 31.1147 19.0393 30.8824 19.1119C30.6501 19.1844 30.3919 19.2272 30.1265 19.237C29.8611 19.2468 29.5951 19.2235 29.3477 19.1687C29.1004 19.1139 28.8779 19.0291 28.6964 18.9202C28.5636 18.8406 28.5712 18.7158 28.7135 18.6415C28.8557 18.5672 29.0786 18.5714 29.2114 18.6511C29.3217 18.7172 29.4568 18.7687 29.607 18.802C29.7572 18.8352 29.9188 18.8494 30.0799 18.8434C30.2411 18.8375 30.3979 18.8115 30.539 18.7675C30.6801 18.7234 30.8019 18.6623 30.8956 18.5887C31.0085 18.5 31.2285 18.4793 31.387 18.5425Z" fill="#000229"/>
<path fill-rule="evenodd" clip-rule="evenodd" d="M25.1761 126.215C25.1038 122.442 25.0118 117.638 24.9336 112.381L26.0498 112.374C26.1277 117.614 26.2201 122.438 26.2925 126.222C26.3404 128.726 26.3797 130.775 26.4002 132.188L26.4003 132.191L26.4003 132.198V134.374H25.284V132.193C25.2632 130.765 25.224 128.716 25.1761 126.215Z" fill="#000229"/>
<path fill-rule="evenodd" clip-rule="evenodd" d="M17.2295 76.4396C17.4274 76.4339 17.5923 76.5963 17.5978 76.8025C17.6505 78.7746 17.0187 80.3683 15.959 81.5825C14.9051 82.7901 13.4429 83.6062 11.8486 84.0671L11.8479 84.0673C10.9756 84.3177 10.079 84.4648 9.17497 84.5059C8.97713 84.5148 8.80976 84.3551 8.80113 84.1491C8.7925 83.9431 8.94588 83.7688 9.14372 83.7598C9.99374 83.7212 10.8369 83.5829 11.6571 83.3475C13.1563 82.914 14.4873 82.1584 15.4283 81.0803C16.3636 80.0086 16.9285 78.6022 16.881 76.8232C16.8755 76.6171 17.0315 76.4453 17.2295 76.4396Z" fill="#000229"/>
<path fill-rule="evenodd" clip-rule="evenodd" d="M12.1791 74.2404C12.3728 74.2455 12.5257 74.41 12.5207 74.6079C12.4474 77.5032 12.4474 80.6242 12.4474 83.8762L12.4474 83.8777C12.3803 99.7889 12.5785 118.751 12.6941 129.822C12.7052 130.876 12.7154 131.858 12.7246 132.76C12.7687 135.835 12.7731 137.966 12.7736 138.789L31.1803 138.699C31.374 138.698 31.5317 138.858 31.5327 139.056C31.5336 139.254 31.3773 139.415 31.1836 139.416L12.4246 139.508C12.3313 139.508 12.2416 139.471 12.1755 139.403C12.1094 139.336 12.0722 139.245 12.0722 139.149V139.016C12.0722 138.433 12.0722 136.184 12.0233 132.77L12.0233 132.768C12.014 131.866 12.0038 130.884 11.9928 129.829C11.8771 118.759 11.6789 99.7922 11.7459 83.8754V83.8737C11.7459 80.6248 11.7459 77.4949 11.8195 74.5894C11.8245 74.3915 11.9855 74.2352 12.1791 74.2404Z" fill="#000229"/>
<path fill-rule="evenodd" clip-rule="evenodd" d="M30.5717 80.8412C30.7818 80.8497 30.9448 81.0161 30.9356 81.2127C30.4484 91.6778 28.7761 102.065 25.9469 112.2C24.1013 119.165 21.9631 125.814 19.8991 131.968C20.04 132.02 20.2108 132.087 20.4048 132.165C20.5516 132.224 20.7114 132.289 20.8839 132.359C21.1784 132.479 21.5098 132.614 21.8761 132.759C23.0314 133.217 24.4874 133.76 25.9846 134.164L25.9903 134.166C26.8687 134.417 27.7683 134.598 28.6794 134.708C29.6497 134.813 30.6362 135.12 31.334 135.724C32.0466 136.341 32.4192 137.234 32.2112 138.408C32.2168 138.574 32.0968 138.726 31.917 138.765C31.7122 138.81 31.5074 138.691 31.4596 138.499C31.4441 138.437 31.443 138.373 31.4563 138.31C31.6327 137.347 31.3325 136.694 30.8169 136.248C30.2799 135.783 29.4697 135.51 28.5898 135.416L28.5848 135.415C27.6313 135.301 26.6898 135.111 25.7704 134.848C24.2308 134.432 22.7433 133.877 21.5789 133.415C21.2111 133.269 20.8708 133.131 20.5731 133.01C20.4018 132.94 20.2446 132.876 20.1044 132.82C19.9097 132.742 19.7469 132.678 19.6175 132.631C19.4814 132.581 19.4037 132.558 19.3698 132.551C19.194 132.516 19.0684 132.371 19.0684 132.202V132.119C19.0684 132.083 19.0743 132.047 19.0859 132.013C21.1752 125.791 23.3423 119.069 25.2082 112.026L25.2094 112.022C28.0253 101.935 29.6897 91.5972 30.1747 81.1817C30.1838 80.9851 30.3616 80.8326 30.5717 80.8412Z" fill="#000229"/>
<path fill-rule="evenodd" clip-rule="evenodd" d="M43.7489 74.2403C43.9504 74.2448 44.11 74.4094 44.1055 74.6079C43.5821 97.5589 38.5171 117.301 33.6402 132.624C33.6748 132.637 33.7101 132.651 33.746 132.665C33.9441 132.745 34.1911 132.85 34.4741 132.971L34.5861 133.019C35.1367 133.255 35.8214 133.549 36.5881 133.85C38.2323 134.496 40.2259 135.167 42.0349 135.379C42.9695 135.485 43.9214 135.797 44.5902 136.419C45.2789 137.058 45.626 137.988 45.3978 139.213C45.366 139.384 45.215 139.508 45.0389 139.508H31.1656C30.9641 139.508 30.8008 139.347 30.8008 139.148C30.8008 138.95 30.9641 138.789 31.1656 138.789H44.7227C44.808 137.942 44.5329 137.354 44.0897 136.942C43.5772 136.466 42.7985 136.189 41.9513 136.094L41.9497 136.093C40.0425 135.87 37.9762 135.17 36.3178 134.518C35.5402 134.212 34.8461 133.915 34.2961 133.679L34.1832 133.631C33.8986 133.509 33.6597 133.407 33.471 133.331C33.2726 133.252 33.1587 133.213 33.1102 133.203C33.0094 133.182 32.9222 133.121 32.8702 133.033C32.8182 132.945 32.8062 132.84 32.8371 132.743C37.7364 117.406 42.8509 97.6157 43.3759 74.5917C43.3805 74.3932 43.5474 74.2359 43.7489 74.2403Z" fill="#000229"/>
<path fill-rule="evenodd" clip-rule="evenodd" d="M25.668 132.174H33.7347V132.907H25.668V132.174Z" fill="#000229"/>
<path fill-rule="evenodd" clip-rule="evenodd" d="M12.4688 132.174H19.8022V132.907H12.4688V132.174Z" fill="#000229"/>
<path fill-rule="evenodd" clip-rule="evenodd" d="M11.4727 138.899C11.4727 138.687 11.6308 138.516 11.826 138.516H30.7902C30.9853 138.516 31.1435 138.687 31.1435 138.899V140.591C31.1435 140.803 30.9853 140.974 30.7902 140.974H11.826C11.6308 140.974 11.4727 140.803 11.4727 140.591V138.899ZM12.1793 139.282V140.208H30.4369V139.282H12.1793Z" fill="#000229"/>
<path fill-rule="evenodd" clip-rule="evenodd" d="M31.1465 138.899C31.1465 138.687 31.3042 138.516 31.4987 138.516H44.7278C44.9223 138.516 45.08 138.687 45.08 138.899V140.591C45.08 140.803 44.9223 140.974 44.7278 140.974H31.4987C31.3042 140.974 31.1465 140.803 31.1465 140.591V138.899ZM31.8509 139.282V140.208H44.3755V139.282H31.8509Z" fill="#000229"/>
<path fill-rule="evenodd" clip-rule="evenodd" d="M5.84037 62.2263L5.97962 59.6081L5.27591 59.5732L5.13662 62.1922L5.13654 62.1938C5.09429 63.069 5.41245 63.9247 6.02151 64.574C6.63057 65.2233 7.481 65.6133 8.38698 65.659L8.388 65.659L16.8308 66.1733L16.8663 65.4937L11.7496 65.1377L8.42369 64.9795C7.7039 64.943 7.02765 64.633 6.54374 64.1171C6.05987 63.6013 5.80702 62.9215 5.84037 62.2263Z" fill="#000229"/>
<path fill-rule="evenodd" clip-rule="evenodd" d="M16.2433 44.1574H16.1328V43.4395H16.2595L32.793 44.2748C33.6672 44.323 34.4878 44.7346 35.0755 45.4197C35.6632 46.1048 35.9702 47.0077 35.9295 47.9311L35.2337 63.5932L35.2337 63.5947C35.2113 64.0574 35.1019 64.5107 34.9118 64.9283C34.7218 65.3458 34.455 65.7192 34.1268 66.0267C33.7987 66.3343 33.4159 66.5697 33.0007 66.7193C32.5893 66.8676 32.1542 66.9287 31.7204 66.8992H31.281V66.1812H31.7317V66.5402L31.7548 66.182C32.1024 66.207 32.4513 66.1587 32.7811 66.0398C33.1108 65.921 33.4149 65.734 33.6755 65.4897C33.9361 65.2455 34.1481 64.9489 34.299 64.6173C34.4499 64.2858 34.5367 63.9259 34.5546 63.5586C34.5546 63.5585 34.5546 63.5583 34.5546 63.5581L35.2503 47.8976C35.2503 47.8976 35.2503 47.8976 35.2503 47.8976C35.2826 47.1638 35.0387 46.4462 34.5716 45.9017C34.1047 45.3574 33.4528 45.0303 32.7583 44.9919C32.758 44.9918 32.7578 44.9918 32.7576 44.9918L16.2433 44.1574Z" fill="#000229"/>
<path fill-rule="evenodd" clip-rule="evenodd" d="M52.9895 27.3066L53.0634 27.5656C53.8002 30.1464 54.9829 34.527 55.7422 38.5117C56.1216 40.5024 56.398 42.4077 56.4575 43.9456C56.4872 44.7139 56.4635 45.4042 56.3661 45.9737C56.2705 46.5333 56.0953 47.0288 55.7799 47.352C55.635 47.5006 55.444 47.5992 55.2433 47.6668C55.04 47.7353 54.8044 47.7796 54.5482 47.8064C54.0362 47.8599 53.4032 47.847 52.7004 47.7889C51.2924 47.6725 49.552 47.37 47.8305 47.009C44.4821 46.3069 41.1534 45.3721 40.3928 45.1146H40.3766V45.1091C40.362 45.1041 40.3484 45.0993 40.3359 45.0949L40.3766 44.973V44.3925H40.5083L40.5636 44.4122C41.157 44.6232 44.5432 45.5829 47.9697 46.3014C49.6816 46.6604 51.3899 46.9562 52.7562 47.0691C53.4405 47.1257 54.0261 47.1352 54.4778 47.088C54.7035 47.0644 54.8861 47.0276 55.0265 46.9803C55.1693 46.9322 55.2481 46.8798 55.2872 46.8397C55.4025 46.7216 55.5073 46.527 55.5895 46.2413C55.593 46.2292 55.5964 46.217 55.5998 46.2046C55.6289 46.0981 55.655 45.9796 55.6775 45.8482C55.7627 45.3497 55.7875 44.7165 55.7588 43.9744C55.7014 42.4915 55.4329 40.6286 55.0561 38.6511C54.5201 35.8386 53.7702 32.8215 53.1174 30.3876C52.8847 29.5201 52.6644 28.7268 52.4705 28.0432L48.9665 28.3109C49.2885 31.5511 49.396 34.8103 49.2883 38.0659L48.5894 38.0412C48.7002 34.6953 48.5812 31.3456 48.2334 28.017L48.1947 27.6458L52.6209 27.3076L52.6338 27.3066H52.9895Z" fill="#000229"/>
<path fill-rule="evenodd" clip-rule="evenodd" d="M49.1143 22.2042C48.9366 22.2338 48.7709 22.2708 48.604 22.308C48.488 22.3339 48.3715 22.3599 48.2498 22.3837C47.8954 22.4599 47.5531 22.5792 47.2314 22.7386C46.6411 23.049 46.3616 23.4601 46.2658 23.8993C46.1667 24.3541 46.2578 24.8751 46.4866 25.3894C46.7144 25.9016 47.0673 26.3801 47.4491 26.7374C47.8417 27.1048 48.2171 27.3001 48.4786 27.3297C48.6862 27.3532 48.8344 27.5307 48.8094 27.7263C48.7845 27.9219 48.596 28.0614 48.3884 28.0379C47.8794 27.9804 47.3543 27.6542 46.9154 27.2435C46.4656 26.8226 46.0556 26.2664 45.7881 25.665C45.5216 25.0658 45.3848 24.3944 45.524 23.7559C45.6664 23.1027 46.0904 22.5202 46.8669 22.1133L46.8706 22.1114L46.8743 22.1095C47.2567 21.9196 47.6638 21.7777 48.0853 21.6874L48.089 21.6866L48.0926 21.6859C48.1706 21.6707 48.2718 21.6484 48.3834 21.6238C48.5751 21.5815 48.7972 21.5325 48.9841 21.5015L48.9869 21.501L48.9869 21.501C49.3691 21.4403 49.812 21.4066 50.2117 21.4912C50.6212 21.578 51.0085 21.7967 51.206 22.2378C51.3376 22.4702 51.3705 22.7414 51.2974 22.9962C51.222 23.2587 51.0402 23.4829 50.7911 23.6203L50.7747 23.6294L50.7574 23.6368C50.3718 23.8032 49.9676 23.9282 49.5524 24.0096C49.5143 24.0177 49.4765 24.0279 49.4396 24.0398C49.5476 24.1057 49.6497 24.1805 49.7447 24.2635C49.998 24.4851 50.1931 24.7591 50.3145 25.0639C50.4157 25.2624 50.4978 25.4692 50.5598 25.6816C50.6152 25.8715 50.4966 26.0678 50.2949 26.12C50.0933 26.1722 49.8849 26.0605 49.8295 25.8705C49.7782 25.6947 49.7098 25.5237 49.6252 25.3597L49.6167 25.3433L49.61 25.3261C49.5302 25.1203 49.3998 24.9353 49.2294 24.7862C49.0611 24.639 48.8585 24.531 48.638 24.4708C48.588 24.4591 48.5227 24.4351 48.4618 24.3843C48.383 24.3186 48.3395 24.2313 48.3286 24.144C48.3108 24.001 48.3826 23.8939 48.4051 23.8614C48.467 23.7721 48.5613 23.6943 48.6451 23.6353C48.824 23.5096 49.0924 23.3751 49.3904 23.3128L49.393 23.3122L49.3957 23.3117C49.749 23.2426 50.0931 23.1371 50.4219 22.9969C50.4926 22.9536 50.5442 22.8872 50.5663 22.8101C50.5898 22.7282 50.5782 22.6408 50.534 22.5669L50.5219 22.5466L50.5126 22.5251C50.4342 22.3414 50.2857 22.2381 50.0455 22.1872C49.7895 22.133 49.4624 22.149 49.1143 22.2042Z" fill="#000229"/>
<path fill-rule="evenodd" clip-rule="evenodd" d="M46.2524 17.1604C46.3602 17.1435 46.4323 17.1493 46.4864 17.1621L46.6943 17.267L47.1926 17.9844L47.6492 19.2314L47.7214 19.456C47.8557 19.8741 48.0015 20.3283 48.1748 20.7967C48.3333 21.2253 48.5042 21.6802 48.7162 22.1365C48.7838 22.282 49.0213 22.3647 49.2467 22.321C49.4721 22.2773 49.6 22.1239 49.5324 21.9783C49.3282 21.5387 49.1622 21.0976 49.0036 20.6687C48.8335 20.2091 48.6906 19.7642 48.5563 19.3459C48.5317 19.2694 48.5075 19.1937 48.4833 19.1191C48.3286 18.64 48.1798 18.1966 48.0092 17.8271C47.8417 17.4644 47.638 17.1365 47.3463 16.9126C47.1952 16.7967 47.0091 16.6996 46.7793 16.6453C46.5462 16.5902 46.3 16.5866 46.0512 16.6256C45.6786 16.6841 45.4696 16.8788 45.3553 17.0656C45.2395 17.2547 45.1839 17.4902 45.162 17.7402C45.1177 18.244 45.2049 18.8876 45.346 19.5329C45.6283 20.8238 46.1435 22.1922 46.3629 22.6071C46.4389 22.7509 46.6811 22.8277 46.9038 22.7786C47.1265 22.7295 47.2453 22.5731 47.1693 22.4292C46.9725 22.057 46.4672 20.7248 46.1897 19.4559C46.0509 18.8213 45.9733 18.2203 46.0127 17.7713C46.0326 17.545 46.0808 17.3772 46.1477 17.268C46.1803 17.2146 46.2113 17.1856 46.2316 17.1715C46.2411 17.1648 46.2472 17.1622 46.2493 17.1613C46.251 17.1606 46.2516 17.1606 46.2524 17.1604Z" fill="#000229"/>
<path fill-rule="evenodd" clip-rule="evenodd" d="M49.3131 20.1169C49.2261 20.1926 49.1681 20.2975 49.1833 20.4603C49.2011 20.651 49.0423 20.8185 48.8286 20.8344C48.6149 20.8502 48.4272 20.7085 48.4094 20.5179C48.3749 20.1489 48.5179 19.8409 48.7709 19.6208C49.0139 19.4094 49.3371 19.296 49.6511 19.2567C49.9662 19.2172 50.3038 19.248 50.5988 19.3563C50.8927 19.4642 51.1693 19.66 51.3043 19.9616C51.4487 20.259 51.5685 20.5656 51.6626 20.8787C51.9149 21.643 52.0557 22.4538 52.0698 23.1873C52.0837 23.9041 51.9774 24.5864 51.6976 25.0788C51.5942 25.3106 51.4128 25.5083 51.1781 25.6446C50.9368 25.7848 50.6517 25.8527 50.3642 25.8385C50.1501 25.8279 49.9861 25.6644 49.998 25.4734C50.0098 25.2824 50.193 25.136 50.4072 25.1466C50.5298 25.1527 50.6514 25.1237 50.7544 25.0639C50.8574 25.0041 50.9363 24.9166 50.9797 24.8141L50.9878 24.795L50.9983 24.777C51.1987 24.4327 51.3064 23.8778 51.2933 23.1992C51.2804 22.5301 51.1508 21.7795 50.9163 21.0706L50.9149 21.0663L50.9136 21.062C50.8287 20.7787 50.7203 20.5013 50.5894 20.2323L50.5866 20.2265L50.584 20.2207C50.5465 20.1351 50.458 20.0539 50.3033 19.9971C50.1476 19.94 49.9507 19.9189 49.759 19.9429C49.5661 19.967 49.4102 20.0324 49.3131 20.1169Z" fill="#000229"/>
<path fill-rule="evenodd" clip-rule="evenodd" d="M51.8696 19.9202C51.6852 19.9751 51.508 20.1795 51.5369 20.5451C51.5514 20.7279 51.4376 20.89 51.2828 20.9071C51.128 20.9242 50.9908 20.7899 50.9763 20.607C50.9202 19.8976 51.2928 19.4059 51.732 19.2752C51.9482 19.2109 52.187 19.2321 52.3955 19.3659C52.6087 19.5029 52.7684 19.7439 52.8387 20.0682L52.8387 20.0684C53.0722 21.1481 53.1716 22.0581 53.1707 22.7913C53.1699 23.5167 53.0709 24.096 52.8852 24.4939C52.8189 24.6392 52.73 24.7686 52.6231 24.8751L52.6125 24.8857L52.601 24.895C52.378 25.0759 52.1033 25.145 51.8373 25.0869C51.5712 25.0289 51.3356 24.8485 51.182 24.5854C51.0937 24.4342 51.1259 24.2271 51.2539 24.1228C51.3819 24.0185 51.5572 24.0566 51.6455 24.2078C51.7144 24.3259 51.8202 24.4068 51.9395 24.4328C52.0544 24.4579 52.1728 24.4302 52.2708 24.3557C52.319 24.3051 52.3594 24.2447 52.3899 24.1774L52.3908 24.1756L52.3916 24.1738C52.5131 23.9143 52.6069 23.4618 52.6077 22.7904C52.6085 22.1256 52.518 21.2724 52.2932 20.233C52.2587 20.074 52.1918 19.9922 52.1266 19.9503C52.0566 19.9053 51.9652 19.8917 51.8696 19.9202Z" fill="#000229"/>
<path fill-rule="evenodd" clip-rule="evenodd" d="M52.2846 24.3869C52.4401 24.3334 52.6 24.4517 52.6417 24.651C52.855 25.6706 52.855 26.7442 52.6417 27.7638C52.6 27.9631 52.4401 28.0813 52.2846 28.0279C52.129 27.9745 52.0367 27.7696 52.0784 27.5703C52.2652 26.6775 52.2652 25.7373 52.0784 24.8444C52.0367 24.6451 52.129 24.4403 52.2846 24.3869Z" fill="#000229"/>
<path d="M50.4566 1.7728C50.4718 1.75467 50.4906 1.73967 50.512 1.72869C50.5334 1.71772 50.5569 1.711 50.5812 1.70896C50.6054 1.70692 50.6298 1.70958 50.6529 1.7168C50.676 1.72402 50.6973 1.73563 50.7155 1.75094L51.3768 2.30555L49.297 4.78148H50.6739L52.1843 2.98378L53.3691 3.97894C53.4041 4.00842 53.4256 4.04977 53.4291 4.09417C53.4326 4.13857 53.4177 4.18251 53.3877 4.21663L52.8929 4.78148H54.287C54.4597 4.5407 54.534 4.24811 54.496 3.95878C54.458 3.66944 54.3102 3.40334 54.0805 3.21054L51.427 0.981866C51.299 0.874498 51.1493 0.793108 50.9872 0.742668C50.825 0.692229 50.6538 0.673797 50.4839 0.688499C50.314 0.703201 50.1491 0.750728 49.9991 0.828178C49.8492 0.905627 49.7174 1.01137 49.6118 1.13896L46.5983 4.78148H47.9681L50.4566 1.7728ZM43.9261 4.43997C43.7835 4.43997 43.6467 4.49394 43.5458 4.59001C43.4449 4.68608 43.3882 4.81637 43.3882 4.95223C43.3882 5.08809 43.4449 5.21839 43.5458 5.31446C43.6467 5.41053 43.7835 5.4645 43.9261 5.4645H53.2493C53.8674 5.4645 54.4603 5.69837 54.8974 6.11466C55.3345 6.53095 55.5801 7.09557 55.5801 7.6843V12.1239C55.5801 12.7126 55.3345 13.2772 54.8974 13.6935C54.4603 14.1098 53.8674 14.3437 53.2493 14.3437H44.6433C44.0251 14.3437 43.4323 14.1098 42.9952 13.6935C42.5581 13.2772 42.3125 12.7126 42.3125 12.1239V4.95223C42.3125 4.54465 42.4825 4.15377 42.7851 3.86556C43.0877 3.57736 43.4982 3.41545 43.9261 3.41545H47.0243L46.1694 4.43997H43.9261ZM51.2771 10.0748C51.2771 10.3576 51.518 10.5871 51.815 10.5871H53.2493C53.3919 10.5871 53.5287 10.5331 53.6296 10.4371C53.7305 10.341 53.7872 10.2107 53.7872 10.0748C53.7872 9.93899 53.7305 9.80869 53.6296 9.71263C53.5287 9.61656 53.3919 9.56259 53.2493 9.56259H51.815C51.6723 9.56259 51.5355 9.61656 51.4346 9.71263C51.3337 9.80869 51.2771 9.93899 51.2771 10.0748Z" fill="#000229"/>
</svg>
