<svg width="55" height="143" viewBox="0 0 55 143" fill="none" xmlns="http://www.w3.org/2000/svg">
<path d="M25.6753 140.257V140.298C25.2723 138.103 26.9006 137.14 28.6275 136.935C29.496 136.823 30.354 136.642 31.1933 136.392C34.0139 135.57 36.6537 134.213 37.1635 134.098H44.6716C44.6305 137.461 44.6141 139.681 44.6223 140.265L25.6753 140.257Z" fill="#CAD7E4"/>
<path d="M25.6526 140.34H12.3387C11.9522 138.153 13.5804 137.191 15.2992 136.993C18.8764 136.574 23.1691 134.296 23.8352 134.156H31.1541C31.1541 135.431 31.1541 136.196 31.1541 136.352V136.459C30.3149 136.709 29.4569 136.89 28.5884 137.002C26.8861 137.183 25.2496 138.136 25.6526 140.34Z" fill="#CAD7E4"/>
<path d="M14.6757 60.1351C15.4981 54.6746 16.3204 49.2882 16.8878 46.1551C16.8878 46.1551 10.8764 49.5103 10.2515 52.3063C10.0212 53.3342 13.3846 58.4575 14.6675 60.1104L14.6757 60.1351ZM39.0996 53.7865C38.2772 53.9099 37.4549 53.9921 36.6901 54.0497C36.4738 53.7744 36.1939 53.5558 35.8745 53.4125C35.5551 53.2693 35.2056 53.2057 34.8562 53.2273C34.4847 53.1991 34.1123 53.2713 33.7782 53.4362C33.444 53.6011 33.1603 53.8527 32.9566 54.1648C29.3054 54.1648 27.4222 54.5266 26.8301 54.872C25.5308 55.6286 24.7907 56.4427 24.8318 57.9723C24.8752 59.3276 25.2568 60.6506 25.9419 61.8209C26.041 61.976 26.1538 62.1219 26.2791 62.2567C26.7707 62.7681 27.4449 63.0638 28.1541 63.0791C28.4501 63.0791 29.4287 62.8982 29.5438 62.5199C29.659 62.1416 29.3465 61.8044 29.1738 61.6975C28.8037 61.385 28.3514 61.492 27.9567 61.4344C26.9863 60.612 30.1853 59.214 33.3925 59.2469H34.1572H36.098C37.0273 59.2469 38.0141 59.1647 39.0338 59.0825C38.6828 58.2467 38.502 57.3492 38.502 56.4427C38.502 55.5362 38.6828 54.6388 39.0338 53.803L39.0996 53.7865ZM43.4416 52.6023C43.7378 52.4507 44.014 52.2628 44.264 52.0431C46.0567 50.3984 45.9087 47.808 42.9235 45.5383C42.9235 45.5383 43.1456 49.2142 43.3923 52.5365L43.4416 52.6023ZM43.8281 58.4492C44.3873 66.0642 45.0781 74.9374 45.1685 76.4094L12.8007 76.4834C12.8007 75.0032 13.0803 72.421 13.4504 69.329C13.7711 66.5988 14.1905 63.4738 14.6264 60.3653H14.5441C13.2426 61.491 12.2968 62.9711 11.8222 64.6251C11.7775 65.0782 11.7996 65.5354 11.8879 65.982H11.8222C5.86832 61.7798 2.17595 55.9493 1.09045 51.7717C-0.143081 47.0679 11.6001 38.0796 14.4126 36.147C17.5293 34.0089 24.4206 32.9563 24.4206 32.9563C24.692 32.2738 24.8318 31.657 25.4897 31.254L25.6459 31.1883C28.522 30.7602 31.4456 30.7602 34.3217 31.1883H34.4122C35.0783 31.3116 35.4895 32.4218 35.4483 32.981C35.4483 32.981 42.6521 33.4579 44.4284 34.4612C46.805 35.8181 56.1881 47.8985 53.7704 52.997C52.3477 55.9904 48.2359 57.6104 43.8528 58.4492H43.8281Z" fill="#CAD7E4"/>
<path d="M35.6285 55.9502C35.5668 57.1201 35.7575 58.2897 36.1877 59.3794" stroke="#000229" stroke-width="0.86" stroke-miterlimit="10"/>
<path d="M33.6842 55.8174C33.6036 57.0438 33.7916 58.273 34.2352 59.4193" stroke="#000229" stroke-width="0.86" stroke-miterlimit="10"/>
<path d="M38.9626 59.0576C37.3179 59.1481 34.6452 59.2879 33.4199 59.2632" stroke="#000229" stroke-width="0.86" stroke-linejoin="round"/>
<path d="M31.3773 114.205C31.2704 126.08 31.106 135.751 31.1471 136.326" stroke="#000229" stroke-width="0.86" stroke-miterlimit="10"/>
<path d="M43.8523 58.4909C44.4115 66.1059 45.1023 74.979 45.1927 76.4511L12.8249 76.5251C12.94 71.4183 15.6127 53.1127 16.9367 46.1885C16.9367 46.1885 10.8842 49.5355 10.2592 52.3315C10.0289 53.3594 13.4335 58.4826 14.7163 60.1356" stroke="#000229" stroke-width="0.86" stroke-linejoin="round"/>
<path d="M13.5067 69.3118C13.0324 69.8338 12.4202 70.2112 11.7407 70.4003C11.0612 70.5895 10.3421 70.5827 9.66631 70.3808C8.62193 69.9861 8.16141 69.4433 8.84396 68.6621C9.52651 67.8809 10.4147 68.4894 11.2206 68.2674C12.5692 67.8891 11.5906 65.6687 11.8044 64.6572C12.2791 63.0032 13.2249 61.5231 14.5264 60.3975" stroke="#000229" stroke-width="0.86" stroke-miterlimit="10"/>
<path d="M42.9817 46.2212C42.9817 45.7935 42.9817 45.5386 42.9817 45.5386C45.934 47.8083 46.1149 50.3987 44.3139 52.0434C43.2531 53.0138 39.1413 53.8032 39.1413 53.8032C38.7757 54.6284 38.5787 55.5183 38.5618 56.4207C38.5448 57.3231 38.7083 58.2198 39.0426 59.0581C45.0376 58.6469 51.7973 57.2325 53.845 52.9973C56.2627 47.8988 46.8797 35.7937 44.4948 34.4368C42.7186 33.4336 35.5147 32.9566 35.5147 32.9566C35.5147 32.3974 35.1447 31.3119 34.4786 31.1639C31.6003 30.6211 26.1893 30.8678 25.5561 31.2543C24.9228 31.6408 24.7337 32.2741 24.487 32.9566C24.487 32.9566 17.5957 34.0092 14.479 36.1473C11.6665 38.0799 -0.0766747 47.0682 1.15685 51.772C2.25058 55.9496 5.94295 61.7801 11.905 66.0234" stroke="#000229" stroke-width="0.86" stroke-linejoin="round"/>
<path d="M43.4085 52.5373C43.244 50.3581 43.0631 47.5127 42.9727 46.1641" stroke="#000229" stroke-width="0.86" stroke-linejoin="round"/>
<path d="M33.0184 54.165C29.3261 54.165 27.4264 54.5269 26.8261 54.8723C25.5268 55.6288 24.7867 56.443 24.8278 57.9725C24.8517 59.5307 25.3668 61.0416 26.2998 62.2899C26.7914 62.8013 27.4656 63.097 28.1748 63.1122C28.4708 63.1122 29.4494 62.9313 29.5645 62.553C29.6797 62.1748 29.3672 61.8376 29.1945 61.7307C28.8244 61.4182 28.3721 61.5251 27.9774 61.4675C26.9988 60.6452 30.2553 59.2307 33.4954 59.2883" stroke="#000229" stroke-width="0.86" stroke-miterlimit="10"/>
<path d="M34.8553 55.9325C35.9544 55.9325 36.8454 55.325 36.8454 54.5756C36.8454 53.8262 35.9544 53.2188 34.8553 53.2188C33.7562 53.2188 32.8652 53.8262 32.8652 54.5756C32.8652 55.325 33.7562 55.9325 34.8553 55.9325Z" stroke="#000229" stroke-width="0.86" stroke-miterlimit="10"/>
<path d="M39.552 79.4023C39.4204 83.9171 43.4335 86.1374 47.5206 86.343" stroke="#000229" stroke-width="0.86" stroke-miterlimit="10" stroke-linecap="round"/>
<path d="M26.7885 83.5146C27.3395 101.491 32.4463 119.238 37.1008 134.04V134.139C36.4429 134.278 32.1667 136.556 28.5648 136.976C26.8461 137.181 25.2096 138.135 25.6125 140.339L44.6007 140.421C44.5266 139.352 45.1598 100.488 44.8391 76.6973" stroke="#000229" stroke-width="0.86" stroke-linecap="round" stroke-linejoin="round"/>
<path d="M13.5897 76.8369C14.0996 99.5338 19.0666 119.024 23.8198 134.13C23.1537 134.27 18.8857 136.548 15.2838 136.967C13.5568 137.173 11.9286 138.127 12.3315 140.331H25.8181" stroke="#000229" stroke-width="0.86" stroke-linecap="round" stroke-linejoin="round"/>
<path d="M26.2207 13.5667C26.4756 11.7 26.8128 8.94511 28.1121 7.49777C32.2814 2.83503 37.1087 12.325 37.8899 15.3759C38.6136 18.2212 34.6005 24.6356 33.441 25.0879C31.7058 25.7869 29.2305 24.1422 28.4411 22.5222" stroke="#000229" stroke-width="0.86" stroke-miterlimit="10" stroke-linecap="round"/>
<path d="M25.6352 31.3207C25.6352 26.4523 25.372 22.0281 25.775 17.168" stroke="#000229" stroke-width="0.86" stroke-miterlimit="10"/>
<path d="M32.9727 25.0127C33.4332 26.8959 33.5319 29.2889 34.346 30.9912" stroke="#000229" stroke-width="0.86" stroke-miterlimit="10"/>
<path d="M26.8962 14.4369C24.5936 11.0488 22.8996 15.4977 23.7795 16.6655C24.1017 16.9796 24.5201 17.1763 24.9675 17.2241C25.4149 17.2718 25.8654 17.1677 26.2466 16.9286" stroke="#000229" stroke-width="0.86" stroke-miterlimit="10" stroke-linecap="round"/>
<path d="M35.0671 9.61043C35.3467 9.61043 41.9502 8.30289 41.0209 6.48549C39.9601 4.42139 27.2465 10.9509 26.457 11.2963" stroke="#000229" stroke-width="0.86" stroke-miterlimit="10"/>
<path d="M31.5597 15.9424C31.2364 15.8061 30.8856 15.7477 30.5356 15.772C30.1856 15.7963 29.8463 15.9025 29.5449 16.0822" stroke="#000229" stroke-width="0.86" stroke-miterlimit="10" stroke-linecap="round"/>
<path d="M35.9507 15.9425C35.6261 15.8061 35.2739 15.7477 34.9226 15.772C34.5713 15.7962 34.2306 15.9025 33.9277 16.0823" stroke="#000229" stroke-width="0.86" stroke-miterlimit="10" stroke-linecap="round"/>
<path d="M32.7188 23.0991C33.2451 23.7324 34.3635 23.2225 34.8898 22.8853" stroke="#000229" stroke-width="0.86" stroke-linecap="round" stroke-linejoin="round"/>
<path d="M25.82 15.0879C25.4693 15.4104 25.0134 15.5945 24.5371 15.606" stroke="#000229" stroke-width="0.86" stroke-miterlimit="10" stroke-linecap="round"/>
<path d="M30.6462 17.4808C30.8369 17.4808 30.9916 17.3262 30.9916 17.1354C30.9916 16.9447 30.8369 16.79 30.6462 16.79C30.4554 16.79 30.3008 16.9447 30.3008 17.1354C30.3008 17.3262 30.4554 17.4808 30.6462 17.4808Z" fill="#000229"/>
<path d="M34.9137 17.4808C35.1045 17.4808 35.2591 17.3262 35.2591 17.1354C35.2591 16.9447 35.1045 16.79 34.9137 16.79C34.723 16.79 34.5684 16.9447 34.5684 17.1354C34.5684 17.3262 34.723 17.4808 34.9137 17.4808Z" fill="#000229"/>
<path d="M33.9105 15.4238C33.5075 16.4271 33.9762 18.006 34.1325 19.0504C34.2312 19.7576 34.3874 21.131 33.1621 20.6951" stroke="#000229" stroke-width="0.86" stroke-miterlimit="10" stroke-linecap="round"/>
<path d="M23.5156 134.13H31.0319" stroke="#000229" stroke-width="0.86" stroke-miterlimit="10"/>
<path d="M37.1328 134.13H44.6491" stroke="#000229" stroke-width="0.86" stroke-miterlimit="10"/>
<path d="M44.6342 140.299H25.6543V141.861H44.6342V140.299Z" stroke="#000229" stroke-width="0.86" stroke-linecap="round" stroke-linejoin="round"/>
<path d="M25.6314 140.299H12.334V141.861H25.6314V140.299Z" stroke="#000229" stroke-width="0.86" stroke-linecap="round" stroke-linejoin="round"/>
<path d="M26.017 61.9283C25.8603 61.6412 25.7667 61.3239 25.7426 60.9977C25.7185 60.6715 25.7644 60.3439 25.8772 60.0369C26.1352 59.4187 26.5849 58.8998 27.1601 58.5566" stroke="#000229" stroke-width="0.86" stroke-linecap="round" stroke-linejoin="round"/>
<path d="M25.2911 60.1851C25.1438 59.9111 25.0559 59.609 25.0332 59.2987C25.0106 58.9884 25.0536 58.6767 25.1596 58.3842C25.3984 57.7965 25.8192 57.3008 26.3602 56.9697" stroke="#000229" stroke-width="0.86" stroke-linecap="round" stroke-linejoin="round"/>
<path d="M9.59313 68.2109C9.50267 66.9116 11.3036 67.2076 11.9204 67.4954" stroke="#000229" stroke-width="0.86" stroke-miterlimit="10"/>
<path d="M10.5562 67.1422C10.4575 66.3198 11.3785 66.3691 11.8308 66.4432" stroke="#000229" stroke-width="0.86" stroke-miterlimit="10"/>
<path d="M36.6465 54.0168C37.4494 53.997 38.2509 53.9366 39.0478 53.8359" stroke="#000229" stroke-width="0.86" stroke-miterlimit="10"/>
<path d="M36.8311 134.229C36.1486 134.402 32.193 136.557 28.6076 136.976C26.8806 137.182 25.6142 138.078 25.6471 140.611" stroke="#000229" stroke-width="0.86" stroke-linejoin="round"/>
<path d="M15.0691 4.93026V2.65234H4.58409V4.93026C4.61007 5.71558 4.84866 6.47913 5.27444 7.13952C5.70022 7.79991 6.29722 8.33239 7.00181 8.68019C7.19642 8.79199 7.36237 8.94751 7.48654 9.13448C7.61071 9.32144 7.68969 9.53473 7.71725 9.75747C7.69953 9.98097 7.62534 10.1963 7.50164 10.3833C7.37794 10.5703 7.20878 10.7228 7.01003 10.8265C6.30027 11.1684 5.69622 11.696 5.2619 12.3532C4.82758 13.0105 4.57916 13.773 4.54297 14.56V16.9037H15.0691V14.6011C15.0314 13.8156 14.7823 13.0548 14.3481 12.3991C13.9139 11.7434 13.3106 11.2171 12.602 10.8759C12.4001 10.7731 12.2282 10.6199 12.1028 10.4312C11.9775 10.2425 11.903 10.0246 11.8866 9.79859C11.8866 9.18182 12.5938 8.72953 12.5938 8.72953C13.3153 8.38433 13.9278 7.84726 14.3644 7.17714C14.801 6.50702 15.0448 5.72969 15.0691 4.93026Z" stroke="#000229" stroke-width="0.86" stroke-miterlimit="10"/>
<path d="M14.9289 16.8711H4.74813C4.29396 16.8711 3.92578 17.2393 3.92578 17.6934V17.7017C3.92578 18.1558 4.29396 18.524 4.74813 18.524H14.9289C15.383 18.524 15.7512 18.1558 15.7512 17.7017V17.6934C15.7512 17.2393 15.383 16.8711 14.9289 16.8711Z" stroke="#000229" stroke-width="0.86" stroke-miterlimit="10"/>
<path d="M14.9289 1H4.74813C4.29396 1 3.92578 1.36818 3.92578 1.82235V1.83058C3.92578 2.28475 4.29396 2.65293 4.74813 2.65293H14.9289C15.383 2.65293 15.7512 2.28475 15.7512 1.83058V1.82235C15.7512 1.36818 15.383 1 14.9289 1Z" stroke="#000229" stroke-width="0.86" stroke-miterlimit="10"/>
<path d="M10.7581 11.0488V9.70015C10.7581 9.03404 11.5804 8.35149 12.1232 7.98965C12.9105 7.48212 13.5065 6.72699 13.8172 5.84331C13.8724 5.68464 13.8887 5.51509 13.8649 5.34882C13.8411 5.18255 13.7779 5.02438 13.6805 4.88754C13.5831 4.75069 13.4543 4.63915 13.305 4.56222C13.1557 4.48528 12.9902 4.4452 12.8222 4.44531H6.84368C6.67572 4.4452 6.51016 4.48528 6.36085 4.56222C6.21154 4.63915 6.0828 4.75069 5.9854 4.88754C5.888 5.02438 5.82477 5.18255 5.80097 5.34882C5.77718 5.51509 5.79352 5.68464 5.84864 5.84331C6.15937 6.72699 6.75537 7.48212 7.54268 7.98965C8.10188 8.35149 9.04759 8.97648 9.04759 9.63436V11.0653C9.04759 11.5833 8.22523 12.0685 7.74004 12.3317C7.14597 12.6764 6.64466 13.1605 6.27933 13.7421C5.91401 14.3238 5.69564 14.9856 5.64305 15.6704C5.64081 15.7096 5.64659 15.7488 5.66005 15.7856C5.67351 15.8225 5.69435 15.8562 5.7213 15.8847C5.74826 15.9132 5.78075 15.9358 5.81679 15.9513C5.85283 15.9668 5.89165 15.9748 5.93087 15.9747H13.8008C13.8368 15.9748 13.8724 15.9675 13.9054 15.9532C13.9385 15.939 13.9683 15.9181 13.9929 15.8919C14.0176 15.8657 14.0366 15.8347 14.0488 15.8009C14.061 15.767 14.0662 15.731 14.0639 15.6951C14.0174 15.0054 13.8017 14.3378 13.436 13.7512C13.0702 13.1646 12.5657 12.6771 11.9669 12.3317C11.5064 12.0767 10.7581 11.5669 10.7581 11.0488Z" fill="#000229"/>
</svg>
