<svg width="90" height="141" viewBox="0 0 90 141" fill="none" xmlns="http://www.w3.org/2000/svg">
<path d="M27.0931 83.4359H7.892H7.8341C7.65225 80.3265 7.8043 77.2062 8.2876 74.1299C12.6585 75.4565 18.7855 76.8417 26.1282 78.383L27.151 78.5976C28.7334 78.9975 30.6825 78.8317 31.5412 80.9485C31.6184 81.1338 31.7052 81.4557 31.8114 81.8069H31.6184L28.1159 81.9727C27.9475 81.9782 27.783 82.0257 27.6371 82.1109C27.4912 82.1962 27.3684 82.3165 27.2796 82.4613C27.1908 82.6061 27.1387 82.7709 27.1281 82.9409C27.1174 83.1109 27.1485 83.281 27.2186 83.4359H27.0931Z" fill="#CAD7E4"/>
<path d="M28.935 72.2089C28.0237 72.8441 27.3054 73.7143 26.8577 74.7252C26.4101 75.7361 26.2503 76.8492 26.3956 77.9437V78.1778C18.9056 76.6368 12.6164 75.2519 8.19722 73.9255C3.77803 72.5991 1.21903 71.419 0.805649 70.1803C-2.37341 60.6321 4.6343 41.3212 8.30548 37.7321C10.4413 35.6547 15.3723 34.0357 20.6871 33.0117C20.9264 32.3362 21.3486 31.7389 21.9076 31.2854C21.9832 31.2459 22.0622 31.2133 22.1438 31.1878C25.372 30.5389 28.6988 30.5389 31.927 31.1878C32.1173 31.2372 32.302 31.3059 32.4782 31.3927C32.8265 31.5329 33.133 31.7587 33.3689 32.0487C33.6048 32.3388 33.7623 32.6836 33.8266 33.0507C33.8266 33.0507 43.7673 34.1625 45.6373 36.4935C47.8814 39.2633 51.8183 48.8115 55.086 63.4605L42.8126 63.8701C42.0775 63.9016 41.3774 64.1902 40.8368 64.6849C40.2962 65.1795 39.95 65.8481 39.8599 66.5717L37.8914 78.7825C37.7044 77.0952 37.5765 75.0568 35.7655 74.5204C33.9545 73.984 31.5825 73.155 28.935 72.2089Z" fill="#CAD7E4"/>
<path d="M75.8228 130.793H76.0038V130.875C76.8083 131.06 81.9365 133.877 86.3107 134.399C88.4122 134.656 90.3932 135.834 89.9306 138.497H66.7227V130.742L75.8228 130.793Z" fill="#CAD7E4"/>
<path d="M41.7286 113.614C42.1858 114.834 43.4114 119.862 45.6196 123.172C46.7674 124.861 47.176 127.078 44.9581 128.415L30.2598 111.388L35.6294 106.701C37.5661 109.103 39.6451 111.385 41.855 113.536L41.7286 113.614Z" fill="#000229"/>
<path fill-rule="evenodd" clip-rule="evenodd" d="M8.53711 99.3677C8.53711 99.135 8.72688 98.9463 8.96098 98.9463H42.5454V99.7891H9.38485V139.981H58.1202V102.582H58.9679V140.402C58.9679 140.635 58.7781 140.824 58.544 140.824H8.96098C8.72688 140.824 8.53711 140.635 8.53711 140.402V99.3677Z" fill="#000229"/>
<path fill-rule="evenodd" clip-rule="evenodd" d="M22.215 31.2833C21.7389 31.6877 21.3789 32.2147 21.173 32.8092C21.1241 32.9504 21.0051 33.0548 20.8602 33.0836C18.2585 33.6013 15.76 34.2613 13.6569 35.049C11.5433 35.8406 9.87173 36.7458 8.88463 37.7325L8.88428 37.7328C8.04039 38.5744 6.95779 40.4023 5.85363 42.8789C4.75715 45.3383 3.66094 48.3876 2.77364 51.6262C1.88622 54.8652 1.21041 58.2839 0.949983 61.483C0.689102 64.6877 0.84769 67.6419 1.6051 69.9691C1.67513 70.1826 1.86028 70.4413 2.22122 70.7382C2.57824 71.0319 3.07673 71.338 3.72002 71.6547C5.00629 72.2879 6.81558 72.9368 9.0903 73.6096C13.6365 74.9545 19.9718 76.3753 27.5393 77.9564L27.371 78.7835C19.8055 77.2028 13.4394 75.7759 8.85686 74.4203C6.56719 73.743 4.70524 73.0785 3.356 72.4143C2.68154 72.0823 2.1212 71.7436 1.69616 71.3939C1.27519 71.0476 0.955036 70.6646 0.814279 70.2349L0.814027 70.2341C0.00692584 67.7547 -0.145681 64.6724 0.119614 61.4136C0.385379 58.1489 1.07319 54.6766 1.97083 51.4003C2.86859 48.1235 3.9789 45.0331 5.09436 42.5311C6.20203 40.0466 7.33669 38.0917 8.29959 37.1312M22.215 31.2833C22.2641 31.2604 22.3781 31.2199 22.5803 31.1723C22.8025 31.1201 23.0926 31.0677 23.4382 31.0188C24.1286 30.9211 25.0202 30.8402 25.9925 30.7995C27.9473 30.7178 30.177 30.8011 31.7392 31.2123C31.746 31.2141 31.7529 31.2157 31.7598 31.2171C32.1381 31.2963 32.4857 31.485 32.7603 31.7604C33.0348 32.0358 33.2247 32.3861 33.3067 32.7688C33.3446 32.9457 33.4896 33.0784 33.6671 33.0987L33.6797 32.9852C33.6671 33.0987 33.667 33.0987 33.6671 33.0987L33.6735 33.0995L33.6938 33.1018C33.7016 33.1028 33.7111 33.1039 33.7223 33.1052C33.7369 33.107 33.7543 33.1091 33.7745 33.1115C33.8456 33.1202 33.9505 33.1332 34.0849 33.1507C34.3537 33.1856 34.7405 33.2381 35.2105 33.3086C36.1512 33.4495 37.4229 33.6617 38.7501 33.9465C40.0795 34.2319 41.4536 34.5879 42.6034 35.0144C43.1782 35.2277 43.6884 35.4554 44.1055 35.6962C44.5264 35.9392 44.8296 36.1825 45.0131 36.4174L45.0149 36.4198C46.0789 37.7619 47.5859 40.7475 49.2371 45.2875C50.8827 49.8123 52.6579 55.8425 54.2724 63.2407L55.086 63.0583C53.4646 55.6288 51.6794 49.5613 50.0189 44.9955C48.3644 40.4463 46.82 37.3491 45.6655 35.8921C45.3887 35.5382 44.9838 35.2314 44.5178 34.9624C44.0474 34.6908 43.4912 34.4445 42.8898 34.2214C41.6871 33.7752 40.2698 33.4095 38.9228 33.1204C37.5736 32.8308 36.284 32.6158 35.3324 32.4732C34.8563 32.4018 34.4642 32.3485 34.1908 32.313C34.136 32.3059 34.086 32.2995 34.041 32.2938C33.901 31.8672 33.6636 31.4784 33.3463 31.1602C32.9597 30.7723 32.4709 30.5058 31.9387 30.3923C30.2562 29.9515 27.9328 29.8732 25.9581 29.9558C24.9637 29.9973 24.0447 30.0803 23.3231 30.1824C22.9627 30.2334 22.6463 30.2899 22.3919 30.3497C22.1531 30.4059 21.9223 30.4751 21.7676 30.5687C21.75 30.5794 21.7332 30.5914 21.7174 30.6045C21.1705 31.0584 20.7437 31.6412 20.4734 32.3004C17.924 32.8168 15.4635 33.472 13.3681 34.2568C11.2215 35.0608 9.41485 36.0165 8.29959 37.1312" fill="#000229"/>
<path fill-rule="evenodd" clip-rule="evenodd" d="M8.85141 90.0865C6.97092 86.0187 6.46419 80.6002 7.53788 73.3545L8.38309 73.4749C7.32156 80.6386 7.84271 85.8762 9.62933 89.7409C11.408 93.5884 14.465 96.1268 18.5962 97.8527C20.0731 98.3915 21.6157 98.7382 23.1844 98.8842L42.6684 98.8064L42.6719 99.6437L23.1461 99.7217L23.1254 99.7197C21.4715 99.5678 19.8453 99.2027 18.2888 98.634L18.2797 98.6306L18.2707 98.6269C13.9847 96.8382 10.7386 94.1687 8.85141 90.0865Z" fill="#000229"/>
<path fill-rule="evenodd" clip-rule="evenodd" d="M74.8898 104.531C74.581 98.3809 74.2549 94.6907 73.707 92.1483L74.5271 91.9668C75.0918 94.5872 75.4196 98.3444 75.7281 104.488C75.9381 108.67 76.1396 113.972 76.3989 120.795C76.521 124.007 76.6559 127.556 76.8105 131.484L75.9718 131.518C75.817 127.585 75.682 124.034 75.5599 120.821C75.3008 114.002 75.0995 108.707 74.8898 104.531Z" fill="#000229"/>
<path fill-rule="evenodd" clip-rule="evenodd" d="M70.1895 62.4971L70.2015 62.4973C70.7261 62.5091 71.2417 62.634 71.7119 62.8632C72.1821 63.0923 72.5956 63.4202 72.9231 63.8238C73.2506 64.2273 73.4843 64.6966 73.6076 65.1986C73.7304 65.6991 73.7407 66.2199 73.6376 66.7246L70.6024 83.4998C70.4837 84.2575 70.1104 84.9543 69.542 85.4786C68.9723 86.0041 68.2397 86.3258 67.4618 86.3922L67.4569 86.3926L40.1094 88.0882L40.0994 88.0883C39.5674 88.0962 39.0404 87.9873 38.5565 87.7694C38.0727 87.5515 37.6444 87.2302 37.3026 86.8287C36.9609 86.4273 36.7143 85.956 36.581 85.449C36.4483 84.9445 36.431 84.4174 36.5303 83.9056L39.275 66.4297C39.3772 65.6304 39.7637 64.8925 40.3661 64.3469C40.9701 63.8 41.7518 63.4819 42.5719 63.4496L42.5739 63.4495L70.1895 62.4971ZM70.1942 63.3162L42.6052 64.2677C42.6048 64.2677 42.6045 64.2677 42.6041 64.2678C41.9814 64.2926 41.3879 64.5341 40.9293 64.9495C40.4704 65.365 40.1764 65.9276 40.0997 66.5367L40.0989 66.5428L37.3499 84.0456L37.3485 84.0532C37.271 84.4479 37.2839 84.8546 37.3862 85.2438C37.4886 85.6329 37.6778 85.9947 37.9401 86.3028C38.2024 86.6109 38.5312 86.8576 38.9026 87.0248C39.2711 87.1908 39.6722 87.2744 40.0773 87.2698L67.3947 85.5761C67.985 85.5247 68.5407 85.28 68.9732 84.8811C69.4068 84.4811 69.6913 83.9493 69.7809 83.3711L69.7817 83.3661L72.8204 66.5717L72.8214 66.5669C72.9014 66.1781 72.8938 65.7767 72.7991 65.391C72.7043 65.0053 72.5249 64.6448 72.2733 64.3348C72.0217 64.0249 71.7041 63.773 71.3428 63.5969C70.9851 63.4226 70.5932 63.3268 70.1942 63.3162Z" fill="#000229"/>
<path fill-rule="evenodd" clip-rule="evenodd" d="M28.4891 82.1007L31.9171 81.914L31.8725 81.1094L28.4203 81.2974L28.409 81.2986C28.1073 81.3319 27.8246 81.4609 27.6029 81.6663C27.3811 81.8718 27.2323 82.1427 27.1785 82.4388C27.1248 82.7349 27.1689 83.0403 27.3044 83.3095C27.44 83.5787 27.6596 83.7973 27.9306 83.9328L27.9468 83.9409L38.4943 88.0889L38.7941 87.3399L28.2826 83.206C28.1745 83.1483 28.0868 83.0589 28.0319 82.9497C27.9746 82.8359 27.9559 82.7068 27.9786 82.5816C28.0014 82.4564 28.0643 82.3418 28.158 82.255C28.2494 82.1703 28.3652 82.1164 28.4891 82.1007Z" fill="#000229"/>
<path fill-rule="evenodd" clip-rule="evenodd" d="M27.1545 83.436L7.75977 83.4015L7.76148 82.6602L27.1562 82.6946L27.1545 83.436Z" fill="#000229"/>
<path fill-rule="evenodd" clip-rule="evenodd" d="M33.0318 76.5128C33.2341 76.3941 33.4912 76.4676 33.6059 76.6769C34.1899 77.742 34.5879 78.9051 34.7816 80.113C34.8355 80.4476 34.9199 81.0003 34.9146 81.5375C34.9119 81.8065 34.8869 82.0903 34.8153 82.3506C34.7442 82.6094 34.6178 82.8784 34.3891 83.0734L34.3875 83.0748L34.3875 83.0748C34.1851 83.2456 33.9711 83.366 33.7447 83.4135C33.5111 83.4624 33.2897 83.4281 33.0928 83.3308C32.7252 83.1491 32.4803 82.7677 32.3127 82.4249C32.1369 82.0655 32.0017 81.6534 31.8955 81.3036C31.8615 81.1917 31.8312 81.0893 31.8038 80.9965C31.7395 80.7786 31.6909 80.6141 31.6467 80.5058L31.6449 80.5016L31.6449 80.5016C31.2638 79.5406 30.6585 79.1078 29.9451 78.8552C29.5765 78.7246 29.1793 78.6429 28.7572 78.5673C28.6742 78.5524 28.5897 78.5377 28.5042 78.5228C28.166 78.4639 27.8129 78.4025 27.4778 78.3179C27.2517 78.2609 27.1132 78.0252 27.1683 77.7915C27.2235 77.5578 27.4514 77.4145 27.6774 77.4715C27.9799 77.5478 28.2939 77.6025 28.6284 77.6608C28.7178 77.6764 28.8086 77.6922 28.901 77.7088C29.3291 77.7855 29.7822 77.8765 30.2181 78.0309C31.1132 78.348 31.9328 78.9329 32.4236 80.1689C32.4858 80.3218 32.5545 80.5548 32.6253 80.7946C32.6498 80.8774 32.6744 80.961 32.6992 81.0425C32.8035 81.386 32.9218 81.7401 33.0644 82.0316C33.2151 82.3397 33.3535 82.494 33.4561 82.5447C33.4942 82.5635 33.5298 82.5695 33.5774 82.5596C33.6322 82.5481 33.7237 82.5103 33.8539 82.4006C33.9042 82.3574 33.9612 82.2719 34.005 82.1125C34.0485 81.954 34.07 81.7547 34.0722 81.5285C34.0767 81.0755 34.0044 80.59 33.9506 80.2559L33.9505 80.2556C33.773 79.1487 33.4083 78.0827 32.8731 77.1066C32.7584 76.8973 32.8294 76.6315 33.0318 76.5128Z" fill="#000229"/>
<path fill-rule="evenodd" clip-rule="evenodd" d="M35.2282 75.7375C35.3995 75.6161 35.6151 75.6956 35.7099 75.9152C35.8841 76.3189 36.068 77.0196 36.2095 77.8018C36.3526 78.5933 36.46 79.5119 36.466 80.3669C36.4718 81.2025 36.3819 82.0598 36.072 82.6603C35.9104 82.9733 35.6853 83.2232 35.3865 83.3487C35.0917 83.4726 34.7594 83.4612 34.3988 83.3335C34.2101 83.2667 34.0994 83.0165 34.1516 82.7747C34.2037 82.5329 34.3989 82.391 34.5875 82.4578C34.8533 82.5519 35.0379 82.5392 35.1657 82.4855C35.2896 82.4334 35.3929 82.3294 35.4808 82.1591C35.6697 81.7931 35.7627 81.1662 35.7572 80.375C35.7519 79.6032 35.6538 78.7525 35.519 78.0069C35.3825 77.2522 35.2162 76.6482 35.0896 76.3548C34.9949 76.1353 35.0569 75.8589 35.2282 75.7375Z" fill="#000229"/>
<path fill-rule="evenodd" clip-rule="evenodd" d="M37.6846 81.8971C37.9309 81.9396 38.071 82.0897 37.9975 82.2323C37.9009 82.4195 37.6832 82.5427 37.4229 82.6063C37.1818 82.6652 36.9253 82.6688 36.7176 82.6547C36.5063 82.6403 36.303 82.6047 36.1431 82.5608C36.0646 82.5392 35.979 82.5108 35.9049 82.4744C35.8679 82.4563 35.8214 82.4301 35.7811 82.3952C35.7423 82.3615 35.6895 82.3024 35.6895 82.2242C35.6895 82.0754 35.8979 81.9547 36.1549 81.9547C36.3157 81.9547 36.4574 82.0019 36.541 82.0736C36.5415 82.0737 36.5419 82.0739 36.5423 82.074C36.6104 82.0927 36.7156 82.112 36.8264 82.1195C36.9408 82.1273 37.0199 82.1199 37.0609 82.1099C37.0827 82.1045 37.0937 82.1009 37.1054 82.0782C37.1789 81.9356 37.4382 81.8545 37.6846 81.8971Z" fill="#000229"/>
<path fill-rule="evenodd" clip-rule="evenodd" d="M41.8948 46.9873L41.9935 47.4055C42.4706 49.426 43.0823 51.8064 43.6741 54.1093C43.8466 54.7807 44.0174 55.4456 44.1828 56.093C44.9108 58.9442 45.5389 61.4837 45.7152 62.7143L45.7762 63.1408L44.9872 63.2729L44.9261 62.8463C44.7587 61.6778 44.1473 59.1983 43.4131 56.3227C43.2487 55.6789 43.0784 55.0165 42.9063 54.3466C42.3141 52.0422 41.6992 49.6493 41.2198 47.6191L41.1211 47.2008L41.8948 46.9873Z" fill="#000229"/>
<path fill-rule="evenodd" clip-rule="evenodd" d="M29.4809 72.5142C27.7266 73.4318 26.4952 75.1044 26.4952 78.0068H25.6016C25.6016 74.8513 26.9681 72.8854 29.0379 71.8027L29.4809 72.5142Z" fill="#000229"/>
<path fill-rule="evenodd" clip-rule="evenodd" d="M16.6416 85.7619C16.8686 85.755 17.0581 85.9421 17.0647 86.1799C17.1454 89.0744 15.9499 91.2507 14.1138 92.7215C12.2916 94.1812 9.85159 94.9388 7.41443 95.0672C7.18754 95.0792 6.99436 94.8963 6.98295 94.6587C6.97154 94.4211 7.14621 94.2188 7.3731 94.2068C9.69021 94.0848 11.9566 93.3649 13.614 92.0373C15.2575 90.7207 16.3148 88.8 16.2424 86.205C16.2358 85.9672 16.4145 85.7688 16.6416 85.7619Z" fill="#000229"/>
<path fill-rule="evenodd" clip-rule="evenodd" d="M27.1645 2.21064C26.6174 2.39522 26.0468 2.7728 25.467 3.41798L25.4667 3.41832C24.7671 4.19521 24.3036 5.35637 23.9792 6.63903C23.6778 7.83102 23.5077 9.07865 23.3629 10.1407C23.3527 10.2153 23.3427 10.289 23.3327 10.3617C23.3015 10.5899 23.0906 10.7496 22.8617 10.7184C22.6328 10.6873 22.4726 10.4771 22.5039 10.2489C22.5141 10.1743 22.5245 10.0983 22.535 10.021C22.6787 8.96589 22.8547 7.67455 23.1681 6.4352C23.5027 5.11208 24.007 3.79108 24.8441 2.86144C25.4971 2.1347 26.1837 1.66119 26.8963 1.42078C27.6121 1.1793 28.3281 1.1819 29.0214 1.36736C30.3889 1.73315 31.6626 2.80747 32.7609 4.10886C34.9636 6.71891 36.6494 10.4707 37.1258 12.3254L37.126 12.3263C37.3678 13.2766 37.2065 14.467 36.8541 15.6788C36.4979 16.9032 35.9293 18.2064 35.2952 19.4111C34.6606 20.6166 33.9541 21.7355 33.3152 22.5919C32.9961 23.0196 32.6893 23.3879 32.4128 23.6705C32.1489 23.9402 31.8726 24.1743 31.6131 24.2771C30.4188 24.7511 29.0337 24.4105 27.877 23.7623C26.7132 23.1101 25.6798 22.0929 25.1685 21.0472C25.0674 20.8402 25.1537 20.5906 25.3613 20.4897C25.569 20.3888 25.8193 20.4749 25.9205 20.6819C26.3431 21.5463 27.2404 22.449 28.287 23.0354C29.3408 23.626 30.4457 23.8429 31.3037 23.5024L31.304 23.5023C31.3873 23.4693 31.5592 23.3486 31.814 23.0883C32.0562 22.8407 32.3386 22.5035 32.644 22.0942C33.2541 21.2765 33.9379 20.195 34.5544 19.0236C35.1714 17.8515 35.7147 16.6016 36.0507 15.4465C36.3903 14.2788 36.5014 13.2634 36.3152 12.5314C35.8673 10.7885 34.2364 7.15245 32.1208 4.64569C31.0597 3.38849 29.9236 2.47205 28.8046 2.17274C28.2547 2.02565 27.7085 2.02711 27.1645 2.21064Z" fill="#000229"/>
<path fill-rule="evenodd" clip-rule="evenodd" d="M22.5024 14.4955C22.1854 20.1208 22.1575 25.7803 22.4189 31.4134L21.9052 31.4781C21.6416 25.7973 21.6698 20.09 21.9895 14.417L22.5024 14.4955Z" fill="#000229"/>
<path fill-rule="evenodd" clip-rule="evenodd" d="M30.7032 26.5058C30.5691 25.5993 30.4398 24.725 30.2598 23.9183L31.0457 23.7217C31.2331 24.5615 31.3704 25.4892 31.5068 26.4113C31.5646 26.8018 31.6222 27.1913 31.6835 27.5727C31.8929 28.8775 32.1467 30.1091 32.5873 31.1177L31.8544 31.4767C31.3654 30.3575 31.0981 29.0288 30.8873 27.716C30.8219 27.3084 30.7621 26.904 30.7032 26.5058Z" fill="#000229"/>
<path fill-rule="evenodd" clip-rule="evenodd" d="M21.869 8.99427C22.5892 9.0651 23.299 9.67463 23.9834 10.8259C24.1093 11.0376 24.0612 11.3258 23.876 11.4697C23.6908 11.6135 23.4387 11.5586 23.3128 11.3469C22.6774 10.278 22.1545 9.95262 21.7995 9.9177C21.4627 9.88457 21.1249 10.1025 20.8225 10.5836C20.5229 11.0601 20.3124 11.72 20.2382 12.3514C20.1615 13.0049 20.2437 13.5019 20.3975 13.7371C20.6289 14.0796 21.004 14.2471 21.4559 14.2632C21.9098 14.2795 22.3836 14.1378 22.7168 13.9404C22.9156 13.8227 23.1603 13.9115 23.2633 14.1387C23.3663 14.366 23.2886 14.6457 23.0898 14.7634C22.6405 15.0295 22.0302 15.2111 21.4305 15.1896C20.8296 15.1681 20.1823 14.9374 19.7536 14.3004L19.7511 14.2967L19.7512 14.2967C19.4013 13.766 19.3487 12.9599 19.4346 12.2281C19.5234 11.4726 19.7742 10.6628 20.1641 10.0427C20.5511 9.42713 21.1308 8.92165 21.869 8.99427Z" fill="#000229"/>
<path fill-rule="evenodd" clip-rule="evenodd" d="M40.9705 1.23914C40.7054 0.664189 40.1235 0.486966 39.5587 0.460745C38.9696 0.433391 38.2336 0.558982 37.4232 0.77695C35.7954 1.21478 33.7521 2.058 31.7395 2.99229C28.1012 4.68114 24.4989 6.69803 23.5048 7.25461L23.2773 7.38154L23.6469 8.21208C23.692 8.18732 23.771 8.14308 23.8807 8.08167L32.0607 3.8473L37.6193 1.67754L39.5239 1.38652L40.2287 1.66192C40.3066 1.83048 40.3042 1.97066 40.2448 2.12041C40.1762 2.29346 40.0219 2.49802 39.758 2.72283C39.2312 3.17179 38.4018 3.59009 37.4862 3.94999C37.0232 4.13198 36.5478 4.29541 36.0934 4.43791C35.6584 4.57438 35.2427 4.69165 34.8759 4.78766C34.5016 4.88564 34.1804 4.96088 33.9443 5.01134C33.826 5.03662 33.7307 5.05533 33.6617 5.0675C33.6196 5.07493 33.5949 5.07848 33.5831 5.08018C33.5772 5.08103 33.5745 5.08141 33.5745 5.08158C33.5745 5.08172 33.5764 5.08172 33.5797 5.08171L33.5819 5.08171V6.00829C33.642 6.00829 33.7267 5.99421 33.7924 5.98263C33.873 5.96839 33.9777 5.94775 34.1016 5.92126C34.35 5.86819 34.6824 5.79023 35.067 5.68957C35.8351 5.48852 36.8203 5.19456 37.7641 4.82356C38.6987 4.4562 39.6304 3.9991 40.2652 3.45818C40.5822 3.18805 40.8589 2.86906 41.0076 2.49414C41.1655 2.09593 41.1664 1.66314 40.9705 1.23914Z" fill="#000229"/>
<path fill-rule="evenodd" clip-rule="evenodd" d="M22.3903 11.4592C22.5449 11.6412 22.5339 11.9245 22.3658 12.0919C21.8818 12.5737 21.2527 12.8489 20.5954 12.866C20.3671 12.872 20.1775 12.6764 20.172 12.4292C20.1665 12.1819 20.3471 11.9767 20.5755 11.9707C21.0323 11.9587 21.4696 11.7675 21.8059 11.4326C21.9741 11.2652 22.2357 11.2771 22.3903 11.4592Z" fill="#000229"/>
<path d="M28.3176 15.1929C28.5319 15.1929 28.7055 15.0192 28.7055 14.8049C28.7055 14.5907 28.5319 14.417 28.3176 14.417C28.1034 14.417 27.9297 14.5907 27.9297 14.8049C27.9297 15.0192 28.1034 15.1929 28.3176 15.1929Z" fill="#000229"/>
<path d="M33.7493 15.1929C33.9635 15.1929 34.1372 15.0192 34.1372 14.8049C34.1372 14.5907 33.9635 14.417 33.7493 14.417C33.535 14.417 33.3613 14.5907 33.3613 14.8049C33.3613 15.0192 33.535 15.1929 33.7493 15.1929Z" fill="#000229"/>
<path fill-rule="evenodd" clip-rule="evenodd" d="M31.939 12.9071C32.1731 13.009 32.2699 13.2601 32.1552 13.468C31.9552 13.8305 31.9524 14.3646 32.066 15.0117C32.121 15.3251 32.1989 15.6438 32.2783 15.9567C32.2898 16.002 32.3014 16.0474 32.3129 16.0927C32.3798 16.3545 32.446 16.6141 32.4926 16.8468L32.4931 16.8495L32.4936 16.8521C32.5269 17.0321 32.5685 17.2719 32.5824 17.5198C32.5961 17.7629 32.5856 18.0465 32.4925 18.3053C32.3959 18.5739 32.1969 18.846 31.8235 18.9829C31.4697 19.1127 31.05 19.0866 30.59 18.9578C30.3413 18.8882 30.2033 18.6527 30.2818 18.4319C30.3602 18.2111 30.6254 18.0885 30.8741 18.1582C31.2321 18.2585 31.3998 18.2312 31.4629 18.208C31.5064 18.1921 31.5538 18.1594 31.593 18.0502C31.6358 17.9312 31.6507 17.7639 31.6393 17.5616C31.6283 17.3651 31.5947 17.166 31.5623 16.9908C31.52 16.7799 31.4598 16.5439 31.3929 16.2817C31.3812 16.2357 31.3692 16.1888 31.3571 16.1411C31.2773 15.8267 31.1932 15.4843 31.133 15.1408C31.0159 14.4742 30.9692 13.7116 31.3072 13.0991C31.422 12.8912 31.7048 12.8052 31.939 12.9071Z" fill="#000229"/>
<path fill-rule="evenodd" clip-rule="evenodd" d="M67.5688 130.669C65.788 120.744 63.4435 110.929 60.5468 101.272L59.7402 101.517C62.6615 111.255 65.0193 121.156 66.8019 131.168L66.864 131.517H76.0333V130.669H67.5688Z" fill="#000229"/>
<path fill-rule="evenodd" clip-rule="evenodd" d="M75.6856 131.048C75.7361 130.837 75.959 130.704 76.1835 130.752C76.3215 130.781 76.5166 130.852 76.7285 130.935C76.9511 131.023 77.2286 131.138 77.5466 131.27C77.5707 131.28 77.595 131.29 77.6196 131.3C78.2471 131.562 79.0362 131.89 79.9237 132.227C81.7742 132.93 84.0214 133.657 86.072 133.883L86.0727 133.884C87.1395 134.003 88.2261 134.347 88.9907 135.025C89.7776 135.724 90.1769 136.737 89.9216 138.074C89.8861 138.26 89.7145 138.396 89.5136 138.397L67.1413 138.497C66.9112 138.498 66.7238 138.323 66.7227 138.107C66.7216 137.89 66.9072 137.714 67.1373 137.713L89.1489 137.614C89.2429 136.69 88.927 136.047 88.4192 135.596C87.8322 135.075 86.9424 134.771 85.9746 134.663C83.8105 134.424 81.4797 133.664 79.6121 132.955C78.7116 132.613 77.9116 132.28 77.2849 132.019C77.2595 132.008 77.2345 131.998 77.2097 131.988C76.8896 131.854 76.6209 131.743 76.4084 131.66C76.1854 131.572 76.0564 131.529 76.0006 131.517C75.7761 131.47 75.6351 131.26 75.6856 131.048Z" fill="#000229"/>
<path fill-rule="evenodd" clip-rule="evenodd" d="M90 140.34C90 140.607 89.8134 140.823 89.5831 140.823H67.1411C66.9109 140.823 66.7242 140.607 66.7242 140.34V138.205C66.7242 137.938 66.9109 137.721 67.1411 137.721H89.5831C89.8134 137.721 90 137.938 90 138.205V140.34ZM89.1663 139.857V138.688H67.5579V139.857H89.1663Z" fill="#000229"/>
<path fill-rule="evenodd" clip-rule="evenodd" d="M66.7227 138.497V130.742H67.4985V138.497H66.7227Z" fill="#000229"/>
<path d="M41.9336 113.678C42.3448 114.963 43.4216 120.016 45.6143 123.275C46.6716 124.86 47.1121 126.873 45.4381 128.259C45.304 128.371 45.1326 128.426 44.9594 128.413C44.7863 128.4 44.6247 128.32 44.5082 128.189L30.4216 111.854C30.3077 111.72 30.2501 111.545 30.2611 111.368C30.2721 111.191 30.3508 111.026 30.4803 110.907L35.3064 106.701" fill="#CAD7E4"/>
<path fill-rule="evenodd" clip-rule="evenodd" d="M31.1763 111.391L35.9789 107.33L35.4336 106.701L30.6222 110.769L30.6184 110.773C30.4078 110.96 30.2798 111.221 30.2619 111.5C30.2441 111.779 30.3378 112.054 30.5229 112.266L44.5595 128.058L44.5616 128.06C44.75 128.266 45.0113 128.392 45.2913 128.412C45.571 128.433 45.8479 128.346 46.0646 128.17C47.0037 127.416 47.3638 126.468 47.326 125.498C47.289 124.549 46.8743 123.605 46.3214 122.801L46.3204 122.8C45.2619 121.273 44.4623 119.309 43.8738 117.551C43.5806 116.675 43.3419 115.857 43.1504 115.178C43.0988 114.995 43.0503 114.82 43.0047 114.657C42.8835 114.222 42.7838 113.864 42.7067 113.63L41.9093 113.886C41.98 114.101 42.0714 114.429 42.1895 114.853C42.2362 115.021 42.2871 115.203 42.3425 115.4C42.5356 116.084 42.7784 116.917 43.0776 117.811C43.6738 119.592 44.5025 121.644 45.6279 123.267C46.128 123.994 46.4591 124.789 46.488 125.53C46.516 126.25 46.262 126.944 45.5345 127.528L45.5326 127.53C45.4823 127.571 45.4179 127.591 45.3529 127.586C45.2887 127.582 45.2287 127.553 45.1851 127.506L31.1577 111.725C31.1574 111.725 31.1571 111.724 31.1568 111.724C31.1157 111.676 31.0949 111.615 31.0989 111.552C31.1028 111.491 31.1306 111.433 31.1763 111.391Z" fill="#000229"/>
<path fill-rule="evenodd" clip-rule="evenodd" d="M26.81 19.0717C27.079 19.0503 27.3237 19.1752 27.3565 19.3508C27.4178 19.6777 27.7977 19.8682 28.3426 19.9464C28.6099 19.9847 28.8829 19.9885 29.1022 19.9689C29.2115 19.9591 29.2972 19.9444 29.3566 19.9295C29.3936 19.9202 29.4111 19.9131 29.4159 19.9111C29.6007 19.787 29.9044 19.781 30.1004 19.8991C30.2995 20.0191 30.3119 20.2217 30.1281 20.3517C30.006 20.438 29.8484 20.4922 29.7096 20.5271C29.5642 20.5637 29.4018 20.5886 29.2354 20.6035C28.9031 20.6332 28.5136 20.6268 28.132 20.572C27.379 20.464 26.5153 20.1369 26.3826 19.4285C26.3497 19.2529 26.5411 19.0932 26.81 19.0717Z" fill="#000229"/>
<path fill-rule="evenodd" clip-rule="evenodd" d="M14.8377 47.7811C15.058 47.8501 15.18 48.0822 15.1102 48.2996C14.0734 51.528 12.9102 55.1733 12.0719 58.1366C11.6525 59.6193 11.3168 60.9226 11.1189 61.9139C11.0197 62.4105 10.9572 62.8183 10.9344 63.1261C10.923 63.2802 10.9223 63.4001 10.9295 63.4886C10.9349 63.5566 10.9439 63.59 10.947 63.6007C10.9537 63.6082 10.9799 63.6386 11.0467 63.6922C11.1313 63.76 11.2531 63.843 11.4154 63.9408C11.7393 64.136 12.1926 64.3709 12.7587 64.6391C13.8889 65.1746 15.4352 65.8269 17.2183 66.5378C20.7825 67.9587 25.268 69.6038 29.2073 71.0006C29.4248 71.0777 29.5377 71.3142 29.4596 71.5289C29.3815 71.7435 29.1418 71.855 28.9243 71.7779C24.9808 70.3797 20.4837 68.7304 16.9048 67.3036C15.1163 66.5906 13.5508 65.9306 12.3965 65.3838C11.8203 65.1108 11.3381 64.8621 10.9792 64.6458C10.8002 64.5379 10.6438 64.4333 10.5191 64.3334C10.4041 64.2412 10.2772 64.123 10.2031 63.9809C10.133 63.8463 10.1062 63.6917 10.0951 63.554C10.0835 63.4091 10.0865 63.2441 10.0997 63.0661C10.126 62.7098 10.1957 62.2646 10.2977 61.7541C10.5021 60.7311 10.8446 59.4033 11.2658 57.9145C12.1087 54.935 13.2763 51.276 14.3124 48.05C14.3822 47.8326 14.6174 47.7122 14.8377 47.7811Z" fill="#000229"/>
<path fill-rule="evenodd" clip-rule="evenodd" d="M72.6033 77.7911C72.095 77.5982 71.5904 77.4163 71.0784 77.2541L71.3282 76.4561C71.8605 76.6246 72.3809 76.8124 72.8976 77.0085L72.8989 77.009C78.4457 79.1371 80.4411 86.2855 75.708 90.5727C74.8375 91.3609 72.3932 93.1351 69.2238 95.347C66.0421 97.5675 62.0999 100.249 58.2086 102.864C54.317 105.478 50.4749 108.025 47.4927 109.977C44.5261 111.919 42.3792 113.293 41.9043 113.537L41.625 113.68L34.916 106.449L35.1847 106.164L35.4867 106.451C35.1847 106.164 35.1846 106.164 35.1847 106.164L35.3338 106.005C35.4314 105.901 35.5754 105.749 35.7606 105.552C36.131 105.159 36.6664 104.591 37.3263 103.892C38.6462 102.494 40.4645 100.571 42.4577 98.4725C46.4431 94.2761 51.1321 89.3716 53.9359 86.5511L54.524 87.1427C51.728 89.9554 47.0454 94.8531 43.0591 99.0505C41.0666 101.149 39.2489 103.071 37.9294 104.468C37.2697 105.167 36.7345 105.735 36.3642 106.128C36.2442 106.255 36.1415 106.364 36.0575 106.453L41.7959 112.638C42.5471 112.192 44.4587 110.965 47.0391 109.276C50.0182 107.326 53.8575 104.78 57.7467 102.168C61.636 99.555 65.5736 96.8761 68.7497 94.6595C71.938 92.4344 74.3295 90.6951 75.1515 89.9509C79.3545 86.1437 77.6558 79.7302 72.6033 77.7911Z" fill="#000229"/>
<path fill-rule="evenodd" clip-rule="evenodd" d="M32.215 13.1298L31.9958 12.6998C31.8081 12.853 31.7541 13.1697 31.8752 13.4072C31.9962 13.6446 32.2463 13.7129 32.434 13.56M32.4342 13.5598L32.4345 13.5596L32.4426 13.5532C32.4506 13.547 32.4635 13.5372 32.4809 13.5245C32.5158 13.4991 32.5681 13.4627 32.6339 13.4218C32.767 13.3392 32.9479 13.2429 33.1467 13.1799C33.5556 13.0502 33.9368 13.085 34.2075 13.47C34.356 13.6811 34.6116 13.6999 34.7784 13.512C34.9453 13.3241 34.9601 13.0007 34.8117 12.7896C34.2455 11.9845 33.4793 12.0193 32.9501 12.1872C32.6799 12.2729 32.4441 12.3997 32.2777 12.503C32.1938 12.5551 32.1257 12.6024 32.0775 12.6375C32.0535 12.655 32.0343 12.6696 32.0205 12.6802C32.0136 12.6856 32.008 12.6899 32.0039 12.6932L31.9987 12.6974L31.997 12.6988L31.9963 12.6993L31.996 12.6996C31.9959 12.6997 31.9958 12.6998 32.215 13.1298" fill="#000229"/>
<path fill-rule="evenodd" clip-rule="evenodd" d="M28.708 13.4406C28.3734 13.4406 28.0438 13.4979 27.7469 13.6077C27.5486 13.681 27.3045 13.6258 27.2017 13.4845C27.0989 13.3432 27.1763 13.1693 27.3745 13.096C27.7865 12.9437 28.2439 12.8643 28.708 12.8643C29.1721 12.8643 29.6294 12.9437 30.0414 13.096C30.2396 13.1693 30.317 13.3432 30.2142 13.4845C30.1114 13.6258 29.8673 13.681 29.6691 13.6077C29.3721 13.4979 29.0425 13.4406 28.708 13.4406Z" fill="#000229"/>
<path fill-rule="evenodd" clip-rule="evenodd" d="M43.8693 129.961C43.6945 130.113 43.4294 130.095 43.2773 129.92L28.446 112.884C28.2939 112.71 28.3123 112.445 28.4871 112.293L29.8859 111.076C30.0608 110.924 30.3258 110.942 30.478 111.117L45.3092 128.152C45.4614 128.327 45.443 128.592 45.2681 128.744L43.8693 129.961ZM43.6349 129.053L44.4006 128.387L30.1203 111.984L29.3547 112.65L43.6349 129.053Z" fill="#000229"/>
<path fill-rule="evenodd" clip-rule="evenodd" d="M55.1401 4.71978C55.1078 4.75196 55.0814 5.08829 55.0814 5.46718V6.15594H56.796H58.5107V6.62944V7.10294L57.7873 7.20872C55.8626 7.49009 54.1203 8.36218 52.7549 9.72764C49.9573 12.5252 49.2678 16.7899 51.0418 20.3223C52.1696 22.5677 54.1055 24.1666 56.6392 24.9455L57.4115 25.1829L58.9943 25.1879L60.577 25.1927L61.1925 25.0261C61.531 24.9345 62.0691 24.7532 62.3882 24.6234L62.9684 24.3874L63.5152 24.7181C64.1912 25.1268 64.9053 25.3728 65.8235 25.5134L66.5284 25.6213L67.2726 25.5136C69.2566 25.2268 70.9114 24.0977 71.7719 22.4436C72.7013 20.6572 72.7337 18.7803 71.8663 16.9825L71.5002 16.2239L70.7429 15.4722C69.9441 14.6792 69.224 14.2341 68.2508 13.9316L67.7471 13.775L67.5995 13.3305C67.0015 11.5301 65.6521 9.72333 64.149 8.71029C63.2476 8.10287 62.0425 7.57609 61.0876 7.37209C60.6133 7.2708 60.1759 7.1746 60.1154 7.15833C60.0442 7.13917 60.0055 6.95697 60.0055 6.64227V6.15594H61.5003H62.9951V5.40853V4.66113H59.0969C56.9528 4.66113 55.1722 4.68751 55.1401 4.71978ZM59.9845 13.7247L60.0075 17.1167L58.2105 18.5608C57.222 19.3551 56.3732 20.0049 56.3241 20.0049C56.2357 20.0049 55.4328 19.0241 55.4336 18.9172C55.4337 18.8867 56.1254 18.3078 56.9706 17.6308L58.5072 16.3997L58.5089 13.3946L58.5107 10.3895L58.6645 10.3552C58.7492 10.3364 59.0756 10.3236 59.39 10.3268L59.9615 10.3326L59.9845 13.7247ZM68.2416 14.4947C70.0721 15.127 71.4173 16.6335 71.8374 18.5214L71.9881 19.1987L71.9383 19.9661C71.813 21.9004 70.6588 23.6179 68.9303 24.4417C68.0225 24.8744 67.5295 24.9869 66.5497 24.9848C65.5601 24.9828 65.0881 24.8731 64.147 24.4264L63.4085 24.0758L62.7827 23.4472C61.6781 22.3374 61.1968 21.1555 61.2024 19.5652L61.2057 18.598L61.4347 17.953C61.7477 17.0714 62.148 16.43 62.787 15.7863C63.3933 15.1754 64.4208 14.5887 65.251 14.3793C65.9967 14.1911 67.5346 14.2506 68.2416 14.4947ZM66.3866 16.406C66.3106 16.482 66.2485 16.6518 66.2485 16.7835V17.0227L65.8324 17.134C65.3384 17.2661 64.8919 17.5861 64.7096 17.9387C64.6372 18.0788 64.5778 18.4102 64.5778 18.6748V19.1561L64.8081 19.4297C65.1107 19.7892 65.401 19.9313 66.2733 20.1467C67.3269 20.4069 67.5913 20.6278 67.2534 20.9658C67.0578 21.1614 66.1514 21.1414 65.545 20.9281C65.279 20.8346 65.0193 20.7567 64.9678 20.7552C64.8448 20.7514 64.5778 21.3168 64.5778 21.581V21.7883L64.9075 21.9196C65.0889 21.9918 65.4648 22.0978 65.7429 22.1552L66.2485 22.2595V22.435C66.2485 22.7502 66.4163 22.9505 66.6805 22.9505C66.9748 22.9505 67.1011 22.8227 67.142 22.4837L67.1717 22.2367L67.6796 22.0309C68.3068 21.7768 68.4134 21.6899 68.6387 21.2483L68.8179 20.8971L68.7766 20.468L68.7354 20.0389L68.4438 19.7381C68.1503 19.4352 67.8272 19.2989 66.776 19.034C66.1347 18.8724 65.9847 18.7803 65.9847 18.5482C65.9847 18.119 66.7989 17.9914 67.6541 18.2866L68.1366 18.4532L68.2029 18.3497C68.2394 18.2928 68.3349 18.0763 68.4154 17.8685L68.5616 17.4907L68.4624 17.3914C68.4078 17.3368 68.0956 17.2248 67.7687 17.1425L67.1744 16.9928L67.1212 16.7326C67.0919 16.5894 67.0395 16.4263 67.0047 16.3701C66.9138 16.223 66.5484 16.2443 66.3866 16.406Z" fill="#040829"/>
</svg>
