<svg width="32" height="32" viewBox="0 0 32 32" fill="none" xmlns="http://www.w3.org/2000/svg">
<path d="M32 16C32 18.1012 31.5861 20.1817 30.7821 22.1229C29.978 24.0641 28.7994 25.828 27.3137 27.3137C25.828 28.7994 24.0641 29.978 22.1229 30.7821C20.1817 31.5861 18.1011 32 16 32C13.8989 32 11.8183 31.5861 9.87707 30.7821C7.93586 29.978 6.17203 28.7994 4.68629 27.3137C3.20056 25.828 2.022 24.0641 1.21793 22.1229C0.413853 20.1817 2.38241e-07 18.1012 0 16C0 13.8989 0.413852 11.8183 1.21793 9.87707C2.022 7.93586 3.20055 6.17203 4.68629 4.68629C6.17203 3.20055 7.93586 2.022 9.87707 1.21793C11.8183 0.413851 13.8989 -4.76481e-07 16 0C18.1012 -5.29423e-07 20.1817 0.413851 22.1229 1.21793C24.0641 2.022 25.828 3.20055 27.3137 4.68629C28.7994 6.17203 29.978 7.93586 30.7821 9.87707C31.5861 11.8183 32 13.8989 32 16Z" fill="url(#paint0_linear)"/>
<path d="M17.7877 8.70691C15.8079 8.70691 14.4521 9.91493 14.4521 12.1342V14.0468H12.2124V16.6407H14.4521V23.2931H17.1293V16.6407H19.3628L19.6982 14.0468H17.1293V12.3905C17.1293 11.6397 17.3383 11.1279 18.4148 11.1279H19.7878V8.809C19.5504 8.77738 18.736 8.70691 17.7877 8.70691V8.70691Z" fill="white"/>
<defs>
<linearGradient id="paint0_linear" x1="28.928" y1="25.856" x2="6.40001" y2="3.328" gradientUnits="userSpaceOnUse">
<stop stop-color="#003C96"/>
<stop offset="1" stop-color="#0087CB"/>
</linearGradient>
</defs>
</svg>
