<svg width="31" height="32" viewBox="0 0 31 32" fill="none" xmlns="http://www.w3.org/2000/svg">
<g clip-path="url(#clip0)">
<path d="M31 16C31 18.1012 30.5991 20.1817 29.8201 22.1229C29.0412 24.0641 27.8995 25.828 26.4602 27.3137C25.0208 28.7994 23.3121 29.978 21.4316 30.7821C19.551 31.5861 17.5355 32 15.5 32C13.4645 32 11.449 31.5861 9.56841 30.7821C7.68786 29.978 5.97915 28.7994 4.53985 27.3137C3.10054 25.828 1.95882 24.0641 1.17987 22.1229C0.40092 20.1817 2.30796e-07 18.1012 0 16C0 13.8989 0.400919 11.8183 1.17987 9.87707C1.95882 7.93586 3.10054 6.17203 4.53985 4.68629C5.97915 3.20055 7.68786 2.022 9.56841 1.21793C11.449 0.413851 13.4645 -4.76481e-07 15.5 0C17.5355 -4.23539e-07 19.551 0.413851 21.4316 1.21793C23.3121 2.022 25.0208 3.20055 26.4602 4.68629C27.8995 6.17203 29.0412 7.93586 29.8201 9.87707C30.5991 11.8183 31 13.8989 31 16Z" fill="url(#paint0_linear)"/>
<path d="M12.293 8.15759C9.86154 8.15759 7.88428 10.1998 7.88428 12.7096V19.2915C7.88428 21.8014 9.86154 23.8424 12.293 23.8424H18.7074C21.1388 23.8424 23.116 21.8014 23.116 19.2915V12.7096C23.116 10.1998 21.1388 8.15759 18.7074 8.15759H12.293ZM12.293 9.50598H18.7074C20.4379 9.50598 21.8109 10.9233 21.8109 12.7096V19.2915C21.8109 21.0778 20.4379 22.4941 18.7074 22.4941H12.293C10.5625 22.4941 9.19051 21.0778 9.19051 19.2915V12.7096C9.19051 10.9233 10.5625 9.50598 12.293 9.50598ZM19.588 10.8544C19.0834 10.8544 18.6746 11.2763 18.6746 11.7972C18.6746 12.3181 19.0834 12.74 19.588 12.74C20.0926 12.74 20.5014 12.3181 20.5014 11.7972C20.5014 11.2763 20.0926 10.8544 19.588 10.8544ZM15.5002 11.9617C13.3471 11.9617 11.588 13.7775 11.588 16C11.588 18.2225 13.3471 20.0384 15.5002 20.0384C17.6532 20.0384 19.4134 18.2225 19.4134 16C19.4134 13.7775 17.6532 11.9617 15.5002 11.9617ZM15.5002 13.31C16.9474 13.31 18.1072 14.5061 18.1072 16C18.1072 17.4939 16.9474 18.69 15.5002 18.69C14.053 18.69 12.8942 17.4939 12.8942 16C12.8942 14.5061 14.053 13.31 15.5002 13.31Z" fill="white"/>
</g>
<defs>
<linearGradient id="paint0_linear" x1="28.9462" y1="28.12" x2="1.40014" y2="1.4347" gradientUnits="userSpaceOnUse">
<stop stop-color="#FF0066"/>
<stop offset="1" stop-color="#FFCC00"/>
</linearGradient>
<clipPath id="clip0">
<rect width="31" height="32" fill="white"/>
</clipPath>
</defs>
</svg>
