<svg width="32" height="32" viewBox="0 0 32 32" fill="none" xmlns="http://www.w3.org/2000/svg">
<g clip-path="url(#clip0)">
<path d="M32 16C32 18.1012 31.5861 20.1817 30.7821 22.1229C29.978 24.0641 28.7994 25.828 27.3137 27.3137C25.828 28.7994 24.0641 29.978 22.1229 30.7821C20.1817 31.5861 18.1011 32 16 32C13.8989 32 11.8183 31.5861 9.87707 30.7821C7.93586 29.978 6.17203 28.7994 4.68629 27.3137C3.20056 25.828 2.022 24.0641 1.21793 22.1229C0.413853 20.1817 2.38241e-07 18.1012 0 16C0 13.8989 0.413852 11.8183 1.21793 9.87707C2.022 7.93586 3.20055 6.17203 4.68629 4.68629C6.17203 3.20055 7.93586 2.022 9.87707 1.21793C11.8183 0.413851 13.8989 -5.02952e-07 16 0C18.1012 -3.97067e-07 20.1817 0.413851 22.1229 1.21793C24.0641 2.022 25.828 3.20055 27.3137 4.68629C28.7994 6.17203 29.978 7.93586 30.7821 9.87707C31.5861 11.8183 32 13.8989 32 16Z" fill="url(#paint0_linear)"/>
<path d="M10.6453 9.67712C10.1323 9.67712 9.71582 10.0817 9.71582 10.5819V21.4183C9.71582 21.9188 10.1323 22.3231 10.6453 22.3231H21.3549C21.8679 22.3231 22.2844 21.9188 22.2844 21.4183V10.5819C22.2844 10.0817 21.8679 9.67712 21.3549 9.67712H10.6453ZM12.5886 11.8001C13.2381 11.8001 13.636 12.2254 13.6483 12.7858C13.6483 13.3339 13.2366 13.7716 12.5746 13.7716H12.5637C11.9266 13.7716 11.5145 13.3339 11.5145 12.7858C11.5145 12.2254 11.9389 11.8001 12.5883 11.8001H12.5886ZM18.1864 14.4194C19.4354 14.4194 20.3692 15.2351 20.3692 16.9894V20.2636H18.4716V17.2077C18.4716 16.4399 18.1974 15.9156 17.5104 15.9156C16.986 15.9156 16.6725 16.2717 16.5352 16.6127C16.4852 16.7347 16.4754 16.9032 16.4754 17.0739V20.2636H14.5742C14.5742 20.2636 14.5992 15.0891 14.5742 14.5532H16.4754V15.3594C16.7277 14.9702 17.1798 14.4194 18.1864 14.4194H18.1864ZM16.4754 15.3594C16.4705 15.3662 16.4657 15.3738 16.4614 15.3805H16.4754V15.3594ZM11.6275 14.5532H13.5251V20.2636H11.6275V14.5532Z" fill="white"/>
</g>
<defs>
<linearGradient id="paint0_linear" x1="28.928" y1="25.856" x2="6.40002" y2="3.328" gradientUnits="userSpaceOnUse">
<stop stop-color="#104596"/>
<stop offset="1" stop-color="#4484E5"/>
</linearGradient>
<clipPath id="clip0">
<rect width="32" height="32" fill="white"/>
</clipPath>
</defs>
</svg>
