<svg width="32" height="32" viewBox="0 0 32 32" fill="none" xmlns="http://www.w3.org/2000/svg">
<g clip-path="url(#clip0)">
<path d="M32 16C32 18.1012 31.5861 20.1817 30.7821 22.1229C29.978 24.0641 28.7994 25.828 27.3137 27.3137C25.828 28.7994 24.0641 29.978 22.1229 30.7821C20.1817 31.5861 18.1011 32 16 32C13.8989 32 11.8183 31.5861 9.87707 30.7821C7.93586 29.978 6.17203 28.7994 4.68629 27.3137C3.20056 25.828 2.022 24.0641 1.21793 22.1229C0.413853 20.1817 2.38241e-07 18.1012 0 16C0 13.8989 0.413852 11.8183 1.21793 9.87707C2.022 7.93586 3.20055 6.17203 4.68629 4.68629C6.17203 3.20055 7.93586 2.022 9.87707 1.21793C11.8183 0.413851 13.8989 -5.02952e-07 16 0C18.1012 -4.5001e-07 20.1817 0.413851 22.1229 1.21793C24.0641 2.022 25.828 3.20055 27.3137 4.68629C28.7994 6.17203 29.978 7.93586 30.7821 9.87707C31.5861 11.8183 32 13.8989 32 16Z" fill="url(#paint0_linear)"/>
<path d="M23.0698 11.6149C22.5498 11.8457 21.9906 12.0016 21.404 12.0719C22.0028 11.7127 22.4625 11.1443 22.6791 10.4671C22.1187 10.7997 21.4981 11.0409 20.8371 11.1709C20.3082 10.6073 19.5543 10.255 18.72 10.255C17.118 10.255 15.8195 11.5536 15.8195 13.1555C15.8195 13.383 15.845 13.6044 15.8946 13.8166C13.4838 13.6958 11.3465 12.5406 9.91585 10.7859C9.66617 11.2141 9.52314 11.7123 9.52314 12.244C9.52314 13.2505 10.035 14.1381 10.8136 14.6585C10.3381 14.6436 9.89076 14.5131 9.49967 14.2957C9.4991 14.3079 9.4991 14.3199 9.4991 14.3321C9.4991 15.7378 10.4991 16.9098 11.8259 17.1765C11.5827 17.2428 11.3265 17.2779 11.062 17.2779C10.8749 17.2779 10.6935 17.2602 10.516 17.2262C10.8854 18.3785 11.9564 19.2173 13.2259 19.2407C12.2324 20.0188 10.9819 20.4823 9.62281 20.4823C9.38884 20.4823 9.15776 20.4685 8.93066 20.4419C10.2149 21.2649 11.7393 21.7449 13.3776 21.7449C18.7128 21.7449 21.63 17.3252 21.63 13.4918C21.63 13.3661 21.6276 13.2413 21.6215 13.1169C22.188 12.7076 22.6797 12.1968 23.0688 11.615" fill="white"/>
</g>
<defs>
<linearGradient id="paint0_linear" x1="4.48002" y1="5.76" x2="26.9867" y2="28.2667" gradientUnits="userSpaceOnUse">
<stop stop-color="#00CCFF"/>
<stop offset="1" stop-color="#004ED1"/>
</linearGradient>
<clipPath id="clip0">
<rect width="32" height="32" fill="white"/>
</clipPath>
</defs>
</svg>
