<svg width="162" height="3" fill="none" xmlns="http://www.w3.org/2000/svg"><path d="M71.686 1.952c.429.475 1.324.727 2.92.825 9.733.594 81.455-.107 86.987-.85 3.882-.522-19.811-1.076-80.22-1.874C66.004-.151-4.525.283.23.55c.846.048 11.586.362 23.865.699 12.28.336 23.695.714 25.368.84 2.866.215 3.088.175 3.847-.699.8-.92.801-.92.221-.022l-.584.905 2.742.001c1.508 0 5.791.12 9.517.267 6.641.26 6.766.25 6.318-.504-.438-.739-.432-.742.162-.085z" fill="url(#paint0_linear)"/><defs><linearGradient id="paint0_linear" x1="243" y1="1.5" x2="242.889" y2="7.498" gradientUnits="userSpaceOnUse"><stop stop-color="#FFB23F"/><stop offset="1" stop-color="#F97E26"/></linearGradient></defs></svg>