<svg width="113" height="3" fill="none" xmlns="http://www.w3.org/2000/svg"><path d="M50.003 1.952c.3.475.924.727 2.037.825 6.789.594 56.818-.107 60.676-.85C115.424 1.404 98.898.85 56.76.052 46.04-.151-3.156.283.16.55c.59.048 8.082.362 16.647.699 8.566.336 16.528.714 17.695.84 2 .215 2.154.175 2.683-.699.558-.92.56-.92.155-.022l-.408.905 1.913.001c1.052 0 4.04.12 6.638.267 4.633.26 4.72.25 4.407-.504-.306-.739-.301-.742.113-.085z" fill="url(#paint0_linear)"/><defs><linearGradient id="paint0_linear" x1="169.5" y1="1.5" x2="169.341" y2="7.496" gradientUnits="userSpaceOnUse"><stop stop-color="#FFB23F"/><stop offset="1" stop-color="#F97E26"/></linearGradient></defs></svg>