<svg width="39" height="39" viewBox="0 0 39 39" fill="none" xmlns="http://www.w3.org/2000/svg"><path fill-rule="evenodd" clip-rule="evenodd" d="M11.616 10.616a1.25 1.25 0 011.768 0l15 15a1.25 1.25 0 01-1.768 1.768l-15-15a1.25 1.25 0 010-1.768z" fill="#040829"/><path fill-rule="evenodd" clip-rule="evenodd" d="M11.616 27.384a1.25 1.25 0 010-1.768l15-15a1.25 1.25 0 011.768 1.768l-15 15a1.25 1.25 0 01-1.768 0z" fill="#040829"/></svg>"evenodd" d="M11.6161 27.3839C11.128 26.8957 11.128 26.1043 11.6161 25.6161L26.6161 10.6161C27.1043 10.128 27.8957 10.128 28.3839 10.6161C28.872 11.1043 28.872 11.8957 28.3839 12.3839L13.3839 27.3839C12.8957 27.872 12.1043 27.872 11.6161 27.3839Z" fill="#040829"/>
</svg>
