<svg width="209" height="31" viewBox="0 0 209 31" fill="none" xmlns="http://www.w3.org/2000/svg"><path d="M19.02 0h-5.573c-1.135 0-2.417.246-3.896.688C3.734 2.507.43 7.275.035 14.452c-.493 8.356 4.192 14.451 11.835 15.533 1.923.295 4.092.393 6.558.393 2.07 0 4.19-.099 6.015-.197 5.72-.295 11.144-4.129 13.264-10.765l.296-.884c-1.331-.443-2.416-.934-3.6-1.72-.049.146-.098.245-.147.392-1.825 5.407-5.178 8.21-8.974 8.553-4.044.344-8.284.393-12.476.05-5.128-.394-9.023-5.26-8.974-11.257 0-4.916 4.34-9.782 9.073-10.175 3.353-.295 7.051-.344 10.996-.197 4.24.197 7.396 2.31 8.875 6.046 1.578 3.982 4.438 5.85 8.925 5.899h8.679c2.12 0 3.698 0 5.226.049 1.233 0 2.564.295 3.748.787 1.775.737 2.761 2.26 2.663 4.227-.099 1.966-1.135 3.44-2.86 4.08-1.38.491-2.663.737-3.846.786-2.22.05-4.685.05-7.693.05h-9.664c-1.134 1.72-2.219 3.047-3.452 4.177 1.775 0 3.501.05 5.276.05 2.318 0 6.115.049 8.432.049 3.649 0 6.608-.05 9.369-.197 4.684-.196 8.037-3.981 8.037-8.946 0-5.063-3.353-8.848-8.185-9.143-2.613-.197-5.424-.246-8.826-.246-2.17 0-4.34.05-6.51.05h-.147c-2.613 0-4.24-1.131-5.325-3.638C34.65 3.588 31.199.836 26.514.295 23.802.049 21.09 0 19.02 0z" fill="#001EFC"/><path d="M34.996.786c.986.738 2.071 1.967 2.91 3.589a11.573 11.573 0 012.218-.197h20.709c.346 0 .642 0 .938-.049V0h-9.665c-4.142 0-8.974 0-13.855.098-.888.05-2.318.295-3.255.688z" fill="#001EFC"/><path d="M84.134 14.343c-1.205-.645-2.169-1.611-2.892-2.74-.723-1.208-1.045-2.498-1.045-3.948 0-1.45.322-2.74 1.045-3.948.723-1.21 1.687-2.095 2.892-2.74C85.34.322 86.706 0 88.232 0c1.527 0 2.893.322 4.098.967s2.17 1.612 2.893 2.74c.723 1.128 1.044 2.498 1.044 3.948 0 1.45-.321 2.82-1.044 3.948-.723 1.129-1.688 2.095-2.893 2.74-1.205.645-2.571.967-4.098.967a9.02 9.02 0 01-4.098-.967zm6.83-2.176c.804-.483 1.447-1.047 1.848-1.853.482-.806.643-1.692.643-2.74 0-.967-.241-1.933-.643-2.74-.482-.805-1.044-1.45-1.848-1.853-.803-.483-1.687-.644-2.651-.644a5.87 5.87 0 00-2.652.644c-.803.484-1.446 1.048-1.848 1.854-.482.806-.643 1.692-.643 2.74 0 .966.241 1.933.643 2.74.482.805 1.045 1.45 1.848 1.852.804.484 1.687.645 2.652.645.964.08 1.848-.161 2.651-.645zm19.043-8.46v11.361h-2.572v-1.45c-.401.483-.964.886-1.607 1.208a6.018 6.018 0 01-2.089.403c-1.526 0-2.732-.402-3.616-1.289-.883-.886-1.285-2.095-1.285-3.787V3.626h2.651V9.75c0 1.047.241 1.773.724 2.256.482.484 1.125.725 1.928.725.964 0 1.687-.322 2.25-.886.562-.564.803-1.45.803-2.578V3.465h2.813v.242zm10.045-.162v2.578c-.241-.08-.402-.08-.643-.08-1.045 0-1.848.322-2.411.886-.562.645-.884 1.45-.884 2.579v5.56h-2.651V3.706h2.571v1.692c.723-1.208 2.089-1.853 4.018-1.853zm3.615 11.281c-1.045-.322-1.928-.725-2.571-1.289l.964-2.175a8.527 8.527 0 002.25 1.208 7.692 7.692 0 002.651.484c1.125 0 1.929-.161 2.491-.564.563-.323.804-.806.804-1.37 0-.403-.161-.806-.482-1.048a5.15 5.15 0 00-1.125-.644c-.482-.161-1.125-.323-1.929-.564a19.566 19.566 0 01-2.732-.806c-.723-.242-1.285-.725-1.848-1.29-.482-.563-.723-1.37-.723-2.336 0-.806.241-1.612.643-2.256a5.096 5.096 0 012.009-1.612c.884-.403 2.008-.564 3.294-.564.884 0 1.768.08 2.652.322a8.24 8.24 0 012.249.967l-.883 2.176c-.643-.403-1.366-.645-2.009-.886-.723-.162-1.366-.323-2.089-.323-1.125 0-1.929.161-2.411.564-.562.403-.803.887-.803 1.45 0 .404.16.806.482 1.048a5.09 5.09 0 001.125.645c.482.161 1.125.322 1.928.564 1.125.242 2.009.483 2.732.806.723.241 1.286.725 1.848 1.289.482.564.723 1.37.723 2.337 0 .806-.241 1.611-.643 2.256a5.099 5.099 0 01-2.008 1.611c-.884.403-2.009.565-3.295.565a15.67 15.67 0 01-3.294-.565zm22.898-11.119v11.361h-2.571v-1.45c-.402.483-.964.886-1.607 1.208a6.022 6.022 0 01-2.089.403c-1.527 0-2.732-.402-3.616-1.289-.884-.886-1.286-2.095-1.286-3.787V3.626h2.652V9.75c0 1.047.241 1.773.723 2.256.482.484 1.125.725 1.929.725.964 0 1.687-.322 2.249-.886.563-.564.804-1.45.804-2.578V3.465h2.812v.242zm12.697.563c.884.484 1.526 1.128 2.089 2.015.482.886.723 1.934.723 3.062s-.241 2.175-.723 3.062a5.233 5.233 0 01-2.089 2.095c-.884.483-1.848.725-2.973.725-1.527 0-2.732-.483-3.616-1.531v5.56h-2.652V3.706h2.572v1.531A3.42 3.42 0 01154.2 4.03a6.115 6.115 0 012.169-.403c1.045-.081 2.009.16 2.893.644zm-.804 7.736c.643-.645.964-1.531.964-2.579 0-1.047-.321-1.934-.964-2.578-.643-.645-1.446-.967-2.41-.967-.643 0-1.206.161-1.688.403a4.318 4.318 0 00-1.205 1.208 3.543 3.543 0 00-.482 1.854c0 .725.161 1.37.482 1.853.322.564.723.967 1.205 1.209.482.322 1.125.403 1.688.403.964.16 1.767-.162 2.41-.806zm15.429-7.736c.884.484 1.526 1.128 2.089 2.015.482.886.723 1.934.723 3.062s-.241 2.175-.723 3.062a5.233 5.233 0 01-2.089 2.095c-.884.483-1.848.725-2.973.725-1.527 0-2.732-.483-3.616-1.531v5.56h-2.652V3.706h2.572v1.531a3.42 3.42 0 011.607-1.208 6.12 6.12 0 012.169-.403c1.045-.081 2.009.16 2.893.644zm-.884 7.736c.643-.645.964-1.531.964-2.579 0-1.047-.321-1.934-.964-2.578-.643-.645-1.446-.967-2.411-.967-.642 0-1.205.161-1.687.403a4.305 4.305 0 00-1.205 1.208 3.534 3.534 0 00-.482 1.854c0 .725.16 1.37.482 1.853.321.564.723.967 1.205 1.209.482.322 1.125.403 1.687.403 1.045.16 1.848-.162 2.411-.806zm8.195 2.498c-.884-.483-1.607-1.209-2.17-2.095-.482-.886-.803-1.934-.803-2.981 0-1.128.241-2.095.803-2.982a4.966 4.966 0 012.17-2.095c.883-.483 1.928-.725 3.133-.725a6.9 6.9 0 013.134.725c.884.484 1.607 1.209 2.169 2.095.482.887.804 1.854.804 2.982 0 1.128-.241 2.095-.804 2.981a4.969 4.969 0 01-2.169 2.095c-.884.484-1.929.725-3.134.725a6.889 6.889 0 01-3.133-.725zm5.544-2.498c.643-.645.964-1.53.964-2.578 0-1.048-.321-1.934-.964-2.579-.643-.644-1.447-.967-2.411-.967s-1.767.323-2.41.967c-.643.645-.964 1.531-.964 2.579 0 1.047.321 1.933.964 2.578.643.645 1.446.967 2.41.967.964 0 1.768-.322 2.411-.967zm12.774-8.461v2.578c-.241-.08-.401-.08-.642-.08-1.045 0-1.848.322-2.411.886-.562.645-.884 1.45-.884 2.579v5.56h-2.651V3.706h2.571v1.692c.723-1.208 2.089-1.853 4.017-1.853zm9.481 10.959c-.321.242-.723.484-1.125.564-.482.161-.884.161-1.446.161-1.286 0-2.25-.322-2.893-.967-.643-.644-1.044-1.611-1.044-2.82v-5.48h-1.848V3.869h1.848v-2.58h2.651v2.579h3.054v2.095h-3.054v5.398c0 .564.161.967.402 1.29.241.322.643.403 1.205.403.563 0 1.125-.162 1.527-.484l.723 1.934zm-92.883 10.394h-2.089v-.967h5.304v.967h-2.009v5.319h-1.206v-5.319zm4.018 5.239c-.402-.081-.643-.242-.884-.403l.402-.887c.241.161.482.242.803.322.322.081.563.162.884.162.643 0 1.045-.162 1.045-.564 0-.162-.081-.323-.241-.323-.161-.08-.482-.16-.804-.16a8.297 8.297 0 01-.964-.243 1.752 1.752 0 01-.643-.402c-.161-.162-.241-.484-.241-.806 0-.484.161-.806.563-1.128.401-.242.883-.403 1.526-.403.322 0 .643 0 .964.08.322.08.563.162.804.323l-.402.886c-.402-.242-.884-.322-1.366-.322-.321 0-.562.08-.723.16a.443.443 0 00-.241.404c0 .16.08.322.241.403.161.08.482.16.884.241a8.3 8.3 0 01.964.242c.241.08.482.242.643.403.161.161.241.483.241.806 0 .483-.161.806-.562 1.047-.402.242-.884.403-1.607.403a35.81 35.81 0 01-1.286-.241zm5.144-.162c-.402-.242-.724-.483-.884-.886-.241-.403-.322-.806-.322-1.29 0-.483.081-.886.322-1.289.241-.403.562-.644.884-.886.401-.242.803-.322 1.285-.322.482 0 .964.08 1.286.322.402.242.723.483.884.886.241.403.321.806.321 1.29 0 .483-.08.886-.321 1.289-.241.403-.563.644-.884.886-.402.242-.804.322-1.286.322s-.884-.16-1.285-.322zm2.33-1.128c.241-.242.401-.645.401-1.128 0-.484-.16-.806-.401-1.128-.241-.242-.643-.403-1.045-.403-.402 0-.723.161-1.044.403-.241.241-.402.644-.402 1.128 0 .483.161.806.402 1.128.241.242.642.403 1.044.403.482.08.804-.08 1.045-.403zm2.65-5.318h1.125v6.688h-1.125v-6.688zm6.75 2.337c.402.322.563.886.563 1.611v2.74h-1.125v-2.659c0-.403-.08-.725-.322-.967-.16-.242-.482-.322-.883-.322a1.33 1.33 0 00-.965.403c-.241.241-.321.644-.321 1.047v2.418h-1.125v-4.835h1.045v.644c.16-.241.401-.402.723-.483.321-.08.562-.161.964-.161.643 0 1.125.242 1.446.564zm6.509 2.256h-3.777c.081.323.242.645.483.806.241.242.642.322 1.044.322.563 0 .964-.16 1.286-.483l.562.725c-.241.242-.482.484-.803.564-.322.161-.723.161-1.125.161-.563 0-.964-.08-1.366-.322-.402-.242-.723-.483-.964-.886s-.322-.806-.322-1.29c0-.483.081-.886.322-1.289a2.34 2.34 0 01.883-.886c.402-.242.804-.323 1.286-.323s.884.081 1.286.323c.401.241.642.483.884.886.241.403.321.806.321 1.29.08.16 0 .322 0 .402zm-3.294-1.53a1.598 1.598 0 00-.483.886h2.732c-.08-.323-.16-.645-.401-.887-.241-.242-.563-.322-.884-.322-.402 0-.723.08-.964.322zm7.312 3.384l-.482.241c-.161.08-.402.08-.562.08-.563 0-.965-.16-1.206-.402-.321-.242-.401-.645-.401-1.209V26.35h-.804v-.886h.804v-1.128h1.125v1.128h1.285v.886h-1.285v2.257c0 .241.08.402.16.564.081.16.241.16.482.16s.482-.08.643-.16l.241.805zm8.274-4.594l-1.768 4.835h-1.044l-1.206-3.304-1.285 3.304h-1.045l-1.768-4.835h1.045l1.286 3.546 1.285-3.546h.964l1.286 3.546 1.286-3.546h.964zm1.527 4.593c-.402-.242-.723-.483-.884-.886-.241-.403-.321-.806-.321-1.29 0-.483.08-.886.321-1.289.241-.403.563-.644.884-.886.402-.242.804-.322 1.286-.322s.964.08 1.285.322c.402.242.724.483.884.886.241.403.322.806.322 1.29 0 .483-.081.886-.322 1.289-.241.403-.562.644-.884.886-.401.242-.803.322-1.285.322-.482 0-.884-.16-1.286-.322zm2.33-1.128c.241-.242.402-.645.402-1.128 0-.484-.161-.806-.402-1.128-.241-.242-.642-.403-1.044-.403s-.723.161-1.045.403c-.241.241-.402.644-.402 1.128 0 .483.161.806.402 1.128.241.242.643.403 1.045.403.402 0 .803-.08 1.044-.403zm5.384-3.545v1.047h-.241c-.401 0-.803.161-1.044.403-.241.242-.402.645-.402 1.128v2.337h-1.045v-4.835h1.045v.726c.321-.564.884-.806 1.687-.806zm2.892 2.82l-.803.806v1.289h-1.125v-6.688h1.125v4.029l2.33-2.176h1.366l-2.009 2.015 2.169 2.82h-1.366l-1.687-2.095zm3.938 2.014c-.402-.08-.643-.241-.884-.403l.402-.886c.241.161.482.242.803.322.322.08.563.162.884.162.643 0 1.045-.162 1.045-.565 0-.16-.081-.322-.241-.322-.161-.08-.482-.161-.804-.161a8.279 8.279 0 01-.964-.242 1.752 1.752 0 01-.643-.403c-.16-.16-.241-.483-.241-.806 0-.483.161-.805.563-1.128.401-.241.884-.402 1.526-.402.322 0 .643 0 .965.08.321.08.562.161.803.322l-.402.887c-.401-.242-.884-.323-1.366-.323-.321 0-.562.081-.723.162a.443.443 0 00-.241.402c0 .162.08.323.241.403.161.081.482.162.884.242.402.08.723.161.964.242.241.08.482.242.643.403.161.16.241.483.241.806 0 .483-.161.805-.562 1.047-.402.242-.884.403-1.607.403-.482-.08-.884-.161-1.286-.242z" fill="#000229"/><path d="M80.277 26.913h29.569m69.586 0h29.569" stroke="#000229" stroke-width=".3" stroke-miterlimit="10"/></svg>19.73 30.0559 119.489 29.8948 119.248 29.7336L119.65 28.8472C119.891 29.0084 120.132 29.089 120.453 29.1695C120.775 29.2501 121.016 29.3307 121.337 29.3307C121.98 29.3307 122.382 29.1695 122.382 28.7667C122.382 28.6055 122.301 28.4443 122.141 28.4443C121.98 28.3638 121.659 28.2832 121.337 28.2832C120.935 28.2026 120.614 28.122 120.373 28.0414C120.132 27.9609 119.891 27.7997 119.73 27.6386C119.569 27.4774 119.489 27.1551 119.489 26.8328C119.489 26.3493 119.65 26.027 120.052 25.7047C120.453 25.4629 120.935 25.3018 121.578 25.3018C121.9 25.3018 122.221 25.3018 122.542 25.3823C122.864 25.4629 123.105 25.5435 123.346 25.7047L122.944 26.591C122.542 26.3493 122.06 26.2687 121.578 26.2687C121.257 26.2687 121.016 26.3493 120.855 26.4299C120.694 26.5104 120.614 26.6716 120.614 26.8328C120.614 26.9939 120.694 27.1551 120.855 27.2357C121.016 27.3162 121.337 27.3968 121.739 27.4774C122.141 27.558 122.462 27.6385 122.703 27.7191C122.944 27.7997 123.185 27.9609 123.346 28.122C123.507 28.2832 123.587 28.6055 123.587 28.9278C123.587 29.4113 123.426 29.7336 123.025 29.9753C122.623 30.2171 122.141 30.3782 121.418 30.3782C120.935 30.2976 120.534 30.2171 120.132 30.1365Z" fill="#000229"/>
<path d="M125.276 29.9751C124.874 29.7334 124.552 29.4916 124.392 29.0887C124.151 28.6858 124.07 28.2829 124.07 27.7995C124.07 27.316 124.151 26.9131 124.392 26.5102C124.633 26.1073 124.954 25.8656 125.276 25.6238C125.677 25.3821 126.079 25.3015 126.561 25.3015C127.043 25.3015 127.525 25.3821 127.847 25.6238C128.249 25.8656 128.57 26.1073 128.731 26.5102C128.972 26.9131 129.052 27.316 129.052 27.7995C129.052 28.2829 128.972 28.6858 128.731 29.0887C128.49 29.4916 128.168 29.7334 127.847 29.9751C127.445 30.2168 127.043 30.2974 126.561 30.2974C126.079 30.2974 125.677 30.1362 125.276 29.9751ZM127.606 28.847C127.847 28.6053 128.007 28.2024 128.007 27.7189C128.007 27.2354 127.847 26.9131 127.606 26.5908C127.365 26.349 126.963 26.1879 126.561 26.1879C126.159 26.1879 125.838 26.349 125.517 26.5908C125.276 26.8325 125.115 27.2354 125.115 27.7189C125.115 28.2024 125.276 28.5247 125.517 28.847C125.758 29.0887 126.159 29.2499 126.561 29.2499C127.043 29.3305 127.365 29.1693 127.606 28.847Z" fill="#000229"/>
<path d="M130.256 23.5288H131.381V30.2169H130.256V23.5288Z" fill="#000229"/>
<path d="M137.006 25.8658C137.408 26.1881 137.569 26.7522 137.569 27.4774V30.2171H136.444V27.558C136.444 27.1551 136.364 26.8328 136.122 26.591C135.962 26.3493 135.64 26.2687 135.239 26.2687C134.837 26.2687 134.515 26.4299 134.274 26.6716C134.033 26.9133 133.953 27.3162 133.953 27.7191V30.1365H132.828V25.3018H133.873V25.9464C134.033 25.7047 134.274 25.5435 134.596 25.4629C134.917 25.3823 135.158 25.3018 135.56 25.3018C136.203 25.3018 136.685 25.5435 137.006 25.8658Z" fill="#000229"/>
<path d="M143.515 28.1223H139.738C139.819 28.4446 139.98 28.7669 140.221 28.9281C140.462 29.1698 140.863 29.2504 141.265 29.2504C141.828 29.2504 142.229 29.0892 142.551 28.7669L143.113 29.4921C142.872 29.7338 142.631 29.9756 142.31 30.0562C141.988 30.2173 141.587 30.2173 141.185 30.2173C140.622 30.2173 140.221 30.1367 139.819 29.895C139.417 29.6533 139.096 29.4115 138.855 29.0086C138.614 28.6057 138.533 28.2028 138.533 27.7194C138.533 27.2359 138.614 26.833 138.855 26.4301C139.096 26.0272 139.337 25.7855 139.738 25.5437C140.14 25.302 140.542 25.2214 141.024 25.2214C141.506 25.2214 141.908 25.302 142.31 25.5437C142.711 25.7855 142.952 26.0272 143.194 26.4301C143.435 26.833 143.515 27.2359 143.515 27.7194C143.595 27.8805 143.515 28.0417 143.515 28.1223ZM140.221 26.5913C139.98 26.833 139.819 27.0747 139.738 27.4776H142.47C142.39 27.1553 142.31 26.833 142.069 26.5913C141.828 26.3495 141.506 26.269 141.185 26.269C140.783 26.269 140.462 26.3495 140.221 26.5913Z" fill="#000229"/>
<path d="M147.533 29.9755C147.372 30.0561 147.212 30.1366 147.051 30.2172C146.89 30.2978 146.649 30.2978 146.489 30.2978C145.926 30.2978 145.524 30.1366 145.283 29.8949C144.962 29.6532 144.882 29.2503 144.882 28.6862V26.3494H144.078V25.4631H144.882V24.335H146.007V25.4631H147.292V26.3494H146.007V28.6056C146.007 28.8474 146.087 29.0085 146.167 29.1697C146.248 29.3309 146.408 29.3308 146.649 29.3308C146.89 29.3308 147.131 29.2503 147.292 29.1697L147.533 29.9755Z" fill="#000229"/>
<path d="M155.807 25.3823L154.039 30.2171H152.995L151.789 26.9133L150.504 30.2171H149.459L147.691 25.3823H148.736L150.022 28.9278L151.307 25.3823H152.271L153.557 28.9278L154.843 25.3823H155.807Z" fill="#000229"/>
<path d="M157.334 29.9751C156.932 29.7334 156.611 29.4916 156.45 29.0887C156.209 28.6858 156.129 28.2829 156.129 27.7995C156.129 27.316 156.209 26.9131 156.45 26.5102C156.691 26.1073 157.013 25.8656 157.334 25.6238C157.736 25.3821 158.138 25.3015 158.62 25.3015C159.102 25.3015 159.584 25.3821 159.905 25.6238C160.307 25.8656 160.629 26.1073 160.789 26.5102C161.03 26.9131 161.111 27.316 161.111 27.7995C161.111 28.2829 161.03 28.6858 160.789 29.0887C160.548 29.4916 160.227 29.7334 159.905 29.9751C159.504 30.2168 159.102 30.2974 158.62 30.2974C158.138 30.2974 157.736 30.1362 157.334 29.9751ZM159.664 28.847C159.905 28.6053 160.066 28.2024 160.066 27.7189C160.066 27.2354 159.905 26.9131 159.664 26.5908C159.423 26.349 159.022 26.1879 158.62 26.1879C158.218 26.1879 157.897 26.349 157.575 26.5908C157.334 26.8325 157.173 27.2354 157.173 27.7189C157.173 28.2024 157.334 28.5247 157.575 28.847C157.816 29.0887 158.218 29.2499 158.62 29.2499C159.022 29.2499 159.423 29.1693 159.664 28.847Z" fill="#000229"/>
<path d="M165.048 25.3018V26.3493C164.968 26.3493 164.888 26.3493 164.807 26.3493C164.406 26.3493 164.004 26.5104 163.763 26.7522C163.522 26.9939 163.361 27.3968 163.361 27.8803V30.2171H162.316V25.3823H163.361V26.1075C163.682 25.5435 164.245 25.3018 165.048 25.3018Z" fill="#000229"/>
<path d="M167.94 28.1218L167.137 28.9276V30.2169H166.012V23.5288H167.137V27.5578L169.467 25.3821H170.833L168.824 27.3966L170.993 30.2169H169.627L167.94 28.1218Z" fill="#000229"/>
<path d="M171.878 30.1362C171.476 30.0557 171.235 29.8945 170.994 29.7334L171.396 28.847C171.637 29.0081 171.878 29.0887 172.199 29.1693C172.521 29.2499 172.762 29.3305 173.083 29.3305C173.726 29.3305 174.128 29.1693 174.128 28.7664C174.128 28.6052 174.047 28.4441 173.887 28.4441C173.726 28.3635 173.405 28.2829 173.083 28.2829C172.681 28.2024 172.36 28.1218 172.119 28.0412C171.878 27.9606 171.637 27.7995 171.476 27.6383C171.316 27.4772 171.235 27.1548 171.235 26.8325C171.235 26.349 171.396 26.0267 171.798 25.7044C172.199 25.4627 172.682 25.3015 173.324 25.3015C173.646 25.3015 173.967 25.3015 174.289 25.3821C174.61 25.4627 174.851 25.5433 175.092 25.7044L174.69 26.5908C174.289 26.349 173.806 26.2685 173.324 26.2685C173.003 26.2685 172.762 26.349 172.601 26.4296C172.44 26.5102 172.36 26.6714 172.36 26.8325C172.36 26.9937 172.44 27.1548 172.601 27.2354C172.762 27.316 173.083 27.3966 173.485 27.4771C173.887 27.5577 174.208 27.6383 174.449 27.7189C174.69 27.7995 174.931 27.9606 175.092 28.1218C175.253 28.2829 175.333 28.6052 175.333 28.9276C175.333 29.411 175.172 29.7334 174.771 29.9751C174.369 30.2168 173.887 30.378 173.164 30.378C172.682 30.2974 172.28 30.2168 171.878 30.1362Z" fill="#000229"/>
<path d="M80.2773 26.9131H109.846" stroke="#000229" stroke-width="0.3" stroke-miterlimit="10"/>
<path d="M179.432 26.9131H209.001" stroke="#000229" stroke-width="0.3" stroke-miterlimit="10"/>
</svg>
