<svg width="170" height="28" viewBox="0 0 170 28" fill="none" xmlns="http://www.w3.org/2000/svg"><path d="M15.288 2H10.81c-.911 0-1.942.198-3.13.553C3 4.015.345 7.848.028 13.617c-.397 6.717 3.369 11.616 9.512 12.485 1.546.238 3.29.317 5.272.317 1.664 0 3.369-.08 4.835-.159 4.598-.237 8.958-3.319 10.662-8.653l.238-.71c-1.07-.356-1.942-.752-2.893-1.384-.04.119-.08.198-.12.316-1.466 4.347-4.161 6.599-7.213 6.875-3.25.277-6.659.316-10.028.04-4.122-.316-7.253-4.228-7.214-9.048 0-3.952 3.488-7.863 7.293-8.18 2.696-.236 5.668-.276 8.84-.157 3.408.158 5.944 1.857 7.134 4.86 1.268 3.2 3.567 4.702 7.174 4.741h6.977c1.704 0 2.972 0 4.2.04.992 0 2.062.237 3.013.632 1.427.592 2.22 1.817 2.14 3.398-.079 1.58-.911 2.766-2.298 3.28-1.11.394-2.14.592-3.092.631-1.784.04-3.765.04-6.183.04h-7.768c-.912 1.383-1.784 2.45-2.775 3.358 1.427 0 2.814.04 4.24.04 1.864 0 4.916.04 6.779.04 2.933 0 5.31-.04 7.53-.159 3.766-.158 6.461-3.2 6.461-7.19 0-4.07-2.695-7.113-6.58-7.35-2.1-.158-4.36-.198-7.094-.198-1.744 0-3.488.04-5.232.04h-.12c-2.1 0-3.408-.909-4.28-2.924-1.585-3.754-4.36-5.966-8.125-6.4C19.133 2.04 16.953 2 15.288 2z" fill="#001EFC"/><path d="M28.13 2.632c.794.593 1.666 1.58 2.34 2.885a9.344 9.344 0 011.783-.158H48.9c.277 0 .515 0 .753-.04V2h-7.769c-3.329 0-7.213 0-11.137.079-.714.04-1.863.237-2.616.553z" fill="#001EFC"/><path d="M67.63 13.53c-.97-.519-1.744-1.296-2.325-2.203-.582-.972-.84-2.008-.84-3.174s.258-2.202.84-3.174a5.85 5.85 0 012.325-2.202C68.598 2.26 69.696 2 70.924 2c1.227 0 2.325.26 3.294.777.968.518 1.743 1.296 2.325 2.202.581.907.84 2.008.84 3.174s-.259 2.267-.84 3.174c-.582.907-1.357 1.684-2.325 2.202-.97.518-2.067.778-3.294.778a7.25 7.25 0 01-3.294-.778zm5.49-1.75c.645-.388 1.162-.841 1.485-1.49.388-.647.517-1.36.517-2.201 0-.778-.194-1.555-.517-2.203-.387-.647-.84-1.166-1.485-1.49-.646-.388-1.357-.518-2.132-.518a4.71 4.71 0 00-2.131.519c-.646.388-1.163.842-1.486 1.49-.387.647-.516 1.36-.516 2.202 0 .777.193 1.554.516 2.202.388.647.84 1.166 1.486 1.49.646.388 1.356.518 2.131.518.775.064 1.486-.13 2.132-.518zm15.307-6.8v9.132H86.36v-1.166c-.323.389-.775.713-1.292.972a4.84 4.84 0 01-1.679.324c-1.227 0-2.196-.324-2.906-1.037-.71-.712-1.034-1.684-1.034-3.044V4.915h2.132v4.922c0 .842.193 1.425.58 1.814.388.389.905.583 1.551.583.775 0 1.356-.26 1.808-.713.453-.453.646-1.166.646-2.072V4.785h2.26v.194zm8.074-.13v2.072c-.194-.064-.323-.064-.516-.064-.84 0-1.486.259-1.938.712-.452.518-.71 1.166-.71 2.073v4.469h-2.132V4.979h2.067v1.36c.581-.971 1.68-1.49 3.23-1.49zm2.906 9.068c-.84-.26-1.55-.583-2.067-1.036l.775-1.75a6.855 6.855 0 001.808.972c.711.26 1.421.389 2.132.389.904 0 1.55-.13 2.002-.453.452-.26.646-.648.646-1.102 0-.323-.129-.647-.388-.842a4.105 4.105 0 00-.904-.518c-.387-.13-.904-.259-1.55-.453a15.745 15.745 0 01-2.196-.648c-.581-.194-1.033-.583-1.486-1.036-.387-.454-.58-1.101-.58-1.879 0-.647.193-1.295.516-1.813a4.096 4.096 0 011.615-1.296c.71-.323 1.614-.453 2.648-.453.71 0 1.421.065 2.131.26a6.628 6.628 0 011.809.776l-.711 1.75c-.517-.325-1.098-.519-1.615-.713-.581-.13-1.098-.26-1.679-.26-.904 0-1.55.13-1.938.454-.452.324-.645.712-.645 1.166 0 .324.129.648.387.842.258.194.581.389.904.518.388.13.905.26 1.55.453.905.195 1.615.39 2.196.648.582.194 1.034.583 1.486 1.037.387.453.581 1.1.581 1.878a3.5 3.5 0 01-.516 1.814 4.104 4.104 0 01-1.615 1.295c-.711.324-1.615.453-2.648.453a12.599 12.599 0 01-2.648-.453zm18.407-8.938v9.132h-2.067v-1.166c-.323.389-.775.713-1.292.972a4.84 4.84 0 01-1.679.324c-1.227 0-2.196-.324-2.907-1.037-.71-.712-1.033-1.684-1.033-3.044V4.915h2.131v4.922c0 .842.194 1.425.582 1.814.387.389.904.583 1.55.583.775 0 1.356-.26 1.808-.713.452-.453.646-1.166.646-2.072V4.785h2.261v.194zm10.205.452c.711.389 1.228.907 1.68 1.62.387.712.581 1.554.581 2.46 0 .908-.194 1.75-.581 2.462a4.21 4.21 0 01-1.68 1.684c-.71.389-1.485.583-2.389.583-1.228 0-2.196-.388-2.907-1.23v4.469h-2.131V4.979h2.067v1.23a2.754 2.754 0 011.291-.971 4.92 4.92 0 011.744-.324c.84-.065 1.615.13 2.325.518zm-.646 6.218c.517-.518.776-1.23.776-2.072 0-.842-.259-1.555-.776-2.073-.516-.518-1.162-.777-1.937-.777-.517 0-.969.13-1.356.324a3.46 3.46 0 00-.969.971 2.84 2.84 0 00-.388 1.49c0 .583.129 1.101.388 1.49.258.453.581.777.969.971.387.26.904.324 1.356.324.775.13 1.421-.13 1.937-.648zm12.402-6.218c.711.389 1.227.907 1.68 1.62.387.712.581 1.554.581 2.46 0 .908-.194 1.75-.581 2.462a4.21 4.21 0 01-1.68 1.684c-.71.389-1.485.583-2.39.583-1.227 0-2.195-.388-2.906-1.23v4.469h-2.131V4.979h2.066v1.23a2.757 2.757 0 011.292-.971 4.92 4.92 0 011.744-.324c.84-.065 1.615.13 2.325.518zm-.71 6.218c.516-.518.775-1.23.775-2.072 0-.842-.259-1.555-.775-2.073-.517-.518-1.163-.777-1.938-.777-.517 0-.969.13-1.356.324a3.46 3.46 0 00-.969.971 2.849 2.849 0 00-.388 1.49c0 .583.13 1.101.388 1.49.258.453.581.777.969.971.387.26.904.324 1.356.324.84.13 1.486-.13 1.938-.648zm6.586 2.009c-.71-.389-1.291-.972-1.743-1.684-.388-.713-.646-1.555-.646-2.397 0-.907.193-1.684.646-2.396a3.99 3.99 0 011.743-1.685c.711-.388 1.551-.582 2.519-.582.905 0 1.744.194 2.519.582.711.39 1.292.972 1.744 1.685.388.712.646 1.49.646 2.396 0 .907-.194 1.684-.646 2.397a3.992 3.992 0 01-1.744 1.684c-.71.388-1.55.583-2.519.583a5.545 5.545 0 01-2.519-.583zm4.457-2.008c.517-.518.775-1.23.775-2.073 0-.842-.258-1.554-.775-2.073-.517-.518-1.163-.777-1.938-.777-.775 0-1.421.26-1.937.777-.517.519-.775 1.231-.775 2.073 0 .842.258 1.555.775 2.073.516.518 1.162.777 1.937.777.775 0 1.421-.26 1.938-.777zm10.268-6.801v2.072c-.194-.064-.323-.064-.516-.064-.84 0-1.486.259-1.938.712-.452.518-.711 1.166-.711 2.073v4.469h-2.131V4.979h2.067v1.36c.581-.971 1.679-1.49 3.229-1.49zm7.62 8.809c-.258.194-.581.388-.904.453-.387.13-.71.13-1.162.13-1.034 0-1.809-.26-2.326-.778-.516-.518-.839-1.295-.839-2.267V6.793h-1.486V5.109h1.486V3.036h2.131V5.11h2.455v1.684h-2.455v4.34c0 .453.129.777.323 1.036s.517.324.969.324c.452 0 .904-.13 1.227-.389l.581 1.555zm-74.661 8.355h-1.679v-.777h4.263v.777h-1.615v4.275h-.969v-4.275zm3.229 4.211c-.323-.065-.517-.195-.71-.324l.323-.713c.193.13.387.195.645.26.259.064.452.129.71.129.517 0 .84-.13.84-.454 0-.129-.064-.259-.193-.259a1.617 1.617 0 00-.646-.13 6.693 6.693 0 01-.775-.193 1.407 1.407 0 01-.517-.324c-.13-.13-.194-.389-.194-.648 0-.389.13-.648.452-.907.323-.194.71-.324 1.228-.324.258 0 .516 0 .775.065.258.065.452.13.645.26l-.323.712c-.322-.195-.71-.26-1.097-.26-.259 0-.453.065-.582.13a.356.356 0 00-.194.324c0 .13.065.26.194.324.13.065.388.13.71.194.324.065.582.13.776.195.194.064.387.194.516.323.13.13.194.389.194.648 0 .389-.129.648-.452.842-.323.194-.71.324-1.292.324-.387-.065-.71-.13-1.033-.194zm4.135-.13c-.323-.195-.581-.389-.71-.713-.194-.324-.258-.648-.258-1.036 0-.389.064-.713.258-1.037.194-.323.452-.518.71-.712.323-.194.646-.26 1.034-.26.387 0 .775.066 1.033.26.323.194.581.389.711.712.193.324.258.648.258 1.037 0 .388-.065.712-.258 1.036-.194.324-.453.518-.711.713-.323.194-.646.259-1.033.259-.388 0-.711-.13-1.034-.26zm1.873-.907c.194-.194.323-.518.323-.907s-.129-.648-.323-.907c-.193-.194-.516-.324-.839-.324-.323 0-.582.13-.84.324-.194.195-.323.518-.323.907s.129.648.323.907c.194.194.517.324.84.324.387.064.646-.065.839-.324zm2.131-4.275h.904v5.376h-.904v-5.376zm5.425 1.879c.323.259.452.712.452 1.295v2.202h-.904v-2.137c0-.324-.065-.583-.258-.777-.13-.195-.388-.26-.711-.26-.323 0-.581.13-.775.325-.194.194-.258.518-.258.841v1.944h-.904v-3.887h.839v.519a.94.94 0 01.581-.39c.259-.064.453-.129.776-.129.516 0 .904.195 1.162.454zm5.232 1.813h-3.036c.065.26.194.518.388.648.194.194.517.259.839.259.453 0 .775-.13 1.034-.389l.452.583c-.194.195-.388.389-.646.454-.258.13-.581.13-.904.13-.452 0-.775-.066-1.098-.26-.323-.194-.581-.389-.775-.712-.194-.324-.259-.648-.259-1.037 0-.388.065-.712.259-1.036a1.88 1.88 0 01.71-.713c.323-.194.646-.259 1.034-.259.387 0 .71.065 1.033.26.323.194.517.388.711.712.193.324.258.648.258 1.036.064.13 0 .26 0 .324zm-2.648-1.23a1.283 1.283 0 00-.388.712h2.196c-.064-.26-.129-.518-.323-.712-.193-.195-.452-.26-.71-.26-.323 0-.581.065-.775.26zm5.878 2.72l-.388.194c-.129.065-.323.065-.452.065-.452 0-.775-.13-.969-.324-.258-.194-.323-.518-.323-.971V23.18h-.646v-.712h.646v-.907h.905v.907h1.033v.712h-1.033v1.814c0 .194.064.324.129.453.064.13.194.13.387.13.194 0 .388-.065.517-.13l.194.648zm6.652-3.692l-1.421 3.886h-.839l-.969-2.655-1.034 2.655h-.839l-1.421-3.886h.839l1.034 2.85 1.033-2.85h.775l1.034 2.85 1.033-2.85h.775zm1.227 3.692c-.323-.195-.581-.389-.711-.713-.193-.324-.258-.648-.258-1.036 0-.389.065-.713.258-1.037.194-.323.452-.518.711-.712.323-.194.646-.26 1.033-.26.388 0 .775.066 1.034.26.323.194.581.389.71.712.194.324.258.648.258 1.037 0 .388-.064.712-.258 1.036-.194.324-.452.518-.71.713-.323.194-.646.259-1.034.259-.387 0-.71-.13-1.033-.26zm1.873-.907c.194-.194.323-.518.323-.907s-.129-.648-.323-.907c-.194-.194-.517-.324-.84-.324-.323 0-.581.13-.839.324-.194.195-.323.518-.323.907s.129.648.323.907c.193.194.516.324.839.324.323 0 .646-.065.84-.324zm4.329-2.85v.842h-.194c-.323 0-.646.13-.84.324-.194.195-.323.518-.323.907v1.878h-.839v-3.886h.839v.583c.259-.453.711-.648 1.357-.648zm2.322 2.267l-.645.648v1.036h-.905v-5.376h.905v3.239l1.873-1.75h1.098l-1.615 1.62 1.744 2.267h-1.098l-1.357-1.684zm3.167 1.619c-.323-.065-.517-.194-.711-.324l.323-.712c.194.13.388.194.646.259s.452.13.71.13c.517 0 .84-.13.84-.454 0-.13-.064-.259-.194-.259a1.614 1.614 0 00-.646-.13 6.728 6.728 0 01-.775-.194 1.407 1.407 0 01-.516-.324c-.129-.13-.194-.388-.194-.647 0-.39.129-.648.452-.907a2.294 2.294 0 011.227-.324c.259 0 .517 0 .775.065.259.064.452.13.646.259l-.323.712c-.323-.194-.71-.259-1.098-.259-.258 0-.452.065-.581.13a.357.357 0 00-.194.324c0 .13.065.259.194.323.129.065.387.13.71.195.323.064.582.13.775.194.194.065.388.194.517.324s.194.389.194.648c0 .388-.129.647-.452.842-.323.194-.711.324-1.292.324-.387-.065-.71-.13-1.033-.195z" fill="#000229"/><path d="M64.53 23.634h23.767m55.935 0h23.769" stroke="#000229" stroke-width=".3" stroke-miterlimit="10"/></svg>28 165.736 12.4928 166.188 12.4928C166.64 12.4928 167.092 12.3632 167.415 12.1041L167.996 13.6586Z" fill="#000229"/>
<path d="M93.3355 22.0141H91.6562V21.2368H95.919V22.0141H94.3043V26.289H93.3355V22.0141Z" fill="#000229"/>
<path d="M96.564 26.2247C96.241 26.1599 96.0473 26.0303 95.8535 25.9008L96.1765 25.1883C96.3702 25.3179 96.564 25.3826 96.8223 25.4474C97.0807 25.5122 97.2744 25.5769 97.5328 25.5769C98.0495 25.5769 98.3724 25.4474 98.3724 25.1235C98.3724 24.994 98.3078 24.8645 98.1787 24.8645C98.0495 24.7997 97.7911 24.7349 97.5328 24.7349C97.2099 24.6701 96.9515 24.6054 96.7577 24.5406C96.564 24.4758 96.3702 24.3463 96.241 24.2168C96.1119 24.0872 96.0473 23.8281 96.0473 23.569C96.0473 23.1804 96.1765 22.9213 96.4994 22.6622C96.8223 22.4679 97.2099 22.3384 97.7266 22.3384C97.9849 22.3384 98.2433 22.3384 98.5016 22.4032C98.76 22.4679 98.9537 22.5327 99.1475 22.6622L98.8245 23.3747C98.5016 23.1804 98.1141 23.1156 97.7266 23.1156C97.4682 23.1156 97.2744 23.1804 97.1453 23.2452C97.0161 23.31 96.9515 23.4395 96.9515 23.569C96.9515 23.6986 97.0161 23.8281 97.1453 23.8929C97.2744 23.9577 97.5328 24.0224 97.8557 24.0872C98.1787 24.152 98.437 24.2167 98.6308 24.2815C98.8245 24.3463 99.0183 24.4758 99.1475 24.6054C99.2767 24.7349 99.3412 24.994 99.3412 25.2531C99.3412 25.6417 99.2121 25.9008 98.8891 26.0951C98.5662 26.2894 98.1787 26.419 97.5974 26.419C97.2099 26.3542 96.8869 26.2894 96.564 26.2247Z" fill="#000229"/>
<path d="M100.699 26.0946C100.376 25.9003 100.118 25.706 99.9888 25.3821C99.7951 25.0583 99.7305 24.7344 99.7305 24.3458C99.7305 23.9572 99.7951 23.6333 99.9888 23.3095C100.183 22.9856 100.441 22.7913 100.699 22.597C101.022 22.4027 101.345 22.3379 101.733 22.3379C102.12 22.3379 102.508 22.4027 102.766 22.597C103.089 22.7913 103.347 22.9856 103.477 23.3095C103.67 23.6333 103.735 23.9572 103.735 24.3458C103.735 24.7344 103.67 25.0583 103.477 25.3821C103.283 25.706 103.024 25.9003 102.766 26.0946C102.443 26.2889 102.12 26.3537 101.733 26.3537C101.345 26.3537 101.022 26.2242 100.699 26.0946ZM102.572 25.1878C102.766 24.9935 102.895 24.6697 102.895 24.281C102.895 23.8924 102.766 23.6333 102.572 23.3742C102.379 23.1799 102.056 23.0504 101.733 23.0504C101.41 23.0504 101.151 23.1799 100.893 23.3742C100.699 23.5686 100.57 23.8924 100.57 24.281C100.57 24.6697 100.699 24.9288 100.893 25.1878C101.087 25.3822 101.41 25.5117 101.733 25.5117C102.12 25.5765 102.379 25.4469 102.572 25.1878Z" fill="#000229"/>
<path d="M104.703 20.9131H105.607V26.2891H104.703V20.9131Z" fill="#000229"/>
<path d="M110.128 22.7918C110.451 23.0509 110.58 23.5043 110.58 24.0872V26.2894H109.676V24.152C109.676 23.8281 109.611 23.569 109.418 23.3747C109.288 23.1804 109.03 23.1156 108.707 23.1156C108.384 23.1156 108.126 23.2452 107.932 23.4395C107.738 23.6338 107.674 23.9577 107.674 24.2815V26.2247H106.77V22.3384H107.609V22.8566C107.738 22.6622 107.932 22.5327 108.19 22.4679C108.449 22.4031 108.643 22.3384 108.966 22.3384C109.482 22.3384 109.87 22.5327 110.128 22.7918Z" fill="#000229"/>
<path d="M115.36 24.6052H112.324C112.389 24.8643 112.518 25.1234 112.712 25.2529C112.906 25.4472 113.229 25.512 113.551 25.512C114.004 25.512 114.326 25.3825 114.585 25.1234L115.037 25.7063C114.843 25.9006 114.649 26.0949 114.391 26.1597C114.133 26.2893 113.81 26.2893 113.487 26.2893C113.035 26.2893 112.712 26.2245 112.389 26.0302C112.066 25.8359 111.808 25.6415 111.614 25.3177C111.42 24.9938 111.355 24.67 111.355 24.2813C111.355 23.8927 111.42 23.5689 111.614 23.245C111.808 22.9212 112.001 22.7268 112.324 22.5325C112.647 22.3382 112.97 22.2734 113.358 22.2734C113.745 22.2734 114.068 22.3382 114.391 22.5325C114.714 22.7268 114.908 22.9212 115.102 23.245C115.295 23.5689 115.36 23.8927 115.36 24.2813C115.424 24.4109 115.36 24.5404 115.36 24.6052ZM112.712 23.3745C112.518 23.5689 112.389 23.7632 112.324 24.087H114.52C114.456 23.8279 114.391 23.5689 114.197 23.3745C114.004 23.1802 113.745 23.1155 113.487 23.1155C113.164 23.1155 112.906 23.1802 112.712 23.3745Z" fill="#000229"/>
<path d="M118.59 26.095C118.461 26.1598 118.331 26.2246 118.202 26.2893C118.073 26.3541 117.879 26.3541 117.75 26.3541C117.298 26.3541 116.975 26.2246 116.781 26.0303C116.523 25.8359 116.458 25.5121 116.458 25.0587V23.1803H115.812V22.4678H116.458V21.561H117.363V22.4678H118.396V23.1803H117.363V24.9939C117.363 25.1882 117.427 25.3178 117.492 25.4473C117.556 25.5769 117.686 25.5769 117.879 25.5769C118.073 25.5769 118.267 25.5121 118.396 25.4473L118.59 26.095Z" fill="#000229"/>
<path d="M125.242 22.4028L123.821 26.2891H122.982L122.013 23.6335L120.979 26.2891H120.14L118.719 22.4028H119.558L120.592 25.2528L121.625 22.4028H122.4L123.434 25.2528L124.467 22.4028H125.242Z" fill="#000229"/>
<path d="M126.469 26.0946C126.146 25.9003 125.888 25.706 125.758 25.3821C125.565 25.0583 125.5 24.7344 125.5 24.3458C125.5 23.9572 125.565 23.6333 125.758 23.3095C125.952 22.9856 126.21 22.7913 126.469 22.597C126.792 22.4027 127.115 22.3379 127.502 22.3379C127.89 22.3379 128.277 22.4027 128.536 22.597C128.859 22.7913 129.117 22.9856 129.246 23.3095C129.44 23.6333 129.504 23.9572 129.504 24.3458C129.504 24.7344 129.44 25.0583 129.246 25.3821C129.052 25.706 128.794 25.9003 128.536 26.0946C128.213 26.2889 127.89 26.3537 127.502 26.3537C127.115 26.3537 126.792 26.2242 126.469 26.0946ZM128.342 25.1878C128.536 24.9935 128.665 24.6697 128.665 24.281C128.665 23.8924 128.536 23.6333 128.342 23.3742C128.148 23.1799 127.825 23.0504 127.502 23.0504C127.179 23.0504 126.921 23.1799 126.663 23.3742C126.469 23.5686 126.34 23.8924 126.34 24.281C126.34 24.6697 126.469 24.9288 126.663 25.1878C126.856 25.3822 127.179 25.5117 127.502 25.5117C127.825 25.5117 128.148 25.4469 128.342 25.1878Z" fill="#000229"/>
<path d="M132.671 22.3384V23.1804C132.606 23.1804 132.541 23.1804 132.477 23.1804C132.154 23.1804 131.831 23.31 131.637 23.5043C131.443 23.6986 131.314 24.0224 131.314 24.4111V26.2894H130.475V22.4032H131.314V22.9861C131.573 22.5327 132.025 22.3384 132.671 22.3384Z" fill="#000229"/>
<path d="M134.993 24.6051L134.348 25.2528V26.2891H133.443V20.9131H134.348V24.1517L136.221 22.4028H137.319L135.704 24.0221L137.448 26.2891H136.35L134.993 24.6051Z" fill="#000229"/>
<path d="M138.16 26.2242C137.837 26.1594 137.643 26.0299 137.449 25.9003L137.772 25.1878C137.966 25.3174 138.16 25.3821 138.418 25.4469C138.676 25.5117 138.87 25.5765 139.128 25.5765C139.645 25.5765 139.968 25.4469 139.968 25.1231C139.968 24.9935 139.904 24.864 139.774 24.864C139.645 24.7992 139.387 24.7344 139.128 24.7344C138.806 24.6697 138.547 24.6049 138.353 24.5401C138.16 24.4754 137.966 24.3458 137.837 24.2163C137.708 24.0867 137.643 23.8276 137.643 23.5686C137.643 23.1799 137.772 22.9208 138.095 22.6617C138.418 22.4674 138.806 22.3379 139.322 22.3379C139.581 22.3379 139.839 22.3379 140.097 22.4027C140.356 22.4674 140.549 22.5322 140.743 22.6617L140.42 23.3742C140.097 23.1799 139.71 23.1151 139.322 23.1151C139.064 23.1151 138.87 23.1799 138.741 23.2447C138.612 23.3095 138.547 23.439 138.547 23.5686C138.547 23.6981 138.612 23.8276 138.741 23.8924C138.87 23.9572 139.128 24.0219 139.451 24.0867C139.774 24.1515 140.033 24.2163 140.226 24.281C140.42 24.3458 140.614 24.4753 140.743 24.6049C140.872 24.7344 140.937 24.9935 140.937 25.2526C140.937 25.6412 140.808 25.9003 140.485 26.0946C140.162 26.2889 139.774 26.4185 139.193 26.4185C138.806 26.3537 138.483 26.2889 138.16 26.2242Z" fill="#000229"/>
<path d="M64.5293 23.6338H88.2975" stroke="#000229" stroke-width="0.3" stroke-miterlimit="10"/>
<path d="M144.232 23.6338H168.001" stroke="#000229" stroke-width="0.3" stroke-miterlimit="10"/>
</svg>
