<svg width="32" height="40" fill="none" xmlns="http://www.w3.org/2000/svg"><mask id="a" maskUnits="userSpaceOnUse" x="0" y="0" width="32" height="40"><path d="M19.84 20.809a3.374 3.374 0 01-.82 0h-.023v-.003a3.356 3.356 0 01-2.911-3.334 3.356 3.356 0 012.91-3.334v-.011h.098a3.376 3.376 0 01.663-.001l10.318-.014.054-.002c.371 0 .697.196.88.49a.74.74 0 01.139.36 1.037 1.037 0 01.01.316l-.003.197a63.736 63.736 0 01-.073 2.315l.001.147c0 .768-.08 1.574-.24 2.417-.07.45-.154.817-.248 1.1-1.056 4.057-3.828 8.92-8.316 14.588a8.443 8.443 0 01-13.15.109l-.087-.11-.175-.221c-3.755-4.773-6.284-8.97-7.588-12.59C.426 21.207 0 19.033 0 16.703c0-2.29.412-4.454 1.235-6.49.823-2.037 1.955-3.81 3.395-5.322 1.441-1.511 3.15-2.705 5.13-3.58C11.738.437 13.868 0 16.147 0c1.773 0 3.309.175 4.607.525 1.256.339 2.32.722 3.19 1.15l.087.043c.357.174.669.357.948.557a5.003 5.003 0 012.23 4.171c0 2.762-2.226 5.001-4.974 5.001-.582 0-1.141-.1-1.66-.285-.698-.21-1.127-.516-1.816-.734a8.315 8.315 0 00-2.517-.405c-.918 0-1.757.167-2.517.5a5.98 5.98 0 00-1.97 1.385 6.39 6.39 0 00-1.307 2.123 7.414 7.414 0 00-.475 2.673c0 .955.174 1.845.523 2.673A6.413 6.413 0 0011.92 21.5a6.701 6.701 0 004.702 1.885c1.076 0 2.057-.23 2.944-.692.528-.275 1.192-.807 1.991-1.596a.17.17 0 00-.103-.289H19.84z" fill="#fff"/></mask><g mask="url(#a)"><path d="M19.84 20.809a3.374 3.374 0 01-.82 0h-.023v-.003a3.356 3.356 0 01-2.911-3.334 3.356 3.356 0 012.91-3.334v-.011h.098a3.376 3.376 0 01.663-.001l10.318-.014.054-.002c.371 0 .697.196.88.49a.74.74 0 01.139.36 1.037 1.037 0 01.01.316l-.003.197a63.736 63.736 0 01-.073 2.315l.001.147c0 .768-.08 1.574-.24 2.417-.07.45-.154.817-.248 1.1-1.056 4.057-3.828 8.92-8.316 14.588a8.443 8.443 0 01-13.15.109l-.087-.11-.175-.221c-3.755-4.773-6.284-8.97-7.588-12.59C.426 21.207 0 19.033 0 16.703c0-2.29.412-4.454 1.235-6.49.823-2.037 1.955-3.81 3.395-5.322 1.441-1.511 3.15-2.705 5.13-3.58C11.738.437 13.868 0 16.147 0c1.773 0 3.309.175 4.607.525 1.256.339 2.32.722 3.19 1.15l.087.043c.357.174.669.357.948.557a5.003 5.003 0 012.23 4.171c0 2.762-2.226 5.001-4.974 5.001-.582 0-1.141-.1-1.66-.285-.698-.21-1.127-.516-1.816-.734a8.315 8.315 0 00-2.517-.405c-.918 0-1.757.167-2.517.5a5.98 5.98 0 00-1.97 1.385 6.39 6.39 0 00-1.307 2.123 7.414 7.414 0 00-.475 2.673c0 .955.174 1.845.523 2.673A6.413 6.413 0 0011.92 21.5a6.701 6.701 0 004.702 1.885c1.076 0 2.057-.23 2.944-.692.528-.275 1.192-.807 1.991-1.596a.17.17 0 00-.103-.289H19.84z" fill="url(#paint0_linear)"/><mask id="b" maskUnits="userSpaceOnUse" x="-1" y="-1" width="33" height="41"><path d="M6.614-.12H24.71c3.714 0 6.725 3.772 6.725 8.425v22.672c0 4.653-3.011 8.425-6.725 8.425H6.614c-3.714 0-6.725-3.772-6.725-8.425V8.305c0-4.653 3.01-8.425 6.725-8.425z" fill="#fff"/></mask><g mask="url(#b)"><path d="M6.614-.12H24.71c3.714 0 6.725 3.772 6.725 8.425v22.672c0 4.653-3.011 8.425-6.725 8.425H6.614c-3.714 0-6.725-3.772-6.725-8.425V8.305c0-4.653 3.01-8.425 6.725-8.425z" fill="url(#paint1_linear)"/><g filter="url(#filter0_d)"><path d="M-6.724-2.845h27.319c5.62 0 10.176 4.556 10.176 10.177 0 .29-.012.58-.037.87-.85 9.898-6.674 15.797-15.123 17.806-5.632 1.339-12.17 5.32-19.615 11.945l-2.72-40.798z" fill="#21232B"/></g><path d="M-6.724-2.845h27.319c5.62 0 10.176 4.556 10.176 10.177 0 .29-.012.58-.037.87-.85 9.898-6.674 15.797-15.123 17.806-5.632 1.339-12.17 5.32-19.615 11.945l-2.72-40.798z" fill="#FC9C35"/><g filter="url(#filter1_d)"><path d="M29.147 28.847c-3.94.944-7.248 2.244-9.925 3.9-2.676 1.656-5.423 3.807-8.239 6.455 10.02 2.391 15.575 1.54 16.662-2.552 1.087-4.093 1.588-6.694 1.502-7.803z" fill="#21232B"/></g><path d="M29.147 28.847c-3.94.944-7.248 2.244-9.925 3.9-2.676 1.656-5.423 3.807-8.239 6.455 10.02 2.391 15.575 1.54 16.662-2.552 1.087-4.093 1.588-6.694 1.502-7.803z" fill="#F17109"/><g filter="url(#filter2_d)"><path d="M-1.412 15.437c4.082 0 13.927-9.036 13.927-15.071s-6.073 0-10.155 0c-4.082 0-3.772-2.481-3.772 3.554s-4.082 11.517 0 11.517z" fill="#21232B"/></g><path d="M-1.412 15.437c4.082 0 13.927-9.036 13.927-15.071s-6.073 0-10.155 0c-4.082 0-3.772-2.481-3.772 3.554s-4.082 11.517 0 11.517z" fill="#FFAF3E"/></g></g><defs><filter id="filter0_d" x="-36.724" y="-30.845" width="97.495" height="100.798" filterUnits="userSpaceOnUse" color-interpolation-filters="sRGB"><feFlood flood-opacity="0" result="BackgroundImageFix"/><feColorMatrix in="SourceAlpha" values="0 0 0 0 0 0 0 0 0 0 0 0 0 0 0 0 0 0 127 0" result="hardAlpha"/><feOffset dy="2"/><feGaussianBlur stdDeviation="15"/><feColorMatrix values="0 0 0 0 0.886747 0 0 0 0 0.482948 0 0 0 0 0.0511637 0 0 0 1 0"/><feBlend in2="BackgroundImageFix" result="effect1_dropShadow"/><feBlend in="SourceGraphic" in2="effect1_dropShadow" result="shape"/></filter><filter id="filter1_d" x="-13.017" y="-11" width="66.713" height="66.197" filterUnits="userSpaceOnUse" color-interpolation-filters="sRGB"><feFlood flood-opacity="0" result="BackgroundImageFix"/><feColorMatrix in="SourceAlpha" values="0 0 0 0 0 0 0 0 0 0 0 0 0 0 0 0 0 0 127 0" result="hardAlpha"/><feOffset dy="-12"/><feGaussianBlur stdDeviation="12"/><feColorMatrix values="0 0 0 0 0.762002 0 0 0 0 0.319897 0 0 0 0 0 0 0 0 0.348421 0"/><feBlend in2="BackgroundImageFix" result="effect1_dropShadow"/><feBlend in="SourceGraphic" in2="effect1_dropShadow" result="shape"/></filter><filter id="filter2_d" x="-27.226" y="-24.316" width="63.741" height="65.754" filterUnits="userSpaceOnUse" color-interpolation-filters="sRGB"><feFlood flood-opacity="0" result="BackgroundImageFix"/><feColorMatrix in="SourceAlpha" values="0 0 0 0 0 0 0 0 0 0 0 0 0 0 0 0 0 0 127 0" result="hardAlpha"/><feOffset dy="2"/><feGaussianBlur stdDeviation="12"/><feColorMatrix values="0 0 0 0 0.917856 0 0 0 0 0.548137 0 0 0 0 0.15146 0 0 0 1 0"/><feBlend in2="BackgroundImageFix" result="effect1_dropShadow"/><feBlend in="SourceGraphic" in2="effect1_dropShadow" result="shape"/></filter><linearGradient id="paint0_linear" x1="15.583" y1="-10.212" x2="15.583" y2="39.242" gradientUnits="userSpaceOnUse"><stop stop-color="#FAD961"/><stop offset=".456" stop-color="#F8931F"/><stop offset="1" stop-color="#F76B1C"/></linearGradient><linearGradient id="paint1_linear" x1="8.96" y1="4.596" x2="20.06" y2="36.511" gradientUnits="userSpaceOnUse"><stop stop-color="#FFB23F"/><stop offset="1" stop-color="#F97E26"/></linearGradient></defs></svg>