<svg xmlns="http://www.w3.org/2000/svg" width="128" height="170" fill="none">
  <g clip-path="url(#a)">
    <path fill="#E5E8FF" d="M29.461 91.22c.205-3.745 2.102-30.535 2.356-36.098l-12.642 9.455s-8.545 15.996-8.8 15.996a.274.274 0 0 1-.107 0c-.714-.137-4.273-1.164-5.006-1.37h-.127l6.942-20.22c3.608-6.462 17.325-17.12 20.767-18.918 3.002-1.565 8.35-1.408 8.536-1.398.313-.802.41-1.82 1.193-2.298h.058c.978-.45 6.727-.978 9.954-.108.152.043.297.109.43.196a3.989 3.989 0 0 1 1.506 2.239s7.597.352 10.315 2.053c4.889 3.09 15.184 22.214 16.289 23.31 2.571 2.561 12.222 8.124 15.927 10.07.743.724.44 4.292-.606 5.006v.059a196.128 196.128 0 0 1-20.796-8.555c-1.888-1.203-11.665-12.642-11.665-12.642 1.692 11.214 3.911 27.454 4.028 33.145h-.977l-36.988.068-.587.01ZM39.544 168.1v.225l-11.87-.108-9.64-4.536 3.089-6.346h.127l6.658 2.64.176.088c3.53 1.799 3.706 4.214 5.525 4.126 3.1-.098 5.631 2.249 5.935 3.911ZM77.735 166.487l-1.956-7.148.098.235s7.46-1.848 7.49-2.073h.244c1.31-.244 7.265.851 11.518.225 2.053-.303 4.224.303 4.449 2.933l-21.843 5.974v-.146Z"/>
    <path fill="#000229" d="M122.291 7.369v162.638h-14.363V7.379l14.363-.01ZM54.422 18.799a.413.413 0 1 1-.44-.382.42.42 0 0 1 .44.382ZM49.037 18.936a.4.4 0 0 1-.371.44.413.413 0 0 1-.42-.54.401.401 0 0 1 .361-.272.39.39 0 0 1 .43.372Z"/>
    <path stroke="#000229" stroke-linecap="round" stroke-linejoin="round" stroke-width=".86" d="M122.289 7.369v162.638h-75.58V125.03M46.709 6.91V.29h75.58v7.079l-14.364.01h-.048"/>
    <path stroke="#000229" stroke-linecap="round" stroke-linejoin="round" stroke-width=".86" d="M63.303 3.888a1.583 1.583 0 1 1-1.584-1.584 1.594 1.594 0 0 1 1.584 1.584ZM57.72 3.888a1.584 1.584 0 1 1-3.168 0 1.584 1.584 0 0 1 3.169 0ZM52.146 3.888a1.584 1.584 0 1 1-3.168 0 1.584 1.584 0 0 1 3.168 0ZM99.784 160.738l-21.915 5.893.485 1.804 21.915-5.893-.485-1.804ZM28.045 160.102c1.75-1.427 11.322-17.599 18.645-35.081a182.275 182.275 0 0 0 4.01-10.413 99.165 99.165 0 0 0 3.91-14.148M30 91.269c-.195 3.754-.576 8.105-1.065 12.71-2.444 23.056-7.695 53.278-7.695 53.278M50.815 114.617c5.25 7.402 23.133 40.254 25 44.683l.098.235s7.46-1.848 7.49-2.073c.46-3.256-6.454-32.197-16.427-66.271"/>
    <path stroke="#000229" stroke-linecap="round" stroke-linejoin="round" stroke-width=".86" d="M35.388 97.996c-.674 3.598-3.314 5.475-6.453 6.052a13.374 13.374 0 0 1-4.585 0M83.66 157.492c1.31-.245 7.264.85 11.517.224 2.053-.303 4.224.304 4.449 2.934l-21.843 5.974M75.807 159.34l1.916 7.147M17.986 163.681l-1.047 2.004 10.247 4.605 12.32-.098v-1.857h-.02l-11.87-.108-9.63-4.546ZM39.544 168.1c-.255-1.682-2.787-4.009-5.926-3.911-1.818.088-1.955-2.327-5.524-4.126l-.176-.088-6.658-2.64h-.127l-3.1 6.346M31.82 55.122c-.255 5.563-2.152 32.353-2.357 36.098H30l36.988-.068h.977c-.107-5.69-2.336-21.931-4.028-33.146-.43-2.835-.821-5.338-1.134-7.284M43.26 15.298c.117-.821.244-1.799.43-2.777a9.61 9.61 0 0 1 1.828-4.468c.36-.418.787-.774 1.262-1.056 1.857-1.066 3.774-.127 5.446 1.604.584.609 1.12 1.263 1.603 1.955a24.526 24.526 0 0 1 3.344 6.844c.87 3.393-3.91 11.04-5.3 11.587a2.326 2.326 0 0 1-.508.146c-2.024.372-4.595-1.427-5.456-3.207M42.563 36.466v-.234c0-5.72-.313-10.922.166-16.622"/>
    <path stroke="#000229" stroke-linecap="round" stroke-linejoin="round" stroke-width=".84" d="m51.275 29.329.06.225c.508 2.16.644 4.888 1.583 6.766"/>
    <path stroke="#000229" stroke-linecap="round" stroke-linejoin="round" stroke-width=".86" d="M44.061 16.325a4.988 4.988 0 0 0-.84-.978c-2.298-1.955-3.814 2.406-2.865 3.647a2.19 2.19 0 0 0 2.356.528c.182-.054.36-.126.528-.215M53.868 10.537c.42 0 4.986-.978 6.58-2.337.48-.41.694-.87.44-1.35-.616-1.212-4.625.069-8.614 1.721-3.794 1.575-7.587 3.471-8.457 3.911l-.147.069M49.378 16.745a2.689 2.689 0 0 0-2.376.43"/>
    <path stroke="#000229" stroke-linecap="round" stroke-linejoin="round" stroke-width=".86" d="M42.777 17.117c-.42.375-.961.59-1.525.606M54.71 16.902c-.645-.303-2.121-.216-2.375.42-.42.978.205 3.168.469 4.39.186.841.479 2.454-.978 2.024M49.807 25.819a1.722 1.722 0 0 0 2.669-.176M41.313 38.579c-.186 0-5.534-.167-8.535 1.398-3.442 1.799-17.16 12.456-20.768 18.92L5.068 79.115h.127c.734.205 4.293 1.232 5.006 1.369a.274.274 0 0 0 .108 0c.303 0 8.8-15.996 8.8-15.996l12.642-9.455 3.559-2.66M8.757 84.806a8.86 8.86 0 0 1-.92 2.767c-1.417 2.68-3.91 3.794-4.82 2.151"/>
    <path stroke="#000229" stroke-linecap="round" stroke-linejoin="round" stroke-width=".86" d="M6.903 84.757a6.785 6.785 0 0 1-3.666 4.889l-.225.108c-.518.234-1.438.557-1.77-.128a1.124 1.124 0 0 1 .372-1.33h.068"/>
    <path stroke="#000229" stroke-linecap="round" stroke-linejoin="round" stroke-width=".86" d="M4.912 84.239c-.235 1.3-2.043 3.305-3.305 4.028a1.7 1.7 0 0 1-.792.264c-1.33 0-1.26-1.378-.254-2.063 3.442-2.346 2.63-6.355 4.635-7.303M7.877 87.592a1.36 1.36 0 0 0 2.034-.762c.359-.864.567-1.784.616-2.718a8.515 8.515 0 0 0-.333-3.49M106.136 78.998c.15.541.112 1.117-.107 1.633a2.569 2.569 0 0 1-3.041 1.486l-.313-.107a2.563 2.563 0 0 1 .453-4.873 2.56 2.56 0 0 1 3.008 1.861Z"/>
    <path stroke="#000229" stroke-linecap="round" stroke-linejoin="round" stroke-width=".86" d="M106.355 78.93c.743-.978.254-2.073-.665-2.777a3.16 3.16 0 0 0-.655-.4 3.588 3.588 0 0 0-4.791 1.427"/>
    <path stroke="#000229" stroke-linecap="round" stroke-linejoin="round" stroke-width=".86" d="M105.904 76.104c.264-1.418-1.349-1.956-1.955-2.083l-.323-.058c-1.652-.274-3.129 0-4.077 1.701"/>
    <path stroke="#000229" stroke-linecap="round" stroke-linejoin="round" stroke-width=".86" d="M41.315 38.559c.312-.802.41-1.819 1.192-2.298h.059c.978-.45 6.727-.977 9.953-.107.153.042.298.108.43.195a3.99 3.99 0 0 1 1.506 2.24s7.597.351 10.316 2.053c4.888 3.09 15.184 22.214 16.289 23.309 2.571 2.562 12.221 8.125 15.927 10.07.456.282.94.512 1.447.685.645-1.476 3.911-2.992 5.241-.919M63.986 57.997s9.778 11.44 11.606 12.525a196.128 196.128 0 0 0 20.797 8.555c.733.234 1.427.44 2.053.606a.851.851 0 0 1 .577.489c.4.978 1.642 3.148 3.999 2.004"/>
    <path stroke="#000229" stroke-linecap="round" stroke-linejoin="round" stroke-width=".86" d="m60.478 8.249 47.45-5.31v167.067"/>
    <path stroke="#000229" stroke-linecap="round" stroke-linejoin="round" stroke-width=".86" d="M96.361 79.018c1.046-.714 1.35-4.283.607-5.006"/>
  </g>
  <defs>
    <clipPath id="a">
      <path fill="#fff" d="M0 0h127v170H0z" transform="translate(.166)"/>
    </clipPath>
  </defs>
</svg>
