<svg xmlns="http://www.w3.org/2000/svg" width="130" height="172" fill="none">
  <path fill="#E5E8FF" d="M113.28 87.882c-1.327-.182-3.207-4.658-.229-6.243l.305-.172a26.012 26.012 0 0 1 4.2 27.834c.287-3.999.821-7.846-2.205-10.041-4.419-3.208-9.984.448-9.984.448 0-5.345.306-10.185-.172-15.52a1.661 1.661 0 0 0 1.833-.535 2.627 2.627 0 0 0 .134-1.909 1.599 1.599 0 0 0 1.174.601c-.478 1.766-.955 5.728 4.877 5.537h.067ZM105.576 77.115h-.105c-.249-.23-.602-.248-1.079.114h-.124a13.774 13.774 0 0 0-.83-2.796c.773.305 1.536.649 2.281 1.03a4.264 4.264 0 0 0-.143 1.652ZM98.647 93.218a29.59 29.59 0 0 1-1.547 6.06c-.18-.954-2.367-2.261-4.104-2.261-5.947 0-7.14 5.965-7.817 9.354-.144-2.052-.287-4-.363-4.687-.077-.687.057-1.718-1.556-1.69h-3.885a.954.954 0 0 0-.954 1.117c0 .249.057.545.095.85a2.434 2.434 0 0 0-2.377 2.472c.012.273.09.538.23.773a2.161 2.161 0 0 0 .314 2.196c-.382 1.689.955 2.262 1.91 2.281h.658v.162l.19 1.804a1.117 1.117 0 0 0 1.223 1.041h.372c0 1.231-.84 8.19 2.043 9.45l-.067.143A26.024 26.024 0 0 1 68.52 93.105a26.02 26.02 0 0 1 25.354-20.457h.735a9.23 9.23 0 0 0-3.102 7.808c.241.132.498.235.764.305l-.086.277v1.04a2.262 2.262 0 0 0 .229 3.819c.391 3.56 1.393 6.92 3.923 7.426.766.159 1.56.123 2.31-.105Z"/>
  <path fill="#E5E8FF" d="M91.07 106.772c0 .563-.163 10.127-2.396 17.181v.162a25.94 25.94 0 0 1-5.67-1.851l.067-.144c.194.088.4.146.61.172 3.494.535 7.389-15.52 7.389-15.52Z"/>
  <path stroke="#000229" stroke-linecap="round" stroke-miterlimit="10" stroke-width=".821" d="M92.398 85.696c.392 3.56 1.394 6.91 3.924 7.426a5.908 5.908 0 0 0 5.793-2.978M92.148 80.78v1.04M103.918 80.895c2.31-3.742 4.028 1.183 3.131 2.472a1.91 1.91 0 0 1-2.444.286"/>
  <path stroke="#000229" stroke-linecap="round" stroke-miterlimit="10" stroke-width=".821" d="M105.827 81.019a2.31 2.31 0 0 0 .152 1.594"/>
  <path stroke="#000229" stroke-linecap="round" stroke-linejoin="round" stroke-width=".821" d="M104.621 79.339a4.245 4.245 0 0 1-2.061 1.45 6.444 6.444 0 0 1-6.148-2.643c-.439.954-.677 1.737-1.584 2.147a3.817 3.817 0 0 1-3.36-.095c-.792-6.1 6.195-12.905 11.034-7.503 1.499 1.68 1.909 4.888 2.196 7.054"/>
  <path stroke="#000229" stroke-linecap="round" stroke-miterlimit="10" stroke-width=".821" d="M104.391 76.981c1.517-1.145 1.794 1.585 1.422 2.415"/>
  <path stroke="#000229" stroke-linecap="round" stroke-linejoin="round" stroke-width=".821" d="M110.663 80.465a2.028 2.028 0 0 1-2.511 1.507 2.02 2.02 0 0 1-.925-.552"/>
  <path stroke="#000229" stroke-linecap="round" stroke-linejoin="round" stroke-width=".821" d="M105.58 76.829c-.267-2.406 1.976-6.816 7.426-4.697 4.257 1.652 4.114 7.073 0 9.22-2.978 1.585-1.088 6.081.239 6.253"/>
  <path stroke="#000229" stroke-linecap="round" stroke-linejoin="round" stroke-width=".821" d="M113.279 87.605c-5.87.143-5.355-3.76-4.877-5.536M99.24 85.944c1.218 0 2.205-1.008 2.205-2.253 0-1.244-.987-2.252-2.205-2.252s-2.205 1.008-2.205 2.252c0 1.245.987 2.253 2.205 2.253ZM93.44 85.944c1.217 0 2.204-1.008 2.204-2.253 0-1.244-.987-2.252-2.205-2.252-1.217 0-2.205 1.008-2.205 2.252 0 1.245.988 2.253 2.205 2.253Z"/>
  <path stroke="#000229" stroke-linecap="round" stroke-miterlimit="10" stroke-width=".821" d="M103.86 80.933s-2.587 1.67-2.606 1.67"/>
  <path stroke="#000229" stroke-linecap="round" stroke-linejoin="round" stroke-width=".821" d="M97.027 83.72a.687.687 0 1 0-1.375 0M100.011 88.989a1.54 1.54 0 0 1-1.459 1.233 1.547 1.547 0 0 1-.67-.126"/>
  <path stroke="#000229" stroke-linecap="round" stroke-linejoin="round" stroke-width=".821" d="M95.776 83.51a7.994 7.994 0 0 1-.2 1.413c-.058.372-.583 2.472-.64 2.787-.058.315 1.126.401 1.412.449"/>
  <path stroke="#000229" stroke-linecap="round" stroke-miterlimit="10" stroke-width=".821" d="M113.472 115.391c-2.653-2.864-11.912-11.044-12.294-11.321a3.87 3.87 0 0 0-1.909-.429 27.344 27.344 0 0 0-5.727.095c-.954.115-1.183 1.423-.076 1.499.744.048 1.565-.057 2.32-.057 1-.039 2-.01 2.996.086"/>
  <path stroke="#000229" stroke-linecap="round" stroke-miterlimit="10" stroke-width=".821" d="M98.791 105.311a6.691 6.691 0 0 0-3.197.401c-1.508.621-.62 2.005-.344 2.291"/>
  <path stroke="#000229" stroke-linecap="round" stroke-miterlimit="10" stroke-width=".821" d="M98.708 106.801c-.754-.058-3.637-.229-3.475 1.613 0 .496 1.146 2.405 2.482 2.081a.59.59 0 0 0 .414-.266.586.586 0 0 0 .063-.488c-.095-.354-.496-.545-.735-.793-.238-.248-.286-.257-.124-.41a2.783 2.783 0 0 1 1.499 0c3.379 1.632 8.705 8.991 10.175 10.729"/>
  <path stroke="#000229" stroke-miterlimit="10" stroke-width=".821" d="M82.183 105.979a.78.78 0 0 0 .862-.51.783.783 0 0 0-.347-.94 31.873 31.873 0 0 0-3.818-.516.83.83 0 0 1-.554-.219c-.257-.344.124-.831.506-.84"/>
  <path stroke="#000229" stroke-miterlimit="10" stroke-width=".821" d="M78.479 101.713a2.424 2.424 0 0 0-2.377 2.463c.086 1.403 1.556 1.832 2.1 1.909.544.076 4.257-.191 4.772 0 .516.19.888 1.345 0 1.651a34.994 34.994 0 0 1-4.658.143 2.045 2.045 0 0 1-1.83-.854 2.053 2.053 0 0 1-.212-2.009"/>
  <path stroke="#000229" stroke-miterlimit="10" stroke-width=".821" d="M82.801 107.803a.768.768 0 0 1 .493.72.775.775 0 0 1-.493.721c-1.41.156-2.829.223-4.248.2-1.097 0-2.443-.639-1.909-2.5"/>
  <path stroke="#000229" stroke-miterlimit="10" stroke-width=".821" d="m79.251 109.616.191 1.795a1.12 1.12 0 0 0 .39.782 1.125 1.125 0 0 0 .832.268l4.028-.267a1.127 1.127 0 0 0 .869-1.299c-.191-2.52-.554-8.208-.707-9.545-.085-.697.058-1.718-1.546-1.68h-3.894a.955.955 0 0 0-.955 1.117c.096.955.287 2.319.382 3.264"/>
  <path stroke="#000229" stroke-linejoin="round" stroke-width=".821" d="M117.592 109.005c.286-4.056.706-9.077-2.625-10.89-5.116-2.778-9.545 1.326-9.545 1.326 0-5.336.305-10.185-.172-15.51M85.172 106.151c.668-3.379 1.842-9.411 7.827-9.411 1.737 0 3.694.802 4.104 2.262a29.012 29.012 0 0 0 1.547-6.109M88.675 123.724c2.234-7.111 2.415-16.675 2.396-17.238 0 0-3.894 16.055-7.416 15.577-3.523-.477-2.654-8.543-2.654-9.678M104.203 106.686l5.966.086v5.393M91.07 106.495l3.713.048"/>
  <path stroke="#000229" stroke-miterlimit="10" stroke-width=".821" d="M105.72 75.244a28.056 28.056 0 0 0-2.31-1.05M94.61 72.39h-.773a26.02 26.02 0 1 0 19.529 8.839"/>
  <path stroke="#000229" stroke-linejoin="round" stroke-width=".821" d="M91.582 106.457c-.124-.239-.878-7.951 3.112-9.46M94.84 103.345c-.124-.745.315-4.2 1.91-4.458M109.922 106.8c.124-.229.878-7.95-3.121-9.459M107.058 106.81c.2-1.212.066-6.901-1.652-7.426"/>
  <path fill="#E5E8FF" d="M55.824 61.566c1.708 11.397 4.018 28.312 4.123 33.829h-.477l-36.33.067h-.667c.2-3.647.496-3.98.744-9.393l8.524.43c-4.553-.592-10.948-3.637-15.616-7.55-3.408-2.864-5.908-6.167-6.109-9.317-.172-2.615 1.06-4.667 2.195-7.006 1.423-2.95 9.68-13.697 11.693-15.358 2.291-1.91 10.09-3.036 10.09-3.036.315-.782.477-1.489 1.24-1.956.049-.028.1-.05.153-.067a23.664 23.664 0 0 1 9.64-.134c.142.038.277.095.402.172a2.662 2.662 0 0 1 1.365 1.985s4.706-.18 7.54 1.365a72.918 72.918 0 0 1 11.369 8.362c.13-3.823-.01-7.65-.42-11.454l4.772-.353h.134c1.728 5.88 5.536 19.863 3.293 22.087-1.68 1.709-16.217-2.176-17.658-2.673Zm-28.235-.39c-.458.476-.907.954-1.356 1.45a73.24 73.24 0 0 0-5.631 6.844c-1.804 3.026 11.187 10.958 14.317 11.712v.573c-.066 1.326-.314 4.524-1.173 4.772.572.754 4.524 3.513 6.032 3.761 2.205.382 4.916-1.794 6.558-3.13a3.58 3.58 0 0 0 3.75-3.399l.889-17.868a3.59 3.59 0 0 0-3.398-3.752l-19.988-.964Z"/>
  <path stroke="#000229" stroke-linecap="round" stroke-linejoin="round" stroke-width=".821" d="M75.294 6.217h-9.555a2.243 2.243 0 0 0-2.243 2.243v4.315a2.243 2.243 0 0 0 2.243 2.243h9.555a2.243 2.243 0 0 0 2.243-2.243V8.46a2.243 2.243 0 0 0-2.243-2.243Z"/>
  <path stroke="#000229" stroke-linecap="round" stroke-linejoin="round" stroke-width=".821" d="m64.535 6.79 5.985 5.717 6.28-5.994"/>
  <path stroke="#000229" stroke-linecap="round" stroke-linejoin="round" stroke-width=".821" d="m64.527 6.809 5.995 5.698 6.28-5.994M64.137 14.445l3.98-4.152M76.81 14.254l-3.798-3.961"/>
  <path stroke="#000229" stroke-linecap="round" stroke-linejoin="round" stroke-width=".821" d="M73.526 19.676H61.93a2.129 2.129 0 0 1-2.234-1.995V3.048a2.119 2.119 0 0 1 2.234-1.995h16.408a2.12 2.12 0 0 1 2.234 1.995v14.633a2.129 2.129 0 0 1-2.234 1.995h-2.224"/>
  <path stroke="#000229" stroke-linecap="round" stroke-linejoin="round" stroke-width=".821" d="M76.18 18.492s-.553 4.41-1.689 5.27c-1.136.858-.85-6.1-.85-6.1"/>
  <path fill="#000229" d="M72.647 37.334a2.127 2.127 0 0 0-1.832-.152c-.678.286-1.212-.812-.573-1.432.129-.12.27-.225.42-.315v-.086c-1.518-.363-.86-1.289-.372-1.651a3.48 3.48 0 0 1 .515-.306c-1.47-.181-.954-1.498-.42-1.842a4.676 4.676 0 0 1 1.642-.659l-.391-3.942a1.699 1.699 0 0 0-1.776-1.623l-4.276.43a1.7 1.7 0 0 0-1.432 1.91l.544 5.23v.067c1.174-.563 2.616-.773 2.912.057.4 1.098-2.664 2.863-2.664 2.863l.182 2.196a1.699 1.699 0 0 0 1.785 1.613l4.266-.42c.926-.086 2.11-1.193 1.47-1.938Zm-3.894.878a.744.744 0 1 1 0-1.488.744.744 0 0 1 0 1.489Z"/>
  <path stroke="#000229" stroke-linecap="round" stroke-linejoin="round" stroke-width=".821" d="M65.297 53.351a81.145 81.145 0 0 0-.43-11.454"/>
  <path stroke="#000229" stroke-miterlimit="10" stroke-width=".821" d="M69.902 41.42c-2.358-.659-5.441.697-5.441.697M64.678 32.906l-.506-5.231a1.7 1.7 0 0 1 1.431-1.91l4.277-.429a1.708 1.708 0 0 1 1.775 1.623l.401 4.028M74.719 36.075c2.033-2.769-2.262-3.971-4.439-2.377-.487.363-1.145 1.288.373 1.651"/>
  <path stroke="#000229" stroke-miterlimit="10" stroke-width=".821" d="M74.672 33.526c1.746-2.864-2.234-3.38-4.324-1.986-.516.344-1.05 1.661.42 1.843"/>
  <path stroke="#000229" stroke-linejoin="round" stroke-width=".821" d="M69.566 41.353s3.818.353 5.154-2.205a2.645 2.645 0 0 0-.563-3.36 3.045 3.045 0 0 0-3.914 0c-.64.62-.105 1.718.573 1.432a2.129 2.129 0 0 1 1.833.153c.64.754-.544 1.851-1.432 1.909l-4.267.42a1.7 1.7 0 0 1-1.823-1.623l-.21-2.205s3.064-1.747 2.663-2.864c-.4-1.116-3.054-.295-4.085.726-1.48 1.46-1.91 6.958 1.384 8.17"/>
  <path stroke="#000229" stroke-miterlimit="10" stroke-width=".821" d="M55.324 60.92c.83.344 16.017 4.449 17.783 2.692 2.243-2.224-1.566-16.226-3.284-22.078"/>
  <path fill="#fff" d="M76.04 7.802a2.463 2.463 0 1 0 0-4.926 2.463 2.463 0 0 0 0 4.926Z"/>
  <path fill="#000229" d="M76.009 2.275a3.083 3.083 0 1 0 0 6.166 3.083 3.083 0 0 0 0-6.166Zm.525 4.563a.41.41 0 0 1-.41.41.42.42 0 0 1-.42-.41V5.014l-.048.077a.41.41 0 1 1-.688-.449l.812-1.231a.391.391 0 0 1 .458-.162.41.41 0 0 1 .296.39v3.199Z"/>
  <path fill="#E5E8FF" d="M57.485 165.38c2.004.229 3.894 1.346 3.426 3.895H45.477c.43-2.511-1.451-3.618-3.446-3.819a18.023 18.023 0 0 1-2.968-.639v-2.673h8.514c.773.105 5.746 2.74 9.908 3.236Z"/>
  <path fill="#E5E8FF" d="M42.03 165.38c1.995.229 3.876 1.336 3.446 3.818H23.522c0-.668 0-3.245-.057-7.159h8.753c.582.124 3.656 1.709 6.93 2.654.94.308 1.904.538 2.882.687Z"/>
  <path fill="#000229" d="M46.918 24.932a.401.401 0 0 1-.792.057.4.4 0 0 1 .363-.43.4.4 0 0 1 .43.373ZM41.677 25.066a.41.41 0 0 1-.372.43.401.401 0 0 1-.42-.373.381.381 0 0 1 .363-.42.401.401 0 0 1 .429.363Z"/>
  <path stroke="#000229" stroke-linecap="round" stroke-linejoin="round" stroke-width=".821" d="M32.017 56.928a50.297 50.297 0 0 0-4.429 4.247 65.53 65.53 0 0 0-1.355 1.451A73.241 73.241 0 0 0 20.6 69.47c-1.804 3.026 11.187 10.958 14.318 11.712v.573c-.067 1.326-.315 4.524-1.174 4.772h-.105a12.609 12.609 0 0 1-1.852-.095c-4.553-.592-10.948-3.637-15.616-7.55-3.408-2.864-5.909-6.167-6.109-9.317-.172-2.615 1.06-4.667 2.195-7.006 1.423-2.95 9.68-13.697 11.693-15.358 2.291-1.91 10.09-3.035 10.09-3.035.315-.783.477-1.49 1.24-1.957.049-.028.1-.05.153-.067a23.662 23.662 0 0 1 9.64-.134c.142.038.277.096.402.172a2.662 2.662 0 0 1 1.365 1.986s4.706-.182 7.54 1.365a72.92 72.92 0 0 1 11.369 8.361 86.316 86.316 0 0 1 1.69 1.508"/>
  <path stroke="#000229" stroke-miterlimit="10" stroke-width=".821" d="M46.338 87.167c-1.641 1.336-4.352 3.512-6.557 3.13-1.508-.248-5.46-3.006-6.033-3.76a.722.722 0 0 1-.076-.124"/>
  <path stroke="#000229" stroke-linecap="round" stroke-linejoin="round" stroke-width=".821" d="M23.217 86.069c-.248 5.412-.544 5.727-.744 9.392h.668l36.329-.066h.477c-.105-5.517-2.415-22.432-4.123-33.829-.44-2.91-.83-5.46-1.146-7.369"/>
  <path stroke="#000229" stroke-miterlimit="10" stroke-width=".821" d="M46.095 87.167h-.105c-1.747.085-4.868.095-5.803-.726-.573-.506-.602-2.615.353-3.026.658-.286 1.985-.735 2.453-1.012a.955.955 0 0 0-.296-1.803 12.404 12.404 0 0 0-2.224 0c-1.432.171-3.685 1.574-5.575 1.154"/>
  <path stroke="#000229" stroke-linecap="round" stroke-miterlimit="10" stroke-width=".821" d="M36.047 21.524c.114-.802.238-1.747.42-2.701a9.44 9.44 0 0 1 1.775-4.353c2.186-2.443 4.534-1.527 6.53.525a15.282 15.282 0 0 1 1.565 1.91 23.864 23.864 0 0 1 3.255 6.681c.84 3.312-3.819 10.748-5.164 11.282-.161.064-.327.112-.497.144-1.966.362-4.467-1.394-5.307-3.122"/>
  <path stroke="#000229" stroke-miterlimit="10" stroke-width=".821" d="M35.37 42.133c0-5.66-.306-10.787.172-16.428M43.883 34.811c.004.077.004.153 0 .23.487 2.29.62 5.125 1.517 7.168"/>
  <path stroke="#000229" stroke-linecap="round" stroke-miterlimit="10" stroke-width=".821" d="M36.826 22.517a5.07 5.07 0 0 0-.82-.954c-2.234-1.91-3.714 2.338-2.788 3.55a2.119 2.119 0 0 0 2.29.506c.184-.046.36-.117.526-.21"/>
  <path stroke="#000229" stroke-miterlimit="10" stroke-width=".821" d="M46.28 16.933c.535-.057 7.952-1.556 6.892-3.627-.61-1.193-4.534.067-8.457 1.69-3.722 1.546-7.445 3.416-8.304 3.817l-.134.067"/>
  <path stroke="#000229" stroke-linecap="round" stroke-miterlimit="10" stroke-width=".821" d="M42.005 22.937a2.577 2.577 0 0 0-2.31.41M35.587 23.29a2.262 2.262 0 0 1-1.49.592M47.23 23.08c-.62-.286-2.052-.2-2.31.42-.41.955.2 3.074.468 4.267.172.811.458 2.396-.954 1.966M42.46 31.805a1.681 1.681 0 0 0 2.597-.172"/>
  <path stroke="#000229" stroke-miterlimit="10" stroke-width=".821" d="M38.824 138.94c.096 10.185.22 18.966.258 23.128v2.549"/>
  <path stroke="#000229" stroke-linecap="round" stroke-miterlimit="10" stroke-width=".821" d="M29.335 98.507c.115 4.123-2.74 6.595-6.28 7.578-.97.267-1.965.424-2.97.468"/>
  <path stroke="#000229" stroke-linecap="round" stroke-linejoin="round" stroke-width=".821" d="m45.418 169.256-21.954.105v-.153c0-.668 0-3.246-.057-7.159-.124-11.874-.41-36.024-.325-55.983 0-3.722.048-7.302.086-10.624v-.047"/>
  <path stroke="#000229" stroke-linecap="round" stroke-linejoin="round" stroke-width=".821" d="M44.15 103.327a170.14 170.14 0 0 1-5.364 35.603c-2.014 8.123-4.353 15.874-6.605 23.042l-.048.096c.582.124 3.656 1.708 6.93 2.653.97.297 1.962.511 2.968.64 1.995.229 3.876 1.336 3.446 3.818"/>
  <path stroke="#000229" stroke-linecap="round" stroke-linejoin="round" stroke-width=".821" d="M59.466 95.576c-.592 26.335-6.357 48.967-11.874 66.492.773.162 5.727 2.797 9.908 3.293 2.005.229 3.894 1.346 3.427 3.895H45.32"/>
  <path stroke="#000229" stroke-miterlimit="10" stroke-width=".821" d="M47.95 162.077h-8.723M32.142 162.077h-8.724"/>
  <path stroke="#000229" stroke-linecap="round" stroke-linejoin="round" stroke-width=".821" d="M23.429 169.236h-.038v1.814h22.03v-1.814H23.429ZM45.445 169.284v1.766H60.87v-1.814H45.445v.048Z"/>
  <path stroke="#000229" stroke-miterlimit="10" stroke-width=".821" d="m31.75 86.47-8.523-.43-3.876-.19a3.589 3.589 0 0 1-3.398-3.752l.162-3.16M27.445 61.166h.143l19.95.954a3.59 3.59 0 0 1 3.398 3.751l-.84 17.907a3.58 3.58 0 0 1-3.818 3.389h-.544"/>
  <path stroke="#000229" stroke-miterlimit="10" stroke-width=".821" d="m26.234 62.636 20.045.954a3.179 3.179 0 0 1 3.026 3.322l-.773 15.807-.191 3.713"/>
</svg>
