<svg xmlns="http://www.w3.org/2000/svg" width="104" height="170" fill="none">
  <path fill="#E5E8FF" d="M83.046 57.058c1.46-.33 2.64-.61 3.4-.83-2.07-2.4-2.9-3.6-4.25-5.31 0 0 .27 1.86.84 6.12l.01.02Zm1 7.46v.09c1.47 10.26 3.19 21.6 3.31 23.81l-39.26-.07c.13-7.06 3-26.83 4.65-37-.87.36-16.18 6-18 4.15v-.05c-1.27-7.28-2.9-15.22-3.83-21.2l4.3-1.87c.67 2.09 3.59 9.74 5.42 13.75a81.274 81.274 0 0 1 13.37-9.98c3-1.62 7.9-1.42 7.9-1.42a2.83 2.83 0 0 1 1.56-2.16l.29-.11c3.35-.92 9.49-.26 10.26.21a3.53 3.53 0 0 1 1.28 2s8.17 1.2 10.57 3.17c0 0 7.28 9.95 10.92 17.76 1.34 2.87.83 4.63-1.61 6-1.4.94-6.2 2.06-11.11 2.92h-.02Zm-13.55-4c.18-.48-.93-1.83-2.24-1.94h-.13l.5-4.28c0-.53-2-1-4.41-1s-4.4.44-4.4 1a.29.29 0 0 0 .06.17l.54 4.75a.244.244 0 0 0 0 .08 1 1 0 0 0-1.06 1.09 2.14 2.14 0 0 0 1.14 1.59.93.93 0 0 0-1.13.87 2.001 2.001 0 0 0 1.11 1.4.828.828 0 0 0-1.09.76c0 .48.68 1.08 1.9 1.5v.24l.3 2.69c.835.244 1.7.372 2.57.38a12.48 12.48 0 0 0 2.81-.38l.28-2.54v-.16a19.167 19.167 0 0 0 3.68-1.06l.17-.14c-.89-.89-1.53-3.77-.58-5.02h-.02ZM63.554 165.688v-.06h-16.19c-.47-2.66 1.51-3.83 3.6-4.07 4.35-.51 9.57-3.28 10.38-3.45h8.92v2.79c-1.019.311-2.063.536-3.12.67-2.09.27-4.08 1.44-3.59 4.12Z"/>
  <path fill="#E5E8FF" d="M63.553 165.628v.06c-.49-2.68 1.5-3.85 3.59-4.09a18.78 18.78 0 0 0 3.12-.67c3.43-1 6.64-2.65 7.26-2.78h9.15c0 4.09-.05 6.8 0 7.5l-23.12-.02Z"/>
  <path fill="#000229" d="M67.872 14.438a.42.42 0 0 1 .39.44.43.43 0 0 1-.45.39.42.42 0 0 1-.38-.45.398.398 0 0 1 .44-.38ZM62.383 14.288a.42.42 0 1 1-.173.821.42.42 0 0 1 .173-.821Z"/>
  <path stroke="#000229" stroke-miterlimit="10" stroke-width=".86" d="M52.775 51.378c-.87.36-16.18 6-18 4.15"/>
  <path stroke="#000229" stroke-linecap="round" stroke-miterlimit="10" stroke-width=".86" d="M73.324 11.098c-.12-.84-.25-1.82-.44-2.82a9.89 9.89 0 0 0-1.86-4.51c-2.29-2.56-4.75-1.6-6.84.55-.6.621-1.148 1.29-1.64 2a25 25 0 0 0-3.41 7c-.88 3.46 4 11.26 5.41 11.82.17.061.343.108.52.14 2.06.39 4.68-1.45 5.56-3.26"/>
  <path stroke="#000229" stroke-miterlimit="10" stroke-width=".86" d="M74.03 32.698c0-5.92.32-11.3-.17-17.2M65.114 25.018c-.005.08-.005.16 0 .24-.52 2.33-.66 5.21-1.62 7.28"/>
  <path stroke="#000229" stroke-linecap="round" stroke-miterlimit="10" stroke-width=".86" d="M72.501 12.148c.248-.366.536-.701.86-1 2.34-2 3.89 2.45 2.93 3.71a2.22 2.22 0 0 1-2.41.54 2.427 2.427 0 0 1-.54-.22"/>
  <path stroke="#000229" stroke-miterlimit="10" stroke-width=".86" d="M62.564 6.298c-.56-.06-8.33-1.63-7.22-3.81.64-1.24 4.76.08 8.86 1.78 3.9 1.62 7.8 3.58 8.7 4l.14.06"/>
  <path stroke="#000229" stroke-linecap="round" stroke-miterlimit="10" stroke-width=".86" d="M67.084 12.588a2.69 2.69 0 0 1 2.42.43M73.775 12.957c.43.386.983.606 1.56.62M61.654 12.768c.66-.3 2.15-.22 2.42.43.43 1.05-.21 3.23-.48 4.48-.19.85-.49 2.5 1 2.06M66.643 21.838a1.75 1.75 0 0 1-2.72-.19"/>
  <path stroke="#000229" stroke-miterlimit="10" stroke-width=".86" d="M70.504 133.908c-.09 10.66-.22 19.86-.26 24.23v2.67"/>
  <path stroke="#000229" stroke-linecap="round" stroke-miterlimit="10" stroke-width=".86" d="M80.454 91.538c-.12 4.28 2.81 6.86 6.47 7.91 1.05.298 2.13.476 3.22.53"/>
  <path stroke="#000229" stroke-linecap="round" stroke-linejoin="round" stroke-width=".86" d="M86.634 165.628v-7.5c.11-12.45.36-37.78.25-58.68 0-3.72-.05-7.3-.1-10.64M63.556 165.688l23.08.1v-.14M64.936 96.588c.55 12.6 2.434 25.107 5.62 37.31 2.11 8.5 4.56 16.63 6.92 24.13v.1c-.62.13-3.83 1.79-7.26 2.78a18.882 18.882 0 0 1-3.12.67c-2.09.24-4.08 1.41-3.59 4.09"/>
  <path stroke="#000229" stroke-linecap="round" stroke-linejoin="round" stroke-width=".86" d="M48.885 88.468c.62 27.59 6.66 51.3 12.44 69.66-.81.17-6 2.94-10.38 3.45-2.09.24-4.07 1.41-3.6 4.07h16.43"/>
  <path stroke="#000229" stroke-miterlimit="10" stroke-width=".86" d="M60.955 158.138H70.095M77.501 158.138h9.14"/>
  <path stroke="#000229" stroke-linecap="round" stroke-linejoin="round" stroke-width=".86" d="M86.636 165.798v1.74h-23.08V165.638h23.08v.16ZM63.52 165.688v1.85H47.36V165.638h16.16v.05ZM84.084 64.608c1.47 10.26 3.19 21.6 3.31 23.81l-39.26-.07c.13-7.06 3-26.83 4.65-37 0-.29.09-.56.13-.83"/>
  <path stroke="#000229" stroke-linecap="round" stroke-miterlimit="10" stroke-width=".86" d="M35.263 32.218c1.7-2.47.27-6.63-.21-8.28-.28-1-1.73-.92-1.58.5.12 1.22.29 2.51-.21 3M33.192 27.598a.244.244 0 0 0 0-.08c-.97-2.75-4.12-7.75-5.75-6.75a.65.65 0 0 0-.29.84c.186.41.455.778.79 1.08a9.001 9.001 0 0 1 2.4 3.39M27.103 21.637a1.88 1.88 0 0 0-1.52-.74.82.82 0 0 0-.85.66c-.16.5.19.9.54 1.23a21.48 21.48 0 0 1 3.31 4.33"/>
  <path stroke="#000229" stroke-linecap="round" stroke-miterlimit="10" stroke-width=".86" d="M30.774 34.288c-1.4-.16-2.49-3.41-2.86-4.48a13.643 13.643 0 0 0-2.68-4.22c-.42-.49-1.28-1.3-1.23-2a.999.999 0 0 1 1.28-.71M31.236 29.428c-.4-1.32 1.21-1.87 2-1.84"/>
  <path stroke="#000229" stroke-linecap="round" stroke-linejoin="round" stroke-width=".86" d="m40.322 46.488.31-.28a81.27 81.27 0 0 1 13.37-10.06c3-1.62 7.9-1.42 7.9-1.42a2.83 2.83 0 0 1 1.56-2.16l.29-.11c3.35-.92 9.49-.26 10.26.21a3.53 3.53 0 0 1 1.28 2s8.17 1.2 10.57 3.17c0 0 7.28 9.95 10.92 17.76 1.34 2.87.83 4.63-1.61 6-1.47.84-6.22 2-11.13 2.82-5.79 1-11.79 1.7-12.79 1.17a.94.94 0 0 1-.24-.18c-.83-.86-1.47-3.73-.52-5a1.47 1.47 0 0 1 .76-.52c4.19-1.21 8.62-2.21 11.77-2.94 1.46-.33 2.64-.61 3.4-.83-2.07-2.4-2.9-3.6-4.25-5.31 0 0 .27 1.86.84 6.12"/>
  <path stroke="#000229" stroke-miterlimit="10" stroke-width=".86" d="M68.012 59.608c-.6 1.55-3.59 1.28-4.9 1.07-.46-.07-2.34-.61-2.67-1.45a.239.239 0 0 1 0-.08"/>
  <path stroke="#000229" stroke-linecap="round" stroke-miterlimit="10" stroke-width=".86" d="M60.456 59.238a1 1 0 0 0-1.06 1.09 2.141 2.141 0 0 0 1.14 1.59 7 7 0 0 0 4.75.84M60.514 61.928a.93.93 0 0 0-1.13.87 1.999 1.999 0 0 0 1.11 1.4 7.61 7.61 0 0 0 4.67.75"/>
  <path stroke="#000229" stroke-linecap="round" stroke-miterlimit="10" stroke-width=".86" d="M60.474 64.218a.83.83 0 0 0-1.09.76c0 .48.68 1.08 1.9 1.5a12 12 0 0 0 5.9.23 19.167 19.167 0 0 0 3.68-1.06M70.492 60.498c.18-.48-.93-1.83-2.24-1.94"/>
  <path stroke="#000229" stroke-linecap="round" stroke-linejoin="round" stroke-width=".86" d="m59.853 54.237.02.17.54 4.76.01.06M68.621 54.237v.03l-.5 4.28-.12 1.07"/>
  <path stroke="#000229" stroke-linecap="round" stroke-linejoin="round" stroke-width=".86" d="M59.874 54.407a.29.29 0 0 1-.06-.17c0-.53 2-1 4.4-1 2.4 0 4.41.44 4.41 1-.06.52-2 .94-4.4.94-2.19.03-4-.32-4.35-.77ZM67.212 66.868l-.28 2.54c-.92.233-1.862.36-2.81.38a9.467 9.467 0 0 1-2.57-.38l-.3-2.69M34.69 55.478c-1.27-7.28-2.9-15.22-3.83-21.2l4.3-1.87c.67 2.09 3.59 9.74 5.42 13.75"/>
  <path stroke="#000229" stroke-linecap="round" stroke-miterlimit="10" stroke-width=".86" d="M65.386 51.938a2.6 2.6 0 0 0 .72-2 11.709 11.709 0 0 0-.86-1.64c-.63-1.44 0-2.49 1-3.48M62.851 51.938a2.6 2.6 0 0 0 .72-2 12.84 12.84 0 0 0-.86-1.64c-.64-1.44 0-2.49 1-3.48"/>
  <path fill="#000229" d="M28.912 75.996c-.397-2.927-3.13-5.384-6.077-5.534-5.155-.14-6.064 5.739-2.379 8.841 3.381 3.016 8.993 1.713 8.456-3.307Zm-1.248.76c-.17 3.42-4.194 3.543-6.356 1.565a5.215 5.215 0 0 1-1.731-2.81c-.467-2.032.884-3.775 2.96-3.758 2.613.01 5.143 2.353 5.127 5.003Z"/>
  <path fill="#000229" d="M32.04 69.292c-1.52-3.872-6.842-2.511-8.413.717.37.061.734.156 1.087.282.738-1.268 2.28-2.259 3.698-2.274 3.183-.069 3.611 3.657 1.204 5.66-.209.182-.434.345-.672.488.154.335.276.684.366 1.042 2.156-1.11 3.497-3.934 2.73-5.915ZM24.596 81.463c-3.885.078-7.742-4.04-6.799-7.952-2.921 4.862 3.809 11.385 8.673 7.629a5.38 5.38 0 0 1-1.874.323Z"/>
  <path fill="#000229" d="M28.69 73.663c1.634-.942 2.525-3.255 1.459-4.417-1.381-1.469-3.983-.319-4.913 1.254a7.5 7.5 0 0 1 3.453 3.163ZM27.087 76.14c-.305-1.752-1.786-3.23-3.483-3.698-2.066-.614-3.99.68-3.492 2.955.36 1.923 2.534 3.73 4.485 3.687a2.4 2.4 0 0 0 2.49-2.944Zm-1.758 1.294a.265.265 0 0 1-.383 0l-.173-.173a1.123 1.123 0 0 1-1.321-.109.271.271 0 1 1 .355-.41.589.589 0 0 0 .97-.416.589.589 0 0 0-1.003-.444 1.13 1.13 0 0 1-1.766-1.383l-.17-.171a.271.271 0 0 1 .382-.385l.174.17a1.12 1.12 0 0 1 1.136-.013c.143.062.296.206.25.374a.274.274 0 0 1-.437.15.587.587 0 1 0 .049.873c.104-.104.227-.186.364-.241a1.12 1.12 0 0 1 .838-.014c.622.311.952 1.005.564 1.639l.171.17a.27.27 0 0 1 0 .383ZM33.013 69.982a4.537 4.537 0 0 0-.489-.942c.939 2.556-.71 5.52-3.1 6.72.042.25.068.502.075.754.109-.037.171-.062.177-.065 2.53-1.01 4.352-3.857 3.337-6.467Z"/>
  <path stroke="#000229" stroke-linecap="round" stroke-linejoin="round" stroke-width=".86" d="M14.006 78.63V66.872a2.571 2.571 0 0 1 2.42-2.71h17.757a2.583 2.583 0 0 1 2.42 2.71V83.31a2.583 2.583 0 0 1-2.42 2.71H16.427a2.571 2.571 0 0 1-2.421-2.71v-4.54"/>
</svg>
