<svg xmlns="http://www.w3.org/2000/svg" width="127" height="31" fill="none">
  <path fill="#000" stroke="#000" stroke-miterlimit="10" stroke-width=".16" d="M40.899 4.603c0 .89-.273 1.603-.811 2.135-.619.63-1.424.948-2.411.948-.944 0-1.75-.323-2.41-.958-.662-.645-.993-1.437-.993-2.385 0-.948.33-1.74.993-2.38.66-.64 1.466-.963 2.41-.963.47 0 .917.095 1.344.27.426.178.773.418 1.024.714l-.57.562c-.439-.505-1.035-.754-1.798-.754-.688 0-1.285.234-1.792.708-.5.474-.752 1.089-.752 1.843s.251 1.374.752 1.849a2.558 2.558 0 0 0 1.792.708c.73 0 1.344-.24 1.829-.714.32-.313.501-.745.549-1.296h-2.378v-.77h3.172c.039.166.05.327.05.483ZM45.932 1.932h-2.98v2.026h2.687v.77h-2.687v2.026h2.98v.785h-3.824V1.146h3.824v.786ZM49.484 7.54h-.843V1.931h-1.828v-.786h4.5v.786h-1.829v5.607ZM54.571 7.54V1.145h.843V7.54h-.843ZM59.147 7.54h-.837V1.931h-1.834v-.786h4.506v.786h-1.835v5.607ZM69.504 6.717c-.645.646-1.446.97-2.4.97-.96-.001-1.76-.324-2.405-.97-.645-.645-.966-1.437-.966-2.374s.321-1.729.966-2.374C65.344 1.323 66.144 1 67.104 1c.949 0 1.75.323 2.395.974.65.65.97 1.437.97 2.369 0 .937-.32 1.729-.965 2.374Zm-4.181-.536c.486.479 1.077.719 1.781.719.7 0 1.296-.24 1.776-.719.485-.478.73-1.093.73-1.838 0-.745-.245-1.36-.73-1.838-.48-.479-1.077-.719-1.776-.719-.704 0-1.295.24-1.781.719-.485.478-.73 1.093-.73 1.838 0 .745.245 1.36.73 1.838ZM71.653 7.54V1.145h1.024l3.184 4.972h.037L75.86 4.89V1.146h.842V7.54h-.879L72.49 2.322h-.037l.037 1.234V7.54h-.837Z"/>
  <path fill="#000" d="M63.722 17.05c-2.576 0-4.681 1.888-4.681 4.495 0 2.585 2.105 4.494 4.681 4.494 2.582 0 4.687-1.909 4.687-4.494 0-2.607-2.105-4.496-4.687-4.496Zm0 7.219c-1.414 0-2.63-1.124-2.63-2.724 0-1.621 1.216-2.726 2.63-2.726s2.636 1.105 2.636 2.726c0 1.6-1.222 2.724-2.636 2.724Zm-10.214-7.22c-2.582 0-4.681 1.89-4.681 4.496 0 2.585 2.099 4.494 4.681 4.494 2.58 0 4.681-1.909 4.681-4.494 0-2.607-2.1-4.496-4.681-4.496Zm0 7.22c-1.415 0-2.635-1.124-2.635-2.724 0-1.621 1.22-2.726 2.635-2.726 1.414 0 2.63 1.105 2.63 2.726 0 1.6-1.216 2.724-2.63 2.724Zm-12.154-5.842v1.91h4.735c-.139 1.068-.51 1.852-1.077 2.4-.691.66-1.767 1.393-3.658 1.393-2.914 0-5.196-2.265-5.196-5.073 0-2.807 2.282-5.073 5.196-5.073 1.575 0 2.721.593 3.568 1.362L46.319 14c-1.184-1.088-2.758-1.925-4.965-1.925-3.996 0-7.354 3.133-7.354 6.982 0 3.85 3.358 6.982 7.354 6.982 2.16 0 3.782-.681 5.057-1.96 1.306-1.26 1.714-3.03 1.714-4.459a6.16 6.16 0 0 0-.107-1.193h-6.664Zm49.7 1.481c-.385-1.005-1.574-2.859-3.996-2.859-2.4 0-4.397 1.822-4.397 4.496 0 2.518 1.977 4.494 4.628 4.494a4.665 4.665 0 0 0 3.888-1.992l-1.59-1.021c-.53.747-1.253 1.243-2.298 1.243-1.038 0-1.783-.458-2.26-1.362l6.24-2.488-.215-.511Zm-6.362 1.497c-.054-1.733 1.397-2.621 2.436-2.621.815 0 1.506.392 1.736.954l-4.172 1.667Zm-5.072 4.36h2.051v-13.21H79.62v13.21Zm-3.36-7.715h-.068c-.461-.525-1.34-1-2.453-1-2.337 0-4.473 1.976-4.473 4.51 0 2.519 2.136 4.48 4.473 4.48 1.113 0 1.992-.48 2.453-1.022h.068v.645c0 1.718-.953 2.642-2.49 2.642-1.253 0-2.03-.872-2.351-1.605l-1.784.717a4.45 4.45 0 0 0 4.135 2.658c2.405 0 4.435-1.363 4.435-4.68v-8.072H76.26v.727Zm-2.346 6.219c-1.414 0-2.597-1.14-2.597-2.71 0-1.584 1.183-2.74 2.597-2.74 1.393 0 2.492 1.156 2.492 2.74 0 1.57-1.099 2.71-2.492 2.71Zm26.744-11.714h-4.906v13.21h2.046V20.76h2.86c2.272 0 4.5-1.584 4.5-4.103 0-2.518-2.233-4.102-4.5-4.102Zm.053 6.367h-2.913v-4.53h2.913c1.528 0 2.4 1.222 2.4 2.265 0 1.022-.872 2.265-2.4 2.265Zm12.647-1.898c-1.478 0-3.015.629-3.647 2.023l1.815.733c.391-.733 1.109-.971 1.869-.971 1.061 0 2.138.614 2.154 1.699v.139c-.37-.207-1.163-.512-2.138-.512-1.955 0-3.947 1.037-3.947 2.973 0 1.77 1.601 2.91 3.402 2.91 1.376 0 2.136-.598 2.613-1.295h.07v1.022h1.976v-5.068c0-2.342-1.815-3.653-4.167-3.653Zm-.247 7.24c-.669 0-1.601-.32-1.601-1.12 0-1.022 1.162-1.414 2.169-1.414.901 0 1.323.191 1.87.444-.16 1.223-1.253 2.09-2.438 2.09Zm11.613-6.95-2.352 5.726h-.07l-2.431-5.727h-2.206l3.653 8.004-2.084 4.453h2.137L127 17.313h-2.276Zm-18.441 8.452h2.051V12.555h-2.051v13.21Z"/>
  <path fill="url(#a)" d="M.507 1.719C.186 2.046 0 2.557 0 3.219V26.8c0 .662.186 1.172.507 1.5l.079.072 13.535-13.21v-.311L.586 1.64l-.08.078Z"/>
  <path fill="url(#b)" d="m18.628 19.568-4.507-4.406v-.311l4.512-4.406.101.057 5.344 2.969c1.525.842 1.525 2.229 0 3.076l-5.344 2.964-.106.057Z"/>
  <path fill="url(#c)" d="m18.734 19.51-4.613-4.503L.507 28.3c.506.52 1.332.582 2.272.063l15.955-8.852Z"/>
  <path fill="url(#d)" d="M18.734 10.502 2.78 1.65c-.94-.514-1.766-.452-2.272.068L14.12 15.006l4.613-4.504Z"/>
  <defs>
    <linearGradient id="a" x1="12.919" x2="-4.972" y1="27.046" y2="8.722" gradientUnits="userSpaceOnUse">
      <stop stop-color="#00A0FF"/>
      <stop offset=".007" stop-color="#00A1FF"/>
      <stop offset=".26" stop-color="#00BEFF"/>
      <stop offset=".512" stop-color="#00D2FF"/>
      <stop offset=".76" stop-color="#00DFFF"/>
      <stop offset="1" stop-color="#00E3FF"/>
    </linearGradient>
    <linearGradient id="b" x1="26.064" x2="-.364" y1="15.005" y2="15.005" gradientUnits="userSpaceOnUse">
      <stop stop-color="#FFE000"/>
      <stop offset=".409" stop-color="#FFBD00"/>
      <stop offset=".775" stop-color="orange"/>
      <stop offset="1" stop-color="#FF9C00"/>
    </linearGradient>
    <linearGradient id="c" x1="16.226" x2="-8.036" y1="12.558" y2="-12.291" gradientUnits="userSpaceOnUse">
      <stop stop-color="#FF3A44"/>
      <stop offset="1" stop-color="#C31162"/>
    </linearGradient>
    <linearGradient id="d" x1="-2.92" x2="7.914" y1="36.146" y2="25.049" gradientUnits="userSpaceOnUse">
      <stop stop-color="#32A071"/>
      <stop offset=".069" stop-color="#2DA771"/>
      <stop offset=".476" stop-color="#15CF74"/>
      <stop offset=".801" stop-color="#06E775"/>
      <stop offset="1" stop-color="#00F076"/>
    </linearGradient>
  </defs>
</svg>
