<svg xmlns="http://www.w3.org/2000/svg" width="120" height="120" fill="none">
  <g fill="#BAD0E6" opacity=".5">
    <path d="M104.271 103.813c-7.078 3.529-16.299 2.122-21.97-3.355-3.832-3.701-5.975-8.81-9.568-12.727-6.732-7.338-18.615-9.286-27.338-4.503-10.33 5.683-16.638 20.614-29.309 21.105-7.078.281-13.896-5.477-14.805-12.49-.91-7.034 4.199-14.33 11.126-15.866C22.6 73.656 25.24 68.85 15.372 58.574c-5.048-5.203-8.433-11.016-3.095-18.03 4.875-6.301 15.587-8.638 24.741-3.031 15.157 9.321 2.302 8.419 14.481-8.875 11.48-16.459 24.334-4.869 32.382-3.961 7.533.887 14.957-3.831 22.447-2.598 11.598 1.918 16.14 16.4 7.662 24.59-5.433 5.26-14.113 5.563-20.152 10.065-4.906 3.666-4.157 8.299.584 10 30.142 10.822 21.268 31.335 9.849 37.079ZM24.896 11.475c-6.136.1-8.643 6.948-.992 12.598 8.362 6.176 14.569 1.58 14.496-2.786-.066-3.923-5.922-9.937-13.504-9.812Z"/>
  </g>
  <path fill="#BAD0E6" stroke="#040829" d="m36.018 25.436 19.827-1.543-14.25 13.874L21.77 39.31l14.249-13.874Z"/>
  <path fill="#392B9E" d="M44.175 43.499c5.55-2.51 9.617-5.504 9.082-6.687-.534-1.182-5.468-.106-11.019 2.405-5.55 2.51-9.617 5.504-9.082 6.686.535 1.183 5.468.106 11.019-2.404Z"/>
  <path fill="#fff" stroke="#040829" d="M52.286 35.845 49.372 29.4l-.003-.004a.105.105 0 0 0-.015-.014.413.413 0 0 0-.111-.062c-.125-.05-.32-.09-.603-.101-.563-.023-1.355.069-2.335.283-1.951.425-4.54 1.308-7.292 2.554-2.754 1.245-5.125 2.605-6.733 3.79-.808.594-1.4 1.129-1.755 1.567-.177.22-.277.393-.322.52a.414.414 0 0 0-.027.124.105.105 0 0 0 .002.025l22.108-2.238Zm0 0a4.162 4.162 0 0 0-.16-.01c-.687-.028-1.575.084-2.59.305-2.038.444-4.694 1.355-7.491 2.62-2.798 1.265-5.235 2.659-6.914 3.896-.837.616-1.507 1.21-1.94 1.744a4.487 4.487 0 0 0-.098.126l-2.915-6.443 22.108-2.238Z"/>
  <path fill="#BAD0E6" stroke="#040829" d="M72.442 87.263h-.5v1.944a4.219 4.219 0 0 1-4.22 4.22 4.215 4.215 0 0 1-4.214-4.22v-1.944H40.956a4.12 4.12 0 0 1-4.12-4.12V53.126a4.12 4.12 0 0 1 4.12-4.12h53.531a4.12 4.12 0 0 1 4.12 4.12v30.017a4.12 4.12 0 0 1-4.12 4.12H72.443Z"/>
  <path fill="#fff" stroke="#040829" d="M43.11 79.25V43.621c0-.96.778-1.738 1.738-1.738h14.937a7.433 7.433 0 0 1 7.433 7.433v31.673h-22.37c-.96 0-1.739-.779-1.739-1.739ZM75.652 41.883h14.937c.96 0 1.738.778 1.738 1.738v35.63c0 .96-.778 1.738-1.738 1.738h-23.37V49.316c0-2.01 1.045-3.864 2.648-5.229 1.603-1.366 3.723-2.204 5.785-2.204Z"/>
  <path fill="#392B9E" stroke="#040829" d="m77.784 90.77-1.932 1.945V81.989h4.573v10.726l-1.932-1.945-.355-.357-.354.357Z"/>
  <path fill="#000" d="M88.988 73.647c0-.276-.352-.5-.786-.5H72.345c-.434 0-.786.224-.786.5 0 .277.352.5.786.5h15.857c.434 0 .786-.223.786-.5ZM72.345 66.482h15.857c.434 0 .786-.224.786-.5s-.352-.5-.786-.5H72.345c-.434 0-.786.224-.786.5s.352.5.786.5ZM72.345 58.816h15.857c.434 0 .786-.224.786-.5s-.352-.5-.786-.5H72.345c-.434 0-.786.224-.786.5s.352.5.786.5ZM72.345 51.15h15.857c.434 0 .786-.224.786-.5s-.352-.5-.786-.5H72.345c-.434 0-.786.224-.786.5s.352.5.786.5ZM63.04 73.147H47.186c-.434 0-.787.224-.787.5 0 .277.353.5.787.5h15.856c.434 0 .787-.223.787-.5 0-.276-.353-.5-.787-.5ZM63.04 65.482H47.186c-.434 0-.787.224-.787.5s.353.5.787.5h15.856c.434 0 .787-.224.787-.5s-.353-.5-.787-.5ZM63.04 57.816H47.186c-.434 0-.787.224-.787.5s.353.5.787.5h15.856c.434 0 .787-.224.787-.5s-.353-.5-.787-.5ZM63.04 50.15H47.186c-.434 0-.787.225-.787.5 0 .277.353.5.787.5h15.856c.434 0 .787-.223.787-.5 0-.275-.353-.5-.787-.5Z"/>
</svg>
