<svg width="30" height="31" viewBox="0 0 30 31" fill="none" xmlns="http://www.w3.org/2000/svg">
<path fill-rule="evenodd" clip-rule="evenodd" d="M12.0662 1.41832C10.8503 2.17929 9.08659 2.90626 8.14668 3.03344C4.27882 3.55642 1.18811 7.21604 1.1648 11.3004C1.15772 12.5701 0.881745 14.3644 0.552069 15.2879C-1.00057 19.6333 0.818473 24.1588 4.79456 25.8436C5.53217 26.1563 6.5545 26.9836 7.06691 27.6825C7.57974 28.3813 8.9921 29.4432 10.2059 30.0422C13.0589 31.4495 16.1113 31.3005 18.613 29.6313C19.538 29.0143 20.7297 28.5093 21.2621 28.5093C21.7945 28.5093 23.2248 28.0094 24.4411 27.3983C27.5334 25.8445 29.1177 23.3127 29.0053 20.1047C28.96 18.8123 29.1693 17.3261 29.479 16.7468C30.2408 15.3206 30.1488 10.9311 29.3233 9.32182C28.6286 7.96777 25.8655 5.42421 25.0888 5.42421C24.844 5.42421 23.9033 4.65149 22.9983 3.70668C20.9911 1.61139 17.7572 -0.0440184 15.7596 0.000892609C14.8518 0.0214593 13.4194 0.571305 12.0662 1.41832ZM19.0551 2.74172C21.3266 3.65799 21.1805 4.41728 18.6264 4.96965C17.4704 5.21981 15.9607 5.71845 15.2713 6.07773C13.516 6.99274 10.9223 9.43221 9.85833 11.1682C8.7028 13.0528 8.23992 12.3552 8.754 9.50398C9.22604 6.88445 9.87415 5.57154 11.4297 4.08402C13.6059 2.003 16.1251 1.55935 19.0551 2.74172ZM8.24076 4.95328C8.24076 5.15601 7.94147 6.04374 7.57599 6.92559C6.5366 9.43431 6.6852 13.5552 7.9269 16.6549C9.20689 19.8503 8.6849 20.0921 5.96383 17.5632C1.77878 13.6732 1.9432 8.07606 6.32139 5.38434C7.74832 4.50669 8.24076 4.3963 8.24076 4.95328ZM24.8865 7.31048C26.8841 8.35225 28.6374 11.177 28.6374 13.3533C28.6374 15.3466 27.9584 15.2727 25.7427 13.0385C23.343 10.6192 20.1062 9.20178 16.9797 9.20178C15.4091 9.20178 14.9787 9.06621 15.1465 8.62465C15.3608 8.06179 17.6061 6.91971 19.2716 6.52642C20.4954 6.23765 23.6822 6.68256 24.8865 7.31048ZM18.3129 10.8278C18.4724 10.9722 19.1663 12.2171 19.8543 13.5934L21.1056 16.0967L19.8556 17.7907C19.1683 18.7229 18.3795 19.8214 18.1027 20.2318C17.6665 20.8803 17.2028 20.9416 14.597 20.6973L11.5945 20.4161L10.3333 17.6988L9.07244 14.9819L10.6201 12.8261C11.4713 11.6408 12.3396 10.5495 12.5503 10.4009C13.0007 10.0832 17.8904 10.4454 18.3129 10.8278ZM25.9937 16.1966C27.9668 19.5909 27.6912 22.6415 25.1953 25.0306C23.8616 26.3074 21.9648 27.2031 21.991 26.5437C21.9985 26.3553 22.3669 25.162 22.8098 23.8923C23.8662 20.864 23.8296 19.6526 22.5754 16.1273C20.8167 11.1842 20.7867 11.4087 22.9908 13.0049C24.081 13.7945 25.4326 15.2308 25.9937 16.1966ZM2.82941 16.6641C2.82941 16.8442 3.53205 17.724 4.39038 18.6197C6.31973 20.6327 9.35466 22.0585 12.5253 22.4426C15.36 22.7855 15.4374 23.3676 12.785 24.3943C10.6588 25.217 7.97227 25.3458 6.29059 24.7049C4.85492 24.158 2.95637 22.3918 2.16798 20.8703C1.55983 19.6967 1.37126 17.1078 1.85828 16.6171C2.23708 16.2352 2.82941 16.2637 2.82941 16.6641ZM21.4132 21.1049C20.9641 24.9614 19.4364 27.4562 16.6325 28.9127C14.6982 29.9175 10.7271 29.3836 9.55613 27.9607C8.92716 27.1964 9.18275 27.013 11.3872 26.6457C14.0371 26.2038 17.1703 24.1437 19.3631 21.4016C20.4575 20.0333 21.4253 18.9005 21.5144 18.8845C21.603 18.8686 21.5577 19.8679 21.4132 21.1049Z" fill="#EAB600"/>
</svg>
