<svg width="84" height="170" viewBox="0 0 84 170" fill="none" xmlns="http://www.w3.org/2000/svg"><path d="M48.55 52.527c1.811 12.122 4.259 30.112 4.37 35.98h-.506l-38.491.072h-.708c.212-3.878.526-4.234.789-9.99l9.031.457c-4.824-.63-11.6-3.869-16.545-8.031-3.61-3.046-6.26-6.559-6.473-9.91-.182-2.781 1.123-4.964 2.326-7.451 1.507-3.137 10.255-14.57 12.389-16.336 2.468-2.03 10.7-3.249 10.7-3.249.334-.832.506-1.584 1.315-2.081a.845.845 0 01.161-.071 24.975 24.975 0 0110.215-.142c.15.04.293.101.425.183a2.826 2.826 0 011.446 2.111s4.986-.193 7.99 1.452a77.272 77.272 0 0112.044 8.894 86.496 86.496 0 00-.445-12.183l5.057-.376h.142c1.83 6.254 5.865 21.128 3.489 23.493-1.79 1.838-17.193-2.294-18.72-2.822zm-29.914-.416c-.486.507-1.012 1.015-1.436 1.543a77.825 77.825 0 00-5.967 7.28C9.32 64.151 23.085 72.587 26.403 73.39V74c-.071 1.41-.334 4.812-1.244 5.076.607.802 4.794 3.736 6.391 4 2.337.406 5.209-1.909 6.948-3.33a3.783 3.783 0 002.733-.97 3.813 3.813 0 001.252-2.624l.94-19.006a3.826 3.826 0 00-.98-2.74 3.796 3.796 0 00-2.62-1.25l-21.187-1.045zm32.231 110.818c2.127.258 4.133 1.516 3.636 4.387v-.022h-16.38c.456-2.827-1.54-4.074-3.656-4.3a18.186 18.186 0 01-3.15-.72v-3.011h9.035c.82.14 6.098 3.107 10.515 3.666z" fill="#CAD7E4"/><path d="M34.777 162.957c2.103.257 4.085 1.503 3.632 4.294v.065H15.271c0-.752 0-3.651-.06-8.053h9.225c.613.14 3.853 1.922 7.303 2.985.993.325 2.01.562 3.038.709z" fill="#CAD7E4"/><path fill-rule="evenodd" clip-rule="evenodd" d="M54.077 5.725a4.463 4.463 0 013.11-1.251h16.257a4.5 4.5 0 011.683.325c.534.215 1.018.53 1.427.926.408.397.732.868.953 1.386.221.519.335 1.075.335 1.636v.4c0 .562-.114 1.118-.335 1.636-.221.519-.545.99-.953 1.386a4.407 4.407 0 01-1.427.927 4.507 4.507 0 01-1.683.325H57.186a4.463 4.463 0 01-3.109-1.252 4.213 4.213 0 01-1.288-3.021v-.401c0-1.134.463-2.22 1.288-3.022zm3.11-.389c-.931 0-1.824.36-2.482 1a3.363 3.363 0 00-1.028 2.41v.402c0 .904.37 1.772 1.028 2.412.658.64 1.55.998 2.481.998h16.258c.461 0 .918-.088 1.343-.26a3.518 3.518 0 001.139-.739 3.385 3.385 0 001.028-2.411v-.401c0-.448-.09-.892-.267-1.305a3.406 3.406 0 00-.761-1.107 3.518 3.518 0 00-1.139-.74 3.598 3.598 0 00-1.343-.259H57.186zm16.509 1.535a2.364 2.364 0 00-1.33-.128c-.447.087-.857.3-1.18.613a2.218 2.218 0 00-.629 1.145c-.089.434-.043.884.131 1.292.174.409.47.758.848 1.004a2.35 2.35 0 002.903-.28 2.22 2.22 0 00.678-1.58c0-.443-.136-.875-.388-1.242a2.289 2.289 0 00-1.033-.824zm-.881 4.734l.001.432a3.248 3.248 0 002.251-.911c.597-.58.934-1.366.937-2.187v-.002c0-.613-.187-1.212-.537-1.722a3.171 3.171 0 00-1.432-1.141 3.276 3.276 0 00-1.843-.177 3.22 3.22 0 00-1.633.849c-.446.433-.75.985-.873 1.587a3.018 3.018 0 00.182 1.79 3.12 3.12 0 001.175 1.391c.524.341 1.14.523 1.772.523v-.432z" fill="#000229"/><path d="M72.366 6.743a2.362 2.362 0 011.33.128c.42.169.78.456 1.033.824.252.367.387.8.388 1.241a2.216 2.216 0 01-.678 1.58 2.346 2.346 0 01-2.903.281 2.252 2.252 0 01-.848-1.004 2.178 2.178 0 01-.131-1.292c.089-.434.308-.833.63-1.145a2.324 2.324 0 011.179-.613zm-32.102 7.124a.493.493 0 01-.13.307.434.434 0 01-.593.045.483.483 0 01-.17-.283.499.499 0 01.105-.345.445.445 0 01.303-.169.428.428 0 01.33.116.476.476 0 01.155.33zM34 13.831a.463.463 0 01-.42.484.451.451 0 01-.472-.42.431.431 0 01.408-.473.451.451 0 01.484.41z" fill="#000229"/><path fill-rule="evenodd" clip-rule="evenodd" d="M27.851 31.897a.42.42 0 00-.059.027c-.554.342-.729.798-.99 1.48-.049.128-.101.265-.16.41a.442.442 0 01-.345.272h-.006l-.017.003a13.618 13.618 0 00-.336.053 63.086 63.086 0 00-4.096.802c-1.19.276-2.45.611-3.558.998-1.12.391-2.041.82-2.593 1.264-.506.418-1.442 1.443-2.607 2.832a141.811 141.811 0 00-3.855 4.839 143.428 143.428 0 00-3.735 5.097c-1.084 1.56-1.908 2.852-2.273 3.61v.002c-.155.317-.31.628-.461.932C1.685 56.678.746 58.565.9 60.904c.204 3.2 2.77 6.65 6.42 9.716 4.978 4.172 11.786 7.402 16.584 8.026.64.08 1.284.113 1.928.099h.028a.43.43 0 00.065-.07c.062-.078.13-.2.2-.37.138-.34.254-.804.348-1.329.185-1.038.27-2.227.305-2.937v-.27c-.928-.291-2.323-.948-3.875-1.802a57.234 57.234 0 01-5.64-3.56c-1.849-1.329-3.553-2.75-4.678-4.06-.56-.654-.998-1.304-1.227-1.92-.231-.621-.267-1.262.068-1.823a79.284 79.284 0 016.109-7.429c.335-.414.734-.821 1.113-1.207.122-.125.243-.248.358-.368a54.594 54.594 0 014.804-4.605.442.442 0 01.572.674 53.71 53.71 0 00-4.73 4.534l-.006.006c-.13.137-.262.27-.391.402-.374.382-.734.749-1.043 1.131a78.377 78.377 0 00-6.036 7.33c-.143.25-.162.585.01 1.047.177.477.54 1.035 1.07 1.652 1.057 1.232 2.695 2.605 4.522 3.92a56.377 56.377 0 005.551 3.502c1.756.966 3.216 1.624 3.994 1.812a.442.442 0 01.339.43v.638c-.037.719-.123 1.958-.32 3.058-.097.548-.226 1.083-.4 1.508a2.44 2.44 0 01-.321.581c-.13.165-.306.323-.542.391a.442.442 0 01-.123.017h-.108c-.687.015-1.373-.02-2.054-.106h-.002c-5.005-.65-11.967-3.974-17.039-8.225C3.065 68.2.246 64.542.018 60.96c-.17-2.593.886-4.708 1.956-6.85.151-.302.303-.605.451-.91.4-.83 1.262-2.174 2.343-3.73a144.35 144.35 0 013.759-5.13 142.712 142.712 0 013.88-4.87c1.157-1.38 2.144-2.47 2.723-2.947l.004-.003c.676-.546 1.72-1.015 2.859-1.413 1.15-.401 2.443-.745 3.65-1.025a63.965 63.965 0 014.155-.813l.115-.019.042-.112c.258-.69.546-1.46 1.383-1.973l.012-.007a1.305 1.305 0 01.287-.119 25.925 25.925 0 0110.588-.14c.19.05.372.128.54.23a3.308 3.308 0 011.61 2.07 26.253 26.253 0 012.595.12c1.664.16 3.767.534 5.373 1.41l.015.009a78.946 78.946 0 0112.305 9.046l.401.345c.477.407.963.822 1.438 1.297a.442.442 0 11-.625.625c-.449-.449-.9-.834-1.372-1.238l-.424-.364-.005-.005a78.059 78.059 0 00-12.163-8.943c-1.445-.786-3.398-1.145-5.028-1.303a25.341 25.341 0 00-2.642-.113 11.907 11.907 0 00-.2.004h-.012l-.018-.441-.197.395a.442.442 0 01-.24-.336 2.423 2.423 0 00-1.264-1.82 1.172 1.172 0 00-.3-.13 25.042 25.042 0 00-10.16.14z" fill="#000229"/><path fill-rule="evenodd" clip-rule="evenodd" d="M25.848 78.737c.01.019.022.037.036.053v.001c.115.138.45.418.966.787.5.357 1.131.77 1.794 1.168.664.398 1.354.779 1.974 1.073.632.3 1.15.49 1.482.54h.004c1.029.165 2.237-.218 3.463-.863 1.212-.638 2.357-1.487 3.243-2.15l.558.63c-.881.66-2.079 1.55-3.362 2.225-1.269.668-2.706 1.173-4.051.96-.48-.073-1.102-.316-1.743-.62-.654-.31-1.37-.706-2.05-1.114a28.809 28.809 0 01-1.854-1.207c-.505-.36-.932-.702-1.127-.937a1.114 1.114 0 01-.128-.192l.795-.354z" fill="#000229"/><path fill-rule="evenodd" clip-rule="evenodd" d="M47.644 43.848a.433.433 0 01.496.367c.331 2.073.743 4.84 1.205 7.996 1.794 12.344 4.229 30.718 4.34 36.737a.452.452 0 01-.123.32.425.425 0 01-.308.133h-.502l-38.195.073h-.704a.426.426 0 01-.313-.14.453.453 0 01-.117-.33c.091-1.733.203-2.783.32-3.886l.054-.519c.136-1.307.278-2.85.408-5.775a.437.437 0 01.451-.424.44.44 0 01.411.465c-.13 2.944-.274 4.505-.412 5.83l-.055.52a65.055 65.055 0 00-.29 3.368h.246l38.195-.072h.059c-.215-6.375-2.564-24.096-4.319-36.168a651.523 651.523 0 00-1.203-7.983.444.444 0 01.356-.512z" fill="#000229"/><path fill-rule="evenodd" clip-rule="evenodd" d="M64.65 31.316l.09.316c.898 3.148 2.341 8.493 3.268 13.355.463 2.429.8 4.753.873 6.63.036.937.007 1.78-.112 2.474-.117.683-.33 1.287-.715 1.682a1.65 1.65 0 01-.655.384 3.988 3.988 0 01-.848.17c-.625.065-1.397.05-2.254-.021-1.718-.142-3.842-.511-5.942-.952-4.085-.856-8.147-1.997-9.075-2.311h-.02v-.007a4.76 4.76 0 01-.05-.017l.05-.149v-.708h.161l.068.024c.724.257 4.855 1.428 9.036 2.305 2.088.438 4.173.799 5.84.937.835.069 1.549.08 2.1.023.275-.03.498-.074.67-.132a.806.806 0 00.318-.172c.14-.143.268-.381.368-.73l.013-.044a4.64 4.64 0 00.095-.435c.104-.608.134-1.38.099-2.286-.07-1.81-.398-4.083-.857-6.495-.654-3.432-1.57-7.113-2.366-10.082a207.936 207.936 0 00-.789-2.86l-4.275.326c.393 3.953.524 7.93.392 11.902l-.852-.03a89.34 89.34 0 00-.434-12.23l-.048-.453 5.4-.413.016-.001h.434zM33.087 71.634a14.656 14.656 0 012.55 0l.01.001.008.001c.323.041.624.182.858.402a1.432 1.432 0 01.293 1.731 1.495 1.495 0 01-.664.638c-.302.17-.831.375-1.335.564l-.413.154c-.387.144-.748.277-1.01.388h-.002c-.129.055-.258.178-.364.4a2.261 2.261 0 00-.193.814c-.02.305.008.608.071.856.067.263.159.403.215.452.177.15.503.295.982.411.467.114 1.03.19 1.636.237 1.21.094 2.54.07 3.5.024l.011-.001h.128v.884h-.105c-.978.047-2.345.073-3.606-.026a11.52 11.52 0 01-1.786-.26c-.523-.127-1.02-.314-1.361-.605h-.002c-.26-.225-.412-.573-.496-.903a3.674 3.674 0 01-.096-1.125c.025-.385.11-.785.275-1.13.166-.346.43-.672.83-.84.283-.118.674-.263 1.067-.41.131-.048.263-.096.39-.144.537-.202.995-.383 1.215-.51l.016-.009.016-.007a.596.596 0 00.271-.258.57.57 0 00-.117-.69.611.611 0 00-.334-.159 13.729 13.729 0 00-2.37 0c-.345.041-.76.157-1.244.316-.192.063-.405.136-.627.212-.306.105-.629.216-.938.314-1.092.346-2.345.649-3.524.394l.198-.863c.918.198 1.964-.029 3.043-.371.314-.1.603-.2.89-.298.22-.076.44-.152.667-.226.494-.162.986-.304 1.434-.356l.006-.001h.007zM30.811 2.256a9.559 9.559 0 00-1.774 4.38l-.001.012-.003.01a50.892 50.892 0 00-.379 2.415l-.059.419a.432.432 0 11-.854-.123l.058-.412c.104-.746.223-1.594.384-2.449.238-1.734.907-3.38 1.947-4.785l.012-.016.013-.015C31.382.314 32.714-.168 34.053.05c1.3.212 2.523 1.073 3.598 2.184a16.544 16.544 0 011.69 2.07 25.682 25.682 0 013.481 7.177l.003.01.003.01c.25.988.083 2.226-.28 3.485-.368 1.273-.955 2.628-1.61 3.88a25.84 25.84 0 01-2.042 3.307c-.33.445-.646.828-.931 1.122-.273.28-.558.523-.826.63a3.276 3.276 0 01-.601.175h-.002c-1.18.219-2.466-.205-3.54-.879-1.08-.677-2.022-1.654-2.506-2.654a.434.434 0 01.2-.58.43.43 0 01.576.2c.399.825 1.213 1.688 2.186 2.299.977.613 2.04.925 2.927.762.15-.029.299-.072.442-.129.086-.034.263-.16.526-.43.25-.257.541-.608.856-1.033.63-.85 1.335-1.975 1.971-3.192.637-1.219 1.198-2.518 1.544-3.719.35-1.209.464-2.26.276-3.02a24.813 24.813 0 00-3.36-6.925l-.002-.001a15.677 15.677 0 00-1.6-1.962c-1.023-1.056-2.085-1.763-3.117-1.931-.99-.161-2.037.16-3.104 1.35zm-3.255 24.159c.02 1.6.04 3.225.04 4.9h-.675c0-1.646-.02-3.254-.04-4.846-.05-4.03-.1-7.96.183-12.153l.672.071c-.28 4.148-.23 8.014-.18 12.028z" fill="#000229"/><path fill-rule="evenodd" clip-rule="evenodd" d="M36.712 23.725a2.579 2.579 0 00-.028-.21l.606-.252a73.252 73.252 0 01.358 3.14c.048.493.097.985.149 1.465.157 1.453.35 2.825.676 3.958l-.575.385c-.36-1.25-.563-2.723-.722-4.187-.055-.512-.105-1.02-.154-1.52a69.573 69.573 0 00-.306-2.748l-.002-.015-.002-.016zM26.254 9.046c.694-.234 1.445-.054 2.173.566l.005.005.005.004c.385.348.725.742 1.012 1.174a.469.469 0 01-.78.516 5.302 5.302 0 00-.855-.993c-.543-.46-.955-.49-1.26-.387-.343.116-.684.445-.96.948a4.257 4.257 0 00-.489 1.646c-.044.553.047.963.198 1.178a1.948 1.948 0 002.085.443l.026-.01.028-.007c.17-.043.332-.108.484-.194a.466.466 0 11.458.814 2.904 2.904 0 01-.684.277 2.89 2.89 0 01-3.091-.696l-.019-.02-.016-.02c-.368-.482-.455-1.184-.402-1.84a5.188 5.188 0 01.601-2.019c.332-.605.825-1.163 1.48-1.385zM44.9.004c.588.028 1.191.195 1.467.725.202.388.205.784.045 1.15-.15.346-.433.64-.758.888-.65.498-1.606.919-2.571 1.258-1.937.682-4.094 1.099-4.42 1.133l-.093-.856c.245-.026 2.334-.425 4.217-1.088.945-.332 1.793-.716 2.328-1.126.268-.205.423-.39.491-.548a.448.448 0 00-.02-.419c-.05-.096-.215-.233-.727-.256-.489-.023-1.157.067-1.97.257-1.618.379-3.687 1.124-5.777 1.973-3.17 1.294-6.334 2.801-7.952 3.572-.4.191-.707.337-.894.423l-.138.068-.392-.77.148-.073.006-.003c.177-.08.475-.223.869-.41 1.606-.766 4.816-2.296 8.017-3.602 2.1-.854 4.222-1.62 5.91-2.015.84-.197 1.603-.309 2.214-.28zM32.967 10.798a2.952 2.952 0 011.596.113c.248.088.387.393.312.682-.076.289-.338.451-.586.363a2.14 2.14 0 00-1.158-.082c-.386.08-.75.266-1.062.541-.207.183-.5.135-.657-.105-.157-.24-.116-.584.09-.766.431-.38.933-.636 1.465-.746z" fill="#000229"/><path fill-rule="evenodd" clip-rule="evenodd" d="M27.612 11.716c.178.106.164.27-.03.368-.56.278-1.287.436-2.045.442-.263.003-.48-.112-.484-.255-.005-.144.206-.262.469-.265.525-.004 1.029-.113 1.416-.306a.783.783 0 01.674.016zm11.373-.944c.637-.08 1.377-.026 1.877.191.255.11.366.394.248.633a.522.522 0 01-.673.233c-.267-.116-.796-.178-1.316-.112-.252.032-.468.09-.626.165-.162.077-.217.148-.233.184l-.001.003-.002.003c-.086.188-.133.473-.129.854.005.373.057.801.139 1.252.116.648.283 1.303.43 1.887.061.237.118.462.168.67v.003l.001.003c.102.452.272 1.244.147 1.869-.065.324-.227.693-.613.909-.383.215-.856.204-1.358.06-.269-.076-.42-.343-.338-.594a.514.514 0 01.633-.318c.371.106.51.052.544.033.032-.018.096-.075.134-.266.081-.405-.031-1.004-.141-1.493a45.614 45.614 0 00-.155-.62c-.15-.593-.33-1.303-.453-1.984a8.659 8.659 0 01-.153-1.401c-.004-.435.044-.873.21-1.238.144-.322.43-.533.713-.667.287-.136.621-.217.947-.259zm-.692 9.851c.193.078.238.228.1.336-.188.148-.432.27-.716.36a3.78 3.78 0 01-1.872.07 2.682 2.682 0 01-.795-.305c-.162-.097-.152-.249.021-.34a.69.69 0 01.608.012c.134.08.299.143.482.184a2.297 2.297 0 001.137-.042c.172-.054.321-.128.435-.218.138-.108.407-.134.6-.056zm-7.575 131.37c-.088-4.604-.2-10.465-.296-16.88l1.362-.008c.095 6.394.207 12.279.296 16.896.058 3.055.106 5.554.131 7.279v2.667H30.85v-2.662a1840.88 1840.88 0 00-.131-7.292zm-9.698-60.73a.446.446 0 01.45.443c.064 2.406-.707 4.35-2 5.832-1.286 1.474-3.07 2.469-5.015 3.032a14.165 14.165 0 01-3.262.535.445.445 0 01-.456-.435.448.448 0 01.418-.475 13.352 13.352 0 003.066-.503c1.83-.53 3.453-1.451 4.602-2.767 1.14-1.307 1.83-3.023 1.772-5.194a.448.448 0 01.425-.468z" fill="#000229"/><path fill-rule="evenodd" clip-rule="evenodd" d="M14.861 88.579a.433.433 0 01.417.449c-.09 3.532-.09 7.34-.09 11.307v.002c-.081 19.413.16 42.548.302 56.056l.037 3.584c.054 3.752.06 6.352.06 7.357l22.457-.11a.433.433 0 01.43.435.434.434 0 01-.426.44l-22.887.111a.421.421 0 01-.304-.127.443.443 0 01-.126-.31v-.163c0-.711 0-3.454-.06-7.621v-.002l-.037-3.585c-.141-13.506-.383-36.648-.301-56.067v-.003c0-3.963 0-7.782.09-11.327a.432.432 0 01.438-.426z" fill="#000229"/><path fill-rule="evenodd" clip-rule="evenodd" d="M37.299 96.632c.256.01.455.213.444.453a169.954 169.954 0 01-6.087 37.807c-2.252 8.499-4.86 16.611-7.379 24.119.172.063.38.145.617.24l.585.237c.36.146.763.311 1.21.488 1.41.559 3.186 1.221 5.013 1.714l.007.002c1.072.307 2.17.528 3.28.662 1.185.127 2.388.503 3.24 1.24.87.752 1.324 1.842 1.07 3.274a.44.44 0 01-.359.436c-.25.055-.5-.09-.558-.324a.51.51 0 01-.004-.231c.215-1.175-.151-1.972-.78-2.517-.655-.567-1.644-.899-2.717-1.015h-.007a22.062 22.062 0 01-3.433-.692c-1.879-.508-3.694-1.185-5.114-1.748-.449-.178-.864-.347-1.228-.495l-.571-.232a23.78 23.78 0 00-.594-.231 2.656 2.656 0 00-.303-.097.443.443 0 01-.367-.425v-.101a.41.41 0 01.021-.131c2.55-7.591 5.193-15.792 7.47-24.385l.001-.005a169.153 169.153 0 006.058-37.628c.011-.24.228-.425.485-.415z" fill="#000229"/><path fill-rule="evenodd" clip-rule="evenodd" d="M53.376 88.579c.246.005.44.206.435.448-.639 28.002-6.818 52.09-12.769 70.784l.13.051c.241.097.543.225.888.373l.136.059c.672.288 1.508.646 2.443 1.014 2.006.788 4.438 1.607 6.646 1.865 1.14.129 2.301.51 3.117 1.268.84.781 1.264 1.915.986 3.41a.443.443 0 01-.438.359H38.023a.442.442 0 01-.445-.438c0-.243.2-.439.445-.439h16.54c.105-1.033-.23-1.751-.771-2.253-.626-.581-1.576-.919-2.61-1.035h-.001c-2.327-.273-4.848-1.127-6.872-1.922a84.56 84.56 0 01-2.466-1.024l-.138-.059a40.464 40.464 0 00-.869-.365 3.703 3.703 0 00-.44-.157.434.434 0 01-.333-.561c5.977-18.712 12.217-42.858 12.858-70.95a.442.442 0 01.455-.428z" fill="#000229"/><path fill-rule="evenodd" clip-rule="evenodd" d="M31.316 159.263h9.842v.895h-9.842v-.895zm-16.106 0h8.948v.895h-8.947v-.895zM14 167.467c0-.258.193-.467.431-.467H37.57c.238 0 .431.209.431.467v2.066c0 .258-.193.467-.431.467H14.43c-.238 0-.431-.209-.431-.467v-2.066zm.862.468v1.13h22.276v-1.13H14.862z" fill="#000229"/><path fill-rule="evenodd" clip-rule="evenodd" d="M38 167.467c0-.258.192-.467.43-.467h16.14c.238 0 .43.209.43.467v2.066c0 .258-.192.467-.43.467H38.43c-.238 0-.43-.209-.43-.467v-2.066zm.86.468v1.13h15.28v-1.13H38.86zM7.127 73.921l.17-3.194-.859-.043-.17 3.196v.002a3.963 3.963 0 001.08 2.904 4.25 4.25 0 002.886 1.323h.001l10.301.628.043-.83-6.242-.434-4.058-.193a3.38 3.38 0 01-2.294-1.052 3.15 3.15 0 01-.858-2.307zm12.691-22.045h-.134V51h.154l20.172 1.02a3.96 3.96 0 012.785 1.396 4.414 4.414 0 011.042 3.064l-.849 19.11v.001a4.449 4.449 0 01-.392 1.627c-.232.51-.558.965-.958 1.34-.4.375-.868.663-1.374.845a3.832 3.832 0 01-1.562.22h-.536v-.876h.55v.438l.028-.437c.424.03.85-.029 1.252-.174a3.168 3.168 0 001.091-.67 3.37 3.37 0 00.76-1.065 3.532 3.532 0 00.313-1.293l.848-19.107a3.508 3.508 0 00-.828-2.435 3.147 3.147 0 00-2.212-1.11l-20.15-1.018zM59.922 25.09c-.216.036-.418.081-.622.127-.142.031-.284.063-.432.092-.433.093-.85.238-1.243.433-.72.379-1.061.88-1.178 1.416-.12.555-.01 1.19.27 1.818a5.23 5.23 0 001.174 1.645c.479.448.937.686 1.256.722a.442.442 0 01.404.484.455.455 0 01-.514.38c-.621-.07-1.262-.468-1.797-.969a6.097 6.097 0 01-1.376-1.926c-.325-.73-.492-1.55-.322-2.329.174-.797.691-1.508 1.639-2.004l.004-.002.005-.003a6.275 6.275 0 011.477-.515h.005l.004-.002c.095-.018.219-.045.355-.075.234-.052.505-.112.733-.15h.003c.466-.074 1.007-.115 1.494-.012.5.106.973.373 1.214.91.16.284.2.615.111.926a1.28 1.28 0 01-.618.762l-.02.01-.02.01a7.268 7.268 0 01-1.471.455 1.55 1.55 0 00-.138.036c.132.08.257.172.373.273.309.27.547.605.695.977.123.242.224.494.3.753a.433.433 0 01-.324.535.466.466 0 01-.568-.304 3.49 3.49 0 00-.25-.623l-.01-.02-.008-.021a1.686 1.686 0 00-.464-.659 1.826 1.826 0 00-.722-.385.519.519 0 01-.215-.105.454.454 0 01-.162-.294.5.5 0 01.093-.344c.076-.11.19-.204.293-.276.218-.153.546-.318.91-.394h.006a6.253 6.253 0 001.252-.385.397.397 0 00.176-.228.375.375 0 00-.04-.297l-.014-.024-.011-.027c-.096-.224-.277-.35-.57-.412-.313-.066-.712-.047-1.136.02z" fill="#000229"/><path fill-rule="evenodd" clip-rule="evenodd" d="M56.82 16.996a.56.56 0 01.285.003l.253.167.608 1.14.557 1.981.088.357c.164.665.342 1.386.554 2.13.193.682.402 1.404.66 2.13.083.23.372.362.647.293.275-.07.431-.314.349-.545-.25-.698-.452-1.4-.645-2.08-.208-.731-.382-1.438-.546-2.103l-.089-.36c-.189-.762-.37-1.466-.578-2.053-.205-.577-.453-1.098-.81-1.453a1.668 1.668 0 00-.691-.425 1.78 1.78 0 00-.888-.031c-.455.093-.71.402-.85.699-.14.3-.208.674-.235 1.072-.054.8.052 1.823.224 2.848.345 2.052.973 4.226 1.241 4.885.093.229.388.35.66.273.272-.078.417-.327.324-.555-.24-.592-.857-2.709-1.195-4.725-.17-1.008-.264-1.963-.216-2.677.024-.36.083-.626.164-.8a.485.485 0 01.103-.153.112.112 0 01.021-.016l.004-.002z" fill="#000229"/><path fill-rule="evenodd" clip-rule="evenodd" d="M60.161 22.543a.46.46 0 00-.158.42c.022.232-.172.436-.433.456-.26.019-.49-.154-.511-.387-.042-.45.132-.826.441-1.094.297-.258.69-.396 1.074-.444.384-.048.796-.01 1.156.121.359.132.696.37.861.739.176.363.322.737.437 1.119.308.932.48 1.921.497 2.816.017.875-.113 1.707-.454 2.308a1.525 1.525 0 01-.634.69 1.807 1.807 0 01-.993.237c-.261-.013-.461-.212-.447-.445.015-.233.238-.412.5-.4a.771.771 0 00.423-.1.648.648 0 00.275-.305l.01-.023.013-.022c.244-.42.376-1.097.36-1.925a9.04 9.04 0 00-.46-2.597l-.002-.005-.002-.006a6.718 6.718 0 00-.395-1.012l-.004-.007-.003-.007c-.046-.105-.154-.204-.342-.273a1.46 1.46 0 00-.664-.066c-.236.03-.426.11-.545.212z" fill="#000229"/><path fill-rule="evenodd" clip-rule="evenodd" d="M62.833 22.303c-.225.067-.441.317-.406.763.018.223-.121.42-.31.441-.189.021-.356-.143-.374-.366-.068-.865.386-1.465.922-1.625a.969.969 0 01.81.111c.26.167.455.461.54.857.285 1.317.407 2.428.406 3.322-.002.885-.122 1.592-.349 2.078-.08.177-.19.335-.32.465l-.013.012-.014.012c-.272.22-.607.305-.931.234-.325-.07-.612-.29-.8-.612-.108-.184-.068-.437.088-.564.156-.127.37-.081.478.104a.56.56 0 00.358.274.49.49 0 00.404-.094.786.786 0 00.146-.218v-.002l.002-.002c.148-.317.263-.869.264-1.688 0-.81-.11-1.852-.384-3.12-.042-.194-.124-.294-.203-.345a.376.376 0 00-.314-.037z" fill="#000229"/><path fill-rule="evenodd" clip-rule="evenodd" d="M63.79 27.753c.189-.066.384.079.435.322a9.336 9.336 0 010 3.798c-.05.243-.246.387-.436.322s-.302-.315-.251-.558a8.174 8.174 0 000-3.326c-.051-.243.061-.493.251-.558zM79.413.096c.245.156.291.447.103.65l-2.46 2.652c-.188.203-.54.24-.785.085-.245-.156-.29-.447-.102-.65l2.46-2.652c.188-.203.539-.241.784-.085zm2.85 3.76c.116.253.032.568-.187.702l-2.681 1.645c-.22.134-.49.037-.606-.217-.116-.254-.033-.568.186-.702l2.682-1.645c.219-.134.49-.037.606.217zM79.63 8.5c0-.247.183-.447.408-.447h2.765c.225 0 .407.2.407.447s-.182.447-.407.447h-2.765c-.225 0-.407-.2-.407-.447z" fill="#000229"/></svg>313C25.1053 9.82579 25.5975 9.26845 26.2536 9.0464Z" fill="#000229"/>
<path fill-rule="evenodd" clip-rule="evenodd" d="M44.9003 0.00435537C45.4878 0.0315964 46.091 0.198809 46.3672 0.728722C46.5692 1.11659 46.5717 1.51301 46.412 1.87929C46.2615 2.22463 45.9789 2.51849 45.6542 2.76725C45.0046 3.26494 44.0482 3.68554 43.083 4.02516C41.1459 4.70674 38.9888 5.1239 38.6631 5.15817L38.5697 4.30191C38.815 4.2761 40.9039 3.87717 42.7873 3.21446C43.7323 2.88193 44.5797 2.49833 45.115 2.08824C45.3827 1.88311 45.5377 1.69718 45.606 1.54041C45.6652 1.40462 45.6676 1.27647 45.5868 1.12118C45.5368 1.02526 45.3715 0.888314 44.859 0.864549C44.3703 0.84189 43.7015 0.932105 42.8889 1.12226C41.2711 1.50083 39.2023 2.246 37.1124 3.09506C33.9414 4.38884 30.778 5.89646 29.1604 6.66738C28.7595 6.85846 28.4535 7.00428 28.2659 7.09038L28.1284 7.15789L27.7363 6.38765L27.8844 6.31496L27.8897 6.3125C28.067 6.23121 28.3646 6.08938 28.7586 5.90158C30.365 5.13589 33.5745 3.60603 36.7763 2.29969L36.7769 2.29944C38.8769 1.44628 40.998 0.679493 42.6857 0.284552C43.5259 0.0879385 44.2889 -0.0239916 44.9003 0.00435537Z" fill="#000229"/>
<path fill-rule="evenodd" clip-rule="evenodd" d="M32.9673 10.7982C33.4994 10.688 34.0464 10.7266 34.5632 10.9106C34.811 10.9989 34.9505 11.3044 34.8747 11.593C34.799 11.8817 34.5367 12.0441 34.2889 11.9559C33.914 11.8224 33.5174 11.7944 33.1314 11.8743C32.7455 11.9542 32.3814 12.1396 32.0689 12.4153C31.8624 12.5976 31.5681 12.5504 31.4117 12.3098C31.2552 12.0692 31.2957 11.7265 31.5023 11.5442C31.933 11.164 32.4351 10.9083 32.9673 10.7982Z" fill="#000229"/>
<path fill-rule="evenodd" clip-rule="evenodd" d="M27.6121 11.7162C27.7898 11.8222 27.7762 11.9866 27.5817 12.0835C27.0222 12.3621 26.2952 12.5196 25.5374 12.5263C25.2741 12.5286 25.0571 12.4142 25.0528 12.2706C25.0485 12.1271 25.2585 12.0088 25.5219 12.0064C26.0469 12.0018 26.5507 11.8927 26.9383 11.6996C27.1328 11.6028 27.4344 11.6102 27.6121 11.7162Z" fill="#000229"/>
<path fill-rule="evenodd" clip-rule="evenodd" d="M38.9852 10.7723C39.6218 10.6915 40.3621 10.7461 40.8623 10.963C41.1168 11.0733 41.2279 11.3565 41.1104 11.5956C40.993 11.8346 40.6914 11.939 40.4369 11.8287C40.1699 11.7129 39.6414 11.6511 39.1212 11.7172C38.8691 11.7492 38.6525 11.8075 38.4946 11.8823C38.333 11.9588 38.2781 12.0299 38.2619 12.0665L38.2607 12.0692L38.2595 12.0719C38.1733 12.2603 38.1262 12.5449 38.1305 12.9257C38.1347 13.2993 38.1875 13.7271 38.2686 14.1782C38.3851 14.8259 38.5516 15.4813 38.6997 16.0646C38.76 16.3019 38.8173 16.5272 38.8669 16.7352L38.8675 16.7379L38.8681 16.7406C38.9701 17.193 39.1403 17.9845 39.015 18.61C38.9501 18.9337 38.7885 19.3027 38.4024 19.5189C38.0185 19.7338 37.5459 19.7228 37.0436 19.5794C36.7754 19.5028 36.6241 19.2365 36.7057 18.9846C36.7872 18.7327 37.0707 18.5906 37.3389 18.6672C37.71 18.7731 37.8482 18.7192 37.8827 18.6999C37.9148 18.6819 37.979 18.6255 38.0174 18.4337C38.0985 18.0288 37.9859 17.4303 37.8757 16.9409C37.8317 16.7565 37.7785 16.547 37.7209 16.3204C37.5704 15.7277 37.3902 15.0183 37.2677 14.337C37.1821 13.8609 37.1205 13.3789 37.1155 12.9359C37.1106 12.5011 37.1592 12.0633 37.3258 11.6978C37.4694 11.3758 37.7545 11.165 38.0376 11.0309C38.3253 10.8947 38.659 10.8137 38.9852 10.7723Z" fill="#000229"/>
<path fill-rule="evenodd" clip-rule="evenodd" d="M38.293 20.6235C38.4863 20.7006 38.5314 20.8509 38.3937 20.9591C38.2054 21.1071 37.9607 21.2297 37.6773 21.3183C37.3939 21.4068 37.0789 21.4589 36.755 21.4709C36.4312 21.4829 36.1067 21.4545 35.8049 21.3876C35.5031 21.3208 35.2317 21.2172 35.0102 21.0844C34.8482 20.9873 34.8575 20.835 35.031 20.7443C35.2046 20.6537 35.4766 20.6589 35.6386 20.756C35.7731 20.8367 35.938 20.8995 36.1212 20.9401C36.3045 20.9807 36.5016 20.998 36.6983 20.9907C36.8949 20.9834 37.0863 20.9518 37.2584 20.898C37.4305 20.8443 37.5791 20.7698 37.6934 20.6799C37.8312 20.5717 38.0996 20.5464 38.293 20.6235Z" fill="#000229"/>
<path fill-rule="evenodd" clip-rule="evenodd" d="M30.7177 151.993C30.6296 147.389 30.5173 141.528 30.4219 135.113L31.7837 135.105C31.8788 141.499 31.9915 147.384 32.0799 152.001C32.1383 155.056 32.1862 157.555 32.2113 159.28L32.2113 159.283L32.2113 159.293V161.947H30.8494V159.285C30.824 157.543 30.7762 155.044 30.7177 151.993Z" fill="#000229"/>
<path fill-rule="evenodd" clip-rule="evenodd" d="M21.02 91.2634C21.2615 91.2564 21.4627 91.4546 21.4695 91.7061C21.5336 94.1123 20.7629 96.0567 19.4699 97.5381C18.184 99.0115 16.4001 100.007 14.4549 100.57L14.4541 100.57C13.3898 100.875 12.2958 101.055 11.1929 101.105C10.9515 101.116 10.7473 100.921 10.7368 100.67C10.7262 100.418 10.9134 100.206 11.1547 100.195C12.1918 100.147 13.2205 99.9787 14.2213 99.6915C16.0503 99.1626 17.6744 98.2408 18.8225 96.9254C19.9636 95.6178 20.6527 93.9019 20.5948 91.7314C20.5881 91.4799 20.7785 91.2703 21.02 91.2634Z" fill="#000229"/>
<path fill-rule="evenodd" clip-rule="evenodd" d="M14.8614 88.579C15.0977 88.5853 15.2842 88.786 15.2781 89.0275C15.1887 92.5599 15.1887 96.3678 15.1887 100.335L15.1887 100.337C15.1069 119.75 15.3487 142.885 15.4898 156.393C15.5032 157.679 15.5157 158.877 15.527 159.977C15.5807 163.729 15.5861 166.329 15.5867 167.334L38.0444 167.224C38.2807 167.223 38.4732 167.418 38.4743 167.659C38.4754 167.901 38.2848 168.097 38.0484 168.099L15.1609 168.21C15.047 168.211 14.9377 168.165 14.857 168.083C14.7763 168.001 14.7309 167.889 14.7309 167.773V167.61C14.7309 166.899 14.7309 164.156 14.6713 159.989L14.6713 159.987C14.66 158.887 14.6475 157.688 14.634 156.402C14.4929 142.896 14.2511 119.754 14.3329 100.335V100.332C14.3329 96.3685 14.3329 92.5499 14.4226 89.0049C14.4287 88.7634 14.6252 88.5728 14.8614 88.579Z" fill="#000229"/>
<path fill-rule="evenodd" clip-rule="evenodd" d="M37.2987 96.632C37.5551 96.6425 37.7538 96.8454 37.7427 97.0854C37.1482 109.854 35.1079 122.527 31.656 134.892C29.4043 143.391 26.7954 151.503 24.2772 159.011C24.4492 159.074 24.6575 159.156 24.8942 159.251C25.0733 159.323 25.2683 159.402 25.4788 159.488C25.8381 159.634 26.2424 159.799 26.6893 159.976C28.0989 160.535 29.8754 161.197 31.702 161.69L31.709 161.692C32.7808 161.999 33.8783 162.22 34.9899 162.354C36.1738 162.481 37.3773 162.857 38.2287 163.594C39.0982 164.346 39.5527 165.436 39.299 166.868C39.3058 167.07 39.1594 167.256 38.9401 167.304C38.6902 167.359 38.4403 167.214 38.382 166.98C38.363 166.904 38.3617 166.825 38.378 166.749C38.5931 165.574 38.227 164.777 37.5978 164.232C36.9426 163.665 35.9541 163.333 34.8806 163.217L34.8745 163.217C33.7111 163.077 32.5625 162.846 31.4408 162.525C29.5623 162.017 27.7474 161.34 26.3268 160.777C25.878 160.599 25.4628 160.43 25.0995 160.282C24.8906 160.197 24.6988 160.119 24.5277 160.05C24.2902 159.955 24.0916 159.877 23.9337 159.819C23.7676 159.759 23.6728 159.73 23.6315 159.722C23.417 159.679 23.2637 159.502 23.2637 159.297V159.196C23.2637 159.151 23.2709 159.107 23.285 159.065C25.8342 151.474 28.4782 143.273 30.7548 134.68L30.7562 134.675C34.1919 122.368 36.2226 109.755 36.8143 97.0475C36.8254 96.8076 37.0423 96.6216 37.2987 96.632Z" fill="#000229"/>
<path fill-rule="evenodd" clip-rule="evenodd" d="M53.3759 88.579C53.6217 88.5844 53.8164 88.7852 53.8109 89.0274C53.1724 117.029 46.9927 141.117 41.0425 159.811C41.0846 159.827 41.1277 159.845 41.1715 159.862C41.4133 159.959 41.7146 160.087 42.0599 160.235L42.1965 160.294C42.8683 160.582 43.7037 160.94 44.6392 161.308C46.6452 162.096 49.0775 162.915 51.2847 163.173C52.4249 163.302 53.5863 163.683 54.4023 164.441C55.2426 165.222 55.6661 166.356 55.3877 167.851C55.3489 168.059 55.1647 168.21 54.9498 168.21H38.0233C37.7774 168.21 37.5781 168.014 37.5781 167.772C37.5781 167.529 37.7774 167.333 38.0233 167.333H54.5639C54.6681 166.3 54.3324 165.582 53.7917 165.08C53.1663 164.499 52.2162 164.161 51.1827 164.045L51.1807 164.045C48.8537 163.772 46.3328 162.918 44.3093 162.123C43.3606 161.75 42.5138 161.387 41.8427 161.099L41.7049 161.04C41.3577 160.891 41.0662 160.767 40.836 160.675C40.5939 160.578 40.4549 160.531 40.3958 160.518C40.2728 160.493 40.1665 160.418 40.103 160.311C40.0395 160.204 40.0249 160.076 40.0626 159.957C46.0401 141.245 52.2803 117.099 52.9208 89.0077C52.9263 88.7655 53.1301 88.5735 53.3759 88.579Z" fill="#000229"/>
<path fill-rule="evenodd" clip-rule="evenodd" d="M31.3164 159.263H41.1585V160.158H31.3164V159.263Z" fill="#000229"/>
<path fill-rule="evenodd" clip-rule="evenodd" d="M15.2109 159.263H24.1583V160.158H15.2109V159.263Z" fill="#000229"/>
<path fill-rule="evenodd" clip-rule="evenodd" d="M14 167.467C14 167.209 14.193 167 14.4311 167H37.5689C37.807 167 38 167.209 38 167.467V169.533C38 169.791 37.807 170 37.5689 170H14.4311C14.193 170 14 169.791 14 169.533V167.467ZM14.8622 167.935V169.065H37.1378V167.935H14.8622Z" fill="#000229"/>
<path fill-rule="evenodd" clip-rule="evenodd" d="M38 167.467C38 167.209 38.1924 167 38.4297 167H54.5703C54.8076 167 55 167.209 55 167.467V169.533C55 169.791 54.8076 170 54.5703 170H38.4297C38.1924 170 38 169.791 38 169.533V167.467ZM38.8595 167.935V169.065H54.1405V167.935H38.8595Z" fill="#000229"/>
<path fill-rule="evenodd" clip-rule="evenodd" d="M7.12695 73.9213L7.29684 70.7269L6.43826 70.6843L6.26832 73.8797L6.26822 73.8817C6.21667 74.9494 6.60486 75.9934 7.34796 76.7856C8.09106 77.5778 9.12865 78.0537 10.234 78.1094L10.2353 78.1095L20.5362 78.737L20.5795 77.9078L14.3367 77.4734L10.2788 77.2803C9.4006 77.2359 8.57553 76.8576 7.98512 76.2282C7.39476 75.5989 7.08626 74.7695 7.12695 73.9213Z" fill="#000229"/>
<path fill-rule="evenodd" clip-rule="evenodd" d="M19.8184 51.876H19.6836V51H19.8382L40.0103 52.0192C41.077 52.078 42.0782 52.5801 42.7952 53.416C43.5123 54.2519 43.8868 55.3535 43.8371 56.4801L42.9882 75.5892L42.9881 75.591C42.9608 76.1555 42.8274 76.7086 42.5955 77.2181C42.3637 77.7275 42.0381 78.1831 41.6377 78.5583C41.2374 78.9335 40.7703 79.2207 40.2638 79.4033C39.7618 79.5843 39.231 79.6588 38.7017 79.6227H38.1656V78.7467H38.7154V79.1847L38.7436 78.7478C39.1678 78.7783 39.5935 78.7193 39.9958 78.5743C40.3981 78.4293 40.7691 78.2011 41.0871 77.9031C41.4051 77.6051 41.6637 77.2433 41.8478 76.8386C42.0319 76.4342 42.1379 75.9951 42.1596 75.547C42.1596 75.5468 42.1596 75.5466 42.1597 75.5464L43.0084 56.4393C43.0084 56.4393 43.0084 56.4394 43.0084 56.4393C43.0479 55.544 42.7502 54.6684 42.1804 54.0041C41.6107 53.34 40.8153 52.941 39.968 52.8941C39.9677 52.894 39.9674 52.894 39.9671 52.894L19.8184 51.876Z" fill="#000229"/>
<path fill-rule="evenodd" clip-rule="evenodd" d="M59.9225 25.0898C59.7056 25.1259 59.5035 25.171 59.2999 25.2165C59.1584 25.2481 59.0161 25.2798 58.8677 25.3089C58.4353 25.4018 58.0176 25.5474 57.6251 25.7419C56.905 26.1206 56.5639 26.6221 56.4471 27.158C56.3262 27.7128 56.4373 28.3485 56.7165 28.976C56.9945 29.6009 57.425 30.1848 57.8908 30.6207C58.3698 31.0689 58.8278 31.3073 59.1469 31.3433C59.4002 31.372 59.5809 31.5886 59.5505 31.8272C59.5201 32.0659 59.2901 32.2361 59.0368 32.2074C58.4158 32.1373 57.7752 31.7393 57.2396 31.2381C56.6908 30.7246 56.1906 30.046 55.8643 29.3123C55.5391 28.5812 55.3722 27.7621 55.542 26.983C55.7158 26.186 56.2331 25.4754 57.1805 24.979L57.185 24.9766L57.1896 24.9743C57.6561 24.7426 58.1528 24.5694 58.6671 24.4593L58.6715 24.4583L58.6759 24.4575C58.7711 24.4389 58.8946 24.4117 59.0307 24.3817C59.2646 24.3301 59.5355 24.2703 59.7636 24.2324L59.7671 24.2319L59.7671 24.2319C60.2334 24.1578 60.7737 24.1167 61.2613 24.22C61.761 24.3258 62.2336 24.5927 62.4746 25.1308C62.6351 25.4144 62.6752 25.7452 62.586 26.0561C62.4941 26.3764 62.2723 26.6499 61.9683 26.8176L61.9483 26.8286L61.9272 26.8377C61.4567 27.0407 60.9636 27.1933 60.4569 27.2926C60.4105 27.3024 60.3644 27.3149 60.3194 27.3294C60.4512 27.4098 60.5758 27.501 60.6916 27.6023C61.0007 27.8727 61.2386 28.207 61.3868 28.5788C61.5103 28.8211 61.6105 29.0733 61.6861 29.3325C61.7536 29.5643 61.609 29.8037 61.3629 29.8674C61.1169 29.931 60.8627 29.7948 60.7951 29.563C60.7325 29.3485 60.6491 29.1399 60.5458 28.9398L60.5354 28.9197L60.5273 28.8988C60.43 28.6477 60.2708 28.422 60.0629 28.2401C59.8575 28.0605 59.6104 27.9287 59.3413 27.8553C59.2803 27.841 59.2007 27.8117 59.1264 27.7497C59.0302 27.6696 58.9772 27.5631 58.9639 27.4565C58.9422 27.282 59.0297 27.1514 59.0571 27.1118C59.1327 27.0028 59.2477 26.9078 59.3501 26.8359C59.5683 26.6825 59.8958 26.5184 60.2594 26.4423L60.2626 26.4417L60.2657 26.4411C60.6968 26.3568 61.1167 26.228 61.5178 26.057C61.6041 26.0042 61.667 25.9231 61.694 25.829C61.7227 25.7291 61.7085 25.6225 61.6546 25.5323L61.6398 25.5076L61.6286 25.4813C61.5328 25.2573 61.3517 25.1311 61.0587 25.0691C60.7463 25.0029 60.3472 25.0224 59.9225 25.0898Z" fill="#000229"/>
<path fill-rule="evenodd" clip-rule="evenodd" d="M56.8192 16.9964C56.9507 16.9695 57.0387 16.9787 57.1046 16.999L57.3583 17.1657L57.9663 18.3057L58.5233 20.2873L58.6115 20.6441C58.7753 21.3085 58.9531 22.0301 59.1647 22.7745C59.3581 23.4556 59.5666 24.1784 59.8252 24.9034C59.9077 25.1347 60.1975 25.266 60.4724 25.1966C60.7474 25.1272 60.9035 24.8834 60.821 24.6521C60.5718 23.9536 60.3693 23.2526 60.1758 22.5712C59.9683 21.8407 59.794 21.1338 59.6301 20.4692C59.6001 20.3476 59.5705 20.2274 59.5411 20.1087C59.3523 19.3474 59.1707 18.6429 58.9625 18.0558C58.7582 17.4794 58.5097 16.9583 58.1538 16.6026C57.9695 16.4184 57.7424 16.2642 57.462 16.1778C57.1777 16.0902 56.8773 16.0845 56.5736 16.1466C56.1191 16.2395 55.8641 16.5489 55.7246 16.8457C55.5833 17.1461 55.5155 17.5204 55.4887 17.9176C55.4348 18.7181 55.5411 19.741 55.7132 20.7663C56.0577 22.8176 56.6863 24.9919 56.954 25.6512C57.0467 25.8798 57.3422 26.0018 57.6139 25.9238C57.8856 25.8457 58.0306 25.5972 57.9378 25.3686C57.6978 24.7772 57.0812 22.6602 56.7427 20.644C56.5733 19.6356 56.4786 18.6805 56.5267 17.9671C56.5509 17.6074 56.6098 17.3408 56.6914 17.1672C56.7312 17.0825 56.7689 17.0364 56.7938 17.0139C56.8053 17.0034 56.8128 16.9992 56.8153 16.9978C56.8175 16.9967 56.8182 16.9966 56.8192 16.9964Z" fill="#000229"/>
<path fill-rule="evenodd" clip-rule="evenodd" d="M60.1615 22.5432C60.0553 22.6356 59.9847 22.7636 60.0032 22.9622C60.0249 23.1949 59.8312 23.3992 59.5704 23.4186C59.3097 23.438 59.0807 23.2651 59.0589 23.0324C59.0169 22.5822 59.1913 22.2065 59.5 21.9379C59.7965 21.68 60.1908 21.5417 60.5739 21.4937C60.9584 21.4456 61.3702 21.4831 61.7302 21.6153C62.0888 21.7469 62.4262 21.9857 62.591 22.3537C62.7672 22.7167 62.9133 23.0907 63.0281 23.4727C63.3359 24.4052 63.5077 25.3944 63.525 26.2894C63.5418 27.1639 63.4122 27.9964 63.0708 28.5972C62.9446 28.88 62.7233 29.1212 62.437 29.2875C62.1426 29.4585 61.7948 29.5413 61.444 29.524C61.1828 29.5111 60.9827 29.3117 60.9972 29.0786C61.0116 28.8455 61.2351 28.667 61.4964 28.6799C61.646 28.6873 61.7944 28.6519 61.92 28.579C62.0457 28.506 62.1419 28.3993 62.1949 28.2742L62.2048 28.2509L62.2176 28.2289C62.4621 27.8088 62.5936 27.1319 62.5776 26.3039C62.5618 25.4875 62.4037 24.5718 62.1176 23.7068L62.1159 23.7016L62.1143 23.6964C62.0107 23.3506 61.8785 23.0123 61.7187 22.684L61.7153 22.677L61.7122 22.6698C61.6664 22.5655 61.5584 22.4664 61.3697 22.3971C61.1797 22.3274 60.9395 22.3016 60.7056 22.3309C60.4703 22.3604 60.28 22.4401 60.1615 22.5432Z" fill="#000229"/>
<path fill-rule="evenodd" clip-rule="evenodd" d="M62.8331 22.3032C62.6081 22.3702 62.3918 22.6196 62.4271 23.0656C62.4448 23.2887 62.306 23.4865 62.1171 23.5074C61.9283 23.5283 61.7609 23.3643 61.7432 23.1412C61.6747 22.2756 62.1294 21.6758 62.6652 21.5163C62.929 21.4378 63.2204 21.4637 63.4747 21.627C63.7348 21.7941 63.9297 22.0882 64.0154 22.4838L64.0155 22.484C64.3003 23.8013 64.4216 24.9117 64.4205 25.8062C64.4195 26.6912 64.2987 27.3981 64.0721 27.8835C63.9912 28.0608 63.8828 28.2186 63.7524 28.3486L63.7394 28.3615L63.7254 28.3729C63.4533 28.5937 63.1182 28.6779 62.7936 28.607C62.469 28.5362 62.1815 28.3161 61.9941 27.9951C61.8864 27.8107 61.9257 27.558 62.0819 27.4308C62.2381 27.3036 62.4519 27.35 62.5596 27.5345C62.6437 27.6785 62.7727 27.7773 62.9184 27.809C63.0585 27.8396 63.203 27.8058 63.3225 27.7149C63.3814 27.6531 63.4306 27.5795 63.4679 27.4974L63.4689 27.4952L63.47 27.493C63.6181 27.1764 63.7326 26.6243 63.7336 25.8051C63.7346 24.9941 63.6241 23.953 63.3499 22.6849C63.3078 22.4909 63.2262 22.3911 63.1466 22.3399C63.0612 22.2851 62.9497 22.2685 62.8331 22.3032Z" fill="#000229"/>
<path fill-rule="evenodd" clip-rule="evenodd" d="M63.7892 27.7525C63.979 27.6873 64.1741 27.8316 64.225 28.0748C64.4852 29.3187 64.4852 30.6286 64.225 31.8726C64.1741 32.1157 63.979 32.26 63.7892 32.1949C63.5994 32.1297 63.4867 31.8797 63.5376 31.6366C63.7655 30.5472 63.7655 29.4001 63.5376 28.3108C63.4867 28.0676 63.5994 27.8176 63.7892 27.7525Z" fill="#000229"/>
<path fill-rule="evenodd" clip-rule="evenodd" d="M79.413 0.095982C79.6581 0.251949 79.7041 0.542954 79.5158 0.745959L77.0561 3.3978C76.8678 3.6008 76.5165 3.63893 76.2714 3.48297C76.0264 3.327 75.9803 3.03599 76.1686 2.83299L78.6283 0.181152C78.8166 -0.0218535 79.1679 -0.0599852 79.413 0.095982Z" fill="#000229"/>
<path fill-rule="evenodd" clip-rule="evenodd" d="M82.2631 3.85568C82.379 4.10945 82.2954 4.42404 82.0764 4.55834L79.3949 6.20259C79.1759 6.33689 78.9044 6.24003 78.7885 5.98625C78.6726 5.73247 78.7562 5.41788 78.9752 5.28359L81.6567 3.63933C81.8757 3.50504 82.1472 3.6019 82.2631 3.85568Z" fill="#000229"/>
<path fill-rule="evenodd" clip-rule="evenodd" d="M79.6309 8.5001C79.6309 8.25303 79.8131 8.05273 80.038 8.05273H82.8027C83.0275 8.05273 83.2098 8.25303 83.2098 8.5001C83.2098 8.74718 83.0275 8.94747 82.8027 8.94747H80.038C79.8131 8.94747 79.6309 8.74718 79.6309 8.5001Z" fill="#000229"/>
</svg>
