<svg width="146" height="170" viewBox="0 0 146 170" fill="none" xmlns="http://www.w3.org/2000/svg"><path d="M137.79 137.779l-24.335 13.431-4.297-8.107.072-.122 9.576-5.092h.179c.359-.11 1.556-.171 3.172-.317a35.622 35.622 0 009.576-1.942c1.843-.744 3.926-.842 5.231.672.367.428.648.926.826 1.465v.012zm-43.496 15.377c.37.091 1.448.65 2.944 1.3a33.717 33.717 0 009.335 3.134c1.963.247 3.854 1.235 4.297 3.328a5.197 5.197 0 010 1.794.565.565 0 010 .13H83.21V153h10.988l.096.156z" fill="#CAD7E4"/><path fill-rule="evenodd" clip-rule="evenodd" d="M83.21 153.895h11.357l.14.193c.234.073.547.195.893.33l.234.092c.445.174.977.384 1.583.606l.013.005.012.005a36.181 36.181 0 008.861 2.52c1.956.211 4.059 1.072 4.557 3.067l.002.008.002.009a4.02 4.02 0 01.012 1.576.972.972 0 01-.006.132l-.051.404H83.211v-8.947zm.993.913v7.121h25.729a3.207 3.207 0 00-.041-1.02c-.359-1.413-1.892-2.164-3.714-2.358l-.012-.001-.012-.002a37.262 37.262 0 01-9.118-2.589 73.636 73.636 0 01-1.823-.701c-.509-.199-.805-.309-.928-.334l-.193-.04-.055-.076h-9.833z" fill="#000229"/><path d="M61.8 70.305a3.55 3.55 0 00.97-1.105c.245-.434.398-.915.45-1.413a1.355 1.355 0 00-.376-1.024 1.288 1.288 0 00-.458-.303 1.26 1.26 0 00-.54-.082c-.055.141-.13.274-.22.394l.104-2.16.233-4.369a.965.965 0 00-.17-.715.926.926 0 00-.62-.37h-.28l.721-5.073h5.374l.128-1.576h-6.828l-.965 6.672h-3.257a3.092 3.092 0 00-.587-1.604 2.974 2.974 0 00-1.338-1.026 2.895 2.895 0 00-1.665-.12 2.945 2.945 0 00-1.466.821c-.402.412-.68.934-.8 1.504-.122.57-.08 1.163.117 1.709a3.038 3.038 0 001 1.373c.454.35.997.559 1.563.602l.093 1.838.093 1.826h-.174a3.363 3.363 0 00-2.087 1.026 3.526 3.526 0 00-.96 2.16l.116 6.04-.303.107a84.885 84.885 0 01-14.9 3.843c-4.002.561-6.863.346-8.143-.764-5.246-4.475 3.955-31.664 8.294-36.044 2.512-2.554 7.654-3.653 13.958-4.906a3.36 3.36 0 011.442-1.993h.07a28.437 28.437 0 0111.725-.131l.43.155c.418.144.788.406 1.066.757.278.35.453.775.505 1.224 0 0 9.41 1.074 11.085 3.08 4.28 5.144 8.643 10.383 11.923 13.988.233.25 6.374-5.646 8.514-11.41h.07s2.327 3.58 6.293 2.912c-.314.644-10.83 22.164-15.82 20.29-4.222-1.6-8.805-5.132-13.678-9.334-1.896-1.706 5.71 33.24 5.839 33.956h-4.955l-16.925.096h-2.547l-20.321.107a83.226 83.226 0 011-11.171 141.496 141.496 0 0015.122-4.655l.302.096c1.22.556 2.49.992 3.792 1.3l.14 2.388a.934.934 0 00.216.64c.15.178.359.29.586.314h5.63a.889.889 0 00.586-.314.934.934 0 00.217-.64l.14-2.65c1.197-.478 1.895-1.194 1.895-1.743a1.148 1.148 0 00-.354-.918 1.067 1.067 0 00-.925-.275h-.058.093c.34-.209.63-.495.845-.837.216-.34.352-.728.4-1.133a1.222 1.222 0 00-.364-.966 1.134 1.134 0 00-.963-.31l-.093-.084z" fill="#CAD7E4"/><path fill-rule="evenodd" clip-rule="evenodd" d="M110.053 144.947H93.947v-.894h16.106v.894z" fill="#000229"/><path fill-rule="evenodd" clip-rule="evenodd" d="M8.053 144.053h73.512v1.028H9.055v8.68h127.732v-8.68h-6.563v-1.028h7.566v10.737H8.053v-10.737z" fill="#000229"/><path d="M55.474 144.053H8.053v9.842h47.42v-9.842z" fill="#000229"/><path fill-rule="evenodd" clip-rule="evenodd" d="M0 117.21h75.33v1.009H1.008v50.772h143.826v-50.772h-33.339v-1.009h34.347V170H0v-52.79z" fill="#000229"/><path fill-rule="evenodd" clip-rule="evenodd" d="M19.684 121.921a1.553 1.553 0 100 3.105 1.553 1.553 0 000-3.105zM17 123.474a2.684 2.684 0 115.367 0 2.684 2.684 0 01-5.367 0zm-4.474-1.553a1.553 1.553 0 100 3.105 1.553 1.553 0 000-3.105zm-2.684 1.553a2.684 2.684 0 115.367 0 2.684 2.684 0 01-5.367 0zm-4.474-1.553a1.553 1.553 0 100 3.105 1.553 1.553 0 000-3.105zm-2.684 1.553a2.684 2.684 0 115.367 0 2.684 2.684 0 01-5.367 0zM117.691 22.382a.524.524 0 01.4.63c-.446 1.863-3.608 17.02-4.294 20.408a.535.535 0 01-.629.412.523.523 0 01-.421-.615c.684-3.38 3.85-18.559 4.301-20.444a.536.536 0 01.643-.39z" fill="#000229"/><path fill-rule="evenodd" clip-rule="evenodd" d="M105.966 41.443a8.796 8.796 0 013.865-.13 8.989 8.989 0 013.577 1.547.557.557 0 01.134.748.495.495 0 01-.71.14 8.007 8.007 0 00-3.183-1.375 7.822 7.822 0 00-3.438.114.51.51 0 01-.618-.393.542.542 0 01.373-.651zM87.843 22.209l-.01.349a1018.772 1018.772 0 01-.274 7.793c-.16 4.156-.373 8.94-.596 12.063.075-.04.156-.08.241-.122.671-.334 1.63-.755 2.783-1.11 2.3-.709 5.413-1.164 8.57-.08.261.09.403.383.317.656a.494.494 0 01-.63.33c-2.892-.993-5.783-.585-7.975.09a17.708 17.708 0 00-2.636 1.052 14.214 14.214 0 00-.967.528l-.01.006-.003.002a.482.482 0 01-.522-.001.527.527 0 01-.235-.487c.248-3.006.489-8.358.667-12.97a1131.019 1131.019 0 00.288-8.283l.006-.174.498.016-.498-.016a.52.52 0 01.292-.457c4.988-2.361 8.953-1.93 11.763-.776a12.759 12.759 0 014.342 2.954c1.502-1.989 4.145-2.994 6.79-3.185 2.904-.21 5.996.545 7.891 2.273a.535.535 0 01.047.733.485.485 0 01-.704.049c-1.629-1.486-4.424-2.217-7.165-2.019-2.747.198-5.252 1.313-6.407 3.287a.49.49 0 01-.56.23.51.51 0 01-.344-.354c-.444-.517-1.89-2.03-4.255-3.002-2.514-1.032-6.103-1.469-10.704.625zM53.898 58.158h5.154v1.067H53.96a.333.333 0 00-.118.054.414.414 0 00-.11.12.564.564 0 00-.072.344l.003.024.102 2.285.162 3.823v1.23h-.867v-1.202l-.16-3.794v-.002l-.1-2.235a1.87 1.87 0 01.029-.575c.04-.197.113-.381.213-.543.1-.162.224-.297.366-.399.143-.101.3-.167.464-.193l.027-.004zm6.944 0h.503l.032.004a1.434 1.434 0 011.24 1.627l-.234 4.29-.106 2.132-1.01-.05.105-2.137.237-4.341.005-.026a.424.424 0 00-.34-.485h-.432v-1.014zm.894 17.895v.103l-.131 2.813c.008.378-.106.747-.32 1.034-.22.294-.53.48-.864.52l-.025.003h-5.373l-.025-.002a1.274 1.274 0 01-.864-.521 1.675 1.675 0 01-.32-1.032l-.13-2.517.944-.065.134 2.57-.002.028a.475.475 0 00.09.302.364.364 0 00.226.144h5.267a.364.364 0 00.225-.144.475.475 0 00.09-.302v-.026l.132-2.834v-.074h.946z" fill="#000229"/><path fill-rule="evenodd" clip-rule="evenodd" d="M61.652 65.925l.98-2.399v2.59h-.509l.47.19a2.156 2.156 0 01-.293.507l-.003.005-.004.004c-.434.533-1.178.98-2.002 1.314-.837.341-1.819.592-2.787.7-.964.108-1.95.077-2.78-.174-.837-.252-1.572-.748-1.901-1.6l-.034-.088v-.188h.754l.228-.087c.18.465.596.799 1.247.995.655.198 1.49.235 2.373.136a9.714 9.714 0 002.516-.63c.76-.31 1.317-.674 1.593-1.01.063-.081.114-.17.152-.265z" fill="#000229"/><path fill-rule="evenodd" clip-rule="evenodd" d="M61.964 66.37a.82.82 0 00-.345-.043.51.51 0 01-.557-.455.506.506 0 01.462-.549 1.86 1.86 0 011.45.506 1.78 1.78 0 01.55 1.414l-.002.008v.008a3.978 3.978 0 01-.514 1.584c-.28.486-.66.908-1.116 1.241a7.386 7.386 0 01-2.855 1.318 7.447 7.447 0 01-3.158.015.504.504 0 01-.393-.599.512.512 0 01.608-.386c.896.19 1.823.185 2.718-.014a6.355 6.355 0 002.46-1.136l.003-.003.004-.002a2.994 2.994 0 001.223-2.11.785.785 0 00-.243-.617.81.81 0 00-.295-.18z" fill="#000229"/><path fill-rule="evenodd" clip-rule="evenodd" d="M61.999 70.837a.7.7 0 00-.31-.02.518.518 0 01-.596-.419.51.51 0 01.427-.586 1.756 1.756 0 011.452.427 1.668 1.668 0 01.55 1.387l-.002.011-.001.012a3.119 3.119 0 01-.52 1.351c-.277.405-.646.74-1.078.982l-.12.066h-.093a8.786 8.786 0 01-5.806.976.51.51 0 01-.42-.592.518.518 0 01.603-.411 7.73 7.73 0 005.22-.921l.121-.071h.094a2.16 2.16 0 00.618-.598 2.11 2.11 0 00.35-.901.666.666 0 00-.22-.542.692.692 0 00-.27-.151z" fill="#000229"/><path fill-rule="evenodd" clip-rule="evenodd" d="M62.17 73.66a.46.46 0 00-.245-.015l-.04.008h-.096c-.26 0-.472-.26-.472-.58 0-.32.212-.58.472-.58h.019c.205-.037.415-.02.615.048.215.073.413.204.582.382.168.18.303.402.393.652.09.248.133.517.128.788-.002.553-.262 1.06-.608 1.468-.356.422-.858.809-1.473 1.125l-.012.006-.012.005c-2.372 1.042-4.95 1.156-7.376.327a17.845 17.845 0 01-3.659-1.504c-.238-.13-.346-.473-.24-.766.106-.293.386-.425.624-.295a17.02 17.02 0 003.498 1.437l.01.003.01.003c2.238.767 4.614.665 6.803-.293.533-.276.923-.589 1.172-.884.26-.308.318-.534.318-.64v-.014a.825.825 0 00-.048-.296.697.697 0 00-.146-.243.537.537 0 00-.217-.142zm-7.625-9.816c-.293-.066-.647-.037-1.12.201-.24.12-.509-.029-.603-.332-.095-.304.022-.647.261-.767.607-.305 1.135-.375 1.624-.266.48.108.883.383 1.243.678.17.139.33.28.487.42.538.476 1.046.926 1.79 1.147.402.107.813.131 1.22.073l.026-.004h.12c.264-.09.51-.247.723-.464.227-.23.41-.523.538-.854.113-.293.391-.415.622-.271.23.143.326.497.213.79a3.665 3.665 0 01-.792 1.258c-.334.34-.723.58-1.139.707l-.053.016h-.18a3.787 3.787 0 01-1.493-.095l-.005-.002-.005-.001c-.94-.278-1.632-.895-2.185-1.388a12.864 12.864 0 00-.39-.338c-.32-.263-.6-.44-.902-.508z" fill="#000229"/><path fill-rule="evenodd" clip-rule="evenodd" d="M59.389 52.327c.04-.248.27-.432.543-.432h7.52c.153 0 .3.06.404.163a.483.483 0 01.143.386L67.859 54c-.024.263-.26.464-.545.465l-5.426.022-.723 4.58-1.06 6.71c-.044.277-.322.469-.622.428-.3-.04-.508-.298-.464-.575l1.06-6.71.79-5.011c.04-.248.27-.433.541-.434l5.396-.022.049-.544h-6.45l-2.05 12.728c-.044.277-.323.468-.623.427-.3-.042-.507-.3-.462-.577l2.119-13.16zm-5.371 4.34a1.96 1.96 0 00-1.252-.1c-.418.103-.8.342-1.102.687a2.672 2.672 0 00-.602 1.26c-.092.477-.06.973.088 1.431.149.458.41.857.751 1.15.338.29.74.464 1.16.502h.183v1.035h-.2c-.011 0-.022 0-.033-.002a2.912 2.912 0 01-1.653-.708 3.583 3.583 0 01-1.056-1.616 4.069 4.069 0 01-.125-2.013c.128-.67.422-1.285.847-1.77a3.046 3.046 0 011.549-.967 2.766 2.766 0 011.76.142 3.21 3.21 0 011.415 1.207 3.904 3.904 0 01.62 1.927v.216h-.904v-.196a2.773 2.773 0 00-.44-1.326 2.283 2.283 0 00-1.006-.859zm.56 33.701h1.79v.895h-1.79v-.895zm.177-87.828a10.75 10.75 0 00-2.173 4.993l-.002.014-.003.013a49.007 49.007 0 00-.489 2.77l-.075.477a.508.508 0 01-.581.415.499.499 0 01-.426-.567l.074-.469a50.28 50.28 0 01.497-2.816 11.733 11.733 0 012.384-5.454l.014-.017.015-.016C55.46.326 57.04-.205 58.615.069c1.53.266 2.956 1.274 4.202 2.572.72.739 1.38 1.532 1.97 2.374l.002.003a29.347 29.347 0 013.976 8.304l.004.011.003.012c.278 1.134.058 2.55-.394 3.988-.457 1.453-1.174 2.997-1.97 4.423-.795 1.427-1.676 2.749-2.468 3.758-.396.505-.775.938-1.115 1.27-.322.314-.66.587-.974.705-.228.09-.466.153-.709.19-1.4.235-2.909-.27-4.166-1.06-1.264-.796-2.36-1.935-2.918-3.094a.492.492 0 01.245-.662.515.515 0 01.677.24c.461.956 1.41 1.963 2.548 2.68 1.144.72 2.393 1.093 3.445.915l.005-.001h.005a2.22 2.22 0 00.49-.132l.005-.002.006-.002c.098-.037.307-.175.621-.481.298-.29.647-.688 1.026-1.17.757-.965 1.61-2.243 2.382-3.63.774-1.387 1.46-2.868 1.891-4.24.434-1.38.589-2.582.38-3.453a28.363 28.363 0 00-3.84-8.012 18.096 18.096 0 00-1.867-2.25l-.003-.002c-1.183-1.234-2.423-2.064-3.638-2.275-1.165-.202-2.406.148-3.68 1.492zm-3.416 27.332c.001 1.933.003 3.894-.039 5.917l-1.194-.017c.04-1.985.039-3.925.037-5.847-.004-4.58-.007-9.06.563-13.82l1.189.1c-.564 4.708-.56 9.11-.556 13.667z" fill="#000229"/><path fill-rule="evenodd" clip-rule="evenodd" d="M60.013 27.353l-.066-.269.95-.242.071.29.002.01c.182.906.317 1.89.452 2.87.066.48.132.958.203 1.426.22 1.446.492 2.814.968 3.962l.038.093v.23h-.785l-.155.066a7.8 7.8 0 01-.028-.066h-.01v-.028c-.502-1.247-.78-2.682-.996-4.104-.076-.5-.144-.996-.21-1.483-.132-.956-.26-1.882-.434-2.755zM49.912 9.952c.801-.264 1.663-.055 2.493.657v.001c.459.395.86.85 1.192 1.353a.53.53 0 01-.157.739.545.545 0 01-.748-.155 5.512 5.512 0 00-.997-1.132c-.616-.529-1.088-.566-1.44-.45-.398.131-.796.506-1.125 1.08a4.986 4.986 0 00-.604 1.877c-.068.632.021 1.102.18 1.345a2.099 2.099 0 002.132.576l.076-.023h.343c.172-.043.338-.109.494-.194a.544.544 0 01.735.209.53.53 0 01-.212.726 3.206 3.206 0 01-.833.314l-.06.014h-.31c-.555.15-1.14.148-1.694-.006a3.162 3.162 0 01-1.504-.932l-.02-.023-.018-.025c-.392-.553-.464-1.351-.384-2.094.083-.767.34-1.595.738-2.291.393-.686.967-1.317 1.723-1.566zM71.541.009c.668.041 1.352.246 1.657.866.224.455.22.916.032 1.34-.177.4-.503.739-.877 1.025-.748.572-1.844 1.05-2.95 1.431a30.153 30.153 0 01-4.408 1.131c-.295.05-.55.087-.681.087v-1l.037-.003.11-.013c.094-.012.216-.031.365-.057a29.153 29.153 0 004.252-1.09c1.082-.374 2.053-.81 2.67-1.282.308-.236.489-.451.57-.634a.536.536 0 00-.015-.492c-.055-.113-.24-.275-.823-.31-.556-.035-1.319.059-2.247.267-1.849.414-4.218 1.248-6.615 2.206-3.75 1.496-7.505 3.26-9.29 4.099-.37.174-.657.309-.84.392l-.171.08-.422-.906.178-.083c.175-.08.455-.212.82-.383 1.773-.834 5.57-2.619 9.356-4.129C64.657 1.59 67.086.731 69.015.3c.96-.216 1.83-.333 2.526-.29zm-5.896 14.839c-.793-.249-1.621-.14-2.367.31-.235.141-.508-.01-.61-.339-.1-.329.008-.71.243-.852.925-.558 1.953-.692 2.937-.384.25.079.406.425.35.774-.056.35-.303.57-.553.491zm-7.546-1.42c.583-.046 1.161.144 1.645.542.212.175.268.525.124.783-.144.258-.433.325-.646.15a1.483 1.483 0 00-1.063-.35 1.56 1.56 0 00-1.016.515c-.192.207-.486.186-.657-.047a.65.65 0 01.04-.796c.436-.47.99-.75 1.573-.797z" fill="#000229"/><path fill-rule="evenodd" clip-rule="evenodd" d="M51.78 12.709a.57.57 0 01-.049.743 3.01 3.01 0 01-2.04.864c-.262.004-.476-.229-.48-.52-.004-.291.205-.53.467-.534a2.117 2.117 0 001.435-.608.44.44 0 01.667.055zm11.065 1.648c.273.104.394.374.27.604-.25.462-.269 1.112-.158 1.86.078.518.206 1.027.326 1.503.053.208.104.41.148.603l.003.012.002.012c.035.212.077.49.088.776.01.28-.009.602-.117.892a1.247 1.247 0 01-.773.762c-.418.149-.908.108-1.434-.05-.281-.086-.428-.348-.326-.584.102-.237.413-.36.694-.275.403.122.583.09.644.07.044-.017.107-.055.16-.197.055-.147.076-.35.067-.59a5.34 5.34 0 00-.076-.667c-.037-.16-.082-.338-.13-.53-.124-.49-.27-1.066-.352-1.625-.116-.78-.135-1.646.246-2.35.124-.23.446-.33.718-.226zm20.307 81.267c5.869 3.399 8.798 8.359 9.493 14.568l-.495.056.495-.056c.176 1.57.304 3.533.408 6.082l-.996.042c-.104-2.541-.231-4.476-.403-6.012-.661-5.908-3.419-10.578-8.999-13.81-5.614-3.251-14.117-5.064-26.286-5.122l.005-1.004c12.236.059 20.944 1.877 26.778 5.256zm10.004 24.498a69.663 69.663 0 00-.08-2.929l-.034-.877-.884.041c.01.295.023.595.036.902.037.902.077 1.857.077 2.888v.025l.002.025c.06.674.06 1.376.06 2.155v.013c.072 3.07.154 6.738.247 11.144v.793l.028 1.219c.117 5.032.255 10.962.455 17.983v.391h.885v-.415c-.2-7.022-.338-12.952-.455-17.986l-.029-1.212v-.791c-.092-4.406-.175-8.075-.247-11.146v-.007c0-.755 0-1.495-.061-2.216zm-58.011-40.36c.036-.212.07-.398.097-.548.03-.17.053-.293.06-.35l-1.009-.127a5.912 5.912 0 01-.04.235c-.026.14-.063.343-.11.62v.004a79.597 79.597 0 00-1.024 11.177c-.107 5.659.388 12.394 2.798 17.849v.001c1.26 2.831 2.995 5.339 5.403 7.17 2.413 1.836 5.472 2.97 9.34 3.098h24.225l.162.573c.187.662.424 1.5.62 2.177v.003l.237.858.058.077a.184.184 0 01-.02-.034l-.004-.011h1.01v-.009c0-.073 0-.261-.11-.46l-.194-.703v-.003c-.198-.684-.427-1.495-.612-2.148-.115-.41-.213-.758-.275-.971l-.106-.369H50.685c-3.672-.123-6.522-1.195-8.75-2.891-2.237-1.701-3.878-4.052-5.089-6.773-2.318-5.247-2.816-11.8-2.71-17.413a78.577 78.577 0 011.01-11.032z" fill="#000229"/><path fill-rule="evenodd" clip-rule="evenodd" d="M76.883 122.202l-.211-.763-.98.271.214.772v.004a245.883 245.883 0 013.342 12.332v.003a262.03 262.03 0 014.085 19.301l.073.422H94.48v-1.016H84.263a263.671 263.671 0 00-4.027-18.951 247.055 247.055 0 00-3.353-12.375zm-3.46-31.834h1.558c6.617.003 11.635.243 15.52.81 3.885.566 6.67 1.463 8.8 2.803 2.138 1.345 3.576 3.112 4.808 5.346 1.039 1.884 1.946 4.127 3.001 6.741l.571 1.409c.317.738 1.834 4.655 3.684 9.428l.417 1.076v.001l5.429 14.082-.949.357-5.428-14.082h-.001l-.395-1.022c-1.868-4.82-3.388-8.744-3.693-9.453l-.002-.004-.001-.005c-.2-.489-.392-.965-.579-1.426-1.058-2.618-1.937-4.795-2.945-6.623-1.177-2.132-2.509-3.75-4.463-4.98-1.963-1.235-4.592-2.101-8.402-2.657-3.811-.555-8.77-.795-15.372-.798h-1.558l-17.169.093h-2.528l-20.615.105-.005-1.002 20.62-.105h2.526l17.171-.094z" fill="#000229"/><path fill-rule="evenodd" clip-rule="evenodd" d="M96.855 124.716c-2.135-3.416-3.887-6.341-4.697-7.965l.936-.435c.784 1.573 2.51 4.459 4.65 7.881a663.696 663.696 0 006.359 9.934 466.89 466.89 0 005.771 8.607l8.714-4.487-1.497-3.659-.001-.003-.214-.542c-.174-.44-.361-.914-.548-1.398l.973-.351c.185.48.37.948.543 1.386l.215.545 1.836 4.486-10.365 5.338-.261-.38a480.05 480.05 0 01-6.045-9.007 664.282 664.282 0 01-6.369-9.95zM55.808 20.609a.492.492 0 01.635.321c.092.276.243.527.44.732.199.205.438.36.702.453a1.732 1.732 0 001.588-.226.483.483 0 01.691.144.543.543 0 01-.137.728 2.73 2.73 0 01-1.19.475 2.68 2.68 0 01-1.267-.125 2.795 2.795 0 01-1.086-.7 2.993 2.993 0 01-.681-1.133.533.533 0 01.305-.67zm47.857 15.948a.911.911 0 00.022.22 8.896 8.896 0 00.124.563c.093.388.211.88.282 1.432.152 1.173.099 2.645-.817 4.13l-.005.01-.253.374a.503.503 0 01-.702.136.51.51 0 01-.135-.706l.241-.358c.749-1.218.801-2.427.669-3.454a12.68 12.68 0 00-.265-1.336l-.013-.054a9.306 9.306 0 01-.122-.563 1.777 1.777 0 01-.028-.533l.001-.005c.078-.537.283-.997.645-1.273.386-.294.854-.307 1.269-.126.777.34 1.409 1.346 1.657 2.726.248 1.277.303 2.585.161 3.878a5.348 5.348 0 01-1.185 3.188 5.3 5.3 0 01-2.65 1.762c-.551 1.096-3.101 6.09-6.146 10.828-1.669 2.597-3.502 5.142-5.249 6.927-.872.89-1.744 1.615-2.585 2.057-.838.44-1.712.632-2.53.331-4.208-1.563-8.726-4.93-13.46-8.901 0 .032 0 .067.002.102.025.758.166 1.953.396 3.465.458 3.016 1.257 7.207 2.123 11.484a894.121 894.121 0 002.52 11.956c.333 1.532.623 2.856.842 3.856.255 1.161.414 1.886.433 1.996l.102.594h-4.28a.507.507 0 01-.505-.508c0-.281.226-.509.505-.509h3.055a841.02 841.02 0 00-.245-1.118l-.034-.156c-.22-1.003-.517-2.356-.86-3.938a892.958 892.958 0 01-2.524-11.97c-.866-4.279-1.669-8.491-2.131-11.533-.23-1.515-.38-2.762-.407-3.585-.013-.392-.002-.76.078-1.015.033-.106.129-.363.402-.47.31-.12.563.052.664.138 4.929 4.164 9.5 7.608 13.673 9.158.444.162 1.005.094 1.713-.279.707-.371 1.495-1.012 2.333-1.869 1.674-1.71 3.463-4.186 5.12-6.766 3.311-5.152 6.037-10.62 6.194-10.936l.105-.212.23-.055a4.287 4.287 0 002.331-1.475 4.329 4.329 0 00.96-2.597l.001-.021.002-.021c.133-1.199.084-2.41-.147-3.594v-.004l-.001-.003c-.223-1.243-.742-1.837-1.066-1.978-.136-.06-.207-.034-.255.003-.072.055-.198.218-.255.607zm-31.04 20.68c.005-.017.006-.015 0 0z" fill="#000229"/><path fill-rule="evenodd" clip-rule="evenodd" d="M100.727 41.232c.348.163.48.545.296.852a5.76 5.76 0 01-.41.594c-.225.285-.67.355-.992.156-.322-.2-.401-.593-.176-.878.117-.149.223-.303.32-.463.183-.308.615-.425.962-.261z" fill="#000229"/><path fill-rule="evenodd" clip-rule="evenodd" d="M100.9 34.127c.285-.11.599-.15.908-.114h.006l.005.001c.836.11 1.424.744 1.815 1.408.41.695.705 1.59.875 2.521.172.934.224 1.935.128 2.853-.095.907-.34 1.787-.81 2.439l-.006.008-.006.008a3.471 3.471 0 01-.396.426.677.677 0 01-.873.01.501.501 0 01-.012-.77c.094-.085.181-.178.258-.276.316-.444.53-1.123.616-1.945a9.254 9.254 0 00-.117-2.579c-.157-.857-.421-1.631-.752-2.192-.347-.588-.678-.8-.897-.832a.529.529 0 00-.25.033l-.013.005-.013.005c-.236.082-.342.166-.394.226a.439.439 0 00-.096.267c-.011.141.009.323.062.568.038.18.089.368.145.582l.066.248c.33 1.269.687 3.035-.682 5.112-.171.26-.55.348-.844.197-.294-.151-.394-.485-.223-.745 1.128-1.712.855-3.133.546-4.32l-.06-.223c-.058-.221-.117-.443-.16-.648a2.967 2.967 0 01-.081-.848 1.44 1.44 0 01.345-.85c.222-.258.534-.442.91-.575z" fill="#000229"/><path fill-rule="evenodd" clip-rule="evenodd" d="M50.123 35.554a29.91 29.91 0 0111.961-.108l.006.002.454.1.025.008a2.845 2.845 0 011.844 1.96l.049.007a66.35 66.35 0 014.571.728c1.298.255 2.663.575 3.817.96a11.1 11.1 0 011.563.636c.445.229.843.495 1.115.812l.684.8c3.974 4.646 7.954 9.298 11.036 12.594.172-.132.406-.331.69-.592a32.513 32.513 0 002.39-2.489c1.83-2.1 3.869-4.901 4.915-7.641l.002-.007.003-.006c.074-.179.138-.361.193-.546l.003-.011.004-.011c.171-.496.503-.765.836-.966.113-.068.24-.136.36-.2l.129-.07a4.95 4.95 0 00.489-.296c.288-.203.508-.455.582-.927.08-.512-.005-1.325-.484-2.648a1.423 1.423 0 011.097-1.903 1.43 1.43 0 01.813.1c.305.126.54.388.713.631.184.259.347.568.483.873.267.596.465 1.248.529 1.617a4.613 4.613 0 01-.497 3.293 4.636 4.636 0 01-.283.474.504.504 0 01-.833-.564 3.7 3.7 0 00.227-.38l.447.23-.437-.25a3.61 3.61 0 00.391-2.595l-.003-.014-.002-.014c-.044-.264-.214-.841-.458-1.388a4.216 4.216 0 00-.385-.7c-.142-.2-.242-.271-.279-.286l-.007-.003-.007-.003a.422.422 0 00-.566.532l.001.003.001.003c.503 1.386.652 2.389.534 3.147-.125.798-.538 1.27-.998 1.593-.21.148-.41.262-.586.358l-.16.086c-.11.058-.201.108-.29.161-.23.139-.339.248-.402.424a6.515 6.515 0 01-.222.627c-1.108 2.9-3.235 5.803-5.092 7.936A33.503 33.503 0 0188.62 54.2a11.09 11.09 0 01-.828.704 2.32 2.32 0 01-.306.198.798.798 0 01-.2.074.542.542 0 01-.506-.15l-.002-.003c-3.135-3.328-7.244-8.131-11.324-12.901-.23-.27-.46-.54-.691-.808-.15-.174-.416-.37-.812-.574-.39-.2-.871-.393-1.42-.575-1.095-.365-2.413-.676-3.693-.928a65.245 65.245 0 00-4.8-.753l-.058-.006-.02-.003-.02-.002h-.006l-.397-.045-.047-.396a1.832 1.832 0 00-1.218-1.514l-.387-.086a28.903 28.903 0 00-11.603.116l-.001-.006c-.56.376-.966.943-1.14 1.596l-.082.306-.313.058c-3.16.584-6.008 1.164-8.38 1.9-2.377.739-4.217 1.618-5.408 2.767-.497.488-1.093 1.325-1.748 2.459-.65 1.126-1.344 2.518-2.04 4.09-1.392 3.144-2.788 6.987-3.884 10.834-1.097 3.85-1.886 7.683-2.077 10.81-.095 1.565-.039 2.932.193 4.026.232 1.102.63 1.87 1.168 2.316.538.445 1.463.756 2.81.873 1.332.115 3.01.035 4.99-.236a86.885 86.885 0 0014.886-3.725l-.11-5.572.002-.025a3.91 3.91 0 011.11-2.425 3.924 3.924 0 012.408-1.153.503.503 0 11.1 1 2.917 2.917 0 00-2.613 2.635l.124 6.25-.65.225a87.887 87.887 0 01-15.105 3.783h-.005l-.006.002c-2.022.277-3.783.366-5.218.242-1.422-.123-2.593-.46-3.366-1.101-.785-.65-1.255-1.672-1.51-2.881-.258-1.216-.31-2.68-.213-4.294.197-3.229 1.007-7.139 2.114-11.025 1.107-3.89 2.52-7.777 3.931-10.965.706-1.594 1.415-3.02 2.089-4.186.669-1.158 1.32-2.09 1.916-2.675l.003-.002c1.361-1.316 3.384-2.252 5.81-3.006 2.358-.732 5.153-1.307 8.198-1.874a3.798 3.798 0 011.576-1.939l.122-.075h.16zm.053.502v.113l.038.06-.038-.173zm52.267-12.792c.267.02.469.282.451.584l-.011.19-.001.009-.81 11.24c-.022.3-.256.525-.522.5-.266-.024-.465-.288-.443-.59l.81-11.235.011-.187c.018-.302.249-.53.515-.51z" fill="#000229"/><path fill-rule="evenodd" clip-rule="evenodd" d="M96.635 43.201l.003.005a2.272 2.272 0 00.086.137 7.835 7.835 0 001.422 1.613c.987.843 2.4 1.578 4.178 1.238.267-.051.52.16.564.47.044.312-.138.606-.405.657-2.116.404-3.79-.482-4.918-1.444a8.886 8.886 0 01-1.712-1.984 3.588 3.588 0 01-.024-.04l-.007-.012-.002-.004v-.001c-.001-.001-.001-.001.407-.318l-.408.317c-.15-.263-.09-.617.136-.792.225-.175.53-.104.68.158z" fill="#000229"/><path d="M64.87 16.105a.447.447 0 110 .895.447.447 0 010-.895zm-5.37 0a.448.448 0 110 .896.448.448 0 010-.896z" fill="#000229"/><path fill-rule="evenodd" clip-rule="evenodd" d="M83.21 162.365c0-.231.223-.418.498-.418h26.743c.274 0 .497.187.497.418v1.848c0 .231-.223.418-.497.418H83.708c-.275 0-.497-.187-.497-.418v-1.848zm.994.419v1.011h25.75v-1.011h-25.75z" fill="#000229"/><path fill-rule="evenodd" clip-rule="evenodd" d="M127.947 143.991l-13.852 7.22-.464-.834 13.852-7.219.464.833z" fill="#fff"/><path fill-rule="evenodd" clip-rule="evenodd" d="M137.296 137.805a.49.49 0 01.311.255l1.019 1.999a.527.527 0 01-.198.693l-23.049 13.081a.475.475 0 01-.659-.206l-.937-1.816-.088-.162a.536.536 0 01.002-.511.488.488 0 01.255-.224l22.941-13.028.015-.01a.463.463 0 01.388-.071zm-.315 1.194l-22.197 12.606.56 1.085 22.194-12.597-.557-1.094zM43.315 98.421a.504.504 0 01.523.483c.139 4.896-3.065 7.925-7.101 9.336l-.004.001a17.39 17.39 0 01-4.885.917.505.505 0 01-.531-.475.5.5 0 01.487-.517 16.335 16.335 0 004.59-.861c3.758-1.314 6.548-4.034 6.426-8.374a.502.502 0 01.495-.51z" fill="#000229"/><path fill-rule="evenodd" clip-rule="evenodd" d="M136.106 137.055c-1.055-1.185-2.801-1.177-4.534-.499l-.022.008a36.199 36.199 0 01-9.455 1.857c-.481.042-.931.078-1.327.109-.247.019-.474.037-.673.054a18.86 18.86 0 00-.659.063 3.338 3.338 0 00-.283.044l-8.805 4.763 3.808 6.594 22.539-12.078a3.568 3.568 0 00-.589-.915zm-4.893-1.424c1.857-.724 4.163-.897 5.647.771l.001.001c.401.453.708.98.903 1.55a.504.504 0 01.026.159v.103a.495.495 0 01-.263.436l-23.325 12.499a.503.503 0 01-.674-.19l-4.304-7.453a.493.493 0 01.195-.68l9.307-5.035a.54.54 0 01.096-.04c.133-.039.309-.066.493-.088.192-.023.428-.045.695-.068l.692-.055c.391-.031.828-.065 1.311-.107l.013-.001a35.21 35.21 0 009.187-1.802zM40.262 54.623a.49.49 0 01.255.654 56.248 56.248 0 00-4.414 14.267c3.658-.458 12.672-1.777 15.194-2.217a.508.508 0 01.59.4.496.496 0 01-.41.574c-2.714.474-12.83 1.948-15.92 2.306l-.663.077.1-.642a57.21 57.21 0 014.597-15.171.513.513 0 01.671-.248z" fill="#000229"/></svg>.2658 49.6775 13.2618C50.2052 13.2537 50.7135 13.0387 51.113 12.6544C51.3108 12.4643 51.6095 12.4887 51.7802 12.709Z" fill="#000229"/>
<path fill-rule="evenodd" clip-rule="evenodd" d="M62.8454 14.3567C63.1182 14.4609 63.2388 14.7312 63.1148 14.9605C62.8648 15.4228 62.8463 16.0734 62.9574 16.8202C63.0345 17.339 63.163 17.8477 63.2834 18.3245C63.3359 18.5321 63.3867 18.7335 63.4312 18.9271L63.4339 18.9389L63.4358 18.9507C63.471 19.163 63.5132 19.4411 63.5236 19.727C63.5338 20.0078 63.5152 20.3294 63.4065 20.6193C63.2955 20.9154 63.0696 21.2265 62.6342 21.3811C62.2158 21.5298 61.7256 21.4893 61.2005 21.3301C60.9186 21.2447 60.7725 20.9834 60.8741 20.7465C60.9757 20.5096 61.2866 20.3868 61.5685 20.4722C61.9706 20.5941 62.1507 20.5628 62.2118 20.5411C62.2558 20.5255 62.3186 20.4866 62.3716 20.3452C62.4269 20.1978 62.4477 19.9944 62.439 19.7549C62.4307 19.525 62.3967 19.292 62.3631 19.0883C62.3262 18.9283 62.2811 18.7495 62.2327 18.558C62.1089 18.0672 61.9638 17.4923 61.8807 16.9333C61.7647 16.1531 61.7462 15.2873 62.127 14.5831C62.251 14.3538 62.5726 14.2524 62.8454 14.3567Z" fill="#000229"/>
<path fill-rule="evenodd" clip-rule="evenodd" d="M83.1521 95.6241C89.0208 99.0229 91.9498 103.983 92.6449 110.192L92.1495 110.248L92.6449 110.192C92.6449 110.192 92.6449 110.192 92.6449 110.192C92.8207 111.762 92.9488 113.725 93.0534 116.274L92.0571 116.316C91.953 113.775 91.826 111.84 91.6541 110.304C90.9927 104.396 88.235 99.726 82.655 96.4943C77.0408 93.2429 68.5377 91.4305 56.3691 91.3723L56.3739 90.3684C68.61 90.4269 77.3176 92.245 83.1521 95.6241Z" fill="#000229"/>
<path fill-rule="evenodd" clip-rule="evenodd" d="M93.1556 120.122C93.155 119.074 93.1143 118.093 93.0769 117.193C93.0644 116.891 93.0522 116.599 93.0421 116.316L92.1582 116.357C92.1688 116.652 92.1812 116.952 92.1939 117.259C92.2314 118.161 92.271 119.116 92.271 120.147V120.172L92.2732 120.197C92.3323 120.871 92.3327 121.573 92.3327 122.352V122.358L92.3329 122.365C92.4048 125.435 92.4871 129.103 92.5796 133.509V134.295L92.5797 134.302C92.5891 134.703 92.5986 135.109 92.6082 135.521C92.7254 140.553 92.8635 146.483 93.063 153.504V153.895H93.9477V153.488L93.9474 153.48C93.7478 146.458 93.6097 140.528 93.4925 135.494C93.4829 135.084 93.4735 134.68 93.4642 134.282V133.497L93.4641 133.491C93.3716 129.085 93.2893 125.416 93.2173 122.345V122.338C93.2173 121.583 93.2173 120.843 93.1556 120.122Z" fill="#000229"/>
<path fill-rule="evenodd" clip-rule="evenodd" d="M35.1454 79.7623C35.1815 79.5502 35.2151 79.3638 35.2421 79.2144C35.2729 79.0436 35.295 78.9211 35.3022 78.8634L34.2932 78.7368C34.2885 78.7746 34.2748 78.8501 34.2526 78.9717C34.227 79.1123 34.1901 79.3147 34.1428 79.5922L34.1423 79.5956C33.5386 83.2924 33.1966 87.0276 33.1189 90.773L33.1189 90.7739C33.0121 96.4317 33.5068 103.167 35.9173 108.622L35.9178 108.623C37.1779 111.454 38.9123 113.962 41.32 115.793C43.7327 117.629 46.7922 118.763 50.6596 118.891L50.6679 118.891H74.8852C74.932 119.057 74.9869 119.251 75.047 119.464C75.2339 120.126 75.4706 120.964 75.6663 121.641C75.6666 121.642 75.6668 121.643 75.6671 121.644L75.9039 122.502L75.9615 122.579C75.9544 122.569 75.9475 122.558 75.9419 122.545C75.9403 122.541 75.9389 122.537 75.9377 122.534H76.9475C76.9475 122.531 76.9475 122.528 76.9475 122.525C76.9478 122.452 76.9484 122.264 76.8383 122.065L76.6445 121.362L76.6436 121.359C76.4456 120.675 76.2166 119.864 76.0325 119.211C75.9166 118.801 75.8185 118.453 75.7571 118.24L75.6509 117.871H50.6847C47.0129 117.748 44.1633 116.676 41.9342 114.98C39.6984 113.279 38.0573 110.928 36.8463 108.207C34.5279 102.96 34.0295 96.407 34.1355 90.7937C34.2122 87.0972 34.5497 83.4109 35.1454 79.7623Z" fill="#000229"/>
<path fill-rule="evenodd" clip-rule="evenodd" d="M76.8835 122.202L76.6718 121.439L75.6914 121.71L75.9056 122.482L75.9069 122.486C76.8872 125.789 78.0675 129.938 79.2477 134.818L79.2486 134.821C80.6302 140.352 82.0823 146.825 83.3335 154.122L83.4059 154.544H94.4809V153.528H84.2635C83.0238 146.374 81.5955 140.02 80.2361 134.577C79.0511 129.678 77.8664 125.514 76.8835 122.202Z" fill="#000229"/>
<path fill-rule="evenodd" clip-rule="evenodd" d="M73.4234 90.3684L74.9813 90.3684C81.5981 90.3713 86.6161 90.611 90.5008 91.1773C94.386 91.7435 97.1709 92.6408 99.3003 93.9806C101.439 95.3263 102.877 97.0933 104.109 99.3266C105.148 101.211 106.055 103.454 107.11 106.068C107.296 106.526 107.485 106.996 107.681 107.477C107.998 108.215 109.515 112.132 111.365 116.905L111.782 117.981L111.782 117.982L117.211 132.064L116.262 132.421L110.834 118.339L110.833 118.339L110.438 117.317C108.57 112.497 107.05 108.573 106.745 107.864L106.743 107.86L106.742 107.855C106.542 107.366 106.35 106.89 106.163 106.429C105.105 103.811 104.226 101.634 103.218 99.8063C102.041 97.6742 100.709 96.0554 98.7551 94.8262C96.7922 93.5912 94.163 92.7245 90.3526 92.1691C86.5418 91.6136 81.5826 91.3739 74.9813 91.371C74.9812 91.371 74.9814 91.371 74.9813 91.371H73.4234L56.2544 91.4642L56.2516 91.4642H53.726L33.1107 91.5691L33.1055 90.5666L53.726 90.4617L56.2516 90.4617L73.4234 90.3684Z" fill="#000229"/>
<path fill-rule="evenodd" clip-rule="evenodd" d="M96.855 124.716C94.7196 121.3 92.9676 118.375 92.1582 116.751L93.0938 116.316C93.8784 117.889 95.6043 120.775 97.7437 124.197C99.6861 127.298 101.943 130.819 104.103 134.131C106.146 137.264 108.299 140.44 109.874 142.738L118.588 138.251L117.091 134.592L117.09 134.589C117.022 134.415 116.95 134.234 116.876 134.047C116.702 133.607 116.515 133.133 116.328 132.649L117.301 132.298C117.486 132.778 117.671 133.246 117.844 133.684C117.918 133.872 117.99 134.054 118.059 134.229L119.895 138.715L109.53 144.053L109.269 143.673C107.674 141.349 105.389 137.985 103.224 134.666C101.061 131.35 98.8013 127.823 96.8552 124.716L96.855 124.716Z" fill="#000229"/>
<path fill-rule="evenodd" clip-rule="evenodd" d="M55.8082 20.6086C56.0679 20.5126 56.3523 20.6567 56.4433 20.9303C56.5352 21.2064 56.6859 21.4567 56.8838 21.6619C57.0817 21.8672 57.3215 22.022 57.585 22.1146C57.8484 22.2071 58.1284 22.2348 58.4036 22.1957C58.6788 22.1566 58.9419 22.0516 59.1726 21.8888C59.4013 21.7275 59.7109 21.7921 59.864 22.033C60.0171 22.274 59.9559 22.6001 59.7272 22.7614C59.37 23.0134 58.9629 23.1759 58.5369 23.2364C58.111 23.297 57.6775 23.254 57.2698 23.1108C56.862 22.9676 56.4908 22.728 56.1845 22.4102C55.8783 22.0925 55.6451 21.7052 55.5028 21.2778C55.4117 21.0042 55.5484 20.7046 55.8082 20.6086Z" fill="#000229"/>
<path fill-rule="evenodd" clip-rule="evenodd" d="M103.665 36.5566C103.663 36.5746 103.662 36.6374 103.687 36.7765C103.71 36.9108 103.748 37.0738 103.796 37.2772C103.801 37.2978 103.806 37.3187 103.811 37.34C103.904 37.728 104.022 38.2209 104.093 38.7724C104.245 39.9449 104.192 41.4168 103.276 42.9026L103.271 42.9113L103.018 43.2863C102.862 43.5188 102.548 43.5796 102.316 43.4221C102.085 43.2646 102.025 42.9485 102.181 42.7161L102.422 42.3583C103.171 41.1395 103.223 39.9307 103.091 38.9036C103.026 38.4072 102.92 37.9612 102.826 37.5684C102.822 37.5502 102.817 37.5322 102.813 37.5143C102.766 37.3163 102.72 37.1222 102.691 36.9512C102.662 36.7883 102.639 36.597 102.663 36.418L102.664 36.413C102.742 35.8763 102.947 35.4163 103.309 35.14C103.695 34.8457 104.163 34.8326 104.578 35.014C105.355 35.3539 105.987 36.36 106.235 37.7404C106.483 39.0175 106.538 40.3251 106.396 41.6185C106.358 42.7825 105.942 43.9022 105.211 44.8063C104.526 45.6534 103.601 46.2672 102.561 46.5676C102.01 47.6637 99.4599 52.6573 96.4154 57.3955C94.7465 59.9926 92.9134 62.5379 91.1665 64.3227C90.2944 65.2137 89.4217 65.9383 88.5813 66.3798C87.7428 66.8203 86.8694 67.012 86.0519 66.7111L86.0506 66.7106C81.8428 65.1483 77.3252 61.7814 72.5904 57.8095C72.591 57.8423 72.5919 57.8766 72.593 57.9124C72.6179 58.6699 72.7589 59.8648 72.9889 61.3775C73.4474 64.3927 74.2457 68.5844 75.1116 72.861C75.9771 77.1354 76.9085 81.4862 77.6317 84.8166C77.9646 86.3494 78.2549 87.6727 78.4743 88.6725C78.7291 89.834 78.8881 90.559 78.9069 90.6687L79.0085 91.2632H74.7295C74.4503 91.2632 74.224 91.0356 74.224 90.7548C74.224 90.474 74.4503 90.2464 74.7295 90.2464H77.7839C77.7217 89.9611 77.6391 89.5842 77.5389 89.1278L77.5047 88.9719C77.2845 87.9685 76.9878 86.6163 76.6441 85.0336C75.9204 81.7012 74.9879 77.3451 74.1211 73.0639C73.2547 68.785 72.4521 64.5727 71.9897 61.5312C71.7592 60.0155 71.6097 58.7688 71.5827 57.946C71.5698 57.5539 71.5807 57.1862 71.6606 56.9314C71.694 56.8245 71.7896 56.5681 72.0629 56.4618C72.3733 56.3411 72.6256 56.513 72.727 56.5985C77.6556 60.7631 82.2261 64.2066 86.4004 65.7566C86.8435 65.9193 87.4048 65.8507 88.1133 65.4785C88.8205 65.107 89.6079 64.4658 90.4461 63.6093C92.1198 61.8993 93.9086 59.4234 95.5663 56.8435C98.8773 51.6909 101.603 46.2224 101.76 45.907L101.865 45.695L102.095 45.6399C103.012 45.4194 103.831 44.901 104.426 44.1649C105.021 43.4288 105.359 42.516 105.386 41.5677L105.387 41.5468L105.389 41.5259C105.522 40.3275 105.473 39.1156 105.242 37.9322L105.242 37.9284L105.241 37.9247C105.018 36.6824 104.499 36.088 104.175 35.9465C104.039 35.8869 103.968 35.913 103.92 35.9502C103.848 36.0051 103.722 36.1679 103.665 36.5566ZM72.6247 57.2369C72.6301 57.2197 72.6313 57.2224 72.6247 57.2369C72.6247 57.237 72.6248 57.2368 72.6247 57.2369Z" fill="#000229"/>
<path fill-rule="evenodd" clip-rule="evenodd" d="M100.727 41.2317C101.075 41.3949 101.207 41.7767 101.023 42.0844C100.9 42.2893 100.763 42.4874 100.613 42.6776C100.388 42.9632 99.9439 43.0332 99.6212 42.8339C99.2986 42.6346 99.2195 42.2415 99.4446 41.9559C99.5616 41.8075 99.6683 41.6529 99.7641 41.4931C99.9485 41.1854 100.38 41.0684 100.727 41.2317Z" fill="#000229"/>
<path fill-rule="evenodd" clip-rule="evenodd" d="M100.9 34.1267C101.185 34.0164 101.499 33.977 101.808 34.0129L101.814 34.0135L101.819 34.0142C102.655 34.1247 103.243 34.7583 103.634 35.4218C104.044 36.1174 104.339 37.0123 104.509 37.943C104.681 38.8775 104.733 39.8779 104.637 40.796C104.542 41.7035 104.297 42.5826 103.827 43.2347L103.821 43.2432L103.815 43.2515C103.696 43.4031 103.564 43.5455 103.419 43.6773C103.181 43.8929 102.79 43.8976 102.546 43.6876C102.302 43.4777 102.296 43.1327 102.534 42.9171C102.628 42.8316 102.715 42.7394 102.792 42.6415C103.108 42.1973 103.322 41.5179 103.408 40.6957C103.494 39.8789 103.448 38.9713 103.291 38.1174C103.134 37.2596 102.87 36.4857 102.539 35.9248C102.192 35.3365 101.861 35.1244 101.642 35.0928C101.556 35.0838 101.47 35.0954 101.392 35.1264L101.379 35.1314L101.366 35.1359C101.13 35.2182 101.024 35.3016 100.972 35.362C100.923 35.419 100.887 35.4964 100.876 35.6287C100.865 35.7702 100.885 35.9523 100.938 36.1968C100.976 36.3766 101.027 36.5654 101.083 36.7791C101.104 36.8582 101.126 36.9407 101.149 37.0274C101.479 38.2957 101.836 40.0618 100.467 42.1393C100.296 42.3994 99.9178 42.4875 99.6232 42.3362C99.3287 42.1848 99.2288 41.8512 99.4003 41.5911C100.528 39.8795 100.255 38.4584 99.9457 37.2714C99.9265 37.1975 99.9067 37.1229 99.8869 37.0482C99.8281 36.8267 99.7691 36.6046 99.7251 36.3999C99.6658 36.1241 99.6226 35.8336 99.645 35.5523C99.6681 35.2618 99.7624 34.9663 99.9899 34.7022C100.212 34.4442 100.524 34.2595 100.9 34.1267Z" fill="#000229"/>
<path fill-rule="evenodd" clip-rule="evenodd" d="M50.1227 35.5538C54.0615 34.713 58.1303 34.6763 62.0841 35.4463L62.0905 35.4475L62.5441 35.5481L62.5692 35.5565C63.0799 35.7275 63.5316 36.0397 63.8715 36.4568C64.126 36.7691 64.31 37.1306 64.4131 37.5165C64.4289 37.5185 64.4451 37.5205 64.4618 37.5226C64.7265 37.5554 65.1058 37.6046 65.5661 37.6696C66.486 37.7997 67.732 37.9939 69.0328 38.2503C70.3312 38.5062 71.6965 38.8264 72.8505 39.2106C73.4274 39.4027 73.9618 39.6142 74.413 39.8467C74.8575 40.0758 75.2556 40.3425 75.5276 40.6592L75.5282 40.6599C75.7559 40.926 75.9838 41.1925 76.2118 41.4589C80.1857 46.1047 84.1657 50.7575 87.248 54.0534C87.4198 53.9211 87.6537 53.7219 87.9377 53.4605C88.5688 52.8795 89.4179 52.0183 90.3288 50.9721C92.1575 48.872 94.1967 46.071 95.2428 43.3306L95.2453 43.3242L95.2479 43.3177C95.3218 43.1391 95.3863 42.9568 95.4411 42.7715L95.4443 42.7606L95.448 42.7499C95.6193 42.2542 95.9506 41.9849 96.2844 41.784C96.3969 41.7163 96.5238 41.6484 96.6436 41.5843C96.6879 41.5606 96.7313 41.5374 96.7727 41.5149C96.9351 41.4265 97.0968 41.3333 97.2615 41.2177C97.55 41.0152 97.7699 40.7634 97.8439 40.2908C97.9241 39.779 97.8394 38.9663 97.3597 37.6434C97.2617 37.3813 97.2431 37.0962 97.3063 36.8236C97.3698 36.5499 97.5129 36.3011 97.7177 36.1083C97.9224 35.9155 98.1796 35.7875 98.4571 35.7401C98.7321 35.6932 99.0148 35.7277 99.2702 35.8393C99.575 35.9658 99.8105 36.2284 99.9831 36.4712C100.167 36.73 100.33 37.039 100.466 37.3437C100.733 37.9401 100.931 38.5915 100.995 38.9615C101.245 40.0825 101.068 41.2561 100.498 42.2542C100.413 42.4177 100.319 42.576 100.215 42.7285C100.059 42.958 99.746 43.0178 99.516 42.862C99.286 42.7062 99.226 42.3938 99.3821 42.1643C99.4653 42.042 99.541 41.9149 99.6089 41.7837L100.056 42.0141L99.6193 41.7646C100.07 40.9786 100.21 40.0525 100.01 39.169L100.007 39.1551L100.005 39.1411C99.9605 38.8775 99.7914 38.2999 99.5468 37.7534C99.4257 37.4828 99.2941 37.2383 99.162 37.0525C99.02 36.8527 98.92 36.7817 98.8832 36.7668L98.8759 36.7638L98.8687 36.7606C98.7927 36.727 98.7085 36.7165 98.6267 36.7305C98.5448 36.7444 98.4689 36.7822 98.4085 36.8391C98.3481 36.896 98.3058 36.9694 98.2871 37.0502C98.2684 37.1309 98.274 37.2154 98.3032 37.293L98.3043 37.2958L98.3053 37.2987C98.8081 38.6845 98.9573 39.6876 98.8386 40.446C98.7136 41.2439 98.3013 41.7163 97.8406 42.0395C97.6307 42.1868 97.4311 42.3009 97.2547 42.3969C97.1972 42.4282 97.1445 42.4564 97.0954 42.4826C96.9858 42.5413 96.8938 42.5905 96.8043 42.6444C96.5743 42.7828 96.4663 42.8918 96.403 43.0682C96.3397 43.2807 96.2657 43.4898 96.1811 43.6947C95.0726 46.5948 92.9462 49.4979 91.0888 51.6311C90.156 52.7023 89.2813 53.5905 88.6203 54.1989C88.2913 54.5019 88.0076 54.7424 87.7919 54.9027C87.6871 54.9806 87.5815 55.0522 87.486 55.1013C87.4417 55.1241 87.3707 55.1574 87.2866 55.175C87.2357 55.1856 86.98 55.2341 86.7798 55.0242L86.7775 55.0218C83.6432 51.6942 79.5342 46.8906 75.4541 42.1206C75.2236 41.8511 74.9931 41.5817 74.763 41.3127C74.6135 41.1388 74.3469 40.9434 73.9511 40.7394C73.5618 40.5388 73.0798 40.3461 72.5318 40.1637C71.436 39.7988 70.1177 39.4882 68.8378 39.2359C67.5603 38.9841 66.3334 38.7928 65.4249 38.6644C64.971 38.6002 64.5973 38.5518 64.3375 38.5195C64.2076 38.5034 64.1062 38.4913 64.0375 38.4832C64.0146 38.4806 63.9954 38.4783 63.9799 38.4766L63.9595 38.4742L63.9399 38.472L63.934 38.4713L63.5368 38.4272L63.4896 38.0314C63.4485 37.6864 63.3101 37.3602 63.0904 37.0907C62.876 36.8276 62.5929 36.6291 62.2725 36.5171L61.8849 36.4311C58.0494 35.6851 54.102 35.7246 50.2823 36.5472L50.281 36.5412C49.7212 36.9173 49.3154 37.4837 49.1406 38.1367L49.0586 38.4433L48.746 38.501C45.5853 39.0852 42.7378 39.6648 40.3667 40.4012C37.9886 41.1397 36.1486 42.0191 34.9582 43.1683C34.4608 43.6558 33.8647 44.4927 33.2098 45.6266C32.5591 46.7534 31.8664 48.1449 31.1702 49.7169C29.778 52.8607 28.3818 56.7041 27.286 60.5511C26.1891 64.4019 25.3996 68.2344 25.2092 71.3618C25.1139 72.9263 25.1701 74.2927 25.4016 75.3875C25.6345 76.4889 26.0322 77.2572 26.5701 77.7025C27.1082 78.1485 28.0326 78.4593 29.3796 78.5759C30.7118 78.6911 32.3904 78.611 34.3693 78.3399C39.4321 77.5396 44.4138 76.293 49.2559 74.6148L49.1456 69.0434L49.1476 69.0182C49.2217 68.105 49.6144 67.2467 50.2574 66.5928C50.9003 65.9389 51.7528 65.5308 52.6663 65.4397C52.9429 65.4121 53.1896 65.6135 53.2172 65.8896C53.2449 66.1656 53.0431 66.4118 52.7664 66.4394C52.0875 66.5071 51.4538 66.8104 50.9759 67.2965C50.5037 67.7767 50.2131 68.4053 50.1531 69.075L50.2769 75.3252L49.6274 75.5496C44.7145 77.2551 39.6594 78.5212 34.5217 79.333L34.5166 79.3338L34.5115 79.3345C32.4892 79.6118 30.7279 79.7009 29.2927 79.5768C27.8713 79.4538 26.7002 79.1162 25.9273 78.4758C25.1423 77.8259 24.6723 76.8043 24.4166 75.595C24.1595 74.3792 24.1061 72.9142 24.2043 71.3008C24.4009 68.0723 25.2108 64.1623 26.3176 60.2764C27.4255 56.3869 28.8373 52.4995 30.2494 49.3108C30.9554 47.7165 31.664 46.2912 32.3376 45.1249C33.0066 43.9666 33.6575 43.0344 34.2543 42.45L34.2568 42.4476C35.6184 41.1324 37.641 40.1955 40.0675 39.4419C42.4251 38.7097 45.2199 38.1345 48.2651 37.5683C48.5551 36.7661 49.1089 36.0813 49.8409 35.629L49.9627 35.5538H50.1227ZM50.1761 36.0561V36.1693L50.2137 36.2299L50.1761 36.0561Z" fill="#000229"/>
<path fill-rule="evenodd" clip-rule="evenodd" d="M102.443 23.2644C102.71 23.2846 102.912 23.5457 102.894 23.8476L102.883 24.0388L102.882 24.0469L102.072 35.2861C102.05 35.5877 101.816 35.8123 101.55 35.7877C101.284 35.763 101.085 35.4986 101.107 35.1969L101.917 23.9618L101.928 23.7747C101.946 23.4727 102.177 23.2443 102.443 23.2644Z" fill="#000229"/>
<path fill-rule="evenodd" clip-rule="evenodd" d="M96.6355 43.2012L96.6385 43.2063C96.6416 43.2116 96.6469 43.2204 96.6543 43.2326C96.6691 43.2569 96.6925 43.2944 96.7242 43.343C96.7876 43.4404 96.8843 43.5818 97.0127 43.7509C97.2702 44.0898 97.6518 44.5345 98.146 44.9564C99.1334 45.7994 100.546 46.5336 102.324 46.1941C102.591 46.143 102.844 46.3538 102.888 46.6649C102.932 46.976 102.75 47.2697 102.483 47.3208C100.367 47.7247 98.6923 46.8392 97.565 45.8768C97.0017 45.3959 96.5692 44.8915 96.277 44.5068C96.1305 44.3141 96.0184 44.1502 95.9418 44.0327C95.9034 43.9739 95.8739 43.9265 95.8534 43.8929C95.8431 43.876 95.8351 43.8626 95.8293 43.8528L95.8224 43.841L95.8202 43.8372L95.8194 43.8358L95.8191 43.8353C95.8189 43.835 95.8188 43.8348 96.2273 43.5182L95.8188 43.8348C95.6684 43.5725 95.7294 43.2181 95.955 43.0432C96.1804 42.8684 96.485 42.9392 96.6355 43.2012Z" fill="#000229"/>
<path d="M64.8692 16.1052C64.9879 16.1052 65.1017 16.1524 65.1856 16.2363C65.2695 16.3202 65.3166 16.4339 65.3166 16.5526C65.3166 16.6712 65.2695 16.785 65.1856 16.8689C65.1017 16.9528 64.9879 17 64.8692 17C64.7506 17 64.6368 16.9528 64.5529 16.8689C64.469 16.785 64.4219 16.6712 64.4219 16.5526C64.4219 16.4339 64.469 16.3202 64.5529 16.2363C64.6368 16.1524 64.7506 16.1052 64.8692 16.1052Z" fill="#000229"/>
<path d="M59.5001 16.1052C59.5886 16.1052 59.6751 16.1315 59.7487 16.1806C59.8222 16.2298 59.8796 16.2996 59.9134 16.3814C59.9473 16.4631 59.9561 16.5531 59.9389 16.6399C59.9216 16.7267 59.879 16.8064 59.8164 16.8689C59.7539 16.9315 59.6742 16.9741 59.5874 16.9914C59.5006 17.0086 59.4106 16.9998 59.3289 16.9659C59.2472 16.932 59.1773 16.8747 59.1281 16.8011C59.079 16.7276 59.0527 16.6411 59.0527 16.5526C59.0527 16.4339 59.0999 16.3202 59.1838 16.2363C59.2677 16.1524 59.3815 16.1052 59.5001 16.1052Z" fill="#000229"/>
<path fill-rule="evenodd" clip-rule="evenodd" d="M83.2109 162.365C83.2109 162.134 83.4333 161.947 83.7077 161.947H110.451C110.725 161.947 110.948 162.134 110.948 162.365V164.213C110.948 164.444 110.725 164.631 110.451 164.631H83.7077C83.4333 164.631 83.2109 164.444 83.2109 164.213V162.365ZM84.2044 162.784V163.795H109.954V162.784H84.2044Z" fill="#000229"/>
<path fill-rule="evenodd" clip-rule="evenodd" d="M127.947 143.991L114.095 151.211L113.631 150.377L127.483 143.158L127.947 143.991Z" fill="white"/>
<path fill-rule="evenodd" clip-rule="evenodd" d="M137.296 137.805C137.429 137.84 137.542 137.932 137.607 138.06L138.626 140.059C138.752 140.308 138.664 140.618 138.428 140.752L115.379 153.833C115.143 153.967 114.848 153.875 114.72 153.627L113.783 151.811L113.695 151.649C113.609 151.491 113.61 151.296 113.697 151.138C113.755 151.032 113.846 150.954 113.952 150.914L136.893 137.886L136.908 137.876C137.022 137.795 137.163 137.77 137.296 137.805ZM136.981 138.999L114.784 151.605L115.344 152.69L137.538 140.093L136.981 138.999Z" fill="#000229"/>
<path fill-rule="evenodd" clip-rule="evenodd" d="M43.3152 98.4213C43.5964 98.4138 43.8307 98.6299 43.8384 98.9039C43.9766 103.8 40.7732 106.829 36.7366 108.24L36.7331 108.241L36.7331 108.241C35.1597 108.779 33.5136 109.087 31.8478 109.158C31.5668 109.169 31.329 108.957 31.3169 108.683C31.3047 108.409 31.5227 108.177 31.8038 108.166C33.369 108.1 34.9157 107.81 36.3943 107.305C40.1521 105.991 42.9424 103.271 42.82 98.9312C42.8122 98.6572 43.0339 98.4289 43.3152 98.4213Z" fill="#000229"/>
<path fill-rule="evenodd" clip-rule="evenodd" d="M136.106 137.055C135.051 135.87 133.305 135.878 131.572 136.556C131.565 136.559 131.557 136.561 131.55 136.564C128.497 137.601 125.317 138.226 122.095 138.421C121.614 138.463 121.164 138.499 120.768 138.53C120.521 138.549 120.294 138.567 120.095 138.584C119.83 138.606 119.61 138.626 119.436 138.647C119.299 138.664 119.207 138.679 119.153 138.691L110.348 143.454L114.156 150.048L136.695 137.97C136.547 137.638 136.349 137.329 136.106 137.055ZM131.213 135.631C133.07 134.907 135.376 134.734 136.86 136.402L136.861 136.403C137.262 136.856 137.569 137.383 137.764 137.953C137.781 138.004 137.79 138.058 137.79 138.112V138.215C137.79 138.397 137.689 138.564 137.527 138.651L114.202 151.15C113.963 151.279 113.663 151.195 113.528 150.96L109.224 143.507C109.157 143.391 109.141 143.254 109.177 143.126C109.214 142.999 109.301 142.891 109.419 142.827L118.726 137.792C118.756 137.776 118.789 137.762 118.822 137.752C118.955 137.713 119.131 137.686 119.315 137.664C119.507 137.641 119.743 137.619 120.01 137.596C120.222 137.579 120.453 137.561 120.702 137.541C121.093 137.51 121.53 137.476 122.013 137.434C122.017 137.433 122.022 137.433 122.026 137.433C125.157 137.244 128.247 136.637 131.213 135.631Z" fill="#000229"/>
<path fill-rule="evenodd" clip-rule="evenodd" d="M40.2621 54.6226C40.5177 54.7349 40.6316 55.0279 40.5165 55.2771C38.4145 59.8261 36.9312 64.6223 36.1035 69.5439C39.7608 69.0861 48.7747 67.7674 51.2973 67.3271C51.5733 67.2789 51.8371 67.458 51.8865 67.727C51.9359 67.9961 51.7522 68.2532 51.4763 68.3014C48.7631 68.7749 38.6478 70.2495 35.5566 70.6075L34.8945 70.6841L34.9949 70.0415C35.8128 64.8045 37.359 59.7006 39.5908 54.8706C39.7059 54.6214 40.0065 54.5104 40.2621 54.6226Z" fill="#000229"/>
</svg>
