<svg width="72" height="170" viewBox="0 0 72 170" fill="none" xmlns="http://www.w3.org/2000/svg"><path d="M65.292 24.229a5.27 5.27 0 01-.431 2.048c-.472 1.025-2.277 3.964-2.277 3.964l-1.846 3.227a.482.482 0 01-.84 0l-1.857-3.227s-1.795-2.919-2.266-3.964a5.31 5.31 0 01-.431-2.048c0-1.318.524-2.581 1.457-3.513a4.977 4.977 0 017.034 0 4.965 4.965 0 011.457 3.513zm-3.077-.44a1.883 1.883 0 00-2.23-1.864 1.887 1.887 0 00-1.416 2.537 1.886 1.886 0 001.708 1.2 1.879 1.879 0 001.917-1.874h.021z" fill="#000229"/><path d="M33.019 31.666c.81.153 1.323 1.505 1.271 2.192 0 0 6.154.071 8.276 1.29 0 0 2.913 2.766 6.533 11.462l-3.179-1.126H34.3l-5.681 16.84h-.082c-1.6-1.312-4.338.163-4.595 1.69 0 .123-.697 0-1.753-.236v.102c-3.262 2.182-1.652 6.341-1.652 6.341v.246a58.737 58.737 0 01-12.768-2.51c-4.215-1.485-6.153-3.4-7.107-5.736-1.446-3.36 4.482-24.143 10.04-27.021 2.113-1.097 9.23-1.496 10.164-1.537a3.216 3.216 0 011.24-1.874.792.792 0 01.226-.052c3.54-.546 7.14-.57 10.687-.071zm11.157 131.82c2.144.245 4.174 1.444 3.692 4.169H31.295c.492-2.735-1.538-3.934-3.692-4.18a20.384 20.384 0 01-3.22-.624v-2.869h9.127c.852.144 6.195 2.971 10.666 3.504z" fill="#CAD7E4"/><path d="M46.688 88.075l-40.366.092c.062-6.76.545-13.51 1.446-20.21a58.736 58.736 0 0012.707 2.49l1.18.122c.89.418 1.8.791 2.727 1.117.38.081.75.143 1.098.184l-2.205 6.545 12.666-1.27 10.255 3.37c.287 4.302.43 6.638.492 7.56z" fill="#CAD7E4"/><path d="M34.382 14.53a.43.43 0 100-.862.43.43 0 000 .861z" fill="#000229"/><path d="M27.573 163.486c2.153.245 4.184 1.444 3.692 4.179H7.595c0-.717 0-3.493-.062-7.683h9.405c.625.144 3.928 1.844 7.445 2.858 1.044.3 2.111.516 3.19.646z" fill="#CAD7E4"/><path d="M29.06 14.53a.43.43 0 100-.862.43.43 0 000 .861z" fill="#000229"/><path fill-rule="evenodd" clip-rule="evenodd" d="M32.963 32.171a36.163 36.163 0 00-10.651.014 2.769 2.769 0 00-1.017 1.577l-.86-.198c.199-.857.7-1.614 1.411-2.132a.442.442 0 01.1-.054 1.23 1.23 0 01.335-.079 37.047 37.047 0 0110.822.002l-.064.436.082-.433c.614.117 1.03.654 1.27 1.131.17.335.29.715.339 1.063l.594.021a46.77 46.77 0 012.37.16c.91.086 1.895.21 2.792.393.886.18 1.726.425 2.32.766.03.017.059.038.084.063l-.303.319.304-.32v.001l.001.001.003.003.009.008.03.03.107.112c.092.099.226.247.396.45a22.3 22.3 0 011.426 1.941c1.197 1.803 2.842 4.692 4.66 9.059l.058.126-.8.369-.062-.133-.007-.016c-1.8-4.325-3.42-7.165-4.584-8.918a21.403 21.403 0 00-1.369-1.863 9.714 9.714 0 00-.44-.496c-.469-.256-1.174-.469-2.01-.639a26.34 26.34 0 00-2.698-.38 45.667 45.667 0 00-3.239-.184l-.05-.001h-.017a.442.442 0 01-.434-.474c.018-.242-.07-.672-.268-1.065-.203-.404-.445-.619-.64-.66z" fill="#000229"/><path fill-rule="evenodd" clip-rule="evenodd" d="M21.234 33.848v.02h-.004a.157.157 0 00.004-.026v.006zm-.194.02h.19l-.001.005a.258.258 0 01-.078.125l-.11-.13zm0 0h-.688v-.01a.66.66 0 01.226-.53l.462.54zm2.837 118.578c-.057-4.727-.13-10.745-.191-17.33l.881-.009c.062 6.564.135 12.607.192 17.347.038 3.136.07 5.703.085 7.473v2.739h-.882v-2.733c-.016-1.789-.047-4.354-.085-7.487zM8.21 67.609v.348c0 .02 0 .04-.003.059-.88 6.541-1.36 13.13-1.438 19.73l39.45-.09c-.074-1.153-.22-3.402-.502-7.138l.88-.067c.289 3.82.435 6.089.507 7.219l.026.397a.44.44 0 01-.44.469l-40.365.092a.442.442 0 01-.442-.444c.06-6.776.543-13.54 1.446-20.256v-.32h.882zm5.711 23.672a.44.44 0 01.453.428c.065 2.327-.712 4.207-2.015 5.639-1.297 1.425-3.095 2.387-5.056 2.931a14.812 14.812 0 01-3.288.518.441.441 0 01-.039-.88 13.936 13.936 0 003.092-.487c1.843-.511 3.48-1.403 4.638-2.675 1.15-1.264 1.845-2.923 1.787-5.021a.44.44 0 01.428-.453z" fill="#000229"/><path fill-rule="evenodd" clip-rule="evenodd" d="M7.288 87.962a.44.44 0 01.43.452c-.092 3.568-.092 7.424-.092 11.44v.002c-.085 19.553.164 42.855.31 56.459l.038 3.61c.062 4.192.062 6.97.062 7.688a.441.441 0 01-.882 0c0-.716 0-3.49-.062-7.676v-.002l-.038-3.61c-.146-13.604-.395-36.912-.31-56.472v-.003c0-4.012 0-7.879.092-11.459a.44.44 0 01.452-.429z" fill="#000229"/><path fill-rule="evenodd" clip-rule="evenodd" d="M7.918 167.335a.441.441 0 00-.763.264 1.333 1.333 0 000 .213.44.44 0 00.441.406l23.66-.113a.44.44 0 10-.004-.881l-23.334.111z" fill="#000229"/><path fill-rule="evenodd" clip-rule="evenodd" d="M29.868 96.454a.44.44 0 01.422.46 182.833 182.833 0 01-5.777 38.296c-2.14 8.617-4.618 16.841-7.01 24.453.16.064.345.143.542.228l.495.215c.356.156.76.332 1.208.522 1.337.567 3.023 1.238 4.757 1.737l.005.002c1.019.306 2.061.53 3.116.671 1.129.129 2.278.512 3.087 1.272.833.783 1.255 1.921.985 3.422a.44.44 0 11-.868-.156c.222-1.234-.124-2.063-.722-2.624-.62-.584-1.562-.923-2.586-1.039l-.008-.001a20.928 20.928 0 01-3.256-.701c-1.783-.514-3.506-1.2-4.855-1.772a154.036 154.036 0 01-1.708-.739c-.472-.204-.75-.315-.857-.34a.44.44 0 01-.295-.626l.035-.071c2.416-7.681 4.922-15.977 7.08-24.668v-.005a181.952 181.952 0 005.75-38.115.44.44 0 01.46-.421z" fill="#000229"/><path fill-rule="evenodd" clip-rule="evenodd" d="M46.32 88.137a.44.44 0 01.431.45c-.643 28.114-6.755 52.298-12.65 71.068.043.016.086.034.13.052.24.098.538.228.88.377l.091.04c.673.293 1.516.662 2.464 1.04 1.987.792 4.396 1.614 6.582 1.874 1.125.129 2.273.512 3.082 1.271.833.781 1.259 1.915.994 3.412a.442.442 0 01-.434.364H31.06a.44.44 0 110-.881h16.445c.094-1.031-.242-1.749-.779-2.253-.621-.582-1.56-.921-2.579-1.038h-.001c-2.306-.274-4.803-1.132-6.808-1.931a85.788 85.788 0 01-2.488-1.05l-.092-.041c-.344-.15-.633-.275-.862-.369a3.801 3.801 0 00-.44-.161.442.442 0 01-.324-.562c5.921-18.787 12.093-43.029 12.737-71.232a.44.44 0 01.451-.43zM25.75 2.476a9.57 9.57 0 00-1.813 4.45l-.002.014-.002.014a43.261 43.261 0 00-.405 2.502l-.053.372a.441.441 0 01-.873-.124l.052-.367c.109-.77.233-1.653.411-2.542a10.452 10.452 0 011.99-4.862l.011-.016.014-.015C26.339.502 27.7.012 29.067.235c1.328.217 2.574 1.095 3.672 2.228a15.993 15.993 0 011.728 2.105c1.56 2.23 2.76 4.69 3.556 7.292l.003.01.003.01c.255 1.002.085 2.258-.287 3.536-.375 1.292-.975 2.668-1.643 3.94a26.236 26.236 0 01-2.088 3.36c-.336.45-.66.84-.951 1.138-.278.285-.57.532-.843.64a3.256 3.256 0 01-.604.178h-.003c-1.205.223-2.519-.204-3.618-.888-1.103-.687-2.066-1.68-2.56-2.702a.44.44 0 11.793-.384c.408.842 1.24 1.72 2.234 2.338.997.621 2.083.937 2.99.77a2.37 2.37 0 00.44-.129h.002c.088-.035.269-.163.537-.438.256-.261.553-.617.875-1.05a25.354 25.354 0 002.015-3.242c.65-1.238 1.223-2.557 1.577-3.776.357-1.227.474-2.294.282-3.064a25.157 25.157 0 00-3.434-7.036l-.002-.003a15.106 15.106 0 00-1.634-1.99l-.001-.002c-1.046-1.079-2.128-1.8-3.181-1.971-1.01-.165-2.08.16-3.176 1.37zm-3.029 24.259c.026 1.636.051 3.294.051 5.002v.144h-.882v-.144c0-1.678-.025-3.32-.05-4.947-.064-4.15-.126-8.203.236-12.503l.88.074c-.36 4.254-.298 8.24-.235 12.374z" fill="#000229"/><path fill-rule="evenodd" clip-rule="evenodd" d="M31.092 24.375l-.06-.244.855-.213.062.249c.275 1.138.492 2.26.719 3.458l.07.366c.206 1.095.426 2.262.711 3.582l-.862.185c-.287-1.331-.51-2.51-.716-3.603l-.07-.366c-.226-1.198-.44-2.3-.709-3.414zM21.24 8.948c.654-.222 1.36-.052 2.045.534l.002.002.002.002c.37.326.694.702.961 1.117a.44.44 0 11-.741.476 4.472 4.472 0 00-.8-.93c-.51-.436-.899-.464-1.186-.367-.323.11-.644.42-.905.896a4.026 4.026 0 00-.463 1.553c-.043.522.043.91.185 1.111a1.816 1.816 0 001.963.418l.025-.01.027-.007c.16-.04.314-.102.457-.182a.441.441 0 01.432.768 2.76 2.76 0 01-.644.261 2.7 2.7 0 01-2.917-.66l-.016-.016-.015-.02c-.347-.454-.427-1.117-.376-1.735.052-.637.25-1.325.568-1.905.314-.571.778-1.097 1.396-1.306zM40.41.004c.59.028 1.197.199 1.473.743.202.396.204.8.044 1.175-.151.353-.436.654-.762.909-.654.509-1.616.939-2.587 1.286-1.949.698-4.119 1.124-4.446 1.16l-.094-.877c.247-.026 2.348-.434 4.243-1.112.95-.34 1.803-.733 2.341-1.152.27-.21.425-.4.494-.56a.465.465 0 00-.02-.43v-.002c-.049-.095-.211-.235-.727-.26-.491-.023-1.164.07-1.982.265-1.629.389-3.713 1.153-5.815 2.027-3.463 1.428-6.925 3.125-8.377 3.837l-.512.25-.003.001-.157.073-.373-.798.152-.07.5-.245c1.446-.709 4.94-2.421 8.432-3.862 2.113-.878 4.249-1.664 5.948-2.07.846-.202 1.614-.316 2.228-.288zm-6.185 10.814c-.346.077-.642.308-.747.529a.441.441 0 01-.797-.377c.245-.517.8-.89 1.353-1.012.57-.127 1.267-.007 1.667.642a.44.44 0 11-.75.462c-.144-.232-.397-.317-.726-.244zm-5.855.686a3.214 3.214 0 011.494.196.44.44 0 11-.317.822 2.332 2.332 0 00-2.113.224.441.441 0 01-.483-.737 3.214 3.214 0 011.42-.505zm1.014 9.388a.441.441 0 01.607-.14c.306.19.77.424 1.215.522.46.1.755.032.922-.166a.442.442 0 01.674.567c-.489.58-1.22.584-1.786.46-.58-.128-1.141-.417-1.492-.636a.44.44 0 01-.14-.607z" fill="#000229"/><path fill-rule="evenodd" clip-rule="evenodd" d="M22.873 11.364a.44.44 0 01-.03.622 2.935 2.935 0 01-1.883.76.44.44 0 11-.027-.88 2.053 2.053 0 001.317-.532c.18-.163.46-.15.623.03zm9.657.707a.44.44 0 01.415.466 12.76 12.76 0 00.387 3.96l.005.023.004.023c.064.43.163 1.173.009 1.746-.08.298-.25.626-.602.8-.347.173-.76.14-1.194-.018a.44.44 0 11.302-.828c.324.118.458.078.499.058.036-.018.097-.07.143-.242.098-.36.041-.907-.026-1.363a13.637 13.637 0 01-.407-4.211.44.44 0 01.466-.414zM24.557 159.49h9.373v.882h-9.373v-.882zm-16.983 0h9.374v.882H7.574v-.882zm-.42 8.123a.44.44 0 01.441-.44h23.66a.44.44 0 01.441.44v1.947a.44.44 0 01-.441.44H7.595a.44.44 0 01-.44-.44v-1.947zm.882.441v1.065h22.778v-1.065H8.036z" fill="#000229"/><path fill-rule="evenodd" clip-rule="evenodd" d="M30.854 167.613a.44.44 0 01.44-.44h16.574a.44.44 0 01.44.44v1.947a.44.44 0 01-.44.44H31.294a.44.44 0 01-.44-.44v-1.947zm.881.441v1.065h15.692v-1.065H31.735zm2.147-122.711c.06-.18.23-.3.418-.3h11.64c.05 0 .1.009.148.026l3.2 1.137 7.156 2.55 10.34-2.106a.441.441 0 01.5.588l-6.102 16.01-1.333 3.494-.824-.314 1.333-3.493 5.817-15.262-9.675 1.97a.442.442 0 01-.237-.016l-7.271-2.592-3.128-1.11H34.617l-6.605 19.57-.001.001-.02.06-.837-.278.02-.062.001-.001 1.026-3.033 5.681-16.839zM25.02 71.679l.083-.245.836.278-.082.246v.001l-1.987 5.909 11.985-1.212a.441.441 0 01.183.02l10.138 3.331 8.41-1.947 2.357-6.163.823.315-2.44 6.381a.44.44 0 01-.313.272l-8.758 2.028a.441.441 0 01-.238-.01l-10.166-3.341-12.573 1.27a.441.441 0 01-.462-.578l2.205-6.554v-.001z" fill="#000229"/><path fill-rule="evenodd" clip-rule="evenodd" d="M27.665 65.79a2.588 2.588 0 01-2.08-.52.44.44 0 11.55-.69 1.703 1.703 0 001.397.34c.384-.055.79-.188 1.21-.353a22.083 22.083 0 00.666-.279c.19-.082.382-.164.566-.238.386-.154.797-.295 1.174-.31.196-.008.402.017.598.107.2.091.364.239.487.434l.002.003c.2.322.175.673.08.968-.093.288-.27.572-.46.827a.482.482 0 01-.02.026c-.623.718-1.702 1.404-2.9 1.76-1.201.359-2.592.405-3.8-.26a.44.44 0 11.425-.771c.935.513 2.062.503 3.123.188 1.055-.315 1.976-.913 2.474-1.482.163-.22.27-.409.319-.56.047-.146.025-.205.01-.232a.246.246 0 00-.107-.1.43.43 0 00-.196-.028c-.211.008-.499.095-.881.248-.173.07-.354.147-.547.23l-.041.018a23.33 23.33 0 01-.647.27c-.44.174-.919.335-1.402.404z" fill="#000229"/><path fill-rule="evenodd" clip-rule="evenodd" d="M31.268 65.61a.441.441 0 01.613-.117c.332.225.569.491.697.8.129.31.13.625.059.914-.139.553-.553 1.041-.93 1.39l-.008.008a7.904 7.904 0 01-.538.43 6.404 6.404 0 01-6.283.92.44.44 0 11.322-.82 5.524 5.524 0 005.434-.806 7.02 7.02 0 00.477-.38c.34-.316.595-.657.67-.955a.56.56 0 00-.018-.364c-.047-.112-.15-.254-.378-.408a.44.44 0 01-.117-.612z" fill="#000229"/><path fill-rule="evenodd" clip-rule="evenodd" d="M20.846 33.223h.111v.88h-.082c-.478.022-2.467.131-4.6.37-1.074.12-2.178.273-3.14.462-.975.191-1.762.412-2.23.655-.62.321-1.275.91-1.947 1.737-.67.823-1.337 1.86-1.986 3.047-1.299 2.376-2.506 5.323-3.499 8.295-.992 2.971-1.765 5.953-2.2 8.394-.218 1.222-.349 2.299-.382 3.167-.035.888.037 1.494.176 1.817l.003.008c.892 2.185 2.71 4.028 6.839 5.484a58.296 58.296 0 0012.605 2.51h.007l1.18.123c.045.005.09.017.131.035.858.377 1.734.711 2.625 1.002.077.016.15.033.22.049.298.067.534.12.762.12.02 0 .04.002.06.004 4.377.607 5.96-1.702 6.173-2.18.097-.219.058-.36.024-.416a.127.127 0 00-.06-.054.204.204 0 00-.121-.005l-.173-.864c.455-.09.876.091 1.104.459.219.354.221.811.032 1.238-.361.81-2.3 3.349-7.07 2.699-.329-.005-.674-.084-.97-.151a15.729 15.729 0 00-.233-.055 29.338 29.338 0 01-2.664-1.012l-1.108-.115a59.173 59.173 0 01-12.805-2.552l-.006-.001c-4.294-1.514-6.352-3.5-7.367-5.982-.221-.517-.28-1.294-.246-2.195.036-.922.174-2.042.396-3.287.443-2.49 1.228-5.514 2.232-8.519 1.003-3.003 2.23-6.002 3.56-8.438.666-1.218 1.363-2.303 2.076-3.18.71-.874 1.455-1.565 2.226-1.963m10.347-1.586a78.74 78.74 0 00-4.67.375l4.67-.375zm-4.67.375a40.7 40.7 0 00-3.211.473l3.212-.473zm-3.211.473c-.983.193-1.878.432-2.466.737l2.466-.737zm45.28 31.943c.503.162.855.208 1.073.147h.001a.4.4 0 00.176-.103.441.441 0 01.623.623c-.156.156-.35.269-.562.328-.494.138-1.072.008-1.582-.157-.362-.117-.754-.275-1.124-.424-.162-.065-.32-.129-.47-.187-.525-.202-.949-.335-1.257-.344a.502.502 0 00-.271.049c-.036.02-.083.063-.122.177v.003l.002.018c.005.02.02.058.057.112.076.11.222.247.444.387l.008.005a7.442 7.442 0 004.84 1.209.44.44 0 11.086.877 8.325 8.325 0 01-5.41-1.35c-.28-.176-.527-.387-.693-.626-.168-.242-.281-.56-.175-.899l.002-.006c.094-.286.262-.516.507-.663a1.37 1.37 0 01.75-.173c.48.013 1.037.205 1.55.403.176.068.349.138.519.206.355.143.696.28 1.029.388z" fill="#000229"/><path fill-rule="evenodd" clip-rule="evenodd" d="M55.415 66.938a.44.44 0 01-.28.556c-.283.094-.416.194-.474.262a.19.19 0 00-.05.16.747.747 0 00.141.32c.092.133.22.271.368.402.176.15.367.279.57.387 1.26.55 2.617.849 3.992.879a.44.44 0 11-.019.88 11.426 11.426 0 01-4.37-.972 4.08 4.08 0 01-.747-.505l-.005-.005a3.144 3.144 0 01-.516-.568 1.605 1.605 0 01-.292-.725c-.03-.287.045-.576.257-.825.2-.234.499-.404.867-.526a.441.441 0 01.558.28z" fill="#000229"/><path fill-rule="evenodd" clip-rule="evenodd" d="M60.583 62.932c.14-.2.414-.248.614-.11a7.836 7.836 0 011.549 1.422c.384.52.687 1.094.9 1.705a4.727 4.727 0 01-.005 3.546 5.02 5.02 0 01-4.16 3.11l-.008.001a5.923 5.923 0 01-2.2-.238 6.596 6.596 0 01-3.379-1.939.44.44 0 01-.089-.143c-.16-.418-.152-.861.01-1.208a.999.999 0 01.398-.445.863.863 0 01.64-.09.44.44 0 11-.204.857.183.183 0 00-.035.054.656.656 0 00-.01.443 5.713 5.713 0 002.912 1.624 5.04 5.04 0 001.882.208 4.144 4.144 0 003.425-2.564 3.847 3.847 0 00-.008-2.918 5.516 5.516 0 00-.77-1.47 6.946 6.946 0 00-1.352-1.231.44.44 0 01-.11-.614zM14.737 44.528a.44.44 0 01.162.601l-.035-.02.035.02-.003.007-.013.022a17.834 17.834 0 00-.24.43 58.98 58.98 0 00-.662 1.242 54.665 54.665 0 00-1.864 3.96c-.63 1.506-1.185 3.082-1.45 4.445-.133.682-.19 1.295-.156 1.811.035.518.16.906.36 1.172l.002.003c.35.477 1.014.995 1.916 1.524.891.522 1.973 1.03 3.116 1.497 2.284.935 4.773 1.696 6.383 2.086a18.91 18.91 0 001.306.255c.29-.825 1.094-1.527 1.966-1.904 1.005-.433 2.283-.515 3.256.283a.44.44 0 11-.56.681c-.625-.513-1.517-.513-2.346-.155-.835.36-1.426 1.006-1.53 1.56a.483.483 0 01-.315.392.733.733 0 01-.237.041 2.695 2.695 0 01-.43-.036c-.325-.047-.777-.14-1.306-.258l-.008-.002c-1.65-.399-4.184-1.174-6.514-2.128-1.165-.477-2.288-1.002-3.227-1.553-.928-.543-1.72-1.135-2.18-1.76-.337-.45-.491-1.024-.532-1.64-.041-.618.029-1.312.17-2.037.282-1.45.863-3.088 1.502-4.617a55.558 55.558 0 011.895-4.025 58.056 58.056 0 01.918-1.702l.014-.024.004-.008.383.219-.383-.22a.442.442 0 01.603-.162zm8.773 19.375a.441.441 0 00-.003.017l.003-.017zm.301-.303zm22.193-17.9a.44.44 0 01.284.554L36.32 77.229a.441.441 0 01-.84-.27l9.969-30.975a.441.441 0 01.555-.285zm10.545 3.094a.44.44 0 01.282.556L46.575 80.602a.441.441 0 01-.838-.275l10.255-31.252a.441.441 0 01.557-.281zM69.88 16.91a1.848 1.848 0 00-.752-.097H51.485a1.85 1.85 0 00-1.772 1.057 1.842 1.842 0 00-.173.694v15.679a1.843 1.843 0 001.97 1.714h12.45a.44.44 0 110 .881H51.52a2.73 2.73 0 01-2.863-2.581V18.535a2.724 2.724 0 012.863-2.603h17.594a2.731 2.731 0 012.626 1.557 2.723 2.723 0 01.26 1.066v15.728a2.714 2.714 0 01-2.853 2.556H66.74a.44.44 0 110-.88h2.445a1.837 1.837 0 001.934-1.714v-15.68a1.844 1.844 0 00-1.238-1.654z" fill="#000229"/><path fill-rule="evenodd" clip-rule="evenodd" d="M64.062 33.786a.44.44 0 01.441.44h-.882a.44.44 0 01.441-.44zm.441 2.61v-2.17h-.882v2.176c.01 1.06.049 2.332.187 3.269.067.454.165.894.332 1.188.082.145.224.332.46.406.266.083.502-.018.666-.145.272-.21.488-.539.664-.884.18-.354.34-.771.479-1.204.278-.865.49-1.832.63-2.573v-.002a37.508 37.508 0 00.205-1.233l.002-.018.001-.007a.44.44 0 00-.873-.122v.005l-.003.017a10.631 10.631 0 01-.049.318c-.034.215-.084.521-.15.88-.137.725-.34 1.651-.603 2.466a7.487 7.487 0 01-.425 1.074 2.442 2.442 0 01-.293.462 3.97 3.97 0 01-.17-.756c-.129-.87-.168-2.087-.178-3.147zM22.524 63.615a.44.44 0 01-.121.61c-1.47.984-1.848 2.404-1.853 3.625a6.808 6.808 0 00.365 2.185l.003.006m0 0a.44.44 0 11-.823.318l.411-.159a47.54 47.54 0 01-.411.159v-.002l-.002-.004-.005-.012-.015-.04a7.289 7.289 0 01-.197-.683 7.684 7.684 0 01-.208-1.772c.006-1.404.452-3.154 2.244-4.352a.441.441 0 01.612.12m-4.118 97.387c-.56-.24-.994-.427-1.283-.534l.305-.826c.314.115.776.314 1.334.554l.342.147c.719.308 1.58.673 2.522 1.034 1.89.726 4.078 1.432 6.068 1.661 1.137.13 2.263.512 3.051 1.319.805.823 1.196 2.024.977 3.644l-.874-.118c.19-1.412-.157-2.321-.734-2.911-.593-.607-1.492-.942-2.52-1.058-2.103-.242-4.375-.981-6.285-1.714a71.981 71.981 0 01-2.553-1.047l-.35-.151z" fill="#000229"/></svg>