<svg width="72" height="170" viewBox="0 0 72 170" fill="none" xmlns="http://www.w3.org/2000/svg"><path d="M65.292 24.229a5.27 5.27 0 01-.431 2.048c-.472 1.025-2.277 3.964-2.277 3.964l-1.846 3.227a.482.482 0 01-.84 0l-1.857-3.227s-1.795-2.919-2.266-3.964a5.31 5.31 0 01-.431-2.048c0-1.318.524-2.581 1.457-3.513a4.977 4.977 0 017.034 0 4.965 4.965 0 011.457 3.513zm-3.077-.44a1.883 1.883 0 00-2.23-1.864 1.887 1.887 0 00-1.416 2.537 1.886 1.886 0 001.708 1.2 1.879 1.879 0 001.917-1.874h.021z" fill="#000229"/><path d="M33.019 31.666c.81.153 1.323 1.505 1.271 2.192 0 0 6.154.071 8.276 1.29 0 0 2.913 2.766 6.533 11.462l-3.179-1.126H34.3l-5.681 16.84h-.082c-1.6-1.312-4.338.163-4.595 1.69 0 .123-.697 0-1.753-.236v.102c-3.262 2.182-1.652 6.341-1.652 6.341v.246a58.737 58.737 0 01-12.768-2.51c-4.215-1.485-6.153-3.4-7.107-5.736-1.446-3.36 4.482-24.143 10.04-27.021 2.113-1.097 9.23-1.496 10.164-1.537a3.216 3.216 0 011.24-1.874.792.792 0 01.226-.052c3.54-.546 7.14-.57 10.687-.071zm11.157 131.82c2.144.245 4.174 1.444 3.692 4.169H31.295c.492-2.735-1.538-3.934-3.692-4.18a20.384 20.384 0 01-3.22-.624v-2.869h9.127c.852.144 6.195 2.971 10.666 3.504z" fill="#CAD7E4"/><path d="M46.688 88.075l-40.366.092c.062-6.76.545-13.51 1.446-20.21a58.736 58.736 0 0012.707 2.49l1.18.122c.89.418 1.8.791 2.727 1.117.38.081.75.143 1.098.184l-2.205 6.545 12.666-1.27 10.255 3.37c.287 4.302.43 6.638.492 7.56z" fill="#CAD7E4"/><path d="M34.382 14.53a.43.43 0 100-.862.43.43 0 000 .861z" fill="#000229"/><path d="M27.573 163.486c2.153.245 4.184 1.444 3.692 4.179H7.595c0-.717 0-3.493-.062-7.683h9.405c.625.144 3.928 1.844 7.445 2.858 1.044.3 2.111.516 3.19.646z" fill="#CAD7E4"/><path d="M29.06 14.53a.43.43 0 100-.862.43.43 0 000 .861z" fill="#000229"/><path fill-rule="evenodd" clip-rule="evenodd" d="M32.963 32.171a36.163 36.163 0 00-10.651.014 2.769 2.769 0 00-1.017 1.577l-.86-.198c.199-.857.7-1.614 1.411-2.132a.442.442 0 01.1-.054 1.23 1.23 0 01.335-.079 37.047 37.047 0 0110.822.002l-.064.436.082-.433c.614.117 1.03.654 1.27 1.131.17.335.29.715.339 1.063l.594.021a46.77 46.77 0 012.37.16c.91.086 1.895.21 2.792.393.886.18 1.726.425 2.32.766.03.017.059.038.084.063l-.303.319.304-.32v.001l.001.001.003.003.009.008.03.03.107.112c.092.099.226.247.396.45a22.3 22.3 0 011.426 1.941c1.197 1.803 2.842 4.692 4.66 9.059l.058.126-.8.369-.062-.133-.007-.016c-1.8-4.325-3.42-7.165-4.584-8.918a21.403 21.403 0 00-1.369-1.863 9.714 9.714 0 00-.44-.496c-.469-.256-1.174-.469-2.01-.639a26.34 26.34 0 00-2.698-.38 45.667 45.667 0 00-3.239-.184l-.05-.001h-.017a.442.442 0 01-.434-.474c.018-.242-.07-.672-.268-1.065-.203-.404-.445-.619-.64-.66z" fill="#000229"/><path fill-rule="evenodd" clip-rule="evenodd" d="M21.234 33.848v.02h-.004a.157.157 0 00.004-.026v.006zm-.194.02h.19l-.001.005a.258.258 0 01-.078.125l-.11-.13zm0 0h-.688v-.01a.66.66 0 01.226-.53l.462.54zm2.837 118.578c-.057-4.727-.13-10.745-.191-17.33l.881-.009c.062 6.564.135 12.607.192 17.347.038 3.136.07 5.703.085 7.473v2.739h-.882v-2.733c-.016-1.789-.047-4.354-.085-7.487zM8.21 67.609v.348c0 .02 0 .04-.003.059-.88 6.541-1.36 13.13-1.438 19.73l39.45-.09c-.074-1.153-.22-3.402-.502-7.138l.88-.067c.289 3.82.435 6.089.507 7.219l.026.397a.44.44 0 01-.44.469l-40.365.092a.442.442 0 01-.442-.444c.06-6.776.543-13.54 1.446-20.256v-.32h.882zm5.711 23.672a.44.44 0 01.453.428c.065 2.327-.712 4.207-2.015 5.639-1.297 1.425-3.095 2.387-5.056 2.931a14.812 14.812 0 01-3.288.518.441.441 0 01-.039-.88 13.936 13.936 0 003.092-.487c1.843-.511 3.48-1.403 4.638-2.675 1.15-1.264 1.845-2.923 1.787-5.021a.44.44 0 01.428-.453z" fill="#000229"/><path fill-rule="evenodd" clip-rule="evenodd" d="M7.288 87.962a.44.44 0 01.43.452c-.092 3.568-.092 7.424-.092 11.44v.002c-.085 19.553.164 42.855.31 56.459l.038 3.61c.062 4.192.062 6.97.062 7.688a.441.441 0 01-.882 0c0-.716 0-3.49-.062-7.676v-.002l-.038-3.61c-.146-13.604-.395-36.912-.31-56.472v-.003c0-4.012 0-7.879.092-11.459a.44.44 0 01.452-.429z" fill="#000229"/><path fill-rule="evenodd" clip-rule="evenodd" d="M7.918 167.335a.441.441 0 00-.763.264 1.333 1.333 0 000 .213.44.44 0 00.441.406l23.66-.113a.44.44 0 10-.004-.881l-23.334.111z" fill="#000229"/><path fill-rule="evenodd" clip-rule="evenodd" d="M29.868 96.454a.44.44 0 01.422.46 182.833 182.833 0 01-5.777 38.296c-2.14 8.617-4.618 16.841-7.01 24.453.16.064.345.143.542.228l.495.215c.356.156.76.332 1.208.522 1.337.567 3.023 1.238 4.757 1.737l.005.002c1.019.306 2.061.53 3.116.671 1.129.129 2.278.512 3.087 1.272.833.783 1.255 1.921.985 3.422a.44.44 0 11-.868-.156c.222-1.234-.124-2.063-.722-2.624-.62-.584-1.562-.923-2.586-1.039l-.008-.001a20.928 20.928 0 01-3.256-.701c-1.783-.514-3.506-1.2-4.855-1.772a154.036 154.036 0 01-1.708-.739c-.472-.204-.75-.315-.857-.34a.44.44 0 01-.295-.626l.035-.071c2.416-7.681 4.922-15.977 7.08-24.668v-.005a181.952 181.952 0 005.75-38.115.44.44 0 01.46-.421z" fill="#000229"/><path fill-rule="evenodd" clip-rule="evenodd" d="M46.32 88.137a.44.44 0 01.431.45c-.643 28.114-6.755 52.298-12.65 71.068.043.016.086.034.13.052.24.098.538.228.88.377l.091.04c.673.293 1.516.662 2.464 1.04 1.987.792 4.396 1.614 6.582 1.874 1.125.129 2.273.512 3.082 1.271.833.781 1.259 1.915.994 3.412a.442.442 0 01-.434.364H31.06a.44.44 0 110-.881h16.445c.094-1.031-.242-1.749-.779-2.253-.621-.582-1.56-.921-2.579-1.038h-.001c-2.306-.274-4.803-1.132-6.808-1.931a85.788 85.788 0 01-2.488-1.05l-.092-.041c-.344-.15-.633-.275-.862-.369a3.801 3.801 0 00-.44-.161.442.442 0 01-.324-.562c5.921-18.787 12.093-43.029 12.737-71.232a.44.44 0 01.451-.43zM25.75 2.476a9.57 9.57 0 00-1.813 4.45l-.002.014-.002.014a43.261 43.261 0 00-.405 2.502l-.053.372a.441.441 0 01-.873-.124l.052-.367c.109-.77.233-1.653.411-2.542a10.452 10.452 0 011.99-4.862l.011-.016.014-.015C26.339.502 27.7.012 29.067.235c1.328.217 2.574 1.095 3.672 2.228a15.993 15.993 0 011.728 2.105c1.56 2.23 2.76 4.69 3.556 7.292l.003.01.003.01c.255 1.002.085 2.258-.287 3.536-.375 1.292-.975 2.668-1.643 3.94a26.236 26.236 0 01-2.088 3.36c-.336.45-.66.84-.951 1.138-.278.285-.57.532-.843.64a3.256 3.256 0 01-.604.178h-.003c-1.205.223-2.519-.204-3.618-.888-1.103-.687-2.066-1.68-2.56-2.702a.44.44 0 11.793-.384c.408.842 1.24 1.72 2.234 2.338.997.621 2.083.937 2.99.77a2.37 2.37 0 00.44-.129h.002c.088-.035.269-.163.537-.438.256-.261.553-.617.875-1.05a25.354 25.354 0 002.015-3.242c.65-1.238 1.223-2.557 1.577-3.776.357-1.227.474-2.294.282-3.064a25.157 25.157 0 00-3.434-7.036l-.002-.003a15.106 15.106 0 00-1.634-1.99l-.001-.002c-1.046-1.079-2.128-1.8-3.181-1.971-1.01-.165-2.08.16-3.176 1.37zm-3.029 24.259c.026 1.636.051 3.294.051 5.002v.144h-.882v-.144c0-1.678-.025-3.32-.05-4.947-.064-4.15-.126-8.203.236-12.503l.88.074c-.36 4.254-.298 8.24-.235 12.374z" fill="#000229"/><path fill-rule="evenodd" clip-rule="evenodd" d="M31.092 24.375l-.06-.244.855-.213.062.249c.275 1.138.492 2.26.719 3.458l.07.366c.206 1.095.426 2.262.711 3.582l-.862.185c-.287-1.331-.51-2.51-.716-3.603l-.07-.366c-.226-1.198-.44-2.3-.709-3.414zM21.24 8.948c.654-.222 1.36-.052 2.045.534l.002.002.002.002c.37.326.694.702.961 1.117a.44.44 0 11-.741.476 4.472 4.472 0 00-.8-.93c-.51-.436-.899-.464-1.186-.367-.323.11-.644.42-.905.896a4.026 4.026 0 00-.463 1.553c-.043.522.043.91.185 1.111a1.816 1.816 0 001.963.418l.025-.01.027-.007c.16-.04.314-.102.457-.182a.441.441 0 01.432.768 2.76 2.76 0 01-.644.261 2.7 2.7 0 01-2.917-.66l-.016-.016-.015-.02c-.347-.454-.427-1.117-.376-1.735.052-.637.25-1.325.568-1.905.314-.571.778-1.097 1.396-1.306zM40.41.004c.59.028 1.197.199 1.473.743.202.396.204.8.044 1.175-.151.353-.436.654-.762.909-.654.509-1.616.939-2.587 1.286-1.949.698-4.119 1.124-4.446 1.16l-.094-.877c.247-.026 2.348-.434 4.243-1.112.95-.34 1.803-.733 2.341-1.152.27-.21.425-.4.494-.56a.465.465 0 00-.02-.43v-.002c-.049-.095-.211-.235-.727-.26-.491-.023-1.164.07-1.982.265-1.629.389-3.713 1.153-5.815 2.027-3.463 1.428-6.925 3.125-8.377 3.837l-.512.25-.003.001-.157.073-.373-.798.152-.07.5-.245c1.446-.709 4.94-2.421 8.432-3.862 2.113-.878 4.249-1.664 5.948-2.07.846-.202 1.614-.316 2.228-.288zm-6.185 10.814c-.346.077-.642.308-.747.529a.441.441 0 01-.797-.377c.245-.517.8-.89 1.353-1.012.57-.127 1.267-.007 1.667.642a.44.44 0 11-.75.462c-.144-.232-.397-.317-.726-.244zm-5.855.686a3.214 3.214 0 011.494.196.44.44 0 11-.317.822 2.332 2.332 0 00-2.113.224.441.441 0 01-.483-.737 3.214 3.214 0 011.42-.505zm1.014 9.388a.441.441 0 01.607-.14c.306.19.77.424 1.215.522.46.1.755.032.922-.166a.442.442 0 01.674.567c-.489.58-1.22.584-1.786.46-.58-.128-1.141-.417-1.492-.636a.44.44 0 01-.14-.607z" fill="#000229"/><path fill-rule="evenodd" clip-rule="evenodd" d="M22.873 11.364a.44.44 0 01-.03.622 2.935 2.935 0 01-1.883.76.44.44 0 11-.027-.88 2.053 2.053 0 001.317-.532c.18-.163.46-.15.623.03zm9.657.707a.44.44 0 01.415.466 12.76 12.76 0 00.387 3.96l.005.023.004.023c.064.43.163 1.173.009 1.746-.08.298-.25.626-.602.8-.347.173-.76.14-1.194-.018a.44.44 0 11.302-.828c.324.118.458.078.499.058.036-.018.097-.07.143-.242.098-.36.041-.907-.026-1.363a13.637 13.637 0 01-.407-4.211.44.44 0 01.466-.414zM24.557 159.49h9.373v.882h-9.373v-.882zm-16.983 0h9.374v.882H7.574v-.882zm-.42 8.123a.44.44 0 01.441-.44h23.66a.44.44 0 01.441.44v1.947a.44.44 0 01-.441.44H7.595a.44.44 0 01-.44-.44v-1.947zm.882.441v1.065h22.778v-1.065H8.036z" fill="#000229"/><path fill-rule="evenodd" clip-rule="evenodd" d="M30.854 167.613a.44.44 0 01.44-.44h16.574a.44.44 0 01.44.44v1.947a.44.44 0 01-.44.44H31.294a.44.44 0 01-.44-.44v-1.947zm.881.441v1.065h15.692v-1.065H31.735zm2.147-122.711c.06-.18.23-.3.418-.3h11.64c.05 0 .1.009.148.026l3.2 1.137 7.156 2.55 10.34-2.106a.441.441 0 01.5.588l-6.102 16.01-1.333 3.494-.824-.314 1.333-3.493 5.817-15.262-9.675 1.97a.442.442 0 01-.237-.016l-7.271-2.592-3.128-1.11H34.617l-6.605 19.57-.001.001-.02.06-.837-.278.02-.062.001-.001 1.026-3.033 5.681-16.839zM25.02 71.679l.083-.245.836.278-.082.246v.001l-1.987 5.909 11.985-1.212a.441.441 0 01.183.02l10.138 3.331 8.41-1.947 2.357-6.163.823.315-2.44 6.381a.44.44 0 01-.313.272l-8.758 2.028a.441.441 0 01-.238-.01l-10.166-3.341-12.573 1.27a.441.441 0 01-.462-.578l2.205-6.554v-.001z" fill="#000229"/><path fill-rule="evenodd" clip-rule="evenodd" d="M27.665 65.79a2.588 2.588 0 01-2.08-.52.44.44 0 11.55-.69 1.703 1.703 0 001.397.34c.384-.055.79-.188 1.21-.353a22.083 22.083 0 00.666-.279c.19-.082.382-.164.566-.238.386-.154.797-.295 1.174-.31.196-.008.402.017.598.107.2.091.364.239.487.434l.002.003c.2.322.175.673.08.968-.093.288-.27.572-.46.827a.482.482 0 01-.02.026c-.623.718-1.702 1.404-2.9 1.76-1.201.359-2.592.405-3.8-.26a.44.44 0 11.425-.771c.935.513 2.062.503 3.123.188 1.055-.315 1.976-.913 2.474-1.482.163-.22.27-.409.319-.56.047-.146.025-.205.01-.232a.246.246 0 00-.107-.1.43.43 0 00-.196-.028c-.211.008-.499.095-.881.248-.173.07-.354.147-.547.23l-.041.018a23.33 23.33 0 01-.647.27c-.44.174-.919.335-1.402.404z" fill="#000229"/><path fill-rule="evenodd" clip-rule="evenodd" d="M31.268 65.61a.441.441 0 01.613-.117c.332.225.569.491.697.8.129.31.13.625.059.914-.139.553-.553 1.041-.93 1.39l-.008.008a7.904 7.904 0 01-.538.43 6.404 6.404 0 01-6.283.92.44.44 0 11.322-.82 5.524 5.524 0 005.434-.806 7.02 7.02 0 00.477-.38c.34-.316.595-.657.67-.955a.56.56 0 00-.018-.364c-.047-.112-.15-.254-.378-.408a.44.44 0 01-.117-.612z" fill="#000229"/><path fill-rule="evenodd" clip-rule="evenodd" d="M20.846 33.223h.111v.88h-.082c-.478.022-2.467.131-4.6.37-1.074.12-2.178.273-3.14.462-.975.191-1.762.412-2.23.655-.62.321-1.275.91-1.947 1.737-.67.823-1.337 1.86-1.986 3.047-1.299 2.376-2.506 5.323-3.499 8.295-.992 2.971-1.765 5.953-2.2 8.394-.218 1.222-.349 2.299-.382 3.167-.035.888.037 1.494.176 1.817l.003.008c.892 2.185 2.71 4.028 6.839 5.484a58.296 58.296 0 0012.605 2.51h.007l1.18.123c.045.005.09.017.131.035.858.377 1.734.711 2.625 1.002.077.016.15.033.22.049.298.067.534.12.762.12.02 0 .04.002.06.004 4.377.607 5.96-1.702 6.173-2.18.097-.219.058-.36.024-.416a.127.127 0 00-.06-.054.204.204 0 00-.121-.005l-.173-.864c.455-.09.876.091 1.104.459.219.354.221.811.032 1.238-.361.81-2.3 3.349-7.07 2.699-.329-.005-.674-.084-.97-.151a15.729 15.729 0 00-.233-.055 29.338 29.338 0 01-2.664-1.012l-1.108-.115a59.173 59.173 0 01-12.805-2.552l-.006-.001c-4.294-1.514-6.352-3.5-7.367-5.982-.221-.517-.28-1.294-.246-2.195.036-.922.174-2.042.396-3.287.443-2.49 1.228-5.514 2.232-8.519 1.003-3.003 2.23-6.002 3.56-8.438.666-1.218 1.363-2.303 2.076-3.18.71-.874 1.455-1.565 2.226-1.963m10.347-1.586a78.74 78.74 0 00-4.67.375l4.67-.375zm-4.67.375a40.7 40.7 0 00-3.211.473l3.212-.473zm-3.211.473c-.983.193-1.878.432-2.466.737l2.466-.737zm45.28 31.943c.503.162.855.208 1.073.147h.001a.4.4 0 00.176-.103.441.441 0 01.623.623c-.156.156-.35.269-.562.328-.494.138-1.072.008-1.582-.157-.362-.117-.754-.275-1.124-.424-.162-.065-.32-.129-.47-.187-.525-.202-.949-.335-1.257-.344a.502.502 0 00-.271.049c-.036.02-.083.063-.122.177v.003l.002.018c.005.02.02.058.057.112.076.11.222.247.444.387l.008.005a7.442 7.442 0 004.84 1.209.44.44 0 11.086.877 8.325 8.325 0 01-5.41-1.35c-.28-.176-.527-.387-.693-.626-.168-.242-.281-.56-.175-.899l.002-.006c.094-.286.262-.516.507-.663a1.37 1.37 0 01.75-.173c.48.013 1.037.205 1.55.403.176.068.349.138.519.206.355.143.696.28 1.029.388z" fill="#000229"/><path fill-rule="evenodd" clip-rule="evenodd" d="M55.415 66.938a.44.44 0 01-.28.556c-.283.094-.416.194-.474.262a.19.19 0 00-.05.16.747.747 0 00.141.32c.092.133.22.271.368.402.176.15.367.279.57.387 1.26.55 2.617.849 3.992.879a.44.44 0 11-.019.88 11.426 11.426 0 01-4.37-.972 4.08 4.08 0 01-.747-.505l-.005-.005a3.144 3.144 0 01-.516-.568 1.605 1.605 0 01-.292-.725c-.03-.287.045-.576.257-.825.2-.234.499-.404.867-.526a.441.441 0 01.558.28z" fill="#000229"/><path fill-rule="evenodd" clip-rule="evenodd" d="M60.583 62.932c.14-.2.414-.248.614-.11a7.836 7.836 0 011.549 1.422c.384.52.687 1.094.9 1.705a4.727 4.727 0 01-.005 3.546 5.02 5.02 0 01-4.16 3.11l-.008.001a5.923 5.923 0 01-2.2-.238 6.596 6.596 0 01-3.379-1.939.44.44 0 01-.089-.143c-.16-.418-.152-.861.01-1.208a.999.999 0 01.398-.445.863.863 0 01.64-.09.44.44 0 11-.204.857.183.183 0 00-.035.054.656.656 0 00-.01.443 5.713 5.713 0 002.912 1.624 5.04 5.04 0 001.882.208 4.144 4.144 0 003.425-2.564 3.847 3.847 0 00-.008-2.918 5.516 5.516 0 00-.77-1.47 6.946 6.946 0 00-1.352-1.231.44.44 0 01-.11-.614zM14.737 44.528a.44.44 0 01.162.601l-.035-.02.035.02-.003.007-.013.022a17.834 17.834 0 00-.24.43 58.98 58.98 0 00-.662 1.242 54.665 54.665 0 00-1.864 3.96c-.63 1.506-1.185 3.082-1.45 4.445-.133.682-.19 1.295-.156 1.811.035.518.16.906.36 1.172l.002.003c.35.477 1.014.995 1.916 1.524.891.522 1.973 1.03 3.116 1.497 2.284.935 4.773 1.696 6.383 2.086a18.91 18.91 0 001.306.255c.29-.825 1.094-1.527 1.966-1.904 1.005-.433 2.283-.515 3.256.283a.44.44 0 11-.56.681c-.625-.513-1.517-.513-2.346-.155-.835.36-1.426 1.006-1.53 1.56a.483.483 0 01-.315.392.733.733 0 01-.237.041 2.695 2.695 0 01-.43-.036c-.325-.047-.777-.14-1.306-.258l-.008-.002c-1.65-.399-4.184-1.174-6.514-2.128-1.165-.477-2.288-1.002-3.227-1.553-.928-.543-1.72-1.135-2.18-1.76-.337-.45-.491-1.024-.532-1.64-.041-.618.029-1.312.17-2.037.282-1.45.863-3.088 1.502-4.617a55.558 55.558 0 011.895-4.025 58.056 58.056 0 01.918-1.702l.014-.024.004-.008.383.219-.383-.22a.442.442 0 01.603-.162zm8.773 19.375a.441.441 0 00-.003.017l.003-.017zm.301-.303zm22.193-17.9a.44.44 0 01.284.554L36.32 77.229a.441.441 0 01-.84-.27l9.969-30.975a.441.441 0 01.555-.285zm10.545 3.094a.44.44 0 01.282.556L46.575 80.602a.441.441 0 01-.838-.275l10.255-31.252a.441.441 0 01.557-.281zM69.88 16.91a1.848 1.848 0 00-.752-.097H51.485a1.85 1.85 0 00-1.772 1.057 1.842 1.842 0 00-.173.694v15.679a1.843 1.843 0 001.97 1.714h12.45a.44.44 0 110 .881H51.52a2.73 2.73 0 01-2.863-2.581V18.535a2.724 2.724 0 012.863-2.603h17.594a2.731 2.731 0 012.626 1.557 2.723 2.723 0 01.26 1.066v15.728a2.714 2.714 0 01-2.853 2.556H66.74a.44.44 0 110-.88h2.445a1.837 1.837 0 001.934-1.714v-15.68a1.844 1.844 0 00-1.238-1.654z" fill="#000229"/><path fill-rule="evenodd" clip-rule="evenodd" d="M64.062 33.786a.44.44 0 01.441.44h-.882a.44.44 0 01.441-.44zm.441 2.61v-2.17h-.882v2.176c.01 1.06.049 2.332.187 3.269.067.454.165.894.332 1.188.082.145.224.332.46.406.266.083.502-.018.666-.145.272-.21.488-.539.664-.884.18-.354.34-.771.479-1.204.278-.865.49-1.832.63-2.573v-.002a37.508 37.508 0 00.205-1.233l.002-.018.001-.007a.44.44 0 00-.873-.122v.005l-.003.017a10.631 10.631 0 01-.049.318c-.034.215-.084.521-.15.88-.137.725-.34 1.651-.603 2.466a7.487 7.487 0 01-.425 1.074 2.442 2.442 0 01-.293.462 3.97 3.97 0 01-.17-.756c-.129-.87-.168-2.087-.178-3.147zM22.524 63.615a.44.44 0 01-.121.61c-1.47.984-1.848 2.404-1.853 3.625a6.808 6.808 0 00.365 2.185l.003.006m0 0a.44.44 0 11-.823.318l.411-.159a47.54 47.54 0 01-.411.159v-.002l-.002-.004-.005-.012-.015-.04a7.289 7.289 0 01-.197-.683 7.684 7.684 0 01-.208-1.772c.006-1.404.452-3.154 2.244-4.352a.441.441 0 01.612.12m-4.118 97.387c-.56-.24-.994-.427-1.283-.534l.305-.826c.314.115.776.314 1.334.554l.342.147c.719.308 1.58.673 2.522 1.034 1.89.726 4.078 1.432 6.068 1.661 1.137.13 2.263.512 3.051 1.319.805.823 1.196 2.024.977 3.644l-.874-.118c.19-1.412-.157-2.321-.734-2.911-.593-.607-1.492-.942-2.52-1.058-2.103-.242-4.375-.981-6.285-1.714a71.981 71.981 0 01-2.553-1.047l-.35-.151z" fill="#000229"/></svg>7C32.9353 21.2114 32.9591 21.4893 32.8023 21.6754C32.3131 22.2556 31.5828 22.2587 31.0164 22.1342C30.4358 22.0067 29.8747 21.7179 29.5237 21.4988C29.3172 21.3699 29.2544 21.0982 29.3835 20.8919Z" fill="#000229"/>
<path fill-rule="evenodd" clip-rule="evenodd" d="M22.8732 11.3643C23.0369 11.5444 23.0235 11.823 22.8432 11.9865C22.3261 12.4555 21.6584 12.7249 20.9602 12.746C20.7168 12.7534 20.5135 12.5623 20.5061 12.3191C20.4987 12.076 20.69 11.8729 20.9335 11.8655C21.4217 11.8507 21.8886 11.6624 22.2503 11.3344C22.4305 11.1708 22.7094 11.1842 22.8732 11.3643Z" fill="#000229"/>
<path fill-rule="evenodd" clip-rule="evenodd" d="M32.5308 12.0711C32.7739 12.0855 32.9594 12.294 32.9449 12.5369C32.8659 13.8692 32.9963 15.2056 33.3316 16.4976L33.3374 16.52L33.3408 16.543C33.4052 16.9734 33.5045 17.7156 33.3497 18.2887C33.2691 18.5871 33.0995 18.9147 32.7479 19.0896C32.4005 19.2624 31.9887 19.229 31.5536 19.0705C31.3248 18.9871 31.207 18.7343 31.2905 18.5057C31.374 18.2772 31.6271 18.1596 31.8559 18.2429C32.1797 18.3609 32.3141 18.3212 32.3548 18.301C32.3913 18.2829 32.4518 18.2308 32.4981 18.0593C32.5956 17.6985 32.5394 17.1521 32.4719 16.6957C32.1179 15.3218 31.9804 13.9011 32.0645 12.4847C32.0789 12.2419 32.2877 12.0567 32.5308 12.0711Z" fill="#000229"/>
<path fill-rule="evenodd" clip-rule="evenodd" d="M24.5566 159.49H33.9303V160.372H24.5566V159.49Z" fill="#000229"/>
<path fill-rule="evenodd" clip-rule="evenodd" d="M7.57422 159.49H16.9479V160.372H7.57422V159.49Z" fill="#000229"/>
<path fill-rule="evenodd" clip-rule="evenodd" d="M7.1543 167.613C7.1543 167.37 7.35174 167.173 7.59529 167.173H31.255C31.4986 167.173 31.696 167.37 31.696 167.613V169.56C31.696 169.803 31.4986 170 31.255 170H7.59529C7.35174 170 7.1543 169.803 7.1543 169.56V167.613ZM8.03628 168.054V169.119H30.814V168.054H8.03628Z" fill="#000229"/>
<path fill-rule="evenodd" clip-rule="evenodd" d="M30.8535 167.613C30.8535 167.37 31.051 167.173 31.2945 167.173H47.8676C48.1111 167.173 48.3086 167.37 48.3086 167.613V169.56C48.3086 169.803 48.1111 170 47.8676 170H31.2945C31.051 170 30.8535 169.803 30.8535 169.56V167.613ZM31.7355 168.054V169.119H47.4266V168.054H31.7355Z" fill="#000229"/>
<path fill-rule="evenodd" clip-rule="evenodd" d="M33.8824 45.343C33.9429 45.1639 34.1111 45.0432 34.3003 45.0432H45.9405C45.9908 45.0432 46.0408 45.0518 46.0883 45.0687L49.288 46.2057L49.2884 46.2058L56.4438 48.7561L66.7841 46.65C66.9416 46.6179 67.1042 46.6741 67.2083 46.7965C67.3124 46.9189 67.3415 47.0882 67.2843 47.2383L61.1822 63.2484L59.8489 66.7416L59.0248 66.4278L60.358 62.935L66.1749 47.6732L56.4996 49.6438C56.4207 49.6598 56.339 49.654 56.2633 49.627L48.992 47.0355L45.8644 45.9241H34.6171L28.0115 65.4948L28.011 65.4965L27.991 65.5562L27.1543 65.2777L27.1748 65.2162L27.1754 65.2145L28.2009 62.1825L33.8824 45.343Z" fill="#000229"/>
<path fill-rule="evenodd" clip-rule="evenodd" d="M25.0209 71.6787L25.1026 71.4338L25.9393 71.7124L25.8573 71.9583L25.857 71.9592L23.8697 77.8676L35.8553 76.656C35.9167 76.6498 35.9788 76.6565 36.0375 76.6758L46.1759 80.0073L54.5854 78.0599L56.9425 71.8974L57.7664 72.2117L55.3255 78.5933C55.2732 78.7301 55.1561 78.8321 55.0132 78.8651L46.2549 80.8933C46.1763 80.9115 46.0941 80.9078 46.0175 80.8826L35.8508 77.5419L23.2784 78.8128C23.1293 78.8279 22.9828 78.7664 22.8893 78.6494C22.7959 78.5325 22.7682 78.3762 22.8159 78.2344L25.0206 71.6797L25.0209 71.6787Z" fill="#000229"/>
<path fill-rule="evenodd" clip-rule="evenodd" d="M27.6648 65.7901C27.3028 65.8567 26.9307 65.8453 26.5733 65.7566C26.2127 65.6671 25.8756 65.5009 25.5851 65.2695C25.3947 65.1178 25.3635 64.8407 25.5153 64.6505C25.6672 64.4603 25.9447 64.4291 26.1351 64.5808C26.3265 64.7333 26.5485 64.8427 26.7861 64.9017C27.0236 64.9606 27.2711 64.9677 27.5117 64.9225C27.5183 64.9213 27.525 64.9202 27.5317 64.9192C27.9163 64.865 28.3227 64.7325 28.7424 64.5667C28.9511 64.4843 29.1578 64.3959 29.3645 64.3069C29.3791 64.3007 29.3938 64.2944 29.4084 64.2881C29.5985 64.2062 29.7897 64.1239 29.974 64.0502C30.3595 63.8959 30.7714 63.7546 31.1483 63.7398C31.3441 63.7322 31.5502 63.7573 31.7459 63.8468C31.9462 63.9384 32.1098 64.0857 32.2328 64.2806L32.2348 64.2839L32.2348 64.2839C32.4341 64.6062 32.4104 64.9574 32.3151 65.2516C32.2215 65.5403 32.045 65.8237 31.8544 66.0794C31.848 66.088 31.8412 66.0963 31.8342 66.1045C31.2119 66.8229 30.1326 67.509 28.9346 67.8658C27.7336 68.2235 26.3434 68.2698 25.1347 67.6055C24.9213 67.4882 24.8435 67.2204 24.961 67.0073C25.0784 66.7942 25.3465 66.7164 25.5599 66.8337C26.4947 67.3474 27.6222 67.3374 28.6826 67.0216C29.7385 66.7071 30.6586 66.1087 31.1567 65.5401C31.3196 65.32 31.427 65.1315 31.476 64.9803C31.5234 64.8339 31.5013 64.7749 31.4853 64.7482C31.4471 64.6884 31.4112 64.6626 31.3788 64.6478C31.3414 64.6307 31.2812 64.6162 31.1829 64.6201C30.9718 64.6283 30.6844 64.7149 30.302 64.8679C30.1288 64.9372 29.9477 65.0152 29.7549 65.0982C29.7411 65.1041 29.7273 65.11 29.7135 65.116C29.5072 65.2047 29.2893 65.2981 29.0667 65.386C28.627 65.5596 28.1485 65.7206 27.6648 65.7901Z" fill="#000229"/>
<path fill-rule="evenodd" clip-rule="evenodd" d="M31.2683 65.6098C31.4051 65.4086 31.6793 65.3562 31.8808 65.4928C32.2127 65.7179 32.4497 65.9842 32.5777 66.2923C32.707 66.6034 32.7088 66.9178 32.6366 67.207C32.4985 67.7605 32.0843 68.248 31.7076 68.5974C31.7048 68.5999 31.7021 68.6025 31.6993 68.6049C31.5145 68.7678 31.3213 68.9179 31.1614 69.0353C30.2857 69.7207 29.2462 70.1662 28.1455 70.328C27.0423 70.4901 25.9159 70.3614 24.8778 69.9549C24.651 69.8661 24.5393 69.6105 24.6282 69.384C24.7171 69.1575 24.973 69.0459 25.1998 69.1348C26.0948 69.4853 27.066 69.5962 28.0171 69.4564C28.9682 69.3167 29.8663 68.9311 30.6223 68.338C30.6261 68.335 30.63 68.3321 30.6339 68.3292C30.7792 68.2228 30.9511 68.0892 31.1115 67.9481C31.4506 67.6328 31.7064 67.292 31.7808 66.994C31.8151 66.8568 31.8085 66.7391 31.7631 66.63C31.7165 66.5177 31.6125 66.3756 31.3854 66.2217C31.1839 66.085 31.1315 65.8111 31.2683 65.6098Z" fill="#000229"/>
<path fill-rule="evenodd" clip-rule="evenodd" d="M20.8459 33.2228C20.8523 33.2226 20.8588 33.2224 20.8652 33.2224H20.9575V34.1033H20.875C20.3973 34.1246 18.4077 34.2343 16.275 34.4732C15.2011 34.5935 14.0974 34.7459 13.135 34.9348C12.1604 35.1262 11.3732 35.3474 10.9052 35.5902L10.9049 35.5904C10.2857 35.911 9.63003 36.4995 8.95763 37.3267C8.28851 38.1498 7.62107 39.1864 6.97184 40.3743C5.6734 42.7501 4.46612 45.697 3.47339 48.669C2.48095 51.6402 1.70775 54.6221 1.27291 57.0633C1.05537 58.2846 0.92409 59.3619 0.890584 60.2303C0.856326 61.1181 0.92785 61.7241 1.0668 62.047L1.06999 62.0546C1.96237 64.2397 3.7794 66.083 7.90891 67.5394C12.0049 68.8377 16.2321 69.6791 20.5135 70.0484L20.5213 70.0491L21.7007 70.172C21.7461 70.1768 21.7906 70.1886 21.8325 70.2069C22.6904 70.5838 23.5664 70.9182 24.4573 71.2087C24.5343 71.2255 24.6072 71.242 24.6767 71.2577C24.9751 71.3251 25.2106 71.3784 25.4392 71.3784C25.4595 71.3784 25.4797 71.3798 25.4998 71.3825C29.8763 71.9888 31.4588 69.6803 31.6716 69.202C31.7691 68.9831 31.7305 68.8416 31.6958 68.7856C31.6782 68.7572 31.6577 68.7413 31.6365 68.7324C31.6155 68.7235 31.5773 68.7146 31.515 68.7271L31.342 67.8633C31.7971 67.7723 32.218 67.9544 32.4458 68.322C32.6649 68.6758 32.6673 69.1334 32.4776 69.5598C32.1168 70.3706 30.1784 72.9088 25.4073 72.259C25.079 72.2541 24.7337 72.1751 24.4379 72.1075C24.3721 72.0924 24.3088 72.0779 24.2487 72.0649C24.234 72.0618 24.2196 72.0579 24.2053 72.0532C23.3012 71.7592 22.412 71.4214 21.5408 71.0411L20.4335 70.9257C16.0864 70.5505 11.7942 69.6957 7.63536 68.3769C7.63278 68.3761 7.63021 68.3753 7.62764 68.3744C7.62578 68.3738 7.62393 68.3731 7.62209 68.3725C3.32822 66.8595 1.27 64.8738 0.254797 62.3909C0.0336561 61.8738 -0.0255032 61.0971 0.0092548 60.1963C0.0448534 59.2738 0.182867 58.1536 0.404557 56.909C0.848172 54.4185 1.63318 51.3947 2.63674 48.3902C3.64001 45.3866 4.86652 42.3879 6.19769 39.9523C6.86326 38.7345 7.55958 37.6489 8.27292 36.7714C8.98289 35.898 9.72834 35.2074 10.4986 34.8085M20.8459 33.2228C20.3726 33.2436 18.3495 33.3543 16.1767 33.5978L20.8459 33.2228ZM16.1767 33.5978C15.0905 33.7194 13.9604 33.875 12.9649 34.0705L16.1767 33.5978ZM12.9649 34.0705C11.9818 34.2635 11.0872 34.5032 10.4989 34.8083L12.9649 34.0705Z" fill="#000229"/>
<path fill-rule="evenodd" clip-rule="evenodd" d="M58.2455 66.0138C58.7477 66.176 59.1 66.2219 59.3183 66.1607L59.3194 66.1604C59.3857 66.142 59.4462 66.1068 59.495 66.0581C59.6672 65.8862 59.9465 65.8863 60.1186 66.0584C60.2908 66.2304 60.2907 66.5093 60.1184 66.6813C59.9623 66.837 59.7686 66.9499 59.5561 67.009C59.0618 67.1473 58.4836 67.0166 57.9741 66.852C57.6119 66.735 57.2204 66.5774 56.8499 66.4283C56.6878 66.363 56.5297 66.2993 56.3798 66.2414C55.8554 66.0388 55.4314 65.9058 55.123 65.8972C54.9771 65.8931 54.8961 65.9189 54.8516 65.9456C54.8164 65.9667 54.769 66.0086 54.7303 66.1232C54.7301 66.1239 54.73 66.1248 54.73 66.126C54.7299 66.1282 54.7301 66.1338 54.7324 66.1437C54.7373 66.1645 54.7515 66.2022 54.7887 66.2557C54.8653 66.366 55.0107 66.5026 55.2325 66.6428C55.2354 66.6446 55.2383 66.6464 55.2411 66.6483C56.6671 67.5961 58.377 68.0231 60.0818 67.857C60.3242 67.8334 60.5399 68.0106 60.5635 68.2527C60.5871 68.4948 60.4098 68.7102 60.1674 68.7338C58.262 68.9194 56.3509 68.4427 54.7566 67.3845C54.4778 67.2077 54.23 66.9969 54.0639 66.7577C53.8964 66.5164 53.7828 66.198 53.8887 65.8593L53.8908 65.853C53.985 65.5669 54.1525 65.3373 54.3976 65.1903C54.6341 65.0485 54.8993 65.0097 55.1477 65.0166C55.6281 65.0301 56.1854 65.2217 56.6981 65.4199C56.8743 65.4879 57.047 65.5575 57.2166 65.6258C57.5717 65.7689 57.9133 65.9065 58.2455 66.0138Z" fill="#000229"/>
<path fill-rule="evenodd" clip-rule="evenodd" d="M55.4146 66.938C55.4911 67.169 55.3656 67.4181 55.1344 67.4945C54.8518 67.5878 54.7192 67.6883 54.6611 67.7562C54.6144 67.811 54.6038 67.8568 54.6101 67.9153C54.6181 67.99 54.658 68.0985 54.7524 68.2359C54.8441 68.3693 54.9719 68.5075 55.1205 68.6383C55.2959 68.7873 55.487 68.917 55.6903 69.0251C56.9506 69.5754 58.3067 69.8739 59.682 69.9036C59.9255 69.9088 60.1186 70.1102 60.1134 70.3534C60.1081 70.5966 59.9065 70.7895 59.663 70.7843C58.1668 70.752 56.6915 70.4262 55.3212 69.8253C55.3117 69.8212 55.3023 69.8167 55.2931 69.8118C55.0261 69.6715 54.7754 69.502 54.5458 69.3065L54.5407 69.3022C54.352 69.1365 54.1692 68.9439 54.0252 68.7343C53.8833 68.5279 53.7623 68.2804 53.7332 68.0094C53.7023 67.7222 53.7783 67.4326 53.9901 67.1845C54.1907 66.9496 54.4888 66.7799 54.8575 66.6581C55.0887 66.5818 55.3382 66.7071 55.4146 66.938Z" fill="#000229"/>
<path fill-rule="evenodd" clip-rule="evenodd" d="M60.5831 62.9325C60.7222 62.7329 60.9971 62.6837 61.197 62.8226C61.7677 63.2194 62.283 63.6903 62.7293 64.2228C62.735 64.2297 62.7405 64.2367 62.7459 64.2439C63.1301 64.7637 63.4332 65.3385 63.6451 65.9489C64.104 67.0868 64.1025 68.3584 63.6408 69.4954C63.297 70.3432 62.7278 71.081 61.9947 71.6292C61.2616 72.1774 60.3925 72.5151 59.4812 72.6057L59.4727 72.6065C58.731 72.6659 57.9849 72.585 57.2734 72.3682C55.9773 72.0766 54.7996 71.4008 53.8945 70.4291C53.8558 70.3875 53.8255 70.3389 53.8053 70.2859C53.6459 69.8682 53.6525 69.4247 53.8159 69.0783C53.8983 68.9036 54.0283 68.7396 54.2127 68.633C54.4037 68.5225 54.6274 68.4893 54.8532 68.5432C55.0901 68.5998 55.2362 68.8374 55.1796 69.074C55.123 69.3103 54.8856 69.4561 54.649 69.4002C54.6417 69.4072 54.6283 69.423 54.6137 69.4538C54.5722 69.5418 54.5484 69.7025 54.6042 69.8966C55.3829 70.7058 56.3838 71.2681 57.4821 71.5121C57.4936 71.5147 57.505 71.5177 57.5163 71.5212C58.1248 71.7086 58.7633 71.779 59.398 71.7287C60.1478 71.6534 60.8628 71.3752 61.4661 70.924C62.0706 70.4721 62.5399 69.8637 62.8233 69.1647L62.8234 69.1645C63.2005 68.2361 63.2005 67.1975 62.8234 66.269C62.8204 66.2618 62.8177 66.2544 62.8151 66.247C62.6337 65.7213 62.3738 65.226 62.0442 64.7779C61.6502 64.3095 61.1959 63.8952 60.6931 63.5457C60.4932 63.4067 60.444 63.1322 60.5831 62.9325Z" fill="#000229"/>
<path fill-rule="evenodd" clip-rule="evenodd" d="M14.7366 44.5277C14.9479 44.6489 15.0208 44.9181 14.8995 45.129L14.8644 45.1089C14.8995 45.129 14.8995 45.129 14.8995 45.129L14.8955 45.136L14.8829 45.1582C14.8716 45.178 14.8548 45.2076 14.8329 45.2465C14.789 45.3244 14.7247 45.4395 14.6434 45.5873C14.4808 45.8829 14.2506 46.309 13.9809 46.8295C13.441 47.8713 12.7449 49.2875 12.1165 50.7901C11.4865 52.2964 10.9323 53.8716 10.6666 55.2354C10.5338 55.9173 10.4765 56.53 10.5109 57.046C10.5455 57.5644 10.6704 57.9516 10.8702 58.2177L10.8728 58.2211C11.2232 58.6975 11.8875 59.2164 12.789 59.7445C13.6802 60.2665 14.7621 60.7742 15.9048 61.2421C18.1885 62.1773 20.6777 62.9384 22.2882 63.3282C22.8142 63.4455 23.2372 63.5315 23.5251 63.5736C23.5498 63.5773 23.5728 63.5804 23.5943 63.5832C23.8835 62.7577 24.6883 62.0559 25.5605 61.6794C26.5649 61.2459 27.8426 61.1643 28.8162 61.9622C29.0045 62.1165 29.0319 62.394 28.8774 62.5821C28.7229 62.7701 28.4451 62.7975 28.2568 62.6432C27.6305 62.1299 26.7392 62.1303 25.9104 62.488C25.075 62.8486 24.4836 63.4942 24.3802 64.0473C24.3537 64.2976 24.1488 64.4085 24.0653 64.4399C23.9736 64.4743 23.8825 64.4799 23.8277 64.4813C23.7062 64.4844 23.555 64.4683 23.3974 64.4453C23.0732 64.3979 22.6208 64.305 22.0922 64.1871L22.0845 64.1853C20.4337 63.7861 17.8997 63.0111 15.5702 62.0572C14.4053 61.5802 13.2823 61.0547 12.3428 60.5043C11.4146 59.9606 10.6231 59.3686 10.1633 58.7445C9.82555 58.2938 9.67195 57.7198 9.63089 57.1046C9.58961 56.4862 9.65967 55.7922 9.80087 55.0672C10.0833 53.6174 10.6635 51.9787 11.3027 50.4505C11.9434 48.9185 12.651 47.4794 13.1976 46.4246C13.4711 45.8968 13.7048 45.4642 13.8704 45.1632C13.9531 45.0127 14.0189 44.895 14.0641 44.8147C14.0867 44.7746 14.1042 44.7437 14.1161 44.7228L14.1297 44.699L14.1345 44.6906C14.1346 44.6905 14.1346 44.6904 14.5171 44.9097L14.1345 44.6906C14.2558 44.4797 14.5254 44.4066 14.7366 44.5277ZM23.5099 63.9032C23.5042 63.9307 23.501 63.9606 23.501 63.9928C23.501 63.9684 23.503 63.944 23.5071 63.9199C23.508 63.9144 23.509 63.9088 23.5099 63.9032ZM23.8115 63.6004C23.8142 63.6001 23.8157 63.6 23.8158 63.6001C23.8159 63.6001 23.8145 63.6003 23.8115 63.6004Z" fill="#000229"/>
<path fill-rule="evenodd" clip-rule="evenodd" d="M46.0035 45.6995C46.2354 45.7739 46.3629 46.022 46.2884 46.2536L36.3199 77.229C36.2454 77.4606 35.997 77.588 35.7651 77.5136C35.5333 77.4391 35.4057 77.1911 35.4803 76.9595L45.4487 45.984C45.5232 45.7524 45.7716 45.625 46.0035 45.6995Z" fill="#000229"/>
<path fill-rule="evenodd" clip-rule="evenodd" d="M56.5489 48.7938C56.7804 48.8695 56.9065 49.1183 56.8306 49.3495L46.575 80.6015C46.4992 80.8327 46.25 80.9587 46.0186 80.8829C45.7872 80.8071 45.661 80.5583 45.7369 80.3272L55.9925 49.0751C56.0684 48.844 56.3175 48.718 56.5489 48.7938Z" fill="#000229"/>
<path fill-rule="evenodd" clip-rule="evenodd" d="M69.8796 16.9102C69.6475 16.8297 69.4017 16.7963 69.1565 16.8119C69.1472 16.8125 69.1378 16.8128 69.1284 16.8128H51.5093C51.5012 16.8128 51.4932 16.8126 51.4851 16.8121C51.2413 16.7988 50.9972 16.8339 50.7671 16.9154C50.5369 16.9969 50.3252 17.1232 50.1443 17.287C49.9634 17.4508 49.8168 17.6488 49.713 17.8696C49.6105 18.0877 49.5518 18.3237 49.5402 18.5642V34.2428C49.5731 34.7243 49.7938 35.1739 50.1551 35.4949C50.5196 35.8186 50.9976 35.9852 51.4847 35.958C51.4929 35.9576 51.5011 35.9574 51.5093 35.9574H63.9596C64.2031 35.9574 64.4006 36.1546 64.4006 36.3978C64.4006 36.6411 64.2031 36.8383 63.9596 36.8383H51.521C50.8057 36.8748 50.1045 36.6288 49.569 36.1531C49.0303 35.6746 48.7032 35.0026 48.659 34.284C48.6585 34.275 48.6582 34.266 48.6582 34.257V18.5541C48.6582 18.5478 48.6583 18.5414 48.6586 18.5351C48.6743 18.175 48.7613 17.8215 48.9146 17.4953C49.068 17.169 49.2846 16.8764 49.552 16.6343C49.8194 16.3923 50.1322 16.2056 50.4723 16.0851C50.8085 15.9661 51.1647 15.914 51.5208 15.9319H69.115C69.4724 15.911 69.8305 15.9607 70.1689 16.078C70.5118 16.1969 70.8276 16.383 71.0976 16.6254C71.3676 16.8678 71.5865 17.1616 71.7414 17.4895C71.8963 17.8175 71.984 18.173 71.9996 18.5353C71.9999 18.5416 72 18.5479 72 18.5541V34.257C72 34.2599 72 34.2629 71.9999 34.2658C71.9998 34.2713 71.9996 34.2767 71.9993 34.2821C71.9582 35.0002 71.6335 35.6727 71.0964 36.1519C70.5624 36.6282 69.862 36.8747 69.1474 36.8383H66.7389C66.4953 36.8383 66.2979 36.6411 66.2979 36.3978C66.2979 36.1546 66.4953 35.9574 66.7389 35.9574H69.1592C69.1674 35.9574 69.1756 35.9576 69.1837 35.958C69.6694 35.9851 70.146 35.8185 70.5088 35.4948C70.8687 35.1738 71.0874 34.7243 71.118 34.2437V18.5641C71.1064 18.322 71.0472 18.0846 70.9437 17.8653C70.8389 17.6434 70.6908 17.4446 70.5081 17.2806C70.3253 17.1166 70.1117 16.9906 69.8796 16.9102Z" fill="#000229"/>
<path fill-rule="evenodd" clip-rule="evenodd" d="M64.0621 33.7861C64.3056 33.7861 64.5031 33.9833 64.5031 34.2266H64.0621H63.6211C63.6211 33.9833 63.8185 33.7861 64.0621 33.7861ZM64.5031 36.396V34.2266H64.0621H63.6211V36.3981L63.6211 36.4024C63.6314 37.4623 63.6696 38.7341 63.8078 39.671C63.8748 40.1252 63.9733 40.5649 64.1398 40.8587C64.222 41.0036 64.3639 41.191 64.6007 41.2649C64.8656 41.3476 65.1017 41.2471 65.2658 41.1199C65.5377 40.9091 65.7542 40.5813 65.9299 40.236C66.1103 39.8817 66.2695 39.4646 66.4087 39.0324C66.6873 38.1673 66.8989 37.1995 67.0388 36.4594L67.0393 36.457C67.1067 36.0892 67.1586 35.7757 67.1936 35.5539C67.2112 35.443 67.2245 35.3548 67.2335 35.2942C67.238 35.2639 67.2414 35.2404 67.2437 35.2244L67.2464 35.2061L67.2473 35.1995C67.2811 34.9586 67.1129 34.7358 66.8717 34.702C66.6305 34.6683 66.4076 34.8363 66.3739 35.0772C66.3739 35.0772 66.3739 35.0771 66.3739 35.0772L66.3731 35.0823L66.3707 35.0989C66.3686 35.1137 66.3654 35.136 66.3611 35.165C66.3524 35.2232 66.3395 35.3085 66.3224 35.4165C66.2883 35.6324 66.2377 35.9382 66.1719 36.2971C66.0349 37.0217 65.8313 37.9483 65.569 38.7626C65.4377 39.1703 65.2951 39.5394 65.1437 39.8368C65.0397 40.0412 64.9405 40.1936 64.851 40.2995C64.7907 40.1376 64.731 39.8854 64.6804 39.5426C64.552 38.6723 64.5134 37.4559 64.5031 36.396Z" fill="#000229"/>
<path fill-rule="evenodd" clip-rule="evenodd" d="M22.524 63.6146C22.6595 63.8167 22.6053 64.0903 22.403 64.2256C20.9335 65.2088 20.5548 66.629 20.55 67.8499C20.5476 68.4624 20.6406 69.0148 20.735 69.4154C20.7821 69.6149 20.8291 69.7749 20.8638 69.8835C20.8811 69.9378 20.8953 69.979 20.9048 70.0059C20.9095 70.0193 20.9131 70.0291 20.9154 70.0351L20.9176 70.0412L20.9177 70.0414C20.9178 70.0415 20.9178 70.0416 20.9178 70.0417M20.9178 70.0417C21.0055 70.2685 20.8925 70.5234 20.6655 70.6111C20.4383 70.6988 20.1829 70.586 20.0951 70.3591L20.5064 70.2002C20.0951 70.3591 20.095 70.3589 20.095 70.3587L20.0948 70.3582L20.0943 70.357L20.0929 70.3533L20.0884 70.3414C20.0848 70.3315 20.0797 70.3177 20.0735 70.3001C20.061 70.265 20.0438 70.2148 20.0234 70.1511C19.9828 70.0237 19.9295 69.8417 19.8765 69.6173C19.771 69.17 19.6653 68.5464 19.668 67.8464C19.6735 66.4424 20.1204 64.6924 21.9122 63.4937C22.1145 63.3584 22.3884 63.4125 22.524 63.6146" fill="#000229"/>
<path fill-rule="evenodd" clip-rule="evenodd" d="M18.4056 161.001C17.8467 160.761 17.4124 160.574 17.123 160.467L17.4282 159.641C17.7418 159.756 18.2045 159.955 18.762 160.195C18.8725 160.243 18.9868 160.292 19.1043 160.342C19.823 160.65 20.6841 161.015 21.6259 161.376C23.5155 162.102 25.7044 162.808 27.6942 163.037C28.8307 163.167 29.9566 163.549 30.7453 164.356C31.5505 165.179 31.9411 166.38 31.7218 168L30.8478 167.882C31.0388 166.47 30.6909 165.561 30.1142 164.971C29.5211 164.364 28.6216 164.029 27.5942 163.913L27.5936 163.913C25.4914 163.671 23.2193 162.932 21.3093 162.199C20.3513 161.831 19.4779 161.461 18.7563 161.152C18.6345 161.099 18.5175 161.049 18.4056 161.001Z" fill="#000229"/>
</svg>
