<svg width="109" height="170" viewBox="0 0 109 170" fill="none" xmlns="http://www.w3.org/2000/svg"><path d="M32.811 100.497H9.487a52.767 52.767 0 01.549-11.27c5.293 1.606 12.714 3.284 21.607 5.15l1.239.26c1.916.485 4.277.284 5.317 2.848.093.224.198.614.327 1.04h-.234l-4.242.2a1.228 1.228 0 00-1.013.592 1.263 1.263 0 00-.074 1.18h-.152z" fill="#CAD7E4"/><path d="M35.044 86.9a7.34 7.34 0 00-2.516 3.048 7.264 7.264 0 00-.56 3.898v.284c-9.071-1.867-16.688-3.544-22.04-5.15-5.352-1.607-8.452-3.036-8.952-4.536-3.85-11.564 4.637-34.952 9.083-39.299 2.587-2.516 8.559-4.477 14.996-5.717a4.725 4.725 0 011.478-2.09c.091-.048.187-.088.286-.119a30.067 30.067 0 0111.848 0c.23.06.454.143.668.248a2.655 2.655 0 011.633 2.008s12.04 1.347 14.304 4.17C57.99 47 62.758 58.564 66.716 76.305l-14.865.496a3.784 3.784 0 00-2.393.987 3.721 3.721 0 00-1.183 2.285l-2.384 14.789c-.227-2.043-.381-4.512-2.575-5.162-2.193-.65-5.066-1.654-8.272-2.8zm56.788 70.952h.22v.099c.973.224 7.184 3.636 12.482 4.268 2.545.311 4.944 1.737 4.384 4.963H80.81v-9.392l11.022.062z" fill="#CAD7E4"/><path d="M50.536 137.046c.554 1.478 2.039 7.568 4.713 11.576 1.39 2.046 1.885 4.73-.801 6.35L36.647 134.35l6.503-5.676a93.08 93.08 0 007.54 8.277l-.154.095z" fill="#000229"/><path fill-rule="evenodd" clip-rule="evenodd" d="M10.336 119.792c0-.282.23-.51.513-.51h40.675v1.021H11.363v48.676h59.024v-45.294h1.026v45.805c0 .281-.23.51-.513.51H10.85a.512.512 0 01-.514-.51v-49.698zm16.569-82.458a4.248 4.248 0 00-1.262 1.848.507.507 0 01-.379.332c-3.15.627-6.177 1.426-8.724 2.38-2.56.959-4.584 2.055-5.78 3.25-1.022 1.02-2.333 3.234-3.67 6.233-1.329 2.979-2.656 6.672-3.73 10.594-1.076 3.923-1.894 8.063-2.21 11.938-.315 3.881-.123 7.46.794 10.278.085.258.309.572.746.931.433.356 1.036.727 1.815 1.11 1.558.767 3.75 1.553 6.504 2.368 5.506 1.629 13.18 3.35 22.344 5.264l-.203 1.002c-9.163-1.914-16.873-3.643-22.423-5.284-2.773-.82-5.028-1.626-6.662-2.43-.817-.402-1.496-.812-2.01-1.236-.51-.42-.898-.883-1.069-1.403v-.001C.008 81.505-.176 77.772.145 73.825c.322-3.954 1.155-8.16 2.242-12.127 1.087-3.969 2.432-7.712 3.783-10.742 1.341-3.009 2.716-5.377 3.882-6.54m16.853-7.082a2.57 2.57 0 01.442-.135c.27-.063.62-.127 1.04-.186a32.614 32.614 0 013.093-.265c2.367-.1 5.068.002 6.96.5a2.409 2.409 0 011.237.664c.332.333.562.757.661 1.22a.507.507 0 00.437.4l.015-.137-.015.137.008.001.024.003.035.004.063.008.376.047a71.063 71.063 0 015.65.964c1.61.346 3.274.777 4.667 1.293.696.259 1.314.535 1.819.826.51.294.877.59 1.1.874l.001.002c1.289 1.626 3.114 5.242 5.114 10.74 1.993 5.48 4.143 12.784 6.098 21.744l.986-.221c-1.964-8.998-4.126-16.347-6.137-21.876-2.004-5.51-3.874-9.261-5.273-11.026-.335-.428-.825-.8-1.39-1.126a13.22 13.22 0 00-1.971-.897c-1.457-.54-3.174-.983-4.805-1.334a71.994 71.994 0 00-5.912-1 3.48 3.48 0 00-.842-1.373 3.413 3.413 0 00-1.705-.93c-2.037-.534-4.851-.63-7.243-.53a33.994 33.994 0 00-3.191.275c-.436.062-.82.13-1.128.203-.289.068-.569.152-.756.265a.507.507 0 00-.06.044 5.263 5.263 0 00-1.507 2.053c-3.088.626-6.068 1.42-8.606 2.37-2.6.974-4.788 2.131-6.138 3.481" fill="#000229"/><path fill-rule="evenodd" clip-rule="evenodd" d="M10.72 108.552c-2.277-4.927-2.89-11.49-1.59-20.265l1.023.146c-1.285 8.676-.654 15.02 1.51 19.7 2.154 4.66 5.856 7.734 10.86 9.825a22.258 22.258 0 005.557 1.249l23.597-.094.004 1.014-23.648.094-.025-.002a23.264 23.264 0 01-5.858-1.315l-.01-.004-.012-.005c-5.19-2.166-9.122-5.399-11.407-10.343zm79.98 17.494c-.374-7.449-.769-11.918-1.432-14.997l.993-.22c.684 3.173 1.08 7.724 1.454 15.164.255 5.065.499 11.487.813 19.751.148 3.89.311 8.188.498 12.944l-1.016.041c-.187-4.762-.35-9.063-.498-12.954-.314-8.259-.558-14.671-.812-19.729zm-5.694-50.908h.015c.635.015 1.26.166 1.829.444.57.277 1.07.674 1.467 1.163a4.25 4.25 0 01.829 1.665c.149.606.161 1.237.036 1.848l-3.676 20.317a4.128 4.128 0 01-1.284 2.396 4.243 4.243 0 01-2.52 1.107h-.005l-33.121 2.054h-.012a4.385 4.385 0 01-1.869-.386 4.33 4.33 0 01-1.519-1.139 4.242 4.242 0 01-.874-1.671 4.205 4.205 0 01-.061-1.87l3.324-21.165a4.107 4.107 0 011.322-2.522 4.228 4.228 0 012.671-1.087h.002l33.446-1.154zm.006.992l-33.414 1.153a3.213 3.213 0 00-2.03.825 3.12 3.12 0 00-1.004 1.923l-.001.007-3.33 21.198-.001.009c-.094.478-.078.971.046 1.442s.353.91.67 1.283c.318.373.716.672 1.166.874a3.38 3.38 0 001.423.297l33.084-2.051a3.239 3.239 0 001.912-.842c.525-.485.87-1.129.978-1.829l.001-.006 3.68-20.34.002-.006a3.236 3.236 0 00-.664-2.703 3.329 3.329 0 00-1.127-.894 3.383 3.383 0 00-1.391-.34z" fill="#000229"/><path fill-rule="evenodd" clip-rule="evenodd" d="M34.503 98.88l4.152-.226-.054-.975-4.181.228-.014.002c-.365.04-.708.196-.976.445a1.686 1.686 0 00-.362 1.99c.164.326.43.591.759.755l.02.01 12.773 5.023.364-.907-12.731-5.006a.717.717 0 01-.368-.756.712.712 0 01.618-.583z" fill="#000229"/><path fill-rule="evenodd" clip-rule="evenodd" d="M32.886 100.498l-23.49-.042.003-.898 23.489.042-.002.898zm7.119-8.385a.501.501 0 01.695.199 12.914 12.914 0 011.424 4.161c.065.405.167 1.075.16 1.725-.002.326-.033.67-.12.985-.085.314-.239.64-.516.876l-.001.001c-.245.207-.505.353-.779.41-.283.06-.551.018-.79-.1-.445-.22-.741-.682-.944-1.097-.213-.435-.377-.934-.506-1.358l-.11-.372a7.329 7.329 0 00-.19-.594l-.003-.005c-.462-1.164-1.195-1.688-2.059-1.994-.446-.158-.927-.257-1.438-.349l-.307-.054c-.41-.071-.837-.145-1.243-.248a.529.529 0 01-.375-.637.51.51 0 01.617-.388c.366.092.746.159 1.152.23l.33.057c.518.093 1.067.204 1.595.39 1.084.385 2.077 1.093 2.671 2.59.075.185.159.467.244.758l.09.3c.126.416.27.845.442 1.198.183.373.35.56.475.621.046.023.089.03.146.018.067-.014.178-.06.335-.192.061-.053.13-.156.183-.35.053-.191.079-.433.082-.706.005-.55-.082-1.137-.148-1.542a11.832 11.832 0 00-1.304-3.814.537.537 0 01.192-.72z" fill="#000229"/><path fill-rule="evenodd" clip-rule="evenodd" d="M42.665 91.174c.208-.147.469-.05.584.215.21.489.433 1.338.605 2.285.173.958.303 2.071.31 3.107.007 1.012-.101 2.05-.477 2.777-.195.38-.468.682-.83.834-.357.15-.76.136-1.196-.019-.229-.08-.363-.383-.3-.676.063-.293.3-.465.528-.384.322.114.546.099.7.033.15-.063.276-.189.382-.395.229-.443.342-1.202.335-2.16a17.428 17.428 0 00-.289-2.869c-.165-.914-.366-1.645-.52-2-.114-.266-.04-.601.168-.748z" fill="#000229"/><path fill-rule="evenodd" clip-rule="evenodd" d="M45.64 98.633c.3.051.469.233.38.406-.117.226-.38.376-.696.453a2.869 2.869 0 01-.854.058 3.648 3.648 0 01-.696-.114 1.68 1.68 0 01-.288-.104.707.707 0 01-.15-.096c-.047-.04-.111-.112-.111-.207 0-.18.252-.326.563-.326.195 0 .367.057.468.143h.002c.082.023.21.047.344.056.138.01.234 0 .284-.012.026-.006.04-.01.053-.038.09-.173.404-.27.702-.22zm5.098-42.28l.12.507c.577 2.447 1.318 5.33 2.035 8.12.209.812.416 1.617.616 2.401.882 3.454 1.642 6.53 1.856 8.02l.074.516-.956.16-.074-.516c-.203-1.416-.943-4.419-1.832-7.901l-.614-2.394c-.717-2.79-1.462-5.689-2.043-8.147l-.12-.507.938-.259zM35.706 87.27c-2.125 1.112-3.616 3.137-3.616 6.653h-1.082c0-3.822 1.655-6.203 4.162-7.514l.536.861zm-15.551 16.045a.509.509 0 01.513.506c.098 3.506-1.35 6.142-3.574 7.923-2.207 1.768-5.162 2.686-8.114 2.841a.508.508 0 01-.522-.495.513.513 0 01.472-.547c2.806-.148 5.551-1.02 7.559-2.628 1.99-1.594 3.27-3.92 3.183-7.063a.513.513 0 01.483-.537zM32.9 2.123c-.663.223-1.354.68-2.057 1.462-.847.941-1.409 2.348-1.802 3.901-.365 1.444-.57 2.955-.746 4.24l-.037.269a.506.506 0 01-1.003-.137l.037-.276c.174-1.278.387-2.842.767-4.343.405-1.602 1.016-3.202 2.03-4.328.79-.88 1.622-1.454 2.485-1.745a4.377 4.377 0 012.574-.065c1.656.443 3.199 1.745 4.53 3.32 2.667 3.162 4.709 7.706 5.286 9.952v.001c.293 1.15.097 2.593-.33 4.06-.43 1.483-1.12 3.061-1.888 4.52-.768 1.46-1.624 2.816-2.398 3.853-.386.518-.758.964-1.092 1.306-.32.327-.655.61-.969.735-1.447.574-3.124.161-4.525-.624-1.41-.79-2.66-2.021-3.28-3.288a.507.507 0 01.91-.442c.512 1.047 1.6 2.14 2.867 2.85 1.276.715 2.614.978 3.653.566.102-.04.31-.187.618-.502.294-.3.636-.708 1.005-1.204.74-.99 1.568-2.3 2.314-3.719.748-1.42 1.406-2.933 1.812-4.332.412-1.414.546-2.644.32-3.53-.542-2.111-2.517-6.515-5.08-9.551-1.284-1.523-2.66-2.633-4.015-2.995a3.361 3.361 0 00-1.987.046zm-5.65 14.878a199.868 199.868 0 00-.1 20.49l-.623.078c-.32-6.88-.285-13.792.102-20.663l.621.095z" fill="#000229"/><path fill-rule="evenodd" clip-rule="evenodd" d="M37.184 31.549c-.163-1.098-.32-2.157-.537-3.134l.951-.238c.227 1.017.394 2.14.559 3.257.07.473.14.945.214 1.407.253 1.58.56 3.072 1.094 4.293l-.887.435c-.592-1.355-.916-2.965-1.172-4.555-.079-.493-.151-.983-.222-1.465zm-10.7-21.209c.872.086 1.732.824 2.561 2.218.153.257.094.606-.13.78-.224.174-.53.108-.682-.149-.77-1.294-1.403-1.688-1.833-1.73-.408-.04-.817.223-1.183.806-.363.577-.618 1.376-.708 2.14-.093.792.007 1.394.193 1.68.28.414.735.617 1.282.636.55.02 1.124-.152 1.527-.39.24-.143.537-.036.662.24.125.275.03.613-.21.756a3.82 3.82 0 01-2.01.516c-.728-.026-1.511-.305-2.03-1.077l-.004-.004c-.423-.643-.487-1.62-.383-2.505.107-.915.411-1.896.883-2.647.47-.746 1.171-1.358 2.065-1.27zM49.618.947c-.321-.696-1.026-.91-1.71-.943-.713-.033-1.605.12-2.586.383-1.972.53-4.446 1.552-6.884 2.683-4.406 2.046-8.77 4.489-9.973 5.163l-.276.153.448 1.006.283-.158 9.907-5.128 6.732-2.628 2.307-.352.853.333a.652.652 0 01.02.556c-.083.21-.27.457-.59.73-.638.543-1.642 1.05-2.751 1.485-.56.22-1.137.419-1.687.591a31.172 31.172 0 01-2.603.694 9.931 9.931 0 01-.342.069c-.05.009-.08.013-.095.015l-.01.002h.008v1.122c.073 0 .176-.017.255-.03.098-.018.225-.043.375-.075a29.891 29.891 0 004.436-1.33c1.132-.445 2.26-.998 3.029-1.653.384-.327.719-.714.899-1.168a1.883 1.883 0 00-.045-1.52z" fill="#000229"/><path fill-rule="evenodd" clip-rule="evenodd" d="M27.118 13.324a.574.574 0 01-.03.767 3.156 3.156 0 01-2.143.937c-.277.008-.506-.23-.513-.529-.007-.3.212-.548.488-.555a2.193 2.193 0 001.49-.652.474.474 0 01.708.032z" fill="#000229"/><path d="M34.298 17.846a.47.47 0 100-.94.47.47 0 000 .94zm6.576 0a.47.47 0 100-.94.47.47 0 000 .94z" fill="#000229"/><path fill-rule="evenodd" clip-rule="evenodd" d="M38.68 15.08c.284.123.401.427.262.679-.242.439-.245 1.086-.108 1.87a15.827 15.827 0 00.3 1.309c.08.317.16.631.217.913v.006c.041.218.092.509.108.809.017.294.004.638-.108.951a1.323 1.323 0 01-.81.821c-.43.157-.938.126-1.495-.03-.3-.085-.468-.37-.373-.637.095-.268.416-.416.718-.332.433.122.636.089.713.06.052-.019.11-.058.157-.19.052-.145.07-.347.056-.592a5.594 5.594 0 00-.093-.692 17.763 17.763 0 00-.205-.858 16.711 16.711 0 01-.315-1.382c-.142-.808-.198-1.731.211-2.473.14-.252.482-.356.765-.232zm43.155 142.623a321.483 321.483 0 00-8.505-35.604l-.977.297a320.482 320.482 0 018.553 35.91l.075.423h11.105v-1.026H81.835z" fill="#000229"/><path fill-rule="evenodd" clip-rule="evenodd" d="M91.666 158.161a.506.506 0 01.603-.359 4.7 4.7 0 01.66.222c.27.106.605.245.99.405l.089.037c.76.316 1.716.714 2.79 1.122 2.242.851 4.963 1.732 7.447 2.006l.001.001c1.292.144 2.608.561 3.534 1.382.953.846 1.436 2.073 1.127 3.693a.497.497 0 01-.494.391l-27.096.121a.49.49 0 01-.506-.473c-.002-.262.223-.476.502-.477l26.658-.12c.114-1.119-.268-1.897-.883-2.443-.711-.631-1.789-.999-2.961-1.131-2.621-.289-5.444-1.209-7.706-2.068a92.458 92.458 0 01-2.818-1.134 4.05 4.05 0 00-1.555-.607c-.273-.058-.444-.312-.382-.568z" fill="#000229"/><path fill-rule="evenodd" clip-rule="evenodd" d="M109 169.415c0 .323-.226.585-.505.585h-27.18c-.279 0-.505-.262-.505-.585v-2.587c0-.323.226-.585.505-.585h27.18c.279 0 .505.262.505.585v2.587zm-1.01-.586v-1.415H81.82v1.415h26.17z" fill="#000229"/><path fill-rule="evenodd" clip-rule="evenodd" d="M80.81 167.182v-9.392h.94v9.392h-.94z" fill="#000229"/><path d="M50.785 137.123c.498 1.558 1.802 7.677 4.458 11.624 1.28 1.92 1.814 4.358-.214 6.036a.807.807 0 01-1.126-.085l-17.06-19.783a.832.832 0 01.07-1.147l5.846-5.094" fill="#CAD7E4"/><path fill-rule="evenodd" clip-rule="evenodd" d="M37.757 134.354l5.816-4.918-.66-.762-5.828 4.927-.004.004a1.286 1.286 0 00-.116 1.809l17 19.126.003.002a1.331 1.331 0 001.82.134c1.137-.914 1.573-2.062 1.528-3.237-.045-1.149-.547-2.292-1.217-3.266l-.001-.002c-1.282-1.848-2.25-4.227-2.963-6.357a61.986 61.986 0 01-.877-2.874l-.176-.631c-.147-.527-.267-.96-.36-1.243l-.967.31c.086.26.197.657.34 1.171l.185.662c.234.829.528 1.837.89 2.92.722 2.157 1.726 4.642 3.09 6.608.605.881 1.006 1.843 1.04 2.741.035.872-.273 1.713-1.154 2.42l-.002.002a.306.306 0 01-.218.068.304.304 0 01-.203-.097l-16.99-19.113v-.001a.289.289 0 01.024-.403zm-5.286-111.81c.326-.026.622.126.662.338.074.396.535.627 1.194.722.324.046.655.05.92.027.133-.012.237-.03.309-.048a.525.525 0 00.071-.022.836.836 0 01.83-.014c.24.145.255.39.033.548-.148.104-.339.17-.507.212a3.774 3.774 0 01-.574.093 5.936 5.936 0 01-1.337-.039c-.912-.13-1.958-.527-2.118-1.384-.04-.213.192-.407.517-.433zM17.967 57.316a.499.499 0 01.33.628c-1.255 3.91-2.664 8.325-3.68 11.914-.507 1.796-.914 3.374-1.154 4.575a12.78 12.78 0 00-.223 1.468 2.95 2.95 0 00-.006.439.675.675 0 00.021.135c.008.01.04.047.121.111.103.082.25.183.447.302.392.236.94.52 1.627.845 1.368.649 3.241 1.439 5.4 2.3 4.317 1.72 9.75 3.713 14.52 5.405.264.093.4.38.306.64a.509.509 0 01-.648.301c-4.776-1.693-10.223-3.69-14.557-5.419-2.166-.863-4.062-1.663-5.46-2.325a20.353 20.353 0 01-1.717-.894 5.17 5.17 0 01-.557-.378 1.429 1.429 0 01-.383-.427 1.364 1.364 0 01-.13-.517 3.925 3.925 0 01.005-.59c.032-.432.117-.972.24-1.59.248-1.239.662-2.847 1.172-4.65 1.021-3.609 2.435-8.04 3.69-11.947a.508.508 0 01.636-.326z" fill="#000229"/><path fill-rule="evenodd" clip-rule="evenodd" d="M87.929 93.661a34.792 34.792 0 00-1.847-.65l.303-.967c.644.204 1.275.432 1.9.67h.002c6.718 2.577 9.134 11.235 3.402 16.427-1.054.955-4.015 3.103-7.853 5.782-3.854 2.69-8.628 5.938-13.34 9.104a1362.434 1362.434 0 01-12.979 8.615c-3.593 2.352-6.193 4.016-6.768 4.311l-.338.174-8.126-8.758.326-.346.365.349c-.365-.349-.366-.348-.365-.349l.18-.191.517-.549 1.896-2.011a3242.3 3242.3 0 016.215-6.563c4.827-5.083 10.506-11.023 13.901-14.439l.713.717c-3.386 3.406-9.058 9.338-13.886 14.422a3289.931 3289.931 0 00-6.212 6.561l-1.896 2.01-.371.394 6.95 7.491c.91-.541 3.224-2.026 6.35-4.072 3.608-2.362 8.258-5.445 12.968-8.609 4.71-3.164 9.48-6.409 13.326-9.093 3.861-2.695 6.757-4.802 7.753-5.703 5.09-4.611 3.033-12.379-3.086-14.727zM39.015 15.348l-.265-.52c-.228.185-.293.568-.146.856.146.287.45.37.676.185m0 0h.001l.01-.008.046-.035a3.068 3.068 0 01.807-.418c.495-.156.956-.114 1.284.352.18.256.49.278.692.05.202-.227.22-.619.04-.874-.686-.975-1.613-.933-2.254-.73a3.986 3.986 0 00-1.146.613l-.007.005-.002.002h-.001l.265.522m-4.247.378c-.405 0-.804.069-1.164.202-.24.089-.536.022-.66-.15-.125-.17-.031-.381.209-.47a4.688 4.688 0 011.615-.28c.562 0 1.116.096 1.615.28.24.089.334.3.21.47-.125.172-.42.239-.661.15a3.377 3.377 0 00-1.164-.202zm18.364 141.118a.51.51 0 01-.718-.049l-17.962-20.633a.507.507 0 01.05-.716l1.694-1.474a.508.508 0 01.717.05l17.962 20.632a.508.508 0 01-.05.717l-1.694 1.473zm-.284-1.1l.927-.806-17.295-19.866-.927.807 17.295 19.865z" fill="#000229"/><path d="M77.992.94c3.069 0 5.898.755 8.49 2.267a16.834 16.834 0 016.155 6.152c1.513 2.59 2.269 5.42 2.269 8.486 0 3.067-.756 5.896-2.269 8.486a16.833 16.833 0 01-6.155 6.153c-2.591 1.512-5.421 2.267-8.49 2.267s-5.899-.755-8.49-2.267a16.834 16.834 0 01-6.155-6.153c-1.513-2.59-2.269-5.419-2.269-8.486 0-3.067.756-5.896 2.268-8.486a16.834 16.834 0 016.156-6.152c2.591-1.512 5.421-2.268 8.49-2.268zm6.034 11.468c-.03.015-.099.084-.209.21-.11.124-.21.194-.297.208.03 0 .062-.036.099-.11a3.79 3.79 0 00.11-.242.68.68 0 01.077-.154c.088-.103.25-.213.484-.33.206-.088.588-.176 1.146-.264.499-.118.873-.037 1.123.242-.03-.03.04-.125.21-.286.168-.162.274-.25.319-.264.044-.03.154-.063.33-.1.176-.036.286-.091.33-.165l.044-.484c-.176.015-.304-.037-.385-.154a.932.932 0 01-.143-.462c0 .029-.044.088-.132.176 0-.103-.034-.162-.1-.176a.53.53 0 00-.253.022c-.103.029-.169.036-.198.022a.865.865 0 01-.33-.165c-.074-.066-.133-.188-.177-.364a6.186 6.186 0 00-.088-.33.657.657 0 00-.209-.242.782.782 0 01-.21-.22 2.435 2.435 0 01-.054-.121 2.69 2.69 0 00-.066-.143.467.467 0 00-.088-.121.168.168 0 00-.121-.055c-.044 0-.096.036-.155.11a4.33 4.33 0 00-.165.22c-.051.073-.084.11-.099.11a.18.18 0 00-.132-.033.701.701 0 00-.1.022.37.37 0 00-.098.066.617.617 0 01-.298.143c-.08.015-.143.03-.187.044.22-.073.213-.154-.022-.242-.147-.059-.264-.08-.352-.066.132-.059.187-.147.165-.264a.53.53 0 00-.187-.309h.11c-.015-.058-.077-.12-.187-.187a2.695 2.695 0 00-.386-.187 1.901 1.901 0 01-.286-.132c-.117-.073-.367-.143-.749-.209s-.624-.07-.727-.01c-.073.087-.106.164-.099.23.008.066.037.169.088.308.052.14.078.232.078.276.014.088-.026.183-.122.286-.095.102-.143.19-.143.264 0 .103.103.216.309.341.205.125.279.283.22.473-.044.118-.162.235-.352.353-.191.117-.309.205-.353.264a.46.46 0 00-.033.407.796.796 0 00.231.363c.03.03.04.059.033.088-.007.03-.033.063-.077.1a1 1 0 01-.12.087 2.179 2.179 0 01-.144.077l-.066.044c-.162.074-.312.03-.452-.132a1.423 1.423 0 01-.297-.572c-.103-.367-.22-.587-.352-.66-.338-.118-.55-.11-.639.022-.073-.191-.374-.382-.903-.573-.367-.132-.793-.161-1.277-.088.088-.014.088-.125 0-.33-.103-.22-.242-.308-.419-.264.044-.088.074-.217.088-.385.015-.17.023-.268.023-.298.043-.19.132-.36.264-.506a4.192 4.192 0 00.363-.484c.052-.088.055-.132.011-.132.514.059.881-.022 1.101-.242.074-.074.158-.198.254-.375.095-.176.172-.3.23-.374.133-.088.236-.128.31-.12a.97.97 0 01.319.12c.139.074.245.11.319.11.205.015.32-.066.341-.242a.478.478 0 00-.165-.44c.176.015.198-.11.066-.374a.478.478 0 00-.176-.198c-.176-.06-.374-.022-.595.11-.117.058-.103.117.044.176-.014-.015-.084.062-.209.23a1.864 1.864 0 01-.363.386c-.118.088-.235.051-.353-.11a1.778 1.778 0 01-.12-.297c-.067-.184-.137-.283-.21-.297-.118 0-.235.11-.352.33.044-.118-.037-.228-.243-.33a1.584 1.584 0 00-.528-.176c.279-.177.22-.375-.176-.595-.103-.059-.254-.095-.452-.11s-.341.015-.43.088a.593.593 0 00-.12.253c-.008.066.029.125.11.176.08.052.157.092.23.122.074.029.159.058.254.088.096.029.158.05.187.066.206.146.265.25.177.308-.03.014-.092.04-.188.077l-.253.099c-.073.03-.117.059-.132.088-.044.059-.044.161 0 .308s.03.25-.044.308c-.073-.073-.14-.201-.198-.385-.059-.183-.11-.304-.154-.363.102.132-.081.176-.551.132l-.22-.022c-.059 0-.177.015-.353.044-.176.03-.326.037-.451.022a.41.41 0 01-.297-.176c-.06-.118-.06-.264 0-.44.014-.06.044-.074.088-.044a3.29 3.29 0 01-.243-.21 2.159 2.159 0 00-.22-.187 12.47 12.47 0 00-2.07.903.543.543 0 00.264-.022c.074-.03.17-.077.287-.143a5.25 5.25 0 01.22-.121c.499-.206.807-.257.925-.154l.11-.11c.205.234.352.418.44.55-.102-.059-.323-.066-.66-.022-.294.088-.456.176-.485.264.103.176.14.308.11.396a3.418 3.418 0 01-.253-.22 1.748 1.748 0 00-.32-.242.88.88 0 00-.33-.11c-.235 0-.396.007-.484.022a13.895 13.895 0 00-5.176 4.887c.103.103.191.161.265.176.058.015.095.08.11.198a.84.84 0 00.055.242c.022.044.106.022.253-.066.132.118.154.257.066.418.015-.014.338.184.97.595.278.25.432.403.462.462.044.162-.03.294-.22.396a1.122 1.122 0 00-.199-.198c-.117-.103-.183-.132-.198-.088-.044.073-.04.21.011.407.051.198.129.29.231.275-.103 0-.172.118-.209.353a5.084 5.084 0 00-.055.781c0 .286-.007.459-.022.518l.044.021c-.044.177-.004.43.121.76s.283.473.474.43c-.191.043-.044.359.44.946.088.117.147.183.176.198.044.03.132.084.265.165.132.08.242.154.33.22a.939.939 0 01.22.231c.059.074.132.239.22.496.089.256.191.429.309.517-.03.088.04.235.209.44.169.206.246.374.231.506a.107.107 0 00-.055.023.108.108 0 01-.055.021c.044.103.158.206.341.309.184.102.298.198.342.286.014.044.03.117.044.22a.809.809 0 00.066.242c.03.059.088.073.176.044.03-.293-.147-.748-.528-1.365a18.22 18.22 0 01-.375-.638 1.265 1.265 0 01-.121-.341 1.682 1.682 0 00-.1-.32.42.42 0 01.133.034c.059.022.121.047.187.077.066.029.121.058.165.088.044.029.06.051.044.066-.044.102-.029.23.044.385.074.154.162.29.265.407a29.114 29.114 0 00.638.705c.088.088.191.23.309.429.117.198.117.297 0 .297.132 0 .279.077.44.231.162.154.287.297.375.43.073.117.132.308.176.572.044.264.08.44.11.528.03.103.092.202.187.297.096.096.187.165.275.21l.353.176.286.154c.073.029.21.106.407.23.199.125.357.21.474.254.147.059.264.088.352.088.088 0 .195-.018.32-.055a3.68 3.68 0 01.297-.077c.22-.03.433.08.639.33.205.25.36.404.462.462.529.28.932.36 1.212.242-.03.015-.026.07.01.165.037.096.096.21.177.342a21.583 21.583 0 00.319.506 2.1 2.1 0 00.396.33c.191.132.323.242.397.33.088-.058.14-.124.154-.198-.044.118.007.265.154.44.147.177.28.25.397.22.205-.043.308-.278.308-.704-.455.22-.815.088-1.08-.396a.427.427 0 00-.054-.121 1.404 1.404 0 01-.144-.374.314.314 0 010-.165c.015-.044.052-.066.11-.066.133 0 .206-.026.22-.077.016-.052 0-.143-.043-.276a4.484 4.484 0 01-.088-.286c-.015-.117-.096-.264-.242-.44a5.909 5.909 0 01-.265-.33c-.073.132-.19.19-.352.176-.162-.015-.28-.08-.353-.198a.602.602 0 01-.033.12.525.525 0 00-.033.144c-.19 0-.3-.007-.33-.022.015-.044.033-.173.055-.385a3.74 3.74 0 01.077-.496 1.27 1.27 0 01.121-.264 4.51 4.51 0 00.166-.319c.043-.095.073-.187.088-.275.014-.088-.019-.158-.1-.21-.08-.05-.209-.069-.385-.054-.279.014-.47.161-.573.44a4.583 4.583 0 00-.066.231.747.747 0 01-.11.253.55.55 0 01-.198.154c-.103.044-.279.06-.528.044-.25-.014-.426-.051-.529-.11-.19-.117-.356-.33-.495-.638-.14-.308-.21-.58-.21-.814 0-.147.019-.342.055-.584a6.61 6.61 0 00.066-.55c.008-.125-.033-.305-.12-.54a1.11 1.11 0 00.197-.209 1.34 1.34 0 01.22-.23.39.39 0 01.1-.034.223.223 0 01.099 0c.03.007.059-.004.088-.033a.28.28 0 00.066-.132.648.648 0 00-.088-.066c-.044-.044-.074-.066-.088-.066.103.044.312.033.627-.033.316-.066.518-.055.606.033.22.161.382.147.485-.044 0-.015-.019-.084-.055-.21-.037-.124-.04-.223-.011-.296.073.396.286.462.638.198.044.044.158.08.342.11.183.03.312.066.385.11.044.03.095.07.154.121.059.051.1.084.121.1.022.014.059.01.11-.012a.667.667 0 00.188-.143c.147.205.234.382.264.528.161.587.3.91.418.969.103.044.184.059.243.044.058-.015.091-.084.099-.21a2.118 2.118 0 000-.307 5.397 5.397 0 00-.033-.276l-.022-.176v-.396l-.022-.176c-.22-.044-.356-.132-.408-.264a.472.472 0 01.033-.407c.074-.14.184-.276.33-.408a.72.72 0 01.177-.077c.103-.036.216-.084.341-.143a.99.99 0 00.275-.176c.309-.279.419-.536.33-.77.103 0 .184-.066.243-.198-.015 0-.051-.023-.11-.067a1.602 1.602 0 00-.165-.11.3.3 0 00-.1-.044c.133-.073.147-.19.045-.352.073-.044.128-.125.165-.242.037-.117.092-.19.165-.22.132.176.286.19.463.044.117-.117.124-.235.022-.352.073-.103.223-.18.451-.231.228-.052.363-.122.407-.21.103.03.162.015.177-.044.014-.058.022-.146.022-.264 0-.117.022-.205.066-.264.058-.073.169-.14.33-.198a4.14 4.14 0 00.286-.11l.375-.242c.044-.059.044-.088 0-.088a.797.797 0 00.682-.242c.147-.162.103-.309-.132-.44.044-.089.022-.158-.066-.21a1.153 1.153 0 00-.33-.12.8.8 0 01.253-.012c.125.008.202-.004.231-.033.22-.147.17-.264-.154-.352-.25-.074-.565.015-.947.264zm-3.59 19.306c3.025-.529 5.602-1.916 7.73-4.16-.043-.045-.135-.078-.275-.1a.794.794 0 01-.275-.077 3.445 3.445 0 00-.528-.176.43.43 0 00-.056-.286.587.587 0 00-.176-.198 11.236 11.236 0 00-.275-.176 11.698 11.698 0 01-.242-.155 2.537 2.537 0 00-.154-.132 7.584 7.584 0 00-.155-.12 1.563 1.563 0 00-.165-.1c-.08-.044-.143-.058-.187-.044a.771.771 0 01-.22.022l-.066.022a.606.606 0 00-.121.055 1.792 1.792 0 01-.122.066.227.227 0 00-.088.066c-.014.022-.014.04 0 .055-.308-.25-.572-.41-.793-.484a.622.622 0 01-.242-.121 2.08 2.08 0 00-.231-.154.322.322 0 00-.22-.033.503.503 0 00-.254.154.527.527 0 00-.132.33 1.564 1.564 0 01-.044.286c-.102-.073-.102-.202 0-.385.103-.183.118-.32.044-.407-.044-.088-.12-.121-.23-.1a.737.737 0 00-.265.1c-.066.044-.15.106-.253.187a1.9 1.9 0 01-.199.143 2.371 2.371 0 00-.187.121.742.742 0 00-.187.165 1.088 1.088 0 00-.132.264 1.33 1.33 0 01-.11.242c-.03-.058-.114-.106-.254-.143-.139-.036-.209-.077-.209-.12.03.146.059.403.088.77.03.367.066.645.11.836.103.455.015.807-.264 1.057-.396.367-.61.66-.638.88-.06.323.029.514.264.573 0 .102-.059.253-.176.451-.118.198-.17.356-.155.473 0 .088.015.206.044.353z" fill="#000229"/></svg>4088 79.2974 15.0108 78.6351C14.313 78.3045 13.729 78.0033 13.2944 77.7413C13.0775 77.6107 12.8881 77.484 12.7371 77.3629C12.5978 77.2514 12.4441 77.1082 12.3544 76.936C12.2695 76.7731 12.2371 76.5858 12.2236 76.4191C12.2095 76.2435 12.2132 76.0437 12.2291 75.8281C12.261 75.3966 12.3455 74.8574 12.469 74.2391C12.7165 73.0001 13.1313 71.392 13.6414 69.589C14.6622 65.9804 16.0764 61.5489 17.3312 57.6419C17.4157 57.3786 17.7006 57.2328 17.9674 57.3162Z" fill="#000229"/>
<path fill-rule="evenodd" clip-rule="evenodd" d="M87.9289 93.6611C87.3132 93.4274 86.7021 93.2071 86.082 93.0108L86.3845 92.0442C87.0292 92.2484 87.6596 92.4758 88.2852 92.7133L88.2869 92.7139C95.0047 95.2913 97.4213 103.949 91.689 109.141C90.6347 110.096 87.6744 112.244 83.8359 114.923C79.9824 117.613 75.208 120.861 70.4952 124.027C65.7821 127.193 61.1288 130.278 57.517 132.642C53.9241 134.994 51.3239 136.658 50.7488 136.953L50.4106 137.127L42.2852 128.369L42.6105 128.023L42.9764 128.372C42.6105 128.023 42.6104 128.024 42.6105 128.023L42.7911 127.832C42.9094 127.706 43.0837 127.521 43.308 127.283C43.7567 126.807 44.4051 126.119 45.2043 125.272C46.8029 123.579 49.005 121.251 51.419 118.709C56.2458 113.626 61.9247 107.686 65.3204 104.27L66.0327 104.987C62.6465 108.393 56.9753 114.325 52.1474 119.409C49.7342 121.95 47.5328 124.278 45.9348 125.97C45.1357 126.817 44.4875 127.504 44.0391 127.98C43.8938 128.134 43.7694 128.266 43.6677 128.374L50.6175 135.865C51.5272 135.324 53.8425 133.839 56.9676 131.793C60.5756 129.431 65.2256 126.348 69.9357 123.184C74.6461 120.02 79.4151 116.775 83.2617 114.091C87.1231 111.396 90.0195 109.289 91.015 108.388C96.1053 103.777 94.048 96.0095 87.9289 93.6611Z" fill="#000229"/>
<path fill-rule="evenodd" clip-rule="evenodd" d="M39.0152 15.3479L38.7497 14.8271C38.5224 15.0127 38.457 15.3962 38.6037 15.6838C38.7502 15.9713 39.0532 16.0541 39.2804 15.8689M39.2807 15.8686L39.281 15.8684L39.2909 15.8607C39.3006 15.8532 39.3162 15.8412 39.3373 15.8259C39.3796 15.7951 39.4429 15.7511 39.5226 15.7016C39.6838 15.6015 39.9029 15.4849 40.1437 15.4085C40.6388 15.2515 41.1005 15.2936 41.4284 15.7599C41.6082 16.0156 41.9178 16.0384 42.1199 15.8108C42.3219 15.5833 42.3399 15.1915 42.1601 14.9358C41.4744 13.9608 40.5465 14.003 39.9055 14.2062C39.5783 14.31 39.2926 14.4637 39.0911 14.5888C38.9895 14.6519 38.907 14.7092 38.8488 14.7516C38.8196 14.7728 38.7963 14.7905 38.7796 14.8034C38.7713 14.8099 38.7646 14.8152 38.7596 14.8192L38.7533 14.8242L38.7512 14.8259L38.7504 14.8266L38.75 14.8268C38.7498 14.827 38.7497 14.8271 39.0152 15.3479" fill="#000229"/>
<path fill-rule="evenodd" clip-rule="evenodd" d="M34.768 15.7257C34.3628 15.7257 33.9636 15.795 33.604 15.928C33.3639 16.0167 33.0683 15.9499 32.9438 15.7788C32.8192 15.6077 32.9129 15.397 33.153 15.3083C33.652 15.1239 34.2059 15.0276 34.768 15.0276C35.3301 15.0276 35.8839 15.1239 36.3829 15.3083C36.623 15.397 36.7167 15.6077 36.5922 15.7788C36.4677 15.9499 36.1721 16.0167 35.932 15.928C35.5723 15.795 35.1731 15.7257 34.768 15.7257Z" fill="#000229"/>
<path fill-rule="evenodd" clip-rule="evenodd" d="M53.1315 156.844C52.9197 157.028 52.5987 157.006 52.4144 156.795L34.4521 136.162C34.2678 135.951 34.2901 135.63 34.5018 135.446L36.196 133.972C36.4077 133.788 36.7287 133.81 36.913 134.022L54.8753 154.654C55.0596 154.866 55.0373 155.186 54.8256 155.371L53.1315 156.844ZM52.8476 155.744L53.7749 154.938L36.4798 135.072L35.5525 135.879L52.8476 155.744Z" fill="#000229"/>
<path d="M77.9919 0.939209C81.0605 0.939209 83.8905 1.69499 86.4818 3.20656C89.0732 4.71813 91.1251 6.76902 92.6373 9.35923C94.1496 11.9494 94.9057 14.7781 94.9057 17.8453C94.9057 20.9124 94.1496 23.7411 92.6373 26.3313C91.1251 28.9216 89.0732 30.9724 86.4818 32.484C83.8905 33.9956 81.0605 34.7514 77.9919 34.7514C74.9234 34.7514 72.0934 33.9956 69.502 32.484C66.9106 30.9724 64.8588 28.9216 63.3465 26.3313C61.8343 23.7411 61.0781 20.9124 61.0781 17.8453C61.0781 14.7781 61.8343 11.9494 63.3465 9.35923C64.8588 6.76902 66.9106 4.71813 69.502 3.20656C72.0934 1.69499 74.9234 0.939209 77.9919 0.939209ZM84.0263 12.408C83.9969 12.4227 83.9272 12.4924 83.817 12.6172C83.7069 12.7419 83.6078 12.8116 83.5197 12.8263C83.5491 12.8263 83.5821 12.7896 83.6188 12.7162C83.6555 12.6429 83.6922 12.5621 83.729 12.4741C83.7657 12.386 83.7914 12.3347 83.806 12.32C83.8941 12.2173 84.0556 12.1072 84.2905 11.9898C84.4961 11.9017 84.8778 11.8137 85.4357 11.7256C85.9349 11.6082 86.3093 11.6889 86.5589 11.9678C86.5296 11.9384 86.5993 11.843 86.7682 11.6816C86.937 11.5202 87.0434 11.4321 87.0875 11.4175C87.1315 11.3881 87.2416 11.3551 87.4178 11.3184C87.594 11.2817 87.7041 11.2267 87.7482 11.1533L87.7922 10.669C87.616 10.6837 87.4876 10.6323 87.4068 10.5149C87.3261 10.3975 87.2784 10.2434 87.2637 10.0526C87.2637 10.082 87.2196 10.1407 87.1315 10.2287C87.1315 10.126 87.0985 10.0673 87.0324 10.0526C86.9664 10.038 86.8819 10.0453 86.7792 10.0747C86.6764 10.104 86.6103 10.1113 86.581 10.0967C86.4341 10.0526 86.324 9.99761 86.2506 9.93157C86.1772 9.86553 86.1185 9.74446 86.0744 9.56835C86.0304 9.39225 86.001 9.28218 85.9863 9.23816C85.957 9.16478 85.8872 9.08406 85.7771 8.99601C85.667 8.90796 85.5973 8.83458 85.5679 8.77588C85.5532 8.74653 85.5349 8.70617 85.5128 8.65481C85.4908 8.60344 85.4688 8.55575 85.4468 8.51172C85.4247 8.4677 85.3954 8.42734 85.3587 8.39065C85.322 8.35396 85.2816 8.33562 85.2375 8.33562C85.1935 8.33562 85.1421 8.37231 85.0834 8.44568C85.0247 8.51906 84.9696 8.59244 84.9182 8.66581C84.8668 8.73919 84.8338 8.77588 84.8191 8.77588C84.7751 8.74653 84.731 8.73552 84.687 8.74286C84.6429 8.7502 84.6099 8.75754 84.5879 8.76487C84.5658 8.77221 84.5328 8.79422 84.4888 8.83091C84.4447 8.8676 84.408 8.89328 84.3786 8.90796C84.3346 8.93731 84.2722 8.95932 84.1914 8.974C84.1107 8.98867 84.0483 9.00335 84.0042 9.01802C84.2245 8.94465 84.2171 8.86393 83.9822 8.77588C83.8354 8.71718 83.7179 8.69516 83.6298 8.70984C83.762 8.65114 83.817 8.56309 83.795 8.44568C83.773 8.32828 83.7106 8.22555 83.6078 8.1375H83.7179C83.7033 8.0788 83.6409 8.01643 83.5307 7.95039C83.4206 7.88435 83.2922 7.82198 83.1453 7.76328C82.9985 7.70457 82.9031 7.66055 82.859 7.6312C82.7416 7.55782 82.492 7.48811 82.1103 7.42207C81.7285 7.35603 81.4863 7.35236 81.3835 7.41107C81.3101 7.49912 81.277 7.57616 81.2844 7.6422C81.2917 7.70824 81.3211 7.81097 81.3725 7.95039C81.4239 8.0898 81.4496 8.18153 81.4496 8.22555C81.4642 8.3136 81.4239 8.40899 81.3284 8.51172C81.233 8.61445 81.1853 8.7025 81.1853 8.77588C81.1853 8.87861 81.2881 8.99234 81.4936 9.11708C81.6992 9.24182 81.7726 9.39958 81.7138 9.59037C81.6698 9.70777 81.5523 9.82517 81.3615 9.94258C81.1706 10.06 81.0531 10.148 81.0091 10.2067C80.9357 10.3241 80.9247 10.4599 80.9761 10.614C81.0274 10.7681 81.1045 10.8891 81.2073 10.9772C81.2367 11.0065 81.2477 11.0359 81.2403 11.0652C81.233 11.0946 81.2073 11.1276 81.1633 11.1643C81.1192 11.201 81.0788 11.2303 81.0421 11.2524C81.0054 11.2744 80.9577 11.3001 80.899 11.3294L80.8329 11.3734C80.6714 11.4468 80.5209 11.4028 80.3814 11.2413C80.242 11.0799 80.1428 10.8891 80.0841 10.669C79.9813 10.3021 79.8639 10.082 79.7317 10.0086C79.3941 9.89121 79.1812 9.89855 79.0931 10.0306C79.0197 9.83985 78.7187 9.64907 78.1901 9.45829C77.8231 9.32621 77.3973 9.29686 76.9128 9.37023C77.0009 9.35556 77.0009 9.24549 76.9128 9.04004C76.81 8.81991 76.6705 8.73185 76.4943 8.77588C76.5384 8.68783 76.5678 8.55942 76.5824 8.39065C76.5971 8.22188 76.6045 8.12282 76.6045 8.09347C76.6485 7.90269 76.7366 7.73393 76.8687 7.58717C76.8834 7.5725 76.9348 7.51013 77.0229 7.40006C77.111 7.28999 77.1807 7.19094 77.2321 7.10288C77.2835 7.01483 77.2872 6.9708 77.2431 6.9708C77.757 7.02951 78.1241 6.94879 78.3443 6.72866C78.4177 6.65528 78.5021 6.53054 78.5976 6.35444C78.693 6.17833 78.7701 6.05359 78.8288 5.98021C78.9609 5.89216 79.0637 5.8518 79.1371 5.85914C79.2105 5.86648 79.317 5.90684 79.4565 5.98021C79.5959 6.05359 79.7024 6.09028 79.7758 6.09028C79.9813 6.10495 80.0951 6.02424 80.1172 5.84813C80.1392 5.67203 80.0841 5.52528 79.952 5.40787C80.1282 5.42255 80.1502 5.29781 80.018 5.03365C79.9593 4.93092 79.9006 4.86488 79.8419 4.83553C79.6657 4.77683 79.4675 4.81352 79.2472 4.9456C79.1298 5.0043 79.1445 5.063 79.2913 5.1217C79.2766 5.10703 79.2069 5.18407 79.0821 5.35284C78.9573 5.52161 78.8361 5.65002 78.7187 5.73807C78.6012 5.82612 78.4838 5.78943 78.3663 5.628C78.3516 5.61333 78.3113 5.51427 78.2452 5.33083C78.1791 5.14738 78.1094 5.04832 78.036 5.03365C77.9185 5.03365 77.8011 5.14371 77.6836 5.36385C77.7276 5.24644 77.6469 5.13638 77.4413 5.03365C77.2358 4.93092 77.0596 4.87222 76.9128 4.85754C77.1917 4.68144 77.133 4.48332 76.7366 4.26319C76.6338 4.20449 76.4833 4.1678 76.2851 4.15312C76.0869 4.13845 75.9438 4.1678 75.8557 4.24118C75.7823 4.3439 75.7419 4.42829 75.7345 4.49433C75.7272 4.56037 75.7639 4.61907 75.8447 4.67043C75.9254 4.7218 76.0025 4.76215 76.0759 4.7915C76.1493 4.82086 76.2337 4.85021 76.3292 4.87956C76.4246 4.90891 76.487 4.93092 76.5164 4.9456C76.7219 5.09235 76.7806 5.19508 76.6926 5.25378C76.6632 5.26846 76.6008 5.29414 76.5054 5.33083C76.4099 5.36752 76.3255 5.40053 76.2521 5.42989C76.1787 5.45924 76.1346 5.48859 76.1199 5.51794C76.0759 5.57664 76.0759 5.67937 76.1199 5.82612C76.164 5.97288 76.1493 6.0756 76.0759 6.13431C76.0025 6.06093 75.9364 5.93252 75.8777 5.74908C75.819 5.56563 75.7676 5.44456 75.7235 5.38586C75.8263 5.51794 75.6428 5.56196 75.173 5.51794L74.9527 5.49592C74.894 5.49592 74.7765 5.5106 74.6004 5.53995C74.4242 5.5693 74.2737 5.57664 74.1489 5.56196C74.0241 5.54729 73.925 5.48859 73.8516 5.38586C73.7928 5.26846 73.7928 5.1217 73.8516 4.9456C73.8662 4.8869 73.8956 4.87222 73.9397 4.90157C73.8809 4.85754 73.8002 4.78784 73.6974 4.69245C73.5946 4.59706 73.5212 4.53469 73.4772 4.50533C72.8018 4.72547 72.1117 5.02631 71.407 5.40787C71.4951 5.42255 71.5832 5.41521 71.6713 5.38586C71.7447 5.35651 71.8401 5.30881 71.9576 5.24277C72.075 5.17673 72.1484 5.13638 72.1778 5.1217C72.677 4.91625 72.9853 4.86488 73.1028 4.96761L73.2129 4.85754C73.4184 5.09235 73.5653 5.27579 73.6534 5.40787C73.5506 5.34917 73.3303 5.34183 72.9927 5.38586C72.699 5.47391 72.5375 5.56196 72.5081 5.65002C72.6109 5.82612 72.6476 5.9582 72.6183 6.04625C72.5595 6.00223 72.4751 5.92885 72.365 5.82612C72.2549 5.72339 72.1484 5.64268 72.0457 5.58398C71.9429 5.52528 71.8328 5.48859 71.7153 5.47391C71.4804 5.47391 71.3189 5.48125 71.2308 5.49592C69.0872 6.66996 67.3621 8.29893 66.0554 10.3828C66.1581 10.4856 66.2462 10.5443 66.3196 10.5589C66.3784 10.5736 66.4151 10.6397 66.4298 10.7571C66.4444 10.8745 66.4628 10.9552 66.4848 10.9992C66.5068 11.0432 66.5913 11.0212 66.7381 10.9332C66.8702 11.0506 66.8922 11.19 66.8041 11.3514C66.8188 11.3367 67.1418 11.5349 67.7732 11.9458C68.0521 12.1953 68.2063 12.3493 68.2357 12.408C68.2797 12.5695 68.2063 12.7016 68.0154 12.8043C68.0007 12.7749 67.9347 12.7089 67.8172 12.6062C67.6998 12.5034 67.6337 12.4741 67.619 12.5181C67.575 12.5915 67.5786 12.7272 67.63 12.9254C67.6814 13.1235 67.7585 13.2152 67.8613 13.2005C67.7585 13.2005 67.6887 13.3179 67.652 13.5527C67.6153 13.7875 67.597 14.048 67.597 14.3342C67.597 14.6204 67.5896 14.7928 67.575 14.8515L67.619 14.8735C67.575 15.0496 67.6153 15.3028 67.7401 15.633C67.8649 15.9632 68.0228 16.1062 68.2136 16.0622C68.0228 16.1062 68.1696 16.4218 68.6541 17.0088C68.7422 17.1262 68.8009 17.1922 68.8303 17.2069C68.8743 17.2363 68.9624 17.2913 69.0946 17.372C69.2267 17.4527 69.3368 17.5261 69.4249 17.5921C69.513 17.6582 69.5864 17.7352 69.6451 17.8233C69.7039 17.8966 69.7773 18.0617 69.8654 18.3186C69.9535 18.5754 70.0562 18.7478 70.1737 18.8359C70.1443 18.9239 70.2141 19.0707 70.3829 19.2761C70.5518 19.4816 70.6288 19.6504 70.6142 19.7824C70.5995 19.7824 70.5811 19.7898 70.5591 19.8045C70.5371 19.8191 70.5187 19.8265 70.504 19.8265C70.5481 19.9292 70.6619 20.0319 70.8454 20.1346C71.0289 20.2374 71.1427 20.3328 71.1868 20.4208C71.2014 20.4648 71.2161 20.5382 71.2308 20.641C71.2455 20.7437 71.2675 20.8244 71.2969 20.8831C71.3262 20.9418 71.385 20.9565 71.4731 20.9271C71.5024 20.6336 71.3262 20.1787 70.9445 19.5623C70.7243 19.1954 70.5995 18.9826 70.5701 18.9239C70.5261 18.8506 70.4857 18.7368 70.449 18.5827C70.4123 18.4286 70.3792 18.3222 70.3499 18.2635C70.3792 18.2635 70.4233 18.2745 70.482 18.2966C70.5407 18.3186 70.6031 18.3442 70.6692 18.3736C70.7353 18.403 70.7903 18.4323 70.8344 18.4617C70.8784 18.491 70.8931 18.513 70.8784 18.5277C70.8344 18.6304 70.8491 18.7588 70.9225 18.9129C70.9959 19.067 71.084 19.2028 71.1868 19.3202C71.2895 19.4376 71.4143 19.577 71.5612 19.7384C71.708 19.8998 71.7961 19.9952 71.8254 20.0246C71.9135 20.1126 72.0163 20.2557 72.1338 20.4538C72.2512 20.652 72.2512 20.751 72.1338 20.751C72.2659 20.751 72.4127 20.8281 72.5742 20.9822C72.7357 21.1362 72.8605 21.2793 72.9486 21.4114C73.022 21.5288 73.0808 21.7196 73.1248 21.9838C73.1688 22.2479 73.2056 22.424 73.2349 22.5121C73.2643 22.6148 73.3267 22.7139 73.4221 22.8092C73.5175 22.9046 73.6093 22.9743 73.6974 23.0184L74.0498 23.1945L74.3361 23.3486C74.4095 23.3779 74.5453 23.455 74.7435 23.5797C74.9417 23.7044 75.0995 23.7888 75.217 23.8329C75.3638 23.8916 75.4813 23.9209 75.5694 23.9209C75.6575 23.9209 75.7639 23.9026 75.8887 23.8659C76.0135 23.8292 76.1126 23.8035 76.186 23.7888C76.4062 23.7595 76.6191 23.8695 76.8247 24.119C77.0302 24.3685 77.1844 24.5226 77.2872 24.5813C77.8157 24.8601 78.2195 24.9408 78.4985 24.8234C78.4691 24.8381 78.4728 24.8932 78.5095 24.9885C78.5462 25.0839 78.6049 25.1977 78.6856 25.3297C78.7664 25.4618 78.8325 25.5682 78.8839 25.6489C78.9352 25.7297 78.9756 25.792 79.005 25.836C79.0784 25.9241 79.2105 26.0342 79.4014 26.1662C79.5923 26.2983 79.7244 26.4084 79.7978 26.4964C79.8859 26.4377 79.9373 26.3717 79.952 26.2983C79.9079 26.4157 79.9593 26.5625 80.1061 26.7386C80.253 26.9147 80.3851 26.9881 80.5026 26.9587C80.7081 26.9147 80.8109 26.6799 80.8109 26.2543C80.3557 26.4744 79.996 26.3424 79.7317 25.8581C79.7317 25.8434 79.7134 25.803 79.6767 25.737C79.64 25.6709 79.6106 25.6086 79.5886 25.5499C79.5666 25.4912 79.5482 25.4288 79.5335 25.3628C79.5189 25.2967 79.5189 25.2417 79.5335 25.1977C79.5482 25.1536 79.5849 25.1316 79.6437 25.1316C79.7758 25.1316 79.8492 25.1059 79.8639 25.0546C79.8786 25.0032 79.8639 24.9115 79.8198 24.7794C79.7758 24.6473 79.7464 24.5519 79.7317 24.4932C79.7171 24.3758 79.6363 24.2291 79.4895 24.053C79.3427 23.8769 79.2546 23.7668 79.2252 23.7228C79.1518 23.8549 79.0343 23.9136 78.8728 23.8989C78.7113 23.8842 78.5939 23.8182 78.5205 23.7008C78.5205 23.7155 78.5095 23.7558 78.4874 23.8218C78.4654 23.8879 78.4544 23.9356 78.4544 23.9649C78.2635 23.9649 78.1534 23.9576 78.1241 23.9429C78.1387 23.8989 78.1571 23.7705 78.1791 23.5577C78.2011 23.3449 78.2268 23.1798 78.2562 23.0624C78.2709 23.0037 78.3113 22.9156 78.3773 22.7982C78.4434 22.6808 78.4985 22.5744 78.5425 22.479C78.5865 22.3837 78.6159 22.2919 78.6306 22.2039C78.6453 22.1158 78.6122 22.0461 78.5315 21.9948C78.4507 21.9434 78.3223 21.9251 78.1461 21.9397C77.8671 21.9544 77.6763 22.1012 77.5735 22.38C77.5588 22.424 77.5368 22.5011 77.5074 22.6111C77.478 22.7212 77.4413 22.8056 77.3973 22.8643C77.3532 22.923 77.2872 22.9743 77.1991 23.0184C77.0963 23.0624 76.9201 23.0771 76.6705 23.0624C76.4209 23.0477 76.2447 23.011 76.142 22.9523C75.9511 22.8349 75.7859 22.6221 75.6465 22.3139C75.507 22.0058 75.4372 21.7343 75.4372 21.4995C75.4372 21.3527 75.4556 21.1583 75.4923 20.9161C75.529 20.674 75.551 20.4905 75.5584 20.3658C75.5657 20.241 75.5253 20.0613 75.4372 19.8265C75.4813 19.7971 75.5473 19.7274 75.6354 19.6173C75.7235 19.5073 75.7969 19.4302 75.8557 19.3862C75.885 19.3715 75.9181 19.3605 75.9548 19.3532C75.9915 19.3458 76.0245 19.3458 76.0539 19.3532C76.0832 19.3605 76.1126 19.3495 76.142 19.3202C76.1713 19.2908 76.1934 19.2468 76.208 19.1881C76.1934 19.1734 76.164 19.1514 76.1199 19.122C76.0759 19.078 76.0465 19.056 76.0319 19.056C76.1346 19.1 76.3439 19.089 76.6595 19.023C76.9752 18.9569 77.1771 18.968 77.2652 19.056C77.4854 19.2174 77.6469 19.2028 77.7497 19.012C77.7497 18.9973 77.7313 18.9276 77.6946 18.8029C77.6579 18.6781 77.6542 18.5791 77.6836 18.5057C77.757 18.9019 77.9699 18.968 78.3223 18.7038C78.3663 18.7478 78.4801 18.7845 78.6636 18.8139C78.8472 18.8432 78.9756 18.8799 79.049 18.9239C79.0931 18.9533 79.1445 18.9936 79.2032 19.045C79.2619 19.0964 79.3023 19.1294 79.3243 19.1441C79.3463 19.1587 79.383 19.1551 79.4344 19.1331C79.4858 19.111 79.5482 19.0633 79.6216 18.99C79.7685 19.1954 79.8565 19.3715 79.8859 19.5183C80.0474 20.1053 80.1869 20.4282 80.3044 20.4869C80.4071 20.5309 80.4879 20.5456 80.5466 20.5309C80.6053 20.5162 80.6384 20.4465 80.6457 20.3218C80.6531 20.197 80.6531 20.0943 80.6457 20.0136C80.6384 19.9329 80.6274 19.8411 80.6127 19.7384L80.5907 19.5623V19.1661L80.5686 18.99C80.3484 18.9459 80.2126 18.8579 80.1612 18.7258C80.1098 18.5937 80.1208 18.458 80.1942 18.3186C80.2676 18.1792 80.3778 18.0434 80.5246 17.9113C80.5393 17.8966 80.598 17.871 80.7008 17.8343C80.8035 17.7976 80.9173 17.7499 81.0421 17.6912C81.1669 17.6325 81.2587 17.5738 81.3174 17.5151C81.6257 17.2363 81.7359 16.9794 81.6478 16.7446C81.7505 16.7446 81.8313 16.6786 81.89 16.5465C81.8753 16.5465 81.8386 16.5245 81.7799 16.4805C81.7212 16.4364 81.6661 16.3998 81.6147 16.3704C81.5633 16.3411 81.5303 16.3264 81.5156 16.3264C81.6478 16.253 81.6624 16.1356 81.5597 15.9742C81.6331 15.9301 81.6881 15.8494 81.7248 15.732C81.7616 15.6146 81.8166 15.5412 81.89 15.5119C82.0222 15.688 82.1763 15.7027 82.3525 15.5559C82.47 15.4385 82.4773 15.3211 82.3745 15.2037C82.4479 15.101 82.5984 15.0239 82.826 14.9726C83.0536 14.9212 83.1894 14.8515 83.2334 14.7634C83.3362 14.7928 83.3949 14.7781 83.4096 14.7194C83.4243 14.6607 83.4316 14.5727 83.4316 14.4553C83.4316 14.3379 83.4537 14.2498 83.4977 14.1911C83.5564 14.1177 83.6666 14.0517 83.8281 13.993C83.9896 13.9343 84.085 13.8976 84.1144 13.8829L84.4888 13.6408C84.5328 13.5821 84.5328 13.5527 84.4888 13.5527C84.753 13.5821 84.9806 13.5014 85.1715 13.3106C85.3183 13.1492 85.2742 13.0024 85.0393 12.8703C85.0834 12.7823 85.0614 12.7126 84.9733 12.6612C84.8852 12.6098 84.7751 12.5695 84.6429 12.5401C84.687 12.5254 84.7714 12.5218 84.8962 12.5291C85.021 12.5365 85.0981 12.5254 85.1274 12.4961C85.3477 12.3493 85.2963 12.2319 84.9733 12.1439C84.7237 12.0705 84.408 12.1586 84.0263 12.408ZM80.4365 31.7136C83.461 31.1852 86.0377 29.7984 88.1666 27.5531C88.1226 27.509 88.0308 27.476 87.8913 27.454C87.7519 27.432 87.6601 27.4063 87.616 27.377C87.3518 27.2742 87.1756 27.2155 87.0875 27.2009C87.1022 27.0981 87.0838 27.0027 87.0324 26.9147C86.981 26.8266 86.9223 26.7606 86.8562 26.7166C86.7902 26.6725 86.6984 26.6138 86.581 26.5405C86.4635 26.4671 86.3827 26.4157 86.3387 26.3864C86.3093 26.357 86.2579 26.313 86.1845 26.2543C86.1111 26.1956 86.0597 26.1552 86.0304 26.1332C86.001 26.1112 85.946 26.0782 85.8652 26.0342C85.7844 25.9901 85.722 25.9755 85.678 25.9901C85.634 26.0048 85.5605 26.0122 85.4578 26.0122L85.3917 26.0342C85.3477 26.0488 85.3073 26.0672 85.2706 26.0892C85.2339 26.1112 85.1935 26.1332 85.1494 26.1552C85.1054 26.1773 85.076 26.1993 85.0614 26.2213C85.0467 26.2433 85.0467 26.2616 85.0614 26.2763C84.753 26.0268 84.4888 25.8654 84.2685 25.792C84.1951 25.7773 84.1144 25.737 84.0263 25.6709C83.9382 25.6049 83.8611 25.5535 83.795 25.5169C83.729 25.4802 83.6555 25.4692 83.5748 25.4838C83.494 25.4985 83.4096 25.5499 83.3215 25.6379C83.2481 25.7113 83.2041 25.8214 83.1894 25.9681C83.1747 26.1149 83.16 26.2103 83.1453 26.2543C83.0426 26.1809 83.0426 26.0525 83.1453 25.8691C83.2481 25.6856 83.2628 25.5499 83.1894 25.4618C83.1453 25.3738 83.0683 25.3408 82.9581 25.3628C82.848 25.3848 82.7599 25.4178 82.6939 25.4618C82.6278 25.5058 82.5434 25.5682 82.4406 25.6489C82.3378 25.7297 82.2718 25.7773 82.2424 25.792C82.213 25.8067 82.1506 25.8471 82.0552 25.9131C81.9598 25.9791 81.8974 26.0342 81.868 26.0782C81.8239 26.1369 81.7799 26.2249 81.7359 26.3424C81.6918 26.4598 81.6551 26.5405 81.6257 26.5845C81.5964 26.5258 81.512 26.4781 81.3725 26.4414C81.233 26.4047 81.1633 26.3644 81.1633 26.3203C81.1926 26.4671 81.222 26.7239 81.2513 27.0908C81.2807 27.4577 81.3174 27.7365 81.3615 27.9273C81.4642 28.3822 81.3761 28.7344 81.0972 28.9839C80.7008 29.3508 80.4879 29.6443 80.4585 29.8645C80.3998 30.1873 80.4879 30.3781 80.7228 30.4368C80.7228 30.5395 80.6641 30.6899 80.5466 30.8881C80.4291 31.0862 80.3778 31.2439 80.3924 31.3613C80.3924 31.4494 80.4071 31.5668 80.4365 31.7136Z" fill="#000229"/>
</svg>
