<svg width="138" height="3" fill="none" xmlns="http://www.w3.org/2000/svg"><path d="M61.066 1.952c.365.475 1.128.727 2.487.825 8.29.594 69.388-.107 74.101-.85C140.96 1.404 120.778.85 69.318.052 56.226-.151-3.855.283.196.55c.72.048 9.87.362 20.33.699 10.46.336 20.184.714 21.61.84 2.44.215 2.63.175 3.276-.699.681-.92.683-.92.189-.022l-.498.905 2.336.001c1.285 0 4.933.12 8.107.267 5.657.26 5.764.25 5.382-.504-.373-.739-.368-.742.138-.085z" fill="url(#paint0_linear)"/><defs><linearGradient id="paint0_linear" x1="207" y1="1.5" x2="206.87" y2="7.497" gradientUnits="userSpaceOnUse"><stop stop-color="#FFB23F"/><stop offset="1" stop-color="#F97E26"/></linearGradient></defs></svg>