<svg width="129" height="40" fill="none" xmlns="http://www.w3.org/2000/svg"><path opacity=".8" fill-rule="evenodd" clip-rule="evenodd" d="M47.243 25.815c1.073 0 2.12-.102 3.143-.304a12.592 12.592 0 002.773-.866V16.91h-6.373v2.751h2.697v2.86a9.838 9.838 0 01-2.044.216c-1.465 0-2.549-.397-3.252-1.191-.703-.794-1.055-2.015-1.055-3.661 0-1.589.337-2.77 1.012-3.542.674-.773 1.7-1.16 3.077-1.16.754 0 1.461.105 2.12.315.66.21 1.346.545 2.056 1.007l1.283-2.881c-.623-.506-1.432-.903-2.425-1.192A11.277 11.277 0 0047.091 10c-1.624 0-3.045.321-4.263.964A6.817 6.817 0 0040 13.715c-.666 1.192-1 2.582-1 4.17 0 1.633.334 3.044 1 4.236a6.705 6.705 0 002.86 2.74c1.24.636 2.701.954 4.383.954zm11.317-.195v-5.525c0-1.574.826-2.361 2.48-2.361.58 0 1.18.144 1.804.433v-3.574c-.29-.16-.703-.239-1.24-.239a3.63 3.63 0 00-1.957.542c-.58.361-1 .881-1.261 1.56l-.24-1.842H54.45c.116.925.174 1.979.174 3.163v7.843h3.937zm11.773-1.474c-.71 1.098-1.761 1.647-3.153 1.647-1.407 0-2.454-.39-3.143-1.17-.689-.78-1.033-1.971-1.033-3.575v-6.434h3.937v6.543c0 1.083.47 1.625 1.413 1.625.551 0 .997-.195 1.338-.585.34-.39.51-.91.51-1.56v-6.023h3.981V25.62h-3.85v-1.474zm9.403 1.647c1.392 0 2.443-.549 3.154-1.646v1.473h3.85V14.614h-3.98v6.023c0 .65-.171 1.17-.512 1.56-.34.39-.786.585-1.337.585-.943 0-1.414-.542-1.414-1.625v-6.543H75.56v6.434c0 1.604.345 2.795 1.034 3.575.688.78 1.736 1.17 3.142 1.17zM92.12 24.19v6.11h-3.937V17.776c0-1.184-.058-2.238-.174-3.163h3.698l.217 1.712c.275-.607.732-1.094 1.37-1.462.638-.369 1.363-.553 2.175-.553.943 0 1.784.246 2.523.737.74.49 1.32 1.177 1.74 2.058.42.88.631 1.892.631 3.033 0 1.126-.207 2.12-.62 2.979-.413.859-.99 1.52-1.73 1.982-.739.462-1.587.693-2.544.693-.725 0-1.385-.14-1.979-.422-.595-.282-1.051-.676-1.37-1.181zm2.153-1.322c-.71 0-1.254-.238-1.631-.715-.377-.476-.566-1.162-.566-2.058 0-.924.189-1.624.566-2.101.377-.477.92-.715 1.631-.715.696 0 1.229.25 1.599.747.37.499.554 1.203.554 2.113 0 .895-.181 1.574-.544 2.036-.362.462-.898.693-1.609.693zm19.157 1.224c-1.181 1.149-2.881 1.723-5.1 1.723-2.262 0-3.973-.567-5.133-1.701-1.16-1.134-1.74-2.798-1.74-4.994v-8.925h3.981v9.077c0 1.112.25 1.964.75 2.556.5.593 1.214.889 2.142.889.914 0 1.617-.3 2.11-.9.493-.599.739-1.447.739-2.545v-9.077h4.024v8.925c0 2.167-.591 3.824-1.773 4.972zm7.261 6.207v-6.11c.319.506.776.9 1.37 1.181a4.564 4.564 0 001.979.423c.957 0 1.806-.231 2.545-.693.74-.462 1.316-1.123 1.729-1.983.413-.859.62-1.852.62-2.978 0-1.141-.21-2.152-.631-3.033-.42-.881-1-1.567-1.74-2.058-.739-.491-1.58-.737-2.523-.737-.812 0-1.536.184-2.174.553-.638.368-1.095.855-1.371 1.462l-.217-1.712h-3.698c.116.925.174 1.98.174 3.163V30.3h3.937zm.522-8.146c.377.477.921.715 1.631.715.711 0 1.247-.23 1.61-.693.362-.462.543-1.14.543-2.036 0-.91-.185-1.614-.554-2.113-.37-.498-.903-.747-1.599-.747-.71 0-1.254.238-1.631.715s-.565 1.177-.565 2.101c0 .896.188 1.582.565 2.058z" fill="#21232B"/><g clip-path="url(#clip0)"><mask id="a" maskUnits="userSpaceOnUse" x="0" y="0" width="32" height="40"><path d="M19.84 20.809a3.374 3.374 0 01-.82 0h-.023v-.003a3.356 3.356 0 01-2.911-3.334 3.356 3.356 0 012.91-3.334v-.011h.098a3.376 3.376 0 01.663-.001l10.318-.014.054-.002c.371 0 .697.196.88.49a.74.74 0 01.139.36 1.037 1.037 0 01.01.316l-.003.197a63.736 63.736 0 01-.073 2.315l.001.147c0 .768-.08 1.574-.24 2.417-.07.45-.154.817-.248 1.1-1.056 4.057-3.828 8.92-8.316 14.588a8.443 8.443 0 01-13.15.109l-.087-.11-.175-.221c-3.755-4.773-6.284-8.97-7.588-12.59C.426 21.207 0 19.033 0 16.703c0-2.29.412-4.454 1.235-6.49.823-2.037 1.955-3.81 3.395-5.322 1.441-1.511 3.15-2.705 5.13-3.58C11.738.437 13.868 0 16.147 0c1.773 0 3.309.175 4.607.525 1.256.339 2.32.722 3.19 1.15l.087.043c.357.174.669.357.948.557a5.003 5.003 0 012.23 4.171c0 2.762-2.226 5.001-4.974 5.001-.582 0-1.141-.1-1.66-.285-.698-.21-1.127-.516-1.816-.734a8.315 8.315 0 00-2.517-.405c-.918 0-1.757.167-2.517.5a5.98 5.98 0 00-1.97 1.385 6.39 6.39 0 00-1.307 2.123 7.414 7.414 0 00-.475 2.673c0 .955.174 1.845.523 2.673A6.413 6.413 0 0011.92 21.5a6.701 6.701 0 004.702 1.885c1.076 0 2.057-.23 2.944-.692.528-.275 1.192-.807 1.991-1.596a.17.17 0 00-.103-.289H19.84z" fill="#fff"/></mask><g mask="url(#a)"><path d="M19.84 20.809a3.374 3.374 0 01-.82 0h-.023v-.003a3.356 3.356 0 01-2.911-3.334 3.356 3.356 0 012.91-3.334v-.011h.098a3.376 3.376 0 01.663-.001l10.318-.014.054-.002c.371 0 .697.196.88.49a.74.74 0 01.139.36 1.037 1.037 0 01.01.316l-.003.197a63.736 63.736 0 01-.073 2.315l.001.147c0 .768-.08 1.574-.24 2.417-.07.45-.154.817-.248 1.1-1.056 4.057-3.828 8.92-8.316 14.588a8.443 8.443 0 01-13.15.109l-.087-.11-.175-.221c-3.755-4.773-6.284-8.97-7.588-12.59C.426 21.207 0 19.033 0 16.703c0-2.29.412-4.454 1.235-6.49.823-2.037 1.955-3.81 3.395-5.322 1.441-1.511 3.15-2.705 5.13-3.58C11.738.437 13.868 0 16.147 0c1.773 0 3.309.175 4.607.525 1.256.339 2.32.722 3.19 1.15l.087.043c.357.174.669.357.948.557a5.003 5.003 0 012.23 4.171c0 2.762-2.226 5.001-4.974 5.001-.582 0-1.141-.1-1.66-.285-.698-.21-1.127-.516-1.816-.734a8.315 8.315 0 00-2.517-.405c-.918 0-1.757.167-2.517.5a5.98 5.98 0 00-1.97 1.385 6.39 6.39 0 00-1.307 2.123 7.414 7.414 0 00-.475 2.673c0 .955.174 1.845.523 2.673A6.413 6.413 0 0011.92 21.5a6.701 6.701 0 004.702 1.885c1.076 0 2.057-.23 2.944-.692.528-.275 1.192-.807 1.991-1.596a.17.17 0 00-.103-.289H19.84z" fill="url(#paint0_linear)"/><mask id="b" maskUnits="userSpaceOnUse" x="-1" y="-1" width="33" height="41"><path d="M6.613-.12H24.71c3.714 0 6.725 3.772 6.725 8.425v22.672c0 4.653-3.011 8.425-6.725 8.425H6.613C2.9 39.402-.11 35.63-.11 30.977V8.305C-.11 3.652 2.9-.12 6.614-.12z" fill="#fff"/></mask><g mask="url(#b)"><path d="M6.613-.12H24.71c3.714 0 6.725 3.772 6.725 8.425v22.672c0 4.653-3.011 8.425-6.725 8.425H6.613C2.9 39.402-.11 35.63-.11 30.977V8.305C-.11 3.652 2.9-.12 6.614-.12z" fill="url(#paint1_linear)"/><g filter="url(#filter0_d)"><path d="M-6.724-2.845h27.319c5.62 0 10.176 4.556 10.176 10.176 0 .29-.012.58-.037.87-.85 9.899-6.674 15.797-15.123 17.806-5.632 1.34-12.17 5.321-19.615 11.946l-2.72-40.798z" fill="#21232B"/></g><path d="M-6.724-2.845h27.319c5.62 0 10.176 4.556 10.176 10.176 0 .29-.012.58-.037.87-.85 9.899-6.674 15.797-15.123 17.806-5.632 1.34-12.17 5.321-19.615 11.946l-2.72-40.798z" fill="#FC9C35"/><g filter="url(#filter1_d)"><path d="M29.147 28.847c-3.94.944-7.248 2.244-9.925 3.9-2.676 1.656-5.423 3.807-8.239 6.455 10.02 2.391 15.575 1.54 16.662-2.552 1.087-4.093 1.588-6.694 1.502-7.803z" fill="#21232B"/></g><path d="M29.147 28.847c-3.94.944-7.248 2.244-9.925 3.9-2.676 1.656-5.423 3.807-8.239 6.455 10.02 2.391 15.575 1.54 16.662-2.552 1.087-4.093 1.588-6.694 1.502-7.803z" fill="#F17109"/><g filter="url(#filter2_d)"><path d="M-1.412 15.437c4.082 0 13.926-9.036 13.926-15.071s-6.072 0-10.154 0-3.772-2.481-3.772 3.554-4.082 11.517 0 11.517z" fill="#21232B"/></g><path d="M-1.412 15.437c4.082 0 13.926-9.036 13.926-15.071s-6.072 0-10.154 0-3.772-2.481-3.772 3.554-4.082 11.517 0 11.517z" fill="#FFAF3E"/></g></g></g><defs><filter id="filter0_d" x="-36.724" y="-30.845" width="97.495" height="100.798" filterUnits="userSpaceOnUse" color-interpolation-filters="sRGB"><feFlood flood-opacity="0" result="BackgroundImageFix"/><feColorMatrix in="SourceAlpha" values="0 0 0 0 0 0 0 0 0 0 0 0 0 0 0 0 0 0 127 0"/><feOffset dy="2"/><feGaussianBlur stdDeviation="15"/><feColorMatrix values="0 0 0 0 0.886747 0 0 0 0 0.482948 0 0 0 0 0.0511637 0 0 0 1 0"/><feBlend in2="BackgroundImageFix" result="effect1_dropShadow"/><feBlend in="SourceGraphic" in2="effect1_dropShadow" result="shape"/></filter><filter id="filter1_d" x="-13.017" y="-7.153" width="66.173" height="59.678" filterUnits="userSpaceOnUse" color-interpolation-filters="sRGB"><feFlood flood-opacity="0" result="BackgroundImageFix"/><feColorMatrix in="SourceAlpha" values="0 0 0 0 0 0 0 0 0 0 0 0 0 0 0 0 0 0 127 0"/><feOffset dy="-12"/><feGaussianBlur stdDeviation="12"/><feColorMatrix values="0 0 0 0 0.762002 0 0 0 0 0.319897 0 0 0 0 0 0 0 0 0.348421 0"/><feBlend in2="BackgroundImageFix" result="effect1_dropShadow"/><feBlend in="SourceGraphic" in2="effect1_dropShadow" result="shape"/></filter><filter id="filter2_d" x="-27.226" y="-24.316" width="63.741" height="65.754" filterUnits="userSpaceOnUse" color-interpolation-filters="sRGB"><feFlood flood-opacity="0" result="BackgroundImageFix"/><feColorMatrix in="SourceAlpha" values="0 0 0 0 0 0 0 0 0 0 0 0 0 0 0 0 0 0 127 0"/><feOffset dy="2"/><feGaussianBlur stdDeviation="12"/><feColorMatrix values="0 0 0 0 0.917856 0 0 0 0 0.548137 0 0 0 0 0.15146 0 0 0 1 0"/><feBlend in2="BackgroundImageFix" result="effect1_dropShadow"/><feBlend in="SourceGraphic" in2="effect1_dropShadow" result="shape"/></filter><linearGradient id="paint0_linear" x1="15.583" y1="-10.212" x2="15.583" y2="39.242" gradientUnits="userSpaceOnUse"><stop stop-color="#FAD961"/><stop offset=".456" stop-color="#F8931F"/><stop offset="1" stop-color="#F76B1C"/></linearGradient><linearGradient id="paint1_linear" x1="8.96" y1="4.596" x2="20.06" y2="36.51" gradientUnits="userSpaceOnUse"><stop stop-color="#FFB23F"/><stop offset="1" stop-color="#F97E26"/></linearGradient><clipPath id="clip0"><path fill="#fff" d="M0 0h31.227v39.402H0z"/></clipPath></defs></svg>