<svg width="464" height="480" viewBox="0 0 464 480" fill="none" xmlns="http://www.w3.org/2000/svg">
<path opacity="0.05" fill-rule="evenodd" clip-rule="evenodd" d="M186.623 21.9611C167.818 33.7438 140.539 45.0001 126.002 46.9693C66.1791 55.0671 18.3761 111.732 18.0156 174.974C17.9061 194.634 13.6376 222.417 8.53867 236.715C-15.4755 304 12.659 374.072 74.1559 400.159C85.5642 405.001 101.376 417.811 109.302 428.632C117.233 439.453 139.078 455.895 157.851 465.169C201.978 486.96 249.189 484.653 287.882 458.807C302.187 449.253 320.62 441.435 328.854 441.435C337.088 441.435 359.21 433.694 378.022 424.232C425.851 400.172 450.354 360.97 448.616 311.298C447.914 291.288 451.152 268.274 455.942 259.306C467.724 237.222 466.301 169.255 453.534 144.338C442.789 123.372 400.053 83.9878 388.04 83.9878C384.254 83.9878 369.704 72.0231 355.707 57.3938C324.663 24.9506 274.645 -0.681576 243.749 0.013821C229.707 0.332274 207.554 8.84601 186.623 21.9611ZM294.719 42.4525C329.852 56.6399 327.592 68.3967 288.088 76.9494C270.209 80.8228 246.858 88.5437 236.197 94.1068C209.047 108.275 168.931 146.047 152.476 172.927C134.603 202.108 127.444 191.306 135.395 147.158C142.696 106.598 152.72 86.269 176.779 63.2364C210.438 31.0142 249.401 24.1447 294.719 42.4525ZM127.457 76.6959C127.457 79.835 122.828 93.5804 117.175 107.235C101.099 146.08 103.398 209.887 122.603 257.883C142.4 307.36 134.326 311.103 92.2406 271.946C27.5118 211.713 30.0548 125.049 97.7709 83.3704C119.841 69.781 127.457 68.0717 127.457 76.6959ZM384.911 113.195C415.807 129.325 442.924 173.064 442.924 206.761C442.924 237.625 432.424 236.481 398.154 201.887C361.038 164.426 310.975 142.479 262.619 142.479C238.328 142.479 231.671 140.38 234.265 133.543C237.581 124.828 272.308 107.144 298.067 101.054C316.995 96.583 366.285 103.472 384.911 113.195ZM283.24 167.656C285.706 169.892 296.438 189.168 307.08 210.479L326.433 249.239L307.1 275.469C296.47 289.903 284.27 306.911 279.989 313.267C273.242 323.308 266.07 324.257 225.767 320.475L179.329 316.12L159.821 274.046L140.32 231.977L164.257 198.598C177.423 180.245 190.853 163.348 194.111 161.047C201.077 156.127 276.705 161.736 283.24 167.656ZM402.036 250.786C432.553 303.343 428.291 350.578 389.688 387.571C369.06 407.341 339.722 421.21 340.127 411C340.243 408.082 345.941 389.605 352.791 369.945C369.131 323.055 368.564 304.299 349.166 249.713C321.965 173.174 321.502 176.651 355.591 201.367C372.453 213.592 393.357 235.831 402.036 250.786ZM43.7616 258.025C43.7616 260.814 54.6291 274.436 67.9045 288.305C97.7451 319.474 144.685 341.551 193.724 347.498C237.568 352.807 238.766 361.822 197.742 377.718C164.856 390.456 123.304 392.452 97.2945 382.527C75.0894 374.059 45.7252 346.711 33.5314 323.152C24.1253 304.981 21.2089 264.895 28.7415 257.298C34.6001 251.383 43.7616 251.825 43.7616 258.025ZM331.191 326.785C324.244 386.498 300.616 425.129 257.249 447.68C227.331 463.239 165.912 454.972 147.801 432.941C138.073 421.106 142.026 418.266 176.123 412.579C217.108 405.736 265.567 373.838 299.483 331.38C316.409 310.193 331.378 292.652 332.755 292.405C334.127 292.158 333.425 307.633 331.191 326.785Z" fill="#001EFC"/>
</svg>
