<svg width="372" height="385" viewBox="0 0 372 385" fill="none" xmlns="http://www.w3.org/2000/svg">
<path opacity="0.1" fill-rule="evenodd" clip-rule="evenodd" d="M149.62 17.6146C134.543 27.0653 112.674 36.0939 101.019 37.6733C53.0574 44.1684 14.7326 89.6186 14.4435 140.344C14.3558 156.113 10.9336 178.397 6.84565 189.865C-12.4071 243.833 10.1491 300.037 59.4526 320.961C68.5989 324.845 81.2758 335.119 87.6297 343.798C93.9888 352.478 111.502 365.666 126.553 373.104C161.931 390.583 199.781 388.732 230.802 368.001C242.271 360.338 257.048 354.067 263.65 354.067C270.252 354.067 287.987 347.859 303.069 340.269C341.415 320.972 361.06 289.528 359.666 249.687C359.103 233.637 361.7 215.179 365.54 207.985C374.986 190.272 373.845 135.757 363.609 115.771C354.995 98.9546 320.732 67.3653 311.101 67.3653C308.066 67.3653 296.4 57.7685 285.179 46.0346C260.29 20.0125 220.19 -0.54668 195.419 0.0110856C184.162 0.266511 166.401 7.09524 149.62 17.6146ZM236.283 34.0505C264.45 45.4299 262.638 54.8598 230.967 61.7198C216.633 64.8266 197.912 71.0194 189.365 75.4815C167.598 86.8454 135.436 117.142 122.243 138.702C107.915 162.107 102.175 153.444 108.55 118.033C114.403 85.5005 122.439 69.1949 141.728 50.7209C168.713 24.876 199.951 19.3661 236.283 34.0505ZM102.185 61.5165C102.185 64.0343 98.4742 75.0593 93.9423 86.0113C81.0538 117.168 82.8965 168.347 98.2935 206.843C114.165 246.528 107.693 249.531 73.9515 218.124C22.0569 169.812 24.0957 100.3 78.3853 66.87C96.0792 55.9701 102.185 54.5992 102.185 61.5165ZM308.592 90.7914C333.363 103.73 355.103 138.811 355.103 165.84C355.103 190.595 346.685 189.678 319.209 161.93C289.453 131.884 249.316 114.28 210.548 114.28C191.073 114.28 185.736 112.596 187.816 107.113C190.474 100.122 218.316 85.9383 238.967 81.054C254.143 77.4676 293.66 82.9931 308.592 90.7914ZM227.08 134.474C229.057 136.268 237.662 151.729 246.194 168.821L261.709 199.91L246.209 220.949C237.687 232.527 227.906 246.168 224.474 251.266C219.064 259.32 213.314 260.081 181.003 257.047L143.772 253.555L128.133 219.807L112.498 186.065L131.689 159.292C142.244 144.572 153.012 131.018 155.623 129.173C161.208 125.227 221.841 129.726 227.08 134.474ZM322.322 201.151C346.788 243.307 343.371 281.193 312.422 310.864C295.884 326.721 272.363 337.845 272.688 329.656C272.781 327.316 277.349 312.496 282.841 296.727C295.941 259.117 295.487 244.073 279.935 200.291C258.127 138.9 257.756 141.689 285.086 161.513C298.604 171.318 315.364 189.156 322.322 201.151ZM35.0847 206.958C35.0847 209.194 43.7975 220.12 54.4407 231.244C78.3646 256.245 115.998 273.952 155.314 278.722C190.464 282.981 191.424 290.211 158.534 302.961C132.169 313.178 98.8561 314.779 78.0033 306.819C60.201 300.027 36.659 278.091 26.8829 259.195C19.3419 244.62 17.0037 212.468 23.0427 206.374C27.7398 201.63 35.0847 201.985 35.0847 206.958ZM265.524 262.109C259.954 310.004 241.011 340.989 206.243 359.077C182.257 371.556 133.016 364.926 118.496 347.254C110.697 337.762 113.866 335.484 141.202 330.923C174.06 325.434 212.912 299.849 240.103 265.794C253.673 248.801 265.674 234.732 266.778 234.533C267.878 234.335 267.315 246.747 265.524 262.109Z" fill="white"/>
</svg>
