<svg width="191" height="70" viewBox="0 0 191 70" fill="none" xmlns="http://www.w3.org/2000/svg">
<rect x="10.6846" width="45.2044" height="45.2044" transform="rotate(13.6713 10.6846 0)" fill="#001EFC"/>
<path d="M61.3612 49.5935C59.8131 49.5935 58.3901 49.2339 57.0922 48.5145C55.8099 47.7952 54.7857 46.7944 54.0195 45.5122C53.2689 44.2142 52.8936 42.76 52.8936 41.1493C52.8936 39.5386 53.2689 38.0922 54.0195 36.8099C54.7857 35.5276 55.8099 34.5268 57.0922 33.8075C58.3901 33.0882 59.8131 32.7285 61.3612 32.7285C62.9094 32.7285 64.3246 33.0882 65.6068 33.8075C66.9047 34.5268 67.9212 35.5276 68.6561 36.8099C69.4067 38.0922 69.782 39.5386 69.782 41.1493C69.782 42.76 69.4067 44.2142 68.6561 45.5122C67.9055 46.7944 66.8891 47.7952 65.6068 48.5145C64.3246 49.2339 62.9094 49.5935 61.3612 49.5935ZM61.3612 45.9344C62.6748 45.9344 63.7225 45.4965 64.5044 44.6208C65.3019 43.7451 65.7007 42.5879 65.7007 41.1493C65.7007 39.695 65.3019 38.5378 64.5044 37.6778C63.7225 36.8021 62.6748 36.3642 61.3612 36.3642C60.0321 36.3642 58.9687 36.7943 58.1712 37.6543C57.3893 38.5144 56.9984 39.6794 56.9984 41.1493C56.9984 42.6036 57.3893 43.7686 58.1712 44.6443C58.9687 45.5043 60.0321 45.9344 61.3612 45.9344Z" fill="white"/>
<path d="M84.9379 36.3408V49.4293H80.9268V47.6467C80.5203 48.2253 79.9651 48.6944 79.2615 49.054C78.5734 49.3981 77.8072 49.5701 76.9627 49.5701C75.9619 49.5701 75.0784 49.3512 74.3122 48.9133C73.546 48.4598 72.9517 47.8109 72.5295 46.9664C72.1073 46.122 71.8962 45.129 71.8962 43.9875V36.3408H75.8838V43.448C75.8838 44.3237 76.1105 45.0039 76.564 45.4887C77.0175 45.9735 77.6273 46.2158 78.3936 46.2158C79.1754 46.2158 79.7931 45.9735 80.2466 45.4887C80.7001 45.0039 80.9268 44.3237 80.9268 43.448V36.3408H84.9379Z" fill="white"/>
<path d="M91.83 38.5222C92.2991 37.8029 92.8855 37.2399 93.5892 36.8334C94.2929 36.4111 95.0747 36.2 95.9348 36.2V40.4456H94.8324C93.8316 40.4456 93.081 40.6645 92.5806 41.1024C92.0802 41.5246 91.83 42.2752 91.83 43.3542V49.4293H87.8189V36.3408H91.83V38.5222Z" fill="white"/>
<path d="M103.177 49.617C102.035 49.617 101.019 49.4215 100.127 49.0306C99.2359 48.6396 98.5322 48.108 98.0162 47.4356C97.5001 46.7475 97.2108 45.9813 97.1483 45.1369H101.112C101.159 45.5903 101.37 45.9578 101.746 46.2393C102.121 46.5208 102.582 46.6615 103.13 46.6615C103.63 46.6615 104.013 46.5677 104.279 46.38C104.56 46.1767 104.701 45.9187 104.701 45.606C104.701 45.2307 104.506 44.957 104.115 44.785C103.724 44.5974 103.091 44.3941 102.215 44.1751C101.277 43.9562 100.495 43.7295 99.8692 43.4949C99.2437 43.2447 98.7042 42.8616 98.2507 42.3456C97.7972 41.8139 97.5705 41.1024 97.5705 40.211C97.5705 39.4604 97.7738 38.7802 98.1804 38.1704C98.6026 37.5449 99.2124 37.0523 100.01 36.6926C100.823 36.333 101.785 36.1531 102.895 36.1531C104.537 36.1531 105.827 36.5597 106.765 37.3728C107.719 38.186 108.267 39.265 108.407 40.6098H104.701C104.639 40.1563 104.435 39.7967 104.091 39.5308C103.763 39.265 103.325 39.1321 102.778 39.1321C102.309 39.1321 101.949 39.2259 101.699 39.4135C101.449 39.5855 101.323 39.8279 101.323 40.1407C101.323 40.516 101.519 40.7975 101.91 40.9851C102.316 41.1728 102.942 41.3604 103.786 41.5481C104.756 41.7983 105.546 42.0485 106.155 42.2987C106.765 42.5332 107.297 42.9242 107.75 43.4715C108.22 44.0031 108.462 44.7225 108.478 45.6294C108.478 46.3957 108.259 47.0837 107.821 47.6936C107.399 48.2878 106.781 48.7569 105.968 49.101C105.17 49.445 104.24 49.617 103.177 49.617Z" fill="white"/>
<path d="M123.856 36.3408V49.4293H119.845V47.6467C119.438 48.2253 118.883 48.6944 118.18 49.054C117.491 49.3981 116.725 49.5701 115.881 49.5701C114.88 49.5701 113.997 49.3512 113.23 48.9133C112.464 48.4598 111.87 47.8109 111.448 46.9664C111.025 46.122 110.814 45.129 110.814 43.9875V36.3408H114.802V43.448C114.802 44.3237 115.029 45.0039 115.482 45.4887C115.936 45.9735 116.545 46.2158 117.312 46.2158C118.094 46.2158 118.711 45.9735 119.165 45.4887C119.618 45.0039 119.845 44.3237 119.845 43.448V36.3408H123.856Z" fill="white"/>
<path d="M130.748 38.1938C131.139 37.584 131.678 37.0914 132.367 36.7161C133.055 36.3408 133.86 36.1531 134.783 36.1531C135.861 36.1531 136.839 36.4268 137.715 36.9741C138.59 37.5214 139.278 38.3033 139.779 39.3197C140.295 40.3361 140.553 41.5168 140.553 42.8616C140.553 44.2064 140.295 45.3949 139.779 46.4269C139.278 47.4434 138.59 48.2331 137.715 48.796C136.839 49.3433 135.861 49.617 134.783 49.617C133.876 49.617 133.07 49.4293 132.367 49.054C131.678 48.6787 131.139 48.194 130.748 47.5998V55.6687H126.737V36.3408H130.748V38.1938ZM136.471 42.8616C136.471 41.8608 136.19 41.0789 135.627 40.516C135.08 39.9374 134.399 39.6481 133.586 39.6481C132.789 39.6481 132.108 39.9374 131.546 40.516C130.998 41.0946 130.725 41.8843 130.725 42.8851C130.725 43.8859 130.998 44.6755 131.546 45.2541C132.108 45.8327 132.789 46.122 133.586 46.122C134.384 46.122 135.064 45.8327 135.627 45.2541C136.19 44.6599 136.471 43.8624 136.471 42.8616Z" fill="white"/>
<path d="M146.668 38.1938C147.059 37.584 147.598 37.0914 148.287 36.7161C148.975 36.3408 149.78 36.1531 150.702 36.1531C151.781 36.1531 152.759 36.4268 153.635 36.9741C154.51 37.5214 155.198 38.3033 155.699 39.3197C156.215 40.3361 156.473 41.5168 156.473 42.8616C156.473 44.2064 156.215 45.3949 155.699 46.4269C155.198 47.4434 154.51 48.2331 153.635 48.796C152.759 49.3433 151.781 49.617 150.702 49.617C149.796 49.617 148.99 49.4293 148.287 49.054C147.598 48.6787 147.059 48.194 146.668 47.5998V55.6687H142.657V36.3408H146.668V38.1938ZM152.391 42.8616C152.391 41.8608 152.11 41.0789 151.547 40.516C151 39.9374 150.319 39.6481 149.506 39.6481C148.709 39.6481 148.028 39.9374 147.466 40.516C146.918 41.0946 146.645 41.8843 146.645 42.8851C146.645 43.8859 146.918 44.6755 147.466 45.2541C148.028 45.8327 148.709 46.122 149.506 46.122C150.304 46.122 150.984 45.8327 151.547 45.2541C152.11 44.6599 152.391 43.8624 152.391 42.8616Z" fill="white"/>
<path d="M164.535 49.617C163.253 49.617 162.095 49.3433 161.063 48.796C160.047 48.2487 159.242 47.4668 158.647 46.4504C158.069 45.434 157.779 44.2455 157.779 42.8851C157.779 41.5402 158.077 40.3596 158.671 39.3432C159.265 38.3111 160.078 37.5214 161.11 36.9741C162.142 36.4268 163.3 36.1531 164.582 36.1531C165.864 36.1531 167.021 36.4268 168.053 36.9741C169.085 37.5214 169.899 38.3111 170.493 39.3432C171.087 40.3596 171.384 41.5402 171.384 42.8851C171.384 44.2299 171.079 45.4183 170.469 46.4504C169.875 47.4668 169.054 48.2487 168.006 48.796C166.974 49.3433 165.817 49.617 164.535 49.617ZM164.535 46.1455C165.301 46.1455 165.95 45.864 166.482 45.301C167.029 44.7381 167.303 43.9328 167.303 42.8851C167.303 41.8373 167.037 41.032 166.505 40.4691C165.989 39.9061 165.348 39.6246 164.582 39.6246C163.8 39.6246 163.151 39.9061 162.635 40.4691C162.119 41.0164 161.861 41.8217 161.861 42.8851C161.861 43.9328 162.111 44.7381 162.611 45.301C163.128 45.864 163.769 46.1455 164.535 46.1455Z" fill="white"/>
<path d="M177.523 38.5222C177.992 37.8029 178.579 37.2399 179.282 36.8334C179.986 36.4111 180.768 36.2 181.628 36.2V40.4456H180.525C179.525 40.4456 178.774 40.6645 178.274 41.1024C177.773 41.5246 177.523 42.2752 177.523 43.3542V49.4293H173.512V36.3408H177.523V38.5222Z" fill="white"/>
<path d="M190.84 46.0282V49.4293H188.799C187.345 49.4293 186.211 49.0775 185.398 48.3738C184.585 47.6545 184.178 46.4895 184.178 44.8788V39.6716H182.583V36.3408H184.178V33.1507H188.189V36.3408H190.816V39.6716H188.189V44.9257C188.189 45.3167 188.283 45.5982 188.471 45.7702C188.658 45.9422 188.971 46.0282 189.409 46.0282H190.84Z" fill="white"/>
<path fill-rule="evenodd" clip-rule="evenodd" d="M102.656 53.4664C102.216 53.7407 101.579 54.0028 101.239 54.0487C99.8402 54.2372 98.7226 55.5566 98.7142 57.0291C98.7116 57.4868 98.6118 58.1337 98.4926 58.4666C97.9312 60.0332 98.5889 61.6647 100.027 62.2721C100.293 62.3849 100.663 62.6831 100.848 62.9351C101.034 63.187 101.544 63.5699 101.983 63.7858C103.015 64.2932 104.119 64.2395 105.023 63.6377C105.358 63.4152 105.789 63.2332 105.981 63.2332C106.174 63.2332 106.691 63.053 107.131 62.8326C108.249 62.2724 108.822 61.3597 108.781 60.2032C108.765 59.7372 108.84 59.2014 108.952 58.9926C109.228 58.4784 109.195 56.8959 108.896 56.3158C108.645 55.8276 107.646 54.9106 107.365 54.9106C107.276 54.9106 106.936 54.632 106.609 54.2914C105.883 53.536 104.714 52.9392 103.992 52.9554C103.663 52.9628 103.145 53.161 102.656 53.4664ZM105.183 53.9435C106.005 54.2738 105.952 54.5476 105.028 54.7467C104.61 54.8369 104.064 55.0167 103.815 55.1462C103.18 55.4761 102.242 56.3556 101.858 56.9814C101.44 57.6608 101.272 57.4093 101.458 56.3814C101.629 55.437 101.863 54.9637 102.426 54.4274C103.213 53.6772 104.124 53.5172 105.183 53.9435ZM101.273 54.7408C101.273 54.8139 101.165 55.1339 101.032 55.4519C100.657 56.3563 100.71 57.842 101.159 58.9595C101.622 60.1115 101.433 60.1986 100.449 59.2869C98.9362 57.8845 98.9956 55.8666 100.579 54.8962C101.095 54.5798 101.273 54.54 101.273 54.7408ZM107.292 55.5906C108.014 55.9662 108.648 56.9846 108.648 57.7692C108.648 58.4878 108.403 58.4612 107.601 57.6557C106.734 56.7835 105.563 56.2725 104.433 56.2725C103.865 56.2725 103.709 56.2236 103.77 56.0644C103.847 55.8615 104.659 55.4498 105.261 55.308C105.704 55.2039 106.856 55.3643 107.292 55.5906ZM104.915 56.8587C104.972 56.9107 105.223 57.3596 105.472 57.8557L105.925 58.7582L105.473 59.3689C105.224 59.705 104.939 60.101 104.839 60.249C104.681 60.4828 104.513 60.5049 103.571 60.4168L102.485 60.3154L102.029 59.3358L101.574 58.3563L102.133 57.5791C102.441 57.1518 102.755 56.7584 102.831 56.7048C102.994 56.5902 104.762 56.7208 104.915 56.8587ZM107.692 58.7942C108.406 60.0179 108.306 61.1177 107.403 61.979C106.921 62.4394 106.235 62.7623 106.245 62.5245C106.247 62.4566 106.381 62.0264 106.541 61.5687C106.923 60.4769 106.91 60.0402 106.456 58.7692C105.82 56.9872 105.809 57.0681 106.606 57.6436C107.001 57.9282 107.489 58.446 107.692 58.7942ZM99.3161 58.9628C99.3161 59.0277 99.5701 59.3449 99.8805 59.6678C100.578 60.3935 101.676 60.9075 102.822 61.046C103.847 61.1696 103.875 61.3795 102.916 61.7496C102.147 62.0462 101.176 62.0927 100.568 61.8616C100.048 61.6644 99.362 61.0277 99.0769 60.4792C98.857 60.0561 98.7888 59.1227 98.9649 58.9458C99.1019 58.8081 99.3161 58.8184 99.3161 58.9628ZM106.036 60.5637C105.873 61.9541 105.321 62.8535 104.307 63.3786C103.608 63.7409 102.172 63.5484 101.748 63.0354C101.521 62.7598 101.613 62.6937 102.411 62.5613C103.369 62.402 104.502 61.6593 105.295 60.6707C105.69 60.1774 106.04 59.769 106.072 59.7633C106.105 59.7575 106.088 60.1178 106.036 60.5637Z" fill="#EAB600"/>
<path d="M115.685 63.1719C115.685 63.4934 115.526 63.6542 115.207 63.6542H112.914V67.0172C112.914 67.5129 113.023 67.8724 113.24 68.0957C113.457 68.319 113.789 68.4307 114.237 68.4307C114.427 68.4307 114.629 68.4106 114.841 68.3704C115.058 68.3302 115.194 68.3101 115.247 68.3101C115.406 68.3101 115.517 68.3391 115.579 68.3972C115.641 68.4508 115.672 68.5423 115.672 68.6718V68.8192C115.672 69.0693 115.561 69.2234 115.34 69.2815C114.941 69.3886 114.567 69.4489 114.217 69.4623C113.871 69.4757 113.55 69.4378 113.253 69.3484C112.961 69.2591 112.711 69.1184 112.502 68.9264C112.294 68.7344 112.13 68.4776 112.011 68.156C111.895 67.83 111.838 67.4504 111.838 67.0172V61.544C111.838 61.2224 111.997 61.0616 112.316 61.0616H112.436C112.755 61.0616 112.914 61.2224 112.914 61.544V62.6627H115.207C115.526 62.6627 115.685 62.8213 115.685 63.1384V63.1719Z" fill="white"/>
<path d="M117.154 69.1408C116.892 69.0649 116.76 68.884 116.755 68.5981C116.755 68.4284 116.804 68.3079 116.901 68.2364C116.999 68.1649 117.129 68.1493 117.293 68.1895C117.754 68.3012 118.19 68.3771 118.602 68.4173C119.019 68.4575 119.4 68.4619 119.745 68.4307C120.091 68.3949 120.366 68.2989 120.569 68.1426C120.773 67.9818 120.875 67.7697 120.875 67.5062C120.875 67.2695 120.789 67.073 120.616 66.9167C120.448 66.7604 120.171 66.6264 119.785 66.5147L118.396 66.1329C117.271 65.8202 116.709 65.2263 116.709 64.3509C116.709 63.9266 116.835 63.5716 117.087 63.2857C117.344 62.9955 117.681 62.7945 118.097 62.6828C118.518 62.5712 118.99 62.5265 119.513 62.5488C120.036 62.5667 120.572 62.6516 121.121 62.8034C121.387 62.8749 121.52 63.0557 121.52 63.346C121.52 63.5157 121.471 63.6363 121.373 63.7078C121.28 63.7792 121.15 63.7926 120.981 63.748C120.605 63.6497 120.228 63.5872 119.852 63.5604C119.48 63.5291 119.136 63.5291 118.822 63.5604C118.507 63.5917 118.252 63.6743 118.058 63.8083C117.863 63.9378 117.765 64.1142 117.765 64.3375C117.765 64.7127 118.04 64.9806 118.589 65.1414L120.071 65.5433C120.709 65.722 121.178 65.9676 121.48 66.2803C121.781 66.5884 121.932 66.9814 121.932 67.4593C121.932 67.8434 121.836 68.1783 121.646 68.4642C121.46 68.7455 121.205 68.9621 120.882 69.114C120.563 69.2614 120.197 69.3618 119.785 69.4154C119.378 69.4735 118.948 69.4757 118.496 69.4221C118.044 69.373 117.597 69.2792 117.154 69.1408Z" fill="white"/>
<path d="M128.822 68.558C128.273 69.1564 127.5 69.4556 126.503 69.4556C125.507 69.4556 124.734 69.1564 124.184 68.558C123.639 67.955 123.367 67.1042 123.367 66.0056C123.367 64.9025 123.639 64.0494 124.184 63.4465C124.734 62.8391 125.507 62.5354 126.503 62.5354C127.5 62.5354 128.273 62.8391 128.822 63.4465C129.372 64.0494 129.646 64.9025 129.646 66.0056C129.646 67.1042 129.372 67.955 128.822 68.558ZM124.437 65.9989C124.437 67.6424 125.126 68.4642 126.503 68.4642C127.881 68.4642 128.57 67.6424 128.57 65.9989C128.57 64.3509 127.881 63.5291 126.503 63.5336C125.126 63.5336 124.437 64.3554 124.437 65.9989Z" fill="white"/>
<path d="M131.527 60.2109C131.527 59.8893 131.686 59.7285 132.005 59.7285H132.125C132.444 59.7285 132.603 59.8893 132.603 60.2109V68.8527C132.603 69.1743 132.444 69.335 132.125 69.335H132.005C131.686 69.335 131.527 69.1743 131.527 68.8527V60.2109Z" fill="white"/>
<path d="M136.411 62.6962C136.77 62.589 137.202 62.5354 137.707 62.5354C138.212 62.5354 138.646 62.589 139.009 62.6962C139.372 62.7989 139.687 62.9709 139.953 63.2121C140.223 63.4532 140.425 63.7815 140.557 64.1968C140.695 64.6077 140.763 65.1101 140.763 65.7041V68.8527C140.763 69.1743 140.604 69.335 140.285 69.335H140.179C139.86 69.335 139.7 69.1743 139.7 68.8527V65.7041C139.7 64.8868 139.545 64.3219 139.235 64.0093C138.929 63.6922 138.42 63.5336 137.707 63.5336C136.994 63.5336 136.482 63.6922 136.172 64.0093C135.866 64.3219 135.713 64.8868 135.713 65.7041V68.8527C135.713 69.1743 135.554 69.335 135.235 69.335H135.135C134.816 69.335 134.657 69.1743 134.657 68.8527V65.7041C134.657 65.1101 134.723 64.6077 134.856 64.1968C134.993 63.7815 135.197 63.4532 135.467 63.2121C135.738 62.9709 136.052 62.7989 136.411 62.6962Z" fill="white"/>
<path d="M148.412 64.9538C148.412 65.4094 148.292 65.7488 148.053 65.9721C147.814 66.1909 147.393 66.3338 146.79 66.4008L143.594 66.7425C143.705 67.3231 143.946 67.7563 144.318 68.0421C144.695 68.3235 145.182 68.4642 145.78 68.4642C146.25 68.4642 146.777 68.3815 147.362 68.2163C147.535 68.1672 147.668 68.1716 147.761 68.2297C147.858 68.2833 147.907 68.386 147.907 68.5379V68.6249C147.907 68.9063 147.774 69.0849 147.508 69.1609C146.839 69.3574 146.223 69.4556 145.661 69.4556C144.677 69.4556 143.9 69.1609 143.328 68.5714C142.761 67.9774 142.478 67.1199 142.478 65.9989C142.478 64.8868 142.746 64.0316 143.282 63.4331C143.818 62.8347 144.598 62.5354 145.621 62.5354C146.494 62.5354 147.176 62.7521 147.668 63.1853C148.164 63.6185 148.412 64.208 148.412 64.9538ZM143.534 65.7577L146.571 65.4362C146.886 65.4049 147.094 65.3491 147.196 65.2687C147.302 65.1838 147.355 65.0476 147.355 64.86C147.355 64.4492 147.207 64.1254 146.91 63.8887C146.613 63.6475 146.184 63.5269 145.621 63.5269C144.296 63.5224 143.601 64.2661 143.534 65.7577Z" fill="white"/>
<path d="M153.894 63.1719C153.894 63.4934 153.734 63.6542 153.415 63.6542H151.123V67.0172C151.123 67.5129 151.231 67.8724 151.449 68.0957C151.666 68.319 151.998 68.4307 152.445 68.4307C152.636 68.4307 152.837 68.4106 153.05 68.3704C153.267 68.3302 153.402 68.3101 153.455 68.3101C153.615 68.3101 153.726 68.3391 153.788 68.3972C153.85 68.4508 153.881 68.5423 153.881 68.6718V68.8192C153.881 69.0693 153.77 69.2234 153.548 69.2815C153.15 69.3886 152.775 69.4489 152.425 69.4623C152.08 69.4757 151.759 69.4378 151.462 69.3484C151.169 69.2591 150.919 69.1184 150.711 68.9264C150.503 68.7344 150.339 68.4776 150.219 68.156C150.104 67.83 150.046 67.4504 150.046 67.0172V61.544C150.046 61.2224 150.206 61.0616 150.525 61.0616H150.644C150.963 61.0616 151.123 61.2224 151.123 61.544V62.6627H153.415C153.734 62.6627 153.894 62.8213 153.894 63.1384V63.1719Z" fill="white"/>
<path d="M163.649 63.0848C163.702 62.8034 163.877 62.6627 164.174 62.6627H164.293C164.462 62.6627 164.583 62.7096 164.659 62.8034C164.734 62.8972 164.754 63.0245 164.719 63.1853L163.702 68.1828C163.613 68.616 163.454 68.9376 163.223 69.1475C162.997 69.3529 162.681 69.4556 162.273 69.4556C161.476 69.4556 160.997 69.0381 160.838 68.2029L159.981 64.0226C159.95 63.8753 159.883 63.8038 159.781 63.8083C159.666 63.8083 159.597 63.8797 159.575 64.0226L158.731 68.2029C158.643 68.6272 158.481 68.942 158.246 69.1475C158.016 69.3529 157.697 69.4556 157.289 69.4556C156.882 69.4556 156.561 69.3507 156.326 69.1408C156.096 68.9309 155.941 68.6115 155.861 68.1828L154.844 63.1853C154.809 63.02 154.829 62.8927 154.904 62.8034C154.979 62.7096 155.101 62.6627 155.269 62.6627H155.389C155.686 62.6627 155.861 62.8034 155.914 63.0848L156.864 67.7742C156.913 68.0109 156.966 68.1716 157.024 68.2565C157.086 68.3413 157.183 68.3838 157.316 68.3838C157.453 68.3838 157.549 68.3436 157.602 68.2632C157.659 68.1783 157.713 68.0198 157.761 67.7876L158.612 63.7346C158.758 63.0155 159.148 62.6583 159.781 62.6627C160.397 62.6627 160.787 63.02 160.951 63.7346L161.801 67.7876C161.841 68.0153 161.89 68.1716 161.948 68.2565C162.01 68.3413 162.109 68.3838 162.247 68.3838C162.379 68.3838 162.473 68.3436 162.526 68.2632C162.579 68.1783 162.636 68.0153 162.698 67.7742L163.649 63.0848Z" fill="white"/>
<path d="M171.523 68.558C170.974 69.1564 170.201 69.4556 169.204 69.4556C168.207 69.4556 167.434 69.1564 166.885 68.558C166.34 67.955 166.067 67.1042 166.067 66.0056C166.067 64.9025 166.34 64.0494 166.885 63.4465C167.434 62.8391 168.207 62.5354 169.204 62.5354C170.201 62.5354 170.974 62.8391 171.523 63.4465C172.072 64.0494 172.347 64.9025 172.347 66.0056C172.347 67.1042 172.072 67.955 171.523 68.558ZM167.137 65.9989C167.137 67.6424 167.826 68.4642 169.204 68.4642C170.582 68.4642 171.27 67.6424 171.27 65.9989C171.27 64.3509 170.582 63.5291 169.204 63.5336C167.826 63.5336 167.137 64.3554 167.137 65.9989Z" fill="white"/>
<path d="M177.078 62.5957C177.247 62.5913 177.373 62.6315 177.457 62.7163C177.546 62.7967 177.59 62.9151 177.59 63.0714V63.1049C177.59 63.4264 177.417 63.5872 177.072 63.5872C176.699 63.5917 176.398 63.6051 176.168 63.6274C175.937 63.6497 175.749 63.6765 175.603 63.7078C175.457 63.7391 175.35 63.7926 175.284 63.8686C175.222 63.94 175.182 64.0137 175.164 64.0896C175.147 64.1611 175.138 64.2683 175.138 64.4112V68.8527C175.138 69.1743 174.978 69.335 174.659 69.335H174.54C174.221 69.335 174.061 69.1743 174.061 68.8527V64.2906C174.061 64.0271 174.083 63.8105 174.128 63.6408C174.177 63.4666 174.261 63.3103 174.38 63.1719C174.5 63.0334 174.675 62.9262 174.905 62.8503C175.14 62.7744 175.428 62.7163 175.769 62.6761C176.115 62.6315 176.551 62.6047 177.078 62.5957Z" fill="white"/>
<path d="M184.474 68.8728C184.594 68.9934 184.614 69.1006 184.534 69.1944C184.454 69.2882 184.306 69.335 184.089 69.335H183.969C183.659 69.335 183.437 69.2681 183.304 69.1341L179.955 65.9855V68.8527C179.955 69.1743 179.796 69.335 179.477 69.335H179.377C179.058 69.335 178.899 69.1743 178.899 68.8527V60.2109C178.899 59.8893 179.058 59.7285 179.377 59.7285H179.477C179.796 59.7285 179.955 59.8893 179.955 60.2109V65.5634L183.291 62.8369C183.424 62.7163 183.646 62.6583 183.956 62.6627H184.022C184.244 62.6627 184.392 62.7096 184.467 62.8034C184.543 62.8972 184.518 63.0022 184.394 63.1183L181.138 65.7711L184.474 68.8728Z" fill="white"/>
<path d="M186.222 69.1408C185.96 69.0649 185.827 68.884 185.823 68.5981C185.823 68.4284 185.872 68.3079 185.969 68.2364C186.067 68.1649 186.197 68.1493 186.361 68.1895C186.822 68.3012 187.258 68.3771 187.67 68.4173C188.087 68.4575 188.468 68.4619 188.813 68.4307C189.159 68.3949 189.433 68.2989 189.637 68.1426C189.841 67.9818 189.943 67.7697 189.943 67.5062C189.943 67.2695 189.856 67.073 189.684 66.9167C189.515 66.7604 189.238 66.6264 188.853 66.5147L187.464 66.1329C186.339 65.8202 185.776 65.2263 185.776 64.3509C185.776 63.9266 185.903 63.5716 186.155 63.2857C186.412 62.9955 186.749 62.7945 187.165 62.6828C187.586 62.5712 188.058 62.5265 188.581 62.5488C189.103 62.5667 189.639 62.6516 190.189 62.8034C190.454 62.8749 190.587 63.0557 190.587 63.346C190.587 63.5157 190.539 63.6363 190.441 63.7078C190.348 63.7792 190.217 63.7926 190.049 63.748C189.673 63.6497 189.296 63.5872 188.919 63.5604C188.547 63.5291 188.204 63.5291 187.89 63.5604C187.575 63.5917 187.32 63.6743 187.125 63.8083C186.93 63.9378 186.833 64.1142 186.833 64.3375C186.833 64.7127 187.108 64.9806 187.657 65.1414L189.139 65.5433C189.777 65.722 190.246 65.9676 190.548 66.2803C190.849 66.5884 190.999 66.9814 190.999 67.4593C190.999 67.8434 190.904 68.1783 190.714 68.4642C190.528 68.7455 190.273 68.9621 189.949 69.114C189.631 69.2614 189.265 69.3618 188.853 69.4154C188.445 69.4735 188.016 69.4757 187.564 69.4221C187.112 69.373 186.665 69.2792 186.222 69.1408Z" fill="white"/>
</svg>
