<svg width="60" height="45" viewBox="0 0 60 45" fill="none" xmlns="http://www.w3.org/2000/svg">
<g clip-path="url(#clip0_3054_17861)">
<path d="M24 0H60V45H24V0Z" fill="#FF0000"/>
<path d="M0 0H24V45H0V0Z" fill="#006600"/>
<path fill-rule="evenodd" clip-rule="evenodd" d="M31.8281 28.7061C28.8 28.6123 14.9531 19.9686 14.8594 18.5811L15.6188 17.3154C16.9969 19.3123 31.1531 27.7217 32.55 27.4217L31.8281 28.7061Z" fill="#FFFF00"/>
<path fill-rule="evenodd" clip-rule="evenodd" d="M15.6177 17.2876C15.6272 17.2873 15.6363 17.2919 15.6417 17.2997C15.8114 17.5456 16.1803 17.8932 16.7021 18.3137C17.2231 18.7336 17.8939 19.2243 18.665 19.7563C20.2071 20.8203 22.1489 22.049 24.0915 23.206C26.0342 24.363 27.9771 25.4481 29.5214 26.2251C30.2937 26.6137 30.9657 26.9249 31.488 27.1296C31.7492 27.2319 31.9723 27.3074 32.1515 27.3526C32.3319 27.3981 32.4635 27.4117 32.5439 27.3945C32.5547 27.3922 32.5659 27.3964 32.5724 27.4053C32.579 27.4142 32.5797 27.4261 32.5743 27.4358L31.8524 28.7201C31.8473 28.7293 31.8375 28.7348 31.8271 28.7345C31.4437 28.7226 30.8925 28.5758 30.2235 28.3277C29.5537 28.0792 28.7631 27.728 27.8999 27.3051C26.1735 26.4594 24.155 25.3264 22.2285 24.153C20.3021 22.9797 18.467 21.7657 17.1075 20.7581C16.4278 20.2544 15.8664 19.8018 15.4718 19.4314C15.2745 19.2463 15.1182 19.0811 15.0096 18.9398C14.902 18.7999 14.8376 18.679 14.8311 18.5832C14.8307 18.5775 14.8321 18.5718 14.8351 18.5669L15.5944 17.3013C15.5994 17.2931 15.6081 17.2879 15.6177 17.2876ZM15.6206 17.367L14.888 18.588C14.8965 18.6651 14.9511 18.7714 15.0542 18.9055C15.1602 19.0434 15.314 19.2062 15.5103 19.3904C15.9026 19.7587 16.4621 20.2098 17.141 20.713C18.4988 21.7192 20.3323 22.9322 22.2578 24.105C24.1833 25.2777 26.2002 26.4099 27.9246 27.2546C28.7869 27.677 29.5756 28.0273 30.243 28.2749C30.9012 28.5191 31.4387 28.6623 31.8118 28.6776L32.4979 27.457C32.4068 27.4624 32.2849 27.4443 32.1377 27.4071C31.9554 27.3611 31.7298 27.2847 31.4675 27.1819C30.9429 26.9763 30.269 26.6642 29.4961 26.2754C27.9502 25.4976 26.0061 24.4118 24.0628 23.2543C22.1194 22.0969 20.1765 20.8675 18.6331 19.8026C17.8614 19.2701 17.1893 18.7786 16.6668 18.3575C16.169 17.9563 15.8048 17.6173 15.6206 17.367Z" fill="black"/>
<path fill-rule="evenodd" clip-rule="evenodd" d="M15.4594 17.1377C15.1875 17.8689 19.0782 20.2689 23.7469 23.1189C28.425 25.9596 32.4563 27.7127 32.7469 27.4689L32.8875 27.2064C32.8313 27.3002 32.7 27.3283 32.4844 27.2627C31.2188 26.8971 27.9282 25.3877 23.85 22.9127C19.7625 20.4377 16.2188 18.1596 15.6657 17.1939C15.6225 17.1034 15.6032 17.0034 15.6094 16.9033H15.5907L15.4782 17.1096L15.4594 17.1377ZM31.8938 28.7439C31.8469 28.8377 31.7438 28.8377 31.5657 28.8189C30.4407 28.6971 27.0094 27.0283 22.95 24.6002C18.225 21.7689 14.325 19.2002 14.7563 18.5252L14.8688 18.3189L14.8875 18.3283C14.5125 19.4721 22.5844 24.0846 23.0625 24.3846C27.7313 27.2721 31.6688 28.9689 32.0157 28.5283L31.8938 28.7439Z" fill="#FFFF00"/>
<path fill-rule="evenodd" clip-rule="evenodd" d="M15.5658 16.8897C15.5707 16.8806 15.5802 16.875 15.5905 16.875H15.6092C15.617 16.875 15.6244 16.8782 15.6297 16.8839C15.6351 16.8895 15.6378 16.8971 15.6373 16.9049C15.6314 16.9998 15.6497 17.0947 15.6904 17.1807C15.8262 17.417 16.1473 17.7372 16.6207 18.1249C17.0936 18.5122 17.7154 18.9643 18.4481 19.4639C19.9135 20.463 21.8208 21.651 23.8644 22.8884L23.8645 22.8885C27.9421 25.3632 31.2301 26.8709 32.4921 27.2355L32.4924 27.2356C32.5981 27.2678 32.6802 27.276 32.7412 27.2664C32.8012 27.2569 32.8401 27.2304 32.8633 27.1918C32.8711 27.1787 32.888 27.1743 32.9012 27.1818C32.9145 27.1893 32.9194 27.2061 32.9122 27.2195L32.7715 27.482C32.7698 27.4852 32.7676 27.488 32.7648 27.4903C32.7385 27.5124 32.6967 27.5195 32.6491 27.5194C32.5998 27.5192 32.5372 27.5111 32.4628 27.4959C32.3138 27.4653 32.1128 27.4053 31.8663 27.3179C31.3732 27.143 30.695 26.8575 29.8801 26.4759C28.2502 25.7125 26.072 24.5636 23.7321 23.1428L23.7321 23.1428C21.3979 21.7179 19.2573 20.4049 17.7343 19.3568C16.9729 18.8328 16.3648 18.3742 15.9637 18.0004C15.7634 17.8136 15.6134 17.6468 15.522 17.5026C15.4315 17.3597 15.3941 17.2321 15.4329 17.1277L15.4592 17.1375L15.4358 17.1219L15.4539 17.0948L15.5658 16.8897ZM15.4845 17.1503C15.4571 17.2284 15.4823 17.3348 15.5696 17.4725C15.6571 17.6107 15.803 17.7736 16.0021 17.9592C16.4 18.3301 17.0053 18.7868 17.7662 19.3104C19.2877 20.3575 21.4268 21.6696 23.7613 23.0947C26.0996 24.5145 28.2761 25.6625 29.904 26.4249C30.718 26.8062 31.3945 27.0908 31.8851 27.2649C32.1306 27.3519 32.3288 27.411 32.4741 27.4408C32.5469 27.4557 32.6053 27.463 32.6493 27.4632C32.69 27.4633 32.7133 27.4571 32.7249 27.4499L32.8002 27.3095C32.7846 27.3149 32.7678 27.3191 32.75 27.3219C32.6774 27.3334 32.5861 27.3229 32.4763 27.2895C31.2068 26.9227 27.9137 25.4117 23.8353 22.9366C21.7915 21.699 19.8831 20.5104 18.4164 19.5103C17.6831 19.0103 17.0598 18.5572 16.585 18.1684C16.1113 17.7804 15.7822 17.4541 15.6411 17.2077C15.6407 17.2071 15.6404 17.2065 15.6401 17.2058C15.6061 17.1344 15.5862 17.0574 15.5812 16.9789L15.5027 17.1228C15.5023 17.1236 15.5019 17.1243 15.5014 17.125L15.4845 17.1503ZM14.8439 18.3053C14.8512 18.292 14.8677 18.2868 14.8812 18.2936L14.8999 18.303C14.9124 18.3092 14.9184 18.3236 14.9141 18.3369C14.8935 18.3997 14.9009 18.4775 14.9382 18.5709C14.9755 18.6641 15.0415 18.7701 15.1335 18.887C15.3175 19.121 15.6021 19.3947 15.9574 19.6932C16.6675 20.2901 17.6552 20.9825 18.6704 21.6491C20.2859 22.71 21.9669 23.7029 22.7086 24.1409C22.8993 24.2536 23.0279 24.3296 23.0773 24.3605C25.4108 25.8037 27.5613 26.9492 29.1712 27.6787C29.9764 28.0435 30.6456 28.3039 31.1346 28.4456C31.3793 28.5165 31.5775 28.5573 31.7245 28.5669C31.7981 28.5718 31.8575 28.5687 31.9029 28.5585C31.9484 28.5482 31.9772 28.5313 31.9934 28.5107C32.0025 28.4992 32.0189 28.4966 32.0312 28.5048C32.0434 28.513 32.0472 28.5292 32.04 28.542L31.9184 28.757C31.8902 28.813 31.8441 28.8406 31.7836 28.8511C31.7252 28.8613 31.6511 28.856 31.5625 28.8467L31.5625 28.8467C31.2773 28.8158 30.8489 28.6875 30.3053 28.4758C29.7611 28.2639 29.0991 27.9677 28.3457 27.5995C26.839 26.8631 24.9656 25.8385 22.9354 24.6241L22.9354 24.6241C20.5728 23.2084 18.4157 21.858 16.903 20.7768C16.1469 20.2363 15.5506 19.7624 15.1701 19.3807C14.98 19.19 14.8423 19.0209 14.7657 18.8769C14.6899 18.7343 14.6702 18.6082 14.7319 18.5107L14.8439 18.3053ZM31.8936 28.7438L31.8691 28.7299L31.9384 28.6073C31.931 28.6095 31.9232 28.6116 31.9153 28.6134C31.8626 28.6252 31.7973 28.6281 31.7208 28.6231C31.5679 28.613 31.3651 28.571 31.1189 28.4996C30.6262 28.3568 29.9542 28.0952 29.148 27.7299C27.5354 26.9992 25.3828 25.8525 23.0476 24.4083L23.0474 24.4082C22.9992 24.378 22.8724 24.3031 22.6839 24.1917C21.9448 23.7552 20.2574 22.7586 18.6395 21.6962C17.6238 21.0292 16.634 20.3353 15.9212 19.7363C15.5649 19.4369 15.2768 19.1602 15.0893 18.9218C14.9955 18.8026 14.926 18.6919 14.886 18.5918C14.8615 18.5305 14.8477 18.4722 14.8466 18.4178L14.7808 18.5385C14.7805 18.539 14.7802 18.5396 14.7798 18.5401C14.7344 18.6113 14.7422 18.7128 14.8154 18.8505C14.8881 18.9872 15.0212 19.1517 15.2099 19.341C15.587 19.7193 16.1802 20.191 16.9358 20.731C18.4465 21.8108 20.6019 23.1603 22.9643 24.5759C24.9935 25.7896 26.8654 26.8134 28.3704 27.5489C29.1229 27.9167 29.7834 28.2123 30.3257 28.4234C30.8687 28.6348 31.2911 28.7607 31.5684 28.7908C31.658 28.8002 31.7245 28.8043 31.774 28.7957C31.821 28.7875 31.8498 28.7685 31.8685 28.7312L31.8936 28.7438Z" fill="black"/>
<path fill-rule="evenodd" clip-rule="evenodd" d="M24.0189 19.425C27.0377 19.3969 30.7689 19.0125 32.9252 18.15L32.4564 17.4C31.1908 18.1031 27.4408 18.5719 23.9908 18.6375C19.9221 18.6 17.0439 18.2156 15.6002 17.25L15.1689 18.0563C17.8127 19.1813 20.5314 19.4156 24.0189 19.425Z" fill="#FFFF00"/>
<path fill-rule="evenodd" clip-rule="evenodd" d="M15.5932 17.2225C15.6009 17.2206 15.609 17.222 15.6156 17.2264C16.3324 17.7058 17.4081 18.0425 18.8153 18.2638C20.2219 18.485 21.9569 18.5904 23.9905 18.6092C25.7144 18.5764 27.5131 18.4429 29.0387 18.2298C29.8015 18.1232 30.4958 17.9968 31.078 17.8533C31.6607 17.7096 32.1295 17.5492 32.4426 17.3752C32.4557 17.3679 32.4722 17.3722 32.4801 17.3849L32.9489 18.1349C32.9533 18.142 32.9543 18.1506 32.9517 18.1585C32.9491 18.1665 32.9432 18.1728 32.9354 18.1759C30.7741 19.0405 27.0384 19.4248 24.019 19.4529C24.0189 19.4529 24.0188 19.4529 24.0187 19.4529C24.0033 19.4529 23.9908 19.4405 23.9906 19.4251C23.9905 19.4095 24.003 19.3968 24.0185 19.3967C24.0185 19.3967 24.0186 19.3967 24.0187 19.3967C20.5446 19.3873 17.8375 19.1545 15.2081 18.0422L15.6102 17.2903C16.337 17.7674 17.4132 18.1003 18.8066 18.3194C20.2171 18.5412 21.9553 18.6467 23.9904 18.6654L23.9904 18.6654L23.9912 18.6654C25.7171 18.6326 27.5183 18.4989 29.0465 18.2855C29.8106 18.1787 30.5068 18.052 31.0914 17.9079C31.6616 17.7673 32.1272 17.6098 32.4465 17.4372L32.8833 18.1361C30.7275 18.9878 27.0222 19.3687 24.0187 19.3967M15.5932 17.2225C15.5855 17.2244 15.5789 17.2295 15.5752 17.2365L15.5932 17.2225ZM15.5752 17.2365L15.1439 18.0428L15.5752 17.2365ZM24.0187 19.4529C20.5303 19.4436 17.8069 19.2092 15.1577 18.0819C15.1505 18.0788 15.1448 18.0728 15.1422 18.0654C15.1396 18.058 15.1402 18.0498 15.1439 18.0428" fill="black"/>
<path fill-rule="evenodd" clip-rule="evenodd" d="M33.0467 18.1687C32.9717 18.2905 31.5654 18.7687 29.5029 19.1249C27.6848 19.4004 25.8481 19.5352 24.0092 19.528C22.2473 19.5346 20.487 19.4219 18.7404 19.1905C16.5748 18.853 15.4592 18.3843 15.0373 18.2155L15.1404 18.0093C16.3311 18.478 17.4561 18.7593 18.7686 18.9655C20.5024 19.1996 22.2502 19.3155 23.9998 19.3124C25.8292 19.3143 27.6561 19.1796 29.4654 18.9093C31.5748 18.5624 32.7279 18.1218 32.8967 17.9249L33.0467 18.178V18.1687ZM32.6342 17.4093C32.4092 17.5968 31.2654 17.9999 29.2592 18.3187C27.5267 18.5693 25.7784 18.6946 24.0279 18.6937C21.9654 18.6937 20.2686 18.5437 18.9842 18.3562C16.9404 18.0937 15.8529 17.6062 15.4592 17.4749L15.5811 17.2687C15.8904 17.428 16.9311 17.8499 19.0029 18.1405C20.6685 18.3636 22.3476 18.4701 24.0279 18.4593C25.766 18.4598 27.5018 18.3345 29.2217 18.0843C31.2373 17.803 32.3248 17.2968 32.4936 17.1655L32.6342 17.4093ZM14.0904 23.0624C15.9467 24.0655 20.0811 24.5624 23.9904 24.5999C27.5529 24.6093 32.1842 24.0562 33.9186 23.1374L33.8717 22.1343C33.3279 22.978 28.3592 23.7937 23.9529 23.7655C19.5467 23.728 15.4498 23.053 14.0811 22.1718V23.0624" fill="#FFFF00"/>
<path fill-rule="evenodd" clip-rule="evenodd" d="M32.4988 17.1382C32.5067 17.1398 32.5137 17.1447 32.5177 17.1518L32.6583 17.3955L32.634 17.4096L32.652 17.4312C32.5921 17.4811 32.4748 17.5428 32.3044 17.612C32.1331 17.6816 31.9054 17.7598 31.6223 17.842C31.0561 18.0065 30.2675 18.1872 29.2634 18.3467L29.263 18.3468C27.5292 18.5976 25.7796 18.723 24.0277 18.7221L24.0277 18.6939V18.7221C24.0277 18.7221 24.0277 18.7221 24.0277 18.7221C21.964 18.7221 20.2659 18.572 18.9802 18.3843C18.9802 18.3843 18.9803 18.3843 18.9804 18.3843L18.984 18.3564L18.9799 18.3843C18.98 18.3843 18.9801 18.3843 18.9802 18.3843C17.2324 18.1598 16.1819 17.7708 15.6678 17.5804C15.5798 17.5478 15.5075 17.521 15.4501 17.5019C15.442 17.4992 15.4356 17.493 15.4326 17.485C15.4297 17.4771 15.4304 17.4682 15.4348 17.4609L15.5566 17.2546C15.5642 17.2418 15.5805 17.2371 15.5937 17.2439C15.8995 17.4015 16.9368 17.8226 19.0066 18.113C19.0065 18.113 19.0065 18.1129 19.0065 18.1129L19.0027 18.1408L19.0066 18.113C19.0066 18.113 19.0066 18.113 19.0066 18.113C20.6708 18.3359 22.3485 18.4423 24.0276 18.4314L24.0277 18.4314C25.7644 18.432 27.4989 18.3068 29.2174 18.0567L29.2176 18.0567C30.2238 17.9163 30.998 17.7198 31.5413 17.5422C31.8129 17.4534 32.0267 17.3694 32.1829 17.2995C32.3399 17.2293 32.4368 17.1742 32.4761 17.1436C32.4825 17.1386 32.4908 17.1367 32.4988 17.1382ZM32.5974 17.4024L32.4844 17.2066C32.4312 17.2419 32.3379 17.2918 32.2059 17.3509C32.0477 17.4216 31.832 17.5064 31.5587 17.5957C31.0122 17.7743 30.2348 17.9716 29.2254 18.1124C27.5042 18.3628 25.7671 18.4882 24.0278 18.4877C22.3462 18.4986 20.6658 18.392 18.999 18.1687L18.9988 18.1687C16.9744 17.8847 15.9314 17.4753 15.5917 17.3059L15.5008 17.4597C15.5527 17.4778 15.6146 17.5007 15.6871 17.5275C16.2017 17.7181 17.2466 18.1049 18.9876 18.3285L18.988 18.3286L18.988 18.3286C20.2711 18.5159 21.9666 18.6658 24.0277 18.6658H24.0278C25.7768 18.6668 27.5237 18.5416 29.2548 18.2911C30.2569 18.1319 31.0431 17.9517 31.6066 17.788C31.8884 17.7062 32.1142 17.6286 32.2833 17.5599C32.4353 17.4981 32.5394 17.4444 32.5974 17.4024ZM32.8989 17.8972C32.908 17.898 32.9161 17.9031 32.9207 17.9109L33.0586 18.1435C33.0682 18.1481 33.0746 18.158 33.0746 18.1689V18.1783C33.0746 18.191 33.0661 18.2021 33.0539 18.2054C33.0526 18.2058 33.0512 18.2061 33.0499 18.2062C33.0446 18.2107 33.0389 18.2149 33.0329 18.219C33.0166 18.2302 32.9955 18.2424 32.9701 18.2554C32.9192 18.2815 32.8491 18.312 32.7613 18.3459C32.5857 18.4138 32.3376 18.4964 32.0278 18.5862C31.4079 18.7658 30.5397 18.9746 29.5075 19.1529L29.507 19.153C27.6874 19.4287 25.8493 19.5636 24.009 19.5564C22.2459 19.5631 20.4844 19.4502 18.7365 19.2187L18.7359 19.2186L18.7359 19.2186C16.6472 18.8931 15.5333 18.4455 15.0762 18.2618C15.0587 18.2548 15.0422 18.2482 15.0267 18.2419C15.0194 18.239 15.0136 18.2332 15.0108 18.2258C15.008 18.2185 15.0084 18.2103 15.012 18.2032L15.1151 17.997C15.1216 17.984 15.137 17.9781 15.1505 17.9834C16.3388 18.4512 17.4617 18.732 18.7724 18.938C20.5049 19.1719 22.2513 19.2877 23.9996 19.2846H23.9996C25.8275 19.2865 27.653 19.1518 29.4609 18.8818C30.5145 18.7085 31.3287 18.5119 31.9002 18.3343C32.1861 18.2454 32.4108 18.1614 32.5742 18.0876C32.6559 18.0507 32.722 18.0166 32.7725 17.9858C32.8234 17.9547 32.8569 17.9281 32.8751 17.9069C32.881 17.9 32.8899 17.8964 32.8989 17.8972ZM33.0076 18.1679L32.8907 17.9706C32.8677 17.9907 32.8378 18.0118 32.8018 18.0338C32.7487 18.0662 32.6804 18.1014 32.5974 18.1389C32.4312 18.2139 32.2042 18.2987 31.9169 18.388C31.3424 18.5666 30.5255 18.7637 29.4698 18.9373L29.4694 18.9374C27.6587 19.2079 25.8304 19.3427 23.9996 19.3408C22.2488 19.344 20.4997 19.228 18.7646 18.9937L18.764 18.9936L18.764 18.9936C17.4587 18.7885 16.3379 18.5092 15.1539 18.0452L15.0759 18.2011C15.0829 18.2039 15.09 18.2067 15.0972 18.2096C15.5523 18.3925 16.6619 18.8384 18.7442 19.163C20.4895 19.3941 22.2484 19.5068 24.0089 19.5002H24.0091C25.8464 19.5074 27.6816 19.3727 29.4982 19.0974C30.5284 18.9195 31.3945 18.7111 32.0121 18.5322C32.321 18.4427 32.5674 18.3606 32.741 18.2934C32.8279 18.2599 32.896 18.2302 32.9445 18.2054C32.9687 18.193 32.9875 18.182 33.001 18.1727C33.0035 18.171 33.0057 18.1694 33.0076 18.1679ZM33.8788 22.1074C33.8906 22.1106 33.899 22.121 33.8996 22.1333L33.9465 23.1364C33.947 23.1473 33.9411 23.1575 33.9315 23.1625C33.0595 23.6245 31.4637 23.9929 29.6437 24.2449C27.8225 24.497 25.7727 24.633 23.9902 24.6283L23.99 24.6283C22.0343 24.6096 20.0221 24.4759 18.2663 24.2214C16.5152 23.9676 15.0161 23.5931 14.083 23.0907C14.0823 23.0908 14.0816 23.0908 14.0809 23.0908C14.0653 23.0908 14.0527 23.0782 14.0527 23.0627V22.1721C14.0527 22.1618 14.0584 22.1523 14.0674 22.1474C14.0764 22.1425 14.0874 22.1429 14.0961 22.1484C14.7751 22.5856 16.1362 22.974 17.8822 23.2576C19.6267 23.5409 21.7511 23.719 23.9529 23.7377C26.1545 23.7517 28.4966 23.555 30.356 23.2494C31.2857 23.0966 32.094 22.9167 32.7034 22.7226C33.0081 22.6255 33.2623 22.5251 33.4568 22.4232C33.6522 22.3208 33.7839 22.2185 33.8478 22.1193C33.8545 22.1091 33.867 22.1042 33.8788 22.1074ZM14.109 23.0409C15.0329 23.5385 16.5241 23.912 18.2743 24.1657C20.0271 24.4198 22.0368 24.5533 23.9905 24.5721M14.109 23.0409V22.223V23.0409Z" fill="black"/>
<path fill-rule="evenodd" clip-rule="evenodd" d="M34.0125 22.9218V23.1562C33.75 23.4749 32.1187 23.9437 30.075 24.2812C28.0446 24.573 25.995 24.7109 23.9437 24.6937C21.9987 24.7102 20.0554 24.5754 18.1312 24.2905C16.6955 24.1246 15.2926 23.7454 13.9688 23.1655V22.8937C14.8781 23.4937 17.3344 23.9437 18.1594 24.0749C19.6406 24.2999 21.5437 24.4687 23.9437 24.4687C26.4656 24.4687 28.4812 24.2905 30.0375 24.0562C31.5094 23.8405 33.6 23.2874 34.0125 22.9218ZM34.0125 22.078V22.3124C33.75 22.6218 32.1187 23.0905 30.075 23.428C28.0448 23.723 25.9952 23.864 23.9437 23.8499C21.9989 23.8613 20.0559 23.7266 18.1312 23.4468C16.6955 23.2809 15.2926 22.9017 13.9688 22.3218V22.0405C14.8781 22.6499 17.3437 23.0905 18.1594 23.2218C20.0745 23.5023 22.0082 23.6371 23.9437 23.6249C26.4656 23.6249 28.4906 23.4374 30.0375 23.203C31.5094 22.9968 33.6 22.4437 34.0125 22.078ZM23.9813 28.528C19.7063 28.5093 16.0406 27.3655 15.2625 27.178L15.825 28.0593C18.4546 28.9906 21.2295 29.4446 24.0188 29.3999C27.2719 29.3062 30.1125 29.053 32.1094 28.078L32.6906 27.1593C31.3313 27.8062 26.6906 28.528 23.9719 28.528" fill="#FFFF00"/>
<path fill-rule="evenodd" clip-rule="evenodd" d="M13.9553 22.016C13.9645 22.0111 13.9756 22.0117 13.9842 22.0175C14.4342 22.319 15.2732 22.5806 16.1057 22.7834C16.9366 22.9859 17.7559 23.1287 18.1634 23.1943C20.0771 23.4746 22.0093 23.6092 23.9434 23.5971L23.9436 23.5971C26.464 23.5971 28.4876 23.4097 30.0331 23.1755L30.0334 23.1755C30.768 23.0725 31.6574 22.883 32.4146 22.6735C32.7931 22.5687 33.1382 22.4592 33.4141 22.3531C33.6912 22.2465 33.8948 22.1449 33.9936 22.0573L34.0123 22.0783H34.0404V22.3127C34.0404 22.3194 34.0381 22.3258 34.0337 22.3309C33.9979 22.3731 33.9405 22.4162 33.8658 22.4599C33.7906 22.5038 33.6962 22.5494 33.5846 22.596C33.3614 22.6893 33.0678 22.7878 32.7192 22.887C32.0219 23.0854 31.102 23.2872 30.0794 23.4561L30.0788 23.4562C28.0473 23.7513 25.9964 23.8925 23.9435 23.8783C21.9975 23.8898 20.0533 23.7549 18.1274 23.475C16.6891 23.3087 15.2835 22.9288 13.9573 22.3478C13.947 22.3434 13.9404 22.3332 13.9404 22.3221V22.0408C13.9404 22.0304 13.9462 22.0209 13.9553 22.016ZM33.9842 22.1367C33.8676 22.2216 33.6754 22.3129 33.4343 22.4056C33.1561 22.5125 32.8092 22.6227 32.4296 22.7277C31.6704 22.9377 30.7786 23.1278 30.0414 23.2312C28.4931 23.4657 26.4668 23.6533 23.9436 23.6533C23.9436 23.6533 23.9436 23.6533 23.9436 23.6533V23.6252L23.9437 23.6533C23.9437 23.6533 23.9437 23.6533 23.9436 23.6533C22.0067 23.6655 20.0716 23.5306 18.1551 23.2499L18.1547 23.2498L18.1547 23.2498C17.7465 23.1842 16.9254 23.041 16.0924 22.8381C15.2865 22.6417 14.4648 22.3883 13.9967 22.0927V22.0408H13.9686L13.9529 22.0642C13.9671 22.0737 13.9817 22.0832 13.9967 22.0927V22.3037C13.9911 22.3012 13.9855 22.2988 13.9798 22.2963L13.9686 22.3221H13.9967V22.3037C15.313 22.8783 16.7074 23.2542 18.1343 23.4191L18.1351 23.4192L18.1351 23.4192C20.0584 23.6989 21.9999 23.8335 23.9434 23.8221L23.9437 23.8221C25.9937 23.8362 28.0418 23.6953 30.0705 23.4005C30.0704 23.4005 30.0703 23.4006 30.0702 23.4006L30.0748 23.4283L30.0708 23.4005C30.0707 23.4005 30.0706 23.4005 30.0705 23.4005C31.0915 23.2319 32.0091 23.0306 32.7038 22.8329C33.0513 22.734 33.3425 22.6363 33.5629 22.5441C33.6731 22.498 33.7651 22.4536 33.8374 22.4113C33.9049 22.3719 33.9537 22.3352 33.9842 22.3021V22.3127H34.0123L33.9909 22.2945C33.9887 22.297 33.9865 22.2995 33.9842 22.3021V22.1367ZM13.9552 22.8692C13.9643 22.8643 13.9754 22.8648 13.984 22.8705C14.4341 23.1674 15.2709 23.429 16.1022 23.633C16.932 23.8367 17.7514 23.9818 18.1635 24.0474C19.6432 24.2722 21.5449 24.4408 23.9436 24.4408C26.4641 24.4408 28.4783 24.2628 30.0331 24.0286L30.0332 24.0286C30.7679 23.921 31.6574 23.7291 32.4145 23.5184C32.7931 23.4131 33.1382 23.3032 33.4141 23.197C33.6912 23.0903 33.8948 22.9887 33.9936 22.901L34.0123 22.9221H34.0404V23.1564C34.0404 23.163 34.0382 23.1693 34.034 23.1743C33.9982 23.2178 33.9408 23.262 33.866 23.3066C33.7908 23.3515 33.6963 23.3978 33.5847 23.4451C33.3615 23.5398 33.0679 23.6392 32.7193 23.739C32.0219 23.9385 31.102 24.1403 30.0794 24.3092L30.0788 24.3093C28.047 24.6013 25.9961 24.7393 23.9436 24.7221C21.9973 24.7386 20.0527 24.6038 18.1274 24.3187C16.689 24.1524 15.2835 23.7726 13.9573 23.1916C13.947 23.1871 13.9404 23.177 13.9404 23.1658V22.8939C13.9404 22.8836 13.9461 22.8741 13.9552 22.8692ZM33.9842 22.9805C33.8676 23.0653 33.6754 23.1567 33.4343 23.2495C33.1561 23.3566 32.8092 23.467 32.4296 23.5726C31.6704 23.7838 30.7786 23.9763 30.0414 24.0843C28.4837 24.3189 26.4667 24.4971 23.9436 24.4971C21.5422 24.4971 19.6377 24.3282 18.155 24.103L18.1548 24.103C17.7418 24.0373 16.9207 23.8918 16.0888 23.6877C15.284 23.4902 14.4646 23.2367 13.9967 22.9454V23.1474C15.313 23.7221 16.7074 24.098 18.1343 24.2629L18.1352 24.263L18.1352 24.263C20.0578 24.5477 21.9998 24.6824 23.9433 24.6658H23.9438C25.9935 24.6831 28.0416 24.5453 30.0705 24.2536C31.0915 24.085 32.009 23.8837 32.7038 23.6849C33.0512 23.5854 33.3424 23.4868 33.5627 23.3933C33.6729 23.3466 33.7649 23.3014 33.8372 23.2583C33.9048 23.2179 33.9537 23.1803 33.9842 23.146V22.9805ZM32.7115 27.1409C32.7198 27.1503 32.7209 27.164 32.7142 27.1746L32.1329 28.0934C32.1302 28.0978 32.1262 28.1013 32.1215 28.1036C30.1184 29.0816 27.2719 29.3346 24.0194 29.4283L24.019 29.4283C21.2264 29.4731 18.4482 29.0185 15.8154 28.0861C15.8095 28.084 15.8045 28.08 15.8011 28.0747L15.2386 27.1935C15.2324 27.1838 15.2327 27.1713 15.2394 27.162C15.2461 27.1526 15.2577 27.1483 15.2689 27.151C15.3642 27.1739 15.5025 27.2112 15.6798 27.2589C16.9527 27.6014 20.2318 28.4836 23.9804 28.5002C25.337 28.4994 27.171 28.3194 28.8365 28.0587C30.5068 27.7973 32.0029 27.4556 32.6783 27.1342C32.6897 27.1288 32.7032 27.1315 32.7115 27.1409ZM23.97 28.5564C23.9705 28.5564 23.9711 28.5564 23.9717 28.5564C23.9746 28.5564 23.9776 28.5564 23.9805 28.5564M23.97 28.5564C20.2173 28.5382 16.9351 27.6549 15.6648 27.3131C15.5268 27.2759 15.4125 27.2452 15.324 27.2226L15.8433 28.0363C18.467 28.9643 21.2353 29.4167 24.018 29.3721C27.2677 29.2784 30.0994 29.0256 32.0897 28.0565L32.6162 27.2242C31.8976 27.5378 30.4477 27.8635 28.8452 28.1143C27.1784 28.3751 25.3418 28.5556 23.9814 28.5564" fill="black"/>
<path fill-rule="evenodd" clip-rule="evenodd" d="M32.3344 27.872C32.249 27.9985 32.1615 28.1235 32.0719 28.247C31.1344 28.5845 29.6344 28.9407 29.0156 29.0345C27.3553 29.3439 25.6702 29.5008 23.9813 29.5032C20.1938 29.447 17.0906 28.7063 15.6375 28.0688L15.5156 27.872L15.5344 27.8345L15.7313 27.9188C18.3994 28.8018 21.1896 29.2605 24 29.2782C25.7625 29.2782 27.5156 29.0813 28.9313 28.8282C31.1063 28.3876 31.9875 28.0595 32.2594 27.9095L32.325 27.872H32.3344ZM32.8313 27.047C32.7695 27.1568 32.707 27.2662 32.6438 27.3751C32.1375 27.5626 30.7687 27.9563 28.7719 28.2376C27.4594 28.4157 26.6437 28.5938 24.0281 28.6407C21.0381 28.6107 18.0664 28.1691 15.1969 27.3282L15.0938 27.0938C18.0092 27.8996 21.0134 28.3405 24.0375 28.4063C26.4281 28.3595 27.45 28.1813 28.7531 28.0032C31.0781 27.647 32.25 27.2532 32.5969 27.1501C32.5971 27.1439 32.5971 27.1376 32.5969 27.1313L32.8406 27.0376L32.8313 27.047Z" fill="#FFFF00"/>
<path fill-rule="evenodd" clip-rule="evenodd" d="M32.864 27.0221C32.8713 27.0332 32.8697 27.0479 32.8603 27.0573L32.8537 27.0639C32.7925 27.1727 32.7306 27.2811 32.6679 27.389C32.6646 27.3947 32.6595 27.399 32.6533 27.4013C32.1448 27.5896 30.774 27.9838 28.7756 28.2653L28.7755 28.2653C28.5722 28.2929 28.3809 28.3204 28.1929 28.3475C27.1669 28.4955 26.2406 28.629 24.0284 28.6687L24.0276 28.6687C21.035 28.6386 18.0608 28.1966 15.1888 27.355C15.1808 27.3527 15.1743 27.347 15.1709 27.3394L15.0678 27.105C15.0634 27.095 15.0652 27.0835 15.0723 27.0753C15.0794 27.067 15.0906 27.0637 15.101 27.0665C18.0141 27.8716 21.0158 28.3122 24.0373 28.378C26.1661 28.3363 27.2081 28.1904 28.332 28.0331C28.469 28.0139 28.6073 27.9946 28.7489 27.9752C30.8683 27.6504 32.0282 27.2946 32.4784 27.1565C32.5125 27.146 32.5426 27.1368 32.5686 27.1289C32.5695 27.1182 32.5764 27.1088 32.5866 27.1049L32.8303 27.0112C32.8427 27.0064 32.8568 27.0109 32.864 27.0221ZM32.7723 27.0937L32.6248 27.1505C32.6248 27.1506 32.6248 27.1507 32.6248 27.1509C32.6244 27.163 32.6163 27.1734 32.6047 27.1769C32.5743 27.1859 32.5376 27.1972 32.4944 27.2104C32.0434 27.3488 30.8806 27.7055 28.7572 28.0308L28.7567 28.0309C28.6152 28.0503 28.4769 28.0696 28.3398 28.0888C27.215 28.2462 26.1703 28.3925 24.0379 28.4343L24.0367 28.4343V28.4343C21.03 28.3688 18.043 27.9329 15.1431 27.1365L15.2172 27.3047C18.0802 28.1424 21.0448 28.5824 24.0278 28.6124C26.2362 28.5728 27.1597 28.4397 28.185 28.2919C28.373 28.2648 28.5644 28.2372 28.7678 28.2095C30.7508 27.9303 32.1129 27.5401 32.6243 27.352C32.6741 27.2662 32.7234 27.1801 32.7723 27.0937ZM15.509 27.8217C15.5157 27.8084 15.5316 27.8026 15.5453 27.8084L15.741 27.8923C18.406 28.7741 21.1929 29.2322 23.9999 29.2499C25.7603 29.2499 27.5116 29.0533 28.9258 28.8004C31.1002 28.3599 31.9776 28.0325 32.2454 27.8847C32.2455 27.8847 32.2455 27.8847 32.2456 27.8847L32.3108 27.8474C32.3151 27.8449 32.3199 27.8437 32.3248 27.8437H32.3342C32.3446 27.8437 32.3541 27.8494 32.359 27.8586C32.3639 27.8678 32.3633 27.8789 32.3575 27.8875C32.272 28.0143 32.1843 28.1395 32.0944 28.2633C32.0911 28.2679 32.0865 28.2713 32.0812 28.2732C31.1422 28.6113 29.6409 28.9679 29.0201 29.062C27.3583 29.3717 25.6716 29.5287 23.9811 29.5312L23.9806 29.5312C20.1905 29.4749 17.0834 28.7338 15.626 28.0944C15.6208 28.0921 15.6164 28.0883 15.6134 28.0835L15.4915 27.8866C15.4864 27.8783 15.4859 27.8679 15.4903 27.8592L15.509 27.8217ZM15.5479 27.8707L15.6566 28.0464C17.1088 28.6812 20.2035 29.4188 23.9812 29.4749C25.6684 29.4724 27.3517 29.3157 29.0103 29.0066L29.0112 29.0065L29.0112 29.0065C29.6264 28.9133 31.1178 28.5592 32.054 28.2232C32.1203 28.1318 32.1854 28.0396 32.2493 27.9465C31.9484 28.1039 31.0533 28.4268 28.9366 28.8556L28.936 28.8557C27.5191 29.1091 25.7643 29.3062 23.9998 29.3062L23.9996 29.3062C21.1863 29.2884 18.3932 28.8292 15.7222 27.9454C15.7215 27.9451 15.7207 27.9448 15.72 27.9445L15.5479 27.8707Z" fill="black"/>
<path fill-rule="evenodd" clip-rule="evenodd" d="M32.8873 22.275C32.8967 25.0875 31.4529 27.6187 30.2998 28.725C28.5967 30.386 26.3223 31.332 23.9436 31.3687C21.1029 31.4156 18.4311 29.5688 17.7092 28.7531C16.0943 27.0406 15.1752 24.7879 15.1311 22.4344C15.2998 19.3594 16.5092 17.2219 18.2529 15.75C19.9469 14.3555 22.0777 13.6021 24.2717 13.6219C25.5524 13.684 26.8061 14.0129 27.9523 14.5876C29.0985 15.1624 30.1121 15.9702 30.9279 16.9594C32.0998 18.3844 32.6154 19.9313 32.8873 22.275ZM23.9623 12.6563C26.585 12.6562 29.1013 13.6929 30.9628 15.5403C32.8243 17.3878 33.88 19.8962 33.8998 22.5187C33.8998 23.8201 33.6435 25.1086 33.1455 26.3109C32.6475 27.5132 31.9176 28.6056 30.9974 29.5257C30.0773 30.4459 28.9849 31.1758 27.7826 31.6738C26.5803 32.1718 25.2918 32.4281 23.9904 32.4281C22.6891 32.4281 21.4006 32.1718 20.1983 31.6738C18.996 31.1758 17.9036 30.4459 16.9835 29.5257C16.0633 28.6056 15.3334 27.5132 14.8354 26.3109C14.3374 25.1086 14.0811 23.8201 14.0811 22.5187C14.0717 17.0812 18.5154 12.6563 23.9623 12.6563Z" fill="#FFFF00"/>
<path fill-rule="evenodd" clip-rule="evenodd" d="M30.9428 15.5601C29.0866 13.7179 26.5773 12.6841 23.9621 12.6842C18.5307 12.6842 14.0997 17.0967 14.109 22.5185L14.109 22.5186C14.109 23.8162 14.3646 25.1011 14.8612 26.2999C15.3577 27.4988 16.0856 28.5881 17.0032 29.5057C17.9207 30.4232 19.01 31.1511 20.2089 31.6476C21.4077 32.1442 22.6926 32.3998 23.9902 32.3998C25.2879 32.3998 26.5728 32.1442 27.7716 31.6476C28.9705 31.1511 30.0598 30.4232 30.9773 29.5057C31.8949 28.5881 32.6228 27.4988 33.1193 26.2999C33.6159 25.1011 33.8715 23.8162 33.8715 22.5186C33.8517 19.9035 32.799 17.4023 30.9428 15.5601ZM23.9621 12.6279C26.5922 12.6279 29.1157 13.6675 30.9824 15.5202C32.8492 17.3728 33.9079 19.8883 33.9277 22.5183V22.5186C33.9277 23.8236 33.6707 25.1158 33.1713 26.3215C32.6719 27.5271 31.9399 28.6226 31.0171 29.5454C30.0943 30.4682 28.9988 31.2002 27.7932 31.6996C26.5875 32.199 25.2953 32.4561 23.9902 32.4561C22.6852 32.4561 21.393 32.199 20.1873 31.6996C18.9817 31.2002 17.8862 30.4682 16.9634 29.5454C16.0406 28.6226 15.3086 27.5271 14.8092 26.3215C14.3098 25.1158 14.0528 23.8236 14.0527 22.5186C14.0434 17.0654 18.4998 12.6279 23.9621 12.6279ZM24.2707 13.6498C22.0836 13.6302 19.9594 14.3813 18.2708 15.7714C16.5334 17.238 15.3276 19.3678 15.159 22.4347C15.2032 24.7808 16.1196 27.0264 17.7295 28.7336L17.7301 28.7343L17.7301 28.7343C18.0879 29.1387 18.9331 29.8023 20.0443 30.359C21.155 30.9156 22.5286 31.3638 23.9429 31.3404H23.9429C26.3145 31.3038 28.582 30.3607 30.28 28.7047L30.2802 28.7045C31.4281 27.6032 32.8678 25.0798 32.859 22.2765C32.5874 19.9366 32.073 18.3961 30.9061 16.9771C30.0927 15.9909 29.0822 15.1856 27.9395 14.6126C26.7969 14.0397 25.5473 13.7118 24.2707 13.6498ZM32.8871 22.2748L32.9151 22.2716C32.6428 19.9248 32.126 18.372 30.9495 16.9413L30.9494 16.9413C30.1311 15.9491 29.1144 15.1388 27.9647 14.5623C26.815 13.9858 25.5575 13.6559 24.2729 13.5936L24.2729 13.5936L24.2718 13.5936C22.0712 13.5737 19.9339 14.3294 18.2349 15.7281L18.2346 15.7283C16.4848 17.2053 15.272 19.3501 15.1028 22.4326C15.1028 22.4333 15.1027 22.434 15.1028 22.4347C15.147 24.795 16.0687 27.0543 17.6882 28.7719C18.0524 29.1832 18.9039 29.8506 20.0191 30.4093C21.1349 30.9684 22.5176 31.4202 23.9438 31.3967C26.3297 31.3599 28.6109 30.4111 30.3191 28.7451C30.3191 28.7451 30.3191 28.7451 30.3191 28.7451L30.2996 28.7248L30.3193 28.7449C30.3192 28.745 30.3192 28.745 30.3191 28.7451" fill="black"/>
<path fill-rule="evenodd" clip-rule="evenodd" d="M23.9902 12.6094C29.4465 12.6094 33.8902 17.0531 33.8902 22.5094C33.8902 27.9656 29.4465 32.4094 23.9996 32.4094C18.5527 32.4094 14.0996 27.9656 14.0996 22.5094C14.0996 17.0531 18.5434 12.6094 23.9996 12.6094H23.9902ZM14.3059 22.5C14.3059 27.825 18.684 32.1844 23.9902 32.1844C29.2965 32.1844 33.6746 27.825 33.6746 22.5C33.6746 17.175 29.2965 12.8156 23.9902 12.8156C18.684 12.8156 14.3059 17.175 14.3059 22.5Z" fill="#FFFF00"/>
<path fill-rule="evenodd" clip-rule="evenodd" d="M23.9947 12.6373C18.5562 12.6399 14.1275 17.07 14.1275 22.5092C14.1275 27.9499 18.5681 32.3811 23.9994 32.3811C29.4307 32.3811 33.8619 27.9499 33.8619 22.5092C33.8619 17.07 29.4333 12.6399 23.9947 12.6373ZM23.9999 12.5811C29.4672 12.5864 33.9182 17.0407 33.9182 22.5092C33.9182 27.9809 29.4618 32.4373 23.9994 32.4373C18.537 32.4373 14.0713 27.981 14.0713 22.5092C14.0713 17.0407 18.5223 12.5864 23.9895 12.5811C23.9897 12.5811 23.9899 12.5811 23.99 12.5811H23.9994C23.9996 12.5811 23.9998 12.5811 23.9999 12.5811ZM14.2775 22.4998C14.2775 17.1592 18.6683 12.7873 23.99 12.7873C29.3118 12.7873 33.7025 17.1592 33.7025 22.4998C33.7025 27.8404 29.3118 32.2123 23.99 32.2123C18.6683 32.2123 14.2775 27.8404 14.2775 22.4998ZM23.99 12.8436C18.6993 12.8436 14.3338 17.1904 14.3338 22.4998C14.3338 27.8092 18.6993 32.1561 23.99 32.1561C29.2808 32.1561 33.6463 27.8092 33.6463 22.4998C33.6463 17.1904 29.2808 12.8436 23.99 12.8436Z" fill="black"/>
<path fill-rule="evenodd" clip-rule="evenodd" d="M24.0002 13.4346C26.4023 13.442 28.7038 14.3995 30.4024 16.098C32.1009 17.7966 33.0584 20.0981 33.0658 22.5002C33.0584 24.9031 32.1012 27.2057 30.4029 28.9057C28.7047 30.6057 26.4031 31.5653 24.0002 31.5752C19.0314 31.5752 14.9346 27.4877 14.9346 22.5002C14.9444 20.0989 15.9027 17.7987 17.6007 16.1007C19.2987 14.4027 21.5989 13.4444 24.0002 13.4346ZM15.1502 22.5002C15.1502 27.3752 19.1439 31.3502 24.0002 31.3502C28.8564 31.3502 32.8502 27.3658 32.8502 22.5002C32.8502 17.6252 28.8564 13.6502 24.0002 13.6502C21.6561 13.6601 19.4108 14.5956 17.7532 16.2532C16.0956 17.9108 15.1601 20.1561 15.1502 22.5002Z" fill="#FFFF00"/>
<path fill-rule="evenodd" clip-rule="evenodd" d="M30.3823 16.1177C28.689 14.4245 26.3946 13.4699 24 13.4625C21.6062 13.4724 19.3132 14.4277 17.6204 16.1204C15.9277 17.8132 14.9724 20.1062 14.9625 22.5001C14.9625 27.472 19.0467 31.5468 23.9999 31.5469C26.3954 31.537 28.6898 30.5804 30.3829 28.8856C32.0758 27.1909 33.0301 24.8955 33.0375 22.5C33.0301 20.1054 32.0755 17.811 30.3823 16.1177ZM24 13.4344L24.0001 13.4062C26.4096 13.4137 28.7183 14.3742 30.4221 16.0779C32.1258 17.7817 33.0863 20.0904 33.0938 22.4999V22.5001C33.0863 24.9104 32.1262 27.2201 30.4226 28.9254C28.7191 30.6307 26.4105 31.5932 24.0001 31.6031H24C19.0157 31.6031 14.9062 27.503 14.9062 22.5L14.9063 22.4999C14.9162 20.0912 15.8774 17.7839 17.5807 16.0807C19.2839 14.3774 21.5912 13.4162 23.9999 13.4063L24 13.4344ZM24 13.6219C28.8717 13.6219 32.8781 17.6094 32.8781 22.5C32.8781 27.3812 28.8718 31.3781 24 31.3781C19.1283 31.3781 15.1219 27.3906 15.1219 22.5H15.15L15.1219 22.4999C15.1318 20.1483 16.0703 17.8959 17.7331 16.2331C19.3959 14.5703 21.6483 13.6318 23.9999 13.6219L24 13.6219ZM15.1781 22.5001C15.1782 27.3595 19.1593 31.3219 24 31.3219C28.8407 31.3219 32.8219 27.3501 32.8219 22.5C32.8219 17.6406 28.8408 13.6782 24.0001 13.6781C21.6634 13.688 19.4252 14.6206 17.7729 16.2729C16.1206 17.9252 15.188 20.1634 15.1781 22.5001Z" fill="black"/>
<path fill-rule="evenodd" clip-rule="evenodd" d="M24.4029 12.5625H23.5498V32.4656H24.3936L24.4029 12.5625Z" fill="#FFFF00"/>
<path fill-rule="evenodd" clip-rule="evenodd" d="M23.5215 12.5623C23.5215 12.5468 23.5341 12.5342 23.5496 12.5342H24.4027C24.4102 12.5342 24.4174 12.5371 24.4226 12.5424C24.4279 12.5477 24.4309 12.5549 24.4309 12.5623L24.4215 32.4654C24.4215 32.481 24.4089 32.4936 24.3934 32.4936H23.5496C23.5341 32.4936 23.5215 32.481 23.5215 32.4654V12.5623ZM23.5777 12.5904V32.4373H24.3652L24.3746 12.5904H23.5777Z" fill="black"/>
<path fill-rule="evenodd" clip-rule="evenodd" d="M24.3096 12.4502H24.5252V32.5783H24.3189V12.4502H24.3096ZM23.4658 12.4502H23.6908V32.5783H23.4752V12.4502H23.4658Z" fill="#FFFF00"/>
<path fill-rule="evenodd" clip-rule="evenodd" d="M23.4375 12.45C23.4375 12.4345 23.4501 12.4219 23.4656 12.4219H23.6906C23.7062 12.4219 23.7187 12.4345 23.7187 12.45V32.5781C23.7187 32.5937 23.7062 32.6063 23.6906 32.6063H23.475C23.4595 32.6063 23.4469 32.5937 23.4469 32.5781V12.471C23.4411 12.4658 23.4375 12.4583 23.4375 12.45ZM23.5031 12.4781V32.55H23.6625V12.4781H23.5031ZM24.2812 12.45C24.2812 12.4345 24.2938 12.4219 24.3094 12.4219H24.525C24.5405 12.4219 24.5531 12.4345 24.5531 12.45V32.5781C24.5531 32.5937 24.5405 32.6063 24.525 32.6063H24.3187C24.3032 32.6063 24.2906 32.5937 24.2906 32.5781V12.471C24.2849 12.4658 24.2812 12.4583 24.2812 12.45ZM24.3469 12.4781V32.55H24.4969V12.4781H24.3469Z" fill="black"/>
<path fill-rule="evenodd" clip-rule="evenodd" d="M33.8996 22.8937V22.1625L33.2996 21.6L29.8965 20.7L25.0027 20.2031L19.0965 20.5031L14.8965 21.4969L14.0527 22.125V22.8656L16.1996 21.9L21.2996 21.1031H26.2027L29.8027 21.4969L32.2965 22.0969L33.8996 22.8937Z" fill="#FFFF00"/>
<path fill-rule="evenodd" clip-rule="evenodd" d="M25.0011 20.1748C25.0025 20.1748 25.004 20.1748 25.0054 20.1749L29.8991 20.6718C29.9006 20.672 29.9021 20.6722 29.9035 20.6726L33.3066 21.5726C33.3111 21.5738 33.3153 21.5761 33.3187 21.5793L33.9186 22.1418C33.9243 22.1471 33.9275 22.1545 33.9275 22.1623V22.8936C33.9275 22.9033 33.9225 22.9123 33.9142 22.9175C33.906 22.9226 33.8956 22.9231 33.8869 22.9187L32.2866 22.1233L29.7977 21.5244L26.201 21.1311H21.3016L16.2075 21.927L14.0641 22.8911C14.0554 22.895 14.0453 22.8942 14.0373 22.889C14.0293 22.8839 14.0244 22.875 14.0244 22.8654V22.1248C14.0244 22.1159 14.0286 22.1076 14.0357 22.1022L14.8795 21.4741C14.8826 21.4718 14.8861 21.4702 14.8898 21.4693L19.0898 20.4756C19.0915 20.4752 19.0932 20.4749 19.0949 20.4748L25.0011 20.1748ZM19.1003 20.5309L14.9084 21.5227L14.0807 22.1389V22.8219L16.1879 21.8742C16.1902 21.8731 16.1926 21.8724 16.1951 21.872L21.2951 21.0751C21.2965 21.0749 21.298 21.0748 21.2994 21.0748H26.2025C26.2029 21.0748 26.2033 21.0748 26.2038 21.0748C26.2044 21.0749 26.205 21.0749 26.2056 21.075L29.8056 21.4687C29.8068 21.4689 29.808 21.4691 29.8091 21.4693L32.3029 22.0693C32.3049 22.0698 32.3069 22.0706 32.3088 22.0715L33.8713 22.8482V22.1745L33.2854 21.6252L29.8912 20.7276L25.0018 20.2311L19.1003 20.5309Z" fill="black"/>
<path fill-rule="evenodd" clip-rule="evenodd" d="M24 20.9812C26.3344 20.9812 28.5937 21.1969 30.4031 21.5437C32.2594 21.9187 33.5625 22.3875 34.0125 22.9031V23.1656C33.4687 22.5094 31.7156 22.0406 30.3562 21.7594C28.575 21.4219 26.325 21.1969 23.9906 21.1969C21.5437 21.1969 19.2563 21.4406 17.4938 21.7781C16.0875 22.0594 14.2031 22.6219 13.9688 23.1656V22.8937C14.0906 22.5187 15.4969 21.9562 17.4656 21.5531C19.2375 21.2062 21.525 20.9812 23.9906 20.9812H24ZM24 20.1281C26.1469 20.1238 28.2899 20.3121 30.4031 20.6906C32.2594 21.0656 33.5625 21.5344 34.0125 22.0594V22.3125C33.4687 21.6656 31.7156 21.1875 30.3562 20.9156C28.575 20.5687 26.325 20.3531 23.9906 20.3531C21.8148 20.3462 19.6431 20.5408 17.5031 20.9344C16.1437 21.1875 14.1844 21.7687 13.9688 22.3125V22.05C14.1 21.675 15.525 21.0844 17.4656 20.7094C19.2469 20.3625 21.525 20.1281 24 20.1281ZM23.9437 15.7969C27.6281 15.7781 30.8438 16.3125 32.3156 17.0625L32.85 18C31.575 17.3062 28.1062 16.5937 23.9531 16.6875C20.5688 16.7156 16.95 17.0625 15.1406 18.0375L15.7781 16.9687C17.2688 16.1906 20.775 15.7969 23.9437 15.7969Z" fill="#FFFF00"/>
<path fill-rule="evenodd" clip-rule="evenodd" d="M28.9549 16.169C27.5081 15.9442 25.7846 15.8154 23.9437 15.8248C23.9436 15.8248 23.9436 15.8248 23.9436 15.8248M28.9549 16.169C30.3974 16.3931 31.5627 16.7122 32.2952 17.0835L28.9549 16.169ZM32.2952 17.0835L32.7778 17.9302C32.1189 17.5959 30.9655 17.2629 29.4852 17.0205C27.9378 16.7671 26.0307 16.6123 23.9525 16.6592C22.2596 16.6732 20.5076 16.767 18.9523 16.9793C17.4472 17.1848 16.1236 17.5015 15.2157 17.966L15.798 16.9898C16.5395 16.605 17.7812 16.3137 19.2352 16.1187C20.6927 15.9232 22.3601 15.8248 23.9434 15.8248M23.9435 15.7685C22.3581 15.7685 20.6881 15.867 19.2277 16.0629C17.7683 16.2587 16.5149 16.5521 15.7649 16.9436C15.7603 16.946 15.7564 16.9497 15.7538 16.9541L15.1163 18.0229C15.1098 18.0338 15.1114 18.0476 15.1201 18.0567C15.1289 18.0659 15.1426 18.0681 15.1538 18.0621C16.0539 17.577 17.4068 17.2471 18.9599 17.0351C20.5122 16.8232 22.2617 16.7295 23.9532 16.7154L23.9536 16.7154C26.0284 16.6686 27.9321 16.8231 29.4761 17.076C31.0209 17.329 32.2031 17.6799 32.8364 18.0245C32.8474 18.0305 32.8611 18.0285 32.8699 18.0195C32.8787 18.0105 32.8805 17.9968 32.8742 17.9859L32.3399 17.0484C32.3371 17.0436 32.3331 17.0397 32.3282 17.0372C31.5883 16.6602 30.413 16.3386 28.9635 16.1134C27.5134 15.8882 25.787 15.7592 23.9435 15.7685ZM30.3977 20.7181C28.2862 20.3398 26.145 20.1517 23.9999 20.156L23.9998 20.1279V20.156C21.5265 20.156 19.2501 20.3903 17.4708 20.7368L17.4708 20.7368C16.5017 20.924 15.662 21.165 15.0487 21.4057C14.742 21.526 14.4927 21.646 14.3123 21.7587C14.2221 21.8151 14.1498 21.8692 14.0963 21.9203C14.0444 21.9698 14.0118 22.0149 13.9967 22.0548V22.2059C14.0263 22.1655 14.0638 22.1256 14.1079 22.0863C14.1867 22.0162 14.288 21.9468 14.4066 21.8788C14.6439 21.7427 14.9533 21.6105 15.2974 21.4878C15.9858 21.2422 16.817 21.0333 17.4978 20.9065L17.4978 20.9065C19.6395 20.5126 21.813 20.3179 23.9905 20.3248C26.3264 20.3248 28.5782 20.5406 30.3614 20.8878L30.3616 20.8878C31.0419 21.0239 31.8214 21.2117 32.4992 21.4467C32.8382 21.5641 33.1522 21.6936 33.416 21.8346C33.65 21.9596 33.8457 22.0943 33.9842 22.239V22.0697C33.7621 21.8157 33.3322 21.572 32.7251 21.3449C32.113 21.1159 31.3249 20.9054 30.3977 20.7181ZM23.9997 20.0998C26.1483 20.0955 28.293 20.2839 30.4079 20.6627L30.4085 20.6628C31.3374 20.8505 32.1288 21.0618 32.7448 21.2922C33.3596 21.5222 33.8037 21.7726 34.0337 22.0409C34.038 22.046 34.0404 22.0525 34.0404 22.0592V22.3123C34.0404 22.3241 34.033 22.3347 34.0219 22.3387C34.0108 22.3428 33.9984 22.3394 33.9908 22.3304C33.8582 22.1726 33.6502 22.0235 33.3895 21.8842C33.1292 21.7451 32.8181 21.6167 32.4808 21.4998C31.8064 21.266 31.0296 21.0788 30.3506 20.943C28.5713 20.5965 26.3232 20.381 23.9904 20.381H23.9903C21.8163 20.3742 19.6462 20.5686 17.508 20.9618C16.8295 21.0882 16.0013 21.2964 15.3163 21.5407C14.9737 21.6629 14.6678 21.7938 14.4346 21.9276C14.318 21.9944 14.2202 22.0616 14.1453 22.1284C14.0701 22.1953 14.0194 22.2604 13.9947 22.3227C13.9897 22.3352 13.9765 22.3425 13.9633 22.3399C13.95 22.3374 13.9404 22.3258 13.9404 22.3123V22.0498C13.9404 22.0466 13.941 22.0435 13.942 22.0405C13.9605 21.9877 14.0006 21.9338 14.0575 21.8796C14.1146 21.825 14.1903 21.7686 14.2825 21.711C14.4669 21.5958 14.7197 21.4744 15.0282 21.3533C15.6454 21.1111 16.4885 20.8693 17.4601 20.6816C19.2432 20.3343 21.5231 20.0998 23.9997 20.0998ZM23.9904 21.0092C21.5264 21.0092 19.2408 21.234 17.471 21.5805C16.4877 21.7818 15.6456 22.0228 15.0346 22.26C14.729 22.3786 14.482 22.496 14.3044 22.6064C14.2155 22.6617 14.1446 22.7148 14.0926 22.765C14.042 22.8139 14.0107 22.8585 13.9967 22.8982V23.0623C14.08 22.9496 14.2237 22.8398 14.4064 22.7344C14.64 22.5997 14.9432 22.4689 15.2821 22.3468C15.9599 22.1024 16.784 21.8912 17.488 21.7503L17.4883 21.7503C19.2525 21.4125 21.5418 21.1685 23.9904 21.1685C26.3265 21.1685 28.5782 21.3937 30.3613 21.7315L30.3618 21.7316C31.0419 21.8724 31.8214 22.0601 32.4992 22.2951C32.8382 22.4126 33.1523 22.542 33.4161 22.6836C33.65 22.8091 33.8457 22.9449 33.9842 23.0913V22.9135C33.762 22.6641 33.3321 22.4227 32.7251 22.1969C32.113 21.9691 31.3248 21.7585 30.3975 21.5711C28.5901 21.2247 26.3326 21.0092 23.9998 21.0092H23.9904ZM17.46 21.5253C19.2339 21.178 21.5232 20.9529 23.9904 20.9529H23.9998C26.3358 20.9529 28.5969 21.1687 30.4082 21.5159L30.4085 21.516C31.3374 21.7036 32.1288 21.9149 32.7448 22.1441C33.3596 22.3729 33.8036 22.621 34.0335 22.8844C34.038 22.8896 34.0404 22.8961 34.0404 22.9029V23.1654C34.0404 23.1773 34.033 23.1879 34.0218 23.1919C34.0107 23.1959 33.9982 23.1925 33.9906 23.1834C33.858 23.0233 33.6501 22.873 33.3895 22.7332C33.1292 22.5935 32.8181 22.4651 32.4808 22.3482C31.8064 22.1145 31.0297 21.9273 30.3506 21.7868C28.5712 21.4496 26.323 21.2248 23.9904 21.2248C21.5453 21.2248 19.2597 21.4684 17.4989 21.8055C16.7968 21.946 15.9756 22.1566 15.3011 22.3997C14.9638 22.5213 14.6641 22.6507 14.4345 22.7831C14.2034 22.9165 14.0491 23.0497 13.9944 23.1766C13.9891 23.1888 13.9759 23.1957 13.9629 23.193C13.9498 23.1903 13.9404 23.1788 13.9404 23.1654V22.8935C13.9404 22.8906 13.9409 22.8877 13.9418 22.8849C13.959 22.8318 13.9979 22.7782 14.0535 22.7246C14.1094 22.6707 14.1838 22.6152 14.2747 22.5587C14.4564 22.4456 14.7069 22.3268 15.0142 22.2076C15.629 21.9689 16.4744 21.7271 17.4598 21.5254L17.46 21.5253Z" fill="black"/>
<path fill-rule="evenodd" clip-rule="evenodd" d="M24.0002 16.5656C25.9239 16.5331 27.8468 16.668 29.7471 16.9687C31.2471 17.2499 32.6814 17.6624 32.8877 17.8874L33.0471 18.1687C32.5502 17.8499 31.3033 17.4843 29.7096 17.1843C28.1158 16.8843 26.0814 16.7812 23.9908 16.7906C21.6189 16.7812 19.7721 16.9031 18.1971 17.1843C17.1113 17.3365 16.0572 17.6625 15.0752 18.1499L15.2346 17.8593C15.7971 17.5781 16.6689 17.2312 18.1502 16.9593C19.7908 16.6593 21.6564 16.5749 24.0002 16.5656ZM24.0002 15.7218C26.0064 15.7031 27.9939 15.8156 29.5408 16.0968C30.543 16.2456 31.5129 16.5626 32.4096 17.0343L32.6439 17.4093C32.2502 16.9687 30.7689 16.5468 29.4471 16.3218C27.9096 16.0499 26.0064 15.9468 24.0002 15.9281C22.1326 15.9114 20.2669 16.0494 18.4221 16.3406C17.4575 16.475 16.5206 16.763 15.6471 17.1937L15.8533 16.8843C16.3971 16.6031 17.2783 16.3406 18.3846 16.1249C20.2415 15.8299 22.1201 15.692 24.0002 15.7124V15.7218ZM28.9127 26.6249C27.2877 26.3436 25.6396 26.218 23.9908 26.2499C17.8502 26.3249 15.8721 27.5156 15.6283 27.8718L15.1596 27.1218C16.7346 25.9968 20.0721 25.3593 24.0283 25.4156C26.0814 25.4531 27.8533 25.5937 29.3346 25.8843L28.9127 26.6343" fill="#FFFF00"/>
<path fill-rule="evenodd" clip-rule="evenodd" d="M18.3893 16.1529C17.2884 16.3675 16.4131 16.6282 15.8725 16.9063L15.7277 17.1234C16.5771 16.7165 17.4845 16.4431 18.4177 16.313C20.264 16.0216 22.1312 15.8836 24.0003 15.9002L24.0003 15.9002C26.007 15.919 27.9119 16.0221 29.4517 16.2944C30.1136 16.4071 30.8157 16.5691 31.402 16.7582C31.6951 16.8528 31.9599 16.9544 32.1764 17.0602C32.3088 17.1249 32.4242 17.1917 32.5171 17.26L32.3896 17.056C31.4976 16.5876 30.5331 16.2729 29.5365 16.1249L29.5356 16.1248L29.5356 16.1248C27.9911 15.844 26.0056 15.7315 24.0003 15.7502C23.9928 15.7503 23.9855 15.7474 23.9802 15.7421C23.9797 15.7416 23.9793 15.7411 23.9788 15.7406C22.1074 15.7214 20.2377 15.8593 18.3893 16.1529ZM24.0208 15.6938C24.0157 15.6882 24.0084 15.6847 24.0003 15.6846C22.1186 15.6641 20.2385 15.8022 18.38 16.0975L18.38 16.0974L18.379 16.0976C17.272 16.3134 16.3876 16.5765 15.8402 16.8596C15.836 16.8618 15.8324 16.865 15.8297 16.869L15.6235 17.1784C15.6164 17.189 15.6173 17.203 15.6257 17.2125C15.6341 17.2221 15.6479 17.2248 15.6593 17.2192C16.5301 16.7898 17.4641 16.5027 18.4258 16.3687L18.4258 16.3687L18.4263 16.3686C20.2695 16.0777 22.1337 15.9398 23.9997 15.9565C26.0055 15.9752 27.9068 16.0783 29.442 16.3498L29.4422 16.3498C30.1021 16.4622 30.8015 16.6236 31.3847 16.8118C31.6763 16.9058 31.9384 17.0065 32.1517 17.1107C32.3656 17.2152 32.528 17.3223 32.6228 17.4283C32.6325 17.4392 32.649 17.4409 32.6606 17.4321C32.6723 17.4233 32.6753 17.4071 32.6676 17.3947L32.4332 17.0197C32.4306 17.0155 32.4269 17.012 32.4225 17.0097C31.5231 16.5366 30.5504 16.2186 29.5452 16.0694C28.0014 15.7887 26.0206 15.676 24.0208 15.6938ZM29.7421 16.9967C27.8435 16.6963 25.9224 16.5615 24.0005 16.594L24 16.5659L24.0001 16.594C21.6567 16.6034 19.7931 16.6877 18.1551 16.9873C16.6832 17.2574 15.8151 17.6015 15.2548 17.8808L15.1424 18.0858C16.1042 17.6188 17.1333 17.3053 18.1924 17.1568C19.7696 16.8752 21.6181 16.7534 23.9906 16.7627C26.0818 16.7534 28.1182 16.8565 29.7146 17.157C30.5121 17.3071 31.2232 17.4737 31.7974 17.6428C32.3063 17.7926 32.7096 17.945 32.97 18.0904L32.8647 17.9045C32.8417 17.8804 32.8009 17.8519 32.7415 17.8199C32.6809 17.7873 32.6032 17.752 32.5103 17.7149C32.3245 17.6407 32.08 17.5595 31.7945 17.4765C31.2237 17.3104 30.4912 17.1372 29.7421 16.9967ZM23.9997 16.5377C21.6557 16.5471 19.7881 16.6315 18.1449 16.9319L18.1449 16.9319C16.6612 17.2043 15.7868 17.5519 15.2218 17.8344C15.2167 17.837 15.2125 17.8411 15.2097 17.8461L15.0503 18.1367C15.0444 18.1475 15.0462 18.1608 15.0547 18.1697C15.0632 18.1786 15.0765 18.1809 15.0875 18.1754C16.0668 17.6894 17.118 17.3642 18.2008 17.2125L18.2008 17.2125L18.2018 17.2123C19.7745 16.9315 21.6195 16.8096 23.9905 16.819H23.9908C26.0807 16.8096 28.113 16.9127 29.7042 17.2122C30.5004 17.3621 31.2096 17.5283 31.7815 17.6967C32.3542 17.8654 32.7868 18.0356 33.0317 18.1927C33.0426 18.1996 33.0568 18.1983 33.0662 18.1894C33.0756 18.1805 33.0777 18.1664 33.0713 18.1551L32.912 17.8739C32.9109 17.872 32.9097 17.8703 32.9082 17.8687C32.8792 17.837 32.8308 17.8042 32.7682 17.7704C32.705 17.7364 32.6252 17.7003 32.5311 17.6627C32.3431 17.5875 32.0966 17.5058 31.8102 17.4224C31.2373 17.2557 30.5028 17.0821 29.7521 16.9413L29.7521 16.9413L29.7513 16.9412C27.8494 16.6403 25.925 16.5053 23.9997 16.5377ZM15.1973 27.1297L15.6306 27.8229C15.7103 27.7291 15.8796 27.5992 16.1612 27.4539C16.479 27.29 16.9429 27.1047 17.5907 26.9286C18.8861 26.5762 20.9183 26.2596 23.9902 26.2221C23.9903 26.2221 23.9903 26.2221 23.9903 26.2221L23.9906 26.2502L23.9901 26.2221C23.9901 26.2221 23.9902 26.2221 23.9902 26.2221C25.6358 26.1903 27.2806 26.3151 28.9025 26.595L28.888 26.6208C28.8827 26.6302 28.8834 26.6412 28.8887 26.6497C27.2717 26.3709 25.6318 26.2466 23.9912 26.2783L23.991 26.2784C20.9223 26.3158 18.8951 26.6321 17.6054 26.9828C16.9606 27.1582 16.5005 27.3421 16.187 27.5039C15.8722 27.6664 15.7081 27.805 15.6513 27.888C15.646 27.8958 15.637 27.9004 15.6275 27.9002C15.6181 27.9 15.6093 27.8951 15.6043 27.887L15.1355 27.137C15.1276 27.1244 15.1309 27.1079 15.143 27.0992C15.9353 26.5333 17.1681 26.0917 18.6955 25.7984C20.2235 25.505 22.0489 25.3596 24.0285 25.3877L24.0286 25.3877C26.0826 25.4252 27.8563 25.5659 29.3398 25.857C29.3486 25.8587 29.3561 25.8646 29.3599 25.8728C29.3637 25.881 29.3633 25.8905 29.3589 25.8984L28.937 26.6484C28.9294 26.6619 28.9122 26.6667 28.8987 26.6591C28.8945 26.6568 28.8912 26.6535 28.8887 26.6497M29.2908 25.9048L28.9025 26.595L29.2908 25.9048ZM29.2908 25.9048C29.3035 25.9072 29.3163 25.9097 29.329 25.9122L29.3344 25.8846L29.3099 25.8708L29.2908 25.9048ZM29.2908 25.9048C27.8196 25.6196 26.0624 25.4811 24.0277 25.444L24.0281 25.4159L24.0276 25.444C24.0276 25.444 24.0277 25.444 24.0277 25.444C22.0511 25.4159 20.2296 25.5611 18.7061 25.8536C17.1958 26.1436 15.9808 26.5779 15.1973 27.1297" fill="black"/>
<path fill-rule="evenodd" clip-rule="evenodd" d="M23.9621 26.1467C25.6684 26.1748 27.3371 26.2404 28.959 26.5404L28.8465 26.7467C27.3465 26.4654 25.734 26.3717 23.9715 26.3717C21.6934 26.3529 19.4059 26.5686 17.409 27.1404C16.7809 27.3186 15.7402 27.7217 15.6277 28.0592L15.5152 27.8717C15.5527 27.6654 16.1715 27.2529 17.3527 26.9342C19.6402 26.2779 21.7777 26.1561 23.9621 26.1467ZM24.0371 25.2842C25.838 25.2824 27.6356 25.4392 29.409 25.7529L29.2871 25.9686C27.5554 25.6509 25.7977 25.4971 24.0371 25.5092C21.7684 25.5092 19.359 25.6779 17.1652 26.3154C16.4621 26.5217 15.234 26.9717 15.1965 27.3186L15.084 27.1123C15.1027 26.7936 16.1621 26.3717 17.1184 26.0998C19.3215 25.4529 21.7402 25.2936 24.0371 25.2842Z" fill="#FFFF00"/>
<path fill-rule="evenodd" clip-rule="evenodd" d="M29.3647 25.774C27.6057 25.4652 25.823 25.3108 24.037 25.3126C21.741 25.322 19.3254 25.4813 17.1261 26.1271L17.1259 26.1272C16.6485 26.2629 16.1461 26.4358 15.7612 26.6143C15.5687 26.7036 15.4067 26.7937 15.2921 26.8806C15.2348 26.924 15.1903 26.966 15.1597 27.0059C15.1314 27.0427 15.1162 27.0763 15.1126 27.1066L15.1887 27.2463C15.2015 27.2192 15.2194 27.1926 15.2413 27.1665C15.2819 27.1182 15.3377 27.0698 15.4045 27.0219C15.538 26.9262 15.7189 26.8301 15.9194 26.739C16.3206 26.5566 16.8048 26.3921 17.1571 26.2888L17.1572 26.2887C19.3546 25.6502 21.767 25.4814 24.0368 25.4814C25.7924 25.4693 27.5453 25.6221 29.2723 25.9376L29.3647 25.774ZM24.0369 25.2845L24.0369 25.2564C25.8395 25.2545 27.6387 25.4115 29.4137 25.7255C29.4227 25.7271 29.4303 25.733 29.4342 25.7412C29.4381 25.7495 29.4378 25.7591 29.4333 25.7671L29.3114 25.9827C29.3055 25.9931 29.2936 25.9987 29.2818 25.9965C27.5519 25.6792 25.7959 25.5255 24.0371 25.5376L24.0369 25.5376C21.7693 25.5376 19.3629 25.7063 17.1729 26.3427C16.8221 26.4456 16.3407 26.6093 15.9427 26.7902C15.7436 26.8807 15.5665 26.975 15.4372 27.0676C15.3726 27.114 15.3208 27.1593 15.2844 27.2027C15.2477 27.2464 15.2281 27.2862 15.2243 27.3219C15.2229 27.3341 15.2138 27.3441 15.2018 27.3464C15.1897 27.3488 15.1775 27.3431 15.1716 27.3323L15.0591 27.1261C15.0566 27.1215 15.0554 27.1162 15.0557 27.111C15.0585 27.0635 15.0804 27.0168 15.115 26.9716C15.1497 26.9264 15.1985 26.881 15.2581 26.8358C15.3773 26.7454 15.5435 26.6533 15.7376 26.5633C16.1261 26.3831 16.6315 26.2092 17.1104 26.0731C19.3173 25.4251 21.7391 25.2657 24.0368 25.2564L24.0369 25.2845ZM23.9624 26.1189V26.1189C25.6688 26.147 27.3396 26.2126 28.9639 26.5131C28.9728 26.5147 28.9803 26.5205 28.9842 26.5287C28.9881 26.5368 28.9878 26.5463 28.9835 26.5542L28.871 26.7605C28.8651 26.7712 28.8531 26.7769 28.8411 26.7746C27.3435 26.4938 25.7329 26.4001 23.9713 26.4001L23.9711 26.4001C21.6946 26.3814 19.41 26.5969 17.4165 27.1678L17.4165 27.1678C17.1035 27.2565 16.6878 27.4014 16.3367 27.5658C16.1611 27.6481 16.0026 27.7348 15.8813 27.8215C15.7588 27.909 15.6793 27.9931 15.6542 28.0684C15.6507 28.0788 15.6415 28.0862 15.6306 28.0874C15.6197 28.0886 15.6091 28.0834 15.6034 28.074L15.4909 27.8865C15.4874 27.8806 15.4861 27.8737 15.4874 27.867C15.4985 27.8055 15.5506 27.7357 15.6332 27.6623C15.717 27.5878 15.8367 27.5058 15.9913 27.4208C16.3008 27.2507 16.7529 27.0672 17.345 26.9074C19.6361 26.2501 21.7766 26.1282 23.9618 26.1189L23.9624 26.1189ZM23.9617 26.1751C21.7784 26.1845 19.644 26.3064 17.3603 26.9615L17.3599 26.9616L17.3599 26.9616C16.7708 27.1206 16.323 27.3027 16.0184 27.4701C15.8661 27.5538 15.7502 27.6335 15.6705 27.7043C15.5958 27.7708 15.5565 27.8263 15.545 27.8672L15.6241 27.9991C15.6672 27.9231 15.7476 27.848 15.8486 27.7757C15.9738 27.6863 16.1357 27.5979 16.3129 27.5149C16.6673 27.3489 17.0859 27.2031 17.4011 27.1137C19.4013 26.5409 21.6916 26.3251 23.9714 26.3439C25.7269 26.3439 27.3347 26.4368 28.8314 26.7156L28.9155 26.5614C27.3082 26.2678 25.6543 26.203 23.9617 26.1751Z" fill="black"/>
<path fill-rule="evenodd" clip-rule="evenodd" d="M32.7564 27.2346L32.0252 28.3877L29.8971 26.5033L24.4033 22.8002L18.1971 19.3971L14.9814 18.3002L15.6658 17.0252L15.9002 16.9033L17.8971 17.4002L24.4971 20.8033L28.3033 23.2033L31.5002 25.5002L32.8033 27.0002L32.7564 27.2346Z" fill="#FFFF00"/>
<path fill-rule="evenodd" clip-rule="evenodd" d="M15.887 16.8782C15.8931 16.875 15.9001 16.8742 15.9068 16.8758L17.9037 17.3727C17.9058 17.3732 17.9078 17.374 17.9098 17.375L24.5098 20.7781C24.5105 20.7785 24.5112 20.7789 24.5119 20.7793L28.3181 23.1793C28.3186 23.1796 28.3191 23.18 28.3195 23.1803L31.5164 25.4772C31.5182 25.4784 31.5198 25.4799 31.5212 25.4816L32.8244 26.9816C32.8301 26.9881 32.8324 26.997 32.8307 27.0055L32.7838 27.2399C32.7831 27.2433 32.7819 27.2465 32.78 27.2494L32.0488 28.4026C32.0443 28.4095 32.0371 28.4142 32.0289 28.4153C32.0208 28.4165 32.0125 28.414 32.0064 28.4086L29.8796 26.5254L24.3885 22.824L18.1855 19.4227L14.9722 18.3266C14.9644 18.324 14.9581 18.318 14.9551 18.3103C14.9521 18.3026 14.9526 18.294 14.9565 18.2867L15.6408 17.0117C15.6435 17.0067 15.6476 17.0027 15.6526 17L15.887 16.8782ZM15.9035 16.933L15.6863 17.0459L15.0217 18.2841L18.206 19.3703C18.2075 19.3708 18.209 19.3714 18.2104 19.3722L24.4166 22.7753C24.4174 22.7758 24.4181 22.7762 24.4188 22.7767L29.9126 26.4798C29.9136 26.4805 29.9146 26.4813 29.9155 26.4821L32.0189 28.3446L32.7297 27.2237L32.7728 27.008L31.4809 25.5209L28.2874 23.2265L24.4829 20.8276L17.8869 17.4265L15.9035 16.933Z" fill="black"/>
<path fill-rule="evenodd" clip-rule="evenodd" d="M14.8689 18.3283C15.4314 17.9533 19.5752 19.7908 23.9252 22.4158C28.2471 25.0408 32.3908 28.0033 32.0158 28.5564L31.8939 28.7533L31.8377 28.8001C31.8471 28.7908 31.9127 28.7064 31.8377 28.5095C31.6502 27.9001 28.7064 25.5564 23.8408 22.6126C19.0877 19.7908 15.1314 18.0845 14.7471 18.572L14.8689 18.3283ZM32.9064 27.2251C33.2627 26.5126 29.4189 23.6158 24.6471 20.7939C19.7721 18.0283 16.2471 16.397 15.6002 16.8845L15.4689 17.1564C15.4689 17.1658 15.4689 17.1376 15.5064 17.1095C15.6189 17.0158 15.8158 17.0158 15.9002 17.0158C17.0064 17.0345 20.1658 18.4876 24.6002 21.0283C26.5502 22.1533 32.8127 26.1845 32.7846 27.3095C32.7846 27.4033 32.7939 27.422 32.7564 27.4783L32.9158 27.2345L32.9064 27.2251Z" fill="#FFFF00"/>
<path fill-rule="evenodd" clip-rule="evenodd" d="M18.5492 17.5934C20.122 18.2865 22.223 19.3863 24.6608 20.7692L24.6612 20.7695C27.0478 22.1808 29.2027 23.6111 30.7168 24.7781C31.4737 25.3614 32.0713 25.8796 32.4577 26.2972C32.6508 26.5059 32.7923 26.6906 32.8743 26.8467C32.9508 26.9923 32.9791 27.1199 32.9395 27.2194C32.9452 27.2286 32.9453 27.2404 32.9392 27.2497L32.7833 27.488C32.7822 27.4899 32.7809 27.4918 32.7797 27.4937C32.7711 27.5066 32.7537 27.5101 32.7408 27.5015C32.7278 27.493 32.7242 27.4756 32.7327 27.4627L32.7328 27.4625C32.734 27.4608 32.7351 27.4591 32.7361 27.4575C32.7504 27.4351 32.7547 27.4215 32.7564 27.405C32.7574 27.3951 32.7574 27.3836 32.7571 27.3678C32.7568 27.3524 32.7563 27.3331 32.7563 27.3093L32.7563 27.3086C32.7579 27.2446 32.737 27.1676 32.6933 27.0781C32.6496 26.9889 32.5841 26.889 32.4986 26.7799C32.3277 26.5616 32.0791 26.3087 31.7728 26.0323C31.1604 25.4797 30.3203 24.8359 29.4176 24.1916C27.6125 22.9031 25.5602 21.6145 24.586 21.0524C22.3692 19.7824 20.4716 18.7844 18.9902 18.1017C18.2495 17.7603 17.6132 17.4979 17.0934 17.3198C16.573 17.1414 16.1717 17.0484 15.8998 17.0437C15.8575 17.0437 15.7893 17.0438 15.7181 17.0551C15.6462 17.0665 15.5748 17.0888 15.5243 17.1309C15.5239 17.1312 15.5235 17.1315 15.5231 17.1318C15.5082 17.143 15.5015 17.1536 15.4986 17.1594C15.4971 17.1623 15.4965 17.1643 15.496 17.1656C15.496 17.1658 15.4956 17.167 15.4952 17.168C15.4951 17.1683 15.4942 17.1707 15.4926 17.1732C15.492 17.1741 15.4889 17.1789 15.483 17.1824C15.4793 17.1845 15.4732 17.1868 15.4656 17.186C15.4579 17.1851 15.4523 17.1813 15.4489 17.1779C15.4436 17.1726 15.442 17.1666 15.4417 17.1656C15.4417 17.1655 15.4417 17.1655 15.4417 17.1655C15.4412 17.1635 15.441 17.162 15.4409 17.1613C15.4407 17.1599 15.4407 17.1587 15.4407 17.1584C15.4406 17.1575 15.4406 17.1566 15.4406 17.1562C15.4406 17.152 15.4416 17.1478 15.4434 17.144L15.5747 16.8721C15.5766 16.8681 15.5795 16.8646 15.5831 16.8619C15.6715 16.7953 15.805 16.7674 15.9751 16.7708C16.1459 16.7742 16.3581 16.8093 16.6079 16.8733C17.1077 17.0015 17.763 17.2468 18.5492 17.5934ZM32.8128 27.3402L32.8806 27.2365C32.8772 27.2289 32.8772 27.2201 32.8811 27.2124C32.9192 27.1362 32.9039 27.0241 32.8245 26.8729C32.7458 26.7231 32.6082 26.5426 32.4164 26.3354C32.0332 25.9213 31.4384 25.4053 30.6824 24.8226C29.1708 23.6576 27.018 22.2286 24.6328 20.818C22.1957 19.4354 20.0967 18.3368 18.5266 17.6448C17.7413 17.2988 17.0893 17.0548 16.5939 16.9278C16.3462 16.8643 16.1387 16.8303 15.9739 16.827C15.8124 16.8238 15.696 16.8502 15.6223 16.9028L15.5531 17.0461C15.6026 17.0217 15.6577 17.0077 15.7093 16.9995C15.7853 16.9874 15.8574 16.9874 15.8996 16.9874H15.9005C16.1817 16.9922 16.59 17.0878 17.1116 17.2666C17.6339 17.4455 18.272 17.7087 19.0137 18.0506C20.4972 18.7343 22.3964 19.7331 24.614 21.0037C25.5898 21.5666 27.6437 22.8562 29.4503 24.1458C30.3536 24.7906 31.1957 25.4358 31.8105 25.9906C32.1178 26.2679 32.3691 26.5233 32.5429 26.7452C32.6298 26.8562 32.6978 26.9594 32.7438 27.0534C32.7895 27.1469 32.8143 27.2332 32.8125 27.3097C32.8125 27.3209 32.8126 27.3309 32.8128 27.3402ZM14.8904 18.3476L14.8196 18.4892C14.8302 18.4853 14.8413 18.4817 14.8529 18.4787C14.9078 18.4641 14.9753 18.4588 15.054 18.4616C15.2114 18.4673 15.4185 18.5056 15.6689 18.5735C16.1701 18.7096 16.8507 18.966 17.6668 19.3254C19.2994 20.0443 21.4777 21.1769 23.855 22.5883L23.8552 22.5884C26.2886 24.0606 28.2418 25.383 29.6103 26.4138C30.2945 26.9292 30.8329 27.3719 31.2123 27.7242C31.4019 27.9003 31.5522 28.0542 31.6611 28.1836C31.769 28.3117 31.8387 28.4183 31.8641 28.5002C31.8936 28.5778 31.9024 28.6398 31.901 28.688L31.9923 28.5404C32.0102 28.514 32.0163 28.4784 32.0065 28.4306C31.9966 28.3824 31.971 28.3241 31.929 28.256C31.8449 28.1198 31.6988 27.9503 31.4977 27.7526C31.0958 27.3574 30.4792 26.8541 29.7149 26.2854C28.1865 25.1482 26.0709 23.7518 23.9104 22.4396C21.7362 21.1276 19.6138 20.0126 17.965 19.2725C17.1406 18.9024 16.4352 18.6264 15.9013 18.4663C15.6343 18.3863 15.4111 18.3355 15.2379 18.3163C15.1513 18.3067 15.0779 18.3051 15.0183 18.3113C14.9623 18.3172 14.9201 18.3297 14.8904 18.3476ZM14.8688 18.3281L14.8532 18.3047C14.8936 18.2777 14.9478 18.2621 15.0124 18.2554C15.0774 18.2486 15.155 18.2505 15.2441 18.2604C15.4221 18.2802 15.6489 18.332 15.9175 18.4125C16.4547 18.5735 17.1626 18.8506 17.9881 19.2212C19.6393 19.9623 21.7637 21.0785 23.9395 22.3915C26.1009 23.7043 28.2182 25.1017 29.7484 26.2403C30.5134 26.8095 31.1325 27.3146 31.5372 27.7125C31.7393 27.9112 31.8892 28.0845 31.9768 28.2264C32.0206 28.2974 32.0499 28.362 32.0616 28.4193C32.0734 28.4767 32.0679 28.5288 32.0393 28.5715L31.9177 28.7679C31.9161 28.7704 31.9141 28.7727 31.9118 28.7747L31.8555 28.8216C31.844 28.8312 31.8269 28.83 31.8167 28.8189C31.8066 28.8078 31.807 28.7907 31.8176 28.7801C31.8178 28.7798 31.8219 28.7753 31.827 28.7655C31.832 28.7556 31.8378 28.7407 31.8414 28.7201C31.8486 28.6791 31.8472 28.6139 31.8112 28.5193C31.811 28.5188 31.8108 28.5182 31.8106 28.5176C31.789 28.4472 31.7257 28.3476 31.6181 28.2198C31.5112 28.0929 31.3627 27.9407 31.174 27.7654C30.7966 27.4149 30.2598 26.9735 29.5764 26.4587C28.2098 25.4294 26.2583 24.1081 23.8262 22.6366C21.4503 21.2261 19.2741 20.0946 17.6441 19.3769C16.829 19.0179 16.1514 18.7628 15.6542 18.6278C15.4054 18.5603 15.2031 18.5232 15.052 18.5178C14.9765 18.5151 14.915 18.5204 14.8673 18.533C14.8197 18.5457 14.788 18.5651 14.769 18.5892C14.76 18.6006 14.744 18.6033 14.7318 18.5956C14.7196 18.5878 14.7153 18.5721 14.7217 18.5592L14.8436 18.3155L14.8688 18.3281Z" fill="black"/>
<path d="M18.0605 23.6034C18.062 24.3796 18.2175 25.1479 18.5179 25.8637C18.8182 26.5794 19.2576 27.2285 19.8106 27.7734C20.3567 28.328 21.0073 28.769 21.7247 29.0711C22.4421 29.3731 23.2122 29.5303 23.9906 29.5334C25.5659 29.5333 27.0767 28.9074 28.1906 27.7934C28.7416 27.2455 29.1789 26.5943 29.4775 25.8769C29.7761 25.1596 29.9301 24.3904 29.9306 23.6134V15.6933L18.0605 15.6733V23.6034Z" fill="white"/>
<path fill-rule="evenodd" clip-rule="evenodd" d="M18.0254 15.6382L29.9654 15.6583V23.6133C29.9649 24.3949 29.81 25.1687 29.5097 25.8903C29.2093 26.6118 28.7694 27.267 28.2151 27.8181C28.2151 27.8181 28.2151 27.8181 28.2151 27.8181M19.7857 27.798C20.335 28.3558 20.9894 28.7994 21.7109 29.1032C22.4326 29.4071 23.2073 29.5651 23.9903 29.5683H23.9904C25.575 29.5682 27.0947 28.9386 28.2151 27.8181M19.7857 27.798C19.2295 27.25 18.7876 26.5971 18.4854 25.8771C18.1832 25.1571 18.0269 24.3842 18.0254 23.6033L18.0254 15.6382M18.0954 23.6032C18.0969 24.3749 18.2514 25.1385 18.55 25.85C18.8486 26.5615 19.2853 27.2068 19.835 27.7484L19.8353 27.7487C20.3783 28.3 21.025 28.7385 21.7381 29.0387C22.4513 29.339 23.2168 29.4952 23.9905 29.4983C25.5566 29.4981 27.0584 28.8759 28.1657 27.7685L28.1657 27.7685C28.7135 27.2239 29.1482 26.5764 29.445 25.8634C29.7419 25.1503 29.8949 24.3856 29.8954 23.6132V15.7282L18.0954 15.7083V23.6032Z" fill="black"/>
<path d="M18.2803 23.6131C18.2824 24.3578 18.4319 25.0946 18.7203 25.7811C19.0086 26.4677 19.4301 27.0903 19.9603 27.6131C21.0249 28.6834 22.4707 29.2876 23.9803 29.2931C25.4872 29.294 26.933 28.697 28.0003 27.6331C28.5287 27.1095 28.9483 26.4865 29.2349 25.8C29.5215 25.1135 29.6695 24.3771 29.6703 23.6331V15.9331H18.3003V23.6131M27.4003 18.2431V23.1331L27.3903 23.6431C27.3937 24.0899 27.3068 24.5327 27.135 24.9451C26.9632 25.3575 26.7099 25.731 26.3903 26.0431C25.7544 26.6813 24.8912 27.0409 23.9903 27.0431C23.0503 27.0431 22.2203 26.6431 21.6003 26.0231C20.9621 25.3872 20.6025 24.524 20.6003 23.6231V18.2231L27.4003 18.2431Z" fill="#FF0000"/>
<path fill-rule="evenodd" clip-rule="evenodd" d="M18.2759 15.9082H29.6959V23.6332C29.6951 24.3805 29.5465 25.1202 29.2586 25.8097C28.9707 26.4992 28.5493 27.125 28.0185 27.6509C26.9465 28.7195 25.4944 29.3191 23.9809 29.3182C22.4647 29.3127 21.0125 28.7058 19.9432 27.6309C19.4107 27.1058 18.9874 26.4804 18.6978 25.7909C18.4082 25.1013 18.258 24.3612 18.2559 23.6133L18.2809 23.6132H18.2759V15.9082ZM18.3059 23.6132C18.308 24.3545 18.4568 25.0881 18.7439 25.7716C19.031 26.455 19.4505 27.0749 19.9784 27.5954L19.9786 27.5956C21.0386 28.6612 22.478 29.2627 23.981 29.2682C25.4813 29.2691 26.9206 28.6747 27.9832 27.6155C28.5093 27.0942 28.9271 26.4739 29.2124 25.7904C29.4978 25.107 29.6451 24.3738 29.6459 23.6332V15.9582H18.3259V23.6132H18.3059ZM20.5759 18.1981L27.4259 18.2183V23.1332L27.4259 23.1337L27.4159 23.643C27.4159 23.6431 27.4159 23.6433 27.4159 23.6434C27.4192 24.0934 27.3318 24.5394 27.1587 24.9548C26.9856 25.3703 26.7304 25.7465 26.4085 26.061C25.7679 26.7038 24.8984 27.066 23.9909 27.0682C23.0435 27.0682 22.2073 26.665 21.5832 26.0409C20.9404 25.4003 20.5781 24.5308 20.5759 23.6233V18.1981ZM20.6259 18.2483V23.6232C20.6281 24.5174 20.9851 25.3743 21.6185 26.0055C22.2344 26.6214 23.0583 27.0182 23.9908 27.0182C24.8851 27.016 25.7419 26.659 26.3732 26.0256L26.3734 26.0254C26.6906 25.7155 26.942 25.3449 27.1125 24.9356C27.2831 24.5263 27.3692 24.0868 27.3659 23.6434L27.3659 23.6427L27.3759 23.1332V18.2681L20.6259 18.2483Z" fill="black"/>
<path d="M19.0205 17.9432C19.0305 17.3932 19.4205 17.2632 19.4205 17.2632C19.4305 17.2632 19.8505 17.4032 19.8505 17.9532H19.0205" fill="#FFFF00"/>
<path d="M18.6805 17.2732L18.6105 17.9032H19.0305C19.0305 17.3832 19.4305 17.3032 19.4305 17.3032C19.4405 17.3032 19.8305 17.4132 19.8405 17.9032H20.2605L20.1805 17.2632H18.6805V17.2732ZM18.5805 17.9132H20.2805C20.3105 17.9132 20.3405 17.9432 20.3405 17.9832C20.3405 18.0332 20.3105 18.0632 20.2805 18.0632H18.5805C18.5505 18.0632 18.5205 18.0332 18.5205 17.9832C18.5205 17.9432 18.5505 17.9132 18.5905 17.9132H18.5805Z" fill="#FFFF00"/>
<path fill-rule="evenodd" clip-rule="evenodd" d="M18.6551 17.2383H20.2022L20.2835 17.8884C20.3282 17.8904 20.3651 17.9333 20.3651 17.9833C20.3651 18.0422 20.3284 18.0883 20.2801 18.0883H18.5801C18.5319 18.0883 18.4951 18.0422 18.4951 17.9833C18.4951 17.9329 18.5313 17.8935 18.5801 17.8888V17.8883H18.5866L18.6551 17.2719V17.2383ZM18.7036 17.2883L18.6381 17.8783H19.0054C19.0116 17.626 19.1117 17.4761 19.2139 17.3892C19.2663 17.3447 19.3187 17.3172 19.358 17.3008C19.3706 17.2956 19.3819 17.2915 19.3914 17.2883H18.7036ZM19.4301 17.3033C19.4288 17.2966 19.4278 17.2918 19.4271 17.2883L19.4301 17.3033ZM19.4667 17.2883C19.478 17.2924 19.4919 17.2981 19.5077 17.3055C19.5475 17.3243 19.5996 17.3546 19.6517 17.4008C19.7531 17.4908 19.8532 17.6401 19.8643 17.8783H20.2318L20.1581 17.2883H19.4667ZM19.8147 17.8883C19.806 17.66 19.7117 17.5209 19.6185 17.4382C19.5706 17.3957 19.5227 17.3679 19.4863 17.3507C19.4681 17.3422 19.4529 17.3363 19.4421 17.3326C19.4371 17.3309 19.4331 17.3297 19.4303 17.3289C19.4277 17.3295 19.4243 17.3305 19.42 17.3317C19.4098 17.3347 19.395 17.3396 19.3772 17.347C19.3416 17.3618 19.2939 17.3868 19.2463 17.4273C19.1537 17.506 19.059 17.645 19.0552 17.8883H19.8147ZM18.5901 17.9383C18.5639 17.9383 18.5451 17.9571 18.5451 17.9833C18.5451 18.0244 18.5684 18.0383 18.5801 18.0383H20.2801C20.2919 18.0383 20.3151 18.0244 20.3151 17.9833C20.3151 17.9545 20.2939 17.9383 20.2801 17.9383H18.5901Z" fill="black"/>
<path d="M19.2005 17.9034C19.2005 17.5734 19.4305 17.4834 19.4305 17.4834C19.4305 17.4834 19.6606 17.5834 19.6606 17.9034H19.2005ZM18.6205 17.0034H20.2506C20.2806 17.0034 20.3106 17.0434 20.3106 17.0834C20.3106 17.1134 20.2806 17.1434 20.2506 17.1434H18.6205C18.5905 17.1434 18.5605 17.1134 18.5605 17.0734C18.5605 17.0434 18.5905 17.0134 18.6205 17.0134V17.0034ZM19.2405 18.0534H20.2006C20.2306 18.0534 20.2606 18.0834 20.2606 18.1234C20.2606 18.1634 20.2306 18.1934 20.2006 18.1934H18.6505C18.6105 18.1934 18.5905 18.1634 18.5905 18.1234C18.5905 18.0834 18.6105 18.0534 18.6505 18.0534H19.2405ZM19.7405 16.9934H19.8606V17.0734H19.9506V16.9934H20.0806V17.0834H20.1706V16.9834H20.2906V17.1834C20.2906 17.2234 20.2706 17.2434 20.2406 17.2434H19.8006C19.7706 17.2434 19.7405 17.2234 19.7405 17.1934V16.9934ZM20.2006 17.2634L20.2306 17.9034H19.8006L19.8306 17.2534H20.2006" fill="#FFFF00"/>
<path fill-rule="evenodd" clip-rule="evenodd" d="M20.1452 16.9585H20.3152V17.0188C20.3272 17.037 20.3352 17.0599 20.3352 17.0835C20.3352 17.1033 20.3268 17.1216 20.3152 17.1358V17.1835C20.3152 17.2074 20.3092 17.229 20.2952 17.245C20.2809 17.2614 20.261 17.2685 20.2402 17.2685H20.2254L20.2564 17.9285H19.774L19.8044 17.2685H19.8002C19.7799 17.2685 19.7594 17.2618 19.7436 17.2495C19.7274 17.2369 19.7152 17.2176 19.7152 17.1935V17.1685H18.6202C18.5739 17.1685 18.5352 17.1248 18.5352 17.0735C18.5352 17.0504 18.5465 17.0293 18.5612 17.0146C18.5704 17.0054 18.5821 16.9975 18.5952 16.9929V16.9785H19.7152V16.9685H19.8852V16.9785H19.9252V16.9685H20.1052V16.9785H20.1452V16.9585ZM20.1452 17.0285H20.1052V17.0585H20.1452V17.0285ZM20.0552 17.0285V17.1085H20.1952V17.0285H20.2502C20.2532 17.0285 20.2588 17.0304 20.2652 17.0364V17.1138C20.2599 17.117 20.2546 17.1185 20.2502 17.1185H19.7652V17.0285H19.8352V17.0985H19.9752V17.0285H20.0552ZM19.9252 17.0285H19.8852V17.0485H19.9252V17.0285ZM19.7152 17.0285H18.6452V17.0385H18.6202C18.6133 17.0385 18.6043 17.0422 18.5966 17.0499C18.5888 17.0577 18.5852 17.0666 18.5852 17.0735C18.5852 17.1022 18.6064 17.1185 18.6202 17.1185H19.7152V17.0285ZM19.7652 17.1685V17.1935C19.7652 17.1994 19.7679 17.2051 19.7743 17.21C19.7809 17.2152 19.7904 17.2185 19.8002 17.2185H20.2402C20.2493 17.2185 20.2544 17.2156 20.2576 17.212C20.2611 17.208 20.2652 17.1996 20.2652 17.1835V17.1669C20.2603 17.1679 20.2553 17.1685 20.2502 17.1685H19.7652ZM19.854 17.2785L19.8263 17.8785H20.204L20.1758 17.2785H19.854ZM19.4401 17.4606L19.4302 17.4835L19.421 17.4602L19.4307 17.4565L19.4401 17.4606ZM19.4297 17.5112C19.4242 17.514 19.4166 17.5182 19.4076 17.5239C19.3876 17.5365 19.3607 17.5566 19.3337 17.5865C19.2831 17.6427 19.2311 17.7344 19.2256 17.8785H19.6347C19.6291 17.7393 19.5773 17.6475 19.5264 17.5901C19.4994 17.5595 19.4723 17.5383 19.4522 17.5249C19.443 17.5188 19.4353 17.5143 19.4297 17.5112ZM19.421 17.4602C19.4211 17.4602 19.421 17.4602 19.4302 17.4835C19.4401 17.4606 19.4401 17.4606 19.4401 17.4606L19.4403 17.4606L19.4405 17.4607L19.4412 17.4611C19.4418 17.4613 19.4426 17.4617 19.4436 17.4622C19.4456 17.4631 19.4484 17.4645 19.4518 17.4664C19.4588 17.4701 19.4684 17.4756 19.48 17.4833C19.503 17.4987 19.5335 17.5225 19.5639 17.5569C19.6251 17.6261 19.6852 17.7369 19.6852 17.9035V17.9285H19.1752V17.9035C19.1752 17.732 19.2351 17.6211 19.2966 17.553C19.3271 17.5191 19.3577 17.4962 19.3809 17.4816C19.3925 17.4743 19.4022 17.469 19.4092 17.4656C19.4127 17.4639 19.4155 17.4626 19.4175 17.4617C19.4185 17.4613 19.4193 17.4609 19.4199 17.4607L19.4207 17.4604L19.4209 17.4603L19.421 17.4602ZM18.6247 18.0891C18.6192 18.0959 18.6152 18.1073 18.6152 18.1235C18.6152 18.1397 18.6192 18.1511 18.6247 18.1579C18.6295 18.1639 18.6371 18.1685 18.6502 18.1685H20.2002C20.2139 18.1685 20.2352 18.1522 20.2352 18.1235C20.2352 18.0948 20.2139 18.0785 20.2002 18.0785H18.6502C18.6371 18.0785 18.6295 18.0831 18.6247 18.0891ZM18.5856 18.0579C18.6008 18.0389 18.6232 18.0285 18.6502 18.0285H20.2002C20.2464 18.0285 20.2852 18.0722 20.2852 18.1235C20.2852 18.1748 20.2464 18.2185 20.2002 18.2185H18.6502C18.6232 18.2185 18.6008 18.2081 18.5856 18.1891C18.5711 18.1709 18.5652 18.1473 18.5652 18.1235C18.5652 18.0997 18.5711 18.0761 18.5856 18.0579Z" fill="black"/>
<path d="M19.1002 16.6636V17.0036H18.7002V16.6636H19.1002Z" fill="#FFFF00"/>
<path fill-rule="evenodd" clip-rule="evenodd" d="M18.6748 16.6382H19.1248V17.0282H18.6748V16.6382ZM18.7248 16.6882V16.9782H19.0748V16.6882H18.7248Z" fill="black"/>
<path d="M18.6299 16.4033H18.7499V16.5033H18.8399V16.4033H18.9599V16.5033H19.0499V16.4033H19.1699V16.6033C19.1699 16.6433 19.1499 16.6633 19.1199 16.6633H18.6899C18.674 16.6633 18.6587 16.657 18.6475 16.6457C18.6362 16.6345 18.6299 16.6192 18.6299 16.6033V16.4033Z" fill="#FFFF00"/>
<path fill-rule="evenodd" clip-rule="evenodd" d="M18.6555 16.4284V16.6034C18.6555 16.6127 18.6592 16.6216 18.6657 16.6282C18.6723 16.6347 18.6812 16.6384 18.6905 16.6384H19.1205C19.1297 16.6384 19.1348 16.6356 19.1379 16.632C19.1414 16.6279 19.1455 16.6195 19.1455 16.6034V16.4284H19.0755V16.5284H18.9355V16.4284H18.8655V16.5284H18.7255V16.4284H18.6555ZM18.6305 16.4034V16.3784H18.7755V16.4784H18.8155V16.3784H18.9855V16.4784H19.0255V16.3784H19.1955V16.6034C19.1955 16.6273 19.1895 16.6489 19.1755 16.6649C19.1612 16.6813 19.1413 16.6884 19.1205 16.6884H18.6905C18.6679 16.6884 18.6463 16.6795 18.6304 16.6635C18.6144 16.6476 18.6055 16.626 18.6055 16.6034V16.4034H18.6305Z" fill="black"/>
<path d="M19.3896 16.5636C19.3896 16.5036 19.4796 16.5036 19.4796 16.5636V16.7236H19.3896V16.5636Z" fill="black"/>
<path d="M18.8604 16.7833C18.8604 16.7233 18.9404 16.7233 18.9404 16.7833V16.9033H18.8604V16.7833Z" fill="black"/>
<path d="M23.2608 22.7431C23.259 22.9542 23.3376 23.158 23.4808 23.3131C23.5476 23.3878 23.6292 23.4477 23.7205 23.489C23.8117 23.5303 23.9106 23.5522 24.0108 23.5531C24.2208 23.5531 24.4108 23.4531 24.5408 23.3131C24.6839 23.158 24.7626 22.9542 24.7608 22.7431V21.6631H23.2608V22.7431Z" fill="#003399"/>
<path d="M23.6109 22.2229C23.6938 22.2229 23.7609 22.1557 23.7609 22.0729C23.7609 21.99 23.6938 21.9229 23.6109 21.9229C23.5281 21.9229 23.4609 21.99 23.4609 22.0729C23.4609 22.1557 23.5281 22.2229 23.6109 22.2229Z" fill="white"/>
<path d="M24.441 22.2229C24.5239 22.2229 24.591 22.1557 24.591 22.0729C24.591 21.99 24.5239 21.9229 24.441 21.9229C24.3582 21.9229 24.291 21.99 24.291 22.0729C24.291 22.1557 24.3582 22.2229 24.441 22.2229Z" fill="white"/>
<path d="M24.0211 22.6232C24.1039 22.6232 24.1711 22.5561 24.1711 22.4732C24.1711 22.3904 24.1039 22.3232 24.0211 22.3232C23.9383 22.3232 23.8711 22.3904 23.8711 22.4732C23.8711 22.5561 23.9383 22.6232 24.0211 22.6232Z" fill="white"/>
<path d="M23.6109 23.0432C23.6938 23.0432 23.7609 22.976 23.7609 22.8932C23.7609 22.8103 23.6938 22.7432 23.6109 22.7432C23.5281 22.7432 23.4609 22.8103 23.4609 22.8932C23.4609 22.976 23.5281 23.0432 23.6109 23.0432Z" fill="white"/>
<path d="M24.441 23.0432C24.5239 23.0432 24.591 22.976 24.591 22.8932C24.591 22.8103 24.5239 22.7432 24.441 22.7432C24.3582 22.7432 24.291 22.8103 24.291 22.8932C24.291 22.976 24.3582 23.0432 24.441 23.0432Z" fill="white"/>
</g>
<defs>
<clipPath id="clip0_3054_17861">
<rect width="60" height="45" fill="white"/>
</clipPath>
</defs>
</svg>
