<svg width="1358" height="931" viewBox="0 0 1358 931" fill="none" xmlns="http://www.w3.org/2000/svg">
<path d="M-1.44702 8.07565C6.86865 14.3754 15.5887 19.1142 22.5934 26.5309C31.8625 36.3452 40.785 46.0895 53.676 51.7856C64.3257 56.4912 70.3886 64.2631 79.4163 70.9694C87.7818 77.1837 98.1362 81.0394 107.099 86.2678C123.312 95.7255 137.91 102.861 154.816 109.823C174.244 117.822 198.685 122.797 219.409 127.064C235.353 130.346 251.702 129.987 267.855 130.585C289.162 131.374 266.132 128.442 287.5 127.064C303.944 126.003 323.215 117.431 338.616 111.887C359.886 104.23 381.545 96.0076 401.753 85.9036C429.43 72.0648 457.478 59.8638 483.345 43.165C505.825 28.6524 531.573 16.4172 557.894 11.8396C579.35 8.10812 616.113 -1.31438 653.5 1.99997C681.535 4.48529 723.652 18.5175 723.652 18.5175C723.652 18.5175 801.519 45.5644 837.783 67.084C862.491 81.7455 877.576 103.587 897.277 124.15C912.096 139.617 926.671 146.543 945.965 154.261C1011.06 180.299 1079.75 178.544 1149.09 178.544C1162.03 178.544 1175.53 179.651 1188.43 178.423C1197.74 177.537 1224.29 168.218 1231 162.5C1245.4 150.237 1251.73 143.275 1258.5 125C1262.98 112.897 1273.86 89.9203 1272.5 77C1271.36 66.1278 1257.05 57.5192 1244.5 60C1231.22 62.6256 1224.57 75.4924 1225.5 89C1226.48 103.194 1243.79 110.285 1250.5 115.5C1293.04 148.59 1317.79 154.803 1342.63 205.863C1352.37 225.874 1358.62 249.05 1355.62 271.549C1353.28 289.151 1337.19 308.667 1327.33 322.787C1304.64 355.298 1274.62 370.868 1235.06 370.868C1202.06 370.868 1175.34 351.211 1149.09 333.714C1133 322.985 1120 304.388 1103.2 295.59C1081.76 284.358 1060.65 271.423 1036.18 268.635C1006.29 265.23 976.701 264.213 947.058 270.335C931.144 273.622 911.641 273.848 896.913 280.291C878.988 288.133 861.785 297.632 844.947 307.61C830.418 316.219 816.59 322.766 802.572 332.5C790.891 340.613 777.67 348.658 764.691 354.477C754.072 359.237 743.779 366.891 733.851 373.053C721.184 380.915 708.24 383.424 694.512 388.352C672.833 396.134 644.669 402.669 621.419 398.794C576.875 391.37 540.856 362.279 498.06 350.713C490.278 348.609 483.185 344.448 475.477 341.971C467.052 339.263 457.971 338.291 449.251 335.9C427.003 329.8 402.684 331.529 379.801 331.529C341.005 331.529 307.026 354.899 272.954 370.746C235.895 387.983 229.75 389.738 206.5 422.5C168.463 476.098 179.819 573.274 216.5 629C268.433 707.897 339.955 732.116 425.696 705.734C457.635 695.907 487.523 686.077 518.215 672.952C553.317 657.941 585.147 636.778 618.02 617.586C636.931 606.545 674.464 577.098 716.61 568.655C752.186 561.528 781.133 565.523 809.493 570.841C827.424 574.203 844.846 579.012 862.916 581.768C883.987 584.982 903.336 592.634 924.11 596.945C948.183 601.941 974.341 606.901 998.903 606.901C1035.29 606.901 1066.62 596.992 1101.01 586.746C1135.41 576.5 1203 568.37 1231.17 582.861C1259.35 597.352 1285.57 619.61 1298.92 648.911C1326.66 709.777 1336.56 780.357 1288 834.314C1239.43 888.272 1197.37 885.623 1169.01 886.523C1140.64 887.424 1110.74 886.652 1089.12 865.518C1075.05 851.772 1064.65 837.124 1047.35 827.394C1033.75 819.744 1025.85 805.969 1012.62 798.254C1006.16 794.485 996.842 791.237 989.797 788.419C976.881 783.253 964.803 781.741 950.943 781.741C893.718 781.741 832.195 813.397 788.245 847.549C745.018 881.139 718.166 930.112 656.509 930.112C642.52 930.112 630.044 924.455 616.927 920.52C604.174 916.694 590.247 913.782 579.045 906.314C569.775 900.135 560.461 891.252 552.576 883.367C551.457 882.248 547.112 875.304 547.112 877.903" stroke="white" stroke-opacity="0.3" stroke-width="1.5" stroke-linecap="round" stroke-linejoin="round" stroke-dasharray="4 8"/>
</svg>
