<svg width="1097" height="837" viewBox="0 0 1097 837" fill="none" xmlns="http://www.w3.org/2000/svg">
<path d="M94.5003 117.064C110.945 116.003 130.215 107.431 145.617 101.887C166.886 94.2295 188.545 86.0076 208.753 75.9035C359.046 0.756844 485.172 -37.6307 644.784 57.084C686.47 81.8206 708.835 112.695 752.966 144.261C782.609 165.464 860 198.5 910.5 225.5C939.826 241.179 1009.05 196.634 978.5 183.5C946.801 169.872 892.288 261.359 874.5 271.5C821 302 723.535 179.663 540.851 293.053C528.185 300.915 515.24 303.424 501.512 308.352C479.834 316.134 451.67 322.669 428.42 318.794C343.593 304.656 277.614 251.529 186.801 251.529C88.3374 251.529 38.0988 327.249 13.5003 412.5C-8.88291 490.073 -4.72837 536 52.5 592.952C195.601 735.361 377.288 517.968 523.61 488.655C620.006 469.344 710.304 526.901 805.903 526.901C877.884 526.901 944.684 465.785 1014.17 502.861C1066.54 530.801 1081.92 638.911 1081.92 638.911C1081.92 638.911 1119.56 770.357 1071 824.314C1022.43 878.272 923.5 734 805.903 697.5C674.279 656.646 556.257 790.219 423.927 750.52" stroke="white" stroke-opacity="0.3" stroke-width="1.5" stroke-linecap="round" stroke-linejoin="round" stroke-dasharray="4 8"/>
</svg>
