<svg width="218" height="39" viewBox="0 0 218 39" fill="none" xmlns="http://www.w3.org/2000/svg">
<path d="M212.257 20.8091C210.03 20.8091 208.198 20.3673 206.763 19.4838C205.327 18.6003 204.287 17.4774 203.643 16.1153C202.998 14.7348 202.676 13.2898 202.676 11.7805C202.676 9.99498 203.118 8.43039 204.002 7.08667C204.904 5.74296 206.091 4.71217 207.563 3.99429C209.036 3.27642 210.619 2.91748 212.312 2.91748C213.177 2.91748 214.07 3.00031 214.991 3.16597C215.911 3.33164 216.647 3.53412 217.199 3.77341C217.347 3.86544 217.439 3.94827 217.476 4.0219C217.531 4.09553 217.558 4.22438 217.558 4.40845L217.779 7.91499C217.779 7.97021 217.733 7.99782 217.641 7.99782C217.568 7.99782 217.512 7.97021 217.476 7.91499C216.887 6.51606 216.058 5.44845 214.991 4.71217C213.923 3.97589 212.68 3.60774 211.263 3.60774C209.422 3.60774 207.996 4.26119 206.984 5.56809C205.99 6.85658 205.493 8.64207 205.493 10.9245C205.493 12.5996 205.796 14.1642 206.404 15.6183C207.011 17.0541 207.839 18.1953 208.889 19.042C209.938 19.8888 211.088 20.3121 212.34 20.3121C214.438 20.3121 216.224 18.8948 217.696 16.0601C217.733 15.9865 217.788 15.9589 217.862 15.9773C217.954 15.9957 218 16.0417 218 16.1153L217.807 19.2629C217.77 19.5022 217.724 19.6587 217.669 19.7323C217.632 19.7875 217.54 19.8427 217.393 19.898C215.718 20.5054 214.006 20.8091 212.257 20.8091Z" fill="white"/>
<path d="M200.915 20.1469C200.97 20.1469 200.998 20.2022 200.998 20.3126C201.017 20.4231 200.989 20.4783 200.915 20.4783C200.381 20.4783 199.958 20.4691 199.645 20.4507L197.63 20.4231L195.724 20.4507C195.412 20.4691 194.961 20.4783 194.372 20.4783C194.316 20.4783 194.289 20.4231 194.289 20.3126C194.289 20.2022 194.316 20.1469 194.372 20.1469C194.979 20.1469 195.421 20.1009 195.697 20.0089C195.973 19.9169 196.157 19.742 196.249 19.4843C196.36 19.2082 196.396 18.794 196.36 18.2418L195.973 5.0992L190.451 20.285C190.451 20.3586 190.386 20.3954 190.258 20.3954C190.147 20.3954 190.074 20.3494 190.037 20.2574L183.824 5.6238L183.769 17.0822C183.751 18.0762 183.916 18.84 184.266 19.3739C184.634 19.8892 185.177 20.1469 185.895 20.1469C185.932 20.1469 185.95 20.2022 185.95 20.3126C185.969 20.4231 185.95 20.4783 185.895 20.4783C185.435 20.4783 185.076 20.4691 184.818 20.4507L183.272 20.4231L181.919 20.4507C181.643 20.4691 181.257 20.4783 180.76 20.4783C180.723 20.4783 180.704 20.4231 180.704 20.3126C180.704 20.2022 180.723 20.1469 180.76 20.1469C181.459 20.1469 182.002 19.8892 182.389 19.3739C182.775 18.84 182.968 18.0946 182.968 17.1374L183.106 4.46415C182.517 3.85672 181.763 3.55301 180.842 3.55301C180.787 3.55301 180.76 3.49778 180.76 3.38734C180.76 3.2769 180.787 3.22168 180.842 3.22168C181.155 3.22168 181.395 3.23088 181.56 3.24929L182.637 3.2769L184.211 3.24929C184.377 3.23088 184.579 3.22168 184.818 3.22168C185.058 3.22168 185.251 3.31371 185.398 3.49778C185.564 3.68185 185.775 4.0684 186.033 4.65743L191.141 16.6128L195.697 3.91194C195.771 3.70947 195.89 3.5438 196.056 3.41495C196.221 3.2861 196.415 3.22168 196.636 3.22168C196.893 3.22168 197.105 3.23088 197.271 3.24929L198.375 3.2769L199.618 3.24929C199.802 3.23088 200.069 3.22168 200.418 3.22168C200.474 3.22168 200.501 3.2769 200.501 3.38734C200.501 3.49778 200.483 3.55301 200.446 3.55301C199.783 3.55301 199.295 3.65424 198.983 3.85672C198.67 4.0592 198.513 4.44575 198.513 5.01637C198.513 5.18203 198.522 5.31088 198.541 5.40291L198.927 18.2418C198.964 18.794 199.029 19.2082 199.121 19.4843C199.231 19.742 199.415 19.9169 199.673 20.0089C199.93 20.1009 200.345 20.1469 200.915 20.1469Z" fill="white"/>
<path d="M169.171 20.5883C168.656 20.5883 168.076 20.5607 167.432 20.5054C167.192 20.487 166.889 20.4686 166.52 20.4502C166.152 20.4318 165.747 20.4226 165.306 20.4226L163.318 20.4502C162.986 20.4686 162.526 20.4778 161.937 20.4778C161.9 20.4778 161.882 20.4226 161.882 20.3122C161.882 20.2017 161.9 20.1465 161.937 20.1465C162.526 20.1465 162.959 20.1005 163.235 20.0084C163.529 19.9164 163.723 19.7415 163.815 19.4838C163.925 19.2077 163.971 18.7936 163.953 18.2414V5.45769C163.934 4.90548 163.87 4.50053 163.759 4.24283C163.649 3.98513 163.456 3.81026 163.18 3.71823C162.903 3.60778 162.489 3.55256 161.937 3.55256C161.9 3.55256 161.882 3.49734 161.882 3.3869C161.882 3.27646 161.9 3.22124 161.937 3.22124L163.29 3.24885C164.1 3.28566 164.753 3.30407 165.25 3.30407C165.858 3.30407 166.465 3.27646 167.073 3.22124C167.846 3.18442 168.407 3.16602 168.757 3.16602C170.653 3.16602 172.337 3.52495 173.81 4.24283C175.282 4.9607 176.423 5.95468 177.233 7.22477C178.043 8.49485 178.448 9.9398 178.448 11.5596C178.448 13.3267 178.016 14.9005 177.15 16.281C176.304 17.6431 175.172 18.7015 173.754 19.4562C172.337 20.2109 170.809 20.5883 169.171 20.5883ZM168.923 20.0913C170.248 20.0913 171.407 19.7876 172.401 19.1801C173.414 18.5543 174.196 17.6431 174.748 16.4467C175.301 15.2502 175.577 13.8237 175.577 12.1671C175.577 10.6945 175.328 9.31396 174.831 8.02547C174.334 6.73698 173.57 5.68778 172.54 4.87787C171.509 4.06796 170.239 3.66301 168.729 3.66301C167.883 3.66301 167.303 3.80106 166.99 4.07716C166.695 4.33486 166.548 4.81344 166.548 5.51291V17.9377C166.566 18.7108 166.732 19.263 167.045 19.5943C167.376 19.9256 168.002 20.0913 168.923 20.0913Z" fill="white"/>
<path d="M154.329 3.22168C154.421 3.22168 154.467 3.2769 154.467 3.38734C154.467 3.49778 154.421 3.55301 154.329 3.55301C153.684 3.55301 153.077 3.7923 152.506 4.27088C151.936 4.73106 151.365 5.44893 150.794 6.4245L147.785 11.8914V18.2418C147.803 18.8124 147.858 19.2266 147.95 19.4843C148.061 19.742 148.263 19.9169 148.558 20.0089C148.852 20.1009 149.331 20.1469 149.994 20.1469C150.067 20.1469 150.104 20.2022 150.104 20.3126C150.104 20.4231 150.067 20.4783 149.994 20.4783C149.386 20.4783 148.908 20.4691 148.558 20.4507L146.515 20.4231L144.333 20.4507C143.984 20.4691 143.514 20.4783 142.925 20.4783C142.852 20.4783 142.815 20.4231 142.815 20.3126C142.815 20.2022 142.852 20.1469 142.925 20.1469C143.588 20.1469 144.076 20.1009 144.389 20.0089C144.72 19.8985 144.941 19.7144 145.051 19.4567C145.18 19.199 145.235 18.794 145.217 18.2418L145.189 12.1951L140.799 5.51335C140.339 4.81389 139.907 4.3169 139.502 4.02239C139.097 3.70947 138.664 3.55301 138.204 3.55301C138.13 3.55301 138.094 3.49778 138.094 3.38734C138.094 3.2769 138.121 3.22168 138.176 3.22168L139.502 3.24929C140.091 3.2861 140.542 3.30451 140.855 3.30451C141.333 3.30451 142.033 3.2861 142.953 3.24929L144.333 3.22168C144.389 3.22168 144.416 3.25849 144.416 3.33212C144.416 3.38734 144.398 3.44256 144.361 3.49778C144.343 3.5346 144.315 3.55301 144.278 3.55301C143.376 3.55301 142.925 3.70947 142.925 4.02239C142.925 4.18805 143.017 4.39973 143.201 4.65743L147.398 11.1459L150.159 5.98273C150.38 5.55937 150.491 5.17282 150.491 4.82309C150.491 4.43654 150.353 4.13283 150.076 3.91194C149.8 3.67265 149.414 3.55301 148.917 3.55301C148.843 3.55301 148.806 3.49778 148.806 3.38734C148.806 3.2769 148.834 3.22168 148.889 3.22168L150.297 3.24929C151.144 3.2861 151.816 3.30451 152.313 3.30451C152.626 3.30451 152.985 3.2861 153.39 3.24929L154.329 3.22168Z" fill="white"/>
<path d="M126.505 20.4777C126.45 20.4777 126.422 20.4225 126.422 20.3121C126.422 20.2016 126.441 20.1464 126.477 20.1464C127.232 20.1464 127.784 20.1004 128.134 20.0084C128.484 19.9163 128.723 19.7414 128.852 19.4838C128.981 19.2076 129.036 18.7935 129.018 18.2413V5.45759C129.036 4.79494 128.944 4.35317 128.741 4.13229C128.539 3.9114 128.134 3.80096 127.527 3.80096H127.057C126.008 3.80096 125.106 4.18751 124.351 4.9606C123.615 5.7337 123.164 6.74608 122.998 7.99776C122.998 8.03458 122.952 8.05298 122.86 8.05298C122.805 8.05298 122.75 8.04378 122.695 8.02537C122.658 7.98856 122.649 7.96095 122.667 7.94254C122.759 7.27989 122.897 5.50361 123.081 2.61371C123.081 2.55848 123.127 2.53087 123.219 2.53087C123.275 2.53087 123.321 2.54008 123.357 2.55848C123.413 2.57689 123.44 2.6045 123.44 2.64132C123.44 3.02786 123.854 3.22114 124.683 3.22114C126.174 3.27636 128.042 3.30397 130.288 3.30397C131.3 3.30397 132.432 3.28556 133.684 3.24875L135.617 3.22114C136.224 3.22114 136.666 3.17512 136.942 3.08308C137.218 2.99105 137.393 2.80698 137.466 2.53087C137.503 2.47565 137.568 2.45725 137.66 2.47565C137.77 2.47565 137.816 2.51247 137.798 2.5861C137.743 3.3776 137.687 4.37158 137.632 5.56803C137.577 6.74608 137.558 7.53759 137.577 7.94254C137.577 7.99776 137.522 8.02537 137.411 8.02537C137.264 8.02537 137.19 7.98856 137.19 7.91493C137.209 6.68166 136.868 5.68768 136.169 4.93299C135.488 4.1783 134.586 3.80096 133.463 3.80096H132.966C132.543 3.80096 132.239 3.84698 132.055 3.93901C131.871 4.03105 131.751 4.19671 131.696 4.436C131.641 4.65689 131.604 5.01582 131.585 5.51281L131.641 18.2413C131.641 18.8119 131.696 19.2261 131.806 19.4838C131.935 19.7414 132.165 19.9163 132.497 20.0084C132.846 20.1004 133.398 20.1464 134.153 20.1464C134.208 20.1464 134.236 20.2016 134.236 20.3121C134.236 20.4225 134.208 20.4777 134.153 20.4777C133.509 20.4777 133.003 20.4685 132.635 20.4501L130.315 20.4225L128.106 20.4501C127.72 20.4685 127.186 20.4777 126.505 20.4777Z" fill="white"/>
<path d="M112.536 6.03747C112.536 6.71853 112.711 7.32596 113.06 7.85977C113.41 8.39357 113.833 8.85375 114.33 9.2403C114.846 9.60844 115.545 10.0778 116.429 10.6484C117.349 11.2191 118.085 11.716 118.638 12.1394C119.208 12.5628 119.687 13.0874 120.073 13.7132C120.46 14.3206 120.653 15.0293 120.653 15.8392C120.653 17.3486 120.119 18.5543 119.052 19.4562C117.984 20.3581 116.576 20.8091 114.827 20.8091C114.054 20.8091 113.244 20.7079 112.398 20.5054C111.551 20.3029 110.916 20.0544 110.493 19.7599C110.4 19.7047 110.336 19.6403 110.299 19.5666C110.281 19.493 110.262 19.3826 110.244 19.2353L110.051 15.0385C110.032 14.9649 110.069 14.9189 110.161 14.9005C110.272 14.8821 110.345 14.9097 110.382 14.9833C110.971 16.4927 111.671 17.7443 112.48 18.7383C113.29 19.7139 114.303 20.2017 115.518 20.2017C116.309 20.2017 116.953 19.99 117.45 19.5666C117.966 19.1249 118.223 18.3978 118.223 17.3854C118.223 16.5387 118.03 15.8024 117.644 15.1766C117.276 14.5507 116.815 14.0169 116.263 13.5752C115.729 13.1334 115.011 12.6364 114.109 12.0842C113.263 11.5504 112.582 11.0902 112.066 10.7037C111.569 10.2987 111.146 9.82012 110.796 9.26791C110.465 8.7157 110.299 8.07145 110.299 7.33517C110.299 6.378 110.566 5.56809 111.1 4.90544C111.634 4.22438 112.324 3.72739 113.171 3.41447C114.036 3.08314 114.947 2.91748 115.904 2.91748C116.512 2.91748 117.137 2.98191 117.782 3.11076C118.444 3.2212 118.997 3.36845 119.438 3.55252C119.714 3.69978 119.852 3.87465 119.852 4.07712L119.908 7.83216C119.908 7.88738 119.852 7.9334 119.742 7.97021C119.65 7.98862 119.595 7.96101 119.576 7.88738C119.245 6.83818 118.748 5.8442 118.085 4.90544C117.423 3.94827 116.484 3.46969 115.269 3.46969C114.422 3.46969 113.751 3.71819 113.254 4.21518C112.775 4.69376 112.536 5.30119 112.536 6.03747Z" fill="white"/>
<path d="M108.247 20.1462C108.302 20.1462 108.329 20.2015 108.329 20.3119C108.329 20.4223 108.302 20.4776 108.247 20.4776C107.915 20.4776 107.418 20.4592 106.756 20.4223C105.983 20.3855 105.375 20.3671 104.933 20.3671C104.492 20.3671 103.921 20.3855 103.221 20.4223C102.596 20.4592 102.117 20.4776 101.786 20.4776C101.712 20.4776 101.675 20.4223 101.675 20.3119C101.675 20.2015 101.712 20.1462 101.786 20.1462C102.375 20.1462 102.789 20.091 103.028 19.9806C103.286 19.8517 103.415 19.6308 103.415 19.3179C103.415 19.0602 103.314 18.6737 103.111 18.1583L100.654 12.0011H96.236L94.2204 16.8882C93.9259 17.6061 93.7787 18.1951 93.7787 18.6553C93.7787 19.1891 93.9719 19.5756 94.3585 19.8149C94.7635 20.0358 95.3801 20.1462 96.2084 20.1462C96.282 20.1462 96.3188 20.2015 96.3188 20.3119C96.3188 20.4223 96.2728 20.4776 96.1808 20.4776C95.9415 20.4776 95.4537 20.4592 94.7174 20.4223C93.8339 20.3855 93.162 20.3671 92.7019 20.3671C92.2601 20.3671 91.7447 20.3855 91.1557 20.4223C90.6403 20.4592 90.2169 20.4776 89.8856 20.4776C89.812 20.4776 89.7751 20.4223 89.7751 20.3119C89.7751 20.2015 89.812 20.1462 89.8856 20.1462C90.4378 20.1462 91.0268 19.8701 91.6527 19.3179C92.2969 18.7473 92.8583 17.919 93.3369 16.833L99.218 2.97248C99.218 2.91726 99.2916 2.88965 99.4388 2.88965C99.6045 2.88965 99.7149 2.92646 99.7702 3.00009L105.762 18.1583C106.001 18.7473 106.194 19.1707 106.341 19.4284C106.507 19.6677 106.728 19.8517 107.004 19.9806C107.28 20.091 107.694 20.1462 108.247 20.1462ZM96.5121 11.3109H100.378L98.4725 6.50663L96.5121 11.3109Z" fill="white"/>
<path d="M89.4712 3.22168C89.5265 3.22168 89.5541 3.2769 89.5541 3.38734C89.5541 3.49778 89.5265 3.55301 89.4712 3.55301C88.7165 3.55301 88.1275 3.8015 87.7042 4.29849C87.2808 4.77707 87.0691 5.45813 87.0691 6.34167L87.0415 20.6992C87.0415 20.7544 86.9955 20.7912 86.9035 20.8096C86.8114 20.8464 86.7194 20.8648 86.6273 20.8648C86.4801 20.8648 86.3788 20.828 86.3236 20.7544L74.6444 5.8999L74.6168 17.3583C74.6168 18.2602 74.8192 18.9505 75.2242 19.4291C75.6291 19.9077 76.209 20.1469 76.9637 20.1469C77.0373 20.1469 77.0741 20.2022 77.0741 20.3126C77.0741 20.423 77.0373 20.4783 76.9637 20.4783C76.4851 20.4783 76.1169 20.4691 75.8592 20.4507L74.2302 20.423L72.684 20.4507C72.3895 20.4691 71.9753 20.4783 71.4415 20.4783C71.3679 20.4783 71.3311 20.423 71.3311 20.3126C71.3311 20.2022 71.3679 20.1469 71.4415 20.1469C72.1962 20.1469 72.7853 19.9077 73.2086 19.4291C73.632 18.9505 73.8437 18.2602 73.8437 17.3583L73.8713 4.96114C73.4111 4.44575 72.9785 4.08681 72.5736 3.88433C72.1686 3.66345 71.7637 3.55301 71.3587 3.55301C71.3035 3.55301 71.2759 3.49778 71.2759 3.38734C71.2759 3.2769 71.3035 3.22168 71.3587 3.22168L72.684 3.24929C72.9601 3.2677 73.3283 3.2769 73.7884 3.2769C74.2302 3.2769 74.5983 3.2677 74.8929 3.24929C75.2058 3.23088 75.4175 3.22168 75.5279 3.22168C75.6752 3.22168 75.7856 3.25849 75.8592 3.33212C75.9329 3.40575 76.0341 3.5438 76.1629 3.74628C76.3654 4.07761 76.5771 4.38132 76.798 4.65743L86.2684 16.7232L86.296 6.34167C86.3144 5.43973 86.1212 4.74946 85.7162 4.27088C85.3112 3.7923 84.7222 3.55301 83.9491 3.55301C83.8755 3.55301 83.8387 3.49778 83.8387 3.38734C83.8387 3.2769 83.8755 3.22168 83.9491 3.22168L84.9707 3.24929C85.6334 3.2861 86.204 3.30451 86.6826 3.30451C87.0507 3.30451 87.5661 3.2861 88.2288 3.24929L89.4712 3.22168Z" fill="white"/>
<path d="M70.5802 3.22168C70.6723 3.22168 70.7183 3.2769 70.7183 3.38734C70.7183 3.49778 70.6723 3.55301 70.5802 3.55301C69.936 3.55301 69.3285 3.7923 68.7579 4.27088C68.1873 4.73106 67.6167 5.44893 67.0461 6.4245L64.0365 11.8914V18.2418C64.0549 18.8124 64.1101 19.2266 64.2022 19.4843C64.3126 19.742 64.5151 19.9169 64.8096 20.0089C65.1041 20.1009 65.5827 20.1469 66.2454 20.1469C66.319 20.1469 66.3558 20.2022 66.3558 20.3126C66.3558 20.4231 66.319 20.4783 66.2454 20.4783C65.6379 20.4783 65.1593 20.4691 64.8096 20.4507L62.7664 20.4231L60.5852 20.4507C60.2355 20.4691 59.7661 20.4783 59.1771 20.4783C59.1034 20.4783 59.0666 20.4231 59.0666 20.3126C59.0666 20.2022 59.1034 20.1469 59.1771 20.1469C59.8397 20.1469 60.3275 20.1009 60.6404 20.0089C60.9717 19.8985 61.1926 19.7144 61.3031 19.4567C61.4319 19.199 61.4871 18.794 61.4687 18.2418L61.4411 12.1951L57.051 5.51335C56.5909 4.81389 56.1583 4.3169 55.7534 4.02239C55.3484 3.70947 54.9158 3.55301 54.4557 3.55301C54.382 3.55301 54.3452 3.49778 54.3452 3.38734C54.3452 3.2769 54.3728 3.22168 54.428 3.22168L55.7534 3.24929C56.3424 3.2861 56.7933 3.30451 57.1063 3.30451C57.5849 3.30451 58.2843 3.2861 59.2047 3.24929L60.5852 3.22168C60.6404 3.22168 60.668 3.25849 60.668 3.33212C60.668 3.38734 60.6496 3.44256 60.6128 3.49778C60.5944 3.5346 60.5668 3.55301 60.53 3.55301C59.628 3.55301 59.1771 3.70947 59.1771 4.02239C59.1771 4.18805 59.2691 4.39973 59.4532 4.65743L63.65 11.1459L66.411 5.98273C66.6319 5.55937 66.7424 5.17282 66.7424 4.82309C66.7424 4.43654 66.6043 4.13283 66.3282 3.91194C66.0521 3.67265 65.6655 3.55301 65.1686 3.55301C65.0949 3.55301 65.0581 3.49778 65.0581 3.38734C65.0581 3.2769 65.0857 3.22168 65.1409 3.22168L66.5491 3.24929C67.3958 3.2861 68.0677 3.30451 68.5646 3.30451C68.8776 3.30451 69.2365 3.2861 69.6415 3.24929L70.5802 3.22168Z" fill="white"/>
<path d="M44.9777 20.5883C44.4623 20.5883 43.8824 20.5607 43.2382 20.5054C42.9989 20.487 42.6952 20.4686 42.327 20.4502C41.9589 20.4318 41.554 20.4226 41.1122 20.4226L39.1242 20.4502C38.7929 20.4686 38.3327 20.4778 37.7437 20.4778C37.7069 20.4778 37.6885 20.4226 37.6885 20.3122C37.6885 20.2017 37.7069 20.1465 37.7437 20.1465C38.3327 20.1465 38.7653 20.1005 39.0414 20.0084C39.3359 19.9164 39.5292 19.7415 39.6212 19.4838C39.7317 19.2077 39.7777 18.7936 39.7593 18.2414V5.45769C39.7409 4.90548 39.6764 4.50053 39.566 4.24283C39.4556 3.98513 39.2623 3.81026 38.9862 3.71823C38.7101 3.60778 38.2959 3.55256 37.7437 3.55256C37.7069 3.55256 37.6885 3.49734 37.6885 3.3869C37.6885 3.27646 37.7069 3.22124 37.7437 3.22124L39.0966 3.24885C39.9065 3.28566 40.56 3.30407 41.057 3.30407C41.6644 3.30407 42.2718 3.27646 42.8793 3.22124C43.6524 3.18442 44.2138 3.16602 44.5635 3.16602C46.4594 3.16602 48.1437 3.52495 49.6162 4.24283C51.0888 4.9607 52.23 5.95468 53.0399 7.22477C53.8499 8.49485 54.2548 9.9398 54.2548 11.5596C54.2548 13.3267 53.8222 14.9005 52.9571 16.281C52.1104 17.6431 50.9784 18.7015 49.561 19.4562C48.1437 20.2109 46.6159 20.5883 44.9777 20.5883ZM44.7292 20.0913C46.0545 20.0913 47.2141 19.7876 48.2081 19.1801C49.2205 18.5543 50.0028 17.6431 50.555 16.4467C51.1072 15.2502 51.3833 13.8237 51.3833 12.1671C51.3833 10.6945 51.1348 9.31396 50.6378 8.02547C50.1408 6.73698 49.3769 5.68778 48.3461 4.87787C47.3154 4.06796 46.0453 3.66301 44.5359 3.66301C43.6892 3.66301 43.1093 3.80106 42.7964 4.07716C42.5019 4.33486 42.3547 4.81344 42.3547 5.51291V17.9377C42.3731 18.7108 42.5387 19.263 42.8516 19.5943C43.183 19.9256 43.8088 20.0913 44.7292 20.0913Z" fill="white"/>
<path d="M192.26 34.9737V29.6587H195.183C195.502 29.6587 195.788 29.7296 196.041 29.8713C196.299 30.013 196.504 30.2054 196.656 30.4484C196.808 30.6863 196.884 30.952 196.884 31.2456C196.884 31.5746 196.803 31.8657 196.641 32.1188C196.479 32.3668 196.259 32.5617 195.981 32.7034C195.707 32.8452 195.398 32.916 195.054 32.916H192.852V34.9737H192.26ZM196.459 34.9737L194.667 32.6351L195.267 32.4529L197.195 34.9737H196.459ZM192.852 32.339H194.978C195.221 32.339 195.439 32.2909 195.631 32.1947C195.824 32.0985 195.975 31.9695 196.087 31.8075C196.198 31.6455 196.254 31.4633 196.254 31.2608C196.254 31.0684 196.198 30.8963 196.087 30.7445C195.975 30.5876 195.826 30.4635 195.639 30.3724C195.452 30.2813 195.244 30.2358 195.016 30.2358H192.852V32.339Z" fill="white"/>
<path d="M184.757 34.9737V29.6587H189.039V30.2358H185.349V34.3967H189.024V34.9737H184.757ZM185.076 32.5288V31.9517H188.614V32.5288H185.076Z" fill="white"/>
<path d="M175.681 34.9737V29.6587H176.289L180.86 34.298L180.806 34.4346C180.786 34.3182 180.771 34.1613 180.761 33.9639C180.756 33.7614 180.748 33.5437 180.738 33.3109C180.733 33.078 180.728 32.8477 180.723 32.6199C180.723 32.3921 180.72 32.1897 180.715 32.0125C180.715 31.8303 180.715 31.6961 180.715 31.6101V29.6587H181.307V34.9737H180.677L176.152 30.4332L176.167 30.2737C176.172 30.3395 176.177 30.4408 176.182 30.5774C176.192 30.709 176.203 30.8634 176.213 31.0406C176.223 31.2127 176.233 31.3924 176.243 31.5797C176.253 31.767 176.261 31.9467 176.266 32.1188C176.271 32.2909 176.273 32.4377 176.273 32.5592V34.9737H175.681Z" fill="white"/>
<path d="M166.606 34.9737V29.6587H167.213L171.784 34.298L171.731 34.4346C171.711 34.3182 171.696 34.1613 171.686 33.9639C171.681 33.7614 171.673 33.5437 171.663 33.3109C171.658 33.078 171.653 32.8477 171.648 32.6199C171.648 32.3921 171.645 32.1897 171.64 32.0125C171.64 31.8303 171.64 31.6961 171.64 31.6101V29.6587H172.232V34.9737H171.602L167.077 30.4332L167.092 30.2737C167.097 30.3395 167.102 30.4408 167.107 30.5774C167.117 30.709 167.127 30.8634 167.137 31.0406C167.148 31.2127 167.158 31.3924 167.168 31.5797C167.178 31.767 167.186 31.9467 167.191 32.1188C167.196 32.2909 167.198 32.4377 167.198 32.5592V34.9737H166.606Z" fill="white"/>
<path d="M157.967 34.9737L160.556 29.6587H161.3L163.866 34.9737H163.206L161.315 31.071C161.249 30.9191 161.194 30.7976 161.148 30.7065C161.107 30.6154 161.07 30.5369 161.034 30.4711C160.999 30.4053 160.963 30.3319 160.928 30.2509C160.897 30.1699 160.862 30.0662 160.821 29.9396L160.996 29.932C160.94 30.0788 160.892 30.1978 160.852 30.2889C160.816 30.375 160.781 30.4559 160.746 30.5319C160.71 30.6027 160.67 30.6812 160.624 30.7673C160.584 30.8533 160.53 30.9672 160.465 31.1089L158.589 34.9737H157.967ZM159.037 33.5842L159.28 33.0072H162.53L162.636 33.5842H159.037Z" fill="white"/>
<path d="M151.607 34.9737V29.6587H152.199V34.3967H155.813V34.9737H151.607Z" fill="white"/>
<path d="M143.851 34.9737V29.6587H146.858C147.177 29.6587 147.463 29.727 147.716 29.8637C147.969 30.0004 148.169 30.1877 148.316 30.4256C148.463 30.6635 148.536 30.9343 148.536 31.238C148.536 31.567 148.458 31.8606 148.301 32.1188C148.144 32.3769 147.931 32.582 147.663 32.7338C147.395 32.8806 147.091 32.954 146.752 32.954H144.444V34.9737H143.851ZM144.444 32.377H146.714C146.942 32.377 147.144 32.3289 147.321 32.2327C147.504 32.1314 147.645 31.9948 147.746 31.8227C147.848 31.6506 147.898 31.4531 147.898 31.2304C147.898 31.0381 147.848 30.8685 147.746 30.7217C147.645 30.5698 147.506 30.4509 147.329 30.3648C147.152 30.2788 146.947 30.2358 146.714 30.2358H144.444V32.377Z" fill="white"/>
<path d="M132.493 34.9737V29.6587H133.085V34.3967H136.699V34.9737H132.493Z" fill="white"/>
<path d="M124.99 34.9737V29.6587H129.272V30.2358H125.582V34.3967H129.257V34.9737H124.99ZM125.308 32.5288V31.9517H128.847V32.5288H125.308Z" fill="white"/>
<path d="M119.033 34.9737L116.557 29.6587H117.218L118.744 32.916C118.805 33.0527 118.871 33.197 118.942 33.3488C119.012 33.4956 119.083 33.6475 119.154 33.8044C119.225 33.9613 119.293 34.1183 119.359 34.2752C119.425 34.4321 119.483 34.589 119.534 34.7459H119.314C119.4 34.5131 119.488 34.2904 119.579 34.0778C119.67 33.8601 119.759 33.6526 119.845 33.4551C119.931 33.2577 120.012 33.073 120.088 32.9009L121.584 29.6587H122.26L119.777 34.9737H119.033Z" fill="white"/>
<path d="M109.203 34.9737L111.792 29.6587H112.536L115.102 34.9737H114.442L112.551 31.071C112.485 30.9191 112.43 30.7976 112.384 30.7065C112.344 30.6154 112.306 30.5369 112.27 30.4711C112.235 30.4053 112.199 30.3319 112.164 30.2509C112.134 30.1699 112.098 30.0662 112.058 29.9396L112.232 29.932C112.177 30.0788 112.128 30.1978 112.088 30.2889C112.053 30.375 112.017 30.4559 111.982 30.5319C111.946 30.6027 111.906 30.6812 111.86 30.7673C111.82 30.8533 111.767 30.9672 111.701 31.1089L109.825 34.9737H109.203ZM110.273 33.5842L110.516 33.0072H113.766L113.872 33.5842H110.273Z" fill="white"/>
<path d="M101.894 34.9737V29.6587H104.817C105.136 29.6587 105.422 29.7296 105.675 29.8713C105.933 30.013 106.138 30.2054 106.29 30.4484C106.442 30.6863 106.518 30.952 106.518 31.2456C106.518 31.5746 106.437 31.8657 106.275 32.1188C106.113 32.3668 105.892 32.5617 105.614 32.7034C105.341 32.8452 105.032 32.916 104.688 32.916H102.486V34.9737H101.894ZM106.092 34.9737L104.301 32.6351L104.9 32.4529L106.829 34.9737H106.092ZM102.486 32.339H104.612C104.855 32.339 105.072 32.2909 105.265 32.1947C105.457 32.0985 105.609 31.9695 105.72 31.8075C105.832 31.6455 105.887 31.4633 105.887 31.2608C105.887 31.0684 105.832 30.8963 105.72 30.7445C105.609 30.5876 105.46 30.4635 105.272 30.3724C105.085 30.2813 104.878 30.2358 104.65 30.2358H102.486V32.339Z" fill="white"/>
<path d="M96.4466 34.9737V30.2358H94.3965V29.6587H99.1496V30.2358H97.0388V34.9737H96.4466Z" fill="white"/>
<path d="M86.9377 34.9733L86.3682 34.3734L86.1252 34.138L84.5307 32.6954C84.3687 32.5486 84.2017 32.4043 84.0296 32.2626C83.8626 32.1158 83.7082 31.9715 83.5664 31.8298C83.4247 31.683 83.3083 31.5362 83.2172 31.3894C83.1311 31.2376 83.0881 31.0781 83.0881 30.9111C83.0881 30.6934 83.1589 30.4833 83.3007 30.2808C83.4475 30.0784 83.6601 29.9113 83.9385 29.7797C84.2169 29.643 84.5484 29.5747 84.9332 29.5747C85.2824 29.5747 85.5937 29.6203 85.8671 29.7114C86.1404 29.7974 86.3783 29.9214 86.5808 30.0834C86.7884 30.2404 86.9579 30.4251 87.0895 30.6377L86.6795 31.0477C86.4619 30.7086 86.1986 30.4732 85.8899 30.3416C85.5811 30.21 85.2723 30.1442 84.9635 30.1442C84.7307 30.1442 84.5257 30.1745 84.3485 30.2353C84.1764 30.291 84.0423 30.3745 83.9461 30.4859C83.8499 30.5922 83.8018 30.7187 83.8018 30.8655C83.8018 30.9667 83.8322 31.0705 83.8929 31.1768C83.9537 31.2831 84.0271 31.3818 84.1131 31.4729C84.2042 31.564 84.2953 31.645 84.3865 31.7159C84.4776 31.7868 84.5484 31.845 84.5991 31.8905L86.6947 33.7888L86.8617 33.9938L87.7729 34.9733H86.9377ZM84.6067 35.0796C84.06 35.0796 83.6069 35.0036 83.2475 34.8518C82.8932 34.6999 82.63 34.4974 82.4579 34.2443C82.2858 33.9912 82.1997 33.7128 82.1997 33.4091C82.1997 33.07 82.3212 32.7511 82.5642 32.4524C82.8122 32.1538 83.1868 31.9083 83.6879 31.7159L84.0979 32.1183C83.6626 32.2449 83.3538 32.4145 83.1716 32.6271C82.9944 32.8397 82.9058 33.0674 82.9058 33.3104C82.9058 33.5078 82.9666 33.6951 83.0881 33.8723C83.2096 34.0444 83.3969 34.1861 83.6499 34.2975C83.9081 34.4038 84.2371 34.4569 84.637 34.4569C84.8648 34.4569 85.1027 34.424 85.3508 34.3582C85.6039 34.2924 85.8367 34.1861 86.0493 34.0393C86.267 33.8875 86.4467 33.6825 86.5884 33.4243C86.7352 33.1661 86.8162 32.8447 86.8314 32.46H87.492C87.4768 32.8447 87.4059 33.1813 87.2794 33.4699C87.1528 33.7533 86.9908 33.9988 86.7934 34.2064C86.596 34.4139 86.3758 34.5835 86.1328 34.7151C85.8899 34.8416 85.6368 34.9328 85.3735 34.9884C85.1103 35.0492 84.8547 35.0796 84.6067 35.0796Z" fill="white"/>
<path d="M72.8543 34.9737V30.2358H70.8042V29.6587H75.5574V30.2358H73.4465V34.9737H72.8543Z" fill="white"/>
<path d="M62.4275 34.9737V29.6587H63.0349L67.6058 34.298L67.5527 34.4346C67.5325 34.3182 67.5173 34.1613 67.5071 33.9639C67.5021 33.7614 67.4945 33.5437 67.4844 33.3109C67.4793 33.078 67.4742 32.8477 67.4692 32.6199C67.4692 32.3921 67.4666 32.1897 67.4616 32.0125C67.4616 31.8303 67.4616 31.6961 67.4616 31.6101V29.6587H68.0538V34.9737H67.4236L62.8983 30.4332L62.9134 30.2737C62.9185 30.3395 62.9236 30.4408 62.9286 30.5774C62.9387 30.709 62.9489 30.8634 62.959 31.0406C62.9691 31.2127 62.9792 31.3924 62.9894 31.5797C62.9995 31.767 63.0071 31.9467 63.0121 32.1188C63.0172 32.2909 63.0197 32.4377 63.0197 32.5592V34.9737H62.4275Z" fill="white"/>
<path d="M54.9243 34.9737V29.6587H59.2067V30.2358H55.5166V34.3967H59.1915V34.9737H54.9243ZM55.2432 32.5288V31.9517H58.7815V32.5288H55.2432Z" fill="white"/>
<path d="M48.9677 34.9737L46.4924 29.6587H47.153L48.6792 32.916C48.7399 33.0527 48.8057 33.197 48.8766 33.3488C48.9475 33.4956 49.0183 33.6475 49.0892 33.8044C49.1601 33.9613 49.2284 34.1183 49.2942 34.2752C49.36 34.4321 49.4182 34.589 49.4688 34.7459H49.2487C49.3347 34.5131 49.4233 34.2904 49.5144 34.0778C49.6055 33.8601 49.6941 33.6526 49.7802 33.4551C49.8662 33.2577 49.9472 33.073 50.0231 32.9009L51.5189 29.6587H52.1947L49.7118 34.9737H48.9677Z" fill="white"/>
<path d="M39.7026 34.9737V29.6587H43.985V30.2358H40.2949V34.3967H43.9698V34.9737H39.7026ZM40.0215 32.5288V31.9517H43.5598V32.5288H40.0215Z" fill="white"/>
<path d="M0 38.8898H4.89213V4.38779C4.50076 0.701589 1.46764 -0.0701161 0 0.00480674V38.8898Z" fill="#D12600"/>
<path fill-rule="evenodd" clip-rule="evenodd" d="M8.81496 0.00496155H8.60413C9.84598 0.267226 12.3297 1.55606 12.3297 4.61329V34.5861C12.3071 36.6093 11.3437 38.2054 8.60413 38.8947C11.2007 38.7698 17.1842 37.2304 17.1842 29.7905V7.85991C17.1842 1.24121 11.3337 0.0544712 8.81496 0.00496155Z" fill="#D12600"/>
<path fill-rule="evenodd" clip-rule="evenodd" d="M31.9142 0.0010553H32.125C30.8832 0.26332 28.3995 1.55216 28.3995 4.60939V34.5822C28.4221 36.6054 29.3854 38.2014 32.125 38.8908C29.5284 38.7659 23.545 37.2265 23.545 29.7866V7.856C23.545 1.2373 29.3954 0.050565 31.9142 0.0010553Z" fill="#D12600"/>
</svg>
