<svg width="160" height="40" viewBox="0 0 160 40" fill="none" xmlns="http://www.w3.org/2000/svg"><rect x="1" y=".5" width="158.5" height="39" rx="4.5" stroke="#fff"/><path d="M68.636 21.75c-2.352 0-4.269 1.79-4.269 4.254 0 2.449 1.917 4.253 4.269 4.253s4.27-1.804 4.27-4.253c-.001-2.464-1.918-4.253-4.27-4.253m0 6.833c-1.289 0-2.4-1.063-2.4-2.578 0-1.531 1.112-2.578 2.4-2.578 1.289 0 2.4 1.047 2.4 2.578 0 1.514-1.111 2.578-2.4 2.578m-9.314-6.832c-2.352 0-4.269 1.789-4.269 4.253 0 2.449 1.917 4.253 4.269 4.253s4.27-1.804 4.27-4.253c0-2.464-1.917-4.253-4.27-4.253m0 6.832c-1.289 0-2.4-1.063-2.4-2.578 0-1.531 1.112-2.578 2.4-2.578 1.289 0 2.4 1.047 2.4 2.578.001 1.514-1.111 2.578-2.4 2.578m-11.078-5.526v1.804h4.318c-.129 1.015-.467 1.756-.983 2.27-.628.629-1.611 1.322-3.335 1.322-2.658 0-4.736-2.143-4.736-4.801s2.078-4.801 4.736-4.801c1.434 0 2.481.564 3.254 1.289l1.273-1.273c-1.08-1.031-2.513-1.82-4.527-1.82-3.641 0-6.702 2.964-6.702 6.605 0 3.64 3.061 6.605 6.702 6.605 1.965 0 3.448-.645 4.607-1.853 1.192-1.192 1.563-2.868 1.563-4.221 0-.418-.032-.805-.097-1.127h-6.073m45.308 1.4c-.354-.95-1.434-2.706-3.641-2.706-2.191 0-4.012 1.724-4.012 4.253 0 2.384 1.805 4.253 4.221 4.253 1.949 0 3.077-1.192 3.545-1.885l-1.45-.967c-.483.709-1.144 1.176-2.095 1.176-.95 0-1.627-.435-2.062-1.29l5.687-2.351zm-5.8 1.419c-.048-1.644 1.273-2.481 2.224-2.481.741 0 1.369.37 1.579.902zM83.129 30h1.868V17.499h-1.868zm-3.062-7.298h-.064c-.419-.5-1.225-.951-2.239-.951-2.127 0-4.076 1.869-4.076 4.27 0 2.384 1.949 4.237 4.076 4.237 1.015 0 1.82-.451 2.239-.966h.064v.612c0 1.627-.87 2.497-2.271 2.497-1.144 0-1.853-.821-2.143-1.514l-1.627.677c.467 1.127 1.707 2.513 3.77 2.513 2.191 0 4.044-1.29 4.044-4.431V22.01h-1.772v.692zm-2.142 5.88c-1.289 0-2.368-1.08-2.368-2.561 0-1.5 1.079-2.594 2.368-2.594 1.272 0 2.271 1.095 2.271 2.594 0 1.482-.999 2.562-2.271 2.562M102.306 17.5h-4.471V30H99.7v-4.735h2.605c2.068 0 4.102-1.497 4.102-3.882s-2.033-3.883-4.101-3.883m.048 6.025H99.7V19.24h2.654c1.395 0 2.187 1.155 2.187 2.143 0 .968-.792 2.142-2.187 2.142m11.532-1.795c-1.351 0-2.75.595-3.329 1.914l1.656.69c.354-.69 1.014-.916 1.705-.916.965 0 1.946.579 1.962 1.608v.129c-.338-.193-1.062-.482-1.946-.482-1.785 0-3.603.98-3.603 2.814 0 1.673 1.464 2.75 3.104 2.75 1.254 0 1.946-.563 2.38-1.223h.064v.965h1.802v-4.793c.001-2.218-1.657-3.456-3.795-3.456m-.226 6.85c-.61 0-1.463-.305-1.463-1.061 0-.965 1.062-1.335 1.979-1.335.819 0 1.206.177 1.704.418a2.26 2.26 0 0 1-2.22 1.979m10.583-6.577-2.139 5.42h-.064l-2.22-5.42h-2.01l3.329 7.575-1.898 4.214h1.946L126.318 22zM107.437 30h1.865V17.499h-1.865zM47.918 10.243q0 1.257-.745 2.003-.847.888-2.204.888-1.3 0-2.208-.9-.91-.9-.91-2.233t.91-2.233 2.208-.9q.645 0 1.23.25.588.252.939.67l-.527.528q-.595-.712-1.643-.712-.947 0-1.64.666-.69.666-.69 1.73t.69 1.73a2.28 2.28 0 0 0 1.64.666q1.005 0 1.676-.67.435-.436.503-1.215h-2.18v-.72h2.908q.044.234.043.452m4.61-2.506h-2.732V9.64h2.464v.721h-2.464v1.902h2.732V13h-3.503V7h3.503zM55.779 13h-.772V7.737h-1.675V7h4.123v.737h-1.676zm4.659 0V7h.77v6zm4.19 0h-.771V7.737H62.18V7h4.123v.737h-1.676zm9.48-.775q-.885.91-2.2.91t-2.199-.91q-.885-.91-.884-2.225 0-1.316.884-2.225.884-.91 2.2-.91 1.307 0 2.195.914.888.915.888 2.221 0 1.317-.884 2.225m-3.83-.503a2.2 2.2 0 0 0 1.63.674q.965 0 1.63-.674.667-.675.667-1.722t-.667-1.722a2.2 2.2 0 0 0-1.63-.674q-.964 0-1.63.674-.665.675-.666 1.722 0 1.047.666 1.722M76.075 13V7h.938l2.915 4.667h.034l-.034-1.156v-3.51h.772v6h-.806l-3.05-4.895h-.033l.032 1.156V13z" fill="#fff"/><path d="M47.918 10.243q0 1.257-.745 2.003-.847.888-2.204.888-1.3 0-2.208-.9-.91-.9-.91-2.233t.91-2.233 2.208-.9q.645 0 1.23.25.588.252.939.67l-.527.528q-.595-.712-1.643-.712-.947 0-1.64.666-.69.666-.69 1.73t.69 1.73a2.28 2.28 0 0 0 1.64.666q1.005 0 1.676-.67.435-.436.503-1.215h-2.18v-.72h2.908q.044.234.043.452Zm4.61-2.506h-2.732V9.64h2.464v.721h-2.464v1.902h2.732V13h-3.503V7h3.503zM55.779 13h-.772V7.737h-1.675V7h4.123v.737h-1.676zm4.659 0V7h.77v6zm4.19 0h-.771V7.737H62.18V7h4.123v.737h-1.676zm9.48-.775q-.885.91-2.2.91t-2.199-.91q-.885-.91-.884-2.225 0-1.316.884-2.225.884-.91 2.2-.91 1.307 0 2.195.914.888.915.888 2.221 0 1.317-.884 2.225Zm-3.83-.503a2.2 2.2 0 0 0 1.63.674q.965 0 1.63-.674.667-.675.667-1.722t-.667-1.722a2.2 2.2 0 0 0-1.63-.674q-.964 0-1.63.674-.665.675-.666 1.722 0 1.047.666 1.722ZM76.075 13V7h.938l2.915 4.667h.034l-.034-1.156v-3.51h.772v6h-.806l-3.05-4.895h-.033l.032 1.156V13z" stroke="#fff" stroke-width=".2" stroke-miterlimit="10"/><path fill-rule="evenodd" clip-rule="evenodd" d="M10.656 7.967a2.4 2.4 0 0 0-.183.976V31.06c0 .382.065.71.183.977L22.69 20.001zm.695 24.789c.446.19 1.028.13 1.663-.23l14.157-8.045-3.774-3.773zm16.722-8.786 4.442-2.524c1.397-.795 1.397-2.094 0-2.888l-4.444-2.525-3.967 3.968zm-.904-8.45L13.014 7.478c-.635-.36-1.217-.42-1.663-.23l12.046 12.047z" fill="#fff"/></svg>