<svg width="55" height="54" fill="none" xmlns="http://www.w3.org/2000/svg"><path fill-rule="evenodd" clip-rule="evenodd" d="M18.988.76c-2.622 1.302-3.58 2.993-7.318 12.924-3.227 8.572-5.049 13.331-5.59 14.603-.155.365-1.532 4.024-3.06 8.13C-.67 46.33-.856 48.642 1.792 51.6c1.528 1.706 3.3 2.39 6.211 2.4 1.379.004 10.717-1.218 21.483-2.812 18.016-2.668 19.163-2.879 21.232-3.9 2.375-1.173 3.49-2.445 4.105-4.685.493-1.798-.071-4.536-1.355-6.565-1.3-2.057-24.126-31.298-25.696-32.918C26.122 1.414 24.1.286 22.285.056 21.082-.097 20.436.04 18.988.76zm8.73 7.2c.819.41 1.905 1.269 2.413 1.907.916 1.15 15.068 26.83 16.025 29.074 1.503 3.53.64 6.566-2.288 8.045l-1.572.793-15.561-.054c-15.129-.052-18.442-.224-20.055-1.04-2.314-1.172-3.473-3.268-3.137-5.675.232-1.658.524-2.198 10.818-20 6.208-10.735 7.759-12.862 9.804-13.446 1.575-.45 1.95-.408 3.553.395z" fill="#255870"/></svg>