<svg width="252" height="252" viewBox="0 0 252 252" fill="none" xmlns="http://www.w3.org/2000/svg">
<g opacity="0.5">
<path d="M217.985 220.916C203.121 228.325 183.756 225.37 171.847 213.87C163.801 206.097 159.301 195.369 151.755 187.142C137.618 171.732 112.663 167.641 94.3442 177.687C72.653 189.621 59.4058 220.976 32.7966 222.006C17.9326 222.597 3.61386 210.506 1.70467 195.779C-0.204528 181.006 10.5232 165.687 25.0693 162.459C46.4775 157.585 52.0215 147.491 31.2969 125.913C20.6962 114.987 13.588 102.78 24.7966 88.048C35.0341 74.8171 57.5291 69.9109 76.7529 81.6841C108.582 101.259 81.5877 99.3639 107.163 63.0474C131.271 28.4835 158.265 52.8227 175.165 54.7289C190.984 56.5928 206.575 46.6831 222.303 49.274C246.66 53.3001 256.199 83.7148 238.394 100.912C226.985 111.958 208.757 112.594 196.074 122.049C185.772 129.749 187.345 139.476 197.302 143.05C260.599 165.775 241.964 208.853 217.985 220.916Z" fill="#BAD0E6"/>
<path d="M51.2966 27.004C38.4116 27.2156 33.1467 41.5949 49.2131 53.4615C66.7724 66.4312 79.8075 56.7769 79.654 47.6094C79.5161 39.3717 67.2193 26.7426 51.2966 27.004Z" fill="#BAD0E6"/>
</g>
<path d="M71.1851 192.688L70.8904 192.473L70.5957 192.688L50.1289 207.619V44.3661L70.6101 59.2976L70.9046 59.5123L71.1991 59.2977L92.1937 44.0015L113.175 59.2976L113.47 59.5124L113.764 59.2976L134.745 44.0017L155.712 59.2975L156.007 59.5125L156.302 59.2975L176.768 44.3665V207.619L156.288 192.688L155.993 192.473L155.699 192.688L134.704 207.984L113.722 192.688L113.428 192.473L113.133 192.688L92.1525 207.984L71.1851 192.688Z" fill="white" stroke="#040829"/>
<path d="M198.949 159.581C198.949 174.448 186.891 186.505 172.012 186.505C157.145 186.505 145.088 174.448 145.088 159.581C145.088 144.702 157.146 132.645 172.012 132.645C186.891 132.644 198.949 144.702 198.949 159.581Z" fill="#392B9E" stroke="#040829"/>
<path d="M167.447 169.095C167.009 169.095 166.589 168.92 166.279 168.611L159.673 162.005C159.028 161.36 159.028 160.314 159.673 159.669C160.319 159.023 161.365 159.023 162.01 159.669L167.447 165.106L182.012 150.54C182.658 149.894 183.703 149.894 184.349 150.54C184.994 151.185 184.994 152.231 184.349 152.876L168.615 168.611C168.305 168.92 167.885 169.095 167.447 169.095Z" fill="white"/>
<path d="M132.908 88.3136C132.908 99.0575 124.193 107.772 113.45 107.772C102.705 107.772 93.9746 99.057 93.9746 88.3136C93.9746 77.5536 102.705 68.8386 113.45 68.8386C124.193 68.8386 132.908 77.5526 132.908 88.3136Z" fill="#BAD0E6" stroke="#040829"/>
<path d="M113.297 98.7189C111.949 98.7189 110.622 98.548 109.316 98.2061C108.02 97.8643 106.932 97.3661 106.051 96.7117L107.086 95.2906C107.638 95.691 108.243 96.028 108.902 96.3015C109.57 96.575 110.277 96.785 111.02 96.9315C111.763 97.0682 112.522 97.1366 113.297 97.1366C115.017 97.1366 116.403 96.7996 117.454 96.1257C118.505 95.442 119.031 94.4408 119.031 93.1222C119.031 92.1259 118.664 91.3103 117.932 90.6754C117.21 90.0308 115.973 89.4594 114.221 88.9613L111.673 88.2287C110.016 87.7599 108.7 87.1299 107.723 86.3387C106.746 85.5378 106.258 84.4292 106.258 83.0129C106.258 81.831 106.571 80.8152 107.197 79.9654C107.835 79.1157 108.705 78.4661 109.809 78.0168C110.924 77.5578 112.204 77.3282 113.648 77.3282C114.911 77.3282 116.09 77.504 117.183 77.8557C118.277 78.2073 119.195 78.6713 119.939 79.2475L118.903 80.5808C118.171 80.0338 117.316 79.6138 116.339 79.3208C115.373 79.0278 114.37 78.8813 113.329 78.8813C112.278 78.8813 111.349 79.0375 110.542 79.3501C109.735 79.6529 109.103 80.1022 108.647 80.698C108.201 81.2938 107.978 82.0264 107.978 82.8957C107.978 83.892 108.349 84.6782 109.093 85.2545C109.836 85.8308 111.057 86.3631 112.756 86.8515L115.527 87.6427C117.205 88.1115 118.495 88.7659 119.397 89.6059C120.3 90.4361 120.751 91.5692 120.751 93.005C120.751 94.138 120.464 95.1343 119.891 95.9938C119.328 96.8534 118.489 97.5224 117.374 98.001C116.27 98.4796 114.911 98.7189 113.297 98.7189ZM112.692 100.624V75.4236H114.285V100.624H112.692Z" fill="black"/>
<path d="M85.5456 122.428H65.3984C64.4858 122.428 63.7461 122.897 63.7461 123.478C63.7461 124.058 64.4858 124.528 65.3984 124.528H85.5456C86.4581 124.528 87.1978 124.058 87.1978 123.478C87.1978 122.897 86.4581 122.428 85.5456 122.428Z" fill="black"/>
<path d="M166.97 123.478C166.97 122.898 166.231 122.428 165.318 122.428H98.3495C97.437 122.428 96.6973 122.897 96.6973 123.478C96.6973 124.058 97.437 124.528 98.3495 124.528H165.319C166.231 124.528 166.97 124.058 166.97 123.478Z" fill="black"/>
<path d="M85.5456 145.788H65.3984C64.4858 145.788 63.7461 146.258 63.7461 146.838C63.7461 147.419 64.4858 147.888 65.3984 147.888H85.5456C86.4581 147.888 87.1978 147.419 87.1978 146.838C87.1978 146.258 86.4581 145.788 85.5456 145.788Z" fill="black"/>
<path d="M140.218 145.781H98.3515C97.439 145.781 96.6992 146.251 96.6992 146.831C96.6992 147.412 97.439 147.881 98.3515 147.881H140.218C141.13 147.881 141.87 147.412 141.87 146.831C141.87 146.251 141.13 145.781 140.218 145.781Z" fill="black"/>
<path d="M85.5456 169.148H65.3984C64.4858 169.148 63.7461 169.617 63.7461 170.198C63.7461 170.778 64.4858 171.248 65.3984 171.248H85.5456C86.4581 171.248 87.1978 170.778 87.1978 170.198C87.1978 169.617 86.4581 169.148 85.5456 169.148Z" fill="black"/>
<path d="M139.871 169.143H98.3515C97.439 169.143 96.6992 169.612 96.6992 170.193C96.6992 170.773 97.439 171.243 98.3515 171.243H139.871C140.783 171.243 141.523 170.773 141.523 170.193C141.523 169.612 140.783 169.143 139.871 169.143Z" fill="black"/>
</svg>
