<svg xmlns="http://www.w3.org/2000/svg" width="121" height="120" fill="none">
  <path fill="#DCE4EC" d="M105.252 105.203c-7.078 3.529-16.3 2.122-21.97-3.355-3.832-3.701-5.975-8.81-9.568-12.727-6.732-7.338-18.616-9.286-27.339-4.503-10.329 5.683-16.637 20.614-29.308 21.105-7.078.281-13.897-5.477-14.806-12.49-.909-7.034 4.2-14.329 11.126-15.866 10.194-2.321 12.834-7.128 2.966-17.403-5.048-5.203-8.433-11.015-3.096-18.03 4.875-6.301 15.587-8.637 24.741-3.031 15.157 9.321 2.303 8.419 14.482-8.875 11.48-16.459 24.334-4.869 32.382-3.961 7.532.888 14.957-3.831 22.446-2.598 11.598 1.918 16.141 16.4 7.662 24.59-5.433 5.26-14.112 5.563-20.152 10.065-4.906 3.667-4.156 8.299.585 10 30.141 10.822 21.267 31.335 9.849 37.079ZM25.88 12.865c-6.135.1-8.642 6.948-.992 12.598 8.362 6.177 14.57 1.58 14.496-2.786-.066-3.923-5.921-9.937-13.504-9.812Z"/>
  <path fill="#fff" stroke="#040829" d="M89.785 37.283v46.026c0 2.655-2.14 4.803-4.775 4.803H28.26c-2.634 0-4.775-2.148-4.775-4.803V37.283c0-2.656 2.14-4.804 4.775-4.804H85.01c2.635 0 4.775 2.148 4.775 4.804Z"/>
  <path fill="#5656D3" stroke="#040829" d="M89.785 37.282v9.047h-66.3v-9.047c0-2.655 2.14-4.803 4.774-4.803H85.01c2.635 0 4.775 2.148 4.775 4.803Z"/>
  <path fill="#E3E3E3" stroke="#040829" d="M98.014 85.792c0 5.761-4.638 10.42-10.353 10.42-5.716 0-10.36-4.66-10.36-10.42 0-5.754 4.643-10.413 10.36-10.413 5.716 0 10.353 4.659 10.353 10.413ZM42.474 27.053v7.105a3.255 3.255 0 0 1-3.245 3.265 3.255 3.255 0 0 1-3.245-3.265v-7.105a3.255 3.255 0 0 1 3.245-3.265c1.79 0 3.245 1.46 3.245 3.265ZM77.282 27.053v7.105a3.255 3.255 0 0 1-3.244 3.265 3.255 3.255 0 0 1-3.245-3.265v-7.105a3.255 3.255 0 0 1 3.245-3.265c1.789 0 3.244 1.46 3.244 3.265Z"/>
  <path stroke="#040829" stroke-linecap="round" d="M31.75 57h6a1 1 0 0 1 1 1v5.5M45.75 57h6a1 1 0 0 1 1 1v5.5M59.75 57h6a1 1 0 0 1 1 1v5.5M73.75 57h6a1 1 0 0 1 1 1v5.5M31.75 72h6a1 1 0 0 1 1 1v5.5M45.75 72h6a1 1 0 0 1 1 1v5.5M59.75 72h6a1 1 0 0 1 1 1v5.5M92.75 87.5h-5a1 1 0 0 1-1-1V81"/>
</svg>
