<svg xmlns="http://www.w3.org/2000/svg" width="121" height="120" fill="none">
  <path fill="#DCE4EC" d="M105.002 105.203c-7.078 3.529-16.3 2.122-21.97-3.355-3.832-3.701-5.975-8.81-9.568-12.727-6.732-7.338-18.616-9.286-27.339-4.503-10.329 5.683-16.637 20.614-29.308 21.105-7.078.281-13.897-5.477-14.806-12.49-.909-7.034 4.2-14.329 11.126-15.866 10.194-2.321 12.834-7.128 2.966-17.403-5.048-5.203-8.433-11.015-3.096-18.03 4.875-6.301 15.587-8.637 24.741-3.031 15.157 9.321 2.303 8.419 14.482-8.875 11.48-16.459 24.334-4.869 32.382-3.961 7.532.888 14.957-3.831 22.446-2.598 11.598 1.918 16.141 16.4 7.662 24.59-5.433 5.26-14.112 5.563-20.152 10.065-4.906 3.667-4.156 8.299.585 10 30.141 10.822 21.267 31.335 9.849 37.079ZM25.63 12.865c-6.135.1-8.642 6.948-.992 12.598 8.362 6.177 14.57 1.58 14.496-2.786-.066-3.923-5.921-9.937-13.504-9.812Z"/>
  <path fill="#fff" stroke="#040829" d="M83.916 27.78v64.44c0 2.782-2.276 5.044-5.094 5.044H32.337c-2.818 0-5.095-2.262-5.095-5.044V27.78c0-2.782 2.277-5.045 5.095-5.045h46.484c2.819 0 5.096 2.263 5.096 5.045Z"/>
  <path fill="#E3E3E3" stroke="#040829" d="M75.611 32.529v10.057c0 .859-.704 1.563-1.582 1.563h-36.9a1.573 1.573 0 0 1-1.582-1.563V32.53c0-.86.704-1.563 1.582-1.563h36.9c.878 0 1.582.704 1.582 1.563ZM53.7 52.29h3.757c.878 0 1.582.704 1.582 1.563v3.65c0 .86-.704 1.564-1.582 1.564h-3.758a1.573 1.573 0 0 1-1.582-1.563v-3.65c0-.86.704-1.564 1.582-1.564ZM70.45 52.29h3.757c.878 0 1.582.704 1.582 1.563v3.65c0 .86-.704 1.564-1.582 1.564h-3.758a1.573 1.573 0 0 1-1.582-1.563v-3.65c0-.86.704-1.564 1.582-1.564ZM36.953 67.207h3.758c.878 0 1.582.705 1.582 1.564v3.65c0 .86-.704 1.563-1.582 1.563h-3.758a1.573 1.573 0 0 1-1.582-1.563v-3.65c0-.86.704-1.564 1.582-1.564ZM53.7 82.125h3.757c.878 0 1.582.704 1.582 1.563v3.65c0 .86-.704 1.564-1.582 1.564h-3.758a1.573 1.573 0 0 1-1.582-1.563v-3.65c0-.86.704-1.564 1.582-1.564Z"/>
  <path fill="#5656D3" stroke="#040829" d="M36.953 52.29h3.758c.878 0 1.582.704 1.582 1.563v3.65c0 .86-.704 1.564-1.582 1.564h-3.758a1.573 1.573 0 0 1-1.582-1.563v-3.65c0-.86.704-1.564 1.582-1.564ZM53.7 67.207h3.757c.878 0 1.582.705 1.582 1.564v3.65c0 .86-.704 1.563-1.582 1.563h-3.758a1.573 1.573 0 0 1-1.582-1.563v-3.65c0-.86.704-1.564 1.582-1.564ZM36.953 82.125h3.758c.878 0 1.582.704 1.582 1.563v3.65c0 .86-.704 1.564-1.582 1.564h-3.758a1.573 1.573 0 0 1-1.582-1.563v-3.65c0-.86.704-1.564 1.582-1.564Z"/>
  <path fill="#fff" stroke="#040829" d="M70.3 97.265c-2.75 0-4.976-2.221-4.976-4.956 0-2.736 2.226-4.956 4.976-4.956h18.48c2.75 0 4.977 2.22 4.977 4.956 0 2.735-2.226 4.956-4.976 4.956H70.3ZM70.3 77.44c-2.75 0-4.976-2.22-4.976-4.956 0-2.735 2.226-4.956 4.976-4.956h18.48c2.75 0 4.977 2.22 4.977 4.956S91.53 77.44 88.78 77.44H70.3Z"/>
  <path fill="#5656D3" stroke="#040829" d="M70.3 87.353c-2.75 0-4.976-2.221-4.976-4.957 0-2.735 2.226-4.956 4.976-4.956h18.48c2.75 0 4.977 2.221 4.977 4.956 0 2.736-2.226 4.957-4.976 4.957H70.3Z"/>
</svg>
