<svg xmlns="http://www.w3.org/2000/svg" width="121" height="120" fill="none">
  <g clip-path="url(#a)">
    <g fill="#BAD0E6" opacity=".5">
      <path d="M104.052 96.782c-7.078 3.528-16.299 2.121-21.97-3.355-3.831-3.702-5.974-8.81-9.568-12.728-6.731-7.338-18.615-9.286-27.338-4.502-10.33 5.683-16.637 20.614-29.308 21.105-7.078.28-13.897-5.477-14.806-12.49-.91-7.035 4.2-14.33 11.126-15.866 10.194-2.321 12.834-7.128 2.965-17.403-5.048-5.203-8.432-11.016-3.095-18.031 4.875-6.3 15.587-8.637 24.741-3.03 15.157 9.32 2.303 8.418 14.481-8.875 11.48-16.46 24.335-4.87 32.382-3.961 7.533.887 14.957-3.832 22.447-2.598 11.598 1.917 16.141 16.4 7.662 24.59-5.433 5.26-14.113 5.563-20.152 10.065-4.906 3.666-4.157 8.298.585 10 30.141 10.822 21.267 31.335 9.848 37.08ZM24.677 4.443c-6.135.101-8.642 6.948-.992 12.6 8.362 6.175 14.569 1.578 14.496-2.788-.066-3.922-5.921-9.936-13.504-9.812Z"/>
    </g>
    <path fill="#fff" stroke="#040829" d="m34.302 83.129-.295-.215-.294.215-9.33 6.806V13.226l9.337 6.807.294.214.295-.214 9.843-7.172 9.837 7.172.294.214.295-.214 9.836-7.172 9.83 7.172.295.215.295-.215 9.33-6.807v76.71l-9.337-6.807-.294-.215-.295.215-9.843 7.171-9.837-7.171-.295-.215-.294.215-9.837 7.171-9.83-7.171Z"/>
    <path fill="#392B9E" stroke="#040829" d="M82.16 55.01c6.941 0 12.566 5.625 12.566 12.565 0 6.935-5.625 12.56-12.565 12.56-6.935 0-12.56-5.625-12.56-12.56 0-6.94 5.625-12.565 12.56-12.565Z"/>
    <path fill="#fff" d="M79.987 72.105a.787.787 0 0 1-.556-.23l-3.146-3.146a.787.787 0 0 1 1.113-1.112l2.589 2.589 6.936-6.937a.787.787 0 1 1 1.112 1.113l-7.492 7.493a.787.787 0 0 1-.556.23Z"/>
    <path fill="#BAD0E6" stroke="#040829" d="M63.278 33.638a9.006 9.006 0 0 1-9.004 9.005c-4.972 0-9.012-4.034-9.012-9.005 0-4.979 4.04-9.011 9.012-9.011 4.97 0 9.004 4.032 9.004 9.011Z"/>
    <path fill="#000" d="M54.2 38.593a7.456 7.456 0 0 1-1.895-.244c-.617-.163-1.135-.4-1.555-.712l.493-.676c.263.19.551.35.864.48.32.131.655.231 1.01.3.353.066.715.099 1.084.099.819 0 1.479-.16 1.98-.482.5-.325.75-.802.75-1.43 0-.474-.174-.863-.523-1.165-.344-.307-.933-.58-1.767-.816l-1.214-.35c-.789-.223-1.416-.523-1.88-.9-.466-.38-.698-.909-.698-1.583 0-.563.149-1.047.447-1.451.303-.405.718-.714 1.244-.928.53-.219 1.14-.328 1.828-.328.601 0 1.162.084 1.683.251.521.168.958.389 1.312.663l-.493.635a3.886 3.886 0 0 0-1.22-.6c-.46-.14-.939-.21-1.434-.21-.5 0-.943.075-1.327.224a1.98 1.98 0 0 0-.903.642c-.212.283-.318.632-.318 1.046 0 .475.177.849.53 1.123.355.275.936.528 1.745.76l1.32.378c.798.223 1.413.534 1.842.934.43.396.645.935.645 1.62 0 .539-.136 1.013-.41 1.422-.268.41-.667.728-1.198.956-.526.228-1.173.342-1.941.342Zm-.288.907v-12h.759v12h-.758ZM40.986 49.883h-9.594c-.434 0-.787.224-.787.5 0 .277.353.5.787.5h9.594c.435 0 .787-.223.787-.5 0-.276-.352-.5-.787-.5ZM79.76 50.383c0-.277-.352-.5-.787-.5h-31.89c-.434 0-.786.223-.786.5 0 .276.352.5.787.5h31.89c.434 0 .786-.224.786-.5ZM40.986 61.007h-9.594c-.434 0-.787.223-.787.5 0 .276.353.5.787.5h9.594c.435 0 .787-.224.787-.5 0-.277-.352-.5-.787-.5ZM67.02 61.004H47.084c-.435 0-.787.224-.787.5s.352.5.787.5H67.02c.435 0 .787-.224.787-.5s-.352-.5-.787-.5ZM40.986 72.13h-9.594c-.434 0-.787.224-.787.5 0 .277.353.5.787.5h9.594c.435 0 .787-.223.787-.5 0-.276-.352-.5-.787-.5ZM66.855 72.128H47.084c-.435 0-.787.224-.787.5 0 .277.352.5.787.5h19.77c.435 0 .788-.223.788-.5 0-.276-.353-.5-.787-.5Z"/>
  </g>
  <defs>
    <clipPath id="a">
      <path fill="#fff" d="M0 0h120v120H0z" transform="translate(.25)"/>
    </clipPath>
  </defs>
</svg>
