<svg width="242" height="110" viewBox="0 0 242 110" fill="none" xmlns="http://www.w3.org/2000/svg">
<path d="M232.705 90.4279C229.755 90.4279 227.329 89.8402 225.427 88.6649C223.525 87.4896 222.148 85.9959 221.294 84.1839C220.441 82.3474 220.014 80.4253 220.014 78.4174C220.014 76.0422 220.599 73.9609 221.77 72.1734C222.964 70.3859 224.537 69.0146 226.488 68.0597C228.438 67.1047 230.535 66.6272 232.779 66.6272C233.925 66.6272 235.107 66.7374 236.326 66.9578C237.545 67.1782 238.521 67.4475 239.252 67.7658C239.447 67.8883 239.569 67.9985 239.618 68.0964C239.691 68.1944 239.728 68.3658 239.728 68.6106L240.02 73.2753C240.02 73.3487 239.959 73.3854 239.837 73.3854C239.74 73.3854 239.667 73.3487 239.618 73.2753C238.838 71.4143 237.741 69.9941 236.326 69.0146C234.912 68.0352 233.266 67.5455 231.389 67.5455C228.95 67.5455 227.061 68.4147 225.72 70.1533C224.403 71.8673 223.745 74.2425 223.745 77.2788C223.745 79.507 224.147 81.5884 224.952 83.5228C225.756 85.4327 226.854 86.9509 228.243 88.0772C229.633 89.2036 231.157 89.7668 232.815 89.7668C235.595 89.7668 237.96 87.8813 239.911 84.1104C239.959 84.0125 240.033 83.9758 240.13 84.0003C240.252 84.0247 240.313 84.086 240.313 84.1839L240.057 88.3711C240.008 88.6894 239.947 88.8975 239.874 88.9955C239.825 89.0689 239.703 89.1424 239.508 89.2158C237.289 90.0239 235.022 90.4279 232.705 90.4279Z" fill="white"/>
<path d="M217.682 89.5464C217.755 89.5464 217.791 89.6199 217.791 89.7668C217.816 89.9137 217.779 89.9872 217.682 89.9872C216.974 89.9872 216.414 89.9749 215.999 89.9504L213.329 89.9137L210.806 89.9504C210.391 89.9749 209.794 89.9872 209.013 89.9872C208.94 89.9872 208.904 89.9137 208.904 89.7668C208.904 89.6199 208.94 89.5464 209.013 89.5464C209.818 89.5464 210.403 89.4852 210.769 89.3628C211.135 89.2403 211.379 89.0077 211.501 88.6649C211.647 88.2976 211.696 87.7467 211.647 87.0121L211.135 69.5289L203.82 89.7301C203.82 89.828 203.735 89.877 203.564 89.877C203.418 89.877 203.32 89.8158 203.271 89.6933L195.042 70.2267L194.969 85.4694C194.945 86.7917 195.164 87.8079 195.627 88.518C196.115 89.2036 196.834 89.5464 197.785 89.5464C197.834 89.5464 197.858 89.6199 197.858 89.7668C197.883 89.9137 197.858 89.9872 197.785 89.9872C197.176 89.9872 196.7 89.9749 196.359 89.9504L194.311 89.9137L192.518 89.9504C192.153 89.9749 191.641 89.9872 190.982 89.9872C190.934 89.9872 190.909 89.9137 190.909 89.7668C190.909 89.6199 190.934 89.5464 190.982 89.5464C191.909 89.5464 192.628 89.2036 193.14 88.518C193.652 87.8079 193.908 86.8162 193.908 85.5429L194.091 68.6841C193.311 67.876 192.311 67.472 191.092 67.472C191.019 67.472 190.982 67.3985 190.982 67.2516C190.982 67.1047 191.019 67.0312 191.092 67.0312C191.507 67.0312 191.824 67.0435 192.043 67.068L193.469 67.1047L195.554 67.068C195.774 67.0435 196.042 67.0312 196.359 67.0312C196.676 67.0312 196.932 67.1537 197.127 67.3985C197.346 67.6434 197.627 68.1576 197.968 68.9412L204.734 84.845L210.769 67.9495C210.867 67.6801 211.025 67.4598 211.245 67.2884C211.464 67.117 211.72 67.0312 212.013 67.0312C212.354 67.0312 212.634 67.0435 212.854 67.068L214.317 67.1047L215.963 67.068C216.206 67.0435 216.56 67.0312 217.023 67.0312C217.096 67.0312 217.133 67.1047 217.133 67.2516C217.133 67.3985 217.109 67.472 217.06 67.472C216.182 67.472 215.536 67.6067 215.121 67.876C214.707 68.1454 214.5 68.6596 214.5 69.4187C214.5 69.639 214.512 69.8104 214.536 69.9329L215.048 87.0121C215.097 87.7467 215.182 88.2976 215.304 88.6649C215.451 89.0077 215.694 89.2403 216.036 89.3628C216.377 89.4852 216.926 89.5464 217.682 89.5464Z" fill="white"/>
<path d="M175.632 90.1341C174.949 90.1341 174.181 90.0974 173.328 90.0239C173.011 89.9994 172.608 89.9749 172.121 89.9504C171.633 89.9259 171.096 89.9137 170.511 89.9137L167.878 89.9504C167.439 89.9749 166.829 89.9872 166.049 89.9872C166 89.9872 165.976 89.9137 165.976 89.7668C165.976 89.6199 166 89.5464 166.049 89.5464C166.829 89.5464 167.402 89.4852 167.768 89.3628C168.158 89.2403 168.414 89.0077 168.536 88.6649C168.683 88.2976 168.744 87.7467 168.719 87.0121V70.0063C168.695 69.2718 168.609 68.7331 168.463 68.3902C168.317 68.0474 168.061 67.8148 167.695 67.6924C167.329 67.5455 166.781 67.472 166.049 67.472C166 67.472 165.976 67.3985 165.976 67.2516C165.976 67.1047 166 67.0313 166.049 67.0313L167.841 67.068C168.914 67.117 169.78 67.1414 170.438 67.1414C171.243 67.1414 172.047 67.1047 172.852 67.0313C173.876 66.9823 174.62 66.9578 175.083 66.9578C177.595 66.9578 179.826 67.4353 181.776 68.3902C183.727 69.3452 185.239 70.6675 186.311 72.357C187.384 74.0466 187.921 75.9688 187.921 78.1236C187.921 80.4742 187.348 82.5678 186.202 84.4043C185.08 86.2163 183.581 87.6242 181.703 88.6282C179.826 89.6321 177.802 90.1341 175.632 90.1341ZM175.303 89.473C177.058 89.473 178.594 89.0689 179.911 88.2609C181.252 87.4283 182.288 86.2163 183.02 84.6247C183.751 83.0331 184.117 81.1354 184.117 78.9316C184.117 76.9727 183.788 75.1362 183.129 73.4222C182.471 71.7081 181.459 70.3124 180.094 69.235C178.728 68.1576 177.046 67.6189 175.047 67.6189C173.925 67.6189 173.157 67.8026 172.742 68.1699C172.352 68.5127 172.157 69.1493 172.157 70.0798V86.6081C172.182 87.6365 172.401 88.3711 172.815 88.8118C173.254 89.2526 174.083 89.473 175.303 89.473Z" fill="white"/>
<path d="M155.97 67.0312C156.092 67.0312 156.153 67.1047 156.153 67.2516C156.153 67.3985 156.092 67.472 155.97 67.472C155.117 67.472 154.312 67.7903 153.556 68.427C152.8 69.0391 152.044 69.9941 151.289 71.2919L147.302 78.5643V87.0121C147.326 87.7711 147.399 88.3221 147.521 88.6649C147.668 89.0077 147.936 89.2403 148.326 89.3628C148.716 89.4852 149.35 89.5464 150.228 89.5464C150.325 89.5464 150.374 89.6199 150.374 89.7668C150.374 89.9137 150.325 89.9872 150.228 89.9872C149.423 89.9872 148.789 89.9749 148.326 89.9504L145.62 89.9137L142.73 89.9504C142.267 89.9749 141.645 89.9872 140.865 89.9872C140.767 89.9872 140.719 89.9137 140.719 89.7668C140.719 89.6199 140.767 89.5464 140.865 89.5464C141.743 89.5464 142.389 89.4852 142.803 89.3628C143.242 89.2158 143.535 88.971 143.681 88.6282C143.852 88.2854 143.925 87.7467 143.901 87.0121L143.864 78.9683L138.049 70.0798C137.439 69.1493 136.866 68.4882 136.33 68.0964C135.793 67.6801 135.22 67.472 134.611 67.472C134.513 67.472 134.464 67.3985 134.464 67.2516C134.464 67.1047 134.501 67.0312 134.574 67.0312L136.33 67.068C137.11 67.117 137.707 67.1414 138.122 67.1414C138.756 67.1414 139.682 67.117 140.901 67.068L142.73 67.0312C142.803 67.0312 142.84 67.0802 142.84 67.1782C142.84 67.2516 142.815 67.3251 142.767 67.3985C142.742 67.4475 142.706 67.472 142.657 67.472C141.462 67.472 140.865 67.6801 140.865 68.0964C140.865 68.3168 140.987 68.5984 141.231 68.9412L146.79 77.5726L150.447 70.7042C150.74 70.141 150.886 69.6268 150.886 69.1616C150.886 68.6473 150.703 68.2433 150.338 67.9495C149.972 67.6312 149.46 67.472 148.801 67.472C148.704 67.472 148.655 67.3985 148.655 67.2516C148.655 67.1047 148.692 67.0312 148.765 67.0312L150.63 67.068C151.752 67.117 152.642 67.1414 153.3 67.1414C153.715 67.1414 154.19 67.117 154.727 67.068L155.97 67.0312Z" fill="white"/>
<path d="M119.114 89.9872C119.041 89.9872 119.004 89.9137 119.004 89.7668C119.004 89.6199 119.029 89.5464 119.078 89.5464C120.077 89.5464 120.809 89.4852 121.272 89.3627C121.735 89.2403 122.052 89.0077 122.223 88.6649C122.394 88.2976 122.467 87.7467 122.442 87.0121V70.0063C122.467 69.1248 122.345 68.5372 122.077 68.2433C121.808 67.9495 121.272 67.8026 120.467 67.8026H119.846C118.456 67.8026 117.261 68.3168 116.261 69.3452C115.286 70.3736 114.689 71.7204 114.469 73.3854C114.469 73.4344 114.408 73.4589 114.286 73.4589C114.213 73.4589 114.14 73.4467 114.067 73.4222C114.018 73.3732 114.006 73.3365 114.03 73.312C114.152 72.4305 114.335 70.0675 114.579 66.2232C114.579 66.1497 114.64 66.113 114.762 66.113C114.835 66.113 114.896 66.1252 114.945 66.1497C115.018 66.1742 115.054 66.211 115.054 66.2599C115.054 66.7741 115.603 67.0312 116.7 67.0312C118.675 67.1047 121.15 67.1414 124.125 67.1414C125.466 67.1414 126.965 67.1169 128.623 67.068L131.184 67.0312C131.988 67.0312 132.573 66.97 132.939 66.8476C133.305 66.7252 133.537 66.4803 133.634 66.113C133.683 66.0395 133.768 66.0151 133.89 66.0395C134.036 66.0395 134.097 66.0885 134.073 66.1865C134 67.2394 133.927 68.5616 133.854 70.1532C133.78 71.7204 133.756 72.7733 133.78 73.312C133.78 73.3854 133.707 73.4222 133.561 73.4222C133.366 73.4222 133.268 73.3732 133.268 73.2752C133.293 71.6347 132.842 70.3124 131.915 69.3085C131.013 68.3045 129.818 67.8026 128.331 67.8026H127.672C127.112 67.8026 126.709 67.8638 126.466 67.9862C126.222 68.1086 126.063 68.329 125.99 68.6473C125.917 68.9412 125.868 69.4187 125.844 70.0798L125.917 87.0121C125.917 87.7711 125.99 88.3221 126.136 88.6649C126.307 89.0077 126.612 89.2403 127.051 89.3627C127.514 89.4852 128.245 89.5464 129.245 89.5464C129.318 89.5464 129.355 89.6199 129.355 89.7668C129.355 89.9137 129.318 89.9872 129.245 89.9872C128.392 89.9872 127.721 89.9749 127.234 89.9504L124.161 89.9137L121.235 89.9504C120.723 89.9749 120.016 89.9872 119.114 89.9872Z" fill="white"/>
<path d="M100.609 70.7777C100.609 71.6836 100.841 72.4917 101.304 73.2018C101.767 73.9119 102.328 74.5241 102.987 75.0383C103.669 75.528 104.596 76.1524 105.766 76.9115C106.985 77.6706 107.961 78.3317 108.692 78.8949C109.448 79.458 110.082 80.1559 110.594 80.9884C111.106 81.7965 111.362 82.7392 111.362 83.8166C111.362 85.8245 110.655 87.4283 109.241 88.6282C107.827 89.828 105.961 90.4279 103.645 90.4279C102.621 90.4279 101.548 90.2932 100.426 90.0239C99.3048 89.7545 98.4636 89.424 97.9028 89.0322C97.7809 88.9587 97.6956 88.873 97.6468 88.7751C97.6224 88.6771 97.598 88.5302 97.5736 88.3343L97.3176 82.7515C97.2932 82.6535 97.342 82.5923 97.4639 82.5678C97.6102 82.5433 97.7077 82.5801 97.7565 82.678C98.5368 84.6859 99.4633 86.3509 100.536 87.6732C101.609 88.971 102.95 89.6199 104.559 89.6199C105.608 89.6199 106.461 89.3383 107.12 88.7751C107.802 88.1874 108.144 87.2202 108.144 85.8735C108.144 84.7471 107.888 83.7676 107.376 82.9351C106.888 82.1026 106.278 81.3925 105.547 80.8048C104.84 80.2171 103.889 79.556 102.694 78.8214C101.572 78.1113 100.67 77.4991 99.9875 76.9849C99.3292 76.4462 98.7684 75.8096 98.3051 75.075C97.8662 74.3404 97.6468 73.4834 97.6468 72.5039C97.6468 71.2307 98.0003 70.1533 98.7074 69.2717C99.4145 68.3658 100.329 67.7046 101.451 67.2884C102.597 66.8476 103.803 66.6272 105.071 66.6272C105.876 66.6272 106.705 66.7129 107.558 66.8843C108.436 67.0313 109.168 67.2271 109.753 67.472C110.119 67.6679 110.302 67.9005 110.302 68.1699L110.375 73.1651C110.375 73.2385 110.301 73.2997 110.155 73.3487C110.033 73.3732 109.96 73.3365 109.936 73.2385C109.497 71.8428 108.839 70.5206 107.961 69.2717C107.083 67.9985 105.839 67.3618 104.23 67.3618C103.109 67.3618 102.219 67.6924 101.56 68.3535C100.926 68.9902 100.609 69.7982 100.609 70.7777Z" fill="white"/>
<path d="M94.9277 89.5464C95.0008 89.5464 95.0374 89.6199 95.0374 89.7668C95.0374 89.9137 95.0008 89.9871 94.9277 89.9871C94.4888 89.9871 93.8305 89.9627 92.9527 89.9137C91.9286 89.8647 91.124 89.8402 90.5388 89.8402C89.9536 89.8402 89.1977 89.8647 88.2712 89.9137C87.4421 89.9627 86.8082 89.9871 86.3693 89.9871C86.2718 89.9871 86.223 89.9137 86.223 89.7668C86.223 89.6199 86.2718 89.5464 86.3693 89.5464C87.1496 89.5464 87.6982 89.4729 88.0151 89.326C88.3565 89.1546 88.5272 88.8608 88.5272 88.4445C88.5272 88.1017 88.3931 87.5875 88.1249 86.9019L84.8698 78.7112H79.0179L76.3479 85.2123C75.9578 86.1673 75.7628 86.9508 75.7628 87.563C75.7628 88.2731 76.0188 88.7873 76.5308 89.1056C77.0672 89.3995 77.8841 89.5464 78.9813 89.5464C79.0788 89.5464 79.1276 89.6199 79.1276 89.7668C79.1276 89.9137 79.0666 89.9871 78.9447 89.9871C78.6277 89.9871 77.9816 89.9627 77.0063 89.9137C75.8359 89.8647 74.9459 89.8402 74.3363 89.8402C73.7512 89.8402 73.0684 89.8647 72.2882 89.9137C71.6055 89.9627 71.0447 89.9871 70.6058 89.9871C70.5082 89.9871 70.4595 89.9137 70.4595 89.7668C70.4595 89.6199 70.5082 89.5464 70.6058 89.5464C71.3373 89.5464 72.1175 89.1791 72.9465 88.4445C73.7999 87.6854 74.5436 86.5836 75.1776 85.1389L82.9679 66.7007C82.9679 66.6272 83.0654 66.5905 83.2605 66.5905C83.4799 66.5905 83.6262 66.6395 83.6994 66.7374L91.636 86.9019C91.953 87.6854 92.209 88.2486 92.4041 88.5914C92.6235 88.9098 92.9161 89.1546 93.2818 89.326C93.6476 89.4729 94.1962 89.5464 94.9277 89.5464ZM79.3836 77.793H84.504L81.9804 71.402L79.3836 77.793Z" fill="white"/>
<path d="M70.0571 67.0312C70.1302 67.0312 70.1668 67.1047 70.1668 67.2516C70.1668 67.3985 70.1302 67.472 70.0571 67.472C69.0574 67.472 68.2771 67.8026 67.7163 68.4637C67.1555 69.1003 66.8751 70.0063 66.8751 71.1817L66.8385 90.281C66.8385 90.3544 66.7776 90.4034 66.6557 90.4279C66.5337 90.4769 66.4118 90.5014 66.2899 90.5014C66.0948 90.5014 65.9607 90.4524 65.8876 90.3544L50.4167 70.594L50.3801 85.8367C50.3801 87.0366 50.6483 87.9548 51.1847 88.5914C51.7211 89.2281 52.4892 89.5464 53.4889 89.5464C53.5864 89.5464 53.6352 89.6199 53.6352 89.7668C53.6352 89.9137 53.5864 89.9872 53.4889 89.9872C52.8549 89.9872 52.3673 89.9749 52.0259 89.9504L49.868 89.9137L47.8199 89.9504C47.4298 89.9749 46.8811 89.9872 46.174 89.9872C46.0765 89.9872 46.0277 89.9137 46.0277 89.7668C46.0277 89.6199 46.0765 89.5464 46.174 89.5464C47.1737 89.5464 47.954 89.2281 48.5148 88.5914C49.0756 87.9548 49.356 87.0366 49.356 85.8367L49.3926 69.3452C48.783 68.6596 48.21 68.1821 47.6736 67.9128C47.1372 67.6189 46.6007 67.472 46.0643 67.472C45.9912 67.472 45.9546 67.3985 45.9546 67.2516C45.9546 67.1047 45.9912 67.0312 46.0643 67.0312L47.8199 67.068C48.1856 67.0925 48.6733 67.1047 49.2829 67.1047C49.868 67.1047 50.3557 67.0925 50.7458 67.068C51.1603 67.0435 51.4407 67.0312 51.587 67.0312C51.7821 67.0312 51.9284 67.0802 52.0259 67.1782C52.1235 67.2761 52.2576 67.4598 52.4282 67.7291C52.6965 68.1699 52.9769 68.5739 53.2695 68.9412L65.8144 84.992L65.851 71.1817C65.8754 69.9818 65.6194 69.0636 65.083 68.427C64.5465 67.7903 63.7663 67.472 62.7422 67.472C62.6447 67.472 62.5959 67.3985 62.5959 67.2516C62.5959 67.1047 62.6447 67.0312 62.7422 67.0312L64.0954 67.068C64.9732 67.117 65.7291 67.1414 66.3631 67.1414C66.8507 67.1414 67.5334 67.117 68.4112 67.068L70.0571 67.0312Z" fill="white"/>
<path d="M45.033 67.0312C45.155 67.0312 45.2159 67.1047 45.2159 67.2516C45.2159 67.3985 45.155 67.472 45.033 67.472C44.1796 67.472 43.375 67.7903 42.6191 68.427C41.8633 69.0391 41.1074 69.9941 40.3515 71.2919L36.3649 78.5643V87.0121C36.3893 87.7711 36.4625 88.3221 36.5844 88.6649C36.7307 89.0077 36.9989 89.2403 37.389 89.3628C37.7791 89.4852 38.4131 89.5464 39.2909 89.5464C39.3884 89.5464 39.4372 89.6199 39.4372 89.7668C39.4372 89.9137 39.3884 89.9872 39.2909 89.9872C38.4862 89.9872 37.8523 89.9749 37.389 89.9504L34.6825 89.9137L31.7931 89.9504C31.3299 89.9749 30.7081 89.9872 29.9278 89.9872C29.8303 89.9872 29.7816 89.9137 29.7816 89.7668C29.7816 89.6199 29.8303 89.5464 29.9278 89.5464C30.8056 89.5464 31.4518 89.4852 31.8663 89.3628C32.3052 89.2158 32.5978 88.971 32.7441 88.6282C32.9148 88.2854 32.9879 87.7467 32.9635 87.0121L32.9269 78.9683L27.1116 70.0798C26.5021 69.1493 25.9291 68.4882 25.3926 68.0964C24.8562 67.6801 24.2832 67.472 23.6736 67.472C23.5761 67.472 23.5273 67.3985 23.5273 67.2516C23.5273 67.1047 23.5639 67.0312 23.6371 67.0312L25.3926 67.068C26.1729 67.117 26.7703 67.1414 27.1848 67.1414C27.8187 67.1414 28.7453 67.117 29.9644 67.068L31.7931 67.0312C31.8663 67.0312 31.9029 67.0802 31.9029 67.1782C31.9029 67.2516 31.8785 67.3251 31.8297 67.3985C31.8053 67.4475 31.7688 67.472 31.72 67.472C30.5252 67.472 29.9278 67.6801 29.9278 68.0964C29.9278 68.3168 30.0498 68.5984 30.2936 68.9412L35.8529 77.5726L39.5103 70.7042C39.8029 70.141 39.9492 69.6268 39.9492 69.1616C39.9492 68.6473 39.7663 68.2433 39.4006 67.9495C39.0349 67.6312 38.5228 67.472 37.8645 67.472C37.7669 67.472 37.7182 67.3985 37.7182 67.2516C37.7182 67.1047 37.7548 67.0312 37.8279 67.0312L39.6932 67.068C40.8148 67.117 41.7048 67.1414 42.3631 67.1414C42.7776 67.1414 43.2531 67.117 43.7895 67.068L45.033 67.0312Z" fill="white"/>
<path d="M11.1185 90.1341C10.4358 90.1341 9.66773 90.0974 8.81433 90.0239C8.49735 89.9994 8.09503 89.9749 7.60737 89.9504C7.11972 89.9259 6.58329 89.9137 5.9981 89.9137L3.36475 89.9504C2.92586 89.9749 2.31629 89.9872 1.53604 89.9872C1.48727 89.9872 1.46289 89.9137 1.46289 89.7668C1.46289 89.6199 1.48727 89.5464 1.53604 89.5464C2.31629 89.5464 2.88929 89.4852 3.25503 89.3628C3.64516 89.2403 3.90118 89.0077 4.02309 88.6649C4.16939 88.2976 4.23035 87.7467 4.20596 87.0121V70.0063C4.18158 69.2718 4.09624 68.7331 3.94994 68.3902C3.80365 68.0474 3.54763 67.8148 3.18188 67.6924C2.81614 67.5455 2.26753 67.472 1.53604 67.472C1.48727 67.472 1.46289 67.3985 1.46289 67.2516C1.46289 67.1047 1.48727 67.0313 1.53604 67.0313L3.32818 67.068C4.40103 67.117 5.26662 67.1414 5.92496 67.1414C6.72959 67.1414 7.53423 67.1047 8.33886 67.0313C9.36294 66.9823 10.1066 66.9578 10.5699 66.9578C13.0813 66.9578 15.3124 67.4353 17.263 68.3902C19.2136 69.3452 20.7254 70.6675 21.7982 72.357C22.8711 74.0466 23.4075 75.9688 23.4075 78.1236C23.4075 80.4742 22.8345 82.5678 21.6885 84.4043C20.5669 86.2163 19.0673 87.6242 17.1898 88.6282C15.3124 89.6321 13.2886 90.1341 11.1185 90.1341ZM10.7893 89.473C12.5449 89.473 14.081 89.0689 15.3977 88.2609C16.7388 87.4283 17.775 86.2163 18.5065 84.6247C19.238 83.0331 19.6037 81.1354 19.6037 78.9316C19.6037 76.9727 19.2746 75.1362 18.6162 73.4222C17.9579 71.7081 16.946 70.3124 15.5806 69.235C14.2151 68.1576 12.5327 67.6189 10.5333 67.6189C9.41171 67.6189 8.64365 67.8026 8.22914 68.1699C7.83901 68.5127 7.64395 69.1493 7.64395 70.0798V86.6081C7.66833 87.6365 7.88778 88.3711 8.30229 88.8118C8.74118 89.2526 9.5702 89.473 10.7893 89.473Z" fill="white"/>
<path d="M206.033 107.492V101.065H209.553C209.938 101.065 210.282 101.151 210.587 101.322C210.898 101.493 211.144 101.726 211.327 102.02C211.51 102.307 211.602 102.629 211.602 102.984C211.602 103.382 211.504 103.734 211.309 104.04C211.114 104.34 210.849 104.576 210.514 104.747C210.184 104.918 209.813 105.004 209.398 105.004H206.746V107.492H206.033ZM211.09 107.492L208.932 104.664L209.654 104.444L211.977 107.492H211.09ZM206.746 104.306H209.307C209.599 104.306 209.861 104.248 210.093 104.132C210.325 104.015 210.507 103.859 210.642 103.663C210.776 103.468 210.843 103.247 210.843 103.002C210.843 102.77 210.776 102.562 210.642 102.378C210.507 102.188 210.328 102.038 210.102 101.928C209.877 101.818 209.627 101.763 209.352 101.763H206.746V104.306Z" fill="white"/>
<path d="M197.363 107.492V101.065H202.52V101.763H198.076V106.795H202.502V107.492H197.363ZM197.747 104.536V103.838H202.008V104.536H197.747Z" fill="white"/>
<path d="M186.8 107.492V101.065H187.532L193.036 106.675L192.972 106.841C192.948 106.7 192.93 106.51 192.917 106.271C192.911 106.026 192.902 105.763 192.89 105.482C192.884 105.2 192.878 104.921 192.872 104.646C192.872 104.37 192.869 104.126 192.862 103.911C192.862 103.691 192.862 103.529 192.862 103.425V101.065H193.576V107.492H192.817L187.367 102.001L187.385 101.809C187.392 101.888 187.398 102.011 187.404 102.176C187.416 102.335 187.428 102.522 187.44 102.736C187.453 102.944 187.465 103.161 187.477 103.388C187.489 103.614 187.498 103.832 187.504 104.04C187.51 104.248 187.514 104.426 187.514 104.572V107.492H186.8Z" fill="white"/>
<path d="M176.237 107.492V101.065H176.969L182.473 106.675L182.409 106.841C182.385 106.7 182.367 106.51 182.354 106.271C182.348 106.026 182.339 105.763 182.327 105.482C182.321 105.2 182.315 104.921 182.309 104.646C182.309 104.37 182.306 104.126 182.3 103.911C182.3 103.691 182.3 103.529 182.3 103.425V101.065H183.013V107.492H182.254L176.804 102.001L176.822 101.809C176.829 101.888 176.835 102.011 176.841 102.176C176.853 102.335 176.865 102.522 176.877 102.736C176.89 102.944 176.902 103.161 176.914 103.388C176.926 103.614 176.935 103.832 176.941 104.04C176.947 104.248 176.951 104.426 176.951 104.572V107.492H176.237Z" fill="white"/>
<path d="M166.199 107.492L169.317 101.065H170.213L173.304 107.492H172.508L170.232 102.773C170.152 102.589 170.085 102.442 170.03 102.332C169.982 102.222 169.936 102.127 169.893 102.047C169.851 101.968 169.808 101.879 169.765 101.781C169.729 101.683 169.686 101.558 169.637 101.405L169.848 101.395C169.78 101.573 169.723 101.717 169.674 101.827C169.631 101.931 169.588 102.029 169.546 102.121C169.503 102.206 169.454 102.301 169.399 102.405C169.351 102.51 169.287 102.647 169.207 102.819L166.949 107.492H166.199ZM167.488 105.812L167.781 105.114H171.695L171.823 105.812H167.488Z" fill="white"/>
<path d="M158.906 107.492V101.065H159.619V106.795H163.972V107.492H158.906Z" fill="white"/>
<path d="M149.933 107.492V101.065H153.553C153.938 101.065 154.282 101.147 154.587 101.313C154.891 101.478 155.132 101.705 155.309 101.992C155.486 102.28 155.574 102.607 155.574 102.975C155.574 103.373 155.48 103.728 155.291 104.04C155.102 104.352 154.846 104.6 154.523 104.784C154.2 104.961 153.834 105.05 153.425 105.05H150.646V107.492H149.933ZM150.646 104.352H153.38C153.654 104.352 153.898 104.294 154.111 104.178C154.331 104.055 154.501 103.89 154.623 103.682C154.745 103.474 154.806 103.235 154.806 102.966C154.806 102.733 154.745 102.528 154.623 102.35C154.501 102.167 154.334 102.023 154.12 101.919C153.907 101.815 153.66 101.763 153.38 101.763H150.646V104.352Z" fill="white"/>
<path d="M136.986 107.492V101.065H137.699V106.795H142.051V107.492H136.986Z" fill="white"/>
<path d="M128.316 107.492V101.065H133.473V101.763H129.029V106.795H133.455V107.492H128.316ZM128.7 104.536V103.838H132.961V104.536H128.7Z" fill="white"/>
<path d="M121.508 107.492L118.527 101.065H119.323L121.161 105.004C121.234 105.169 121.313 105.344 121.398 105.527C121.484 105.705 121.569 105.889 121.654 106.078C121.74 106.268 121.822 106.458 121.901 106.648C121.981 106.837 122.051 107.027 122.112 107.217H121.846C121.95 106.935 122.057 106.666 122.166 106.409C122.276 106.146 122.383 105.895 122.487 105.656C122.59 105.417 122.688 105.194 122.779 104.986L124.58 101.065H125.394L122.404 107.492H121.508Z" fill="white"/>
<path d="M110.036 107.492L113.154 101.065H114.05L117.141 107.492H116.345L114.068 102.773C113.989 102.589 113.922 102.442 113.867 102.332C113.819 102.222 113.773 102.127 113.73 102.047C113.687 101.968 113.645 101.879 113.602 101.781C113.566 101.683 113.523 101.558 113.474 101.405L113.684 101.395C113.617 101.573 113.559 101.717 113.511 101.827C113.468 101.931 113.425 102.029 113.383 102.121C113.34 102.206 113.291 102.301 113.236 102.405C113.188 102.51 113.124 102.647 113.044 102.819L110.786 107.492H110.036ZM111.325 105.812L111.618 105.114H115.531L115.659 105.812H111.325Z" fill="white"/>
<path d="M101.601 107.492V101.065H105.121C105.505 101.065 105.849 101.151 106.154 101.322C106.465 101.493 106.712 101.726 106.895 102.02C107.078 102.307 107.169 102.629 107.169 102.984C107.169 103.382 107.071 103.734 106.876 104.04C106.681 104.34 106.416 104.576 106.081 104.747C105.752 104.918 105.38 105.004 104.965 105.004H102.314V107.492H101.601ZM106.657 107.492L104.499 104.664L105.221 104.444L107.544 107.492H106.657ZM102.314 104.306H104.874C105.167 104.306 105.429 104.248 105.66 104.132C105.892 104.015 106.075 103.859 106.209 103.663C106.343 103.468 106.41 103.247 106.41 103.002C106.41 102.77 106.343 102.562 106.209 102.378C106.075 102.188 105.895 102.038 105.669 101.928C105.444 101.818 105.194 101.763 104.92 101.763H102.314V104.306Z" fill="white"/>
<path d="M95.4063 107.492V101.763H92.9375V101.065H98.6614V101.763H96.1195V107.492H95.4063Z" fill="white"/>
<path d="M84.687 107.492L84.0013 106.767L83.7087 106.482L81.7885 104.738C81.5935 104.56 81.3923 104.386 81.185 104.214C80.9839 104.037 80.798 103.862 80.6273 103.691C80.4566 103.513 80.3164 103.336 80.2067 103.158C80.1031 102.975 80.0512 102.782 80.0512 102.58C80.0512 102.317 80.1366 102.063 80.3073 101.818C80.484 101.573 80.7401 101.371 81.0753 101.212C81.4106 101.046 81.8099 100.964 82.2731 100.964C82.6937 100.964 83.0686 101.019 83.3978 101.129C83.727 101.233 84.0135 101.383 84.2573 101.579C84.5072 101.769 84.7114 101.992 84.8699 102.249L84.3762 102.745C84.114 102.335 83.7971 102.05 83.4252 101.891C83.0534 101.732 82.6815 101.652 82.3097 101.652C82.0293 101.652 81.7824 101.689 81.5691 101.763C81.3618 101.83 81.2003 101.931 81.0845 102.066C80.9686 102.194 80.9107 102.347 80.9107 102.525C80.9107 102.647 80.9473 102.773 81.0205 102.901C81.0936 103.03 81.182 103.149 81.2856 103.259C81.3953 103.37 81.5051 103.468 81.6148 103.553C81.7245 103.639 81.8099 103.709 81.8708 103.764L84.3944 106.06L84.5956 106.308L85.6928 107.492H84.687ZM81.88 107.621C81.2216 107.621 80.6761 107.529 80.2433 107.346C79.8166 107.162 79.4996 106.917 79.2923 106.611C79.0851 106.305 78.9814 105.968 78.9814 105.601C78.9814 105.191 79.1277 104.805 79.4203 104.444C79.719 104.083 80.1701 103.786 80.7736 103.553L81.2673 104.04C80.7431 104.193 80.3713 104.398 80.1518 104.655C79.9385 104.912 79.8318 105.188 79.8318 105.482C79.8318 105.72 79.9049 105.947 80.0512 106.161C80.1975 106.369 80.4231 106.541 80.7279 106.675C81.0387 106.804 81.435 106.868 81.9165 106.868C82.1908 106.868 82.4773 106.828 82.776 106.749C83.0808 106.669 83.3612 106.541 83.6172 106.363C83.8794 106.179 84.0958 105.931 84.2664 105.619C84.4432 105.307 84.5407 104.918 84.559 104.453H85.3545C85.3362 104.918 85.2509 105.325 85.0985 105.674C84.9461 106.017 84.751 106.314 84.5133 106.565C84.2756 106.816 84.0104 107.021 83.7178 107.18C83.4252 107.333 83.1204 107.443 82.8035 107.511C82.4865 107.584 82.1786 107.621 81.88 107.621Z" fill="white"/>
<path d="M68.4595 107.492V101.763H65.9907V101.065H71.7146V101.763H69.1727V107.492H68.4595Z" fill="white"/>
<path d="M56.269 107.492V101.065H57.0005L62.505 106.675L62.441 106.841C62.4166 106.7 62.3983 106.51 62.3861 106.271C62.38 106.026 62.3709 105.763 62.3587 105.482C62.3526 105.2 62.3465 104.921 62.3404 104.646C62.3404 104.37 62.3373 104.126 62.3312 103.911C62.3312 103.691 62.3312 103.529 62.3312 103.425V101.065H63.0444V107.492H62.2855L56.8359 102.001L56.8542 101.809C56.8603 101.888 56.8664 102.011 56.8725 102.176C56.8847 102.335 56.8969 102.522 56.9091 102.736C56.9213 102.944 56.9335 103.161 56.9457 103.388C56.9579 103.614 56.967 103.832 56.9731 104.04C56.9792 104.248 56.9822 104.426 56.9822 104.572V107.492H56.269Z" fill="white"/>
<path d="M47.5991 107.492V101.065H52.7561V101.763H48.3123V106.795H52.7378V107.492H47.5991ZM47.9832 104.536V103.838H52.2441V104.536H47.9832Z" fill="white"/>
<path d="M40.7914 107.492L37.8105 101.065H38.606L40.4439 105.004C40.517 105.169 40.5963 105.344 40.6816 105.527C40.767 105.705 40.8523 105.889 40.9376 106.078C41.023 106.268 41.1053 106.458 41.1845 106.648C41.2638 106.837 41.3339 107.027 41.3948 107.217H41.1297C41.2333 106.935 41.34 106.666 41.4497 106.409C41.5594 106.146 41.6661 105.895 41.7697 105.656C41.8733 105.417 41.9709 105.194 42.0623 104.986L43.8636 101.065H44.6774L41.6874 107.492H40.7914Z" fill="white"/>
<path d="M30 107.492V101.065H35.157V101.763H30.7132V106.795H35.1387V107.492H30ZM30.384 104.536V103.838H34.6449V104.536H30.384Z" fill="white"/>
<path d="M102.103 51.7339H108.583V5.83695C108.065 0.933303 104.047 -0.0932733 102.103 0.00639426V51.7339Z" fill="white"/>
<path fill-rule="evenodd" clip-rule="evenodd" d="M113.78 0.00631717H113.5C115.146 0.355199 118.436 2.0697 118.436 6.13664V46.0086C118.406 48.6999 117.129 50.8231 113.5 51.7402C116.94 51.5741 124.866 49.5261 124.866 39.6291V10.4555C124.866 1.65086 117.116 0.0721784 113.78 0.00631717Z" fill="white"/>
<path fill-rule="evenodd" clip-rule="evenodd" d="M144.378 0.00140384H144.657C143.012 0.350286 139.722 2.06479 139.722 6.13172V46.0037C139.752 48.695 141.028 50.8182 144.657 51.7353C141.218 51.5691 133.292 49.5212 133.292 39.6242V10.4506C133.292 1.64595 141.041 0.0672651 144.378 0.00140384Z" fill="white"/>
</svg>
