<svg width="40" height="40" viewBox="0 0 40 40" fill="none" xmlns="http://www.w3.org/2000/svg">
<path d="M40 20C40 22.6264 39.4827 25.2272 38.4776 27.6537C37.4725 30.0802 35.9993 32.285 34.1421 34.1421C32.285 35.9993 30.0802 37.4725 27.6537 38.4776C25.2272 39.4827 22.6264 40 20 40C17.3736 40 14.7728 39.4827 12.3463 38.4776C9.91982 37.4725 7.71504 35.9993 5.85787 34.1421C4.00069 32.285 2.5275 30.0802 1.52241 27.6537C0.517316 25.2272 2.97801e-07 22.6264 0 20C0 17.3736 0.517315 14.7728 1.52241 12.3463C2.5275 9.91982 4.00069 7.71503 5.85786 5.85786C7.71504 4.00069 9.91982 2.5275 12.3463 1.52241C14.7728 0.517314 17.3736 -5.95601e-07 20 0C22.6264 -6.61779e-07 25.2272 0.517314 27.6537 1.52241C30.0802 2.5275 32.285 4.00069 34.1421 5.85786C35.9993 7.71503 37.4725 9.91982 38.4776 12.3463C39.4827 14.7728 40 17.3736 40 20Z" fill="url(#paint0_linear)"/>
<path d="M22.2348 10.8838C19.7601 10.8838 18.0653 12.3938 18.0653 15.1679V17.5586H15.2656V20.801H18.0653V29.1166H21.4118V20.801H24.2036L24.6229 17.5586H21.4118V15.4882C21.4118 14.5497 21.6729 13.91 23.0187 13.91H24.7349V11.0114C24.4381 10.9719 23.4202 10.8838 22.2348 10.8838V10.8838Z" fill="white"/>
<defs>
<linearGradient id="paint0_linear" x1="36.16" y1="32.32" x2="8.00001" y2="4.16001" gradientUnits="userSpaceOnUse">
<stop stop-color="#003C96"/>
<stop offset="1" stop-color="#0087CB"/>
</linearGradient>
</defs>
</svg>
