<svg width="40" height="40" viewBox="0 0 40 40" fill="none" xmlns="http://www.w3.org/2000/svg">
<g clip-path="url(#clip0)">
<path d="M39.25 20C39.25 22.6264 38.7489 25.2272 37.7752 27.6537C36.8015 30.0802 35.3743 32.285 33.5752 34.1421C31.7761 35.9993 29.6402 37.4725 27.2895 38.4776C24.9388 39.4827 22.4194 40 19.875 40C17.3306 40 14.8112 39.4827 12.4605 38.4776C10.1098 37.4725 7.97394 35.9993 6.17481 34.1421C4.37567 32.285 2.94852 30.0802 1.97483 27.6537C1.00115 25.2272 0.5 22.6264 0.5 20C0.5 17.3736 1.00115 14.7728 1.97483 12.3463C2.94852 9.91982 4.37567 7.71503 6.17481 5.85786C7.97394 4.00069 10.1098 2.5275 12.4605 1.52241C14.8112 0.517314 17.3306 -5.95601e-07 19.875 0C22.4194 -5.29423e-07 24.9388 0.517314 27.2895 1.52241C29.6402 2.5275 31.7761 4.00069 33.5752 5.85786C35.3743 7.71503 36.8015 9.91982 37.7752 12.3463C38.7488 14.7728 39.25 17.3736 39.25 20Z" fill="url(#paint0_linear)"/>
<path d="M15.8658 10.1968C12.8266 10.1968 10.355 12.7495 10.355 15.8868V24.1142C10.355 27.2515 12.8266 29.8028 15.8658 29.8028H23.8838C26.9231 29.8028 29.3947 27.2515 29.3947 24.1142V15.8868C29.3947 12.7495 26.9231 10.1968 23.8838 10.1968H15.8658ZM15.8658 11.8823H23.8838C26.0469 11.8823 27.7633 13.654 27.7633 15.8868V24.1142C27.7633 26.3471 26.0469 28.1174 23.8838 28.1174H15.8658C13.7027 28.1174 11.9878 26.3471 11.9878 24.1142V15.8868C11.9878 13.654 13.7027 11.8823 15.8658 11.8823ZM24.9847 13.5677C24.3539 13.5677 23.8429 14.0952 23.8429 14.7463C23.8429 15.3974 24.3539 15.9248 24.9847 15.9248C25.6154 15.9248 26.1264 15.3974 26.1264 14.7463C26.1264 14.0952 25.6154 13.5677 24.9847 13.5677ZM19.8749 14.9518C17.1836 14.9518 14.9846 17.2217 14.9846 19.9998C14.9846 22.7779 17.1836 25.0478 19.8749 25.0478C22.5661 25.0478 24.7664 22.7779 24.7664 19.9998C24.7664 17.2217 22.5661 14.9518 19.8749 14.9518ZM19.8749 16.6373C21.6838 16.6373 23.1336 18.1325 23.1336 19.9998C23.1336 21.8672 21.6838 23.3623 19.8749 23.3623C18.0658 23.3623 16.6174 21.8672 16.6174 19.9998C16.6174 18.1325 18.0658 16.6373 19.8749 16.6373Z" fill="white"/>
</g>
<defs>
<linearGradient id="paint0_linear" x1="36.6828" y1="35.15" x2="2.25017" y2="1.79338" gradientUnits="userSpaceOnUse">
<stop stop-color="#FF0066"/>
<stop offset="1" stop-color="#FFCC00"/>
</linearGradient>
<clipPath id="clip0">
<rect width="38.75" height="40" fill="white" transform="translate(0.5)"/>
</clipPath>
</defs>
</svg>
