<svg width="40" height="40" viewBox="0 0 40 40" fill="none" xmlns="http://www.w3.org/2000/svg">
<g clip-path="url(#clip0)">
<path d="M40 20C40 22.6264 39.4827 25.2272 38.4776 27.6537C37.4725 30.0802 35.9993 32.285 34.1421 34.1421C32.285 35.9993 30.0802 37.4725 27.6537 38.4776C25.2272 39.4827 22.6264 40 20 40C17.3736 40 14.7728 39.4827 12.3463 38.4776C9.91982 37.4725 7.71504 35.9993 5.85787 34.1421C4.00069 32.285 2.5275 30.0802 1.52241 27.6537C0.517316 25.2272 2.97801e-07 22.6264 0 20C0 17.3736 0.517315 14.7728 1.52241 12.3463C2.5275 9.91982 4.00069 7.71503 5.85786 5.85786C7.71504 4.00069 9.91982 2.5275 12.3463 1.52241C14.7728 0.517314 17.3736 -6.2869e-07 20 0C22.6264 -4.96334e-07 25.2272 0.517314 27.6537 1.52241C30.0802 2.5275 32.285 4.00069 34.1421 5.85786C35.9993 7.71503 37.4725 9.91982 38.4776 12.3463C39.4827 14.7728 40 17.3736 40 20Z" fill="url(#paint0_linear)"/>
<path d="M13.3063 12.0962C12.6651 12.0962 12.1445 12.6019 12.1445 13.2272V26.7727C12.1445 27.3983 12.6651 27.9037 13.3063 27.9037H26.6934C27.3346 27.9037 27.8552 27.3983 27.8552 26.7727V13.2272C27.8552 12.6019 27.3346 12.0962 26.6934 12.0962H13.3063ZM15.7356 14.7498C16.5473 14.7498 17.0448 15.2815 17.0602 15.9821C17.0602 16.6672 16.5455 17.2143 15.718 17.2143H15.7043C14.908 17.2143 14.3929 16.6672 14.3929 15.9821C14.3929 15.2815 14.9234 14.7498 15.7351 14.7498H15.7356ZM22.7327 18.024C24.294 18.024 25.4612 19.0437 25.4612 21.2366V25.3293H23.0892V21.5094C23.0892 20.5497 22.7465 19.8943 21.8878 19.8943C21.2323 19.8943 20.8403 20.3394 20.6688 20.7657C20.6062 20.9182 20.594 21.1288 20.594 21.3422V25.3293H18.2176C18.2176 25.3293 18.2487 18.8611 18.2176 18.1912H20.594V19.199C20.9094 18.7126 21.4745 18.024 22.7327 18.024H22.7327ZM20.594 19.199C20.5879 19.2075 20.5819 19.2171 20.5764 19.2254H20.594V19.199ZM14.5341 18.1912H16.9062V25.3293H14.5341V18.1912Z" fill="white"/>
</g>
<defs>
<linearGradient id="paint0_linear" x1="36.16" y1="32.32" x2="8.00002" y2="4.16001" gradientUnits="userSpaceOnUse">
<stop stop-color="#104596"/>
<stop offset="1" stop-color="#4484E5"/>
</linearGradient>
<clipPath id="clip0">
<rect width="40" height="40" fill="white"/>
</clipPath>
</defs>
</svg>
