<svg width="41" height="40" viewBox="0 0 41 40" fill="none" xmlns="http://www.w3.org/2000/svg">
<g clip-path="url(#clip0)">
<path d="M40.75 20C40.75 22.6264 40.2327 25.2272 39.2276 27.6537C38.2225 30.0802 36.7493 32.285 34.8921 34.1421C33.035 35.9993 30.8302 37.4725 28.4037 38.4776C25.9772 39.4827 23.3764 40 20.75 40C18.1236 40 15.5228 39.4827 13.0963 38.4776C10.6698 37.4725 8.46504 35.9993 6.60787 34.1421C4.75069 32.285 3.2775 30.0802 2.27241 27.6537C1.26732 25.2272 0.75 22.6264 0.75 20C0.75 17.3736 1.26732 14.7728 2.27241 12.3463C3.2775 9.91982 4.75069 7.71503 6.60786 5.85786C8.46504 4.00069 10.6698 2.5275 13.0963 1.52241C15.5228 0.517314 18.1236 -6.2869e-07 20.75 0C23.3764 -5.62512e-07 25.9772 0.517314 28.4037 1.52241C30.8302 2.5275 33.035 4.00069 34.8921 5.85786C36.7493 7.71503 38.2225 9.91982 39.2276 12.3463C40.2327 14.7728 40.75 17.3736 40.75 20Z" fill="url(#paint0_linear)"/>
<path d="M29.5869 14.5187C28.937 14.8072 28.238 15.0021 27.5047 15.0899C28.2532 14.641 28.8279 13.9305 29.0986 13.084C28.3981 13.4997 27.6224 13.8012 26.7961 13.9637C26.135 13.2592 25.1927 12.8188 24.1498 12.8188C22.1472 12.8188 20.5241 14.4421 20.5241 16.4445C20.5241 16.7288 20.556 17.0056 20.618 17.2708C17.6045 17.1198 14.9329 15.6759 13.1446 13.4825C12.8325 14.0178 12.6537 14.6405 12.6537 15.3051C12.6537 16.5632 13.2935 17.6728 14.2667 18.3232C13.6724 18.3046 13.1132 18.1415 12.6243 17.8697C12.6236 17.885 12.6236 17.9 12.6236 17.9153C12.6236 19.6723 13.8736 21.1374 15.5321 21.4707C15.2282 21.5536 14.9079 21.5974 14.5772 21.5974C14.3433 21.5974 14.1166 21.5753 13.8948 21.5328C14.3565 22.9732 15.6953 24.0217 17.2822 24.051C16.0403 25.0236 14.4771 25.603 12.7783 25.603C12.4858 25.603 12.197 25.5858 11.9131 25.5525C13.5183 26.5812 15.4239 27.1812 17.4718 27.1812C24.1408 27.1812 27.7872 21.6566 27.7872 16.8648C27.7872 16.7077 27.7842 16.5517 27.7767 16.3962C28.4848 15.8846 29.0994 15.2461 29.5858 14.5189" fill="white"/>
</g>
<defs>
<linearGradient id="paint0_linear" x1="6.35002" y1="7.2" x2="34.4834" y2="35.3333" gradientUnits="userSpaceOnUse">
<stop stop-color="#00CCFF"/>
<stop offset="1" stop-color="#004ED1"/>
</linearGradient>
<clipPath id="clip0">
<rect width="40" height="40" fill="white" transform="translate(0.75)"/>
</clipPath>
</defs>
</svg>
