<svg width="176" height="53" viewBox="0 0 176 53" fill="none" xmlns="http://www.w3.org/2000/svg">
<rect width="176" height="53" rx="26.5" fill="#21232B"/>
<path d="M41.7468 25.1069C41.7108 21.1147 45.0156 19.1725 45.1667 19.0821C43.2951 16.3534 40.3942 15.9805 39.3748 15.9508C36.9383 15.6944 34.575 17.4087 33.3339 17.4087C32.068 17.4087 30.1567 15.9756 28.0969 16.0177C25.4462 16.0586 22.9664 17.5933 21.6063 19.9764C18.7996 24.8356 20.8929 31.9765 23.582 35.9042C24.9272 37.8278 26.499 39.9756 28.5564 39.9001C30.5692 39.8171 31.3211 38.6168 33.7501 38.6168C36.1567 38.6168 36.8628 39.9001 38.961 39.8518C41.1212 39.8171 42.4813 37.9195 43.7794 35.9785C45.3339 33.7737 45.9582 31.6024 45.9829 31.4909C45.9322 31.4736 41.7876 29.8918 41.7468 25.1069Z" fill="white"/>
<path d="M37.7831 13.367C38.8657 12.0131 39.6064 10.1712 39.4008 8.30212C37.8339 8.37149 35.8744 9.38594 34.7459 10.7101C33.7476 11.8769 32.8558 13.7893 33.0862 15.5879C34.8463 15.7191 36.6535 14.6997 37.7831 13.367Z" fill="white"/>
<path d="M70.8757 39.6237H68.0628L66.5219 34.7818H61.166L59.6982 39.6237H56.9595L62.2659 23.1397H65.5434L70.8757 39.6237ZM66.0574 32.7504L64.6639 28.4461C64.5165 28.0064 64.2403 26.9709 63.8328 25.3408H63.7832C63.621 26.0419 63.3596 27.0774 63.0004 28.4461L61.6317 32.7504H66.0574Z" fill="white"/>
<path d="M84.5216 33.5345C84.5216 35.556 83.9754 37.1538 82.8829 38.3268C81.9043 39.371 80.6892 39.8925 79.2388 39.8925C77.6731 39.8925 76.5484 39.3301 75.8635 38.2054H75.8139V44.4668H73.1731V31.6505C73.1731 30.3796 73.1397 29.0753 73.0753 27.7376H75.3977L75.5451 29.6216H75.5947C76.4753 28.2021 77.8118 27.4936 79.6054 27.4936C81.0076 27.4936 82.1781 28.0473 83.1145 29.1559C84.0534 30.2657 84.5216 31.7248 84.5216 33.5345ZM81.8313 33.6311C81.8313 32.4742 81.5711 31.5204 81.0484 30.7698C80.4774 29.987 79.7107 29.5956 78.7495 29.5956C78.098 29.5956 77.5059 29.8136 76.977 30.2434C76.4469 30.6769 76.1 31.243 75.9378 31.9441C75.856 32.2711 75.8151 32.5386 75.8151 32.7492V34.731C75.8151 35.5956 76.0802 36.3252 76.6104 36.9209C77.1405 37.5167 77.8292 37.814 78.6764 37.814C79.6711 37.814 80.4452 37.43 80.9989 36.6645C81.5538 35.8978 81.8313 34.8871 81.8313 33.6311Z" fill="white"/>
<path d="M98.1928 33.5345C98.1928 35.556 97.6466 37.1538 96.5529 38.3268C95.5756 39.371 94.3605 39.8925 92.91 39.8925C91.3444 39.8925 90.2197 39.3301 89.5359 38.2054H89.4864V44.4668H86.8456V31.6505C86.8456 30.3796 86.8122 29.0753 86.7477 27.7376H89.0702L89.2176 29.6216H89.2671C90.1466 28.2021 91.4831 27.4936 93.2779 27.4936C94.6788 27.4936 95.8493 28.0473 96.7882 29.1559C97.7234 30.2657 98.1928 31.7248 98.1928 33.5345ZM95.5025 33.6311C95.5025 32.4742 95.2411 31.5204 94.7184 30.7698C94.1474 29.987 93.3832 29.5956 92.4207 29.5956C91.768 29.5956 91.1771 29.8136 90.647 30.2434C90.1169 30.6769 89.7713 31.243 89.609 31.9441C89.5285 32.2711 89.4864 32.5386 89.4864 32.7492V34.731C89.4864 35.5956 89.7515 36.3252 90.2791 36.9209C90.8093 37.5155 91.498 37.814 92.3477 37.814C93.3423 37.814 94.1165 37.43 94.6701 36.6645C95.225 35.8978 95.5025 34.8871 95.5025 33.6311Z" fill="white"/>
<path d="M113.478 35.0011C113.478 36.4032 112.991 37.544 112.014 38.4247C110.94 39.3871 109.445 39.8677 107.524 39.8677C105.75 39.8677 104.328 39.5259 103.252 38.8409L103.863 36.6398C105.023 37.3409 106.295 37.6927 107.681 37.6927C108.676 37.6927 109.45 37.4672 110.006 37.0188C110.56 36.5704 110.836 35.9685 110.836 35.2178C110.836 34.549 110.608 33.9854 110.151 33.5283C109.696 33.0713 108.937 32.6464 107.877 32.2538C104.991 31.1774 103.549 29.6006 103.549 27.5271C103.549 26.172 104.054 25.0609 105.066 24.1964C106.074 23.3305 107.42 22.8983 109.102 22.8983C110.602 22.8983 111.848 23.1596 112.842 23.6811L112.182 25.8339C111.253 25.3285 110.203 25.0758 109.027 25.0758C108.098 25.0758 107.373 25.3049 106.852 25.7608C106.413 26.1683 106.192 26.665 106.192 27.2533C106.192 27.9049 106.444 28.4437 106.949 28.8673C107.389 29.2587 108.188 29.6823 109.347 30.1394C110.765 30.7104 111.807 31.378 112.477 32.1435C113.145 32.9065 113.478 33.8615 113.478 35.0011Z" fill="white"/>
<path d="M122.209 29.7195H119.298V35.4903C119.298 36.9581 119.811 37.6914 120.839 37.6914C121.311 37.6914 121.702 37.6505 122.012 37.5688L122.085 39.5742C121.565 39.7686 120.88 39.8665 120.031 39.8665C118.988 39.8665 118.173 39.5481 117.585 38.9127C116.999 38.2761 116.704 37.2083 116.704 35.7083V29.717H114.97V27.7352H116.704V25.5589L119.298 24.776V27.7352H122.209V29.7195Z" fill="white"/>
<path d="M135.342 33.5829C135.342 35.4099 134.82 36.9099 133.777 38.0829C132.683 39.2906 131.231 39.8926 129.422 39.8926C127.678 39.8926 126.289 39.3141 125.254 38.1572C124.218 37.0003 123.7 35.54 123.7 33.7799C123.7 31.938 124.233 30.4293 125.302 29.2563C126.368 28.0821 127.808 27.495 129.617 27.495C131.361 27.495 132.765 28.0734 133.824 29.2315C134.837 30.355 135.342 31.8055 135.342 33.5829ZM132.602 33.6684C132.602 32.5722 132.368 31.6321 131.894 30.848C131.34 29.8992 130.549 29.426 129.523 29.426C128.462 29.426 127.655 29.9004 127.102 30.848C126.627 31.6333 126.393 32.5883 126.393 33.7179C126.393 34.8141 126.627 35.7543 127.102 36.5371C127.673 37.4859 128.47 37.9591 129.5 37.9591C130.508 37.9591 131.299 37.476 131.87 36.5123C132.357 35.7134 132.602 34.7634 132.602 33.6684Z" fill="white"/>
<path d="M143.926 30.0601C143.665 30.0118 143.386 29.987 143.094 29.987C142.165 29.987 141.446 30.3375 140.941 31.0398C140.501 31.6592 140.281 32.442 140.281 33.3871V39.6237H137.641L137.666 31.4808C137.666 30.1109 137.632 28.8635 137.567 27.7388H139.867L139.964 30.013H140.037C140.315 29.2314 140.755 28.6022 141.357 28.1303C141.945 27.7054 142.581 27.4936 143.266 27.4936C143.51 27.4936 143.73 27.5109 143.926 27.5419V30.0601Z" fill="white"/>
<path d="M155.737 33.1184C155.737 33.5915 155.706 33.9904 155.64 34.3161H147.718C147.748 35.4904 148.131 36.3884 148.867 37.0077C149.535 37.5614 150.398 37.8389 151.458 37.8389C152.631 37.8389 153.701 37.6518 154.664 37.2765L155.078 39.1097C153.953 39.6002 152.625 39.8442 151.093 39.8442C149.25 39.8442 147.803 39.3017 146.75 38.2179C145.7 37.1341 145.173 35.6787 145.173 33.8529C145.173 32.0606 145.663 30.568 146.642 29.3777C147.668 28.1068 149.054 27.4714 150.798 27.4714C152.511 27.4714 153.808 28.1068 154.689 29.3777C155.386 30.3872 155.737 31.6357 155.737 33.1184ZM153.218 32.4334C153.236 31.6506 153.064 30.9743 152.706 30.4033C152.249 29.6687 151.546 29.3021 150.601 29.3021C149.738 29.3021 149.035 29.6601 148.499 30.3785C148.059 30.9495 147.798 31.6345 147.718 32.4322H153.218V32.4334Z" fill="white"/>
<path d="M65.1845 12.9991C65.1845 14.457 64.7473 15.5545 63.874 16.2915C63.0652 16.9715 61.9157 17.3121 60.4269 17.3121C59.6886 17.3121 59.0569 17.2799 58.528 17.2155V9.24975C59.2179 9.13828 59.9611 9.0813 60.7638 9.0813C62.182 9.0813 63.251 9.38972 63.9719 10.0066C64.7795 10.7039 65.1845 11.701 65.1845 12.9991ZM63.8158 13.0351C63.8158 12.09 63.5656 11.3654 63.0652 10.86C62.5648 10.3559 61.834 10.1032 60.8715 10.1032C60.4628 10.1032 60.1147 10.1304 59.8261 10.1874V16.2432C59.9859 16.2679 60.2782 16.2791 60.7031 16.2791C61.6965 16.2791 62.4632 16.0029 63.0033 15.4504C63.5433 14.898 63.8158 14.0929 63.8158 13.0351Z" fill="white"/>
<path d="M72.4418 14.2724C72.4418 15.1705 72.1854 15.9062 71.6726 16.4834C71.135 17.0767 70.4228 17.3728 69.5335 17.3728C68.6763 17.3728 67.9938 17.0891 67.4847 16.5194C66.9769 15.9508 66.723 15.2336 66.723 14.3691C66.723 13.4648 66.9843 12.7229 67.5095 12.1469C68.0347 11.571 68.7407 11.2823 69.6301 11.2823C70.4872 11.2823 71.1759 11.566 71.6974 12.1345C72.1928 12.687 72.4418 13.4004 72.4418 14.2724ZM71.0954 14.3146C71.0954 13.7757 70.979 13.3137 70.7473 12.9285C70.4748 12.4628 70.0871 12.2299 69.583 12.2299C69.0615 12.2299 68.6652 12.4628 68.3927 12.9285C68.1598 13.3137 68.0446 13.7832 68.0446 14.3381C68.0446 14.8769 68.161 15.3389 68.3927 15.7241C68.6738 16.1899 69.0652 16.4227 69.5706 16.4227C70.0661 16.4227 70.455 16.1862 70.7349 15.7118C70.9752 15.3191 71.0954 14.8534 71.0954 14.3146Z" fill="white"/>
<path d="M82.1727 11.4012L80.3457 17.2402H79.1566L78.3998 14.7047C78.2078 14.0717 78.0518 13.4425 77.9304 12.8182H77.9068C77.7941 13.4598 77.638 14.0878 77.4374 14.7047L76.6335 17.2402H75.4308L73.7128 11.4012H75.0468L75.707 14.177C75.8668 14.8335 75.9981 15.459 76.1034 16.0511H76.1269C76.2235 15.563 76.3833 14.9412 76.6087 14.1894L77.4374 11.4024H78.4952L79.2892 14.1299C79.4812 14.7951 79.6372 15.4355 79.7574 16.0523H79.7933C79.8812 15.4516 80.0138 14.8112 80.1897 14.1299L80.8982 11.4024H82.1727V11.4012Z" fill="white"/>
<path d="M88.9021 17.2402H87.604V13.8958C87.604 12.8653 87.2126 12.35 86.4273 12.35C86.042 12.35 85.7311 12.4912 85.4896 12.7749C85.2506 13.0585 85.1292 13.3929 85.1292 13.7757V17.2389H83.8311V13.0697C83.8311 12.5568 83.815 12.0007 83.784 11.3987H84.9248L84.9855 12.3116H85.0214C85.1725 12.0279 85.398 11.7938 85.694 11.6068C86.0458 11.3888 86.4397 11.2786 86.8707 11.2786C87.4157 11.2786 87.8691 11.4545 88.2295 11.8075C88.6779 12.2398 88.9021 12.8851 88.9021 13.7422V17.2402Z" fill="white"/>
<path d="M92.4817 17.2402H91.1848V8.72205H92.4817V17.2402Z" fill="white"/>
<path d="M100.124 14.2724C100.124 15.1705 99.868 15.9062 99.3552 16.4834C98.8176 17.0767 98.1041 17.3728 97.216 17.3728C96.3576 17.3728 95.6751 17.0891 95.1673 16.5194C94.6594 15.9508 94.4055 15.2336 94.4055 14.3691C94.4055 13.4648 94.6669 12.7229 95.1921 12.1469C95.7172 11.571 96.4233 11.2823 97.3114 11.2823C98.1698 11.2823 98.8572 11.566 99.3799 12.1345C99.8754 12.687 100.124 13.4004 100.124 14.2724ZM98.7767 14.3146C98.7767 13.7757 98.6603 13.3137 98.4286 12.9285C98.1574 12.4628 97.7684 12.2299 97.2656 12.2299C96.7428 12.2299 96.3465 12.4628 96.0752 12.9285C95.8423 13.3137 95.7272 13.7832 95.7272 14.3381C95.7272 14.8769 95.8436 15.3389 96.0752 15.7241C96.3564 16.1899 96.7478 16.4227 97.2532 16.4227C97.7486 16.4227 98.1363 16.1862 98.4163 15.7118C98.6578 15.3191 98.7767 14.8534 98.7767 14.3146Z" fill="white"/>
<path d="M106.407 17.2402H105.241L105.144 16.5677H105.109C104.71 17.104 104.141 17.3728 103.403 17.3728C102.852 17.3728 102.406 17.1957 102.07 16.8439C101.765 16.5243 101.613 16.1267 101.613 15.6548C101.613 14.9413 101.91 14.3975 102.509 14.021C103.106 13.6444 103.945 13.4599 105.027 13.4686V13.3596C105.027 12.5904 104.623 12.2064 103.814 12.2064C103.238 12.2064 102.73 12.3513 102.292 12.6387L102.028 11.7865C102.571 11.4508 103.241 11.2823 104.031 11.2823C105.557 11.2823 106.322 12.0875 106.322 13.6977V15.848C106.322 16.4314 106.351 16.8959 106.407 17.2402ZM105.059 15.2336V14.3331C103.627 14.3084 102.911 14.701 102.911 15.5099C102.911 15.8146 102.993 16.0425 103.16 16.1948C103.327 16.3472 103.54 16.4227 103.794 16.4227C104.079 16.4227 104.345 16.3323 104.588 16.1527C104.832 15.9719 104.982 15.7427 105.038 15.4615C105.052 15.3984 105.059 15.3216 105.059 15.2336Z" fill="white"/>
<path d="M113.783 17.2402H112.631L112.57 16.3026H112.534C112.166 17.016 111.539 17.3728 110.659 17.3728C109.955 17.3728 109.369 17.0965 108.905 16.5441C108.44 15.9917 108.209 15.2745 108.209 14.3938C108.209 13.4487 108.46 12.6832 108.965 12.0986C109.455 11.5536 110.054 11.2811 110.768 11.2811C111.552 11.2811 112.1 11.5449 112.413 12.0738H112.437V8.72205H113.737V15.6671C113.737 16.2357 113.752 16.7596 113.783 17.2402ZM112.437 14.7778V13.8042C112.437 13.6358 112.425 13.4995 112.401 13.3955C112.328 13.0833 112.171 12.8207 111.932 12.6089C111.69 12.3971 111.399 12.2906 111.064 12.2906C110.579 12.2906 110.2 12.4826 109.922 12.8678C109.645 13.253 109.505 13.7448 109.505 14.3455C109.505 14.9227 109.638 15.3909 109.904 15.7514C110.185 16.1354 110.565 16.3273 111.039 16.3273C111.465 16.3273 111.806 16.1676 112.065 15.8468C112.315 15.5507 112.437 15.194 112.437 14.7778Z" fill="white"/>
<path d="M124.885 14.2724C124.885 15.1705 124.628 15.9062 124.116 16.4834C123.578 17.0767 122.867 17.3728 121.977 17.3728C121.121 17.3728 120.438 17.0891 119.928 16.5194C119.42 15.9508 119.166 15.2336 119.166 14.3691C119.166 13.4648 119.427 12.7229 119.953 12.1469C120.478 11.571 121.184 11.2823 122.074 11.2823C122.93 11.2823 123.62 11.566 124.14 12.1345C124.636 12.687 124.885 13.4004 124.885 14.2724ZM123.54 14.3146C123.54 13.7757 123.423 13.3137 123.192 12.9285C122.918 12.4628 122.531 12.2299 122.026 12.2299C121.506 12.2299 121.109 12.4628 120.836 12.9285C120.603 13.3137 120.488 13.7832 120.488 14.3381C120.488 14.8769 120.604 15.3389 120.836 15.7241C121.117 16.1899 121.508 16.4227 122.014 16.4227C122.509 16.4227 122.899 16.1862 123.179 15.7118C123.418 15.3191 123.54 14.8534 123.54 14.3146Z" fill="white"/>
<path d="M131.864 17.2402H130.568V13.8958C130.568 12.8653 130.176 12.35 129.39 12.35C129.004 12.35 128.693 12.4912 128.453 12.7749C128.213 13.0585 128.093 13.3929 128.093 13.7757V17.2389H126.793V13.0697C126.793 12.5568 126.779 12.0007 126.748 11.3987H127.887L127.948 12.3116H127.984C128.136 12.0279 128.362 11.7938 128.656 11.6068C129.009 11.3888 129.402 11.2786 129.834 11.2786C130.378 11.2786 130.831 11.4545 131.192 11.8075C131.641 12.2398 131.864 12.8851 131.864 13.7422V17.2402Z" fill="white"/>
<path d="M140.601 12.3736H139.171V15.2101C139.171 15.931 139.425 16.2914 139.928 16.2914C140.161 16.2914 140.354 16.2716 140.506 16.2307L140.54 17.2154C140.283 17.3121 139.947 17.3604 139.532 17.3604C139.019 17.3604 138.62 17.2043 138.331 16.8922C138.041 16.58 137.898 16.0548 137.898 15.3178V12.3736H137.044V11.4012H137.898V10.331L139.17 9.94705V11.4H140.599V12.3736H140.601Z" fill="white"/>
<path d="M147.473 17.2402H146.174V13.9207C146.174 12.874 145.782 12.35 144.998 12.35C144.396 12.35 143.985 12.6535 143.759 13.2605C143.721 13.388 143.699 13.5441 143.699 13.7274V17.239H142.402V8.72205H143.699V12.241H143.724C144.132 11.6007 144.718 11.2811 145.477 11.2811C146.015 11.2811 146.46 11.457 146.813 11.81C147.252 12.2497 147.473 12.9037 147.473 13.7683V17.2402Z" fill="white"/>
<path d="M154.562 14.0445C154.562 14.2773 154.544 14.4731 154.513 14.6328H150.62C150.638 15.21 150.824 15.6498 151.184 15.9545C151.513 16.227 151.938 16.3632 152.459 16.3632C153.035 16.3632 153.56 16.2716 154.033 16.087L154.236 16.9887C153.682 17.229 153.031 17.3492 152.276 17.3492C151.372 17.3492 150.66 17.0829 150.145 16.5503C149.627 16.0176 149.371 15.3029 149.371 14.4062C149.371 13.5255 149.61 12.7922 150.091 12.2076C150.594 11.5833 151.274 11.2711 152.133 11.2711C152.973 11.2711 153.611 11.5833 154.042 12.2076C154.39 12.703 154.562 13.3162 154.562 14.0445ZM153.323 13.7088C153.333 13.3236 153.248 12.9916 153.072 12.7117C152.846 12.3513 152.503 12.1704 152.039 12.1704C151.615 12.1704 151.269 12.3463 151.006 12.6993C150.79 12.9805 150.663 13.3162 150.62 13.7088H153.323Z" fill="white"/>
</svg>
