<svg width="177" height="53" viewBox="0 0 177 53" fill="none" xmlns="http://www.w3.org/2000/svg">
<rect width="176" height="53" rx="26.5" fill="#21232B"/>
<path d="M86.5821 29.275C85.4904 29.2801 84.4248 29.6085 83.5196 30.2188C82.6145 30.829 81.9104 31.6936 81.4962 32.7036C81.082 33.7136 80.9763 34.8237 81.1924 35.8937C81.4085 36.9638 81.9368 37.9458 82.7105 38.7159C83.4842 39.486 84.4687 40.0096 85.5397 40.2207C86.6107 40.4318 87.7203 40.3208 88.7283 39.9019C89.7364 39.483 90.5978 38.7748 91.2037 37.8668C91.8097 36.9588 92.133 35.8916 92.1331 34.8C92.1437 34.0693 92.0071 33.344 91.7316 32.6672C91.456 31.9903 91.0471 31.3759 90.5292 30.8604C90.0112 30.3449 89.3949 29.9388 88.7168 29.6665C88.0387 29.3941 87.3127 29.261 86.5821 29.275ZM86.5821 38.154C85.9107 38.201 85.2408 38.0449 84.6593 37.706C84.0779 37.3672 83.6118 36.8612 83.3217 36.254C83.0316 35.6467 82.9309 34.9662 83.0326 34.301C83.1344 33.6358 83.4339 33.0165 83.8923 32.5238C84.3507 32.031 84.9467 31.6875 85.6029 31.538C86.259 31.3885 86.945 31.4398 87.5716 31.6853C88.1982 31.9308 88.7365 32.3592 89.1164 32.9146C89.4964 33.4701 89.7004 34.127 89.7021 34.8C89.723 35.2264 89.6583 35.6527 89.5119 36.0538C89.3655 36.4548 89.1402 36.8224 88.8494 37.135C88.5587 37.4476 88.2082 37.6988 87.8188 37.8738C87.4294 38.0489 87.0089 38.1441 86.5821 38.154ZM74.4791 29.275C73.3869 29.2776 72.32 29.6038 71.4131 30.2125C70.5062 30.8211 69.8001 31.6849 69.3839 32.6947C68.9677 33.7045 68.8602 34.8149 69.0748 35.8858C69.2895 36.9567 69.8167 37.94 70.5899 38.7113C71.3631 39.4827 72.3476 40.0076 73.419 40.2198C74.4903 40.4319 75.6006 40.3217 76.6094 39.9032C77.6182 39.4846 78.4803 38.7765 79.0868 37.8682C79.6933 36.9599 80.017 35.8922 80.0171 34.8C80.0277 34.0693 79.8911 33.344 79.6156 32.6672C79.34 31.9903 78.9311 31.3759 78.4132 30.8604C77.8953 30.3449 77.2789 29.9388 76.6008 29.6665C75.9227 29.3941 75.1967 29.261 74.4661 29.275H74.4791ZM74.4791 38.154C73.8074 38.2036 73.1363 38.0498 72.5533 37.7127C71.9702 37.3756 71.5022 36.8708 71.21 36.2639C70.9179 35.6571 70.8152 34.9763 70.9154 34.3103C71.0155 33.6443 71.3139 33.0239 71.7716 32.5298C72.2293 32.0357 72.8251 31.6909 73.4815 31.5402C74.1379 31.3895 74.8245 31.4399 75.4519 31.6848C76.0793 31.9298 76.6184 32.3579 76.999 32.9135C77.3797 33.4692 77.5842 34.1265 77.5861 34.8C77.607 35.2264 77.5423 35.6527 77.3959 36.0538C77.2495 36.4548 77.0242 36.8224 76.7334 37.135C76.4427 37.4476 76.0922 37.6988 75.7028 37.8738C75.3134 38.0489 74.8929 38.1441 74.4661 38.154H74.4791ZM60.0621 30.978V33.318H65.6781C65.59 34.4202 65.1319 35.4601 64.3781 36.269C63.8162 36.8413 63.1408 37.2897 62.3952 37.5852C61.6496 37.8807 60.8504 38.0169 60.0491 37.985C58.3941 37.985 56.8069 37.3276 55.6367 36.1574C54.4665 34.9871 53.8091 33.4 53.8091 31.745C53.8091 30.0901 54.4665 28.5029 55.6367 27.3327C56.8069 26.1624 58.3941 25.505 60.0491 25.505C61.6322 25.4792 63.1609 26.0823 64.3001 27.182L65.9511 25.531C65.1821 24.7523 64.2646 24.136 63.2531 23.7184C62.2415 23.3008 61.1564 23.0905 60.0621 23.1C58.9064 23.055 57.7535 23.2438 56.6725 23.6551C55.5915 24.0663 54.6046 24.6916 53.771 25.4933C52.9375 26.2951 52.2743 27.2569 51.8213 28.3211C51.3684 29.3852 51.1349 30.5299 51.1349 31.6865C51.1349 32.8431 51.3684 33.9878 51.8213 35.052C52.2743 36.1161 52.9375 37.0779 53.771 37.8797C54.6046 38.6815 55.5915 39.3067 56.6725 39.7179C57.7535 40.1292 58.9064 40.318 60.0621 40.273C61.1748 40.3233 62.2854 40.1347 63.3191 39.7198C64.3529 39.305 65.2858 38.6736 66.0551 37.868C67.417 36.3716 68.1442 34.4045 68.0831 32.382C68.0873 31.8893 68.0437 31.3973 67.9531 30.913L60.0621 30.978ZM118.965 32.798C118.626 31.8006 117.992 30.9296 117.147 30.3005C116.302 29.6714 115.286 29.3138 114.233 29.275C113.522 29.2736 112.818 29.4181 112.165 29.6995C111.512 29.9809 110.924 30.3933 110.436 30.9111C109.949 31.4289 109.573 32.0412 109.332 32.7101C109.09 33.379 108.989 34.0903 109.033 34.8C109.017 35.5266 109.148 36.2489 109.418 36.9238C109.687 37.5987 110.09 38.2123 110.602 38.7281C111.114 39.2438 111.725 39.651 112.398 39.9254C113.071 40.1997 113.792 40.3357 114.519 40.325C115.428 40.3299 116.325 40.1092 117.128 39.6827C117.931 39.2562 118.616 38.6371 119.121 37.881L117.236 36.581C116.955 37.05 116.556 37.438 116.08 37.7069C115.604 37.9758 115.066 38.1164 114.519 38.115C113.956 38.1365 113.399 37.988 112.922 37.6889C112.444 37.3898 112.068 36.954 111.841 36.438L119.238 33.383L118.965 32.798ZM111.425 34.644C111.399 34.2419 111.453 33.8386 111.584 33.4577C111.716 33.0768 111.922 32.7259 112.191 32.4257C112.459 32.1254 112.785 31.8818 113.15 31.7092C113.514 31.5365 113.909 31.4382 114.311 31.42C114.73 31.3924 115.149 31.4885 115.514 31.6965C115.879 31.9045 116.175 32.2152 116.365 32.59L111.425 34.644ZM105.419 40H107.85V23.75H105.419V40ZM101.441 30.51H101.35C100.984 30.1004 100.535 29.7728 100.033 29.5488C99.5312 29.3247 98.9876 29.2093 98.4381 29.21C97.0174 29.2789 95.6777 29.8918 94.6966 30.9216C93.7155 31.9514 93.1683 33.3192 93.1683 34.7415C93.1683 36.1638 93.7155 37.5316 94.6966 38.5615C95.6777 39.5913 97.0174 40.2041 98.4381 40.273C98.989 40.2823 99.5352 40.1707 100.038 39.9461C100.541 39.7215 100.989 39.3893 101.35 38.973H101.428V39.766C101.428 41.885 100.297 43.016 98.4771 43.016C97.8709 43.0018 97.2827 42.8076 96.7872 42.458C96.2918 42.1084 95.9116 41.6193 95.6951 41.053L93.5761 41.937C93.9749 42.9073 94.6546 43.7363 95.5278 44.3176C96.401 44.899 97.428 45.2063 98.4771 45.2C101.324 45.2 103.677 43.523 103.677 39.441V29.6H101.441V30.51ZM98.6591 38.154C97.8205 38.0801 97.04 37.6948 96.4715 37.0739C95.903 36.4531 95.5876 35.6418 95.5876 34.8C95.5876 33.9582 95.903 33.1469 96.4715 32.5261C97.04 31.9053 97.8205 31.5199 98.6591 31.446C99.0748 31.4673 99.4821 31.5717 99.857 31.7529C100.232 31.934 100.567 32.1884 100.842 32.501C101.117 32.8135 101.326 33.1779 101.458 33.5728C101.59 33.9676 101.642 34.3849 101.61 34.8C101.646 35.2169 101.596 35.6367 101.465 36.0339C101.333 36.4311 101.123 36.7976 100.846 37.1111C100.569 37.4247 100.231 37.6787 99.8527 37.858C99.4746 38.0372 99.0642 38.1379 98.6461 38.154H98.6591ZM130.353 23.75H124.542V40H126.973V33.838H130.366C131.059 33.8878 131.755 33.7943 132.41 33.5634C133.065 33.3324 133.665 32.969 134.174 32.4957C134.682 32.0225 135.088 31.4496 135.365 30.8127C135.642 30.1758 135.785 29.4886 135.785 28.794C135.785 28.0994 135.642 27.4122 135.365 26.7753C135.088 26.1384 134.682 25.5655 134.174 25.0923C133.665 24.619 133.065 24.2556 132.41 24.0247C131.755 23.7937 131.059 23.7002 130.366 23.75H130.353ZM130.353 31.55H126.96V26.012H130.405C131.145 26.012 131.854 26.3058 132.377 26.8287C132.9 27.3517 133.194 28.061 133.194 28.8005C133.194 29.5401 132.9 30.2493 132.377 30.7723C131.854 31.2952 131.145 31.589 130.405 31.589L130.353 31.55ZM145.342 29.21C144.457 29.1571 143.576 29.3639 142.807 29.805C142.038 30.2462 141.414 30.9024 141.013 31.693L143.171 32.59C143.384 32.1979 143.706 31.876 144.098 31.6637C144.491 31.4513 144.936 31.3576 145.381 31.394C145.69 31.358 146.002 31.3837 146.301 31.4698C146.599 31.5559 146.878 31.7006 147.12 31.8954C147.362 32.0903 147.563 32.3313 147.711 32.6046C147.858 32.8779 147.95 33.1778 147.981 33.487V33.656C147.2 33.2426 146.33 33.0283 145.446 33.032C143.119 33.032 140.766 34.332 140.766 36.685C140.789 37.1867 140.912 37.6787 141.129 38.132C141.345 38.5852 141.65 38.9904 142.026 39.3237C142.402 39.657 142.84 39.9116 143.316 40.0724C143.792 40.2332 144.295 40.297 144.796 40.26C145.408 40.304 146.021 40.1823 146.57 39.9078C147.119 39.6334 147.584 39.2161 147.916 38.7H147.994V40H150.334V33.747C150.334 30.9 148.176 29.249 145.407 29.249L145.342 29.21ZM145.043 38.115C144.25 38.115 143.145 37.712 143.145 36.737C143.145 35.437 144.523 35.008 145.745 35.008C146.517 34.989 147.281 35.1775 147.955 35.554C147.874 36.2578 147.541 36.9086 147.018 37.3863C146.495 37.8641 145.816 38.1367 145.108 38.154L145.043 38.115ZM158.862 29.6L156.08 36.646H156.002L153.116 29.6H150.516L154.845 39.454L152.375 44.927H154.91L161.566 29.6H158.862ZM137.009 40H139.44V23.75H137.009V40Z" fill="white"/>
<path d="M59.5649 14.3932C59.587 14.8701 59.5119 15.3464 59.3443 15.7934C59.1767 16.2403 58.9201 16.6485 58.5899 16.9932C58.2212 17.3762 57.776 17.6772 57.2832 17.8765C56.7904 18.0759 56.2611 18.1692 55.7299 18.1502C54.9239 18.1439 54.1376 17.8999 53.4697 17.4487C52.8018 16.9975 52.2818 16.3592 51.9751 15.6138C51.6683 14.8684 51.5884 14.0491 51.7452 13.2585C51.9021 12.4678 52.2888 11.7411 52.8569 11.1692C53.2302 10.7881 53.6779 10.4875 54.172 10.2863C54.6662 10.0851 55.1964 9.98735 55.7299 9.99924C56.2795 9.99741 56.8236 10.108 57.3289 10.3242C57.7993 10.514 58.2181 10.8125 58.5509 11.1952L57.8619 11.8842C57.6024 11.5756 57.2747 11.3316 56.9047 11.1714C56.5347 11.0112 56.1325 10.9392 55.7299 10.9612C55.3238 10.9592 54.9215 11.0393 54.5471 11.1965C54.1728 11.3538 53.834 11.585 53.5511 11.8764C53.2683 12.1677 53.0472 12.5132 52.9011 12.8921C52.755 13.2709 52.6869 13.6754 52.7009 14.0812C52.6924 14.6872 52.8635 15.2821 53.1927 15.791C53.5219 16.2998 53.9945 16.6997 54.5507 16.9403C55.1069 17.1809 55.722 17.2513 56.3182 17.1427C56.9144 17.0342 57.4651 16.7514 57.9009 16.3302C58.3009 15.8967 58.5316 15.3338 58.5509 14.7442H55.7299V13.8082H59.5129C59.5476 14.0013 59.565 14.1971 59.5649 14.3932ZM65.5189 11.1432H62.0089V13.6132H65.2069V14.5492H62.0089V17.0192H65.5189V17.9812H60.9689V10.1812H65.5189V11.1432ZM69.7829 17.9812H68.7819V11.1432H66.5979V10.1812H72.0189V11.1432H69.7829V17.9812ZM75.8409 17.9812V10.1812H76.8419V17.9812H75.8409ZM81.2879 17.9812H80.2869V11.1432H78.1029V10.1812H83.4589V11.1432H81.2879V17.9812ZM93.6119 16.9672C92.8519 17.723 91.8237 18.1472 90.7519 18.1472C89.6801 18.1472 88.6519 17.723 87.8919 16.9672C87.1532 16.1853 86.7416 15.1504 86.7416 14.0747C86.7416 12.9991 87.1532 11.9642 87.8919 11.1822C88.2665 10.8049 88.712 10.5054 89.2029 10.3011C89.6937 10.0967 90.2202 9.99148 90.7519 9.99148C91.2836 9.99148 91.81 10.0967 92.3009 10.3011C92.7917 10.5054 93.2373 10.8049 93.6119 11.1822C94.3535 11.9627 94.767 12.9981 94.767 14.0747C94.767 15.1513 94.3535 16.1868 93.6119 16.9672ZM88.6329 16.3172C89.1957 16.8777 89.9576 17.1924 90.7519 17.1924C91.5462 17.1924 92.3081 16.8777 92.8709 16.3172C93.4263 15.705 93.7339 14.9079 93.7339 14.0812C93.7339 13.2546 93.4263 12.4575 92.8709 11.8452C92.3081 11.2848 91.5462 10.9701 90.7519 10.9701C89.9576 10.9701 89.1957 11.2848 88.6329 11.8452C88.0775 12.4575 87.7698 13.2546 87.7698 14.0812C87.7698 14.9079 88.0775 15.705 88.6329 16.3172ZM96.1729 17.9812V10.1812H97.3949L101.191 16.2522V10.1812H102.192V17.9812H101.152L97.1869 11.6242V17.9812H96.1729Z" fill="white"/>
<path fill-rule="evenodd" clip-rule="evenodd" d="M90.7519 10.1215C90.2373 10.1215 89.7279 10.2233 89.2529 10.4211C88.7783 10.6186 88.3475 10.9081 87.9853 11.2727C87.2701 12.0303 86.8716 13.0328 86.8716 14.0747C86.8716 15.1165 87.27 16.1189 87.985 16.8765C88.7205 17.6071 89.7151 18.0172 90.7519 18.0172C91.7887 18.0172 92.7834 17.6071 93.5189 16.8763C94.2368 16.1202 94.637 15.1174 94.637 14.0747C94.637 13.032 94.2367 12.029 93.5187 11.2729C93.1563 10.9082 92.7255 10.6187 92.2509 10.4211C91.7759 10.2233 91.2664 10.1215 90.7519 10.1215ZM89.1529 10.181C89.6596 9.97009 90.203 9.86148 90.7519 9.86148C91.3007 9.86148 91.8441 9.97009 92.3508 10.181C92.8575 10.392 93.3175 10.7011 93.7041 11.0907L93.7061 11.0927C94.4707 11.8973 94.897 12.9648 94.897 14.0747C94.897 15.1847 94.4707 16.2522 93.7061 17.0568L93.7036 17.0595C92.9192 17.8394 91.858 18.2772 90.7519 18.2772C89.6457 18.2772 88.5846 17.8394 87.8002 17.0594L87.7973 17.0566C87.0358 16.2505 86.6116 15.1836 86.6116 14.0747C86.6116 12.9659 87.0359 11.899 87.7974 11.093L87.7996 11.0906C88.1863 10.7011 88.6462 10.392 89.1529 10.181ZM55.727 10.1292C55.2113 10.1177 54.6988 10.2122 54.2211 10.4067C53.7434 10.6012 53.3107 10.8917 52.9497 11.2602L52.9491 11.2609C52.399 11.8145 52.0246 12.5182 51.8727 13.2838C51.7209 14.0493 51.7983 14.8426 52.0953 15.5644C52.3923 16.2861 52.8957 16.9041 53.5425 17.341C54.1892 17.7778 54.9505 18.0141 55.7309 18.0202L55.7345 18.0203C56.2475 18.0385 56.7586 17.9485 57.2344 17.756C57.7102 17.5635 58.1401 17.273 58.4961 16.9032C58.814 16.5712 59.0612 16.1781 59.2226 15.7477C59.384 15.3173 59.4563 14.8585 59.435 14.3993L59.5649 14.3932L59.4349 14.3932C59.4349 14.2409 59.424 14.0889 59.4023 13.9382H55.8599V14.6142H58.6852L58.6808 14.7485C58.6605 15.3692 58.4176 15.962 57.9964 16.4184L57.9914 16.4239C57.5372 16.8629 56.963 17.1575 56.3415 17.2706C55.72 17.3838 55.0789 17.3104 54.4991 17.0596C53.9193 16.8088 53.4267 16.392 53.0836 15.8616C52.741 15.3321 52.5626 14.7131 52.5708 14.0826C52.5567 13.6603 52.6277 13.2395 52.7798 12.8453C52.9322 12.4501 53.1628 12.0897 53.4579 11.7858C53.7529 11.4819 54.1063 11.2407 54.4968 11.0767C54.8861 10.9131 55.3044 10.8297 55.7267 10.8312C56.1481 10.8088 56.569 10.8844 56.9564 11.0521C57.3015 11.2015 57.6116 11.4204 57.8676 11.6947L58.3715 11.1907C58.0664 10.8664 57.6941 10.6117 57.2803 10.4448L57.2777 10.4438C56.7888 10.2345 56.2622 10.1275 55.7303 10.1292L55.727 10.1292ZM59.6949 14.3903C59.7173 14.8837 59.6395 15.3765 59.4661 15.839C59.2923 16.3024 59.0261 16.7257 58.6838 17.0832C58.3024 17.4793 57.8417 17.7908 57.3319 17.9971C56.8228 18.203 56.276 18.2995 55.7271 18.2802C54.8961 18.2734 54.0856 18.0216 53.3969 17.5564C52.7078 17.0909 52.1714 16.4324 51.8549 15.6633C51.5384 14.8942 51.4559 14.0489 51.6177 13.2332C51.7795 12.4176 52.1784 11.6679 52.7643 11.0779C53.1501 10.6842 53.6125 10.3738 54.123 10.1659C54.6331 9.95815 55.1804 9.85719 55.7311 9.86923C56.2974 9.86757 56.8581 9.98155 57.3788 10.2042C57.8677 10.4016 58.303 10.712 58.649 11.1099L58.7285 11.2014L57.8536 12.0764L57.7624 11.9679C57.5159 11.6747 57.2046 11.4428 56.8531 11.2907C56.5015 11.1385 56.1194 11.0701 55.737 11.091L55.7292 11.0915C55.3407 11.0896 54.9557 11.1659 54.5975 11.3164C54.2392 11.4669 53.9151 11.6881 53.6444 11.9669C53.3737 12.2457 53.1622 12.5763 53.0224 12.9388C52.8826 13.3014 52.8174 13.6884 52.8308 14.0768L52.831 14.0831C52.8229 14.6634 52.9866 15.2331 53.3019 15.7203C53.6171 16.2076 54.0696 16.5906 54.6023 16.821C55.135 17.0513 55.7239 17.1188 56.2949 17.0148C56.8646 16.9111 57.391 16.6413 57.8078 16.2394C58.1547 15.8622 58.3666 15.3821 58.4127 14.8742H55.5999V13.6782H59.6216L59.6408 13.7853C59.6767 13.9849 59.6948 14.1874 59.6949 14.3903ZM60.8389 10.0512H65.6489V11.2732H62.1389V13.4832H65.3369V14.6792H62.1389V16.8892H65.6489V18.1112H60.8389V10.0512ZM61.0989 10.3112V17.8512H65.3889V17.1492H61.8789V14.4192H65.0769V13.7432H61.8789V11.0132H65.3889V10.3112H61.0989ZM66.4679 10.0512H72.1489V11.2732H69.9129V18.1112H68.6519V11.2732H66.4679V10.0512ZM66.7279 10.3112V11.0132H68.9119V17.8512H69.6529V11.0132H71.8889V10.3112H66.7279ZM75.7109 10.0512H76.9719V18.1112H75.7109V10.0512ZM75.9709 10.3112V17.8512H76.7119V10.3112H75.9709ZM77.9729 10.0512H83.5889V11.2732H81.4179V18.1112H80.1569V11.2732H77.9729V10.0512ZM78.2329 10.3112V11.0132H80.4169V17.8512H81.1579V11.0132H83.3289V10.3112H78.2329ZM96.0429 10.0512H97.4669L101.061 15.7991V10.0512H102.322V18.1112H101.08L97.3169 12.0783V18.1112H96.0429V10.0512ZM96.3029 10.3112V17.8512H97.0569V11.1702L101.224 17.8512H102.062V10.3112H101.321V16.7054L97.3228 10.3112H96.3029ZM88.5411 11.7531C89.1283 11.1684 89.9232 10.8401 90.7519 10.8401C91.5805 10.8401 92.3754 11.1684 92.9626 11.7531L92.9673 11.7578C93.5444 12.394 93.8639 13.2223 93.8639 14.0812C93.8639 14.9402 93.5443 15.7684 92.9672 16.4046L92.9627 16.4095C92.3756 16.9942 91.5805 17.3224 90.7519 17.3224C89.9232 17.3224 89.1283 16.9941 88.5411 16.4094L88.6329 16.3172L88.5366 16.4046C87.9595 15.7684 87.6398 14.9402 87.6398 14.0812C87.6398 13.2223 87.9595 12.3941 88.5366 11.7579L88.5411 11.7531ZM88.727 16.2275C89.2652 16.7622 89.9931 17.0624 90.7519 17.0624C91.5107 17.0624 92.2386 16.7622 92.7768 16.2275C93.3091 15.6394 93.6039 14.8745 93.6039 14.0812C93.6039 13.288 93.3091 12.5231 92.7768 11.935C92.2386 11.4003 91.5107 11.1001 90.7519 11.1001C89.9931 11.1001 89.2652 11.4003 88.727 11.935C88.1946 12.5231 87.8998 13.288 87.8998 14.0812C87.8998 14.8745 88.1946 15.6394 88.727 16.2275Z" fill="white"/>
<path fill-rule="evenodd" clip-rule="evenodd" d="M20.3454 13.5337C20.0573 13.8454 19.8909 14.3217 19.8909 14.9452V37.0574C19.8909 37.6808 20.0573 38.1571 20.3553 38.4564L20.4323 38.5237L32.7705 26.1347V25.8579L20.4223 13.4664L20.3454 13.5337Z" fill="url(#paint0_linear)"/>
<path fill-rule="evenodd" clip-rule="evenodd" d="M36.8757 30.2769L32.7604 26.1447V25.8554L36.8757 21.7233L36.9651 21.7781L41.8328 24.5562C43.2261 25.3442 43.2261 26.646 41.8328 27.444L36.9651 30.222L36.8757 30.2769Z" fill="url(#paint1_linear)"/>
<path fill-rule="evenodd" clip-rule="evenodd" d="M36.9651 30.222L32.7605 26.0001L20.3453 38.4664C20.7998 38.9552 21.5622 39.01 22.4141 38.5337L36.9651 30.222Z" fill="url(#paint2_linear)"/>
<path fill-rule="evenodd" clip-rule="evenodd" d="M36.9651 21.7781L22.4141 13.4789C21.5622 12.9901 20.7973 13.0574 20.3453 13.5462L32.7605 26.0001L36.9651 21.7781Z" fill="url(#paint3_linear)"/>
<path opacity="0.2" fill-rule="evenodd" clip-rule="evenodd" d="M36.8757 30.1323L22.424 38.3767C21.6168 38.843 20.8966 38.8106 20.4322 38.3866L20.3552 38.4639L20.4322 38.5313C20.8966 38.9527 21.6168 38.9876 22.424 38.5213L36.9751 30.2221L36.8757 30.1323Z" fill="black"/>
<path opacity="0.25" fill-rule="evenodd" clip-rule="evenodd" d="M22.4141 13.6235L41.8329 24.7008C42.4637 25.0575 42.8189 25.5238 42.8735 26.0001C42.8735 25.4789 42.5308 24.9552 41.8329 24.5562L22.4141 13.4789C21.0209 12.6784 19.8909 13.3467 19.8909 14.9452V15.0899C19.8909 13.4889 21.0209 12.833 22.4141 13.6235Z" fill="white"/>
<defs>
<linearGradient id="paint0_linear" x1="31.6638" y1="14.7066" x2="11.8894" y2="19.9539" gradientUnits="userSpaceOnUse">
<stop stop-color="#00A0FF"/>
<stop offset="0.00657" stop-color="#00A1FF"/>
<stop offset="0.2601" stop-color="#00BEFF"/>
<stop offset="0.5122" stop-color="#00D2FF"/>
<stop offset="0.7604" stop-color="#00DFFF"/>
<stop offset="1" stop-color="#00E3FF"/>
</linearGradient>
<linearGradient id="paint1_linear" x1="43.6498" y1="26.0001" x2="19.5521" y2="26.0001" gradientUnits="userSpaceOnUse">
<stop stop-color="#FFE000"/>
<stop offset="0.4087" stop-color="#FFBD00"/>
<stop offset="0.7754" stop-color="#FFA500"/>
<stop offset="1" stop-color="#FF9C00"/>
</linearGradient>
<linearGradient id="paint2_linear" x1="34.6788" y1="28.2974" x2="18.716" y2="55.0539" gradientUnits="userSpaceOnUse">
<stop stop-color="#FF3A44"/>
<stop offset="1" stop-color="#C31162"/>
</linearGradient>
<linearGradient id="paint3_linear" x1="17.219" y1="6.17887" x2="24.3407" y2="18.1288" gradientUnits="userSpaceOnUse">
<stop stop-color="#32A071"/>
<stop offset="0.0685" stop-color="#2DA771"/>
<stop offset="0.4762" stop-color="#15CF74"/>
<stop offset="0.8009" stop-color="#06E775"/>
<stop offset="1" stop-color="#00F076"/>
</linearGradient>
</defs>
</svg>
