<svg xmlns="http://www.w3.org/2000/svg" width="412" height="412" fill="none">
  <path fill="#000" fill-rule="evenodd" d="M.675.738C.304 1.11 0 26.988 0 58.247v56.833h115.016l-.258-57.25L114.5.58 57.925.322C26.809.18 1.046.367.675.738Zm146.992.009c-.367.366-.667 3.966-.667 8v7.333h-16v17h16v16h-16v17h33v49h16v16H98.081l-.291 8.25-.29 8.25-7.75.292-7.75.292V131.08H0v34h15v16h33v16H32v15H16v-15H0v82h16v-49h16v33h16v16h17v-50H49v-31h16v15h15.919l.291 8.25.29 8.25 8.25.29 8.25.291v14.919H81v34h34v-16.919l-8.25-.291-8.25-.29v-15l8.25-.29 8.25-.291v-16.838l-8.25-.291-8.25-.29v-15l24.25-.268 24.25-.268v16.036h-16v17h16v16h-16v50h17v-16h16v33h16v15h-16v51h16v16h17v-16h15v16.048l16.75-.274 16.75-.274.29-8.25.291-8.25H213v-16h47.919l.291 8.25.29 8.25 8.25.29 8.25.291v15.933l66.25-.257 66.25-.257v-66l-8.25-.29-8.25-.291v-14.838l8.25-.291 8.25-.29.274-16.75.274-16.75H361v-15.919l8.25-.291 8.25-.29.29-8.25.291-8.25H360v16h-15v-32h16v-33h16v33h15.919l.291 8.25.29 8.25h17l.274-16.75.274-16.75H394v-15.919l8.25-.291 8.25-.29v-48l-8.25-.29-8.25-.291V131.08h-17v50h16v16h-33v15h-14.912l-.294-7.25-.294-7.25-8.75-.289-8.75-.289v15.078h-15v-31h16v-50h-17v33h-16v-33h-16.919l-.291 8.25-.29 8.25-8.25.29-8.25.291v15.919h-15v-32h15.919l.291-8.25.29-8.25 8.267-.291 8.268-.29-.268-24.71-.267-24.709-8.75-.289-8.75-.289V82.08h-15v-49h15v16h18V16.115l-24.75-.268-24.75-.267-.5-7.5-.5-7.5-8.207-.29-8.207-.29-.293 7.79-.293 7.79-15.75.275-15.75.276V32.08h-16v-32h-7.833c-4.309 0-8.134.3-8.5.667ZM294.675.739c-.371.371-.675 26.249-.675 57.508v56.833h117.016l-.258-57.25L410.5.58 352.925.322c-31.667-.142-57.879.046-58.25.417ZM97.761 57.33l.261 40.75H16V16.058l40.75.261 40.75.261.261 40.75ZM393 57.08v41h-81v-82h81v41Zm-361 0v25h50v-50H32v25Zm295-.017V82.08h51.035l-.268-24.75-.267-24.75-25.25-.267-25.25-.267v25.017Zm-99-15.957v8.026l-15.25-.276-15.25-.276-.292-7.75-.292-7.75H228v8.026ZM180 57.08v8h-16v-7.333c0-4.034.3-7.634.667-8 .366-.367 3.966-.667 8-.667H180v8Zm17 16.956v7.956l7.25.294 7.25.294.292 7.75.292 7.75h-15.003l-.291 8.25-.29 8.25-7.75.292-7.75.292V66.08h16v7.956Zm31 .044v8h-15v-16h15v8Zm-97 24.5v16.5h17v-33h-17v16.5Zm97 16.5v16h-15v-32h15v16Zm33-8v8h-15v-16h15v8Zm83 32.5v8.5h17v-17h-17v8.5Zm-147.208.25-.292 7.75-7.75.292-7.75.292V132.08h16.084l-.292 7.75Zm-132 16.5.292 7.75H32v-7.333c0-4.034.311-7.645.691-8.025.38-.38 7.693-.567 16.25-.416l15.559.274.292 7.75Zm49.208-.25v8H98v-7.333c0-4.034.3-7.634.667-8 .366-.367 3.966-.667 8-.667H114v8Zm66 .5v8.5h17v16h16.081l-.291-8.25-.29-8.25-7.791-.293-7.792-.293.292-7.707.291-7.707 15.25-.276 15.25-.276v33.052h33v17h17v32h16v32h-14.919l-.291-8.25-.29-8.25-8.25-.29-8.25-.291V229.08h-16.95l-.275 16.25-.275 16.25-8.25.29-8.25.291v32.919h-16v16h-31v-15.919l-8.25-.291-8.25-.29v-15l8.25-.29 8.25-.291V245.08h-33v-15h49v16.084l7.75-.292 7.75-.292.291-7.709.292-7.708 7.708-.292 7.709-.291.29-8.21.29-8.21 8.21-.29 8.21-.29v-15l-8.75-.289-8.75-.289v15.078h-14.912l-.294-7.25-.294-7.25-15.75-.275-15.75-.276v-15.868l-8.25-.291-8.25-.29-.278-14.956c-.153-8.226-.054-15.538.219-16.25.345-.9 2.789-1.294 8.028-1.294H180v8.5Zm164 16v8.5h17v-17h-17v8.5Zm-213.208.25-.292 7.75-7.75.292-7.75.292V165.08h16.084l-.292 7.75ZM294 181.08v16h-15v-15.919l-8.25-.291-8.25-.29-.292-7.75-.292-7.75H294v16Zm-180 8v8H98v-7.333c0-4.034.3-7.634.667-8 .366-.367 3.966-.667 8-.667H114v8Zm33 0v8h-16v-7.333c0-4.034.3-7.634.667-8 .366-.367 3.966-.667 8-.667H147v8Zm-49 16v7H82v-14h16v7Zm82 0v7h-16v-14h16v7Zm31.792 15.75-.292 7.75h-14l-.301-6.395c-.166-3.517-.068-7.004.218-7.75.37-.963 2.564-1.355 7.594-1.355h7.073l-.292 7.75Zm99 0-.292 7.75-7.75.292-7.75.292V213.08h16.084l-.292 7.75Zm33 0-.292 7.75-7.75.292-7.75.292V213.08h16.084l-.292 7.75ZM164 270.58v7.5h-16v-15h16v7.5Zm97 0v7.5h-15v-15h15v7.5Zm66 33v24.5h-48v-49h48v24.5ZM0 353.08v58h115v-116H0v58Zm294-49.461v8.539l8.75-.289 8.75-.289.29-8.25.291-8.25H294v8.539Zm-33 8.461v16h-14.919l-.291-8.25-.29-8.25-8.25-.29-8.25-.291V296.08h32v16Zm99-8.5v7.5h-15v-15h15v7.5Zm-262.5 49.5v40.5l-40.75.261-40.75.261v-82.044l40.75.261 40.75.261v40.5Zm130.5-16.5v24.5h-16v16h-14.919l-.291 8.25-.29 8.25-7.75.292-7.75.292V362.08h15.919l.291-8.25.29-8.25 7.5-.5 7.5-.5.275-16.25.275-16.25H228v24.5Zm165-16.5v8h-32v-16h32v8Zm-361 33v25h50v-50H32v25Zm99 16.5v41.5h17v-83h-17v41.5Zm229-33v7.5h-15v-15h15v7.5Zm-32.79 16.75.29 8.25 8.25.29 8.25.291v14.919h-49v-14.919l8.25-.291 8.25-.29.29-8.25.291-8.25h14.838l.291 8.25ZM278 369.58v7.5h-16v-15h16v7.5Zm115 8.5v16h-32v-15.919l8.25-.291 8.25-.29.292-7.75.292-7.75H393v16Z" clip-rule="evenodd"/>
</svg>
