<svg width="59" height="59" viewBox="0 0 59 59" fill="none" xmlns="http://www.w3.org/2000/svg">
<path d="M57.6415 25.8203C58.8622 24.6304 59.2933 22.884 58.7665 21.2626C58.2397 19.6413 56.8643 18.4819 55.1774 18.2367L41.6044 16.2644C40.7189 16.1358 39.9539 15.5799 39.5578 14.7776L37.3508 10.3056C37.1396 9.87768 36.6217 9.70201 36.1936 9.91328C35.7658 10.1244 35.5901 10.6425 35.8013 11.0704L38.0083 15.5424C38.6561 16.8548 39.9076 17.764 41.3559 17.9744L54.9289 19.9467C55.9759 20.0989 56.7962 20.7904 57.1231 21.7967C57.45 22.8028 57.1929 23.8445 56.4354 24.583L46.6139 34.1565C45.5658 35.1782 45.0878 36.6494 45.3352 38.0919L47.6537 51.61C47.8326 52.6528 47.4282 53.6466 46.5724 54.2684C45.7164 54.8902 44.6463 54.9678 43.7099 54.4753L41.5237 53.326V51.9222C41.5237 50.5131 40.3772 49.3665 38.968 49.3665H38.4696V45.5005C38.4698 44.7851 38.9421 43.6655 39.4605 43.1517C41.7658 40.8663 42.9886 38.9244 42.8496 35.214C42.7413 32.326 42.2214 29.7266 41.628 27.4536V25.1522C41.628 23.3893 40.1937 21.9551 38.4309 21.9551C37.8979 21.9551 37.3952 22.0868 36.9529 22.3185C36.7772 20.5538 35.2841 19.1711 33.4739 19.1711C32.6854 19.1711 31.9571 19.4337 31.3716 19.8759C30.7981 18.7264 29.6108 17.9347 28.2413 17.9347C26.8478 17.9347 25.6424 18.7544 25.081 19.9368C24.4828 19.4583 23.725 19.1711 22.9012 19.1711C20.9732 19.1711 19.4047 20.7395 19.4047 22.6675V28.0701C19.2427 28.1706 19.0872 28.2827 18.9406 28.4072C17.6742 29.4833 16.7652 31.4877 16.4563 32.8947C16.2438 33.863 16.1378 34.8089 16.1412 35.706C16.1549 39.3512 18.0372 41.9056 19.8767 43.9237C20.0181 44.0789 20.096 44.2783 20.096 44.4852V49.3664H20.0334C18.6244 49.3664 17.4778 50.5129 17.4778 51.9221V53.326L15.2919 54.4752C14.3555 54.9676 13.2854 54.8902 12.4294 54.2683C11.5735 53.6465 11.1693 52.6526 11.3482 51.6099L13.6666 38.0917C13.9141 36.6492 13.436 35.1781 12.3879 34.1564L2.56658 24.583C1.80893 23.8445 1.55181 22.8028 1.87874 21.7967C2.20567 20.7905 3.02587 20.099 4.0729 19.9467L17.6459 17.9744C19.0942 17.764 20.3457 16.8547 20.9935 15.5424L27.0635 3.24314C27.5318 2.29426 28.4431 1.72796 29.501 1.72796C30.559 1.72796 31.4702 2.29426 31.9382 3.24268L34.0348 7.49541C34.2459 7.92337 34.7638 8.09962 35.1918 7.88823C35.6197 7.67731 35.7956 7.15926 35.5847 6.73131L33.488 2.47823C32.7335 0.949569 31.2058 0 29.501 0C27.7962 0 26.2686 0.949569 25.5142 2.47835L19.4441 14.7775C19.048 15.5798 18.283 16.1356 17.3975 16.2643L3.82465 18.2367C2.13759 18.4819 0.762364 19.6412 0.235568 21.2626C-0.291228 22.884 0.139839 24.6304 1.3607 25.8204L11.1822 35.3938C11.8229 36.0183 12.1151 36.9178 11.9639 37.7997L9.64521 51.3179C9.35698 52.998 10.0347 54.6642 11.4139 55.6663C12.7931 56.6683 14.5873 56.798 16.0962 56.0048L17.478 55.2783V56.4446C17.478 57.8537 18.6245 59.0002 20.0337 59.0002H23.6837C24.1608 59.0002 24.5477 58.6135 24.5477 58.1363C24.5477 57.659 24.1608 57.2723 23.6837 57.2723H20.0337C19.5774 57.2723 19.206 56.901 19.206 56.4446V51.9222C19.206 51.4658 19.5773 51.0945 20.0337 51.0945H38.9683C39.4246 51.0945 39.7959 51.4658 39.7959 51.9222V56.4446C39.7959 56.901 39.4247 57.2723 38.9683 57.2723H27.6771C27.2 57.2723 26.8131 57.659 26.8131 58.1363C26.8131 58.6135 27.2 59.0002 27.6771 59.0002H38.9683C40.3773 59.0002 41.5239 57.8538 41.5239 56.4446V55.2782L42.906 56.0049C43.5624 56.3499 44.2725 56.5204 44.9792 56.5204C45.8971 56.5203 46.8091 56.2326 47.5883 55.6665C48.9676 54.6644 49.6453 52.9982 49.3571 51.3181L47.0383 37.7997C46.887 36.9178 47.1793 36.0183 47.82 35.3938L57.6415 25.8203ZM36.9704 24.9949C37.0492 24.2585 37.6739 23.683 38.4309 23.683C39.241 23.683 39.9001 24.3422 39.9001 25.1522V30.547C39.9001 31.3571 39.2409 32.0162 38.4309 32.0162C37.6208 32.0162 36.9616 31.3571 36.9616 30.547L36.9704 24.9949ZM31.7378 22.3358C31.8937 21.5188 32.6124 20.899 33.4739 20.899C34.4491 20.899 35.2424 21.6924 35.2424 22.6675L35.2337 28.9263C35.1468 29.8209 34.391 30.5227 33.4739 30.5227C33.1548 30.5227 32.8567 30.4356 32.5983 30.2867C32.6999 29.8571 32.725 29.3946 32.6689 28.8989C32.6035 28.3198 32.2348 27.8445 31.7338 27.6222C31.7348 27.5872 31.7378 22.3358 31.7378 22.3358ZM26.4728 21.431C26.4728 20.4559 27.2662 19.6625 28.2413 19.6625C29.2165 19.6625 30.0098 20.4559 30.0098 21.431L29.9776 27.4857H26.473V21.431H26.4728ZM21.1327 22.6674C21.1327 21.6923 21.926 20.8989 22.9012 20.8989C23.8763 20.8989 24.6697 21.6923 24.6697 22.6674V27.4855H21.4498C21.3436 27.4855 21.2379 27.4904 21.1328 27.499V22.6674H21.1327ZM36.7417 45.5004V49.3665H21.8241C21.8241 49.3665 21.8241 44.5779 21.8241 44.4853C21.8241 43.8468 21.5861 43.2339 21.1538 42.7598C19.536 40.985 17.8806 38.7583 17.8692 35.6997C17.8664 34.9291 17.9589 34.11 18.1442 33.2652C18.3944 32.125 19.1508 30.4963 20.0592 29.7244C20.4472 29.3952 20.9411 29.2137 21.4499 29.2137H30.9635C31.0213 29.9859 30.7625 30.5243 30.1132 30.9974C28.6906 32.0339 26.395 31.7736 25.1617 31.634C24.9649 31.6117 24.7949 31.5924 24.651 31.581C24.0447 31.532 23.361 31.6534 23.0735 32.2557C22.88 32.6612 22.9301 33.1342 23.2046 33.4907C23.5275 33.91 23.9899 34.1438 24.3616 34.5038C24.6368 34.7704 24.8653 35.0907 25.0612 35.4185C25.6 36.3194 25.8989 37.3867 25.7729 38.4386C25.7161 38.9123 26.0542 39.3424 26.528 39.3992C27.0012 39.456 27.432 39.1179 27.4885 38.644C27.7539 36.4274 26.6833 34.4584 25.7265 33.4299C27.2164 33.5628 29.4799 33.5965 31.1307 32.3937C31.3779 32.2137 31.5943 32.0192 31.7833 31.8122C32.2848 32.0907 32.861 32.2504 33.4741 32.2504C34.1982 32.2504 34.8716 32.0292 35.4303 31.6506C35.8807 32.8712 37.0558 33.7441 38.431 33.7441C39.4202 33.7441 40.3058 33.2924 40.8927 32.5846C41.006 33.453 41.0882 34.3505 41.1231 35.2789C41.2282 38.0804 40.5556 39.6333 38.2442 41.9246C37.402 42.7594 36.7421 44.3298 36.7417 45.5004Z" fill="white"/>
</svg>
