<svg width="61" height="61" viewBox="0 0 61 61" fill="none" xmlns="http://www.w3.org/2000/svg">
<path d="M60.2307 46.7392L58.1452 46.4429C57.9837 45.9312 57.7784 45.4353 57.5311 44.9595L58.797 43.2733C59.0644 42.917 59.0293 42.4181 58.7143 42.103L56.4115 39.7983C56.0962 39.4827 55.5966 39.4475 55.24 39.7156L53.5561 40.982C53.081 40.7348 52.5857 40.5295 52.0749 40.3679L51.7789 38.2801C51.7163 37.8386 51.3383 37.5106 50.8925 37.5106H47.636C47.1901 37.5106 46.8123 37.8387 46.7496 38.2801L46.4534 40.3679C45.9426 40.5295 45.4475 40.7348 44.9722 40.982L43.5125 39.8842C45.7035 37.4757 47.0646 34.5032 47.4562 31.2923H47.8352C48.3296 31.2923 48.7305 30.8914 48.7305 30.3969C48.7305 29.9025 48.3298 29.5016 47.8352 29.5016H47.5725C47.573 29.4504 47.5744 29.3994 47.5744 29.3481C47.5744 27.9586 47.3926 26.5798 47.0339 25.2501C46.9051 24.7727 46.414 24.4901 45.9362 24.6189C45.4588 24.7477 45.1762 25.2391 45.305 25.7165C45.6226 26.8942 45.7838 28.116 45.7838 29.3481C45.7838 33.1869 44.2541 36.7598 41.4764 39.4087C41.4714 39.4136 41.4663 39.4185 41.4614 39.4235C41.3484 39.5365 38.6841 42.223 37.8824 45.0333C37.7054 45.6541 37.6019 46.5833 37.5413 47.4777C37.5332 47.5259 37.5285 47.5754 37.5285 47.6257V47.6763C37.4946 48.2281 37.4765 48.7564 37.4669 49.179H34.9275C34.8298 47.9424 34.669 45.4474 34.7158 42.87C34.7408 41.4866 34.8193 40.3477 34.9307 39.4109C36.0941 39.2335 37.3557 38.9247 38.2525 38.387C39.879 37.4118 40.2231 35.4343 39.5241 34.1994C38.9733 33.2264 37.6216 32.4682 35.6253 33.5331C34.6045 34.0776 33.8947 35.3256 33.4554 37.348C33.4242 37.4916 33.3943 37.6396 33.3657 37.7915C32.7569 37.8422 32.2319 37.8615 31.9006 37.8597C31.571 37.861 31.0469 37.8428 30.4385 37.7924C30.4099 37.6401 30.38 37.492 30.3488 37.3481C29.9095 35.3256 29.1998 34.0777 28.1789 33.5331C26.1825 32.4683 24.8308 33.2265 24.28 34.1994C23.9174 34.8401 23.8348 35.6546 24.0533 36.4343C24.2824 37.2516 24.8145 37.945 25.5516 38.387C26.4484 38.9247 27.7102 39.2336 28.8734 39.411C28.9848 40.3478 29.0632 41.4866 29.0883 42.8701C29.1351 45.4476 28.9743 47.9427 28.8766 49.1791H26.3372C26.311 48.0267 26.2219 46.0865 25.9215 45.0334C25.1244 42.2383 22.4573 39.5387 22.3442 39.4252C22.3389 39.4197 22.3331 39.4142 22.3277 39.4089C19.5499 36.7599 18.0203 33.187 18.0203 29.3483C18.0203 21.687 24.2476 15.4542 31.902 15.4542C36.9382 15.4542 41.5896 18.1933 44.041 22.6026C44.2815 23.0349 44.8264 23.1905 45.2587 22.9501C45.6908 22.7098 45.8464 22.1647 45.6061 21.7324C44.6883 20.0819 43.4961 18.6401 42.1068 17.4483H43.1525C43.6469 17.4483 44.0478 17.0474 44.0478 16.5529C44.0478 16.0585 43.6469 15.6576 43.1525 15.6576H41.9587C41.4643 15.6576 41.0634 16.0584 41.0634 16.5529C41.0634 16.5785 41.065 16.6038 41.0672 16.6289C38.6667 14.8978 35.7926 13.8562 32.7626 13.6894L30.012 13.2986C29.7417 12.3763 29.3739 11.4874 28.9134 10.6444L30.9731 7.90093C31.2407 7.54458 31.2054 7.04574 30.8905 6.73061L27.451 3.28816C27.1356 2.97256 26.636 2.93729 26.2794 3.20548L23.5391 5.26602C22.697 4.80542 21.8092 4.43739 20.8881 4.16694L20.4063 0.769648C20.3435 0.328113 19.9657 0 19.5198 0H14.6555C14.2095 0 13.8317 0.328113 13.7691 0.769529L13.2872 4.16694C12.3661 4.43739 11.4784 4.80542 10.6362 5.26602L7.89581 3.20512C7.53934 2.93705 7.0399 2.9722 6.7243 3.2878L3.28471 6.73025C2.96982 7.0455 2.93455 7.54434 3.20214 7.90057L5.26185 10.6441C4.80149 11.4872 4.43358 12.376 4.16325 13.2982L0.769291 13.7804C0.327994 13.8433 0 14.2212 0 14.6669V19.5352C0 19.9811 0.327994 20.359 0.76941 20.4217L4.16337 20.9038C4.43358 21.8261 4.80149 22.7149 5.26196 23.5579L3.20214 26.3015C2.93467 26.6578 2.96982 27.1567 3.28483 27.4718L6.72442 30.9143C7.03966 31.2297 7.53922 31.265 7.89593 30.9969L10.6363 28.9362C11.4785 29.3968 12.3662 29.7648 13.2873 30.0352L13.7692 33.4326C13.8319 33.8742 14.2098 34.2022 14.6556 34.2022H16.9886C17.7774 36.6431 19.1656 38.8646 21.0824 40.6955C21.2193 40.8346 23.5433 43.2229 24.1996 45.5242C24.4971 46.5671 24.5587 49.1611 24.5574 50.0727V50.0734V50.0741V53.07C24.5574 55.048 25.9669 56.7024 27.8335 57.081C28.2115 58.9429 29.86 60.3485 31.8306 60.3485H31.9735C33.9441 60.3485 35.5925 58.9429 35.9706 57.081C37.8373 56.7024 39.2468 55.048 39.2468 53.07V51.906L40.3835 52.0676C40.545 52.579 40.7503 53.075 40.9976 53.551L39.7317 55.2372C39.4641 55.5935 39.4994 56.0924 39.8143 56.4075L42.117 58.7121C42.4323 59.0276 42.9318 59.063 43.2886 58.7948L44.9725 57.5285C45.4476 57.7757 45.9428 57.981 46.4536 58.1425L46.7498 60.2305C46.8125 60.672 47.1904 61 47.6362 61H50.8928C51.3388 61 51.7167 60.6719 51.7792 60.2305L52.0753 58.1427C52.5861 57.9811 53.0813 57.7758 53.5565 57.5286L55.2404 58.7949C55.597 59.0631 56.0965 59.0279 56.4119 58.7123L58.7146 56.4076C59.0295 56.0924 59.0648 55.5935 58.7973 55.2373L57.5315 53.5511C57.7787 53.0752 57.984 52.5793 58.1455 52.0677L60.2311 51.7714C60.6724 51.7087 61.0004 51.3308 61.0004 50.885V47.6257C61 47.1798 60.672 46.8019 60.2307 46.7392ZM36.4679 35.1126C36.6848 34.9968 37.0928 34.808 37.4432 34.808C37.6579 34.808 37.8512 34.879 37.9656 35.0812C38.2108 35.5144 38.0882 36.3972 37.3315 36.851C36.8054 37.1665 36.0453 37.3879 35.2476 37.5412C35.6739 35.7201 36.2342 35.2373 36.4679 35.1126ZM26.4725 36.851C25.7158 36.3972 25.5931 35.5144 25.8384 35.0812C25.9529 34.879 26.146 34.808 26.3609 34.808C26.7113 34.808 27.1193 34.9968 27.3362 35.1126C27.5699 35.2373 28.1303 35.7206 28.5567 37.5422C27.7598 37.3888 26.9996 37.1671 26.4725 36.851ZM15.4328 32.4116L14.977 29.1987C14.9257 28.8364 14.6589 28.5418 14.3034 28.4548C13.15 28.1726 12.0505 27.7168 11.0358 27.1001C10.7228 26.9098 10.3254 26.9295 10.0327 27.1496L7.44117 29.0984L5.10017 26.7556L7.04836 24.1608C7.26794 23.8683 7.28747 23.4715 7.0978 23.1588C6.48161 22.1431 6.02613 21.0427 5.74401 19.8879C5.65715 19.5324 5.36264 19.2655 5.00021 19.214L1.79056 18.7581V15.444L5.00033 14.9879C5.36264 14.9364 5.65727 14.6695 5.74413 14.314C6.02625 13.1592 6.48173 12.0588 7.09792 11.0433C7.28759 10.7305 7.26805 10.3339 7.04848 10.0413L5.10029 7.44653L7.44129 5.10375L10.0328 7.05253C10.3256 7.2727 10.7229 7.29236 11.0359 7.10209C12.0506 6.48542 13.15 6.02971 14.3035 5.74734C14.6591 5.66037 14.9258 5.36574 14.9772 5.00343L15.4329 1.79056H18.7426L19.1983 5.00331C19.2498 5.36562 19.5164 5.66025 19.8719 5.74722C21.0255 6.02959 22.1249 6.48554 23.1396 7.10209C23.4527 7.29236 23.8499 7.27258 24.1427 7.05253L26.7341 5.10375L29.0751 7.44653L27.127 10.0413C26.9073 10.3338 26.8878 10.7305 27.0776 11.0433C27.6493 11.9857 28.0808 13.0017 28.3657 14.066C26.8866 14.4087 25.4874 14.9624 24.2006 15.6921C23.7907 12.1677 20.791 9.42259 17.161 9.42259C14.7827 9.42259 12.5752 10.6069 11.2558 12.5905C10.982 13.0022 11.0938 13.558 11.5055 13.8319C11.9174 14.1057 12.4731 13.9939 12.7469 13.5822C13.7333 12.0987 15.3836 11.2132 17.161 11.2132C20.0826 11.2132 22.4594 13.5924 22.4594 16.5168C22.4594 16.6245 22.4555 16.735 22.4481 16.8471C20.724 18.1562 19.2784 19.8136 18.2159 21.7137C17.8681 21.7845 17.5146 21.8204 17.1609 21.8204C14.2393 21.8204 11.8625 19.4411 11.8625 16.5167C11.8625 16.0223 11.4617 15.6214 10.9671 15.6214C10.4726 15.6214 10.0718 16.0223 10.0718 16.5167C10.0718 20.4284 13.2519 23.6109 17.1608 23.6109C17.2126 23.6109 17.2644 23.6095 17.3161 23.6083C16.615 25.3867 16.2296 27.3231 16.2296 29.3479C16.2296 30.39 16.3305 31.4144 16.5258 32.4114H15.4328V32.4116ZM40.9975 44.9595C40.7501 45.4355 40.5449 45.9315 40.3834 46.4429L39.4191 46.5799C39.4674 46.1623 39.528 45.7921 39.6044 45.5243C39.7527 45.0043 39.9866 44.4802 40.2607 43.9781L40.9975 44.9595ZM30.8787 42.8525C30.8575 41.6626 30.7962 40.5774 30.6956 39.605C31.376 39.6492 31.8457 39.651 31.9005 39.6499C31.9559 39.6493 32.4271 39.6492 33.1082 39.6048C33.0076 40.5773 32.9463 41.6625 32.9251 42.8524C32.8791 45.4297 33.0289 47.8708 33.1304 49.1787H30.6735C30.7751 47.8709 30.9247 45.4299 30.8787 42.8525ZM31.9734 58.558H31.8304C30.886 58.558 30.0736 57.982 29.7246 57.1626H34.0791C33.7304 57.982 32.918 58.558 31.9734 58.558ZM37.456 53.07C37.456 54.3393 36.4245 55.3719 35.1567 55.3719H28.6471C27.3793 55.3719 26.3479 54.3393 26.3479 53.07V50.9694H37.4561V53.07H37.456ZM59.2094 50.1077L57.3149 50.3768C56.9524 50.4283 56.6579 50.6952 56.5711 51.0508C56.3894 51.7945 56.0961 52.5031 55.6992 53.1573C55.5095 53.4701 55.5291 53.8667 55.7486 54.1593L56.8988 55.6912L55.6947 56.8963L54.1653 55.7461C53.8724 55.5258 53.4752 55.5062 53.1622 55.6966C52.5088 56.0937 51.8008 56.3872 51.0578 56.569C50.7024 56.656 50.4357 56.9506 50.3842 57.313L50.1153 59.2094H48.4133L48.1443 57.3128C48.0929 56.9505 47.8261 56.6559 47.4706 56.5689C46.7275 56.3871 46.0196 56.0936 45.3662 55.6966C45.0534 55.5064 44.656 55.5261 44.3632 55.7461L42.8337 56.8963L41.6295 55.6912L42.7797 54.1593C42.9993 53.8668 43.0188 53.4701 42.8292 53.1573C42.4323 52.503 42.139 51.7944 41.9573 51.0508C41.8704 50.6953 41.5759 50.4283 41.2135 50.3768L39.3189 50.1077V48.4027L41.2135 48.1335C41.5759 48.0821 41.8704 47.8152 41.9573 47.4595C42.139 46.716 42.4323 46.0072 42.8292 45.353C43.0189 45.0403 42.9993 44.6437 42.7797 44.3511L41.6295 42.8191L42.8337 41.614L44.3632 42.7642C44.656 42.9844 45.0533 43.0039 45.3662 42.8138C46.0196 42.4167 46.7277 42.1231 47.4706 41.9413C47.826 41.8543 48.0928 41.5597 48.1443 41.1974L48.4133 39.3009H50.1153L50.3842 41.1974C50.4356 41.5597 50.7023 41.8543 51.0578 41.9413C51.8008 42.1232 52.5088 42.4168 53.1622 42.8138C53.4752 43.004 53.8724 42.9844 54.1653 42.7642L55.6948 41.614L56.8988 42.8191L55.7486 44.3511C55.5291 44.6437 55.5095 45.0403 55.6992 45.353C56.0961 46.0071 56.3894 46.7159 56.5711 47.4595C56.6579 47.8151 56.9524 48.0821 57.3149 48.1335L59.2094 48.4027V50.1077Z" fill="white"/>
<path d="M49.2641 43.998C46.3677 43.998 44.0112 46.3561 44.0112 49.2545C44.0112 49.749 44.412 50.1499 44.9066 50.1499C45.401 50.1499 45.8019 49.749 45.8019 49.2545C45.8019 47.3434 47.3551 45.7886 49.2643 45.7886C51.1734 45.7886 52.7265 47.3434 52.7265 49.2545C52.7265 51.1657 51.1734 52.7205 49.2643 52.7205C48.4175 52.7205 47.6026 52.4114 46.9697 51.8501C46.5997 51.5219 46.0339 51.5561 45.7059 51.926C45.3778 52.296 45.4117 52.8619 45.7818 53.1899C46.7426 54.042 47.9794 54.5111 49.2644 54.5111C52.1608 54.5111 54.5173 52.1531 54.5173 49.2547C54.5169 46.3561 52.1606 43.998 49.2641 43.998Z" fill="white"/>
<path d="M46.137 17.4489H47.3308C47.8253 17.4489 48.2262 17.048 48.2262 16.5535C48.2262 16.0591 47.8253 15.6582 47.3308 15.6582H46.137C45.6426 15.6582 45.2417 16.059 45.2417 16.5535C45.2417 17.048 45.6425 17.4489 46.137 17.4489Z" fill="white"/>
<path d="M53.8459 18.3139C54.1414 18.4927 54.4235 18.6986 54.6846 18.9257C55.0781 19.2682 55.6968 19.1939 56.0005 18.7711C56.2663 18.4012 56.2034 17.8738 55.8601 17.575C55.5219 17.2806 55.1561 17.0137 54.7731 16.7818C54.3503 16.5258 53.7996 16.6612 53.5436 17.0842C53.2875 17.5074 53.4229 18.0578 53.8459 18.3139Z" fill="white"/>
<path d="M50.3148 17.4488C50.6926 17.4488 51.0643 17.464 51.4415 17.4889C51.9156 17.5203 52.344 17.1693 52.3965 16.6946C52.451 16.2032 52.0966 15.7605 51.6053 15.7062C51.1758 15.6586 50.7461 15.6582 50.3148 15.6582C49.8203 15.6582 49.4194 16.059 49.4194 16.5535C49.4194 17.0479 49.8203 17.4488 50.3148 17.4488Z" fill="white"/>
<path d="M51.8425 29.4001C51.5039 29.4629 51.1563 29.4968 50.8091 29.5009C50.3147 29.5067 49.9187 29.9123 49.9244 30.4067C49.9302 30.8975 50.3299 31.2914 50.8194 31.2914H50.8301C51.2795 31.2862 51.7298 31.2421 52.169 31.1606C52.6552 31.0704 52.9762 30.6031 52.886 30.1171C52.7959 29.6308 52.329 29.3094 51.8425 29.4001Z" fill="white"/>
<path d="M55.0059 27.7233C54.7619 27.969 54.4953 28.1949 54.2135 28.3948C53.8468 28.655 53.7298 29.1649 53.9482 29.5586C54.2035 30.0186 54.8198 30.1602 55.2497 29.8552C55.6148 29.5962 55.9602 29.3035 56.2762 28.9854C56.6247 28.6346 56.6228 28.0676 56.272 27.7193C55.9213 27.3707 55.3544 27.3724 55.0059 27.7233Z" fill="white"/>
<path d="M56.9235 26.699C57.382 26.867 57.9044 26.6244 58.0722 26.1664C58.2265 25.7455 58.3449 25.308 58.4243 24.8662C58.5117 24.3795 58.188 23.9142 57.7013 23.8267C57.2151 23.7394 56.7493 24.063 56.6618 24.5496C56.6007 24.8896 56.5096 25.2263 56.3908 25.5501C56.2208 26.0145 56.4592 26.5287 56.9235 26.699Z" fill="white"/>
<path d="M56.2248 20.993C56.3671 21.3077 56.4827 21.637 56.5685 21.9715C56.6932 22.4578 57.2102 22.7487 57.6911 22.6073C58.1466 22.4733 58.4205 21.9858 58.303 21.5268C58.1916 21.0922 58.0413 20.6644 57.8564 20.2552C57.6528 19.8048 57.1225 19.6045 56.6718 19.8082C56.2212 20.0121 56.021 20.5424 56.2248 20.993Z" fill="white"/>
<path d="M4.22575 36.9376C3.76372 36.7619 3.24641 36.994 3.07068 37.4562C2.91127 37.8753 2.7876 38.3112 2.70277 38.7519C2.60949 39.2374 2.92735 39.7068 3.41297 39.8001C3.47004 39.8111 3.52687 39.8165 3.58298 39.8165C4.00367 39.8165 4.37884 39.5185 4.46117 39.0899C4.52634 38.7507 4.62165 38.4152 4.74425 38.0927C4.9201 37.6305 4.68789 37.1133 4.22575 36.9376Z" fill="white"/>
<path d="M7.20197 45.3588C6.90865 45.1764 6.62891 44.9672 6.37049 44.7367C6.00151 44.4078 5.43548 44.4402 5.10641 44.8093C4.77734 45.1784 4.80987 45.7443 5.17897 46.0734C5.51375 46.3717 5.87618 46.6429 6.25636 46.8794C6.70409 47.1578 7.31063 46.979 7.53747 46.5042C7.73155 46.0982 7.58382 45.5962 7.20197 45.3588Z" fill="white"/>
<path d="M14.8899 46.2617H13.6961C13.2017 46.2617 12.8008 46.6626 12.8008 47.1571C12.8008 47.6515 13.2017 48.0524 13.6961 48.0524H14.8899C15.3843 48.0524 15.7853 47.6515 15.7853 47.1571C15.7853 46.6626 15.3845 46.2617 14.8899 46.2617Z" fill="white"/>
<path d="M19.0681 46.2617H17.8743C17.3799 46.2617 16.979 46.6626 16.979 47.1571C16.979 47.6515 17.3799 48.0524 17.8743 48.0524H19.0681C19.5626 48.0524 19.9635 47.6515 19.9635 47.1571C19.9635 46.6626 19.5626 46.2617 19.0681 46.2617Z" fill="white"/>
<path d="M23.2464 46.2617H22.0526C21.5581 46.2617 21.1572 46.6626 21.1572 47.1571C21.1572 47.6515 21.5581 48.0524 22.0526 48.0524H23.2464C23.7408 48.0524 24.1417 47.6515 24.1417 47.1571C24.1417 46.6626 23.7409 46.2617 23.2464 46.2617Z" fill="white"/>
<path d="M4.85555 42.6508C4.71711 42.3341 4.60547 42.0035 4.52374 41.668C4.40674 41.1876 3.92232 40.893 3.44194 41.01C2.96157 41.127 2.66693 41.6113 2.78393 42.0918C2.89008 42.5276 3.0352 42.9572 3.2151 43.3685C3.42086 43.8391 3.99988 44.0412 4.4544 43.801C4.86329 43.5849 5.04081 43.0742 4.85555 42.6508Z" fill="white"/>
<path d="M10.7121 46.2613C10.3503 46.2613 9.99025 46.2602 9.63033 46.2158C9.13923 46.1555 8.69269 46.5042 8.63229 46.9949C8.57188 47.4857 8.92061 47.9325 9.41147 47.993C9.84419 48.0462 10.2771 48.0518 10.7122 48.0518C11.2067 48.0518 11.6076 47.6509 11.6076 47.1565C11.6075 46.6622 11.2066 46.2613 10.7121 46.2613Z" fill="white"/>
<path d="M5.52802 36.1911C5.75451 36.1911 5.98123 36.1056 6.15553 35.9342C6.40239 35.6916 6.67165 35.4688 6.95592 35.2724C7.36255 34.9911 7.46429 34.4335 7.183 34.0268C6.90171 33.6203 6.34425 33.5183 5.93739 33.7997C5.56912 34.0544 5.22016 34.343 4.90039 34.6573C4.34162 35.2064 4.74122 36.1911 5.52802 36.1911Z" fill="white"/>
<path d="M9.33879 34.2972C9.67787 34.2384 10.0261 34.2087 10.3735 34.2087C10.868 34.2087 11.2689 33.8079 11.2689 33.3133C11.2689 32.8189 10.868 32.418 10.3735 32.418C9.92401 32.418 9.47306 32.4566 9.03331 32.5327C8.55913 32.6148 8.22745 33.0753 8.30131 33.551C8.37721 34.0396 8.85103 34.3814 9.33879 34.2972Z" fill="white"/>
</svg>
