<svg width="57" height="59" viewBox="0 0 57 59" fill="none" xmlns="http://www.w3.org/2000/svg">
<path d="M23.1763 12.2207H33.8241C34.3014 12.2207 34.6883 11.8337 34.6883 11.3564C34.6883 10.8791 34.3014 10.4922 33.8241 10.4922H23.1763C22.699 10.4922 22.312 10.8791 22.312 11.3564C22.312 11.8337 22.699 12.2207 23.1763 12.2207Z" fill="white"/>
<path d="M15.8184 18.4961H41.5757C42.053 18.4961 42.4399 18.1091 42.4399 17.6318C42.4399 17.1545 42.053 16.7676 41.5757 16.7676H15.8184C15.3411 16.7676 14.9541 17.1545 14.9541 17.6318C14.9541 18.1091 15.3411 18.4961 15.8184 18.4961Z" fill="white"/>
<path d="M15.8184 22.9121H41.5757C42.053 22.9121 42.4399 22.5252 42.4399 22.0479C42.4399 21.5706 42.053 21.1836 41.5757 21.1836H15.8184C15.3411 21.1836 14.9541 21.5706 14.9541 22.0479C14.9541 22.5252 15.3411 22.9121 15.8184 22.9121Z" fill="white"/>
<path d="M15.8184 27.3281H26.7501C27.2274 27.3281 27.6143 26.9412 27.6143 26.4639C27.6143 25.9866 27.2274 25.5996 26.7501 25.5996H15.8184C15.3411 25.5996 14.9541 25.9866 14.9541 26.4639C14.9541 26.9412 15.3411 27.3281 15.8184 27.3281Z" fill="white"/>
<path d="M51.8899 8.36809H47.0706V2.34041C47.0706 1.0499 46.0207 0 44.7302 0H19.162C19.1538 0 19.1458 0.000921875 19.1377 0.00115234C19.1256 0.00149805 19.1135 0.00207422 19.1014 0.00299609C19.0814 0.00437891 19.0617 0.00656836 19.042 0.00933398C19.0307 0.0109473 19.0194 0.0123301 19.0081 0.0144043C18.9854 0.0185527 18.9631 0.0238535 18.9409 0.0297305C18.9344 0.031459 18.9278 0.0322656 18.9212 0.0342246C18.9191 0.0348008 18.917 0.0356074 18.9149 0.0362988C18.9103 0.0376816 18.9058 0.0392949 18.9012 0.040793C18.4727 0.168588 18.0805 0.401477 17.7661 0.715951L10.6456 7.83651C10.4864 7.99565 10.3481 8.17461 10.2337 8.36809H5.1104C2.69751 8.36809 0.734375 10.3311 0.734375 12.7441V44.2055C0.734375 46.6184 2.69739 48.5815 5.1104 48.5815H22.8382L22.4041 51.9147H21.154C18.6167 51.9147 16.5524 53.979 16.5524 56.5164C16.5524 57.8859 17.6666 59.0001 19.0361 59.0001H36.9578C38.3274 59.0001 39.4416 57.8859 39.4416 56.5164C39.4416 53.979 37.3773 51.9147 34.8399 51.9147H33.5899L33.1558 48.5815H51.89C54.3029 48.5815 56.266 46.6185 56.266 44.2055V12.744C56.2659 10.3311 54.3029 8.36809 51.8899 8.36809ZM18.2978 2.95069V7.53299C18.2978 7.99346 17.9232 8.36809 17.4627 8.36809H12.8804L18.2978 2.95069ZM5.1104 10.0966H9.92973V33.4736C9.92973 33.9509 10.3167 34.3379 10.794 34.3379C11.2713 34.3379 11.6582 33.9509 11.6582 33.4736V10.0966H17.4627C18.8763 10.0966 20.0263 8.94657 20.0263 7.53299V1.72852H44.7303C45.0677 1.72852 45.3422 2.003 45.3422 2.34041V15.6037C45.3422 16.081 45.7291 16.4679 46.2064 16.4679C46.6837 16.4679 47.0707 16.081 47.0707 15.6037V10.0966H51.89C53.3498 10.0966 54.5375 11.2843 54.5375 12.7441V40.5741H48.4545L47.8179 39.3302C47.8832 39.0626 48.0905 38.8463 48.3732 38.7794C50.1842 38.3508 50.8936 36.1572 49.6827 34.7489C49.4385 34.465 49.4385 34.0528 49.6827 33.769C50.896 32.3577 50.1804 30.1661 48.3732 29.7385C48.0088 29.6522 47.7665 29.3189 47.7971 28.9457C47.8581 28.2028 47.5898 27.493 47.0708 26.9817V19.6439C47.0708 19.1666 46.6838 18.7796 46.2066 18.7796C45.7292 18.7796 45.3423 19.1666 45.3423 19.6439V26.2613C45.0146 26.2596 44.6842 26.3228 44.3687 26.4547C44.023 26.599 43.6312 26.4718 43.4365 26.1519C42.4694 24.5619 40.1639 24.5651 39.1987 26.1519C39.0041 26.4716 38.6119 26.599 38.2667 26.4547C36.5498 25.7367 34.6863 27.0945 34.8381 28.9456C34.8688 29.3187 34.6265 29.6522 34.262 29.7384C32.4509 30.1669 31.7418 32.3606 32.9525 33.7689C33.1967 34.0528 33.1967 34.465 32.9525 34.7488C31.7392 36.1599 32.4547 38.3516 34.262 38.7792C34.5447 38.8462 34.7521 39.0625 34.8174 39.3301L34.1807 40.574H11.6582V37.5657C11.6582 37.0884 11.2713 36.7015 10.794 36.7015C10.3167 36.7015 9.92973 37.0884 9.92973 37.5657V40.574H2.46301V12.744C2.46301 11.2842 3.65061 10.0966 5.1104 10.0966ZM34.2631 32.642C33.8964 32.2156 34.1106 31.5505 34.6598 31.4205C35.8623 31.136 36.6617 30.0357 36.5607 28.8043C36.5146 28.2427 37.0798 27.832 37.5998 28.0494C38.7397 28.526 40.0332 28.1057 40.6753 27.0501C40.9682 26.5684 41.6669 26.5689 41.9596 27.0501C42.6016 28.1058 43.8951 28.526 45.0352 28.0494C45.5537 27.8326 46.1204 28.2415 46.0741 28.8043C45.9732 30.0358 46.7727 31.136 47.9751 31.4205C48.5237 31.5504 48.7391 32.2149 48.3719 32.642C47.5663 33.5788 47.5663 34.9389 48.3719 35.8758C48.7395 36.3034 48.5232 36.9675 47.9751 37.0973C46.7594 37.3849 45.9747 38.4983 46.0743 39.7136C46.1205 40.2755 45.5549 40.6857 45.0353 40.4685C43.8953 39.9919 42.6018 40.4121 41.9597 41.4678C41.6671 41.9488 40.968 41.9489 40.6754 41.4678C40.0331 40.4119 38.7394 39.9917 37.5998 40.4685C37.0787 40.6863 36.5149 40.2738 36.5607 39.7136C36.6595 38.5089 35.8857 37.3873 34.66 37.0973C34.1113 36.9674 33.8959 36.3029 34.2631 35.8758C35.0687 34.9388 35.0687 33.5788 34.2631 32.642ZM35.6079 41.5793C36.312 42.2397 37.3349 42.4526 38.2666 42.0631C38.612 41.9187 39.0041 42.046 39.1986 42.3659C39.3396 42.5978 39.5134 42.8005 39.7121 42.9699L38.0106 46.2938L37.359 44.7349C37.1093 44.1378 36.4707 43.8106 35.84 43.9574L34.1944 44.3405L35.6079 41.5793ZM41.3175 43.6272L42.9686 46.8529H39.6664L41.3175 43.6272ZM45.2759 44.735L44.6243 46.2939L42.9228 42.97C43.1215 42.8006 43.2954 42.5979 43.4363 42.366C43.6308 42.046 44.0226 41.9185 44.3683 42.0632C45.3016 42.4534 46.3241 42.2388 47.027 41.5794L48.4404 44.3407L46.7947 43.9577C46.1641 43.8107 45.5256 44.1378 45.2759 44.735ZM2.46301 44.2054V42.3025H33.2959L32.2564 44.3334C32.0192 44.7968 32.0711 45.3393 32.3914 45.7493C32.7118 46.1593 33.2255 46.3404 33.7324 46.2227L35.8971 45.7189L36.3711 46.8528H5.1104C3.65061 46.8529 2.46301 45.6653 2.46301 44.2054ZM37.7131 56.5162C37.7131 56.9327 37.3743 57.2715 36.9578 57.2715H19.0361C18.6197 57.2715 18.2809 56.9327 18.2809 56.5162C18.2809 54.932 19.5698 53.6431 21.154 53.6431H34.8399C36.4242 53.6431 37.7131 54.932 37.7131 56.5162ZM31.8467 51.9146H24.1471L24.5812 48.5814H31.4126L31.8467 51.9146ZM51.8899 46.8529H46.264L46.738 45.719L48.9026 46.2228C49.4094 46.3406 49.9232 46.1593 50.2437 45.7494C50.564 45.3393 50.6158 44.7968 50.3787 44.3335L49.3392 42.3025H54.5375V44.2054C54.5374 45.6653 53.3498 46.8529 51.8899 46.8529Z" fill="white"/>
<path d="M41.3175 38.7014C43.7676 38.7014 45.761 36.7081 45.761 34.2579C45.761 31.8077 43.7677 29.8145 41.3175 29.8145C38.8672 29.8145 36.874 31.8078 36.874 34.2579C36.874 36.708 38.8673 38.7014 41.3175 38.7014ZM41.3175 31.5431C42.8145 31.5431 44.0325 32.761 44.0325 34.258C44.0325 35.755 42.8146 36.973 41.3175 36.973C39.8203 36.973 38.6025 35.7551 38.6025 34.258C38.6025 32.7609 39.8205 31.5431 41.3175 31.5431Z" fill="white"/>
</svg>
