<svg width="63" height="65" viewBox="0 0 63 65" fill="none" xmlns="http://www.w3.org/2000/svg">
<g clip-path="url(#clip0_327:196)">
<path d="M61.1471 31.0129C60.6705 30.5019 60.0809 30.149 59.4347 29.9796C59.8181 29.3486 60.0105 28.6134 59.984 27.8484C59.9155 25.8508 58.2584 24.2252 56.2902 24.2252H49.1006L49.0935 13.0728C49.0935 10.6547 47.1934 8.68698 44.8574 8.68698C42.5214 8.68698 40.6213 10.6547 40.6213 13.0728V16.0244C40.6213 16.7816 40.4667 17.5124 40.1821 18.1796C34.8515 17.9725 30.5757 13.4203 30.5757 7.85143V6.49409C30.5757 5.63015 29.8973 4.92773 29.0628 4.92773H13.4497C12.6153 4.92773 11.9368 5.63015 11.9368 6.49409V7.55921C11.9368 13.2598 7.45773 17.8971 1.95174 17.8971H1.70967C0.875216 17.8971 0.196777 18.5995 0.196777 19.4635V38.2597C0.196777 50.2825 9.64386 60.0634 21.2563 60.0634C29.4935 60.0634 36.9355 55.1156 40.3774 47.4072H53.0318C53.8577 47.4072 54.6653 47.0548 55.2472 46.441C55.8203 45.8365 56.128 45.0459 56.1129 44.2148C56.1053 43.7919 56.015 43.3885 55.8581 43.0214H56.2902C58.2584 43.0214 59.9155 41.3959 59.984 39.3983C60.0105 38.6268 59.8152 37.8862 59.4252 37.2519C60.9475 36.828 62.1059 35.4227 62.1626 33.7594C62.1981 32.729 61.8373 31.7535 61.1471 31.0129ZM21.2563 58.1837C10.6452 58.1837 2.01225 49.2457 2.01225 38.2597V19.7768C8.49122 19.7425 13.7523 14.2749 13.7523 7.55921V6.80736H28.7602V7.85143C28.7602 14.0219 33.2011 19.1375 38.9472 19.9544C38.7293 20.16 38.4938 20.3495 38.239 20.5174L33.28 23.7842C32.8422 24.073 32.3368 24.2252 31.8182 24.2252H30.7015C30.363 23.0666 29.3228 22.2203 28.0946 22.2203H23.0112C21.8279 22.2203 20.819 23.0059 20.444 24.0999H15.9914C14.6898 24.0999 13.6313 25.1963 13.6313 26.5434V42.7082C13.6313 44.0557 14.6898 45.1517 15.9914 45.1517H20.288V54.3976C12.133 53.9091 5.6432 46.8859 5.6432 38.3224V22.7504C11.8782 22.2805 16.8471 17.0117 17.11 10.504H20.288V18.7743C20.288 19.2936 20.6946 19.7141 21.1958 19.7141C21.6969 19.7141 22.1035 19.2936 22.1035 18.7743V9.56414C22.1035 9.0448 21.6969 8.62433 21.1958 8.62433H16.2131C15.712 8.62433 15.3054 9.0448 15.3054 9.56414V9.96111C15.3054 15.9955 10.5639 20.9045 4.73546 20.9045C4.23432 20.9045 3.82773 21.325 3.82773 21.8443V38.3224C3.82773 48.2374 11.6191 56.3041 21.1958 56.3041C21.6969 56.3041 22.1035 55.8836 22.1035 55.3643V46.9349C22.3158 46.9961 22.5385 47.0313 22.7692 47.0313H28.0946C28.9843 47.0313 29.7758 46.5873 30.2727 45.9021L31.2409 46.4699C32.2858 47.0832 33.4724 47.4072 34.6728 47.4072H38.3567C35.0681 53.9981 28.4988 58.1837 21.2563 58.1837ZM20.288 43.2721H15.9914C15.6912 43.2721 15.4468 43.019 15.4468 42.7082V26.5434C15.4468 26.2326 15.6912 25.9795 15.9914 25.9795H20.288V43.2721ZM58.4688 35.5029H51.3931C50.892 35.5029 50.4854 35.9234 50.4854 36.4428C50.4854 36.9621 50.892 37.3826 51.3931 37.3826H56.3554C56.8523 37.3826 57.3166 37.5867 57.6622 37.9572C58.0073 38.3273 58.1875 38.8158 58.1695 39.3317C58.1355 40.3298 57.292 41.1418 56.2902 41.1418H53.0876C53.0673 41.1418 53.0469 41.1438 53.0271 41.1447C53.0072 41.1438 52.9869 41.1418 52.9666 41.1418H51.3931C50.892 41.1418 50.4854 41.5623 50.4854 42.0816C50.4854 42.601 50.892 43.0214 51.3931 43.0214H52.9666C52.9869 43.0214 53.0072 43.0195 53.0271 43.0185C53.0469 43.0195 53.0673 43.0214 53.0876 43.0214C53.7424 43.0214 54.2856 43.5726 54.2979 44.2505C54.3036 44.5726 54.1807 44.8829 53.9518 45.1248C53.7088 45.3808 53.3736 45.5276 53.0323 45.5276H34.6728C33.7854 45.5276 32.9084 45.2882 32.1364 44.835L30.8178 44.0611V41.9353C30.8178 41.4164 30.4112 40.9955 29.91 40.9955C29.4089 40.9955 29.0023 41.4164 29.0023 41.9353V44.2119C29.0023 44.7302 28.5952 45.1517 28.0946 45.1517H22.7692C22.4023 45.1517 22.1035 44.8423 22.1035 44.4625V25.0397C22.1035 24.5213 22.5106 24.0999 23.0112 24.0999H28.0946C28.5952 24.0999 29.0023 24.5213 29.0023 25.0397V37.5495C29.0023 38.0688 29.4089 38.4893 29.91 38.4893C30.4112 38.4893 30.8178 38.0688 30.8178 37.5495V26.1048H31.8182C32.6824 26.1048 33.5254 25.8508 34.2544 25.3701L39.2139 22.1028C41.2322 20.7734 42.4368 18.5007 42.4368 16.0244V13.0728C42.4368 11.691 43.5228 10.5666 44.8574 10.5666C46.1921 10.5666 47.2781 11.691 47.2781 13.0733L47.2852 24.5395C47.2856 25.4024 47.9645 26.1048 48.7981 26.1048H56.2902C57.292 26.1048 58.1355 26.9169 58.1695 27.9149C58.1875 28.4309 58.0069 28.9194 57.6622 29.2894C57.3166 29.66 56.8523 29.8641 56.3554 29.8641H51.3931C50.892 29.8641 50.4854 30.2845 50.4854 30.8039C50.4854 31.3232 50.892 31.7437 51.3931 31.7437H58.534C59.0309 31.7437 59.4952 31.9478 59.8408 32.3184C60.1859 32.6884 60.366 33.1769 60.3481 33.6928C60.314 34.6909 59.4706 35.5029 58.4688 35.5029Z" fill="white"/>
</g>
<defs>
<clipPath id="clip0_327:196">
<rect width="61.9682" height="64.1578" fill="white" transform="translate(0.196777 0.416016)"/>
</clipPath>
</defs>
</svg>
