<svg width="63" height="63" viewBox="0 0 63 63" fill="none" xmlns="http://www.w3.org/2000/svg">
<g clip-path="url(#clip0_327:124)">
<path d="M25.8841 55.8486L25.699 56.7527L25.8773 55.8477C25.3775 55.7491 24.892 56.0745 24.7935 56.5744C24.6949 57.0748 25.0203 57.5597 25.5207 57.6583C25.5221 57.6588 25.5361 57.6612 25.5375 57.6616C25.5962 57.6727 25.6543 57.6785 25.712 57.6785C26.146 57.6785 26.5329 57.3709 26.6171 56.9287C26.7132 56.4278 26.3849 55.9443 25.8841 55.8486Z" fill="white"/>
<path d="M32.9401 56.1457L33.0319 57.0638L32.9372 56.1462C32.4301 56.1981 32.0615 56.6514 32.1138 57.1585C32.1624 57.6333 32.5633 57.9871 33.0305 57.9871C33.0622 57.9871 33.0944 57.9852 33.1261 57.9823L33.1516 57.9794C33.6563 57.9203 34.0144 57.4651 33.9581 56.9604C33.9014 56.4562 33.4448 56.0929 32.9401 56.1457Z" fill="white"/>
<path d="M29.4074 56.2632C29.4074 56.2632 29.3944 56.2627 29.3939 56.2627C28.8854 56.2396 28.4605 56.6347 28.4374 57.1437C28.4148 57.6527 28.8147 58.0839 29.3238 58.1069C29.3382 58.1079 29.3521 58.1079 29.3665 58.1079C29.8568 58.1079 30.2654 57.7219 30.2875 57.2269C30.3105 56.7179 29.9169 56.2862 29.4074 56.2632Z" fill="white"/>
<path d="M22.4752 54.9121L22.4636 54.9078C21.9839 54.7357 21.461 54.9866 21.2889 55.4663C21.1164 55.946 21.3711 56.4766 21.8508 56.6492C21.9541 56.6862 22.0594 56.7035 22.1628 56.7035C22.541 56.7035 22.8962 56.4694 23.0313 56.0926C23.2038 55.6129 22.9549 55.0842 22.4752 54.9121Z" fill="white"/>
<path d="M36.4225 55.5008L36.6499 56.3952L36.4196 55.5017C35.926 55.6286 35.629 56.1318 35.7559 56.6255C35.863 57.0417 36.238 57.3186 36.6489 57.3186C36.7253 57.3186 36.8027 57.309 36.8801 57.2888C36.884 57.2878 36.9003 57.2835 36.9046 57.2825C37.3944 57.1489 37.6809 56.6457 37.5501 56.1549C37.4194 55.6647 36.9142 55.3729 36.4225 55.5008Z" fill="white"/>
<path d="M39.7592 54.3363L40.125 55.1832L39.7563 54.3372C39.2891 54.541 39.0752 55.0846 39.2785 55.5518C39.4299 55.8993 39.7693 56.1065 40.1254 56.1065C40.248 56.1065 40.3735 56.0815 40.4931 56.0296C40.497 56.0277 40.5119 56.0214 40.5157 56.0195C40.9786 55.8104 41.1829 55.2682 40.9762 54.8044C40.7695 54.3401 40.2245 54.132 39.7592 54.3363Z" fill="white"/>
<path d="M18.95 12.2669C19.0981 12.2669 19.2485 12.2314 19.3874 12.1573C19.8373 11.9175 20.007 11.3585 19.7671 10.9086C19.5273 10.4592 18.9688 10.2886 18.5189 10.5289L18.5078 10.5347C18.0584 10.7745 17.8936 11.3306 18.1334 11.7805C18.2987 12.091 18.6198 12.2669 18.95 12.2669Z" fill="white"/>
<path d="M8.27556 22.5758C8.41255 22.6474 8.55915 22.6815 8.70383 22.6815C9.03596 22.6815 9.35703 22.5018 9.5219 22.1869L9.53824 22.1547C9.76318 21.6972 9.57477 21.1439 9.11719 20.9195C8.66297 20.6955 8.11407 20.8801 7.88624 21.3314C7.65072 21.7822 7.82471 22.3393 8.27556 22.5758Z" fill="white"/>
<path d="M6.97607 26.0473C7.07412 26.0804 7.17362 26.0963 7.27215 26.0963C7.65667 26.0963 8.01572 25.8536 8.14598 25.4691L8.15799 25.4325C8.30796 24.9456 8.03446 24.4289 7.54708 24.2794C7.06403 24.1304 6.55117 24.3986 6.39688 24.8793C6.2349 25.3614 6.49397 25.8843 6.97607 26.0473Z" fill="white"/>
<path d="M10.0963 19.3474C10.2602 19.4667 10.45 19.5243 10.6384 19.5243C10.9235 19.5243 11.2051 19.3921 11.3854 19.1441L11.3974 19.1278C11.6935 18.7135 11.5969 18.1386 11.1835 17.8425C10.7697 17.546 10.1929 17.6411 9.89583 18.0545L10.6394 18.6015L9.89295 18.0583C9.59302 18.4707 9.68435 19.048 10.0963 19.3474Z" fill="white"/>
<path d="M15.8172 14.2615C16.0109 14.2615 16.206 14.2005 16.3728 14.0736C16.7843 13.7727 16.8732 13.1954 16.5723 12.784C16.2709 12.3725 15.6937 12.2836 15.2827 12.5845L15.2596 12.6013C14.854 12.9094 14.7732 13.4896 15.0813 13.8957C15.263 14.1351 15.5384 14.2615 15.8172 14.2615Z" fill="white"/>
<path d="M6.15219 40.0425C6.27428 40.439 6.63861 40.6933 7.03274 40.6933C7.12263 40.6933 7.21443 40.6798 7.30479 40.6519C7.78929 40.5034 8.06278 39.9901 7.91762 39.5046C7.77872 39.0201 7.27644 38.7356 6.78761 38.8687C6.29591 39.0028 6.00607 39.5104 6.14018 40.0021C6.14306 40.0117 6.14931 40.0329 6.15219 40.0425Z" fill="white"/>
<path d="M13.0294 16.6925C13.2693 16.6925 13.5091 16.5998 13.6903 16.4152C14.0503 16.0547 14.0503 15.4702 13.6903 15.1102C13.3298 14.7497 12.7454 14.7497 12.3849 15.1102L12.3695 15.1256C12.0128 15.4894 12.02 16.073 12.3839 16.4296C12.5632 16.6055 12.7963 16.6925 13.0294 16.6925Z" fill="white"/>
<path d="M7.17227 36.0188C7.10739 35.5174 6.64932 35.1618 6.14752 35.2214C5.64188 35.2819 5.28043 35.7409 5.34051 36.2471L5.3458 36.2841C5.41309 36.7426 5.80674 37.0714 6.25711 37.0714C6.30133 37.0714 6.34651 37.068 6.39218 37.0613C6.89446 36.9882 7.24293 36.521 7.17227 36.0188Z" fill="white"/>
<path d="M6.01298 33.3753C6.02259 33.3753 6.03172 33.3758 6.04086 33.3758C6.53785 33.3758 6.94833 32.9802 6.96275 32.4798L6.96371 32.4404C6.96371 31.9305 6.55035 31.5176 6.04086 31.5176C5.53473 31.5176 5.12425 31.9242 5.11801 32.4284C5.10455 32.9369 5.50493 33.3604 6.01298 33.3753Z" fill="white"/>
<path d="M6.21546 29.6758C6.27074 29.6854 6.32505 29.6902 6.37936 29.6902C6.81772 29.6902 7.20657 29.3763 7.28684 28.9298C7.28924 28.9163 7.29116 28.9029 7.29308 28.8894C7.36758 28.3852 7.01911 27.9161 6.51443 27.8421C6.01599 27.7681 5.54928 28.1108 5.46901 28.6078C5.38153 29.1086 5.7151 29.5859 6.21546 29.6758Z" fill="white"/>
<path d="M49.7478 19.639C49.9266 19.8985 50.214 20.0374 50.5072 20.0374C50.6875 20.0374 50.8701 19.9846 51.0297 19.8745C51.4493 19.5861 51.5555 19.0112 51.2671 18.5911L50.5 19.1045L51.2642 18.5868C50.9778 18.1648 50.4039 18.0547 49.9823 18.3407C49.5603 18.6267 49.4502 19.2006 49.7362 19.6226L49.7478 19.639Z" fill="white"/>
<path d="M54.4608 28.9238C53.9542 28.9805 53.5898 29.4376 53.647 29.9442L53.6518 29.9841C53.7177 30.4441 54.1128 30.7762 54.5646 30.7762C54.6078 30.7762 54.6521 30.7734 54.6963 30.7671C55.1966 30.6955 55.5456 30.2346 55.4807 29.7347C55.4226 29.2295 54.964 28.8671 54.4608 28.9238Z" fill="white"/>
<path d="M52.9034 26.3205L52.9073 26.3325C53.0255 26.7348 53.3932 26.9953 53.7922 26.9953C53.8782 26.9953 53.9657 26.9833 54.0527 26.9574C54.542 26.8137 54.8217 26.3008 54.678 25.8115L54.6741 25.7995C54.5304 25.3102 54.0176 25.0304 53.5283 25.1746C53.0394 25.3183 52.7597 25.8312 52.9034 26.3205Z" fill="white"/>
<path d="M51.5999 22.8693C51.7609 23.1967 52.0901 23.3875 52.4324 23.3875C52.5684 23.3875 52.7068 23.3572 52.8371 23.2928C53.2942 23.0678 53.484 22.518 53.2586 22.0604L52.4223 22.4502L53.2576 22.0585C53.0414 21.5971 52.492 21.3985 52.0305 21.6148C51.5691 21.8311 51.3701 22.3805 51.5864 22.8419L51.5999 22.8693Z" fill="white"/>
<path d="M47.4235 16.7559C47.6043 16.9404 47.8432 17.0327 48.0825 17.0327C48.3156 17.0327 48.5488 16.9452 48.7285 16.7688C49.09 16.4151 49.0981 15.8369 48.7497 15.4725C48.4041 15.1 47.8215 15.0774 47.4476 15.4225C47.0731 15.7681 47.0501 16.3521 47.3957 16.7265L47.4235 16.7559Z" fill="white"/>
<path d="M54.7603 32.7777C54.2532 32.7647 53.8288 33.1622 53.811 33.6693C53.788 34.1744 54.1759 34.6046 54.6815 34.633C54.6993 34.6339 54.7161 34.6344 54.7339 34.6344C55.2198 34.6344 55.6269 34.2542 55.6543 33.7625L55.6558 33.7245C55.6702 33.2155 55.2693 32.7926 54.7603 32.7777Z" fill="white"/>
<path d="M41.5219 12.2244L41.544 12.2364C41.6814 12.3094 41.829 12.344 41.9742 12.344C42.3024 12.344 42.6202 12.1672 42.7869 11.8571C43.0273 11.4097 42.8581 10.8502 42.412 10.6079L41.9655 11.4154L42.4091 10.606C41.9621 10.3609 41.4012 10.5248 41.1561 10.9718C40.9114 11.4183 41.0749 11.9797 41.5219 12.2244Z" fill="white"/>
<path d="M44.6433 14.2489L44.6577 14.2599C44.8245 14.3863 45.0201 14.4474 45.2148 14.4474C45.4935 14.4474 45.7689 14.3215 45.9506 14.0821C46.2587 13.6759 46.1789 13.0972 45.7733 12.7891L45.767 12.7848C45.3628 12.4743 44.7836 12.5503 44.4731 12.9545C44.1626 13.3587 44.239 13.9384 44.6433 14.2489Z" fill="white"/>
<path d="M62.4304 46.7492L58.0983 42.4094C57.7297 42.0402 57.2399 41.8369 56.7184 41.8369C56.1973 41.8369 55.7071 42.0402 55.3389 42.4094L55.2384 42.5098L54.9539 42.2253C54.6025 41.873 54.3305 41.463 54.1459 41.0164C54.1296 40.9573 54.1079 40.8996 54.0801 40.8453C53.9388 40.4483 53.8652 40.0258 53.8652 39.5918V38.3642C53.9493 38.4084 54.0411 38.4406 54.1397 38.4574C54.1925 38.4666 54.2449 38.4709 54.2968 38.4709C54.7347 38.4709 55.1221 38.1585 55.2033 37.7144C55.3019 37.2154 54.9784 36.7305 54.479 36.6305C54.2593 36.5867 54.0421 36.6247 53.8594 36.7237C53.8027 35.4125 53.2668 34.1878 52.3343 33.2534L48.1315 29.0434C47.1885 28.0989 45.9345 27.5788 44.6006 27.5788C43.5682 27.5788 42.5848 27.8917 41.7552 28.4709L41.3091 28.0225V17.4674C41.3091 16.1951 40.8472 14.9675 40.009 14.0115C39.4125 13.3318 39.0842 12.459 39.0842 11.5534V10.7801H39.1477C40.2234 10.7801 41.0986 9.90479 41.0986 8.82861V2.68973C41.0986 1.61355 40.2234 0.738281 39.1477 0.738281H21.9091C20.8334 0.738281 19.9581 1.61355 19.9581 2.68973V8.82861C19.9581 9.90479 20.8334 10.7801 21.9091 10.7801H22.0513V11.1848C22.0513 12.1797 21.6644 13.1151 20.9622 13.8183L19.1016 15.6822C18.1143 16.6714 17.5707 17.986 17.5707 19.3847V25.3385C17.5707 26.1475 17.7649 26.9112 18.1066 27.588C16.8829 27.6586 15.7423 28.1686 14.8685 29.0434L10.6657 33.2534C9.67841 34.2426 9.13479 35.5577 9.13479 36.9559V39.5918C9.13479 40.5867 8.74834 41.5221 8.04611 42.2253L7.76493 42.5069C7.76349 42.5079 7.76253 42.5089 7.76157 42.5098L7.66159 42.4094C7.29293 42.0402 6.80315 41.8369 6.28164 41.8369C5.76061 41.8369 5.27035 42.0402 4.90217 42.4094L0.569572 46.7492C-0.189857 47.51 -0.189857 48.7482 0.569572 49.5091L2.05334 50.9948C2.41335 51.3557 2.99783 51.3562 3.35831 50.9962C3.7188 50.6357 3.71976 50.0517 3.35928 49.6908L1.87598 48.2046C1.83417 48.1628 1.83417 48.095 1.87598 48.0532L6.20858 43.7134C6.24895 43.673 6.3148 43.6725 6.35518 43.7134L7.10836 44.468H7.10884L17.3933 54.7703L18.5455 55.9248C18.5873 55.9666 18.5873 56.0344 18.5455 56.0762L14.2134 60.416C14.1725 60.4569 14.1067 60.4569 14.0663 60.416L5.9721 52.3079C5.61209 51.9469 5.02762 51.9465 4.66713 52.3065C4.30616 52.667 4.30568 53.2509 4.66569 53.6119L12.7603 61.72C13.1285 62.0892 13.6188 62.2925 14.1403 62.2925C14.6613 62.2925 15.1511 62.0892 15.5198 61.72L19.8519 57.3802C20.6113 56.6198 20.6113 55.3817 19.8519 54.6208L19.8048 54.5737L20.3513 54.0262C20.9896 53.3865 21.8375 53.002 22.7387 52.9438C24.0071 52.8616 25.2006 52.3204 26.0989 51.4201L30.0787 47.4317C31.2265 47.1303 32.12 46.1955 32.3628 45.0246C32.7718 45.2192 33.2289 45.3288 33.7115 45.3288C35.4471 45.3288 36.8593 43.9152 36.8593 42.1772V39.9859C37.2563 40.1671 37.697 40.269 38.1614 40.269C39.897 40.269 41.3087 38.8554 41.3087 37.1174V30.6392L44.1474 33.4918C44.3276 33.673 44.5646 33.7634 44.8016 33.7634C45.0371 33.7634 45.2726 33.674 45.4528 33.4947C45.8138 33.1352 45.8153 32.5512 45.4557 32.1897L43.089 29.8115C43.5471 29.5591 44.0633 29.4245 44.6006 29.4245C45.4408 29.4245 46.231 29.7524 46.8251 30.3479L51.0279 34.5574C51.6672 35.1981 52.0195 36.0499 52.0195 36.9559V39.5918C52.0195 41.0794 52.5977 42.4776 53.6475 43.5293L53.9339 43.8162L52.5953 45.1572L44.4992 53.2673L44.0479 52.815C44.0431 52.8107 44.0388 52.8059 44.034 52.8015L43.9547 52.7217C42.9991 51.7648 41.7297 51.1894 40.381 51.1019C39.5605 51.0486 38.7886 50.6987 38.2046 50.1142L35.1722 47.0981C34.8107 46.7386 34.2263 46.74 33.8667 47.1015C33.5077 47.4629 33.5091 48.0474 33.8706 48.4065L36.9011 51.4201C37.7994 52.3204 38.9929 52.8616 40.2618 52.9438C41.1625 53.002 42.0104 53.3865 42.6487 54.0258L42.6934 54.0705C42.7175 54.0979 42.7429 54.1233 42.7698 54.1474L43.1952 54.5732L43.1481 54.6208C42.3887 55.3817 42.3887 56.6194 43.1481 57.3802L47.4802 61.72C47.8489 62.0892 48.3387 62.2925 48.8602 62.2925C49.3812 62.2925 49.8715 62.0892 50.2401 61.72L62.4304 49.5086C63.1899 48.7477 63.1899 47.51 62.4304 46.7492ZM54.4838 37.5726L54.4665 37.5697L54.2983 37.5355L54.4838 37.5726ZM24.7925 50.1161C24.2114 50.6987 23.4395 51.0486 22.6195 51.1019C21.2703 51.1894 20.0009 51.7648 19.0453 52.7217L18.5008 53.2673L18.0105 52.7761C18.0043 52.7698 17.998 52.7631 17.9918 52.7573L9.06606 43.8162L9.35252 43.5293C10.4023 42.4776 10.9805 41.0794 10.9805 39.5918V36.9559C10.9805 36.0499 11.3323 35.1981 11.9721 34.5574L16.1749 30.3479C16.769 29.7524 17.5592 29.4245 18.3994 29.4245C18.9382 29.4245 19.4563 29.5601 19.9158 29.8144L17.5452 32.1888C17.1852 32.5493 17.1857 33.1337 17.5462 33.4937C17.7264 33.6735 17.9624 33.7634 18.1984 33.7634C18.4349 33.7634 18.6714 33.673 18.8516 33.4928L21.6832 30.656V42.1772C21.6832 43.9152 23.0953 45.3288 24.831 45.3288C25.3203 45.3288 25.7836 45.2164 26.197 45.0164C26.3844 45.9311 26.9689 46.7021 27.761 47.1414L24.7925 50.1161ZM39.4634 37.1179C39.4634 37.8379 38.879 38.4238 38.1614 38.4238C37.4433 38.4238 36.8593 37.8379 36.8593 37.1179V26.8237C36.8593 26.3142 36.4464 25.9009 35.9364 25.9009C35.4264 25.9009 35.0136 26.3142 35.0136 26.8237V42.1777C35.0136 42.8977 34.4296 43.4831 33.7115 43.4831C33.0669 43.4831 32.532 43.0111 32.4286 42.3935V26.8132C32.4286 26.3032 32.0157 25.8903 31.5058 25.8903C31.3419 25.8903 31.1876 25.9336 31.054 26.0086C30.7622 26.1638 30.5637 26.4705 30.5637 26.8237V42.1772C30.5637 42.2945 30.5704 42.4094 30.5829 42.5233V44.3829C30.5829 45.1029 29.9989 45.6888 29.2808 45.6888C28.5632 45.6888 27.9792 45.1029 27.9792 44.3829V26.8021C27.9792 26.2926 27.5659 25.8793 27.0564 25.8793C26.5464 25.8793 26.133 26.2926 26.133 26.8021V42.1772C26.133 42.8972 25.549 43.4831 24.8314 43.4831C24.1133 43.4831 23.5294 42.8972 23.5294 42.1772V25.0107C23.5294 24.5007 23.116 24.0874 22.6065 24.0874C22.0965 24.0874 21.6836 24.5007 21.6836 25.0107V28.1859C21.6063 28.2109 21.5313 28.246 21.4616 28.2921C20.2681 27.8437 19.4164 26.6892 19.4164 25.3385V19.3847C19.4164 18.4787 19.7687 17.6269 20.408 16.9862L22.2686 15.1223C23.3188 14.0706 23.897 12.6724 23.897 11.1848V10.7801H25.7524C26.2623 10.7801 26.6752 10.3667 26.6752 9.85721C26.6752 9.34724 26.2623 8.93436 25.7524 8.93436H21.9091C21.8509 8.93436 21.8038 8.88677 21.8038 8.82861V2.68973C21.8038 2.63157 21.8509 2.58398 21.9091 2.58398H39.1472C39.2058 2.58398 39.2529 2.63157 39.2529 2.68973V8.82861C39.2529 8.88725 39.2058 8.93436 39.1472 8.93436H30.085C29.5755 8.93436 29.1621 9.34724 29.1621 9.85721C29.1621 10.3667 29.5755 10.7801 30.085 10.7801H37.2385V11.5534C37.2385 12.9069 37.7292 14.2119 38.6209 15.229C39.164 15.8481 39.4634 16.6431 39.4634 17.4674V37.1179ZM61.124 48.2046L48.9337 60.416C48.9135 60.4367 48.889 60.4468 48.8602 60.4468C48.8318 60.4468 48.8073 60.4367 48.7866 60.416L44.4545 56.0762C44.4127 56.0344 44.4127 55.9666 44.4545 55.9248L45.152 55.2259L45.1524 55.2255L52.2291 48.1368L56.6448 43.7134C56.6852 43.6725 56.751 43.6725 56.7914 43.7134L61.124 48.0532C61.1658 48.095 61.1658 48.1628 61.124 48.2046Z" fill="white"/>
<path d="M24.8311 4.77539C24.2894 4.77539 23.8486 5.21711 23.8486 5.75977C23.8486 6.3029 24.2894 6.74414 24.8311 6.74414C25.3733 6.74414 25.814 6.3029 25.814 5.75977C25.814 5.21711 25.3733 4.77539 24.8311 4.77539Z" fill="white"/>
<path d="M57.02 46.8418C56.4779 46.8418 56.0371 47.2835 56.0371 47.8262C56.0371 48.3688 56.4779 48.8105 57.02 48.8105C57.5617 48.8105 58.0025 48.3688 58.0025 47.8262C58.0025 47.2835 57.5617 46.8418 57.02 46.8418Z" fill="white"/>
<path d="M15.379 56.2578C15.379 55.7152 14.9382 55.2734 14.3965 55.2734C13.8543 55.2734 13.4136 55.7152 13.4136 56.2578C13.4136 56.8005 13.8543 57.2422 14.3965 57.2422C14.9382 57.2422 15.379 56.8005 15.379 56.2578Z" fill="white"/>
</g>
<defs>
<clipPath id="clip0_327:124">
<rect width="63" height="63" fill="white"/>
</clipPath>
</defs>
</svg>
