<svg width="62" height="62" viewBox="0 0 62 62" fill="none" xmlns="http://www.w3.org/2000/svg">
<path d="M45.9208 37.81L45.2833 41.5261C45.2249 41.8662 45.3647 42.2099 45.6438 42.4127C45.9229 42.6155 46.2927 42.6424 46.5984 42.4817L49.9359 40.7272L53.2733 42.4817C53.406 42.5515 53.5508 42.5858 53.6949 42.5858C53.883 42.5858 54.07 42.5274 54.2278 42.4126C54.507 42.2098 54.6468 41.8662 54.5883 41.5261L53.951 37.8099L56.6511 35.1779C56.8981 34.9371 56.9869 34.5768 56.8803 34.2487C56.7737 33.9206 56.4901 33.6814 56.1487 33.6318L52.4173 33.0895L50.7486 29.7084C50.5958 29.399 50.2807 29.2031 49.9357 29.2031C49.5906 29.2031 49.2755 29.399 49.1228 29.7084L47.4538 33.0895L43.7226 33.6318C43.3813 33.6814 43.0975 33.9207 42.9909 34.2487C42.8843 34.5767 42.9733 34.937 43.2202 35.1779L45.9208 37.81ZM48.1866 34.8151C48.4817 34.7723 48.737 34.5867 48.869 34.3192L49.9359 32.1576L51.0026 34.3192C51.1347 34.5867 51.3899 34.7721 51.685 34.8151L54.0705 35.1617L52.3443 36.8444C52.1306 37.0527 52.0332 37.3526 52.0837 37.6467L52.4912 40.0223L50.3577 38.9008C50.2256 38.8314 50.0808 38.7967 49.9359 38.7967C49.7911 38.7967 49.6462 38.8314 49.5141 38.9008L47.3806 40.0223L47.7881 37.6468C47.8386 37.3526 47.7411 37.0527 47.5275 36.8443L45.8014 35.1617L48.1866 34.8151Z" fill="white"/>
<path d="M7.72868 28.728L7.09114 32.4441C7.03276 32.7842 7.1726 33.1279 7.45166 33.3307C7.73073 33.5335 8.10069 33.5604 8.40622 33.3997L11.7438 31.6452L15.0811 33.3997C15.2138 33.4694 15.3586 33.5038 15.5028 33.5038C15.6909 33.5038 15.8778 33.4454 16.0357 33.3306C16.3149 33.1278 16.4547 32.7842 16.3962 32.4441L15.7589 28.7278L18.4589 26.0958C18.706 25.8551 18.7948 25.4948 18.6882 25.1667C18.5816 24.8385 18.2979 24.5993 17.9565 24.5498L14.2252 24.0076L12.5565 20.6264C12.4037 20.317 12.0886 20.1211 11.7435 20.1211C11.3985 20.1211 11.0834 20.317 10.9306 20.6264L9.26167 24.0075L5.53046 24.5498C5.18915 24.5993 4.90537 24.8387 4.79877 25.1667C4.69217 25.4947 4.78112 25.855 5.02804 26.0958L7.72868 28.728ZM9.99445 25.7331C10.2896 25.6904 10.5449 25.5048 10.6768 25.2373L11.7438 23.0757L12.8105 25.2373C12.9426 25.5048 13.1977 25.6902 13.4929 25.7331L15.8783 26.0798L14.1522 27.7625C13.9385 27.9708 13.8411 28.2707 13.8916 28.5648L14.299 30.9404L12.1656 29.8188C12.0335 29.7495 11.8887 29.7148 11.7438 29.7148C11.599 29.7148 11.4541 29.7495 11.322 29.8188L9.18843 30.9404L9.59598 28.5649C9.64649 28.2707 9.54896 27.9708 9.3354 27.7625L7.60927 26.0798L9.99445 25.7331Z" fill="white"/>
<path d="M25.7809 6.01331V7.11519C25.7809 9.70246 27.6617 11.8573 30.1275 12.2883V14.8308C27.9062 15.1924 26.1453 16.9394 25.7619 19.1533H24.4932C23.3242 19.1533 23.3242 20.9662 24.4932 20.9662H37.507C38.6761 20.9662 38.6761 19.1533 37.507 19.1533H36.2013C35.8239 16.9744 34.1122 15.2483 31.9406 14.8496V12.2882C34.4064 11.8573 36.2872 9.70234 36.2872 7.11507V6.00376C37.4444 5.84809 38.3642 5.38326 39.0275 4.61458C40.3695 3.05899 40.0626 0.866088 40.049 0.77363C39.983 0.329225 39.6016 0 39.1522 0H35.3806H35.3371H26.6875C26.6834 0 26.6795 0.000604304 26.6754 0.000604304C26.6713 0.000604304 26.6674 0 26.6633 0H22.8481C22.3987 0 22.0173 0.329225 21.9514 0.77363C21.9378 0.866209 21.6309 3.05899 22.9729 4.61458C23.649 5.39849 24.5914 5.86706 25.7809 6.01331ZM34.3479 19.1534H27.6152C28.0152 17.6695 29.3729 16.574 30.9817 16.574C32.5902 16.574 33.9478 17.6694 34.3479 19.1534ZM37.6546 3.43039C37.3348 3.80107 36.8765 4.0469 36.2871 4.16631V1.81291H38.2612C38.2185 2.30711 38.0741 2.94405 37.6546 3.43039ZM27.5938 1.81291H34.4742V5.0515C34.4702 5.08606 34.4675 5.12111 34.4675 5.15689C34.4675 5.19266 34.4701 5.22759 34.4742 5.26228V7.11519C34.4742 9.01198 32.9309 10.5553 31.034 10.5553C29.1371 10.5553 27.5938 9.01198 27.5938 7.11519V1.81291ZM25.7809 1.81291V4.17888C25.1627 4.06576 24.6835 3.81835 24.352 3.43776C23.9276 2.95094 23.7821 2.30977 23.7392 1.81291H25.7809Z" fill="white"/>
<path d="M61.0341 60.1873H59.6341V48.3101C59.6341 47.025 58.5889 45.9795 57.3042 45.9795H41.7073C41.4845 45.9795 41.2695 46.0129 41.0652 46.0716V26.9341C41.0652 25.649 40.0202 24.6035 38.7357 24.6035H23.139C21.8546 24.6035 20.8097 25.649 20.8097 26.9341V36.5692C20.6431 36.5313 20.4707 36.5094 20.2929 36.5094H4.69615C3.4114 36.5094 2.3662 37.5546 2.3662 38.8395V45.9258C2.3662 47.0949 4.17911 47.0949 4.17911 45.9258V38.8395C4.17911 38.5543 4.41104 38.3223 4.69615 38.3223H20.2928C20.5777 38.3223 20.8096 38.5543 20.8096 38.8395V60.1873H4.17911V50.3976C4.17911 49.2285 2.3662 49.2285 2.3662 50.3976V60.1873H0.96627C0.465544 60.1873 0.0598145 60.5931 0.0598145 61.0938C0.0598145 61.5945 0.465544 62.0002 0.96627 62.0002H61.0341C61.5348 62.0002 61.9405 61.5945 61.9405 61.0938C61.9405 60.5931 61.5347 60.1873 61.0341 60.1873ZM22.6225 60.1873V38.8395V26.9341C22.6225 26.6487 22.8542 26.4164 23.1389 26.4164H38.7357C39.0205 26.4164 39.2523 26.6487 39.2523 26.9341V60.1875H22.6225V60.1873ZM41.1907 60.1873V48.3101C41.1907 48.0248 41.4225 47.7925 41.7073 47.7925H57.3041C57.5892 47.7925 57.8211 48.0248 57.8211 48.3101V60.1873H41.1907Z" fill="white"/>
</svg>
