<svg width="50" height="50" viewBox="0 0 50 50" fill="none" xmlns="http://www.w3.org/2000/svg">
<circle cx="25" cy="25" r="25" fill="url(#paint0_linear)"/>
<path d="M24.5 13C21.9814 13.003 19.5667 13.9973 17.7858 15.7648C16.0049 17.5324 15.003 19.9289 15 22.4286C15 30.4961 23.6364 36.5898 24.0041 36.8451C24.1495 36.9459 24.3226 37 24.5 37C24.6774 37 24.8505 36.9459 24.9959 36.8451C25.3636 36.5898 34 30.4961 34 22.4286C33.997 19.9289 32.9951 17.5324 31.2142 15.7648C29.4333 13.9973 27.0186 13.003 24.5 13ZM24.5006 19.0003C25.1839 19.0003 25.8518 19.2014 26.4199 19.5781C26.988 19.9549 27.4308 20.4903 27.6922 21.1168C27.9537 21.7433 28.0221 22.4327 27.8888 23.0978C27.7555 23.7628 27.4265 24.3737 26.9434 24.8532C26.4603 25.3327 25.8447 25.6593 25.1746 25.7916C24.5045 25.9239 23.8099 25.856 23.1787 25.5965C22.5474 25.337 22.0079 24.8975 21.6283 24.3337C21.2487 23.7699 21.0461 23.107 21.0461 22.4289C21.0461 21.5196 21.4101 20.6475 22.0579 20.0045C22.7058 19.3615 23.5844 19.0003 24.5006 19.0003Z" fill="white"/>
<defs>
<linearGradient id="paint0_linear" x1="7" y1="4.5" x2="36.5" y2="50" gradientUnits="userSpaceOnUse">
<stop stop-color="#F23599"/>
<stop offset="1" stop-color="#B33CF5"/>
</linearGradient>
</defs>
</svg>
