<svg width="180" height="33" viewBox="0 0 180 33" fill="none" xmlns="http://www.w3.org/2000/svg">
<path d="M175.258 17.1959C173.419 17.1959 171.907 16.8309 170.721 16.1007C169.536 15.3706 168.677 14.4427 168.145 13.3171C167.613 12.1763 167.347 10.9822 167.347 9.73494C167.347 8.25948 167.712 6.96655 168.441 5.85614C169.186 4.74574 170.166 3.89393 171.382 3.3007C172.598 2.70747 173.905 2.41086 175.304 2.41086C176.018 2.41086 176.755 2.47931 177.515 2.61621C178.275 2.7531 178.883 2.92043 179.339 3.11817C179.46 3.19422 179.536 3.26267 179.567 3.32352C179.612 3.38436 179.635 3.49084 179.635 3.64295L179.818 6.54064C179.818 6.58627 179.78 6.60909 179.704 6.60909C179.643 6.60909 179.597 6.58627 179.567 6.54064C179.08 5.3846 178.396 4.50237 177.515 3.89393C176.633 3.28549 175.608 2.98127 174.437 2.98127C172.917 2.98127 171.74 3.52126 170.904 4.60124C170.083 5.66601 169.673 7.14147 169.673 9.02763C169.673 10.4118 169.923 11.7048 170.425 12.9064C170.926 14.0929 171.61 15.036 172.477 15.7357C173.343 16.4354 174.293 16.7852 175.326 16.7852C177.059 16.7852 178.533 15.614 179.749 13.2715C179.78 13.2107 179.825 13.1878 179.886 13.203C179.962 13.2183 180 13.2563 180 13.3171L179.84 15.9182C179.81 16.1159 179.772 16.2452 179.726 16.3061C179.696 16.3517 179.62 16.3974 179.498 16.443C178.115 16.9449 176.702 17.1959 175.258 17.1959Z" fill="#242421"/>
<path d="M165.893 16.6487C165.939 16.6487 165.961 16.6944 165.961 16.7856C165.977 16.8769 165.954 16.9225 165.893 16.9225C165.452 16.9225 165.103 16.9149 164.844 16.8997L163.18 16.8769L161.607 16.8997C161.349 16.9149 160.976 16.9225 160.49 16.9225C160.444 16.9225 160.422 16.8769 160.422 16.7856C160.422 16.6944 160.444 16.6487 160.49 16.6487C160.991 16.6487 161.356 16.6107 161.584 16.5347C161.812 16.4586 161.964 16.3141 162.04 16.1011C162.131 15.873 162.162 15.5307 162.131 15.0744L161.812 4.21377L157.253 16.7628C157.253 16.8237 157.199 16.8541 157.093 16.8541C157.002 16.8541 156.941 16.8161 156.911 16.74L151.781 4.64728L151.736 14.1161C151.72 14.9375 151.857 15.5688 152.146 16.0099C152.45 16.4358 152.898 16.6487 153.491 16.6487C153.521 16.6487 153.537 16.6944 153.537 16.7856C153.552 16.8769 153.537 16.9225 153.491 16.9225C153.111 16.9225 152.815 16.9149 152.602 16.8997L151.325 16.8769L150.208 16.8997C149.98 16.9149 149.661 16.9225 149.251 16.9225C149.22 16.9225 149.205 16.8769 149.205 16.7856C149.205 16.6944 149.22 16.6487 149.251 16.6487C149.828 16.6487 150.277 16.4358 150.596 16.0099C150.915 15.5688 151.074 14.9527 151.074 14.1617L151.188 3.68899C150.702 3.18702 150.079 2.93604 149.319 2.93604C149.273 2.93604 149.251 2.89041 149.251 2.79914C149.251 2.70788 149.273 2.66225 149.319 2.66225C149.577 2.66225 149.775 2.66985 149.912 2.68506L150.801 2.70788L152.1 2.68506C152.237 2.66985 152.404 2.66225 152.602 2.66225C152.8 2.66225 152.959 2.7383 153.081 2.89041C153.217 3.04252 153.392 3.36195 153.605 3.8487L157.823 13.7282L161.584 3.23266C161.645 3.06534 161.744 2.92844 161.881 2.82196C162.017 2.71548 162.177 2.66225 162.359 2.66225C162.572 2.66225 162.747 2.66985 162.884 2.68506L163.796 2.70788L164.822 2.68506C164.973 2.66985 165.194 2.66225 165.483 2.66225C165.528 2.66225 165.551 2.70788 165.551 2.79914C165.551 2.89041 165.536 2.93604 165.505 2.93604C164.958 2.93604 164.556 3.0197 164.297 3.18702C164.039 3.35435 163.91 3.67378 163.91 4.14532C163.91 4.28222 163.917 4.38869 163.932 4.46475L164.252 15.0744C164.282 15.5307 164.335 15.873 164.411 16.1011C164.502 16.3141 164.654 16.4586 164.867 16.5347C165.08 16.6107 165.422 16.6487 165.893 16.6487Z" fill="#242421"/>
<path d="M139.682 17.0134C139.257 17.0134 138.778 16.9906 138.246 16.9449C138.048 16.9297 137.798 16.9145 137.494 16.8993C137.19 16.8841 136.855 16.8765 136.49 16.8765L134.849 16.8993C134.575 16.9145 134.196 16.9221 133.709 16.9221C133.679 16.9221 133.664 16.8765 133.664 16.7852C133.664 16.694 133.679 16.6483 133.709 16.6483C134.196 16.6483 134.553 16.6103 134.781 16.5342C135.024 16.4582 135.183 16.3137 135.259 16.1007C135.351 15.8726 135.389 15.5303 135.373 15.074V4.50996C135.358 4.05363 135.305 3.71899 135.214 3.50604C135.123 3.29308 134.963 3.14858 134.735 3.07252C134.507 2.98126 134.165 2.93563 133.709 2.93563C133.679 2.93563 133.664 2.88999 133.664 2.79873C133.664 2.70746 133.679 2.66183 133.709 2.66183L134.826 2.68465C135.495 2.71507 136.035 2.73028 136.445 2.73028C136.946 2.73028 137.448 2.70746 137.95 2.66183C138.588 2.63141 139.051 2.6162 139.34 2.6162C140.906 2.6162 142.296 2.91281 143.512 3.50604C144.728 4.09927 145.67 4.92066 146.339 5.97022C147.008 7.01977 147.342 8.21383 147.342 9.5524C147.342 11.0127 146.985 12.3132 146.271 13.454C145.572 14.5796 144.637 15.4543 143.467 16.0779C142.296 16.7016 141.035 17.0134 139.682 17.0134ZM139.477 16.6027C140.571 16.6027 141.529 16.3517 142.35 15.8497C143.185 15.3326 143.831 14.5796 144.287 13.5909C144.743 12.6022 144.971 11.4233 144.971 10.0544C144.971 8.83748 144.766 7.69666 144.356 6.63189C143.945 5.56713 143.315 4.7001 142.463 4.03082C141.612 3.36153 140.564 3.02689 139.317 3.02689C138.618 3.02689 138.14 3.14097 137.881 3.36914C137.638 3.58209 137.516 3.97758 137.516 4.55559V14.823C137.532 15.4619 137.668 15.9182 137.927 16.192C138.2 16.4658 138.717 16.6027 139.477 16.6027Z" fill="#242421"/>
<path d="M127.427 2.66225C127.503 2.66225 127.541 2.70788 127.541 2.79914C127.541 2.89041 127.503 2.93604 127.427 2.93604C126.895 2.93604 126.394 3.13379 125.922 3.52927C125.451 3.90955 124.98 4.50277 124.509 5.30896L122.024 9.82662V15.0744C122.039 15.5459 122.085 15.8882 122.161 16.1011C122.252 16.3141 122.419 16.4586 122.662 16.5347C122.905 16.6107 123.301 16.6487 123.848 16.6487C123.909 16.6487 123.939 16.6944 123.939 16.7856C123.939 16.8769 123.909 16.9225 123.848 16.9225C123.346 16.9225 122.951 16.9149 122.662 16.8997L120.975 16.8769L119.174 16.8997C118.885 16.9149 118.498 16.9225 118.012 16.9225C117.951 16.9225 117.92 16.8769 117.92 16.7856C117.92 16.6944 117.951 16.6487 118.012 16.6487C118.559 16.6487 118.961 16.6107 119.22 16.5347C119.493 16.4434 119.676 16.2913 119.767 16.0783C119.873 15.8654 119.919 15.5307 119.904 15.0744L119.881 10.0776L116.256 4.55601C115.876 3.97799 115.519 3.5673 115.185 3.32392C114.85 3.06534 114.493 2.93604 114.113 2.93604C114.052 2.93604 114.022 2.89041 114.022 2.79914C114.022 2.70788 114.045 2.66225 114.09 2.66225L115.185 2.68506C115.671 2.71548 116.043 2.7307 116.302 2.7307C116.697 2.7307 117.274 2.71548 118.034 2.68506L119.174 2.66225C119.22 2.66225 119.243 2.69267 119.243 2.75351C119.243 2.79914 119.227 2.84478 119.197 2.89041C119.182 2.92083 119.159 2.93604 119.129 2.93604C118.384 2.93604 118.012 3.06534 118.012 3.32392C118.012 3.46082 118.088 3.63575 118.24 3.8487L121.705 9.21057L123.985 4.94389C124.167 4.59404 124.258 4.27461 124.258 3.9856C124.258 3.66617 124.144 3.41519 123.916 3.23266C123.688 3.03491 123.369 2.93604 122.959 2.93604C122.898 2.93604 122.867 2.89041 122.867 2.79914C122.867 2.70788 122.89 2.66225 122.936 2.66225L124.099 2.68506C124.798 2.71548 125.352 2.7307 125.763 2.7307C126.021 2.7307 126.318 2.71548 126.652 2.68506L127.427 2.66225Z" fill="#242421"/>
<path d="M104.454 16.922C104.408 16.922 104.385 16.8764 104.385 16.7851C104.385 16.6939 104.401 16.6482 104.431 16.6482C105.054 16.6482 105.51 16.6102 105.799 16.5342C106.088 16.4581 106.285 16.3136 106.392 16.1007C106.498 15.8725 106.544 15.5302 106.528 15.0739V4.50989C106.544 3.9623 106.468 3.59723 106.3 3.4147C106.133 3.23217 105.799 3.1409 105.297 3.1409H104.91C104.043 3.1409 103.299 3.46033 102.676 4.09919C102.068 4.73806 101.695 5.57466 101.559 6.60901C101.559 6.63943 101.521 6.65464 101.445 6.65464C101.399 6.65464 101.353 6.64703 101.308 6.63182C101.277 6.6014 101.27 6.57858 101.285 6.56337C101.361 6.01578 101.475 4.54792 101.627 2.1598C101.627 2.11416 101.665 2.09135 101.741 2.09135C101.786 2.09135 101.824 2.09895 101.855 2.11416C101.9 2.12937 101.923 2.15219 101.923 2.18261C101.923 2.50204 102.265 2.66176 102.949 2.66176C104.18 2.70739 105.723 2.73021 107.577 2.73021C108.413 2.73021 109.348 2.715 110.381 2.68457L111.977 2.66176C112.479 2.66176 112.843 2.62373 113.071 2.54767C113.299 2.47162 113.444 2.31951 113.505 2.09135C113.535 2.04571 113.588 2.0305 113.664 2.04571C113.755 2.04571 113.793 2.07613 113.778 2.13698C113.732 2.79105 113.687 3.61244 113.641 4.60116C113.596 5.57466 113.581 6.22873 113.596 6.56337C113.596 6.609 113.55 6.63182 113.459 6.63182C113.337 6.63182 113.277 6.6014 113.277 6.54056C113.292 5.52142 113.011 4.70003 112.433 4.07638C111.871 3.45273 111.126 3.1409 110.199 3.1409H109.788C109.439 3.1409 109.188 3.17893 109.036 3.25498C108.884 3.33104 108.785 3.46794 108.74 3.66568C108.694 3.84821 108.664 4.14483 108.649 4.55552L108.694 15.0739C108.694 15.5455 108.74 15.8877 108.831 16.1007C108.937 16.3136 109.127 16.4581 109.401 16.5342C109.69 16.6102 110.146 16.6482 110.769 16.6482C110.814 16.6482 110.837 16.6939 110.837 16.7851C110.837 16.8764 110.814 16.922 110.769 16.922C110.237 16.922 109.819 16.9144 109.515 16.8992L107.6 16.8764L105.776 16.8992C105.457 16.9144 105.016 16.922 104.454 16.922Z" fill="#242421"/>
<path d="M92.9194 4.98912C92.9194 5.55192 93.0638 6.05389 93.3525 6.49501C93.6413 6.93612 93.9909 7.3164 94.4012 7.63583C94.8268 7.94005 95.4043 8.32793 96.1338 8.79947C96.8938 9.27101 97.5017 9.6817 97.9577 10.0316C98.4288 10.3814 98.824 10.8149 99.1431 11.3321C99.4623 11.8341 99.6219 12.4197 99.6219 13.089C99.6219 14.3363 99.1811 15.3326 98.2996 16.0779C97.4181 16.8233 96.2554 17.1959 94.8116 17.1959C94.1732 17.1959 93.5045 17.1123 92.8054 16.9449C92.1062 16.7776 91.5819 16.5723 91.2323 16.3289C91.1563 16.2833 91.1031 16.23 91.0728 16.1692C91.0576 16.1083 91.0424 16.0171 91.0272 15.8954L90.8676 12.4273C90.8524 12.3664 90.8828 12.3284 90.9588 12.3132C91.05 12.298 91.1107 12.3208 91.1411 12.3817C91.6275 13.629 92.205 14.6633 92.8738 15.4847C93.5425 16.2909 94.3784 16.694 95.3815 16.694C96.035 16.694 96.567 16.519 96.9774 16.1692C97.4029 15.8041 97.6157 15.2033 97.6157 14.3667C97.6157 13.667 97.4561 13.0585 97.1369 12.5414C96.833 12.0242 96.453 11.5831 95.9971 11.218C95.5563 10.853 94.9636 10.4423 94.2188 9.98592C93.5197 9.54481 92.9574 9.16453 92.5318 8.8451C92.1214 8.51046 91.7719 8.11497 91.4831 7.65865C91.2095 7.20232 91.0728 6.66993 91.0728 6.06149C91.0728 5.27052 91.2931 4.60124 91.7339 4.05364C92.1746 3.49084 92.7446 3.08014 93.4437 2.82155C94.158 2.54776 94.9104 2.41086 95.7007 2.41086C96.2022 2.41086 96.719 2.4641 97.2509 2.57057C97.7981 2.66184 98.254 2.78353 98.6188 2.93564C98.8468 3.05732 98.9608 3.20183 98.9608 3.36915L99.0063 6.47219C99.0063 6.51782 98.9608 6.55585 98.8696 6.58627C98.7936 6.60148 98.748 6.57867 98.7328 6.51782C98.4592 5.6508 98.0488 4.8294 97.5017 4.05364C96.9546 3.26267 96.1794 2.86719 95.1763 2.86719C94.4772 2.86719 93.9225 3.07254 93.5121 3.48323C93.1169 3.87872 92.9194 4.38068 92.9194 4.98912Z" fill="#242421"/>
<path d="M89.3776 16.6484C89.4232 16.6484 89.446 16.6941 89.446 16.7853C89.446 16.8766 89.4232 16.9222 89.3776 16.9222C89.1041 16.9222 88.6937 16.907 88.1466 16.8766C87.5082 16.8462 87.0067 16.831 86.6419 16.831C86.2772 16.831 85.806 16.8462 85.2285 16.8766C84.7117 16.907 84.3166 16.9222 84.043 16.9222C83.9822 16.9222 83.9518 16.8766 83.9518 16.7853C83.9518 16.6941 83.9822 16.6484 84.043 16.6484C84.5293 16.6484 84.8713 16.6028 85.0689 16.5115C85.2817 16.4051 85.388 16.2225 85.388 15.964C85.388 15.751 85.3044 15.4316 85.1373 15.0057L83.1083 9.91759H79.4606L77.7964 13.9561C77.5532 14.5493 77.4316 15.0361 77.4316 15.4164C77.4316 15.8575 77.5912 16.1769 77.9104 16.3746C78.2448 16.5572 78.7539 16.6484 79.4378 16.6484C79.4986 16.6484 79.529 16.6941 79.529 16.7853C79.529 16.8766 79.491 16.9222 79.415 16.9222C79.2175 16.9222 78.8147 16.907 78.2068 16.8766C77.4772 16.8462 76.9225 16.831 76.5425 16.831C76.1778 16.831 75.7522 16.8462 75.2659 16.8766C74.8403 16.907 74.4907 16.9222 74.2172 16.9222C74.1564 16.9222 74.126 16.8766 74.126 16.7853C74.126 16.6941 74.1564 16.6484 74.2172 16.6484C74.6731 16.6484 75.1595 16.4203 75.6762 15.964C76.2082 15.4924 76.6717 14.8079 77.0669 13.9105L81.9228 2.4566C81.9228 2.41097 81.9836 2.38815 82.1052 2.38815C82.242 2.38815 82.3331 2.41857 82.3787 2.47942L87.3258 15.0057C87.5234 15.4924 87.683 15.8423 87.8046 16.0552C87.9414 16.253 88.1238 16.4051 88.3517 16.5115C88.5797 16.6028 88.9217 16.6484 89.3776 16.6484ZM79.6886 9.34717H82.8803L81.3073 5.37711L79.6886 9.34717Z" fill="#242421"/>
<path d="M73.8752 2.66225C73.9208 2.66225 73.9436 2.70788 73.9436 2.79914C73.9436 2.89041 73.9208 2.93604 73.8752 2.93604C73.2521 2.93604 72.7658 3.14139 72.4162 3.55209C72.0666 3.94757 71.8918 4.51038 71.8918 5.24051L71.869 17.1051C71.869 17.1507 71.8311 17.1811 71.7551 17.1963C71.6791 17.2268 71.6031 17.242 71.5271 17.242C71.4055 17.242 71.3219 17.2115 71.2763 17.1507L61.6329 4.87544L61.6101 14.3443C61.6101 15.0896 61.7773 15.66 62.1116 16.0555C62.446 16.451 62.9248 16.6487 63.5479 16.6487C63.6087 16.6487 63.6391 16.6944 63.6391 16.7856C63.6391 16.8769 63.6087 16.9225 63.5479 16.9225C63.1527 16.9225 62.8488 16.9149 62.636 16.8997L61.2909 16.8769L60.0142 16.8997C59.7711 16.9149 59.4291 16.9225 58.9883 16.9225C58.9276 16.9225 58.8972 16.8769 58.8972 16.7856C58.8972 16.6944 58.9276 16.6487 58.9883 16.6487C59.6115 16.6487 60.0978 16.451 60.4474 16.0555C60.797 15.66 60.9717 15.0896 60.9717 14.3443L60.9945 4.09968C60.6146 3.67378 60.2574 3.37716 59.9231 3.20984C59.5887 3.02731 59.2543 2.93604 58.92 2.93604C58.8744 2.93604 58.8516 2.89041 58.8516 2.79914C58.8516 2.70788 58.8744 2.66225 58.92 2.66225L60.0142 2.68506C60.2422 2.70027 60.5462 2.70788 60.9262 2.70788C61.2909 2.70788 61.5949 2.70027 61.8381 2.68506C62.0964 2.66985 62.2712 2.66225 62.3624 2.66225C62.484 2.66225 62.5752 2.69267 62.636 2.75351C62.6968 2.81436 62.7804 2.92844 62.8868 3.09576C63.0539 3.36956 63.2287 3.62054 63.4111 3.8487L71.2307 13.8195L71.2535 5.24051C71.2687 4.49517 71.1091 3.92476 70.7748 3.52927C70.4404 3.13379 69.954 2.93604 69.3157 2.93604C69.2549 2.93604 69.2245 2.89041 69.2245 2.79914C69.2245 2.70788 69.2549 2.66225 69.3157 2.66225L70.1592 2.68506C70.7064 2.71548 71.1775 2.7307 71.5727 2.7307C71.8766 2.7307 72.3022 2.71548 72.8494 2.68506L73.8752 2.66225Z" fill="#242421"/>
<path d="M58.2771 2.66225C58.3531 2.66225 58.3911 2.70788 58.3911 2.79914C58.3911 2.89041 58.3531 2.93604 58.2771 2.93604C57.7452 2.93604 57.2436 3.13379 56.7725 3.52927C56.3013 3.90955 55.8302 4.50277 55.359 5.30896L52.8741 9.82662V15.0744C52.8893 15.5459 52.9349 15.8882 53.0108 16.1011C53.102 16.3141 53.2692 16.4586 53.5124 16.5347C53.7556 16.6107 54.1507 16.6487 54.6979 16.6487C54.7587 16.6487 54.7891 16.6944 54.7891 16.7856C54.7891 16.8769 54.7587 16.9225 54.6979 16.9225C54.1963 16.9225 53.8012 16.9149 53.5124 16.8997L51.8254 16.8769L50.0244 16.8997C49.7356 16.9149 49.348 16.9225 48.8617 16.9225C48.8009 16.9225 48.7705 16.8769 48.7705 16.7856C48.7705 16.6944 48.8009 16.6487 48.8617 16.6487C49.4088 16.6487 49.8116 16.6107 50.0699 16.5347C50.3435 16.4434 50.5259 16.2913 50.6171 16.0783C50.7235 15.8654 50.7691 15.5307 50.7539 15.0744L50.7311 10.0776L47.1062 4.55601C46.7263 3.97799 46.3691 3.5673 46.0348 3.32392C45.7004 3.06534 45.3432 2.93604 44.9633 2.93604C44.9025 2.93604 44.8721 2.89041 44.8721 2.79914C44.8721 2.70788 44.8949 2.66225 44.9405 2.66225L46.0348 2.68506C46.5211 2.71548 46.8935 2.7307 47.1518 2.7307C47.547 2.7307 48.1245 2.71548 48.8845 2.68506L50.0244 2.66225C50.0699 2.66225 50.0927 2.69267 50.0927 2.75351C50.0927 2.79914 50.0775 2.84478 50.0471 2.89041C50.032 2.92083 50.0092 2.93604 49.9788 2.93604C49.234 2.93604 48.8617 3.06534 48.8617 3.32392C48.8617 3.46082 48.9377 3.63575 49.0896 3.8487L52.5549 9.21057L54.8347 4.94389C55.017 4.59404 55.1082 4.27461 55.1082 3.9856C55.1082 3.66617 54.9942 3.41519 54.7663 3.23266C54.5383 3.03491 54.2191 2.93604 53.8088 2.93604C53.748 2.93604 53.7176 2.89041 53.7176 2.79914C53.7176 2.70788 53.7404 2.66225 53.786 2.66225L54.9487 2.68506C55.6478 2.71548 56.2025 2.7307 56.6129 2.7307C56.8713 2.7307 57.1676 2.71548 57.502 2.68506L58.2771 2.66225Z" fill="#242421"/>
<path d="M37.1372 17.0134C36.7117 17.0134 36.2329 16.9906 35.701 16.9449C35.5034 16.9297 35.2526 16.9145 34.9487 16.8993C34.6447 16.8841 34.3103 16.8765 33.9456 16.8765L32.3041 16.8993C32.0306 16.9145 31.6506 16.9221 31.1642 16.9221C31.1339 16.9221 31.1187 16.8765 31.1187 16.7852C31.1187 16.694 31.1339 16.6483 31.1642 16.6483C31.6506 16.6483 32.0078 16.6103 32.2357 16.5342C32.4789 16.4582 32.6385 16.3137 32.7145 16.1007C32.8057 15.8726 32.8437 15.5303 32.8285 15.074V4.50996C32.8133 4.05363 32.7601 3.71899 32.6689 3.50604C32.5777 3.29308 32.4181 3.14858 32.1901 3.07252C31.9622 2.98126 31.6202 2.93563 31.1642 2.93563C31.1339 2.93563 31.1187 2.88999 31.1187 2.79873C31.1187 2.70746 31.1339 2.66183 31.1642 2.66183L32.2813 2.68465C32.9501 2.71507 33.4896 2.73028 33.9 2.73028C34.4015 2.73028 34.9031 2.70746 35.4046 2.66183C36.043 2.63141 36.5065 2.6162 36.7953 2.6162C38.3607 2.6162 39.7514 2.91281 40.9673 3.50604C42.1831 4.09927 43.1254 4.92066 43.7942 5.97022C44.4629 7.01977 44.7973 8.21383 44.7973 9.5524C44.7973 11.0127 44.4401 12.3132 43.7258 13.454C43.0267 14.5796 42.0919 15.4543 40.9217 16.0779C39.7514 16.7016 38.4899 17.0134 37.1372 17.0134ZM36.9321 16.6027C38.0264 16.6027 38.9839 16.3517 39.8046 15.8497C40.6405 15.3326 41.2864 14.5796 41.7424 13.5909C42.1983 12.6022 42.4263 11.4233 42.4263 10.0544C42.4263 8.83748 42.2211 7.69666 41.8108 6.63189C41.4004 5.56713 40.7697 4.7001 39.9186 4.03082C39.0675 3.36153 38.0188 3.02689 36.7725 3.02689C36.0734 3.02689 35.5946 3.14097 35.3362 3.36914C35.0931 3.58209 34.9715 3.97758 34.9715 4.55559V14.823C34.9867 15.4619 35.1234 15.9182 35.3818 16.192C35.6554 16.4658 36.1721 16.6027 36.9321 16.6027Z" fill="#242421"/>
<path d="M158.747 28.9009V24.5087H161.16C161.424 24.5087 161.66 24.5673 161.869 24.6844C162.082 24.8015 162.251 24.9605 162.377 25.1612C162.502 25.3579 162.565 25.5775 162.565 25.8201C162.565 26.092 162.498 26.3325 162.364 26.5416C162.23 26.7466 162.048 26.9077 161.819 27.0248C161.593 27.1419 161.338 27.2005 161.054 27.2005H159.236V28.9009H158.747ZM162.214 28.9009L160.734 26.9683L161.229 26.8177L162.822 28.9009H162.214ZM159.236 26.7236H160.991C161.192 26.7236 161.371 26.6839 161.53 26.6044C161.689 26.5249 161.814 26.4182 161.906 26.2844C161.998 26.1505 162.044 25.9999 162.044 25.8326C162.044 25.6737 161.998 25.5314 161.906 25.406C161.814 25.2763 161.691 25.1738 161.536 25.0985C161.382 25.0232 161.21 24.9856 161.022 24.9856H159.236V26.7236Z" fill="#242421"/>
<path d="M152.551 28.9009V24.5087H156.087V24.9856H153.04V28.424H156.075V28.9009H152.551ZM152.815 26.8805V26.4036H155.736V26.8805H152.815Z" fill="#242421"/>
<path d="M145.058 28.9009V24.5087H145.559L149.333 28.3424L149.289 28.4554C149.273 28.3592 149.26 28.2295 149.252 28.0664C149.248 27.899 149.241 27.7192 149.233 27.5267C149.229 27.3343 149.225 27.144 149.22 26.9558C149.22 26.7675 149.218 26.6002 149.214 26.4538C149.214 26.3032 149.214 26.1924 149.214 26.1213V24.5087H149.703V28.9009H149.183L145.446 25.1487L145.459 25.0169C145.463 25.0713 145.467 25.155 145.471 25.2679C145.48 25.3767 145.488 25.5043 145.496 25.6507C145.505 25.7929 145.513 25.9414 145.522 26.0962C145.53 26.2509 145.536 26.3994 145.54 26.5416C145.545 26.6839 145.547 26.8052 145.547 26.9056V28.9009H145.058Z" fill="#242421"/>
<path d="M137.564 28.9009V24.5087H138.066L141.84 28.3424L141.796 28.4554C141.78 28.3592 141.767 28.2295 141.759 28.0664C141.754 27.899 141.748 27.7192 141.74 27.5267C141.736 27.3343 141.731 27.144 141.727 26.9558C141.727 26.7675 141.725 26.6002 141.721 26.4538C141.721 26.3032 141.721 26.1924 141.721 26.1213V24.5087H142.21V28.9009H141.69L137.953 25.1487L137.966 25.0169C137.97 25.0713 137.974 25.155 137.978 25.2679C137.987 25.3767 137.995 25.5043 138.003 25.6507C138.012 25.7929 138.02 25.9414 138.028 26.0962C138.037 26.2509 138.043 26.3994 138.047 26.5416C138.051 26.6839 138.053 26.8052 138.053 26.9056V28.9009H137.564Z" fill="#242421"/>
<path d="M130.431 28.9009L132.569 24.5087H133.183L135.302 28.9009H134.757L133.196 25.6758C133.142 25.5503 133.096 25.4499 133.058 25.3746C133.025 25.2993 132.993 25.2345 132.964 25.1801C132.935 25.1257 132.905 25.065 132.876 24.9981C132.851 24.9312 132.822 24.8454 132.788 24.7409L132.933 24.7346C132.887 24.8559 132.847 24.9542 132.814 25.0295C132.784 25.1006 132.755 25.1675 132.726 25.2303C132.696 25.2888 132.663 25.3537 132.625 25.4248C132.592 25.4959 132.548 25.59 132.494 25.7071L130.945 28.9009H130.431ZM131.315 27.7526L131.516 27.2758H134.199L134.287 27.7526H131.315Z" fill="#242421"/>
<path d="M125.18 28.9009V24.5087H125.669V28.424H128.653V28.9009H125.18Z" fill="#242421"/>
<path d="M118.776 28.9009V24.5087H121.259C121.522 24.5087 121.758 24.5652 121.967 24.6781C122.176 24.7911 122.341 24.9458 122.462 25.1424C122.583 25.339 122.644 25.5628 122.644 25.8138C122.644 26.0857 122.579 26.3283 122.45 26.5416C122.32 26.755 122.145 26.9244 121.923 27.0499C121.702 27.1712 121.451 27.2318 121.171 27.2318H119.265V28.9009H118.776ZM119.265 26.755H121.139C121.328 26.755 121.495 26.7152 121.641 26.6358C121.791 26.5521 121.908 26.4392 121.992 26.2969C122.076 26.1547 122.117 25.9916 122.117 25.8075C122.117 25.6486 122.076 25.5084 121.992 25.3871C121.908 25.2616 121.794 25.1633 121.647 25.0922C121.501 25.0211 121.332 24.9856 121.139 24.9856H119.265V26.755Z" fill="#242421"/>
<path d="M109.397 28.9009V24.5087H109.886V28.424H112.871V28.9009H109.397Z" fill="#242421"/>
<path d="M103.202 28.9009V24.5087H106.738V24.9856H103.691V28.424H106.726V28.9009H103.202ZM103.465 26.8805V26.4036H106.387V26.8805H103.465Z" fill="#242421"/>
<path d="M98.2836 28.9009L96.2397 24.5087H96.7852L98.0453 27.2005C98.0955 27.3134 98.1498 27.4326 98.2083 27.5581C98.2668 27.6794 98.3254 27.8049 98.3839 27.9346C98.4424 28.0643 98.4988 28.1939 98.5531 28.3236C98.6075 28.4533 98.6555 28.583 98.6973 28.7126H98.5155C98.5866 28.5202 98.6597 28.3362 98.735 28.1605C98.8102 27.9806 98.8833 27.8091 98.9544 27.646C99.0254 27.4828 99.0923 27.3301 99.155 27.1879L100.39 24.5087H100.948L98.898 28.9009H98.2836Z" fill="#242421"/>
<path d="M90.167 28.9009L92.3049 24.5087H92.9192L95.0383 28.9009H94.4929L92.9318 25.6758C92.8774 25.5503 92.8315 25.4499 92.7939 25.3746C92.7604 25.2993 92.7291 25.2345 92.6998 25.1801C92.6706 25.1257 92.6413 25.065 92.6121 24.9981C92.587 24.9312 92.5577 24.8454 92.5243 24.7409L92.6685 24.7346C92.6225 24.8559 92.5828 24.9542 92.5494 25.0295C92.5201 25.1006 92.4908 25.1675 92.4616 25.2303C92.4323 25.2888 92.3989 25.3537 92.3613 25.4248C92.3278 25.4959 92.284 25.59 92.2296 25.7071L90.6811 28.9009H90.167ZM91.051 27.7526L91.2516 27.2758H93.9349L94.0227 27.7526H91.051Z" fill="#242421"/>
<path d="M84.1323 28.9009V24.5087H86.546C86.8093 24.5087 87.0455 24.5673 87.2545 24.6844C87.4676 24.8015 87.6369 24.9605 87.7623 25.1612C87.8877 25.3579 87.9504 25.5775 87.9504 25.8201C87.9504 26.092 87.8835 26.3325 87.7498 26.5416C87.616 26.7466 87.4342 26.9077 87.2043 27.0248C86.9786 27.1419 86.7237 27.2005 86.4395 27.2005H84.6213V28.9009H84.1323ZM87.5993 28.9009L86.1197 26.9683L86.615 26.8177L88.2074 28.9009H87.5993ZM84.6213 26.7236H86.3768C86.5774 26.7236 86.7571 26.6839 86.9159 26.6044C87.0747 26.5249 87.2001 26.4182 87.2921 26.2844C87.384 26.1505 87.43 25.9999 87.43 25.8326C87.43 25.6737 87.384 25.5314 87.2921 25.406C87.2001 25.2763 87.0768 25.1738 86.9222 25.0985C86.7675 25.0232 86.5962 24.9856 86.4081 24.9856H84.6213V26.7236Z" fill="#242421"/>
<path d="M79.6346 28.9009V24.9856H77.9419V24.5087H81.8665V24.9856H80.1236V28.9009H79.6346Z" fill="#242421"/>
<path d="M71.7832 28.9007L71.313 28.405L71.1124 28.2105L69.7958 27.0183C69.662 26.897 69.5241 26.7778 69.382 26.6607C69.2441 26.5394 69.1166 26.4202 68.9996 26.303C68.8826 26.1817 68.7864 26.0604 68.7112 25.9391C68.6401 25.8136 68.6046 25.6819 68.6046 25.5438C68.6046 25.3639 68.6631 25.1904 68.7802 25.023C68.9014 24.8557 69.0769 24.7177 69.3068 24.6089C69.5367 24.496 69.8104 24.4395 70.1281 24.4395C70.4165 24.4395 70.6735 24.4771 70.8992 24.5524C71.1249 24.6236 71.3213 24.726 71.4885 24.8599C71.6599 24.9896 71.7999 25.1422 71.9086 25.3179L71.57 25.6568C71.3903 25.3765 71.173 25.182 70.918 25.0732C70.6631 24.9645 70.4081 24.9101 70.1531 24.9101C69.9609 24.9101 69.7916 24.9352 69.6453 24.9854C69.5032 25.0314 69.3925 25.1004 69.313 25.1924C69.2336 25.2803 69.1939 25.3849 69.1939 25.5062C69.1939 25.5898 69.219 25.6756 69.2692 25.7634C69.3193 25.8513 69.3799 25.9328 69.451 26.0081C69.5262 26.0834 69.6014 26.1504 69.6767 26.2089C69.7519 26.2675 69.8104 26.3156 69.8522 26.3532L71.5826 27.9219L71.7205 28.0913L72.4728 28.9007H71.7832ZM69.8585 28.9885C69.4071 28.9885 69.033 28.9258 68.7363 28.8003C68.4437 28.6748 68.2264 28.5075 68.0843 28.2983C67.9421 28.0892 67.8711 27.8591 67.8711 27.6081C67.8711 27.3279 67.9714 27.0643 68.172 26.8175C68.3768 26.5707 68.6861 26.3679 69.0999 26.2089L69.4384 26.5415C69.079 26.646 68.824 26.7862 68.6736 26.9619C68.5273 27.1375 68.4541 27.3258 68.4541 27.5266C68.4541 27.6897 68.5043 27.8445 68.6046 27.9909C68.7049 28.1331 68.8596 28.2502 69.0685 28.3423C69.2817 28.4301 69.5534 28.474 69.8836 28.474C70.0716 28.474 70.2681 28.4468 70.4729 28.3925C70.6819 28.3381 70.8741 28.2502 71.0497 28.1289C71.2294 28.0034 71.3778 27.834 71.4948 27.6207C71.616 27.4074 71.6829 27.1417 71.6954 26.8238H72.2408C72.2283 27.1417 72.1698 27.4199 72.0653 27.6583C71.9608 27.8926 71.8271 28.0955 71.6641 28.267C71.5011 28.4385 71.3192 28.5786 71.1186 28.6874C70.918 28.7919 70.709 28.8672 70.4917 28.9132C70.2744 28.9634 70.0633 28.9885 69.8585 28.9885Z" fill="#242421"/>
<path d="M60.1546 28.9009V24.9856H58.4619V24.5087H62.3865V24.9856H60.6437V28.9009H60.1546Z" fill="#242421"/>
<path d="M51.5454 28.9009V24.5087H52.047L55.8211 28.3424L55.7772 28.4554C55.7605 28.3592 55.748 28.2295 55.7396 28.0664C55.7354 27.899 55.7292 27.7192 55.7208 27.5267C55.7166 27.3343 55.7125 27.144 55.7083 26.9558C55.7083 26.7675 55.7062 26.6002 55.702 26.4538C55.702 26.3032 55.702 26.1924 55.702 26.1213V24.5087H56.191V28.9009H55.6707L51.9341 25.1487L51.9466 25.0169C51.9508 25.0713 51.955 25.155 51.9592 25.2679C51.9675 25.3767 51.9759 25.5043 51.9843 25.6507C51.9926 25.7929 52.001 25.9414 52.0093 26.0962C52.0177 26.2509 52.024 26.3994 52.0282 26.5416C52.0323 26.6839 52.0344 26.8052 52.0344 26.9056V28.9009H51.5454Z" fill="#242421"/>
<path d="M45.3501 28.9009V24.5087H48.886V24.9856H45.8391V28.424H48.8735V28.9009H45.3501ZM45.6134 26.8805V26.4036H48.5349V26.8805H45.6134Z" fill="#242421"/>
<path d="M40.4315 28.9009L38.3877 24.5087H38.9331L40.1933 27.2005C40.2434 27.3134 40.2978 27.4326 40.3563 27.5581C40.4148 27.6794 40.4733 27.8049 40.5318 27.9346C40.5903 28.0643 40.6468 28.1939 40.7011 28.3236C40.7554 28.4533 40.8035 28.583 40.8453 28.7126H40.6635C40.7345 28.5202 40.8077 28.3362 40.8829 28.1605C40.9581 27.9806 41.0313 27.8091 41.1023 27.646C41.1734 27.4828 41.2403 27.3301 41.303 27.1879L42.538 24.5087H43.096L41.0459 28.9009H40.4315Z" fill="#242421"/>
<path d="M32.7817 28.9009V24.5087H36.3177V24.9856H33.2707V28.424H36.3051V28.9009H32.7817ZM33.0451 26.8805V26.4036H35.9666V26.8805H33.0451Z" fill="#242421"/>
<path d="M0 32.1372H4.03937V3.62593C3.71622 0.579771 1.21181 -0.0579417 0 0.00397213V32.1372Z" fill="#D12600"/>
<path fill-rule="evenodd" clip-rule="evenodd" d="M7.27857 0.00393909H7.10449C8.12987 0.220666 10.1806 1.28572 10.1806 3.81211V28.5807C10.162 30.2526 9.36654 31.5715 7.10449 32.1412C9.24847 32.038 14.1889 30.7658 14.1889 24.6177V6.49501C14.1889 1.02553 9.3583 0.0448523 7.27857 0.00393909Z" fill="#D12600"/>
<path fill-rule="evenodd" clip-rule="evenodd" d="M26.3513 0.000872069H26.5254C25.5 0.217599 23.4493 1.28265 23.4493 3.80905V28.5776C23.4679 30.2495 24.2633 31.5684 26.5254 32.1381C24.3814 32.0349 19.4409 30.7628 19.4409 24.6147V6.49194C19.4409 1.02247 24.2716 0.0417853 26.3513 0.000872069Z" fill="#D12600"/>
</svg>
