<svg xmlns="http://www.w3.org/2000/svg" width="146" height="170" fill="none">
  <path fill="#CAD7E4" d="m137.79 137.779-24.335 13.431-4.297-8.107.072-.122 9.576-5.092h.179c.359-.11 1.556-.171 3.172-.317a35.622 35.622 0 0 0 9.576-1.942c1.843-.744 3.926-.842 5.231.672.367.428.648.926.826 1.465v.012ZM94.294 153.156c.37.091 1.448.65 2.944 1.3a33.717 33.717 0 0 0 9.335 3.134c1.963.247 3.854 1.235 4.297 3.328a5.197 5.197 0 0 1 0 1.794.565.565 0 0 1 0 .13H83.21V153h10.988l.096.156Z"/>
  <path fill="#000229" fill-rule="evenodd" d="M83.21 153.895h11.357l.14.193c.234.073.547.195.893.33l.234.092c.445.174.977.384 1.583.606l.013.005.012.005a36.181 36.181 0 0 0 8.861 2.52c1.956.211 4.059 1.072 4.557 3.067l.002.008.002.009a4.02 4.02 0 0 1 .012 1.576.972.972 0 0 1-.006.132l-.051.404H83.211v-8.947Zm.993.913v7.121h25.729a3.207 3.207 0 0 0-.041-1.02c-.359-1.413-1.892-2.164-3.714-2.358l-.012-.001-.012-.002a37.262 37.262 0 0 1-9.118-2.589 73.636 73.636 0 0 1-1.823-.701c-.509-.199-.805-.309-.928-.334l-.193-.04-.055-.076h-9.833Z" clip-rule="evenodd"/>
  <path fill="#CAD7E4" d="M61.8 70.305a3.55 3.55 0 0 0 .97-1.105c.245-.434.398-.915.45-1.413a1.355 1.355 0 0 0-.376-1.024 1.288 1.288 0 0 0-.458-.303 1.26 1.26 0 0 0-.54-.082c-.055.141-.13.274-.22.394l.104-2.16.233-4.369a.965.965 0 0 0-.17-.715.926.926 0 0 0-.62-.37h-.28l.721-5.073h5.374l.128-1.576h-6.828l-.965 6.672h-3.257a3.092 3.092 0 0 0-.587-1.604 2.974 2.974 0 0 0-1.338-1.026 2.895 2.895 0 0 0-1.665-.12 2.945 2.945 0 0 0-1.466.821c-.402.412-.68.934-.8 1.504-.122.57-.08 1.163.117 1.709a3.038 3.038 0 0 0 1 1.373c.454.35.997.559 1.563.602l.093 1.838.093 1.826h-.174a3.363 3.363 0 0 0-2.087 1.026 3.526 3.526 0 0 0-.96 2.16l.116 6.04-.303.107a84.885 84.885 0 0 1-14.9 3.843c-4.002.561-6.863.346-8.143-.764-5.246-4.475 3.955-31.664 8.294-36.044 2.512-2.554 7.654-3.653 13.958-4.906a3.36 3.36 0 0 1 1.442-1.993h.07a28.437 28.437 0 0 1 11.725-.131l.43.155c.418.144.788.406 1.066.757.278.35.453.775.505 1.224 0 0 9.41 1.074 11.085 3.08 4.28 5.144 8.643 10.383 11.923 13.988.233.25 6.374-5.646 8.514-11.41h.07s2.327 3.58 6.293 2.912c-.314.644-10.83 22.164-15.82 20.29-4.222-1.6-8.805-5.132-13.678-9.334-1.896-1.706 5.71 33.24 5.839 33.956h-4.955l-16.925.096h-2.547l-20.321.107a83.226 83.226 0 0 1 1-11.171 141.496 141.496 0 0 0 15.122-4.655l.302.096c1.22.556 2.49.992 3.792 1.3l.14 2.388a.934.934 0 0 0 .216.64c.15.178.359.29.586.314h5.63a.889.889 0 0 0 .586-.314.934.934 0 0 0 .217-.64l.14-2.65c1.197-.478 1.895-1.194 1.895-1.743a1.148 1.148 0 0 0-.354-.918 1.067 1.067 0 0 0-.925-.275h-.058.093c.34-.209.63-.495.845-.837.216-.34.352-.728.4-1.133a1.222 1.222 0 0 0-.364-.966 1.134 1.134 0 0 0-.963-.31l-.093-.084Z"/>
  <path fill="#000229" fill-rule="evenodd" d="M110.053 144.947H93.947v-.894h16.106v.894Z" clip-rule="evenodd"/>
  <path fill="#000229" fill-rule="evenodd" d="M8.053 144.053h73.512v1.028H9.055v8.68h127.732v-8.68h-6.563v-1.028h7.566v10.736H8.053v-10.736Z" clip-rule="evenodd"/>
  <path fill="#000229" d="M55.474 144.053H8.053v9.842h47.42v-9.842Z"/>
  <path fill="#000229" fill-rule="evenodd" d="M0 117.211h75.33v1.008H1.008v50.772h143.826v-50.772h-33.339v-1.008h34.347V170H0v-52.789Z" clip-rule="evenodd"/>
  <path fill="#000229" fill-rule="evenodd" d="M19.684 121.921a1.553 1.553 0 1 0 0 3.105 1.553 1.553 0 0 0 0-3.105ZM17 123.474a2.685 2.685 0 1 1 5.37 0 2.685 2.685 0 0 1-5.37 0ZM12.526 121.921a1.553 1.553 0 1 0 0 3.105 1.553 1.553 0 0 0 0-3.105Zm-2.684 1.553a2.685 2.685 0 1 1 5.369 0 2.685 2.685 0 0 1-5.37 0ZM5.369 121.921a1.553 1.553 0 1 0 0 3.105 1.553 1.553 0 0 0 0-3.105Zm-2.684 1.553a2.685 2.685 0 1 1 5.369 0 2.685 2.685 0 0 1-5.37 0ZM53.898 58.158h5.154v1.067H53.96a.331.331 0 0 0-.118.054.412.412 0 0 0-.11.12.564.564 0 0 0-.072.344l.003.024.102 2.285.162 3.823v1.23h-.867v-1.202l-.16-3.794v-.002l-.1-2.235a1.87 1.87 0 0 1 .029-.575c.04-.197.113-.381.213-.543.1-.162.224-.297.366-.399.143-.101.3-.167.464-.193l.027-.004ZM60.842 58.158h.503l.032.004a1.434 1.434 0 0 1 1.24 1.627l-.234 4.29-.106 2.132-1.01-.05.105-2.137.237-4.341.005-.027a.424.424 0 0 0-.34-.484h-.432v-1.014ZM61.737 76.053v.103l-.131 2.813c.008.378-.106.747-.32 1.034-.22.294-.53.48-.864.52l-.025.003h-5.373l-.025-.003a1.274 1.274 0 0 1-.864-.52 1.676 1.676 0 0 1-.32-1.032l-.13-2.517.944-.066.134 2.57-.002.03a.475.475 0 0 0 .09.3.364.364 0 0 0 .226.145h5.267a.364.364 0 0 0 .225-.144.476.476 0 0 0 .09-.302v-.027l.132-2.833v-.074h.946Z" clip-rule="evenodd"/>
  <path fill="#000229" fill-rule="evenodd" d="m61.652 65.925.98-2.399v2.59h-.509l.47.19a2.156 2.156 0 0 1-.293.507l-.003.005-.004.004c-.434.533-1.178.98-2.002 1.314-.837.341-1.819.592-2.787.7-.964.108-1.95.077-2.78-.174-.837-.252-1.572-.748-1.901-1.6l-.034-.088v-.188h.754l.228-.087c.18.465.596.799 1.247.995.655.198 1.49.235 2.373.136a9.714 9.714 0 0 0 2.516-.63c.76-.31 1.317-.674 1.593-1.01.063-.081.114-.17.152-.265Z" clip-rule="evenodd"/>
  <path fill="#000229" fill-rule="evenodd" d="M61.963 66.37a.82.82 0 0 0-.345-.043.51.51 0 0 1-.557-.455.506.506 0 0 1 .462-.549 1.861 1.861 0 0 1 1.45.506 1.78 1.78 0 0 1 .55 1.414l-.002.008v.008a3.976 3.976 0 0 1-.514 1.584c-.28.486-.66.908-1.116 1.241a7.386 7.386 0 0 1-2.855 1.318 7.448 7.448 0 0 1-3.158.015.504.504 0 0 1-.393-.599.512.512 0 0 1 .608-.386 6.41 6.41 0 0 0 2.717-.013 6.356 6.356 0 0 0 2.46-1.137l.004-.002.004-.003a3.03 3.03 0 0 0 .84-.932c.208-.363.34-.764.383-1.178a.787.787 0 0 0-.243-.617.81.81 0 0 0-.295-.18Z" clip-rule="evenodd"/>
  <path fill="#000229" fill-rule="evenodd" d="M61.998 70.837a.7.7 0 0 0-.31-.02.518.518 0 0 1-.596-.419.51.51 0 0 1 .427-.586 1.756 1.756 0 0 1 1.452.427 1.666 1.666 0 0 1 .55 1.387l-.002.011-.001.012a3.118 3.118 0 0 1-.52 1.351c-.277.405-.646.74-1.078.982l-.12.066h-.093a8.787 8.787 0 0 1-5.806.976.51.51 0 0 1-.42-.592.518.518 0 0 1 .603-.411 7.732 7.732 0 0 0 5.22-.921l.121-.071h.094c.245-.156.455-.36.618-.598a2.11 2.11 0 0 0 .35-.901.664.664 0 0 0-.22-.542.692.692 0 0 0-.27-.151Z" clip-rule="evenodd"/>
  <path fill="#000229" fill-rule="evenodd" d="M62.17 73.66a.46.46 0 0 0-.245-.015l-.04.008h-.096c-.26 0-.472-.26-.472-.58 0-.32.212-.58.472-.58h.019c.205-.037.415-.02.615.048.215.073.413.204.582.382.168.18.303.402.393.652.09.248.133.517.128.788-.002.553-.262 1.06-.608 1.468-.356.422-.858.809-1.473 1.125l-.012.006-.012.005c-2.372 1.042-4.95 1.156-7.376.327a17.845 17.845 0 0 1-3.659-1.504c-.238-.13-.346-.473-.24-.766.106-.293.386-.425.624-.295a17.02 17.02 0 0 0 3.498 1.437l.01.003.01.003c2.238.767 4.614.665 6.803-.293.533-.276.923-.589 1.172-.884.26-.308.318-.534.318-.64v-.014a.825.825 0 0 0-.048-.296.697.697 0 0 0-.146-.243.537.537 0 0 0-.217-.142ZM54.545 63.844c-.293-.066-.647-.037-1.12.201-.24.12-.509-.029-.603-.332-.095-.304.022-.647.261-.767.607-.305 1.135-.375 1.624-.266.48.108.883.383 1.243.678.17.139.33.28.487.42.538.476 1.046.926 1.79 1.147.402.107.813.131 1.22.073l.026-.004h.12c.264-.09.51-.247.723-.464.227-.23.41-.523.538-.854.113-.293.391-.415.622-.271.23.143.326.497.213.79a3.665 3.665 0 0 1-.792 1.258c-.334.34-.723.58-1.139.707l-.053.016h-.18a3.787 3.787 0 0 1-1.493-.095l-.005-.002-.005-.001c-.94-.278-1.632-.895-2.185-1.388a12.864 12.864 0 0 0-.39-.338c-.32-.263-.6-.44-.902-.508Z" clip-rule="evenodd"/>
  <path fill="#000229" fill-rule="evenodd" d="M59.388 52.327c.04-.248.271-.432.543-.432h7.52c.153 0 .3.06.404.163a.483.483 0 0 1 .143.386L67.858 54c-.024.263-.26.464-.546.465l-5.425.022-.723 4.58-1.06 6.71c-.044.277-.322.469-.623.428-.3-.04-.507-.298-.463-.575l1.06-6.71.79-5.011c.04-.248.27-.433.542-.434l5.395-.022.049-.544h-6.45l-2.05 12.728c-.044.277-.323.468-.623.427-.3-.042-.507-.3-.462-.577l2.119-13.16ZM54.018 56.667c-.4-.17-.835-.205-1.252-.1-.418.103-.8.342-1.102.687a2.672 2.672 0 0 0-.602 1.26c-.092.477-.06.973.088 1.431.149.458.41.857.751 1.15.338.29.74.464 1.16.502h.183v1.035h-.2c-.011 0-.022 0-.033-.002a2.912 2.912 0 0 1-1.653-.708 3.583 3.583 0 0 1-1.056-1.616 4.069 4.069 0 0 1-.125-2.013c.128-.67.422-1.285.847-1.77a3.046 3.046 0 0 1 1.549-.967 2.766 2.766 0 0 1 1.76.142 3.21 3.21 0 0 1 1.415 1.207 3.904 3.904 0 0 1 .62 1.927v.216h-.904v-.196a2.773 2.773 0 0 0-.44-1.326 2.283 2.283 0 0 0-1.006-.859ZM54.58 90.368h1.789v.895h-1.79v-.895ZM54.755 2.54a10.75 10.75 0 0 0-2.173 4.993l-.002.014-.003.013a49.007 49.007 0 0 0-.489 2.77l-.075.477a.508.508 0 0 1-.581.415.499.499 0 0 1-.426-.567l.074-.469a50.28 50.28 0 0 1 .497-2.816 11.733 11.733 0 0 1 2.384-5.454l.014-.017.015-.016C55.46.326 57.04-.205 58.615.069c1.53.266 2.956 1.274 4.202 2.572.72.739 1.38 1.532 1.97 2.374l.002.003a29.347 29.347 0 0 1 3.976 8.304l.004.011.003.012c.278 1.134.058 2.55-.394 3.988-.457 1.453-1.174 2.997-1.97 4.423-.795 1.427-1.676 2.749-2.468 3.758-.396.505-.775.938-1.115 1.27-.322.314-.66.587-.974.705-.228.09-.466.153-.709.19-1.4.235-2.909-.27-4.166-1.06-1.264-.796-2.36-1.935-2.918-3.094a.492.492 0 0 1 .245-.662.515.515 0 0 1 .677.24c.461.956 1.41 1.963 2.548 2.68 1.144.72 2.393 1.093 3.445.915l.005-.001h.005a2.22 2.22 0 0 0 .49-.132l.005-.002.006-.002c.098-.037.307-.175.621-.481.298-.29.647-.688 1.026-1.17.757-.965 1.61-2.243 2.382-3.63.774-1.387 1.46-2.868 1.891-4.24.434-1.38.589-2.582.38-3.453a28.363 28.363 0 0 0-3.84-8.012 18.096 18.096 0 0 0-1.867-2.25l-.003-.002c-1.183-1.234-2.423-2.064-3.638-2.275-1.165-.202-2.406.148-3.68 1.492ZM51.339 29.872c.001 1.933.003 3.894-.039 5.917l-1.194-.017c.04-1.985.039-3.925.037-5.847-.004-4.58-.007-9.06.563-13.82l1.189.1c-.564 4.708-.56 9.11-.556 13.667Z" clip-rule="evenodd"/>
  <path fill="#000229" fill-rule="evenodd" d="m60.013 27.353-.066-.269.95-.242.071.29.002.01c.182.906.317 1.89.452 2.87.066.48.132.958.203 1.426.22 1.446.492 2.814.968 3.962l.038.094v.229h-.785l-.155.066a7.8 7.8 0 0 1-.028-.066h-.01v-.028c-.502-1.247-.78-2.682-.996-4.104-.076-.5-.144-.995-.21-1.483-.132-.956-.26-1.882-.434-2.755ZM49.911 9.952c.801-.264 1.663-.055 2.493.658.459.395.86.85 1.192 1.353a.53.53 0 0 1-.157.74.545.545 0 0 1-.748-.156 5.512 5.512 0 0 0-.997-1.132c-.616-.529-1.088-.565-1.44-.45-.398.132-.796.506-1.124 1.08a4.988 4.988 0 0 0-.605 1.877c-.068.632.022 1.102.18 1.345.26.28.594.484.965.588.382.106.786.102 1.166-.012l.077-.023h.343c.172-.043.338-.109.494-.194a.544.544 0 0 1 .735.209.53.53 0 0 1-.212.726 3.205 3.205 0 0 1-.833.314l-.06.014h-.31c-.555.15-1.14.148-1.694-.006a3.162 3.162 0 0 1-1.503-.932l-.021-.023-.018-.025c-.392-.553-.464-1.351-.384-2.094.083-.767.34-1.594.738-2.29.393-.687.967-1.318 1.723-1.567ZM71.541.009c.668.041 1.352.246 1.657.866.224.455.22.916.032 1.34-.177.4-.503.739-.877 1.025-.748.572-1.844 1.05-2.95 1.431a30.153 30.153 0 0 1-4.408 1.131c-.295.05-.55.087-.681.087v-1l.037-.003.11-.013c.094-.012.216-.031.365-.057a29.153 29.153 0 0 0 4.252-1.09c1.082-.374 2.053-.81 2.67-1.282.308-.236.489-.451.57-.634a.536.536 0 0 0-.015-.492c-.055-.113-.24-.275-.823-.31-.556-.035-1.319.059-2.247.267-1.849.414-4.218 1.248-6.615 2.206-3.75 1.496-7.505 3.26-9.29 4.099-.37.174-.657.309-.84.392l-.171.08-.422-.906.178-.083c.175-.08.455-.212.82-.383 1.773-.834 5.57-2.619 9.356-4.129C64.657 1.59 67.086.731 69.015.3c.96-.216 1.83-.333 2.526-.29ZM65.646 14.848c-.793-.249-1.621-.14-2.367.31-.235.141-.508-.01-.61-.34-.1-.328.008-.71.243-.851.925-.558 1.953-.693 2.937-.384.25.078.406.425.35.774-.056.35-.303.57-.553.49ZM58.098 13.428c.583-.046 1.162.144 1.645.542.212.175.268.525.124.783-.144.258-.433.325-.646.15a1.483 1.483 0 0 0-1.063-.35 1.56 1.56 0 0 0-1.016.515c-.192.207-.486.186-.657-.047a.651.651 0 0 1 .04-.796c.436-.47.99-.751 1.573-.797Z" clip-rule="evenodd"/>
  <path fill="#000229" fill-rule="evenodd" d="M51.78 12.709a.57.57 0 0 1-.049.743 3.01 3.01 0 0 1-2.04.864c-.262.004-.476-.229-.48-.52-.004-.291.205-.53.467-.534a2.117 2.117 0 0 0 1.435-.608.44.44 0 0 1 .667.055ZM62.845 14.357c.273.104.394.374.27.604-.25.462-.269 1.112-.158 1.86.078.518.206 1.027.326 1.504.053.207.104.409.148.602l.003.012.002.012c.035.212.077.49.088.776.01.28-.009.602-.117.892a1.247 1.247 0 0 1-.773.762c-.418.149-.908.108-1.434-.05-.281-.086-.428-.348-.326-.584.102-.237.413-.36.694-.275.403.122.583.09.644.07.044-.016.107-.055.16-.197.055-.147.076-.35.067-.59a5.343 5.343 0 0 0-.076-.667 27.39 27.39 0 0 0-.13-.53c-.124-.49-.27-1.066-.352-1.625-.116-.78-.135-1.646.246-2.35.124-.23.446-.33.718-.226ZM83.151 95.624c5.869 3.399 8.798 8.359 9.493 14.568l-.496.056.496-.056c.176 1.57.304 3.533.408 6.082l-.996.042c-.104-2.541-.23-4.476-.403-6.012-.661-5.908-3.419-10.578-8.999-13.81-5.614-3.251-14.117-5.064-26.286-5.122l.005-1.004c12.236.059 20.944 1.877 26.778 5.256ZM93.156 120.122c-.001-1.048-.042-2.029-.08-2.929l-.034-.877-.884.041c.01.295.023.595.036.902.037.902.077 1.857.077 2.888v.025l.002.025c.06.675.06 1.376.06 2.155V122.365c.072 3.071.154 6.738.247 11.144v.793l.028 1.219c.117 5.032.255 10.962.455 17.983v.391h.885v-.415c-.2-7.022-.338-12.952-.455-17.985l-.029-1.213v-.791c-.092-4.406-.175-8.075-.247-11.146v-.007c0-.755 0-1.495-.061-2.216ZM35.145 79.762c.036-.212.07-.398.097-.548.03-.17.053-.293.06-.35l-1.009-.127a5.912 5.912 0 0 1-.04.235c-.026.14-.063.343-.11.62v.004a79.597 79.597 0 0 0-1.024 11.177c-.107 5.659.388 12.394 2.798 17.849v.001c1.26 2.831 2.995 5.339 5.403 7.17 2.413 1.836 5.472 2.97 9.34 3.098H74.885l.162.573c.187.662.424 1.5.62 2.177v.003l.237.858.058.077a.184.184 0 0 1-.02-.034l-.004-.011h1.01v-.009c0-.073 0-.261-.11-.46l-.194-.703v-.003c-.198-.684-.427-1.495-.612-2.148-.115-.41-.213-.758-.275-.971l-.106-.369H50.685c-3.672-.123-6.522-1.195-8.75-2.891-2.237-1.701-3.878-4.052-5.089-6.773-2.318-5.247-2.816-11.8-2.71-17.413a78.577 78.577 0 0 1 1.01-11.032Z" clip-rule="evenodd"/>
  <path fill="#000229" fill-rule="evenodd" d="m76.883 122.202-.211-.763-.98.271.214.772v.005c.981 3.302 2.161 7.452 3.342 12.331v.003a262.03 262.03 0 0 1 4.085 19.301l.073.422H94.48v-1.016H84.263a263.671 263.671 0 0 0-4.027-18.951 247.352 247.352 0 0 0-3.353-12.375ZM73.423 90.368h1.558c6.617.003 11.635.243 15.52.81 3.885.566 6.67 1.463 8.8 2.803 2.138 1.345 3.576 3.112 4.808 5.346 1.039 1.884 1.946 4.127 3.001 6.741l.571 1.409c.317.738 1.834 4.655 3.684 9.428l.417 1.076v.001l5.429 14.082-.949.357-5.428-14.082h-.001l-.395-1.022c-1.868-4.82-3.388-8.744-3.693-9.453l-.002-.004-.001-.005c-.2-.489-.392-.965-.579-1.426-1.058-2.618-1.937-4.795-2.945-6.623-1.177-2.132-2.509-3.75-4.463-4.98-1.963-1.235-4.592-2.101-8.402-2.657-3.811-.555-8.77-.795-15.372-.798h-1.558l-17.169.093H53.726l-20.615.105-.005-1.002 20.62-.105h2.526l17.171-.094Z" clip-rule="evenodd"/>
  <path fill="#000229" fill-rule="evenodd" d="M96.855 124.716c-2.135-3.415-3.887-6.341-4.697-7.965l.936-.435c.784 1.573 2.51 4.459 4.65 7.881 1.942 3.101 4.199 6.622 6.359 9.934a466.89 466.89 0 0 0 5.771 8.607l8.714-4.487-1.497-3.659-.001-.003-.214-.542c-.174-.44-.361-.914-.548-1.398l.973-.351c.185.48.37.948.543 1.387l.215.544 1.836 4.486-10.365 5.338-.261-.38a480.05 480.05 0 0 1-6.045-9.007 664.314 664.314 0 0 1-6.369-9.949v-.001ZM55.807 20.609a.492.492 0 0 1 .635.321c.092.276.243.527.44.732.199.205.439.36.702.453a1.731 1.731 0 0 0 1.588-.226.483.483 0 0 1 .691.144.543.543 0 0 1-.137.729 2.731 2.731 0 0 1-1.19.474 2.68 2.68 0 0 1-1.267-.125 2.796 2.796 0 0 1-1.085-.7 2.991 2.991 0 0 1-.682-1.133.533.533 0 0 1 .305-.67ZM103.666 36.557a.911.911 0 0 0 .022.22 8.896 8.896 0 0 0 .124.563c.093.388.211.88.282 1.432.152 1.173.099 2.645-.817 4.13l-.005.01-.253.374a.503.503 0 0 1-.702.136.51.51 0 0 1-.135-.706l.241-.358c.749-1.218.801-2.427.669-3.454a12.68 12.68 0 0 0-.265-1.336l-.013-.054a9.306 9.306 0 0 1-.122-.563 1.777 1.777 0 0 1-.028-.533l.001-.005c.078-.537.283-.997.645-1.273.386-.294.854-.307 1.269-.126.777.34 1.409 1.346 1.657 2.726.248 1.277.303 2.585.161 3.878a5.348 5.348 0 0 1-1.185 3.188 5.3 5.3 0 0 1-2.65 1.762c-.551 1.096-3.101 6.09-6.146 10.828-1.668 2.597-3.502 5.142-5.248 6.927-.873.89-1.745 1.615-2.586 2.057-.838.44-1.712.632-2.53.331-4.208-1.563-8.726-4.93-13.46-8.901 0 .032 0 .067.002.102.025.758.166 1.953.396 3.465.458 3.016 1.257 7.207 2.123 11.484a893.788 893.788 0 0 0 2.52 11.956c.333 1.532.623 2.856.842 3.856.255 1.161.414 1.886.433 1.996l.101.594h-4.278a.507.507 0 0 1-.506-.508c0-.281.226-.509.506-.509h3.054l-.245-1.118-.034-.156c-.22-1.003-.517-2.356-.86-3.938a894.41 894.41 0 0 1-2.524-11.97c-.866-4.279-1.669-8.491-2.131-11.533-.23-1.515-.38-2.762-.407-3.585-.013-.392-.002-.76.078-1.015.033-.106.129-.363.402-.47.31-.12.563.052.664.138 4.929 4.164 9.5 7.608 13.673 9.158.443.162 1.005.094 1.713-.279.707-.371 1.495-1.012 2.333-1.869 1.674-1.71 3.463-4.186 5.12-6.766 3.311-5.152 6.037-10.62 6.194-10.936l.105-.212.23-.055a4.287 4.287 0 0 0 2.331-1.475 4.329 4.329 0 0 0 .96-2.597l.001-.021.002-.021c.133-1.199.084-2.41-.147-3.594v-.004l-.001-.003c-.223-1.243-.742-1.837-1.066-1.978-.136-.06-.207-.034-.255.003-.072.055-.198.218-.255.607Zm-31.04 20.68c.005-.017.006-.015 0 0Z" clip-rule="evenodd"/>
  <path fill="#000229" fill-rule="evenodd" d="M100.726 41.231c.348.164.48.546.296.853-.123.205-.26.403-.41.593-.225.286-.67.356-.992.157-.322-.2-.401-.593-.176-.878a4.41 4.41 0 0 0 .32-.463c.184-.308.615-.425.962-.262Z" clip-rule="evenodd"/>
  <path fill="#000229" fill-rule="evenodd" d="M100.899 34.127c.285-.11.599-.15.908-.114h.006l.005.001c.836.11 1.424.744 1.815 1.408.41.695.705 1.59.876 2.521.171.934.223 1.935.127 2.853-.095.907-.34 1.787-.81 2.439l-.006.008-.006.008a3.471 3.471 0 0 1-.396.426.677.677 0 0 1-.873.01.501.501 0 0 1-.012-.77c.094-.085.181-.178.258-.276.316-.444.53-1.123.616-1.945a9.254 9.254 0 0 0-.117-2.579c-.157-.857-.421-1.631-.752-2.192-.347-.588-.678-.8-.897-.832a.529.529 0 0 0-.25.033l-.013.005-.013.005c-.236.082-.342.166-.394.226a.439.439 0 0 0-.096.267c-.011.141.009.323.062.568.038.18.089.368.145.582l.066.248c.33 1.269.687 3.035-.682 5.112-.171.26-.55.348-.844.197-.294-.151-.394-.485-.223-.745 1.128-1.712.855-3.133.546-4.32l-.06-.223c-.058-.221-.117-.443-.16-.648a2.97 2.97 0 0 1-.081-.848c.023-.29.117-.586.345-.85.222-.258.534-.442.91-.575Z" clip-rule="evenodd"/>
  <path fill="#000229" fill-rule="evenodd" d="M50.123 35.554a29.91 29.91 0 0 1 11.961-.108l.006.002.454.1.025.008a2.845 2.845 0 0 1 1.844 1.96l.049.007a66.35 66.35 0 0 1 4.571.728c1.298.255 2.663.575 3.817.96.577.192 1.112.403 1.563.636.445.229.843.495 1.115.812l.684.8c3.974 4.646 7.954 9.298 11.036 12.594.172-.132.406-.331.69-.592a32.513 32.513 0 0 0 2.39-2.489c1.83-2.1 3.869-4.901 4.915-7.641l.002-.007.003-.006c.074-.179.138-.361.193-.546l.003-.011.004-.011c.171-.496.503-.765.836-.966.113-.068.24-.136.36-.2l.129-.07a4.95 4.95 0 0 0 .489-.296c.288-.203.508-.455.582-.927.08-.512-.005-1.325-.484-2.648a1.423 1.423 0 0 1 1.097-1.903 1.43 1.43 0 0 1 .813.1c.305.126.54.388.713.631.184.259.347.568.483.873.267.596.465 1.248.529 1.617a4.613 4.613 0 0 1-.497 3.293 4.636 4.636 0 0 1-.283.474.504.504 0 0 1-.833-.564 3.7 3.7 0 0 0 .227-.38l.447.23-.437-.25c.451-.785.591-1.712.391-2.595l-.003-.014-.002-.014c-.044-.264-.214-.841-.458-1.388a4.216 4.216 0 0 0-.385-.7c-.142-.2-.242-.271-.279-.286l-.007-.003-.007-.003a.422.422 0 0 0-.566.532l.001.003.001.003c.503 1.386.652 2.389.534 3.147-.125.798-.538 1.27-.998 1.593-.21.148-.41.262-.586.358l-.16.086c-.11.058-.201.108-.29.161-.23.139-.339.248-.402.424a6.515 6.515 0 0 1-.222.627c-1.108 2.9-3.235 5.803-5.092 7.936A33.503 33.503 0 0 1 88.62 54.2c-.329.303-.612.543-.828.704a2.32 2.32 0 0 1-.306.198.798.798 0 0 1-.2.074.542.542 0 0 1-.506-.15l-.002-.003c-3.135-3.328-7.244-8.131-11.324-12.901-.23-.27-.46-.54-.691-.808-.15-.174-.416-.37-.812-.574-.39-.2-.871-.393-1.42-.575-1.095-.365-2.413-.676-3.693-.928a65.245 65.245 0 0 0-4.8-.753l-.058-.006-.02-.003-.02-.002h-.006l-.397-.045-.047-.396a1.832 1.832 0 0 0-1.218-1.514l-.387-.086a28.903 28.903 0 0 0-11.603.116l-.001-.006c-.56.376-.966.943-1.14 1.596l-.082.306-.313.058c-3.16.584-6.008 1.164-8.38 1.9-2.377.739-4.217 1.618-5.408 2.767-.497.488-1.093 1.325-1.748 2.459-.65 1.126-1.344 2.518-2.04 4.09-1.392 3.144-2.788 6.987-3.884 10.834-1.097 3.85-1.886 7.683-2.077 10.81-.095 1.565-.039 2.932.193 4.026.232 1.102.63 1.87 1.168 2.316.538.445 1.463.756 2.81.873 1.332.115 3.01.035 4.99-.236a86.885 86.885 0 0 0 14.886-3.725l-.11-5.572.002-.025a3.91 3.91 0 0 1 1.11-2.425 3.924 3.924 0 0 1 2.408-1.153.503.503 0 1 1 .1 1 2.917 2.917 0 0 0-2.613 2.635l.124 6.25-.65.225a87.887 87.887 0 0 1-15.105 3.783h-.005l-.006.002c-2.022.277-3.783.366-5.218.242-1.422-.123-2.593-.46-3.366-1.101-.785-.65-1.255-1.672-1.51-2.881-.258-1.216-.31-2.68-.213-4.294.197-3.229 1.007-7.139 2.114-11.025 1.107-3.89 2.52-7.777 3.931-10.965.706-1.594 1.415-3.02 2.089-4.186.669-1.158 1.32-2.09 1.916-2.675l.003-.002c1.361-1.316 3.384-2.252 5.81-3.006 2.358-.732 5.153-1.307 8.198-1.874a3.798 3.798 0 0 1 1.576-1.939l.122-.075h.16Zm.053.502v.113l.038.06-.038-.173Z" clip-rule="evenodd"/>
  <path fill="#000229" fill-rule="evenodd" d="m96.636 43.201.004.005a2.272 2.272 0 0 0 .085.137 7.839 7.839 0 0 0 1.422 1.614c.987.843 2.4 1.577 4.178 1.237.267-.05.52.16.564.471.044.311-.138.605-.405.656-2.116.404-3.79-.482-4.918-1.444a8.895 8.895 0 0 1-1.712-1.984l-.024-.04-.007-.012-.002-.004v-.001c-.001 0-.001-.001.407-.318l-.408.317c-.15-.262-.09-.617.136-.792.225-.175.53-.104.68.158Z" clip-rule="evenodd"/>
  <path fill="#000229" d="M64.868 16.105a.447.447 0 1 1 0 .895.447.447 0 0 1 0-.895ZM59.5 16.105a.448.448 0 1 1 0 .896.448.448 0 0 1 0-.896Z"/>
  <path fill="#000229" fill-rule="evenodd" d="M83.21 162.366c0-.231.223-.419.498-.419h26.743c.274 0 .497.188.497.419v1.847c0 .231-.223.419-.497.419H83.708c-.275 0-.497-.188-.497-.419v-1.847Zm.994.418v1.011h25.75v-1.011h-25.75Z" clip-rule="evenodd"/>
  <path fill="#fff" fill-rule="evenodd" d="m127.948 143.991-13.852 7.22-.464-.834 13.852-7.219.464.833Z" clip-rule="evenodd"/>
  <path fill="#000229" fill-rule="evenodd" d="M137.297 137.805a.49.49 0 0 1 .311.255l1.019 1.999a.526.526 0 0 1-.198.692l-23.049 13.082a.475.475 0 0 1-.659-.206l-.937-1.816-.088-.162a.533.533 0 0 1 .002-.511.494.494 0 0 1 .255-.225l22.941-13.027.015-.011a.466.466 0 0 1 .388-.07Zm-.315 1.194-22.197 12.606.56 1.085 22.194-12.597-.557-1.094ZM43.314 98.421a.504.504 0 0 1 .523.483c.139 4.895-3.065 7.925-7.101 9.336l-.004.001c-1.573.537-3.22.846-4.885.916a.504.504 0 0 1-.531-.474.502.502 0 0 1 .487-.518 16.369 16.369 0 0 0 4.59-.86c3.758-1.314 6.548-4.034 6.426-8.374a.502.502 0 0 1 .495-.51Z" clip-rule="evenodd"/>
  <path fill="#000229" fill-rule="evenodd" d="M136.106 137.055c-1.055-1.185-2.801-1.177-4.534-.499l-.022.008a36.199 36.199 0 0 1-9.455 1.857c-.481.042-.931.078-1.327.109-.247.019-.474.037-.673.054a18.86 18.86 0 0 0-.659.063 3.338 3.338 0 0 0-.283.044l-8.805 4.763 3.808 6.594 22.539-12.078a3.568 3.568 0 0 0-.589-.915Zm-4.893-1.424c1.857-.724 4.163-.897 5.647.771l.001.001c.401.453.708.98.903 1.55a.504.504 0 0 1 .026.159v.103a.495.495 0 0 1-.263.436l-23.325 12.499a.503.503 0 0 1-.674-.19l-4.304-7.453a.493.493 0 0 1 .195-.68l9.307-5.035a.54.54 0 0 1 .096-.04c.133-.039.309-.066.493-.088.192-.023.428-.045.695-.068l.692-.055c.391-.031.828-.065 1.311-.107l.013-.001a35.21 35.21 0 0 0 9.187-1.802ZM40.262 54.623a.49.49 0 0 1 .255.654 56.248 56.248 0 0 0-4.414 14.267c3.658-.458 12.672-1.776 15.194-2.217.276-.048.54.131.59.4a.496.496 0 0 1-.41.575c-2.714.473-12.83 1.948-15.92 2.306l-.663.076.1-.642a57.21 57.21 0 0 1 4.597-15.171.513.513 0 0 1 .671-.248Z" clip-rule="evenodd"/>
  <g fill="#000229" clip-path="url(#a)">
    <path d="M100.091 27.21c2.734-1.59 4.047-5.3 2.991-8.276-1.97-5.158-8.158-3.652-9.72 1.262-1.602 4.578 1.982 9.598 6.729 7.014Zm-1.262-.924c-3.453 1.231-5.22-2.701-4.148-5.649a5.583 5.583 0 0 1 2.073-2.862c1.82-1.292 4.096-.669 4.928 1.392 1.059 2.59-.225 6.051-2.853 7.12Z"/>
    <path d="M108.004 27.563c3.21-3.086-.313-7.796-4.149-8.031.09.392.145.79.165 1.192 1.557.21 3.167 1.331 3.762 2.729 1.37 3.12-2.141 5.067-5.107 3.506a5.104 5.104 0 0 1-.758-.466c-.269.29-.564.553-.881.788 1.98 1.679 5.322 1.852 6.968.282ZM92.918 25.175c-1.666-3.81.83-9.311 5.087-9.978-6.005-.902-9.706 8.424-4 11.701a5.76 5.76 0 0 1-1.087-1.723Z"/>
    <path d="M102.309 26.036c1.601 1.232 4.254 1.168 4.967-.362.889-1.968-1.313-4.072-3.249-4.349a8.028 8.028 0 0 1-1.718 4.711ZM99.203 25.463c1.608-1.018 2.464-3.088 2.234-4.959-.238-2.295-2.304-3.668-4.352-2.246-1.755 1.143-2.653 4.033-1.813 5.945a2.57 2.57 0 0 0 3.93 1.26Zm-2-1.21a.285.285 0 0 1-.156-.378l.1-.243a1.201 1.201 0 0 1-.432-1.352.29.29 0 0 1 .55.184.628.628 0 1 0 1.222.127.62.62 0 0 0-.384-.51 1.21 1.21 0 0 1 .647-2.314l.099-.239a.29.29 0 0 1 .537.221l-.098.242a1.199 1.199 0 0 1 .478 1.119c-.002.166-.082.377-.268.4a.294.294 0 0 1-.326-.371.627.627 0 1 0-.844.405c.145.06.277.15.387.261.221.218.349.514.356.824-.053.744-.605 1.353-1.39 1.229l-.1.239a.289.289 0 0 1-.378.156ZM107.72 28.808c.277-.26.523-.551.732-.868-2.145 1.973-5.752 1.553-7.917-.32a5.773 5.773 0 0 1-.715.383c.082.092.131.144.136.148 2.036 2.09 5.597 2.73 7.764.657Z"/>
  </g>
  <defs>
    <clipPath id="a">
      <path fill="#fff" d="M0 0h19.84v19.84H0z" transform="rotate(67.542 45.191 83.76)"/>
    </clipPath>
  </defs>
</svg>
