<svg xmlns="http://www.w3.org/2000/svg" width="96" height="181" fill="none">
  <path fill="#CAD7E4" d="M77.459 173.514c2.09.25 4.06 1.41 3.58 4.07l-23 .11v-7.69.24c0 .07 7.23.15 7.86 0h.28c1.35.12 6.94 2.76 11.28 3.27ZM39.768 177.243v.23l-12.06-.11-9.79-4.62 3.15-6.44 6.89 2.73c3.76 1.85 3.92 4.37 5.79 4.28 3.19-.14 5.78 2.22 6.02 3.93ZM64.53 71.374c1.66 10.73 3.54 23.88 3.63 29l-39.11.07c.2-3.8 3.81-38 3.81-38s-10.53 16.37-16 12.09c-3.58-2.8-8.09-31.65-8.09-31.65l4.11-1.23c1.45 5.81 7.41 20.79 7.72 20.79.31 0 7-9.32 10.17-13.44 1.89-2.44 10.34-2.07 10.34-2.07.33-.82.5-1.56 1.3-2.05.8-.49 6.88-1.12 10.22-.2a2.8 2.8 0 0 1 1.84 2.25s4.92-.2 7.87 1.42c3.35 1.82 24 43.19 24 43.19l-3.46 3.21-18.35-23.38Z"/>
  <path fill="#000229" d="M13.508 2.326a.232.232 0 0 1 .164-.084.246.246 0 0 1 .176.055l.868.728-2.73 3.248h1.807l1.982-2.358L17.33 5.22a.217.217 0 0 1 .024.312l-.65.741h1.83c.227-.316.324-.7.274-1.08a1.547 1.547 0 0 0-.545-.98l-3.482-2.925a1.67 1.67 0 0 0-.577-.314 1.724 1.724 0 0 0-1.296.112 1.63 1.63 0 0 0-.508.408l-3.954 4.78h1.797l3.265-3.948Zm-8.568 3.5a.724.724 0 0 0-.5.196.656.656 0 0 0-.206.475c0 .179.074.35.206.476a.724.724 0 0 0 .5.197h12.233c.81 0 1.589.306 2.162.853.574.546.896 1.287.896 2.06v5.825c0 .772-.322 1.513-.896 2.059a3.138 3.138 0 0 1-2.162.853H5.88a3.138 3.138 0 0 1-2.163-.853 2.844 2.844 0 0 1-.896-2.06v-9.41c0-.534.223-1.047.62-1.425.397-.379.936-.591 1.498-.591h4.065L7.883 5.825H4.94Zm9.645 7.393c0 .37.316.672.706.672h1.882c.187 0 .366-.07.499-.197a.656.656 0 0 0 .206-.475.656.656 0 0 0-.206-.475.724.724 0 0 0-.5-.197h-1.881a.724.724 0 0 0-.5.197.657.657 0 0 0-.206.475Z"/>
  <path stroke="#000" stroke-linecap="round" stroke-linejoin="round" stroke-width=".86" d="M93.767 98.704a2.16 2.16 0 0 0 .14-1.81c-.21-.58-1.35-2.55-5.36-2.77"/>
  <path stroke="#000" stroke-linecap="round" stroke-linejoin="round" stroke-width=".86" d="M94.467 97.033a2.14 2.14 0 0 0 .13-1.72c-.21-.55-1.7-2.62-5.05-2.72"/>
  <path stroke="#000" stroke-linecap="round" stroke-miterlimit="10" stroke-width=".86" d="M36.939 105.974c-1 5.38-6.33 7-11.22 6.16"/>
  <path stroke="#000" stroke-linecap="round" stroke-linejoin="round" stroke-width=".86" d="M81.107 177.724h-23.06v1.89h23.06v-1.89Z"/>
  <path stroke="#000" stroke-linecap="round" stroke-miterlimit="10" stroke-width=".86" d="M28.137 169.114c2-1.66 14.51-23 22-43.48a107.658 107.658 0 0 0 4.93-17.12M30.157 100.524c-1.2 22.79-8.93 65.79-8.93 65.79"/>
  <path stroke="#000" stroke-linecap="round" stroke-miterlimit="10" stroke-width=".86" d="M50.168 125.584v.05c1.84 10 7.14 40 7.86 44.37v.24c0 .07 7.23.15 7.86 0 1.32-2.87 2.21-33.3 1.41-69.51"/>
  <path stroke="#000" stroke-linecap="round" stroke-linejoin="round" stroke-width=".86" d="M66.209 170.254c1.35.11 6.91 2.75 11.25 3.26 2.09.25 4.06 1.41 3.58 4.07l-23 .11"/>
  <path stroke="#000" stroke-miterlimit="10" stroke-width=".86" d="M58.02 170.004v7.52"/>
  <path stroke="#000" stroke-linecap="round" stroke-linejoin="round" stroke-width=".86" d="m17.92 172.754-1.06 2.03 10.4 4.69 12.52-.1v-1.9h-.02l-12.05-.11-9.79-4.61Z"/>
  <path fill="#CAD7E4" d="M39.768 177.243c-.26-1.71-2.83-4.07-6-3.93-1.87.09-2-2.43-5.79-4.28l-6.91-2.72-3.15 6.44"/>
  <path stroke="#000" stroke-linecap="round" stroke-linejoin="round" stroke-width=".86" d="M39.768 177.243c-.26-1.71-2.83-4.07-6-3.93-1.87.09-2-2.43-5.79-4.28l-6.91-2.72-3.15 6.44"/>
  <path stroke="#000" stroke-linecap="round" stroke-miterlimit="10" stroke-width=".86" d="M53.197 23.254c-.22-2.27-.49-5.63-2-7.45-4.81-5.84-11.13 5.4-12.23 9.05-1 3.41 3.54 11.38 4.9 12 2.07.93 5.14-.93 6.18-2.85"/>
  <path stroke="#000" stroke-miterlimit="10" stroke-width=".86" d="M53.02 44.773c.23-5.9.78-11.23.53-17.14M44.448 36.774c-.4 2.71-.86 5.9-1.94 8.15"/>
  <path stroke="#000" stroke-linecap="round" stroke-miterlimit="10" stroke-width=".86" d="M52.34 24.314c2.95-4 4.79 1.49 3.66 2.85a2.43 2.43 0 0 1-3 .2"/>
  <path stroke="#000" stroke-miterlimit="10" stroke-width=".86" d="M42.679 18.024c-.34 0-8.26-1.94-7-4.09 1.38-2.44 16.44 6.1 17.38 6.56"/>
  <path stroke="#000" stroke-linecap="round" stroke-miterlimit="10" stroke-width=".86" d="M46.688 23.534a6.36 6.36 0 0 0 2.4.91M53.598 25.113a2.43 2.43 0 0 0 1.53.69"/>
  <path fill="#000" d="M47.178 26.174a.42.42 0 1 0 0-.84.42.42 0 0 0 0 .84ZM41.787 25.194a.42.42 0 1 0 0-.84.42.42 0 0 0 0 .84Z"/>
  <path stroke="#000" stroke-linecap="round" stroke-miterlimit="10" stroke-width=".86" d="M41.27 22.884a1.671 1.671 0 0 1 2.45.64c.26 1.09-.7 3.14-1.16 4.33-.31.81-.86 2.4.7 2.19M46.098 33.663a1.748 1.748 0 0 1-2.7-.3M13.197 34.874c.194-2.104.178-4.22-.05-6.32-.17-1.34-.48-2.37-1-2.39-.76 0-1 .9-1.11 2.38-.11 1.48-.05 3.82-.26 6.13"/>
  <path stroke="#000" stroke-linejoin="round" stroke-width=".86" d="M82.909 94.674c-1.43 1.42 0 5.72 2.85 6.29a2.29 2.29 0 0 0 2.31-1c.53-1.28-.84-2.21-2.32-1.37"/>
  <path stroke="#000" stroke-linecap="round" stroke-miterlimit="10" stroke-width=".86" d="M12.828 41.664c1.86-.59 3.54-6.67-1-6.86-.9 0-2.72-.18-3 1a.81.81 0 0 0 .51 1 5.91 5.91 0 0 0 1.33.17c.55 0 1.13.32.94.39-.85.31-1.2 1.48-1.25 2.27"/>
  <path stroke="#000" stroke-linecap="round" stroke-miterlimit="10" stroke-width=".86" d="M10.868 32.544c-.15-1.31-2.21-1.05-2.42 0-.62 3 .17 6.89 1.9 6.43"/>
  <path stroke="#000" stroke-linecap="round" stroke-miterlimit="10" stroke-width=".86" d="M8.27 33.664a1.051 1.051 0 1 0-2.1-.11c-.6 2.87.56 5.15 1.34 5.57a1.12 1.12 0 0 0 1.48-.59M8.7 42.864c-1.51-.73-2.22-3.6-1.94-4.44"/>
  <path stroke="#000" stroke-linejoin="round" stroke-width=".86" d="M91.887 98.243c-.41.05-.81-.06-1.16.25a1 1 0 0 0-.35.83c.1.35 1 .53 1.33.52a2.52 2.52 0 0 0 1.79-.8 7.11 7.11 0 0 0 1.41-4.13 3.08 3.08 0 0 0-1.91-3 10.11 10.11 0 0 0-6.63-.49"/>
  <path stroke="#000" stroke-linecap="round" stroke-miterlimit="10" stroke-width=".86" d="m64.469 71.284.08.09 18.3 23.37"/>
  <path stroke="#000" stroke-linecap="round" stroke-linejoin="round" stroke-width=".86" d="m82.86 94.764 3.46-3.21s-20.65-41.37-24-43.19c-2.95-1.62-7.87-1.42-7.87-1.42a2.8 2.8 0 0 0-1.84-2.25c-3.34-.92-9.46-.26-10.22.2-.76.46-1 1.23-1.3 2.05 0 0-8.45-.37-10.34 2.07-3.21 4.12-9.86 13.44-10.17 13.44-.31 0-6.27-15-7.72-20.79l-4.11 1.23s4.51 28.85 8.09 31.65c5.5 4.28 16-12.09 16-12.09s-3.61 34.19-3.81 38l39.11-.07c-.09-5.11-2-18.26-3.63-29-.69-4.45-1.34-8.49-1.8-11.37"/>
  <path stroke="#000" stroke-linejoin="round" stroke-width=".86" d="M91.798 98.254c.7 0-.81-1.88-2.58-1.92-3.15-.07-3.73 1.67-3.06 2.24"/>
</svg>
