<svg xmlns="http://www.w3.org/2000/svg" width="109" height="170" fill="none">
  <path fill="#CAD7E4" d="M32.811 100.497H9.487a52.768 52.768 0 0 1 .549-11.27c5.293 1.606 12.714 3.284 21.607 5.15l1.239.26c1.916.485 4.277.284 5.317 2.848.093.224.198.614.327 1.04h-.234l-4.242.2a1.23 1.23 0 0 0-1.013.592 1.263 1.263 0 0 0-.074 1.18h-.152Z"/>
  <path fill="#CAD7E4" d="M35.044 86.9a7.34 7.34 0 0 0-2.516 3.048 7.264 7.264 0 0 0-.56 3.898v.284c-9.071-1.867-16.688-3.544-22.04-5.15-5.352-1.607-8.452-3.036-8.952-4.536-3.85-11.564 4.637-34.952 9.083-39.299 2.587-2.516 8.559-4.477 14.996-5.717a4.725 4.725 0 0 1 1.478-2.09c.091-.048.187-.088.286-.119a30.067 30.067 0 0 1 11.848 0c.23.06.454.143.668.248.422.17.793.444 1.079.795.285.351.476.769.554 1.213 0 0 12.04 1.347 14.304 4.17C57.99 47 62.758 58.564 66.716 76.305l-14.865.496a3.784 3.784 0 0 0-2.393.987 3.721 3.721 0 0 0-1.183 2.285l-2.384 14.789c-.227-2.043-.381-4.512-2.575-5.162-2.193-.65-5.066-1.654-8.272-2.8ZM91.832 157.852h.22v.099c.973.224 7.184 3.636 12.482 4.268 2.545.311 4.944 1.737 4.384 4.963H80.81v-9.392l11.022.062Z"/>
  <path fill="#000229" d="M50.536 137.046c.554 1.478 2.039 7.568 4.713 11.576 1.39 2.046 1.885 4.73-.801 6.35L36.647 134.35l6.503-5.676a93.08 93.08 0 0 0 7.54 8.277l-.154.095Z"/>
  <path fill="#000229" fill-rule="evenodd" d="M10.336 119.792c0-.282.23-.51.513-.51h40.675v1.021H11.363v48.676h59.024v-45.294h1.026v45.805c0 .281-.23.51-.513.51H10.85a.512.512 0 0 1-.514-.51v-49.698ZM26.905 37.334a4.248 4.248 0 0 0-1.262 1.848.507.507 0 0 1-.379.332c-3.15.627-6.177 1.426-8.724 2.38-2.56.959-4.584 2.055-5.78 3.25-1.022 1.02-2.333 3.234-3.67 6.233-1.329 2.979-2.656 6.672-3.73 10.594-1.076 3.923-1.894 8.063-2.21 11.938-.315 3.881-.123 7.46.794 10.278.085.258.309.572.746.931.433.356 1.036.727 1.815 1.11 1.558.767 3.75 1.553 6.504 2.368 5.506 1.629 13.18 3.35 22.344 5.264l-.203 1.002c-9.163-1.914-16.873-3.643-22.423-5.284-2.773-.82-5.028-1.626-6.662-2.43-.817-.402-1.496-.812-2.01-1.236-.51-.42-.898-.883-1.069-1.403v-.001C.008 81.505-.176 77.772.145 73.825c.322-3.954 1.155-8.16 2.242-12.127 1.087-3.969 2.432-7.712 3.783-10.742 1.341-3.009 2.716-5.377 3.882-6.54m16.853-7.082a2.57 2.57 0 0 1 .442-.135c.27-.063.62-.127 1.04-.186a32.614 32.614 0 0 1 3.093-.265c2.367-.1 5.068.002 6.96.5a2.409 2.409 0 0 1 1.237.664c.332.333.562.757.661 1.22a.507.507 0 0 0 .437.4l.015-.137-.015.137.008.001.024.003.035.004.063.008.376.047a71.063 71.063 0 0 1 5.65.964c1.61.346 3.274.777 4.667 1.293.696.259 1.314.535 1.819.826.51.294.877.59 1.1.874l.001.002c1.289 1.626 3.114 5.242 5.114 10.74 1.993 5.48 4.143 12.784 6.098 21.744l.986-.221c-1.964-8.998-4.126-16.347-6.137-21.876-2.004-5.51-3.874-9.261-5.273-11.026-.335-.428-.825-.8-1.39-1.126-.57-.328-1.243-.627-1.971-.897-1.457-.54-3.174-.983-4.805-1.334a71.994 71.994 0 0 0-5.912-1 3.48 3.48 0 0 0-.842-1.373 3.413 3.413 0 0 0-1.705-.93c-2.037-.534-4.851-.63-7.243-.53-1.204.051-2.317.152-3.191.275-.436.062-.82.13-1.128.203-.289.068-.569.152-.756.265a.507.507 0 0 0-.06.044 5.263 5.263 0 0 0-1.507 2.053c-3.088.626-6.068 1.42-8.606 2.37-2.6.974-4.788 2.131-6.138 3.481" clip-rule="evenodd"/>
  <path fill="#000229" fill-rule="evenodd" d="M10.72 108.552c-2.277-4.927-2.89-11.49-1.59-20.265l1.023.146c-1.285 8.676-.654 15.019 1.51 19.7 2.154 4.66 5.856 7.734 10.86 9.824a22.216 22.216 0 0 0 5.557 1.25l23.597-.095.004 1.014-23.648.095-.025-.002a23.308 23.308 0 0 1-5.858-1.315l-.01-.004-.012-.005c-5.19-2.166-9.122-5.399-11.407-10.343ZM90.7 126.046c-.374-7.449-.769-11.918-1.432-14.997l.993-.22c.684 3.173 1.08 7.724 1.454 15.164.255 5.065.499 11.487.813 19.751.148 3.89.311 8.188.498 12.944l-1.016.041c-.187-4.762-.35-9.063-.498-12.955-.314-8.258-.558-14.671-.812-19.728ZM85.006 75.138h.015c.635.015 1.26.166 1.829.444.57.277 1.07.674 1.467 1.163a4.25 4.25 0 0 1 .829 1.665c.149.606.161 1.237.036 1.848l-3.676 20.317a4.128 4.128 0 0 1-1.284 2.396 4.243 4.243 0 0 1-2.52 1.107h-.005l-33.121 2.054h-.012a4.385 4.385 0 0 1-1.869-.386 4.33 4.33 0 0 1-1.519-1.139 4.242 4.242 0 0 1-.874-1.671 4.205 4.205 0 0 1-.061-1.87l3.324-21.165a4.107 4.107 0 0 1 1.322-2.522 4.228 4.228 0 0 1 2.671-1.087h.002l33.446-1.154Zm.006.992-33.414 1.153a3.213 3.213 0 0 0-2.03.825 3.12 3.12 0 0 0-1.004 1.923l-.001.007-3.33 21.198-.001.009c-.094.478-.078.971.046 1.442s.353.91.67 1.283c.318.373.716.672 1.166.874.446.201.932.302 1.423.297l33.084-2.051a3.239 3.239 0 0 0 1.912-.842c.525-.485.87-1.129.978-1.829l.001-.006 3.68-20.34.002-.006a3.236 3.236 0 0 0-.664-2.703 3.329 3.329 0 0 0-1.127-.894 3.383 3.383 0 0 0-1.391-.34Z" clip-rule="evenodd"/>
  <path fill="#000229" fill-rule="evenodd" d="m34.502 98.88 4.152-.226-.054-.974-4.181.227-.014.002c-.365.04-.708.196-.976.445a1.686 1.686 0 0 0-.362 1.99c.164.326.43.591.759.755l.02.01 12.773 5.024.364-.908-12.731-5.006a.717.717 0 0 1-.368-.756.713.713 0 0 1 .618-.583Z" clip-rule="evenodd"/>
  <path fill="#000229" fill-rule="evenodd" d="m32.886 100.498-23.49-.042.003-.898 23.489.042-.002.898ZM40.004 92.113a.501.501 0 0 1 .695.199 12.91 12.91 0 0 1 1.424 4.161c.065.405.167 1.075.161 1.725-.003.326-.034.67-.12.985-.086.314-.24.64-.516.876l-.002.001c-.245.207-.505.353-.779.41-.283.06-.55.018-.79-.1-.445-.22-.741-.682-.944-1.097-.213-.435-.377-.934-.506-1.358l-.11-.372c-.079-.264-.137-.463-.19-.594l-.003-.005c-.462-1.164-1.195-1.688-2.059-1.994-.446-.158-.927-.257-1.438-.349l-.307-.054c-.41-.071-.837-.145-1.243-.248a.529.529 0 0 1-.375-.637.51.51 0 0 1 .617-.388c.366.092.747.159 1.152.23l.33.057c.518.093 1.067.204 1.595.39 1.084.385 2.077 1.093 2.671 2.59.075.185.159.467.244.758l.09.3c.126.416.27.845.442 1.198.183.373.35.56.474.621.047.023.09.03.147.018.067-.014.178-.06.335-.192.061-.053.13-.156.183-.35.053-.191.079-.433.082-.706.005-.55-.082-1.137-.148-1.542a11.832 11.832 0 0 0-1.304-3.814.537.537 0 0 1 .192-.72Z" clip-rule="evenodd"/>
  <path fill="#000229" fill-rule="evenodd" d="M42.664 91.174c.208-.147.469-.05.584.215.21.489.433 1.338.605 2.285.173.958.303 2.071.31 3.107.007 1.012-.101 2.05-.477 2.777-.196.38-.468.682-.83.834-.357.15-.76.136-1.196-.019-.229-.08-.363-.383-.3-.676.063-.293.3-.465.528-.384.322.114.546.099.7.033.15-.063.276-.189.382-.395.229-.443.342-1.202.335-2.16a17.428 17.428 0 0 0-.289-2.869c-.165-.914-.366-1.645-.52-2-.114-.266-.04-.601.168-.748Z" clip-rule="evenodd"/>
  <path fill="#000229" fill-rule="evenodd" d="M45.64 98.632c.298.052.468.234.379.406-.117.227-.38.377-.696.454a2.869 2.869 0 0 1-.854.058 3.65 3.65 0 0 1-.696-.114 1.69 1.69 0 0 1-.289-.104.71.71 0 0 1-.15-.096c-.046-.041-.11-.113-.11-.207 0-.18.252-.327.563-.327.195 0 .367.058.468.144h.002c.082.023.21.047.344.056.138.01.234 0 .284-.012.026-.006.04-.01.053-.038.09-.173.404-.271.702-.22ZM50.739 56.354l.12.506c.577 2.447 1.318 5.33 2.035 8.12.209.812.416 1.618.616 2.402.882 3.453 1.642 6.528 1.856 8.019l.074.516-.956.16-.074-.516c-.203-1.415-.943-4.419-1.832-7.901l-.614-2.393c-.717-2.791-1.462-5.69-2.043-8.148l-.12-.507.938-.258ZM35.707 87.27c-2.125 1.112-3.616 3.138-3.616 6.653H31.01c0-3.822 1.655-6.203 4.162-7.514l.536.861ZM20.155 103.315a.509.509 0 0 1 .513.506c.098 3.506-1.35 6.142-3.574 7.923-2.207 1.768-5.162 2.686-8.114 2.841a.508.508 0 0 1-.522-.495.513.513 0 0 1 .472-.547c2.806-.148 5.551-1.02 7.559-2.628 1.99-1.594 3.27-3.92 3.183-7.063a.513.513 0 0 1 .483-.537ZM32.9 2.123c-.663.223-1.354.68-2.057 1.462-.847.941-1.409 2.348-1.802 3.901-.365 1.444-.57 2.955-.746 4.24l-.037.269a.506.506 0 0 1-1.003-.137l.037-.276c.174-1.278.387-2.842.767-4.343.405-1.602 1.016-3.202 2.03-4.328.79-.88 1.622-1.454 2.485-1.745a4.377 4.377 0 0 1 2.574-.065c1.656.443 3.199 1.745 4.53 3.32 2.667 3.162 4.709 7.706 5.286 9.952v.001c.293 1.15.097 2.593-.33 4.06-.43 1.483-1.12 3.061-1.888 4.52-.768 1.46-1.624 2.816-2.398 3.853-.386.518-.758.964-1.092 1.306-.32.327-.655.61-.969.735-1.447.574-3.124.161-4.525-.624-1.41-.79-2.66-2.021-3.28-3.288a.507.507 0 0 1 .91-.442c.512 1.047 1.6 2.14 2.867 2.85 1.276.715 2.614.978 3.653.566.102-.04.31-.187.618-.502.294-.3.636-.708 1.005-1.204.74-.99 1.568-2.3 2.314-3.719.748-1.42 1.406-2.933 1.812-4.332.412-1.414.546-2.644.32-3.53-.542-2.111-2.517-6.515-5.08-9.551-1.284-1.523-2.66-2.633-4.015-2.995a3.361 3.361 0 0 0-1.987.046ZM27.25 17.001a199.868 199.868 0 0 0-.1 20.49l-.623.078c-.32-6.88-.285-13.792.102-20.663l.621.095Z" clip-rule="evenodd"/>
  <path fill="#000229" fill-rule="evenodd" d="M37.184 31.549c-.163-1.098-.32-2.157-.537-3.134l.951-.238c.227 1.017.394 2.14.559 3.257.07.473.14.945.214 1.407.253 1.58.56 3.072 1.094 4.293l-.887.435c-.592-1.355-.916-2.965-1.172-4.555-.079-.493-.151-.983-.222-1.465ZM26.483 10.34c.873.086 1.732.824 2.561 2.218.153.257.094.606-.13.78-.224.174-.53.107-.682-.149-.77-1.294-1.403-1.688-1.833-1.73-.408-.04-.817.223-1.183.806-.363.577-.618 1.376-.708 2.14-.093.792.007 1.394.193 1.679.28.415.735.618 1.282.637.55.02 1.124-.152 1.527-.39.241-.143.537-.036.662.24.125.275.03.613-.21.756a3.817 3.817 0 0 1-2.01.516c-.728-.026-1.512-.305-2.03-1.077l-.004-.004c-.423-.643-.487-1.62-.383-2.506.107-.915.411-1.895.884-2.646.468-.746 1.17-1.358 2.064-1.27ZM49.618.947c-.321-.696-1.026-.91-1.71-.943-.713-.033-1.605.12-2.586.383-1.972.53-4.446 1.552-6.884 2.683-4.406 2.046-8.77 4.489-9.973 5.163l-.276.153.448 1.006.283-.158 9.907-5.128 6.732-2.628 2.307-.352.853.333a.652.652 0 0 1 .02.556c-.083.21-.27.457-.59.73-.638.543-1.642 1.05-2.751 1.485-.56.22-1.137.419-1.687.591-.527.166-1.03.308-1.474.424-.454.119-.843.21-1.129.27-.143.031-.258.054-.342.069-.05.009-.08.013-.095.015l-.01.002h.008v1.122c.073 0 .176-.017.255-.03.098-.018.225-.043.375-.075a29.891 29.891 0 0 0 4.436-1.33c1.132-.445 2.26-.998 3.029-1.653.384-.327.719-.714.899-1.168a1.883 1.883 0 0 0-.045-1.52Z" clip-rule="evenodd"/>
  <path fill="#000229" fill-rule="evenodd" d="M27.117 13.324a.574.574 0 0 1-.03.767 3.156 3.156 0 0 1-2.143.937c-.277.008-.506-.23-.513-.529-.007-.3.212-.548.488-.555a2.193 2.193 0 0 0 1.49-.652.474.474 0 0 1 .708.032Z" clip-rule="evenodd"/>
  <path fill="#000229" d="M34.297 17.846a.47.47 0 1 0 0-.94.47.47 0 0 0 0 .94ZM40.875 17.846a.47.47 0 1 0 0-.94.47.47 0 0 0 0 .94Z"/>
  <path fill="#000229" fill-rule="evenodd" d="M38.68 15.08c.284.123.401.427.262.679-.242.439-.245 1.086-.108 1.87a15.827 15.827 0 0 0 .3 1.309c.08.317.16.631.217.913v.006c.041.218.092.509.108.809.017.294.004.638-.108.951a1.323 1.323 0 0 1-.81.821c-.43.157-.938.126-1.495-.03-.3-.085-.468-.37-.373-.637.095-.268.416-.416.718-.332.433.122.636.089.713.06.052-.019.11-.058.157-.19.052-.145.07-.347.056-.592a5.594 5.594 0 0 0-.093-.692 17.763 17.763 0 0 0-.205-.858 16.711 16.711 0 0 1-.315-1.382c-.142-.808-.198-1.731.211-2.473.14-.252.482-.356.765-.232ZM81.835 157.703a321.483 321.483 0 0 0-8.505-35.604l-.977.297a320.482 320.482 0 0 1 8.553 35.91l.075.423h11.105v-1.026H81.835Z" clip-rule="evenodd"/>
  <path fill="#000229" fill-rule="evenodd" d="M91.666 158.161a.506.506 0 0 1 .603-.359 4.7 4.7 0 0 1 .66.222c.27.106.605.245.99.405l.089.037c.76.316 1.716.714 2.79 1.122 2.242.851 4.963 1.732 7.447 2.006l.001.001c1.292.144 2.608.561 3.534 1.382.953.846 1.436 2.073 1.127 3.693a.497.497 0 0 1-.494.391l-27.096.121a.49.49 0 0 1-.506-.473c-.002-.262.223-.476.502-.477l26.658-.12c.114-1.119-.268-1.897-.883-2.443-.711-.631-1.789-.999-2.961-1.131-2.621-.289-5.444-1.209-7.706-2.068-1.09-.414-2.06-.818-2.818-1.134a4.05 4.05 0 0 0-1.555-.607c-.273-.058-.444-.312-.382-.568Z" clip-rule="evenodd"/>
  <path fill="#000229" fill-rule="evenodd" d="M109 169.415c0 .323-.226.585-.505.585h-27.18c-.279 0-.505-.262-.505-.585v-2.587c0-.323.226-.585.505-.585h27.18c.279 0 .505.262.505.585v2.587Zm-1.01-.586v-1.415H81.82v1.415h26.17Z" clip-rule="evenodd"/>
  <path fill="#000229" fill-rule="evenodd" d="M80.81 167.182v-9.392h.94v9.392h-.94Z" clip-rule="evenodd"/>
  <path fill="#CAD7E4" d="M50.785 137.123c.498 1.558 1.802 7.677 4.458 11.624 1.28 1.92 1.814 4.358-.214 6.036a.807.807 0 0 1-1.126-.085l-17.06-19.783a.832.832 0 0 1 .07-1.147l5.846-5.094"/>
  <path fill="#000229" fill-rule="evenodd" d="m37.757 134.354 5.816-4.918-.66-.762-5.828 4.927-.004.004a1.286 1.286 0 0 0-.116 1.809l17 19.126.003.002a1.331 1.331 0 0 0 1.82.134c1.137-.914 1.573-2.062 1.528-3.237-.045-1.149-.547-2.292-1.217-3.266l-.001-.002c-1.282-1.848-2.25-4.227-2.963-6.357a61.986 61.986 0 0 1-.877-2.874l-.176-.631c-.147-.527-.267-.96-.36-1.243l-.967.31c.086.26.197.657.34 1.171l.185.662c.234.829.528 1.837.89 2.92.722 2.157 1.726 4.642 3.09 6.608.605.881 1.006 1.843 1.04 2.741.035.872-.273 1.713-1.154 2.42l-.002.002a.306.306 0 0 1-.218.068.304.304 0 0 1-.203-.097l-16.99-19.113v-.001a.289.289 0 0 1 .024-.403ZM32.47 22.544c.326-.026.622.126.662.338.075.396.535.627 1.195.722.323.046.654.05.92.027.132-.012.236-.03.307-.048a.525.525 0 0 0 .072-.022.836.836 0 0 1 .83-.015c.24.146.255.391.033.548-.148.105-.339.17-.507.213a3.748 3.748 0 0 1-.574.092 5.937 5.937 0 0 1-1.337-.038c-.911-.13-1.958-.527-2.118-1.385-.04-.212.192-.406.517-.432ZM17.968 57.316a.499.499 0 0 1 .33.628c-1.255 3.91-2.664 8.325-3.68 11.914-.507 1.796-.914 3.374-1.154 4.575-.12.601-.195 1.095-.223 1.468a2.948 2.948 0 0 0-.006.439.67.67 0 0 0 .021.136c.008.009.04.046.121.11.102.083.25.183.447.302.392.236.94.52 1.626.845 1.37.649 3.242 1.439 5.402 2.3 4.316 1.72 9.749 3.713 14.52 5.405.263.093.4.38.305.64a.509.509 0 0 1-.648.301c-4.776-1.693-10.223-3.69-14.557-5.419-2.166-.863-4.062-1.662-5.46-2.325a20.405 20.405 0 0 1-1.717-.894 5.22 5.22 0 0 1-.557-.378 1.433 1.433 0 0 1-.383-.427 1.361 1.361 0 0 1-.13-.517 3.925 3.925 0 0 1 .005-.59c.032-.432.116-.971.24-1.59.247-1.239.662-2.847 1.172-4.65 1.021-3.608 2.435-8.04 3.69-11.947a.508.508 0 0 1 .636-.326Z" clip-rule="evenodd"/>
  <path fill="#000229" fill-rule="evenodd" d="M87.928 93.661a34.79 34.79 0 0 0-1.847-.65l.303-.967c.644.204 1.275.432 1.9.67h.002c6.718 2.577 9.134 11.235 3.402 16.427-1.054.955-4.015 3.103-7.853 5.782-3.853 2.69-8.628 5.938-13.34 9.104a1362.434 1362.434 0 0 1-12.979 8.615c-3.593 2.352-6.193 4.016-6.768 4.311l-.338.174-8.126-8.758.326-.346.365.349c-.365-.349-.366-.348-.365-.349l.18-.191.517-.549 1.896-2.011c1.599-1.693 3.801-4.021 6.215-6.563 4.827-5.083 10.506-11.023 13.901-14.439l.713.717c-3.386 3.406-9.058 9.338-13.886 14.422a3289.931 3289.931 0 0 0-6.212 6.561l-1.896 2.01-.371.394 6.95 7.491c.91-.541 3.225-2.026 6.35-4.072 3.608-2.362 8.258-5.445 12.968-8.609 4.71-3.164 9.48-6.409 13.326-9.093 3.861-2.695 6.758-4.802 7.753-5.703 5.09-4.611 3.033-12.379-3.086-14.727ZM39.015 15.348l-.265-.52c-.228.185-.293.568-.146.856.146.287.45.37.676.185m0 0h.001l.01-.008.046-.035a3.068 3.068 0 0 1 .807-.418c.495-.156.956-.114 1.284.352.18.256.49.278.692.05.202-.227.22-.619.04-.874-.686-.975-1.613-.933-2.254-.73a3.986 3.986 0 0 0-1.146.613l-.007.005-.002.002h-.001l.265.522M34.767 15.726c-.405 0-.804.069-1.164.202-.24.089-.536.022-.66-.15-.125-.17-.031-.381.21-.47a4.687 4.687 0 0 1 1.614-.28c.562 0 1.116.096 1.615.28.24.089.334.3.21.47-.125.172-.42.239-.661.15a3.377 3.377 0 0 0-1.164-.202ZM53.132 156.844a.509.509 0 0 1-.717-.049l-17.962-20.633a.507.507 0 0 1 .05-.716l1.694-1.474a.508.508 0 0 1 .717.05l17.962 20.632a.508.508 0 0 1-.05.717l-1.694 1.473Zm-.283-1.1.927-.806-17.295-19.866-.928.807 17.296 19.865Z" clip-rule="evenodd"/>
  <g fill="#000229" clip-path="url(#a)">
    <path d="M82.066 41.421c2.734-1.59 4.047-5.3 2.99-8.276-1.97-5.158-8.158-3.652-9.72 1.262-1.6 4.578 1.983 9.598 6.73 7.014Zm-1.262-.924c-3.454 1.231-5.221-2.701-4.148-5.649a5.583 5.583 0 0 1 2.073-2.862c1.82-1.292 4.096-.669 4.928 1.392 1.059 2.59-.225 6.051-2.853 7.119Z"/>
    <path d="M89.978 41.774c3.21-3.087-.312-7.796-4.149-8.031.09.392.146.79.166 1.192 1.556.21 3.166 1.331 3.761 2.728 1.37 3.122-2.14 5.068-5.106 3.507a5.097 5.097 0 0 1-.758-.466c-.27.29-.564.553-.881.788 1.98 1.679 5.321 1.852 6.967.282ZM74.893 39.386c-1.667-3.81.83-9.312 5.087-9.978-6.005-.902-9.707 8.424-4.001 11.7a5.759 5.759 0 0 1-1.086-1.722Z"/>
    <path d="M84.284 40.247c1.6 1.232 4.254 1.168 4.967-.362.888-1.968-1.314-4.072-3.25-4.349a8.03 8.03 0 0 1-1.717 4.711ZM81.177 39.674c1.609-1.018 2.465-3.088 2.234-4.959-.237-2.295-2.304-3.668-4.35-2.246-1.757 1.143-2.655 4.032-1.815 5.945a2.568 2.568 0 0 0 3.931 1.26Zm-2-1.21a.283.283 0 0 1-.156-.378l.101-.243a1.201 1.201 0 0 1-.433-1.352.29.29 0 0 1 .55.184.63.63 0 1 0 .838-.384 1.21 1.21 0 0 1 .647-2.313l.1-.239a.291.291 0 0 1 .537.221l-.098.242a1.199 1.199 0 0 1 .478 1.119c-.003.166-.082.377-.268.4a.294.294 0 0 1-.326-.371.628.628 0 1 0-.845.405c.145.06.277.15.388.261.22.218.348.514.356.824-.053.744-.605 1.353-1.39 1.229l-.1.239a.29.29 0 0 1-.378.156ZM89.695 43.019c.277-.26.522-.551.731-.868-2.144 1.973-5.751 1.553-7.916-.32-.23.144-.469.272-.716.383.082.092.132.144.137.148 2.035 2.09 5.596 2.73 7.764.657Z"/>
  </g>
  <path fill="#000" d="M49.28 26.626a1.065 1.065 0 0 0 1.506 1.506l-1.506-1.506Zm12.997-11.49.753-.754-.753-.752-.752.752.752.753Zm6.389 6.387-.753.753.753.753.752-.753-.752-.753ZM81.974 9.28c0-.588-.476-1.064-1.064-1.064h-9.583a1.065 1.065 0 0 0 0 2.129h8.518v8.518a1.065 1.065 0 0 0 2.13 0V9.279ZM50.786 28.132 63.03 15.888l-1.505-1.506L49.28 26.626l1.506 1.506Zm10.739-12.244 6.388 6.388 1.505-1.505-6.388-6.389-1.505 1.506Zm7.893 6.388 12.244-12.244-1.505-1.506-12.244 12.245 1.505 1.505Z"/>
  <defs>
    <clipPath id="a">
      <path fill="#fff" d="M0 0h19.84v19.84H0z" transform="rotate(67.542 25.553 77.388)"/>
    </clipPath>
  </defs>
</svg>
