<svg xmlns="http://www.w3.org/2000/svg" width="120" height="120" fill="none">
  <path fill="#DCE4EC" d="M104.502 105.204c-7.078 3.528-16.3 2.121-21.97-3.355-3.832-3.702-5.975-8.81-9.568-12.728-6.732-7.338-18.616-9.286-27.339-4.503-10.329 5.684-16.637 20.614-29.308 21.105-7.078.281-13.897-5.476-14.806-12.49-.909-7.034 4.2-14.329 11.126-15.866 10.194-2.32 12.834-7.128 2.966-17.403-5.048-5.202-8.433-11.015-3.096-18.03 4.875-6.301 15.587-8.637 24.741-3.031 15.157 9.321 2.303 8.419 14.482-8.875 11.48-16.459 24.334-4.869 32.382-3.96 7.532.887 14.957-3.832 22.446-2.599 11.598 1.918 16.141 16.4 7.662 24.59-5.433 5.26-14.112 5.563-20.152 10.065-4.906 3.667-4.156 8.299.585 10 30.141 10.822 21.267 31.335 9.849 37.08ZM25.13 12.865c-6.135.1-8.642 6.948-.992 12.599 8.362 6.176 14.57 1.578 14.496-2.787-.066-3.923-5.921-9.937-13.504-9.812Z"/>
  <path fill="#fff" stroke="#040829" d="M89.035 37.283V83.31c0 2.656-2.14 4.804-4.775 4.804H27.51c-2.634 0-4.775-2.148-4.775-4.804V37.283c0-2.655 2.14-4.803 4.775-4.803H84.26c2.635 0 4.775 2.148 4.775 4.803Z"/>
  <path fill="#5656D3" stroke="#040829" d="M89.035 37.283v9.046h-66.3v-9.046c0-2.656 2.14-4.803 4.774-4.803H84.26c2.635 0 4.775 2.148 4.775 4.803Z"/>
  <path fill="#E3E3E3" stroke="#040829" d="M97.264 85.793c0 5.76-4.638 10.419-10.353 10.419-5.716 0-10.36-4.659-10.36-10.42 0-5.753 4.643-10.412 10.36-10.412 5.716 0 10.353 4.658 10.353 10.413ZM41.724 27.053v7.105a3.255 3.255 0 0 1-3.245 3.265 3.255 3.255 0 0 1-3.245-3.265v-7.105a3.255 3.255 0 0 1 3.245-3.265c1.79 0 3.245 1.46 3.245 3.265ZM76.532 27.053v7.105a3.255 3.255 0 0 1-3.244 3.265 3.255 3.255 0 0 1-3.245-3.265v-7.105a3.255 3.255 0 0 1 3.245-3.265c1.789 0 3.244 1.46 3.244 3.265Z"/>
  <path stroke="#040829" stroke-linecap="round" d="M31 57h6a1 1 0 0 1 1 1v5.5M45 57h6a1 1 0 0 1 1 1v5.5M59 57h6a1 1 0 0 1 1 1v5.5M73 57h6a1 1 0 0 1 1 1v5.5M31 72h6a1 1 0 0 1 1 1v5.5M45 72h6a1 1 0 0 1 1 1v5.5M59 72h6a1 1 0 0 1 1 1v5.5M92 87.5h-5a1 1 0 0 1-1-1V81"/>
</svg>
