<svg xmlns="http://www.w3.org/2000/svg" width="158" height="172" fill="none">
  <path fill="#E5E8FF" d="m97.959 158.489-23.12 8.141-.075-.171-2.532-7.393c.716-.224 7.917-2.564 7.938-2.788v-.086h.3c1.4-.363 7.916.396 12.457-.609 2.2-.47 4.594.032 5.032 2.906ZM25.961 168.724v.246l-12.927-.256-10.438-5.054 3.44-6.869 7.372 3.012c4.006 2.02 4.145 4.723 6.153 4.659 3.409-.139 6.144 2.425 6.4 4.262ZM6.396 84.932l-.598.15c-6.111-18.088 1.4-40.599 20.887-49.242l8.653-1.496a2.34 2.34 0 0 1 1.614-2.35c.11-.036.225-.061.342-.075a43.114 43.114 0 0 1 10.448 0c.177.032.35.085.513.16.865.513 1.068 1.304 1.41 2.19 0 0 7.97-.555 10.182 1.913 3.974 4.412 8.376 11.175 8.696 11.079.321-.096.545-9.23.428-18.697v-.192a8.534 8.534 0 0 0 1.196-.288 7.48 7.48 0 0 0 3.045-.834v-.064l.759.342.374.182v.085c.673 5.577 3.13 28.109-.727 32.19-1.645 1.742-16.688-8.974-16.688-8.974s5.93 36.431 6.197 40.513h-1.86l-40.085.277c.075-7.756 3.836-32.799 5.45-43.333 0 0-17.266 10-14.04 34.54-.01.45-4.54 1.571-6.196 1.924Z"/>
  <path fill="#000" d="M52.69 15.552a.78.78 0 0 1-.15 1.068.781.781 0 0 1-1.284-.72.779.779 0 0 1 .344-.52.782.782 0 0 1 1.09.172ZM45.723 15.007a.448.448 0 0 1-.128.62.46.46 0 0 1-.62-.129.448.448 0 0 1 .139-.62.44.44 0 0 1 .609.129Z"/>
  <path stroke="#000" stroke-linecap="round" stroke-linejoin="round" stroke-width=".86" d="m75.524 168.575 23.216-8.056-.652-1.912-23.227 8.045.663 1.923Z"/>
  <path stroke="#000" stroke-linecap="round" stroke-miterlimit="10" stroke-width=".86" d="M45.188 111.983c.054.053.104.111.15.171 1.421 1.784 11.977 15.897 12.318 16.624 2.49 5.342 13.558 28.184 14.52 30.31h.053c.716-.225 7.917-2.564 7.938-2.789v-.085c.128-2.554-3.258-21.037-6.41-38.462-.193-1.068-7.18-16.025-12.543-26.186"/>
  <path fill="#E5E8FF" d="M80.477 156.203c1.4-.363 7.917.395 12.457-.609 2.19-.481 4.584 0 5.022 2.895l-23.12 8.141"/>
  <path stroke="#000" stroke-linecap="round" stroke-linejoin="round" stroke-width=".86" d="M80.477 156.203c1.4-.363 7.917.395 12.457-.609 2.19-.481 4.584 0 5.022 2.895l-23.12 8.141"/>
  <path stroke="#000" stroke-miterlimit="10" stroke-width=".86" d="m72.157 158.842.075.235 2.532 7.393"/>
  <path stroke="#000" stroke-linecap="round" stroke-miterlimit="10" stroke-width=".86" d="M13.93 160.007c1.742-1.154 18.013-18.761 24.862-28.002 2.35-3.206 4.519-11.475 6.549-19.851 1.218-5.021 2.393-10.075 3.526-14.049M22.552 92.293v9.733c-.14 8.761-.641 17.585-2.276 20.972-4.273 8.846-14.145 33.707-14.145 33.707"/>
  <path stroke="#000" stroke-linecap="round" stroke-miterlimit="10" stroke-width=".86" d="M30.385 96.107c-1.132 3.921-4.273 5.684-7.874 5.919a14.646 14.646 0 0 1-4.733-.492"/>
  <path stroke="#000" stroke-linecap="round" stroke-linejoin="round" stroke-width=".86" d="m2.583 163.66-1.164 2.169 11.1 5.139 13.42.032.02-2.03h-.01l-12.928-.246-10.438-5.064ZM25.959 168.724c-.256-1.837-2.991-4.401-6.41-4.273-2.009.064-2.137-2.639-6.154-4.658l-7.372-3.013-3.44 6.87"/>
  <path stroke="#000" stroke-linecap="round" stroke-miterlimit="10" stroke-width=".86" d="M48.834 17.55c0 .929-.139 2.724-1.592 1.869M51.686 21.77c-1.507 2.136-3.12 3.835-3.814 4.038a2.513 2.513 0 0 1-.566.096c-2.233.182-4.819-2.04-5.556-4.07M55.967 10.253c.452 1.205.791 2.45 1.015 3.717.331 2.137-1.378 5.513-3.28 8.248M40.04 9.964c0-.203.191-.919.47-1.87.117-.406.256-.844.437-1.314.182-.47.331-.865.534-1.314.962-2.04 2.479-4.081 4.819-4.434 1.592-.245 3.066.93 4.337 2.65.533.741 1.011 1.52 1.432 2.33a31.966 31.966 0 0 1 1.752 4.006"/>
  <path stroke="#000" stroke-miterlimit="10" stroke-width=".86" d="M36.951 32.037c.63-6.143.898-11.39 2.051-17.468M47.306 25.904c-.096 2.393-.395 3.974.449 5.972"/>
  <path stroke="#000" stroke-linecap="round" stroke-miterlimit="10" stroke-width=".86" d="M40.797 11.214a5.343 5.343 0 0 0-.812-1.154c-2.265-2.404-4.391 2.137-3.505 3.633a2.393 2.393 0 0 0 2.49.833c.205-.038.406-.1.598-.182"/>
  <path stroke="#000" stroke-miterlimit="10" stroke-width=".86" d="M40.607 8.073h-.074c-1.069.224-8.857 1.442-8.547-1.068.138-1.261 4.54-1.592 9.38-1.56h.17c3.687 0 8.152.374 10.6.566"/>
  <path stroke="#000" stroke-linecap="round" stroke-miterlimit="10" stroke-width="1.23" d="M53.621 13.575a2.926 2.926 0 0 0-2.606-.32"/>
  <path stroke="#000" stroke-linecap="round" stroke-miterlimit="10" stroke-width=".86" d="M39.325 11.887a2.607 2.607 0 0 1-1.731.502"/>
  <path stroke="#000" stroke-linecap="round" stroke-linejoin="round" stroke-width=".86" d="M55.983 10.146h.064a6.23 6.23 0 1 1-2.382 12.233 6.197 6.197 0 0 1-4.274-3.345 6.24 6.24 0 0 1 2.863-8.333 6.155 6.155 0 0 1 1.39-.491l.256-.054a6.124 6.124 0 0 1 2.083-.01Z"/>
  <path stroke="#000" stroke-linecap="round" stroke-miterlimit="10" stroke-width=".86" d="M46.292 12.336a2.938 2.938 0 0 0-2.639 0M44.922 22.143a1.89 1.89 0 0 0 2.895.342"/>
  <path stroke="#000" stroke-linecap="round" stroke-linejoin="round" stroke-width=".86" d="M64.78 25.167c-.875-.759.097-2.938.952-4.145.143-.212.308-.41.491-.588a1.805 1.805 0 0 1 2.714.15M68.45 25.85a.529.529 0 0 0 0 .129c-.074.62-1.602.32-1.4-.908M70.118 22.41a10.041 10.041 0 0 0-1.667 3.44"/>
  <path stroke="#000" stroke-linecap="round" stroke-linejoin="round" stroke-width=".86" d="M67.357 22.432a2.97 2.97 0 0 1 1.4-1.645.756.756 0 0 1 .192-.086c1.069-.384 2.137.32 1.432 1.336l-.267.363M71.984 24.163c-1.218-.46-1.443.95-1.635 1.848-.022.078-.04.156-.054.235a.95.95 0 0 1-1.848-.395M70.112 22.41c.62-.78 1.218-1.068 2.02-.64a3.355 3.355 0 0 1 1.73 3.108M64.368 22.902l-1.58-.812a.641.641 0 0 1-.29-.844v-.085l.396-.791v-.053a.629.629 0 0 1 .855-.278l1.762.876"/>
  <path stroke="#000" stroke-linecap="round" stroke-linejoin="round" stroke-width=".86" d="M71.89 24.12h.097l1.848.801.876.374 1.207.598a.64.64 0 0 1 .289.845v.074l-.428.855a.651.651 0 0 1-.854.288l-.556-.288-.374-.182-.758-.341-2.607-1.165M62.906 20.37v.096l-.32.63a.23.23 0 0 1 0 .065.428.428 0 0 1-.534.128l-1.646-.834a.438.438 0 0 1-.181-.576l.31-.62a.428.428 0 0 1 .576-.192l1.646.833a.417.417 0 0 1 .15.47Z"/>
  <path stroke="#000" stroke-linecap="round" stroke-linejoin="round" stroke-width=".86" d="M73.18 27.24a7.479 7.479 0 0 1-3.044.833 8.537 8.537 0 0 1-1.197.288c-1.602.278-4.273.225-4.102-3.108a.236.236 0 0 0 0-.086 3.525 3.525 0 0 1 1.346-2.372c.34-.244.747-.375 1.165-.374h.192a.812.812 0 0 1 .684.855c0 .46-.844.876-1.261 1.73-.174.352-.247.743-.214 1.133"/>
  <path stroke="#000" stroke-linecap="round" stroke-linejoin="round" stroke-width=".86" d="M68.97 28.564c.118 9.466-.234 18.644-.427 18.697-.192.053-4.722-6.667-8.696-11.08-2.212-2.467-10.182-1.911-10.182-1.911-.352-.887-.545-1.678-1.41-2.19a2.139 2.139 0 0 0-.513-.161 43.114 43.114 0 0 0-10.448 0 1.77 1.77 0 0 0-.342.075 2.34 2.34 0 0 0-1.614 2.35l-8.653 1.496C7.197 44.494-.313 66.994 5.798 85.081l.598-.15c1.656-.394 6.186-1.516 6.133-1.976-3.206-24.572 14.038-34.54 14.038-34.54-1.613 10.534-5.342 35.577-5.449 43.333l40.086-.278h1.859c-.267-4.081-6.197-40.512-6.197-40.512S71.91 61.64 73.554 59.931c3.857-4.081 1.4-26.613.727-32.19M12.757 88.522c1.613 4.733-.726 9.092-2.991 7.67"/>
  <path stroke="#000" stroke-linecap="round" stroke-linejoin="round" stroke-width=".86" d="M10.95 89.419a7.394 7.394 0 0 1-1.07 6.56l-.149.213c-.384.492-1.068 1.272-1.763.791a1.207 1.207 0 0 1-.288-1.538"/>
  <path stroke="#000" stroke-linecap="round" stroke-linejoin="round" stroke-width=".86" d="M8.771 89.953c.545 1.71-.673 5.695-1.741 6.229-1.26.705-1.913-.673-1.293-1.86 2.073-3.984-.694-7.403.663-9.347M13.33 91.652a1.485 1.485 0 0 0 1.571-1.774 10.908 10.908 0 0 0-2.927-6.11"/>
  <rect width="29" height="29" x="127.747" y="55.5" stroke="#040829" rx="3.5"/>
  <rect width="11.667" height="16.667" x="135.996" y="61.25" fill="#F0F4F8" stroke="#040829" stroke-width=".833" rx="1.25"/>
  <path fill="#040829" fill-rule="evenodd" d="M147.079 64.333h1.983c.846 0 1.517.67 1.546 1.516v7.175c0 .846-.7 1.517-1.516 1.517h-1.013v-6.208h-12.5v6.208h-.983a1.5 1.5 0 0 1-1.517-1.487v-7.205c0-.846.671-1.516 1.517-1.516h12.483Z" clip-rule="evenodd"/>
  <path fill="#040829" d="M138.619 71h6.417c.321 0 .583-.188.583-.417 0-.23-.262-.417-.583-.417h-6.417c-.32 0-.583.188-.583.417 0 .229.263.416.583.416ZM138.619 75.374h3.209c.321 0 .583-.187.583-.416 0-.23-.262-.417-.583-.417h-3.209c-.32 0-.583.188-.583.417 0 .229.263.416.583.416ZM138.619 73.187h6.417c.321 0 .583-.188.583-.417 0-.229-.262-.416-.583-.416h-6.417c-.32 0-.583.187-.583.416 0 .23.263.417.583.417Z"/>
  <rect width="29" height="29" x="87.747" y="91.5" stroke="#040829" rx="3.5"/>
  <path fill="#040829" fill-rule="evenodd" d="M93.914 100.167a2.5 2.5 0 0 1 2.5-2.5h11.667a2.5 2.5 0 0 1 2.5 2.5v6.875H93.914v-6.875Zm0 8.125h16.667v.208a2.5 2.5 0 0 1-2.5 2.5h-5.209v2.083h1.875a.625.625 0 1 1 0 1.25h-5a.625.625 0 0 1 0-1.25h1.875V111h-5.208a2.5 2.5 0 0 1-2.5-2.5v-.208Z" clip-rule="evenodd"/>
  <rect width="29.07" height="29" x="97.747" y="11.5" stroke="#040829" rx="3.5"/>
  <path fill="#040829" d="M108.016 29.015h-5.308a10.049 10.049 0 0 1 0-6.025l5.294.01a18.77 18.77 0 0 0-.238 3.005c0 1.053.084 2.055.247 3.01h.005Zm7.526-6.007-6.52-.009a17.227 17.227 0 0 0-.256 3.006c0 1.062.093 2.06.266 3.01h6.505c.168-.946.256-1.948.256-3.01 0-1.063-.088-2.055-.251-2.997Zm-6.291 7.009c.559 2.176 1.584 4.007 3.033 5.354 1.473-1.351 2.493-3.169 3.039-5.354h-6.072Zm6.076-8.01c-.545-2.195-1.57-4.017-3.047-5.373-1.477 1.37-2.498 3.187-3.043 5.363l6.09.01Zm1.044 0 5.121.009a10.04 10.04 0 0 0-8.406-6.007c1.612 1.515 2.726 3.546 3.29 5.997h-.005Zm5.485 7.008c.298-.95.461-1.962.461-3.01a9.973 9.973 0 0 0-.452-2.987l-5.303-.01c.154.946.238 1.944.238 2.997s-.084 2.06-.238 3.01h5.294Zm-13.635 1.002h-5.13A10.038 10.038 0 0 0 111.492 36c-1.584-1.52-2.698-3.57-3.271-5.983Zm8.145 0c-.563 2.432-1.673 4.455-3.285 5.983a10.006 10.006 0 0 0 5.839-2.47 10.108 10.108 0 0 0 2.558-3.513h-5.116.004Zm-8.164-8.02c.564-2.437 1.673-4.464 3.295-5.997a9.936 9.936 0 0 0-4.786 1.659 10.089 10.089 0 0 0-3.62 4.329l5.111.01Z"/>
</svg>
