<svg xmlns="http://www.w3.org/2000/svg" width="110" height="171" fill="none">
  <path fill="#000" d="M70.29 43.793a1 1 0 0 0 1.415 1.414l-1.414-1.414ZM82.499 33l.707-.707-.707-.707-.707.707.707.707Zm6 6-.707.707.707.707.707-.707-.707-.707Zm12.5-11.5a1 1 0 0 0-1-1h-9a1 1 0 0 0 0 2h8v8a1 1 0 0 0 2 0v-9ZM71.705 45.207l11.5-11.5-1.414-1.414-11.5 11.5 1.414 1.414Zm10.086-11.5 6 6 1.414-1.414-6-6-1.414 1.414Zm7.414 6 11.5-11.5-1.414-1.414-11.5 11.5 1.414 1.414Z"/>
  <path fill="#E5E8FF" d="M49.192 168.015v.051c-.499-2.718 1.517-3.909 3.654-4.163a20.127 20.127 0 0 0 3.176-.672c3.491-1.018 6.758-2.697 7.39-2.84h9.293c0 4.163-.072 6.912-.061 7.634l-23.452-.01Z"/>
  <path fill="#E5E8FF" d="M49.16 168.117H32.682c-.478-2.708 1.538-3.898 3.665-4.143 4.428-.519 9.74-3.338 10.565-3.511h9.06v2.85a20.01 20.01 0 0 1-3.177.671c-2.107.224-4.132 1.405-3.633 4.133ZM35.574 68.845c1.017-6.759 2.035-13.426 2.738-17.304 0 0-7.441 4.153-8.215 7.614-.285 1.272 3.878 7.613 5.466 9.66l.01.03Zm30.23-7.858a40.939 40.939 0 0 1-2.982.325 2.677 2.677 0 0 0-2.27-1.017 2.576 2.576 0 0 0-2.351 1.16c-4.52 0-6.85.448-7.584.875-1.608.937-2.524 1.945-2.473 3.838a10.067 10.067 0 0 0 1.374 4.763c.123.192.263.373.418.54a3.318 3.318 0 0 0 2.32 1.018c.367 0 1.578-.224 1.72-.693.143-.468-.244-.885-.457-1.017-.459-.387-1.018-.255-1.507-.326-1.201-1.018 2.758-2.748 6.728-2.708h3.349c1.15 0 2.371-.101 3.634-.203a8.44 8.44 0 0 1 .05-6.535l.031-.02Zm5.374-1.466c.367-.188.709-.42 1.018-.692 2.22-2.036 2.036-5.242-1.659-8.051 0 0 .275 4.55.58 8.662l.061.081Zm.479 7.237c.692 9.425 1.547 20.408 1.659 22.23l-40.063.092c0-1.832.346-5.028.804-8.856.397-3.379.916-7.247 1.456-11.094h-.102a10.973 10.973 0 0 0-3.37 5.272 5.75 5.75 0 0 0 .082 1.68h-.081c-7.37-5.202-11.94-12.418-13.284-17.589-1.526-5.822 13.009-16.947 16.49-19.34 3.858-2.646 12.387-3.949 12.387-3.949.336-.845.51-1.608 1.323-2.107l.194-.081c3.56-.53 7.178-.53 10.738 0h.112c.825.153 1.334 1.527 1.283 2.219 0 0 8.916.59 11.115 1.832 2.941 1.68 14.555 16.632 11.563 22.943-1.761 3.705-6.85 5.71-12.276 6.748h-.03Z"/>
  <path stroke="#040829" stroke-miterlimit="10" stroke-width=".86" d="M61.51 63.664c-.077 1.448.159 2.896.691 4.245M59.105 63.5c-.1 1.519.133 3.04.681 4.46"/>
  <path stroke="#040829" stroke-linejoin="round" stroke-width=".86" d="M65.629 67.511c-2.036.112-5.344.285-6.86.255"/>
  <path stroke="#040829" stroke-miterlimit="10" stroke-width=".86" d="M56.247 135.769c-.132 14.698-.336 26.668-.285 27.381"/>
  <path stroke="#040829" stroke-linejoin="round" stroke-width=".86" d="M71.686 66.809c.692 9.425 1.547 20.408 1.66 22.23l-40.064.092c.143-6.321 3.45-28.979 5.09-37.55 0 0-7.492 4.143-8.265 7.604-.285 1.272 3.928 7.614 5.516 9.66"/>
  <path stroke="#040829" stroke-miterlimit="10" stroke-width=".86" d="M34.127 80.204a4.631 4.631 0 0 1-4.753 1.323c-1.293-.488-1.863-1.16-1.018-2.127.845-.967 1.944-.214 2.942-.489 1.67-.468.458-3.216.723-4.468a10.973 10.973 0 0 1 3.369-5.272"/>
  <path stroke="#040829" stroke-linejoin="round" stroke-width=".86" d="M70.61 51.622c0-.529-.052-.844-.052-.844 3.654 2.809 3.878 6.015 1.65 8.05-1.314 1.202-6.403 2.179-6.403 2.179a8.388 8.388 0 0 0-.122 6.504c7.42-.509 15.787-2.26 18.321-7.501 2.993-6.311-8.621-21.294-11.573-22.974-2.199-1.241-11.115-1.832-11.115-1.832.05-.692-.458-2.035-1.283-2.219-3.562-.672-10.26-.366-11.043.112-.784.479-1.018 1.262-1.324 2.107 0 0-8.53 1.303-12.387 3.95-3.481 2.391-18.016 13.517-16.49 19.339 1.354 5.17 5.925 12.387 13.304 17.64"/>
  <path stroke="#040829" stroke-linejoin="round" stroke-width=".86" d="M71.136 59.44c-.203-2.698-.427-6.22-.54-7.889"/>
  <path stroke="#040829" stroke-miterlimit="10" stroke-width=".86" d="M58.278 61.455c-4.57 0-6.922.448-7.665.875-1.608.937-2.524 1.944-2.473 3.838a9.16 9.16 0 0 0 1.822 5.343 3.318 3.318 0 0 0 2.32 1.018c.367 0 1.578-.224 1.72-.692.143-.468-.244-.885-.457-1.018-.459-.386-1.018-.254-1.507-.325-1.211-1.018 2.82-2.769 6.83-2.698"/>
  <path fill="#040829" stroke="#040829" stroke-miterlimit="10" stroke-width=".86" d="M60.552 63.654c1.36 0 2.463-.752 2.463-1.68 0-.927-1.102-1.68-2.463-1.68-1.36 0-2.463.753-2.463 1.68 0 .928 1.103 1.68 2.463 1.68Z"/>
  <path stroke="#040829" stroke-linecap="round" stroke-miterlimit="10" stroke-width=".86" d="M66.361 92.694c-.163 5.587 4.805 8.336 9.863 8.59"/>
  <path stroke="#040829" stroke-linecap="round" stroke-linejoin="round" stroke-width=".86" d="M50.569 97.783c.682 22.25 7.003 44.216 12.764 62.537l.05.122c-.813.173-6.106 2.993-10.565 3.512-2.127.254-4.152 1.435-3.654 4.163l23.503.102c-.092-1.324.692-49.428.295-78.874"/>
  <path stroke="#040829" stroke-linecap="round" stroke-linejoin="round" stroke-width=".86" d="M34.229 89.517c.63 28.093 6.779 52.217 12.662 70.915-.825.173-6.107 2.992-10.565 3.512-2.138.254-4.153 1.435-3.655 4.163h16.673"/>
  <path stroke="#040829" stroke-linecap="round" stroke-miterlimit="10" stroke-width=".86" d="M49.864 11.203c.316-2.31.733-5.72 2.341-7.511 5.16-5.772 11.136 5.974 12.103 9.75.895 3.523-4.072 11.462-5.507 12.022-2.148.865-5.211-1.17-6.189-3.176"/>
  <path stroke="#040829" stroke-miterlimit="10" stroke-width=".86" d="M49.145 33.178c0-6.025-.325-11.501.174-17.517M58.22 25.372c.57 2.33.693 5.293 1.7 7.4"/>
  <path stroke="#040829" stroke-linecap="round" stroke-miterlimit="10" stroke-width=".86" d="M50.697 12.282c-2.85-4.193-4.947 1.313-3.857 2.759a2.483 2.483 0 0 0 3.002.325"/>
  <path stroke="#040829" stroke-miterlimit="10" stroke-width=".86" d="M60.818 6.307c.346 0 8.52-1.618 7.37-3.868-1.314-2.554-17.05 5.527-18.027 5.955"/>
  <path stroke="#040829" stroke-linecap="round" stroke-miterlimit="10" stroke-width=".86" d="M56.47 14.145a2.768 2.768 0 0 0-2.493.173M61.902 14.145a2.788 2.788 0 0 0-2.504.173"/>
  <path stroke="#040829" stroke-linecap="round" stroke-linejoin="round" stroke-width=".86" d="M57.904 23.004c.652.784 2.036.153 2.687-.265"/>
  <path stroke="#040829" stroke-linecap="round" stroke-miterlimit="10" stroke-width=".86" d="M49.366 13.086c-.434.4-.998.627-1.588.642"/>
  <path fill="#040829" d="M55.339 16.048a.428.428 0 1 0 0-.855.428.428 0 0 0 0 .855ZM60.625 16.048a.428.428 0 1 0 0-.855.428.428 0 0 0 0 .855Z"/>
  <path stroke="#040829" stroke-linecap="round" stroke-miterlimit="10" stroke-width=".86" d="M59.378 13.503c-.498 1.242.082 3.197.275 4.49.122.875.316 2.574-1.2 2.035"/>
  <path stroke="#040829" stroke-miterlimit="10" stroke-width=".86" d="M46.516 160.432h9.303M63.372 160.432h9.293"/>
  <path stroke="#040829" stroke-linecap="round" stroke-linejoin="round" stroke-width=".86" d="M72.657 168.066H49.165V170h23.492v-1.934ZM49.135 168.066h-16.46V170h16.46v-1.934ZM49.61 71.064a2.84 2.84 0 0 1-.174-2.341 3.867 3.867 0 0 1 1.588-1.833M48.711 68.906a2.74 2.74 0 0 1-.163-2.23 3.674 3.674 0 0 1 1.486-1.75"/>
  <path stroke="#040829" stroke-miterlimit="10" stroke-width=".86" d="M29.281 78.84c-.112-1.608 2.117-1.242 2.88-.885"/>
  <path stroke="#040829" stroke-miterlimit="10" stroke-width=".86" d="M30.472 77.517c-.122-1.018 1.018-.957 1.578-.865M62.773 61.272c.994-.025 1.986-.1 2.973-.224"/>
  <path fill="#040829" d="M14.287 8.032a69.694 69.694 0 0 1 11.827 2.418l1.862.553a3.701 3.701 0 0 1 2.506 2.533.302.302 0 0 1-.193.363l-8.861 3.26c-1.9.7-4.033.286-5.534-1.072L8.932 9.789a.302.302 0 0 1-.053-.395 3.701 3.701 0 0 1 3.478-1.585l1.93.223Z"/>
  <path fill="#040829" d="M8.368 11.868a.317.317 0 0 0-.516.14 38.89 38.89 0 0 0-1.71 9.536 3.7 3.7 0 0 0 2.643 3.741l1.862.553a69.686 69.686 0 0 0 11.827 2.418l1.93.223a3.7 3.7 0 0 0 3.9-2.403 38.884 38.884 0 0 0 2.199-9.724.317.317 0 0 0-.427-.326l-7.983 2.937a7.368 7.368 0 0 1-7.486-1.45l-6.239-5.645ZM90.53 73.21a53.023 53.023 0 0 1 9.049-1.57l1.472-.127a2.817 2.817 0 0 1 2.479 1.099.23.23 0 0 1-.036.31l-5.372 4.77a4.143 4.143 0 0 1-4.218.778l-6.68-2.529a.23.23 0 0 1-.147-.264c.23-1 .996-1.817 2.023-2.09l1.43-.377Z"/>
  <path fill="#040829" d="M87.403 77.571a.241.241 0 0 0-.327.243 29.59 29.59 0 0 0 1.437 7.23 2.816 2.816 0 0 0 2.911 1.916l1.473-.126a53.027 53.027 0 0 0 9.049-1.57l1.429-.379a2.816 2.816 0 0 0 2.095-2.785 29.63 29.63 0 0 0-1.142-7.499.242.242 0 0 0-.393-.112l-4.84 4.297a5.606 5.606 0 0 1-5.706 1.051l-5.986-2.266Z"/>
</svg>
