<svg xmlns="http://www.w3.org/2000/svg" width="147" height="172" fill="none">
  <path fill="#E5E8FF" d="m138.687 139.269-23.928 12.947-4.225-7.816.071-.117 9.416-4.908h.176c.353-.106 1.53-.165 3.119-.306a35.652 35.652 0 0 0 9.416-1.872c1.812-.718 3.86-.812 5.143.648.361.413.637.892.812 1.412v.012Z"/>
  <path fill="#E5E8FF" stroke="#040829" stroke-miterlimit="10" stroke-width=".86" d="M95.162 154.581c.365.083 1.424.589 2.896 1.177a35.18 35.18 0 0 0 9.18 2.837c1.93.223 3.79 1.118 4.225 3.013a4.348 4.348 0 0 1 0 1.624.466.466 0 0 1 0 .118h-27.2v-8.91H95.128l.035.141Z"/>
  <path fill="#040829" d="m94.29 123.227-.082-2.213c.035.706.059 1.46.082 2.213Z"/>
  <path fill="#E5E8FF" d="M62.82 70.934a3.53 3.53 0 0 0 1.412-2.483 1.307 1.307 0 0 0-1.389-1.389c-.057.139-.132.27-.224.388l.106-2.13.236-4.308a.927.927 0 0 0-.8-1.07h-.26l.73-5.003h5.438l.13-1.553h-6.933l-.977 6.579h-3.296a3.002 3.002 0 1 0-3.213 3.213l.094 1.813.095 1.8h-.177a3.437 3.437 0 0 0-3.084 3.143l.118 5.955-.306.106a87.713 87.713 0 0 1-15.077 3.79c-4.048.553-6.944.341-8.239-.753-5.308-4.414 4.002-31.225 8.392-35.545 2.543-2.518 7.745-3.601 14.124-4.837a3.32 3.32 0 0 1 1.46-1.966h.07c3.91-.843 7.95-.883 11.875-.117l.436.153a2.354 2.354 0 0 1 1.589 1.953s9.521 1.06 11.216 3.037c4.332 5.073 8.745 10.24 12.064 13.794.236.247 6.45-5.567 8.616-11.252h.07s2.354 3.531 6.368 2.872c-.318.636-10.958 21.856-16.007 20.009-4.273-1.578-8.91-5.061-13.841-9.204-1.978-1.66 5.72 32.755 5.79 33.508h-5.013l-17.125.094H54.84l-20.562.106a80.033 80.033 0 0 1 1.012-11.016 145.959 145.959 0 0 0 15.3-4.59l.307.094c1.235.548 2.52.978 3.837 1.283l.141 2.353a.906.906 0 0 0 .812.942h5.697a.907.907 0 0 0 .812-.942l.14-2.612c1.178-.518 1.908-1.177 1.92-1.801a1.109 1.109 0 0 0-1.272-1.095h.094a2.624 2.624 0 0 0 1.283-1.883 1.178 1.178 0 0 0-1.342-1.26l-.2-.176Z"/>
  <path stroke="#040829" stroke-miterlimit="10" stroke-width=".86" d="M94.962 145.672h16.442M131.569 145.672h7.132v9.568H8.717v-9.568h73.725"/>
  <path fill="#040829" d="M56.335 145.672H8.727v9.557h47.608v-9.557Z"/>
  <path stroke="#040829" stroke-miterlimit="10" stroke-width=".86" d="M112.42 119.025h33.979V171H.984v-51.975H76.11"/>
  <path stroke="#040829" stroke-miterlimit="10" stroke-width=".86" d="M19.486 125.993a1.895 1.895 0 1 0-.001-3.79 1.895 1.895 0 0 0 0 3.79ZM12.8 125.993a1.895 1.895 0 1 0 0-3.79 1.895 1.895 0 0 0 0 3.79ZM6.102 125.993a1.895 1.895 0 1 0 0-3.79 1.895 1.895 0 0 0 0 3.79Z"/>
  <path stroke="#040829" stroke-linecap="round" stroke-linejoin="round" stroke-width=".86" d="M118.396 24.15c-.423 1.812-3.413 16.477-4.06 19.75M114.288 43.888a8.664 8.664 0 0 0-6.968-1.26M98.814 42.204c-6.144-2.024-12.206 1.684-12.206 1.684.507-5.885.977-20.903.977-20.903 9.875-4.485 15.536 1.683 16.172 2.436l.059.07c2.589-4.248 10.969-4.484 14.547-1.353"/>
  <path stroke="#040829" stroke-miterlimit="10" stroke-width=".86" d="M60.49 59.941h-5.991a.944.944 0 0 0-.812 1.072l.117 2.142.095 1.812.094 1.8.059 1.06v.094M62.62 67.45l.105-2.13.236-4.307a.93.93 0 0 0-.8-1.072h-.471M54.71 77.372v.059l.142 2.354a.906.906 0 0 0 .812.942h5.697a.907.907 0 0 0 .812-.942l.141-2.613v-.082"/>
  <path stroke="#040829" stroke-miterlimit="10" stroke-width=".86" d="M54.017 67.733v.094c1.012 2.636 7.156 1.365 8.568-.377.092-.118.167-.25.224-.388"/>
  <path stroke="#040829" stroke-linecap="round" stroke-miterlimit="10" stroke-width=".86" d="M62.834 67.062a1.306 1.306 0 0 1 1.424 1.389 3.532 3.532 0 0 1-1.413 2.483 6.743 6.743 0 0 1-5.532 1.248M62.892 71.017a1.175 1.175 0 0 1 1.342 1.259 2.626 2.626 0 0 1-1.283 1.883h-.095a7.932 7.932 0 0 1-5.437.977"/>
  <path stroke="#040829" stroke-linecap="round" stroke-miterlimit="10" stroke-width=".86" d="M62.904 74.277a1.107 1.107 0 0 1 1.354 1.118c0 .577-.683 1.283-1.918 1.8a12.558 12.558 0 0 1-7.604.271 21.262 21.262 0 0 1-3.837-1.282M53.98 64.967c2.353-.93 2.977 1.177 5.308 1.719a4.71 4.71 0 0 0 1.494.07h.165a2.65 2.65 0 0 0 1.766-1.412"/>
  <path stroke="#040829" stroke-linecap="round" stroke-linejoin="round" stroke-width=".86" d="m60.94 66.65.988-6.697.73-5.002 5.438-.023.117-1.554h-6.932l-.977 6.58-.977 6.555"/>
  <path stroke="#040829" stroke-linejoin="round" stroke-width=".86" d="M54.028 63.166h-.223a3.002 3.002 0 1 1 3.213-3.213v.212"/>
  <path stroke="#040829" stroke-miterlimit="10" stroke-width=".86" d="M57.288 91.543h-2.66"/>
  <path stroke="#040829" stroke-linecap="round" stroke-miterlimit="10" stroke-width=".86" d="M52.38 11.415c.153-.989.318-2.154.565-3.33a11.581 11.581 0 0 1 2.271-5.333c2.731-2.965 5.615-1.8 8.027.777.698.732 1.336 1.52 1.907 2.354a29.682 29.682 0 0 1 3.884 8.31c.977 4.084-4.92 13.182-6.568 13.805a2.67 2.67 0 0 1-.6.165c-2.436.424-5.484-1.789-6.497-3.943"/>
  <path stroke="#040829" stroke-miterlimit="10" stroke-width=".86" d="M51.166 36.46c.118-6.85-.176-13.075.506-19.902M61.796 27.928l.07.282c.554 2.707.671 6.014 1.707 8.463l.059.129"/>
  <path stroke="#040829" stroke-linecap="round" stroke-miterlimit="10" stroke-width=".86" d="M53.322 12.663a5.706 5.706 0 0 0-1.024-1.177c-2.707-2.354-4.579 2.848-3.531 4.343a2.449 2.449 0 0 0 2.542.718l.306-.06c.227-.05.444-.134.648-.246"/>
  <path stroke="#040829" stroke-miterlimit="10" stroke-width=".86" d="M65.13 5.954c.647 0 9.828-1.766 8.556-4.343-.73-1.483-5.59 0-10.463 1.942-4.614 1.836-9.24 4.072-10.298 4.555l-.177.082"/>
  <path stroke="#040829" stroke-linecap="round" stroke-miterlimit="10" stroke-width=".86" d="M63.878 14.91a4.708 4.708 0 0 1 2.895-.27M60.973 14.993a2.354 2.354 0 0 0-2.883.188M51.78 13.58a2.908 2.908 0 0 1-1.86.707M63.846 14.922c-.589 1.295.059 3.367.259 4.708.13.93.317 2.72-1.413 2.095"/>
  <path stroke="#040829" stroke-miterlimit="10" stroke-width=".86" d="M94.093 117.177c-.106-2.566-.236-4.531-.412-6.096-1.377-12.217-11.546-19.42-36.322-19.538M95.16 154.887v-.4c-.246-7.627-.411-13.971-.552-19.279v-.788c-.106-4.426-.2-8.11-.283-11.193 0-.777 0-1.507-.07-2.213 0-1.4-.083-2.672-.13-3.825M76.956 123.156c0-.07 0-.165-.07-.259l-.212-.765c-.318-1.094-.73-2.565-.883-3.095h-24.48c-7.51-.247-11.83-4.378-14.23-9.887-2.354-5.308-2.849-11.899-2.742-17.49a78.176 78.176 0 0 1 1.012-11.016c.082-.482.14-.777.153-.87"/>
  <path stroke="#040829" stroke-miterlimit="10" stroke-width=".86" d="M94.94 154.499H84.287a261.779 261.779 0 0 0-4.072-19.267 245.422 245.422 0 0 0-3.331-12.311l-.212-.765M117.679 133.266l-5.414-14.217c-2.036-5.32-3.754-9.816-4.084-10.593-5.273-13.112-5.779-16.949-32.143-16.96h-1.553l-17.125.094h-2.52l-20.56.106"/>
  <path stroke="#040829" stroke-miterlimit="10" stroke-width=".86" d="M94.08 117.165c.776 1.613 2.47 4.544 4.554 7.992a673.706 673.706 0 0 0 6.203 10.028 483.797 483.797 0 0 0 5.884 9.074l9.298-4.955-1.624-4.107c-.223-.589-.482-1.26-.741-1.954"/>
  <path stroke="#040829" stroke-linecap="round" stroke-miterlimit="10" stroke-width=".86" d="M57.36 22.596a2.355 2.355 0 0 0 3.53 1.177M103.957 44.029l.248-.365c1.671-2.696.211-5.344.317-6.12.271-1.848 2.107-1.272 2.578 1.341.241 1.229.292 2.487.153 3.731a4.804 4.804 0 0 1-3.684 4.532c-.318.635-10.957 21.856-16.007 20.008-4.272-1.577-8.91-5.061-13.84-9.204-1.978-1.66 5.943 32.861 6.014 33.614l-3.684-.059"/>
  <path stroke="#040829" stroke-linecap="round" stroke-miterlimit="10" stroke-width=".86" d="M101.414 42.675a3.95 3.95 0 0 1-.259.424M103.922 43.993a2.58 2.58 0 0 0 .271-.33c1.294-2.035.435-7.532-1.295-7.79a.897.897 0 0 0-.483.07c-2.024.8 1.06 3.201-.988 6.72"/>
  <path stroke="#040829" stroke-linecap="round" stroke-miterlimit="10" stroke-width=".86" d="M101.153 43.11a4.12 4.12 0 0 0 .259-.435 4.153 4.153 0 0 0 .447-2.977c-.105-.636-.741-2.496-1.435-2.778a.932.932 0 0 0-1.284.64.93.93 0 0 0 .036.537c.989 2.73.47 3.66-.282 4.19-.754.53-1.401.612-1.637 1.294-.06.204-.13.404-.211.6-2.166 5.685-8.38 11.5-8.616 11.253-3.319-3.531-7.732-8.722-12.064-13.795-1.695-1.977-11.216-3.036-11.216-3.036a2.354 2.354 0 0 0-1.59-1.954l-.435-.153a29.507 29.507 0 0 0-11.875.118h-.07a3.319 3.319 0 0 0-1.46 1.965c-6.356 1.236-11.558 2.354-14.124 4.838-4.39 4.32-13.7 31.13-8.392 35.544 1.319 1.095 4.214 1.306 8.24.753a87.704 87.704 0 0 0 15.076-3.79l.306-.106-.118-5.955a3.437 3.437 0 0 1 3.084-3.142"/>
  <path stroke="#040829" stroke-linecap="round" stroke-linejoin="round" stroke-width=".86" d="m103.766 25.244-.011.189-.848 10.38"/>
  <path stroke="#040829" stroke-linecap="round" stroke-miterlimit="10" stroke-width=".86" d="M97.128 44.229s2.354 3.53 6.367 2.872"/>
  <path fill="#040829" d="M66.032 16.64a.47.47 0 1 1 0 .942.47.47 0 0 1 0-.941ZM60.313 16.64a.471.471 0 1 1 0 .944.471.471 0 0 1 0-.943Z"/>
  <path stroke="#040829" stroke-linecap="round" stroke-linejoin="round" stroke-width=".86" d="M84.277 163.573v2.048h27.247v-2.236H84.277v.188Z"/>
  <path stroke="#fff" stroke-miterlimit="10" stroke-width=".86" d="m114.962 152.121 14.335-7.721"/>
  <path stroke="#040829" stroke-linecap="round" stroke-linejoin="round" stroke-width=".86" d="m114.832 152.357.977 1.812 23.975-12.946-1.059-1.966-.047.012-23.928 12.923v.012l.082.153Z"/>
  <path stroke="#040829" stroke-linecap="round" stroke-miterlimit="10" stroke-width=".86" d="M43.763 100.111c.13 4.708-2.848 7.639-6.72 9.028a16.406 16.406 0 0 1-4.708.906"/>
  <path stroke="#040829" stroke-linecap="round" stroke-linejoin="round" stroke-width=".86" d="M120.152 139.281c.353-.106 1.53-.165 3.119-.306a35.652 35.652 0 0 0 9.416-1.872c1.812-.718 3.86-.812 5.143.648.361.412.637.892.812 1.412V139.328l-23.539 12.77-4.343-7.615 9.392-5.202Z"/>
  <path stroke="#040829" stroke-linecap="round" stroke-miterlimit="10" stroke-width=".86" d="M51.924 69.121c-2.695.483-12.77 1.99-15.842 2.413a59.116 59.116 0 0 1 4.543-15.383"/>
  <path stroke="#040829" stroke-miterlimit="10" stroke-width=".86" d="M116.139 129.006h30.001M94.493 129.006h6.368M.934 129.006h77.644"/>
</svg>
