<svg xmlns="http://www.w3.org/2000/svg" width="120" height="120" fill="none">
  <path fill="#DCE4EC" d="M104.502 105.204c-7.078 3.528-16.3 2.121-21.97-3.355-3.832-3.702-5.975-8.81-9.568-12.728-6.732-7.338-18.616-9.286-27.339-4.503-10.329 5.684-16.637 20.614-29.308 21.105-7.078.281-13.897-5.476-14.806-12.49-.909-7.034 4.2-14.329 11.126-15.866 10.194-2.32 12.834-7.128 2.966-17.403-5.048-5.202-8.433-11.015-3.096-18.03 4.875-6.301 15.587-8.637 24.741-3.031 15.157 9.321 2.303 8.419 14.482-8.875 11.48-16.459 24.334-4.869 32.382-3.96 7.532.887 14.957-3.832 22.446-2.599 11.598 1.918 16.141 16.4 7.662 24.59-5.433 5.26-14.112 5.563-20.152 10.065-4.906 3.667-4.156 8.299.585 10 30.141 10.822 21.267 31.335 9.849 37.08ZM25.13 12.865c-6.135.1-8.642 6.948-.992 12.599 8.362 6.176 14.57 1.578 14.496-2.787-.066-3.923-5.921-9.937-13.504-9.812Z"/>
  <path fill="#E3E3E3" stroke="#040829" d="M45.013 84.43v6.288H22.734V84.43a4.86 4.86 0 0 1 4.861-4.86h12.557a4.86 4.86 0 0 1 4.861 4.86Z"/>
  <path fill="#fff" d="M28.156 86.011v4.594Z"/>
  <path stroke="#040829" stroke-linecap="round" d="M28.156 86.011v4.594"/>
  <path fill="#fff" d="M39.594 86.011v4.594Z"/>
  <path stroke="#040829" stroke-linecap="round" d="M39.594 86.011v4.594"/>
  <path fill="#fff" stroke="#040829" d="M42.74 67.018a8.865 8.865 0 0 1-8.867 8.863 8.865 8.865 0 1 1 0-17.727 8.865 8.865 0 0 1 8.866 8.864Z"/>
  <path fill="#5656D3" stroke="#040829" d="M97.263 84.43v6.288H74.984V84.43a4.86 4.86 0 0 1 4.861-4.86h12.557a4.86 4.86 0 0 1 4.861 4.86Z"/>
  <path fill="#fff" d="M80.406 86.011v4.594Z"/>
  <path stroke="#040829" stroke-linecap="round" d="M80.406 86.011v4.594"/>
  <path fill="#fff" d="M91.844 86.011v4.594Z"/>
  <path stroke="#040829" stroke-linecap="round" d="M91.844 86.011v4.594"/>
  <path fill="#fff" stroke="#040829" d="M94.99 67.018a8.865 8.865 0 0 1-8.867 8.863 8.865 8.865 0 1 1 0-17.727 8.865 8.865 0 0 1 8.866 8.864Z"/>
  <path fill="#E3E3E3" stroke="#040829" d="M75.842 81.688v9.03H44.16v-9.03a7.025 7.025 0 0 1 7.027-7.025h17.628a7.025 7.025 0 0 1 7.027 7.025Z"/>
  <path fill="#fff" d="M51.973 83.908v6.45Z"/>
  <path stroke="#040829" stroke-linecap="round" d="M51.973 83.908v6.45"/>
  <path fill="#fff" d="M68.027 83.908v6.45Z"/>
  <path stroke="#040829" stroke-linecap="round" d="M68.027 83.908v6.45"/>
  <path fill="#fff" stroke="#040829" d="M72.649 57.243c0 6.983-5.663 12.645-12.649 12.645-6.986 0-12.648-5.662-12.648-12.645 0-6.984 5.662-12.646 12.648-12.646S72.65 50.26 72.65 57.243Z"/>
  <path fill="#5656D3" stroke="#040829" d="m79.269 42.635-.15-.191h-4.33a1.66 1.66 0 0 1-1.66-1.66v-9.842c0-.917.743-1.66 1.66-1.66h16.486c.917 0 1.66.743 1.66 1.66v9.842a1.66 1.66 0 0 1-1.66 1.66H86.947l-.15.191-3.764 4.803-3.764-4.803ZM34.533 47.14l-.15-.192H30.77a1.281 1.281 0 0 1-1.282-1.281v-8.118c0-.707.574-1.28 1.282-1.28h13.597a1.28 1.28 0 0 1 1.28 1.28v8.118c0 .707-.573 1.28-1.28 1.28h-3.613l-.15.192-3.035 3.873-3.036-3.873Z"/>
</svg>
