<svg xmlns="http://www.w3.org/2000/svg" width="120" height="120" fill="none">
  <path fill="#DCE4EC" d="M104.502 105.204c-7.078 3.528-16.3 2.121-21.97-3.355-3.832-3.702-5.975-8.81-9.568-12.728-6.732-7.338-18.616-9.286-27.339-4.503-10.329 5.684-16.637 20.614-29.308 21.105-7.078.281-13.897-5.476-14.806-12.49-.909-7.034 4.2-14.329 11.126-15.866 10.194-2.32 12.834-7.128 2.966-17.403-5.048-5.202-8.433-11.015-3.096-18.03 4.875-6.301 15.587-8.637 24.741-3.031 15.157 9.321 2.303 8.419 14.482-8.875 11.48-16.459 24.334-4.869 32.382-3.96 7.532.887 14.957-3.832 22.446-2.599 11.598 1.918 16.141 16.4 7.662 24.59-5.433 5.26-14.112 5.563-20.152 10.065-4.906 3.667-4.156 8.299.585 10 30.141 10.822 21.267 31.335 9.849 37.08ZM25.13 12.865c-6.135.1-8.642 6.948-.992 12.599 8.362 6.176 14.57 1.578 14.496-2.787-.066-3.923-5.921-9.937-13.504-9.812Z"/>
  <path fill="#E3E3E3" stroke="#040829" d="M84.685 23.193c6.946 0 12.58 5.675 12.58 12.681 0 7.006-5.634 12.676-12.58 12.676-6.947 0-12.587-5.67-12.587-12.676 0-7.005 5.64-12.681 12.587-12.681Z"/>
  <path fill="#040829" d="M87.668 38.424c0 .439-.107.859-.322 1.26a2.624 2.624 0 0 1-.966.98c-.43.261-.952.406-1.568.434v1.12h-.616v-1.134c-.83-.075-1.503-.345-2.016-.812a2.503 2.503 0 0 1-.826-1.764h1.05c.037.42.205.803.504 1.148.308.336.737.541 1.288.616v-3.878a10.922 10.922 0 0 1-1.512-.504 2.438 2.438 0 0 1-.952-.77c-.261-.355-.392-.826-.392-1.414 0-.737.257-1.344.77-1.82.513-.485 1.209-.747 2.086-.784v-1.176h.616v1.19c.775.075 1.395.327 1.862.756.467.43.742.966.826 1.61h-1.036c-.056-.345-.229-.667-.518-.966-.28-.299-.658-.485-1.134-.56v3.738c.607.159 1.101.327 1.484.504.392.168.719.43.98.784.261.355.392.835.392 1.442Zm-5.334-4.76c0 .523.159.92.476 1.19.327.261.789.48 1.386.658v-3.598c-.56.028-1.013.191-1.358.49-.336.299-.504.719-.504 1.26Zm2.478 6.636c.597-.037 1.06-.224 1.386-.56.327-.345.49-.77.49-1.274 0-.532-.163-.933-.49-1.204-.317-.27-.78-.5-1.386-.686V40.3Z"/>
  <path fill="#fff" d="m84.496 29.48.035 1.219ZM84.824 41.043l.035 1.22Z"/>
  <path fill="#fff" stroke="#040829" d="M41.97 75.835v20.972H30.66V75.835c0-1.19.951-2.143 2.112-2.143h7.085c1.16 0 2.112.954 2.112 2.144Z"/>
  <path fill="#5656D3" stroke="#040829" d="M60.77 68.124v28.683H49.46V68.124c0-1.19.952-2.144 2.113-2.144h7.085c1.16 0 2.112.954 2.112 2.144Z"/>
  <path fill="#fff" stroke="#040829" d="M79.567 57.107v39.7h-11.31v-39.7c0-1.19.952-2.144 2.112-2.144h7.086c1.16 0 2.112.954 2.112 2.144Z"/>
  <path stroke="#000" stroke-linecap="round" d="M19.5 97h72"/>
  <path stroke="#040829" stroke-linecap="round" d="M75 44 27 70"/>
</svg>
