<svg xmlns="http://www.w3.org/2000/svg" width="120" height="32" fill="none">
  <path fill="#000" d="M19.013 14.508c-.032-3.447 2.894-5.124 3.028-5.202-1.657-2.355-4.225-2.677-5.128-2.703-2.157-.221-4.25 1.259-5.349 1.259-1.12 0-2.813-1.238-4.637-1.201-2.347.035-4.543 1.36-5.747 3.417-2.485 4.195-.632 10.36 1.75 13.75 1.19 1.661 2.582 3.516 4.404 3.45 1.782-.071 2.448-1.107 4.599-1.107 2.13 0 2.756 1.107 4.614 1.066 1.912-.03 3.117-1.668 4.266-3.344 1.376-1.903 1.93-3.778 1.951-3.874-.045-.015-3.715-1.38-3.75-5.511ZM15.504 4.372c.958-1.168 1.614-2.758 1.432-4.372-1.387.06-3.122.936-4.122 2.079-.883 1.007-1.673 2.658-1.47 4.21 1.56.114 3.16-.766 4.16-1.917ZM44.805 27.04h-2.49l-1.365-4.18h-4.742l-1.3 4.18h-2.425l4.699-14.23h2.902l4.721 14.23Zm-4.266-5.934-1.234-3.716c-.13-.38-.375-1.274-.736-2.68h-.044c-.143.604-.375 1.498-.693 2.68l-1.212 3.716h3.919ZM56.888 21.783c0 1.745-.484 3.124-1.451 4.137-.866.902-1.942 1.352-3.227 1.352-1.386 0-2.382-.486-2.988-1.457h-.044v5.406H46.84V20.157c0-1.098-.03-2.224-.087-3.378h2.056l.13 1.626h.045c.78-1.226 1.963-1.837 3.551-1.837 1.242 0 2.278.478 3.107 1.435.831.958 1.246 2.218 1.246 3.78Zm-2.382.083c0-.998-.23-1.822-.693-2.47-.506-.676-1.185-1.014-2.036-1.014a2.47 2.47 0 0 0-1.57.56c-.469.374-.776.863-.92 1.468a2.916 2.916 0 0 0-.108.695v1.71c0 .747.235 1.377.704 1.891.47.515 1.08.771 1.83.771.88 0 1.566-.331 2.056-.992.491-.662.737-1.534.737-2.619ZM68.993 21.783c0 1.745-.483 3.124-1.452 4.137-.865.902-1.941 1.352-3.225 1.352-1.387 0-2.383-.486-2.988-1.457h-.044v5.406h-2.338V20.157c0-1.098-.03-2.224-.087-3.378h2.057l.13 1.626h.044c.779-1.226 1.962-1.837 3.551-1.837 1.24 0 2.277.478 3.109 1.435.828.958 1.243 2.218 1.243 3.78Zm-2.382.083c0-.998-.231-1.822-.694-2.47-.506-.676-1.182-1.014-2.035-1.014-.578 0-1.1.189-1.57.56-.47.374-.776.863-.92 1.468a2.978 2.978 0 0 0-.108.695v1.71c0 .747.235 1.377.702 1.891.47.514 1.08.771 1.832.771.88 0 1.566-.331 2.056-.992.492-.662.737-1.534.737-2.619ZM82.526 23.049c0 1.21-.43 2.195-1.296 2.956-.95.83-2.275 1.245-3.976 1.245-1.57 0-2.83-.295-3.782-.886l.541-1.9a6.534 6.534 0 0 0 3.38.909c.881 0 1.567-.195 2.06-.582.49-.387.734-.907.734-1.555 0-.577-.202-1.064-.606-1.459-.403-.394-1.075-.76-2.014-1.1-2.555-.93-3.832-2.29-3.832-4.08 0-1.17.447-2.13 1.343-2.876.893-.747 2.084-1.12 3.574-1.12 1.328 0 2.431.225 3.312.675l-.585 1.859c-.822-.436-1.752-.655-2.793-.655-.823 0-1.465.198-1.926.592-.39.352-.585.78-.585 1.288 0 .563.223 1.028.67 1.394.39.338 1.097.703 2.124 1.098 1.255.493 2.178 1.07 2.771 1.73.591.659.886 1.483.886 2.467ZM90.258 18.49h-2.577v4.981c0 1.267.454 1.9 1.364 1.9.418 0 .764-.035 1.039-.105l.064 1.73c-.46.169-1.067.253-1.818.253-.924 0-1.645-.275-2.166-.823-.519-.55-.78-1.471-.78-2.766v-5.173H83.85v-1.71h1.535v-1.88l2.297-.675v2.554h2.577v1.713ZM101.886 21.825c0 1.577-.462 2.872-1.386 3.884-.968 1.043-2.254 1.563-3.856 1.563-1.544 0-2.774-.5-3.69-1.498-.917-1-1.376-2.26-1.376-3.78 0-1.59.472-2.892 1.418-3.905.945-1.013 2.219-1.52 3.821-1.52 1.545 0 2.787.5 3.725 1.499.897.97 1.344 2.222 1.344 3.757Zm-2.426.073c0-.946-.207-1.758-.627-2.434-.49-.82-1.191-1.228-2.1-1.228-.939 0-1.653.41-2.143 1.227-.42.678-.628 1.503-.628 2.478 0 .947.208 1.758.628 2.434.505.819 1.212 1.227 2.123 1.227.893 0 1.594-.416 2.1-1.248.43-.69.647-1.51.647-2.456ZM109.487 18.784a4.157 4.157 0 0 0-.737-.064c-.822 0-1.459.303-1.906.91-.389.534-.585 1.21-.585 2.026v5.384h-2.337l.022-7.03c0-1.183-.029-2.26-.088-3.23h2.037l.086 1.963h.064c.247-.675.636-1.218 1.169-1.625a2.877 2.877 0 0 1 1.691-.55c.216 0 .411.015.584.042v2.174ZM119.944 21.423c0 .409-.028.753-.086 1.034h-7.014c.027 1.014.366 1.79 1.017 2.324.591.478 1.356.718 2.295.718 1.038 0 1.986-.162 2.838-.486l.366 1.583c-.995.423-2.171.634-3.528.634-1.632 0-2.913-.469-3.845-1.404-.93-.936-1.396-2.192-1.396-3.768 0-1.548.433-2.836 1.301-3.864.908-1.097 2.135-1.646 3.679-1.646 1.517 0 2.665.549 3.445 1.646.617.872.928 1.95.928 3.23Zm-2.23-.591c.016-.676-.137-1.26-.454-1.753-.405-.634-1.026-.95-1.863-.95-.765 0-1.387.309-1.861.929-.39.493-.621 1.084-.692 1.773h4.87v.001ZM39.766 4.055c0 1.258-.387 2.206-1.16 2.842-.717.587-1.734.881-3.053.881-.653 0-1.213-.028-1.68-.083V.818c.61-.096 1.268-.146 1.979-.146 1.256 0 2.202.267 2.84.8.715.601 1.074 1.462 1.074 2.583Zm-1.212.03c0-.815-.221-1.44-.665-1.877-.443-.435-1.09-.653-1.942-.653-.362 0-.67.023-.925.072v5.228c.14.022.4.031.776.031.88 0 1.558-.238 2.037-.715.478-.477.72-1.172.72-2.085ZM46.192 5.154c0 .775-.227 1.41-.681 1.908-.477.513-1.107.768-1.895.768-.758 0-1.363-.245-1.814-.737-.45-.49-.674-1.11-.674-1.856 0-.78.231-1.421.696-1.918.465-.498 1.09-.747 1.878-.747.759 0 1.369.245 1.83.736.44.477.66 1.093.66 1.846Zm-1.193.036c0-.465-.103-.864-.308-1.197-.241-.402-.584-.603-1.03-.603-.462 0-.813.201-1.055.603-.206.333-.308.738-.308 1.217 0 .465.103.864.308 1.197.25.402.596.603 1.043.603.439 0 .783-.204 1.031-.614.213-.339.32-.74.32-1.206ZM54.808 2.675 53.19 7.716h-1.052l-.67-2.189a16.05 16.05 0 0 1-.416-1.628h-.021c-.1.554-.238 1.096-.416 1.628l-.712 2.19H48.84l-1.522-5.042H48.5l.584 2.397c.142.566.258 1.106.351 1.618h.02a17.6 17.6 0 0 1 .428-1.608l.733-2.406h.937l.703 2.355c.17.574.308 1.127.414 1.66h.032c.078-.519.196-1.072.351-1.66l.628-2.355h1.128ZM60.766 7.716h-1.15V4.829c0-.89-.346-1.335-1.041-1.335-.341 0-.617.122-.83.367-.212.245-.32.534-.32.864v2.99h-1.149v-3.6c0-.442-.014-.922-.042-1.442h1.01l.054.788h.032c.134-.245.333-.447.596-.608a1.98 1.98 0 0 1 1.041-.284c.483 0 .884.152 1.204.457.397.373.595.93.595 1.67v3.02ZM63.936 7.716h-1.148V.362h1.148v7.354ZM70.703 5.154c0 .775-.227 1.41-.68 1.908-.477.513-1.108.768-1.895.768-.76 0-1.364-.245-1.814-.737-.45-.49-.674-1.11-.674-1.856 0-.78.231-1.421.696-1.918.465-.498 1.09-.747 1.877-.747.76 0 1.368.245 1.831.736.439.477.66 1.093.66 1.846Zm-1.193.036c0-.465-.103-.864-.308-1.197-.24-.402-.585-.603-1.03-.603-.463 0-.814.201-1.054.603-.206.333-.308.738-.308 1.217 0 .465.103.864.308 1.197.249.402.596.603 1.043.603.439 0 .782-.204 1.03-.614.214-.339.319-.74.319-1.206ZM76.266 7.716h-1.032l-.086-.58h-.031c-.354.462-.857.694-1.51.694-.489 0-.884-.153-1.18-.456a1.412 1.412 0 0 1-.406-1.027c0-.616.264-1.085.793-1.41.53-.326 1.273-.485 2.23-.477v-.094c0-.665-.357-.996-1.074-.996-.51 0-.96.125-1.347.373l-.234-.736c.48-.29 1.074-.435 1.773-.435 1.351 0 2.03.695 2.03 2.085v1.857c0 .503.025.904.074 1.202Zm-1.193-1.733v-.777c-1.268-.021-1.902.318-1.902 1.016 0 .263.072.46.22.591a.816.816 0 0 0 .562.197c.252 0 .488-.078.703-.233a.953.953 0 0 0 .417-.794ZM82.797 7.716h-1.02l-.054-.81h-.032c-.326.616-.88.924-1.66.924a1.966 1.966 0 0 1-1.553-.715c-.412-.477-.617-1.096-.617-1.856 0-.816.223-1.477.67-1.982.434-.47.965-.705 1.596-.705.694 0 1.18.227 1.457.684h.022V.362h1.15v5.996c0 .49.013.943.04 1.358ZM81.606 5.59v-.84c0-.146-.011-.263-.032-.353a1.27 1.27 0 0 0-.416-.68 1.147 1.147 0 0 0-.769-.274c-.428 0-.764.166-1.01.498-.246.333-.37.757-.37 1.276 0 .498.118.903.354 1.214.249.331.584.497 1.004.497.378 0 .68-.138.908-.415a1.36 1.36 0 0 0 .33-.923ZM92.627 5.154c0 .775-.227 1.41-.68 1.908-.477.513-1.106.768-1.895.768-.758 0-1.362-.245-1.814-.737-.45-.49-.674-1.11-.674-1.856 0-.78.23-1.421.696-1.918.465-.498 1.09-.747 1.879-.747.758 0 1.368.245 1.829.736.439.477.66 1.093.66 1.846Zm-1.19.036c0-.465-.104-.864-.31-1.197-.242-.402-.584-.603-1.031-.603-.46 0-.812.201-1.054.603-.206.333-.308.738-.308 1.217 0 .465.103.864.308 1.197.249.402.595.603 1.043.603.439 0 .784-.204 1.032-.614.212-.339.32-.74.32-1.206ZM98.807 7.716h-1.148V4.829c0-.89-.347-1.335-1.043-1.335-.341 0-.617.122-.83.367-.212.245-.319.534-.319.864v2.99h-1.15v-3.6c0-.442-.013-.922-.04-1.442h1.008l.054.788h.032c.135-.245.334-.447.595-.608.313-.188.66-.284 1.043-.284.482 0 .883.152 1.203.457.398.373.595.93.595 1.67v3.02ZM106.542 3.515h-1.265v2.448c0 .623.224.934.67.934.206 0 .377-.017.512-.052l.03.85c-.227.083-.526.125-.893.125-.454 0-.807-.135-1.063-.404-.257-.27-.384-.723-.384-1.36V3.516h-.755v-.84h.755v-.924l1.127-.331v1.254h1.265v.84h.001ZM112.627 7.716h-1.151V4.85c0-.903-.346-1.356-1.04-1.356-.534 0-.898.262-1.097.786-.034.11-.054.245-.054.403v3.032h-1.148V.362h1.148V3.4h.022c.362-.553.881-.828 1.553-.828.476 0 .87.151 1.182.456.39.38.585.944.585 1.69v2.998ZM118.903 4.957c0 .201-.015.37-.043.508h-3.447c.016.498.18.878.499 1.141.292.235.668.353 1.129.353.51 0 .975-.08 1.394-.238l.18.778c-.491.207-1.067.311-1.735.311-.801 0-1.432-.23-1.888-.69-.458-.46-.685-1.076-.685-1.85 0-.76.211-1.394.638-1.899.445-.539 1.047-.808 1.807-.808.744 0 1.309.27 1.69.808.309.428.461.957.461 1.586Zm-1.097-.29a1.483 1.483 0 0 0-.222-.86c-.2-.312-.504-.468-.915-.468-.375 0-.681.152-.915.457-.19.243-.303.532-.341.871h2.393Z"/>
</svg>
