<svg width="130" height="74" viewBox="0 0 130 74" fill="none" xmlns="http://www.w3.org/2000/svg">
<path d="M51.619 0C50.5835 0 49.5973 0 48.5618 0C47.7236 0 46.8853 0 46.0471 0C44.913 0 43.6309 0.245776 42.1517 0.688172C36.3332 2.50691 33.0295 7.27496 32.6351 14.4516C32.142 22.808 36.8263 28.9032 44.4692 29.9846C46.3922 30.2796 48.5618 30.3779 51.0273 30.3779C53.0982 30.3779 55.2185 30.2795 57.0429 30.1812C62.7628 29.8863 68.1867 26.0522 70.307 19.4163C70.4056 19.1213 70.5042 18.8264 70.6029 18.5315C69.2715 18.0891 68.1867 17.5975 67.0033 16.8111C66.954 16.9585 66.9047 17.0568 66.8554 17.2043C65.031 22.6114 61.678 25.4132 57.8812 25.7573C53.8379 26.1014 49.5973 26.1505 45.4061 25.8064C40.2779 25.4132 36.3825 20.5468 36.4318 14.5499C36.4318 9.6344 40.771 4.76805 45.5047 4.37481C48.8577 4.07987 52.5558 4.03072 56.5005 4.17818C60.7411 4.3748 63.8969 6.48847 65.3761 10.2243C66.954 14.2058 69.8139 16.0737 74.301 16.1229C76.2734 16.1229 78.295 16.1229 80.2674 16.1229C81.1549 16.1229 82.0918 16.1229 82.9794 16.1229C85.0996 16.1229 86.6775 16.1229 88.2061 16.172C89.4388 16.172 90.7701 16.467 91.9536 16.9585C93.7287 17.6958 94.7149 19.2196 94.6162 21.1859C94.5176 23.1521 93.4821 24.6267 91.7563 25.2657C90.3757 25.7573 89.0937 26.0031 87.9102 26.0522C85.6914 26.1014 83.2259 26.1014 80.2181 26.1014C78.7388 26.1014 77.3088 26.1014 75.8789 26.1014C74.5969 26.1014 71.8356 26.1014 70.5535 26.1014C69.4194 27.8218 68.3346 29.149 67.1019 30.2795C68.877 30.2795 70.6029 30.3287 72.378 30.3287C74.6955 30.3287 78.4923 30.3779 80.8098 30.3779C84.4586 30.3779 87.4171 30.3287 90.1784 30.1812C94.8628 29.9846 98.2158 26.1997 98.2158 21.235C98.2158 16.172 94.8628 12.3871 90.0305 12.0922C87.4172 11.8955 84.6066 11.8464 81.2042 11.8464C79.0347 11.8464 76.8651 11.8955 74.6955 11.8955H74.5476C71.9342 11.8955 70.307 10.765 69.2222 8.25806C67.2498 3.58832 63.7982 0.835636 59.1139 0.29493C56.4019 0.0491544 53.6899 0 51.619 0Z" fill="#001EFC"/>
<path d="M67.5957 0.786481C68.5819 1.52381 69.6667 2.75269 70.5049 4.37481C71.2939 4.22734 71.9842 4.17818 72.7238 4.17818H73.1676H73.3155C76.6685 4.17818 80.0215 4.17818 83.3745 4.17818H89.9326H93.4335C93.7787 4.17818 94.0745 4.17818 94.3704 4.12903V0H93.4828H84.7059C80.5639 0 75.7317 2.24868e-06 70.8501 0.0983125C69.9625 0.147468 68.5326 0.39324 67.5957 0.786481Z" fill="#001EFC"/>
<path d="M4.53676 57.3433C3.33151 56.6987 2.36732 55.7317 1.64416 54.6036C0.921013 53.3949 0.599609 52.1057 0.599609 50.6552C0.599609 49.2048 0.921013 47.9155 1.64416 46.7069C2.36732 45.4982 3.33151 44.6118 4.53676 43.9672C5.74202 43.3226 7.10797 43.0002 8.63463 43.0002C10.1613 43.0002 11.5272 43.3226 12.7325 43.9672C13.9377 44.6118 14.9019 45.5788 15.6251 46.7069C16.3482 47.835 16.6696 49.2048 16.6696 50.6552C16.6696 52.1057 16.3482 53.4755 15.6251 54.6036C14.9019 55.7317 13.9377 56.6987 12.7325 57.3433C11.5272 57.9879 10.1613 58.3102 8.63463 58.3102C7.18832 58.3102 5.82237 57.9879 4.53676 57.3433ZM11.3665 55.1676C12.17 54.6842 12.8128 54.1201 13.2146 53.3143C13.6967 52.5086 13.8574 51.6222 13.8574 50.5747C13.8574 49.6077 13.6163 48.6408 13.2146 47.835C12.7325 47.0292 12.17 46.3846 11.3665 45.9817C10.563 45.4982 9.67917 45.337 8.71497 45.337C7.75077 45.337 6.86693 45.5788 6.06342 45.9817C5.25992 46.4651 4.61712 47.0292 4.21537 47.835C3.73327 48.6408 3.57256 49.5271 3.57256 50.5747C3.57256 51.5416 3.81362 52.5086 4.21537 53.3143C4.69747 54.1201 5.25992 54.7648 6.06342 55.1676C6.86693 55.6511 7.75077 55.8123 8.71497 55.8123C9.67917 55.8929 10.563 55.6511 11.3665 55.1676Z" fill="#000229"/>
<path d="M30.4089 46.7066V58.0682H27.8377V56.6178C27.4359 57.1012 26.8735 57.5041 26.2307 57.8265C25.5879 58.0682 24.8648 58.2294 24.1416 58.2294C22.6149 58.2294 21.4097 57.8265 20.5258 56.9401C19.642 56.0537 19.2402 54.845 19.2402 53.1529V46.626H21.8918V52.75C21.8918 53.7975 22.1328 54.5227 22.6149 55.0062C23.097 55.4897 23.7398 55.7314 24.5433 55.7314C25.5076 55.7314 26.2307 55.4091 26.7931 54.845C27.3556 54.281 27.5966 53.3946 27.5966 52.2665V46.4648H30.4089V46.7066Z" fill="#000229"/>
<path d="M40.4539 46.5452V49.1237C40.2129 49.0431 40.0522 49.0431 39.8112 49.0431C38.7666 49.0431 37.9631 49.3654 37.4006 49.9295C36.8382 50.5741 36.5168 51.3799 36.5168 52.508V58.0679H33.8652V46.7063H36.4364V48.3985C37.1596 47.1898 38.5255 46.5452 40.4539 46.5452Z" fill="#000229"/>
<path d="M44.0692 57.8267C43.0247 57.5044 42.1408 57.1015 41.498 56.5375L42.4622 54.3619C43.105 54.8453 43.8282 55.2482 44.7121 55.5705C45.5959 55.8929 46.4798 56.054 47.3636 56.054C48.4885 56.054 49.292 55.8929 49.8545 55.49C50.4169 55.1677 50.658 54.6842 50.658 54.1201C50.658 53.7172 50.4973 53.3143 50.1759 53.0726C49.8545 52.8309 49.4527 52.5891 49.051 52.428C48.5689 52.2668 47.9261 52.1057 47.1226 51.8639C45.9977 51.6222 45.0335 51.2999 44.3907 51.0581C43.6675 50.8164 43.1051 50.3329 42.5426 49.7689C42.0605 49.2048 41.8195 48.399 41.8195 47.4321C41.8195 46.6263 42.0605 45.8205 42.4622 45.1759C42.9443 44.5312 43.5871 43.9672 44.471 43.5643C45.3549 43.1614 46.4798 43.0002 47.7654 43.0002C48.6492 43.0002 49.5331 43.0808 50.4169 43.3226C51.3008 43.5643 52.0239 43.8866 52.6667 44.2895L51.7829 46.4651C51.1401 46.0622 50.4169 45.8205 49.7741 45.5788C49.051 45.4176 48.4082 45.2565 47.685 45.2565C46.5601 45.2565 45.7566 45.4176 45.2745 45.8205C44.7121 46.2234 44.471 46.7069 44.471 47.2709C44.471 47.6738 44.6317 48.0767 44.9531 48.3184C45.2745 48.5602 45.6763 48.8019 46.078 48.9631C46.5601 49.1242 47.2029 49.2854 48.0064 49.5271C49.1313 49.7689 50.0152 50.0106 50.7383 50.3329C51.4615 50.5746 52.0239 51.0581 52.5864 51.6222C53.0685 52.1862 53.3095 52.992 53.3095 53.959C53.3095 54.7647 53.0685 55.5705 52.6667 56.2152C52.1846 56.8598 51.5418 57.4239 50.658 57.8267C49.7741 58.2296 48.6492 58.3908 47.3636 58.3908C46.2387 58.3102 45.1942 58.1491 44.0692 57.8267Z" fill="#000229"/>
<path d="M66.9675 46.7066V58.0682H64.3963V56.6178C63.9945 57.1012 63.4321 57.5041 62.7893 57.8265C62.1465 58.0682 61.4233 58.2294 60.7002 58.2294C59.1735 58.2294 57.9683 57.8265 57.0844 56.9401C56.2006 56.0537 55.7988 54.845 55.7988 53.1529V46.626H58.4504V52.75C58.4504 53.7975 58.6914 54.5227 59.1735 55.0062C59.6556 55.4897 60.2984 55.7314 61.1019 55.7314C62.0661 55.7314 62.7893 55.4091 63.3517 54.845C63.9142 54.281 64.1552 53.3946 64.1552 52.2665V46.4648H66.9675V46.7066Z" fill="#000229"/>
<path d="M79.6641 47.2705C80.5479 47.754 81.1907 48.3986 81.7532 49.285C82.2353 50.1713 82.4764 51.2189 82.4764 52.347C82.4764 53.4751 82.2353 54.5226 81.7532 55.409C81.2711 56.2953 80.5479 57.0205 79.6641 57.504C78.7802 57.9875 77.816 58.2292 76.6911 58.2292C75.1645 58.2292 73.9592 57.7457 73.0754 56.6982V62.2582H70.4238V46.7064H72.995V48.2374C73.3968 47.6734 73.9592 47.2705 74.602 47.0288C75.2448 46.787 75.968 46.6259 76.7715 46.6259C77.816 46.5453 78.7802 46.787 79.6641 47.2705ZM78.8606 55.0061C79.5034 54.3614 79.8248 53.4751 79.8248 52.4275C79.8248 51.38 79.5034 50.4937 78.8606 49.849C78.2178 49.2044 77.4143 48.8821 76.4501 48.8821C75.8073 48.8821 75.2448 49.0432 74.7627 49.285C74.2806 49.6073 73.8789 50.0102 73.5575 50.4937C73.2361 51.0577 73.0754 51.6217 73.0754 52.347C73.0754 53.0722 73.2361 53.7168 73.5575 54.2003C73.8789 54.7643 74.2806 55.1672 74.7627 55.409C75.2448 55.7313 75.8876 55.8118 76.4501 55.8118C77.4143 55.973 78.2178 55.6507 78.8606 55.0061Z" fill="#000229"/>
<path d="M94.2891 47.2705C95.1729 47.754 95.8158 48.3986 96.3782 49.285C96.8603 50.1713 97.1014 51.2189 97.1014 52.347C97.1014 53.4751 96.8603 54.5226 96.3782 55.409C95.8961 56.2953 95.1729 57.0205 94.2891 57.504C93.4052 57.9875 92.4411 58.2292 91.3162 58.2292C89.7895 58.2292 88.5843 57.7457 87.7004 56.6982V62.2582H85.0488V46.7064H87.62V48.2374C88.0218 47.6734 88.5842 47.2705 89.227 47.0288C89.8698 46.787 90.593 46.6259 91.3965 46.6259C92.441 46.5453 93.4052 46.787 94.2891 47.2705ZM93.4052 55.0061C94.048 54.3614 94.3695 53.4751 94.3695 52.4275C94.3695 51.38 94.048 50.4937 93.4052 49.849C92.7624 49.2044 91.9589 48.8821 90.9947 48.8821C90.3519 48.8821 89.7895 49.0432 89.3074 49.285C88.8253 49.6073 88.4235 50.0102 88.1021 50.4937C87.7807 51.0577 87.62 51.6217 87.62 52.347C87.62 53.0722 87.7807 53.7168 88.1021 54.2003C88.4235 54.7643 88.8253 55.1672 89.3074 55.409C89.7895 55.7313 90.4323 55.8118 90.9947 55.8118C92.0393 55.973 92.8428 55.6507 93.4052 55.0061Z" fill="#000229"/>
<path d="M101.6 57.5041C100.716 57.0206 99.9929 56.2954 99.4305 55.4091C98.9484 54.5227 98.627 53.4752 98.627 52.4277C98.627 51.2995 98.868 50.3326 99.4305 49.4462C99.9126 48.5599 100.636 47.8347 101.6 47.3512C102.484 46.8677 103.528 46.626 104.734 46.626C105.858 46.626 106.903 46.8677 107.867 47.3512C108.751 47.8347 109.474 48.5599 110.037 49.4462C110.519 50.3326 110.84 51.2995 110.84 52.4277C110.84 53.5558 110.599 54.5227 110.037 55.4091C109.555 56.2954 108.831 57.0206 107.867 57.5041C106.983 57.9876 105.939 58.2293 104.734 58.2293C103.609 58.2293 102.564 57.9876 101.6 57.5041ZM107.144 55.0062C107.787 54.3615 108.108 53.4752 108.108 52.4277C108.108 51.3801 107.787 50.4938 107.144 49.8491C106.501 49.2045 105.698 48.8822 104.734 48.8822C103.769 48.8822 102.966 49.2045 102.323 49.8491C101.68 50.4938 101.359 51.3801 101.359 52.4277C101.359 53.4752 101.68 54.3615 102.323 55.0062C102.966 55.6508 103.769 55.9731 104.734 55.9731C105.698 55.9731 106.501 55.6508 107.144 55.0062Z" fill="#000229"/>
<path d="M119.919 46.5452V49.1237C119.678 49.0431 119.517 49.0431 119.276 49.0431C118.231 49.0431 117.428 49.3654 116.865 49.9295C116.303 50.5741 115.982 51.3799 115.982 52.508V58.0679H113.33V46.7063H115.901V48.3985C116.624 47.1898 117.99 46.5452 119.919 46.5452Z" fill="#000229"/>
<path d="M129.399 57.5042C129.078 57.746 128.676 57.9877 128.274 58.0683C127.792 58.2295 127.391 58.2295 126.828 58.2295C125.543 58.2295 124.578 57.9071 123.936 57.2625C123.293 56.6179 122.891 55.6509 122.891 54.4422V48.9629H121.043V46.8678H122.891V44.2893H125.543V46.8678H128.596V48.9629H125.543V54.3617C125.543 54.9257 125.703 55.3286 125.944 55.6509C126.185 55.9732 126.587 56.0538 127.15 56.0538C127.712 56.0538 128.274 55.8927 128.676 55.5703L129.399 57.5042Z" fill="#000229"/>
<path d="M36.5168 67.8986H34.4277V66.9316H39.7308V67.8986H37.7221V73.2168H36.5168V67.8986Z" fill="#000229"/>
<path d="M40.5342 73.1365C40.1325 73.0559 39.8914 72.8948 39.6504 72.7336L40.0521 71.8472C40.2932 72.0084 40.5342 72.089 40.8556 72.1695C41.177 72.2501 41.4181 72.3307 41.7395 72.3307C42.3823 72.3307 42.7841 72.1695 42.7841 71.7667C42.7841 71.6055 42.7037 71.4443 42.543 71.4443C42.3823 71.3638 42.0609 71.2832 41.7395 71.2832C41.3377 71.2026 41.0164 71.122 40.7753 71.0414C40.5342 70.9609 40.2932 70.7997 40.1325 70.6386C39.9718 70.4774 39.8914 70.1551 39.8914 69.8328C39.8914 69.3493 40.0521 69.027 40.4539 68.7047C40.8556 68.4629 41.3378 68.3018 41.9806 68.3018C42.302 68.3018 42.6234 68.3018 42.9448 68.3823C43.2662 68.4629 43.5072 68.5435 43.7483 68.7047L43.3465 69.591C42.9448 69.3493 42.4627 69.2687 41.9806 69.2687C41.6592 69.2687 41.4181 69.3493 41.2574 69.4299C41.0967 69.5104 41.0164 69.6716 41.0164 69.8328C41.0164 69.9939 41.0967 70.1551 41.2574 70.2357C41.4181 70.3162 41.7395 70.3968 42.1413 70.4774C42.543 70.558 42.8644 70.6385 43.1054 70.7191C43.3465 70.7997 43.5876 70.9609 43.7483 71.122C43.909 71.2832 43.9893 71.6055 43.9893 71.9278C43.9893 72.4113 43.8286 72.7336 43.4269 72.9753C43.0251 73.2171 42.543 73.3782 41.8199 73.3782C41.3378 73.2976 40.936 73.2171 40.5342 73.1365Z" fill="#000229"/>
<path d="M45.6779 72.9753C45.2762 72.7336 44.9548 72.4919 44.7941 72.089C44.553 71.6861 44.4727 71.2832 44.4727 70.7997C44.4727 70.3162 44.553 69.9133 44.7941 69.5104C45.0351 69.1075 45.3565 68.8658 45.6779 68.6241C46.0797 68.3823 46.4814 68.3018 46.9635 68.3018C47.4456 68.3018 47.9277 68.3823 48.2491 68.6241C48.6509 68.8658 48.9723 69.1075 49.133 69.5104C49.374 69.9133 49.4544 70.3162 49.4544 70.7997C49.4544 71.2832 49.374 71.6861 49.133 72.089C48.8919 72.4919 48.5705 72.7336 48.2491 72.9753C47.8474 73.2171 47.4456 73.2976 46.9635 73.2976C46.4814 73.2976 46.0797 73.1365 45.6779 72.9753ZM48.0081 71.8472C48.2491 71.6055 48.4098 71.2026 48.4098 70.7191C48.4098 70.2357 48.2491 69.9133 48.0081 69.591C47.767 69.3493 47.3653 69.1881 46.9635 69.1881C46.5618 69.1881 46.2404 69.3493 45.919 69.591C45.6779 69.8328 45.5172 70.2357 45.5172 70.7191C45.5172 71.2026 45.6779 71.5249 45.919 71.8472C46.16 72.089 46.5618 72.2501 46.9635 72.2501C47.4456 72.3307 47.767 72.1696 48.0081 71.8472Z" fill="#000229"/>
<path d="M50.6582 66.5291H51.7831V73.2171H50.6582V66.5291Z" fill="#000229"/>
<path d="M57.4087 68.8658C57.8104 69.1881 57.9711 69.7522 57.9711 70.4774V73.2171H56.8462V70.558C56.8462 70.1551 56.7659 69.8328 56.5248 69.591C56.3641 69.3493 56.0427 69.2687 55.641 69.2687C55.2392 69.2687 54.9178 69.4299 54.6768 69.6716C54.4357 69.9133 54.3554 70.3162 54.3554 70.7191V73.1365H53.2305V68.3018H54.275V68.9464C54.4357 68.7047 54.6768 68.5435 54.9982 68.4629C55.3196 68.3823 55.5606 68.3018 55.9624 68.3018C56.6052 68.3018 57.0873 68.5435 57.4087 68.8658Z" fill="#000229"/>
<path d="M63.9173 71.1225H60.1408C60.2211 71.4448 60.3819 71.7671 60.6229 71.9283C60.864 72.17 61.2657 72.2506 61.6675 72.2506C62.2299 72.2506 62.6317 72.0895 62.9531 71.7671L63.5155 72.4923C63.2745 72.7341 63.0334 72.9758 62.712 73.0564C62.3906 73.2176 61.9889 73.2176 61.5871 73.2176C61.0247 73.2176 60.6229 73.137 60.2212 72.8952C59.8194 72.6535 59.498 72.4118 59.257 72.0089C59.0159 71.606 58.9355 71.2031 58.9355 70.7196C58.9355 70.2361 59.0159 69.8333 59.257 69.4304C59.498 69.0275 59.739 68.7857 60.1408 68.544C60.5426 68.3023 60.9443 68.2217 61.4264 68.2217C61.9085 68.2217 62.3103 68.3023 62.712 68.544C63.1138 68.7857 63.3548 69.0275 63.5959 69.4304C63.8369 69.8333 63.9173 70.2361 63.9173 70.7196C63.9976 70.8808 63.9173 71.0419 63.9173 71.1225ZM60.6229 69.5915C60.3819 69.8333 60.2211 70.075 60.1408 70.4779H62.8727C62.7924 70.1556 62.712 69.8333 62.471 69.5915C62.2299 69.3498 61.9085 69.2692 61.5871 69.2692C61.1854 69.2692 60.864 69.3498 60.6229 69.5915Z" fill="#000229"/>
<path d="M67.9355 72.9757C67.7748 73.0563 67.6141 73.1369 67.4534 73.2175C67.2927 73.298 67.0517 73.298 66.891 73.298C66.3285 73.298 65.9268 73.1369 65.6857 72.8951C65.3643 72.6534 65.284 72.2505 65.284 71.6865V69.3497H64.4805V68.4633H65.284V67.3352H66.4089V68.4633H67.6945V69.3497H66.4089V71.6059C66.4089 71.8476 66.4892 72.0088 66.5696 72.1699C66.6499 72.3311 66.8106 72.3311 67.0517 72.3311C67.2927 72.3311 67.5338 72.2505 67.6945 72.1699L67.9355 72.9757Z" fill="#000229"/>
<path d="M76.2091 68.3826L74.4414 73.2173H73.3969L72.1916 69.9136L70.906 73.2173H69.8615L68.0938 68.3826H69.1383L70.4239 71.928L71.7095 68.3826H72.6737L73.9593 71.928L75.2449 68.3826H76.2091Z" fill="#000229"/>
<path d="M77.7365 72.9753C77.3348 72.7336 77.0134 72.4919 76.8527 72.089C76.6116 71.6861 76.5312 71.2832 76.5312 70.7997C76.5312 70.3162 76.6116 69.9133 76.8527 69.5104C77.0937 69.1075 77.4151 68.8658 77.7365 68.6241C78.1383 68.3823 78.54 68.3018 79.0221 68.3018C79.5042 68.3018 79.9863 68.3823 80.3077 68.6241C80.7095 68.8658 81.0309 69.1075 81.1916 69.5104C81.4326 69.9133 81.513 70.3162 81.513 70.7997C81.513 71.2832 81.4326 71.6861 81.1916 72.089C80.9505 72.4919 80.6291 72.7336 80.3077 72.9753C79.906 73.2171 79.5042 73.2976 79.0221 73.2976C78.54 73.2976 78.1383 73.1365 77.7365 72.9753ZM80.0667 71.8472C80.3077 71.6055 80.4684 71.2026 80.4684 70.7191C80.4684 70.2357 80.3077 69.9133 80.0667 69.591C79.8256 69.3493 79.4239 69.1881 79.0221 69.1881C78.6204 69.1881 78.299 69.3493 77.9776 69.591C77.7365 69.8328 77.5758 70.2357 77.5758 70.7191C77.5758 71.2026 77.7365 71.5249 77.9776 71.8472C78.2186 72.089 78.6204 72.2501 79.0221 72.2501C79.4239 72.2501 79.8256 72.1696 80.0667 71.8472Z" fill="#000229"/>
<path d="M85.4507 68.3018V69.3493C85.3703 69.3493 85.29 69.3493 85.2096 69.3493C84.8079 69.3493 84.4061 69.5104 84.165 69.7522C83.924 69.9939 83.7633 70.3968 83.7633 70.8803V73.2171H82.7188V68.3823H83.7633V69.1075C84.0847 68.5435 84.6471 68.3018 85.4507 68.3018Z" fill="#000229"/>
<path d="M88.3425 71.122L87.539 71.9278V73.2171H86.4141V66.5291H87.539V70.558L89.8691 68.3824H91.2351L89.2263 70.3968L91.3958 73.2171H90.0298L88.3425 71.122Z" fill="#000229"/>
<path d="M92.2803 73.1365C91.8786 73.0559 91.6375 72.8948 91.3965 72.7336L91.7982 71.8472C92.0393 72.0084 92.2803 72.089 92.6017 72.1695C92.9231 72.2501 93.1642 72.3307 93.4856 72.3307C94.1284 72.3307 94.5302 72.1695 94.5302 71.7667C94.5302 71.6055 94.4498 71.4443 94.2891 71.4443C94.1284 71.3638 93.807 71.2832 93.4856 71.2832C93.0838 71.2026 92.7625 71.122 92.5214 71.0414C92.2804 70.9609 92.0393 70.7997 91.8786 70.6386C91.7179 70.4774 91.6375 70.1551 91.6375 69.8328C91.6375 69.3493 91.7982 69.027 92.2 68.7047C92.6017 68.4629 93.0839 68.3018 93.7267 68.3018C94.0481 68.3018 94.3694 68.3018 94.6908 68.3823C95.0122 68.4629 95.2533 68.5435 95.4943 68.7047L95.0926 69.591C94.6908 69.3493 94.2088 69.2687 93.7267 69.2687C93.4053 69.2687 93.1642 69.3493 93.0035 69.4299C92.8428 69.5104 92.7624 69.6716 92.7624 69.8328C92.7624 69.9939 92.8428 70.1551 93.0035 70.2357C93.1642 70.3162 93.4856 70.3968 93.8873 70.4774C94.2891 70.558 94.6105 70.6385 94.8516 70.7191C95.0926 70.7997 95.3336 70.9609 95.4943 71.122C95.655 71.2832 95.7354 71.6055 95.7354 71.9278C95.7354 72.4113 95.5747 72.7336 95.173 72.9753C94.7712 73.2171 94.2891 73.3782 93.5659 73.3782C93.0838 73.2976 92.6821 73.2171 92.2803 73.1365Z" fill="#000229"/>
<path d="M0.679688 69.9136H30.2486" stroke="#000229" stroke-width="0.3" stroke-miterlimit="10"/>
<path d="M99.834 69.9136H129.403" stroke="#000229" stroke-width="0.3" stroke-miterlimit="10"/>
</svg>
