<svg width="149" height="27" viewBox="0 0 149 27" fill="none" xmlns="http://www.w3.org/2000/svg">
<path d="M145.075 13.9717C143.552 13.9717 142.301 13.6751 141.319 13.0819C140.338 12.4886 139.627 11.7347 139.187 10.8202C138.747 9.89326 138.526 8.92308 138.526 7.90965C138.526 6.71084 138.828 5.66033 139.432 4.75813C140.049 3.85593 140.86 3.16383 141.867 2.68183C142.873 2.19983 143.955 1.95883 145.112 1.95883C145.704 1.95883 146.314 2.01445 146.943 2.12568C147.572 2.23691 148.075 2.37286 148.453 2.53352C148.553 2.59532 148.616 2.65093 148.641 2.70037C148.679 2.7498 148.698 2.83631 148.698 2.9599L148.849 5.31428C148.849 5.35135 148.818 5.36989 148.755 5.36989C148.704 5.36989 148.667 5.35135 148.641 5.31428C148.239 4.375 147.673 3.65818 146.943 3.16383C146.213 2.66947 145.364 2.42229 144.395 2.42229C143.137 2.42229 142.162 2.86103 141.47 3.73852C140.791 4.60364 140.451 5.80245 140.451 7.33496C140.451 8.45962 140.659 9.51013 141.074 10.4865C141.489 11.4505 142.055 12.2167 142.772 12.7852C143.49 13.3538 144.276 13.638 145.131 13.638C146.566 13.638 147.786 12.6864 148.792 10.7831C148.818 10.7337 148.855 10.7151 148.906 10.7275C148.969 10.7398 149 10.7707 149 10.8202L148.868 12.9336C148.843 13.0942 148.811 13.1993 148.774 13.2487C148.748 13.2858 148.685 13.3229 148.585 13.3599C147.44 13.7678 146.27 13.9717 145.075 13.9717Z" fill="white"/>
<path d="M137.323 13.5271C137.36 13.5271 137.379 13.5642 137.379 13.6383C137.392 13.7125 137.373 13.7495 137.323 13.7495C136.958 13.7495 136.669 13.7434 136.455 13.731L135.077 13.7125L133.775 13.731C133.561 13.7434 133.253 13.7495 132.85 13.7495C132.812 13.7495 132.794 13.7125 132.794 13.6383C132.794 13.5642 132.812 13.5271 132.85 13.5271C133.265 13.5271 133.567 13.4962 133.756 13.4344C133.945 13.3726 134.071 13.2552 134.133 13.0822C134.209 12.8968 134.234 12.6187 134.209 12.2479L133.945 3.42366L130.17 13.6198C130.17 13.6692 130.126 13.6939 130.038 13.6939C129.963 13.6939 129.913 13.663 129.887 13.6012L125.641 3.77589L125.604 11.4693C125.591 12.1367 125.704 12.6496 125.943 13.008C126.195 13.3541 126.566 13.5271 127.057 13.5271C127.082 13.5271 127.094 13.5642 127.094 13.6383C127.107 13.7125 127.094 13.7495 127.057 13.7495C126.742 13.7495 126.497 13.7434 126.321 13.731L125.264 13.7125L124.339 13.731C124.15 13.7434 123.886 13.7495 123.547 13.7495C123.521 13.7495 123.509 13.7125 123.509 13.6383C123.509 13.5642 123.521 13.5271 123.547 13.5271C124.025 13.5271 124.396 13.3541 124.66 13.008C124.924 12.6496 125.056 12.1491 125.056 11.5064L125.151 2.99728C124.748 2.58944 124.232 2.38552 123.603 2.38552C123.565 2.38552 123.547 2.34844 123.547 2.27429C123.547 2.20013 123.565 2.16306 123.603 2.16306C123.817 2.16306 123.981 2.16923 124.094 2.18159L124.83 2.20013L125.906 2.18159C126.019 2.16923 126.157 2.16306 126.321 2.16306C126.484 2.16306 126.616 2.22485 126.717 2.34844C126.83 2.47203 126.975 2.73157 127.151 3.12705L130.642 11.1542L133.756 2.62651C133.806 2.49057 133.888 2.37934 134.001 2.29282C134.115 2.20631 134.247 2.16306 134.398 2.16306C134.574 2.16306 134.718 2.16923 134.832 2.18159L135.587 2.20013L136.436 2.18159C136.562 2.16923 136.744 2.16306 136.983 2.16306C137.021 2.16306 137.04 2.20013 137.04 2.27429C137.04 2.34844 137.027 2.38552 137.002 2.38552C136.549 2.38552 136.216 2.45349 136.002 2.58944C135.788 2.72539 135.681 2.98492 135.681 3.36805C135.681 3.47928 135.687 3.56579 135.7 3.62759L135.964 12.2479C135.989 12.6187 136.033 12.8968 136.096 13.0822C136.172 13.2552 136.297 13.3726 136.474 13.4344C136.65 13.4962 136.933 13.5271 137.323 13.5271Z" fill="white"/>
<path d="M115.626 13.8234C115.274 13.8234 114.878 13.8048 114.437 13.7677C114.274 13.7554 114.066 13.743 113.814 13.7307C113.563 13.7183 113.286 13.7121 112.984 13.7121L111.625 13.7307C111.399 13.743 111.084 13.7492 110.682 13.7492C110.657 13.7492 110.644 13.7121 110.644 13.638C110.644 13.5638 110.657 13.5267 110.682 13.5267C111.084 13.5267 111.38 13.4958 111.569 13.4341C111.77 13.3723 111.902 13.2548 111.965 13.0818C112.041 12.8964 112.072 12.6184 112.059 12.2476V3.66433C112.047 3.29356 112.003 3.02166 111.927 2.84864C111.852 2.67561 111.72 2.5582 111.531 2.49641C111.342 2.42225 111.059 2.38518 110.682 2.38518C110.657 2.38518 110.644 2.3481 110.644 2.27395C110.644 2.1998 110.657 2.16272 110.682 2.16272L111.606 2.18126C112.16 2.20597 112.607 2.21833 112.946 2.21833C113.362 2.21833 113.777 2.19979 114.192 2.16272C114.72 2.138 115.104 2.12564 115.343 2.12564C116.639 2.12564 117.79 2.36664 118.797 2.84864C119.803 3.33064 120.583 3.99802 121.137 4.85078C121.69 5.70355 121.967 6.67372 121.967 7.76131C121.967 8.94776 121.671 10.0045 121.08 10.9314C120.501 11.8459 119.727 12.5566 118.759 13.0633C117.79 13.57 116.746 13.8234 115.626 13.8234ZM115.456 13.4897C116.362 13.4897 117.155 13.2857 117.834 12.8779C118.526 12.4577 119.061 11.8459 119.438 11.0426C119.816 10.2393 120.004 9.28145 120.004 8.16915C120.004 7.18044 119.834 6.25352 119.495 5.3884C119.155 4.52327 118.633 3.81881 117.928 3.27502C117.224 2.73123 116.356 2.45933 115.324 2.45933C114.745 2.45933 114.349 2.55202 114.135 2.73741C113.934 2.91043 113.833 3.23176 113.833 3.7014V12.0437C113.846 12.5627 113.959 12.9335 114.173 13.156C114.399 13.3784 114.827 13.4897 115.456 13.4897Z" fill="white"/>
<path d="M105.481 2.16306C105.544 2.16306 105.576 2.20013 105.576 2.27429C105.576 2.34844 105.544 2.38552 105.481 2.38552C105.041 2.38552 104.626 2.54618 104.236 2.86751C103.846 3.17649 103.456 3.65848 103.066 4.31351L101.009 7.98411V12.2479C101.021 12.6311 101.059 12.9091 101.122 13.0822C101.198 13.2552 101.336 13.3726 101.537 13.4344C101.739 13.4962 102.066 13.5271 102.519 13.5271C102.569 13.5271 102.594 13.5642 102.594 13.6383C102.594 13.7125 102.569 13.7495 102.519 13.7495C102.103 13.7495 101.776 13.7434 101.537 13.731L100.141 13.7125L98.65 13.731C98.4109 13.7434 98.0901 13.7495 97.6875 13.7495C97.6372 13.7495 97.612 13.7125 97.612 13.6383C97.612 13.5642 97.6372 13.5271 97.6875 13.5271C98.1404 13.5271 98.4738 13.4962 98.6877 13.4344C98.9142 13.3602 99.0651 13.2366 99.1406 13.0636C99.2287 12.8906 99.2664 12.6187 99.2538 12.2479L99.235 8.18803L96.2344 3.70174C95.9199 3.2321 95.6242 2.89841 95.3475 2.70067C95.0707 2.49057 94.775 2.38552 94.4605 2.38552C94.4102 2.38552 94.385 2.34844 94.385 2.27429C94.385 2.20013 94.4039 2.16306 94.4416 2.16306L95.3475 2.18159C95.75 2.20631 96.0583 2.21867 96.2722 2.21867C96.5993 2.21867 97.0773 2.20631 97.7064 2.18159L98.65 2.16306C98.6877 2.16306 98.7066 2.18777 98.7066 2.23721C98.7066 2.27429 98.694 2.31136 98.6688 2.34844C98.6562 2.37316 98.6374 2.38552 98.6122 2.38552C97.9957 2.38552 97.6875 2.49057 97.6875 2.70067C97.6875 2.8119 97.7504 2.95403 97.8762 3.12705L100.745 7.48357L102.632 4.01689C102.783 3.73264 102.858 3.4731 102.858 3.23828C102.858 2.97874 102.764 2.77482 102.575 2.62651C102.386 2.46585 102.122 2.38552 101.783 2.38552C101.732 2.38552 101.707 2.34844 101.707 2.27429C101.707 2.20013 101.726 2.16306 101.764 2.16306L102.726 2.18159C103.305 2.20631 103.764 2.21867 104.104 2.21867C104.318 2.21867 104.563 2.20631 104.84 2.18159L105.481 2.16306Z" fill="white"/>
<path d="M86.4645 13.7492C86.4268 13.7492 86.4079 13.7121 86.4079 13.6379C86.4079 13.5638 86.4205 13.5267 86.4456 13.5267C86.9614 13.5267 87.3389 13.4958 87.5779 13.434C87.817 13.3722 87.9805 13.2548 88.0686 13.0818C88.1566 12.8964 88.1944 12.6183 88.1818 12.2475V3.66428C88.1944 3.21936 88.1315 2.92275 87.9931 2.77444C87.8547 2.62613 87.5779 2.55198 87.1627 2.55198H86.8419C86.1248 2.55198 85.5084 2.81152 84.9925 3.33059C84.4893 3.84966 84.1811 4.5294 84.0678 5.36981C84.0678 5.39453 84.0364 5.40689 83.9735 5.40689C83.9357 5.40689 83.898 5.40071 83.8602 5.38835C83.8351 5.36363 83.8288 5.34509 83.8414 5.33273C83.9043 4.88781 83.9986 3.69518 84.1244 1.75483C84.1244 1.71775 84.1559 1.69921 84.2188 1.69921C84.2565 1.69921 84.288 1.70539 84.3132 1.71775C84.3509 1.73011 84.3698 1.74865 84.3698 1.77337C84.3698 2.0329 84.6528 2.16267 85.219 2.16267C86.238 2.19975 87.515 2.21829 89.0499 2.21829C89.7418 2.21829 90.5156 2.20593 91.3711 2.18121L92.6921 2.16267C93.1072 2.16267 93.4092 2.13177 93.5979 2.06998C93.7866 2.00819 93.9061 1.8846 93.9565 1.69921C93.9816 1.66214 94.0257 1.64978 94.0886 1.66214C94.164 1.66214 94.1955 1.68685 94.1829 1.73629C94.1452 2.26772 94.1074 2.9351 94.0697 3.73843C94.0319 4.5294 94.0194 5.06084 94.0319 5.33273C94.0319 5.36981 93.9942 5.38835 93.9187 5.38835C93.8181 5.38835 93.7677 5.36363 93.7677 5.3142C93.7803 4.48615 93.5476 3.81877 93.0695 3.31205C92.604 2.80534 91.9875 2.55198 91.2201 2.55198H90.8804C90.5911 2.55198 90.3835 2.58288 90.2577 2.64467C90.1318 2.70646 90.0501 2.81769 90.0123 2.97836C89.9746 3.12667 89.9494 3.36767 89.9368 3.70136L89.9746 12.2475C89.9746 12.6307 90.0123 12.9088 90.0878 13.0818C90.1759 13.2548 90.3331 13.3722 90.5596 13.434C90.7986 13.4958 91.1761 13.5267 91.6919 13.5267C91.7296 13.5267 91.7485 13.5638 91.7485 13.6379C91.7485 13.7121 91.7296 13.7492 91.6919 13.7492C91.2516 13.7492 90.9056 13.743 90.654 13.7306L89.0688 13.7121L87.559 13.7306C87.2948 13.743 86.93 13.7492 86.4645 13.7492Z" fill="white"/>
<path d="M76.9165 4.05367C76.9165 4.51095 77.0361 4.91879 77.2751 5.2772C77.5141 5.63561 77.8035 5.94458 78.1432 6.20412C78.4955 6.4513 78.9735 6.76645 79.5774 7.14958C80.2065 7.5327 80.7097 7.86639 81.0871 8.15065C81.4771 8.4349 81.8042 8.78713 82.0684 9.20734C82.3326 9.61518 82.4647 10.091 82.4647 10.6348C82.4647 11.6482 82.0999 12.4577 81.3702 13.0633C80.6405 13.6689 79.6781 13.9717 78.4829 13.9717C77.9545 13.9717 77.4009 13.9037 76.8222 13.7678C76.2435 13.6318 75.8094 13.465 75.5201 13.2672C75.4572 13.2302 75.4131 13.1869 75.388 13.1375C75.3754 13.088 75.3628 13.0139 75.3502 12.915L75.2181 10.0972C75.2055 10.0477 75.2307 10.0168 75.2936 10.0045C75.3691 9.99213 75.4194 10.0107 75.4446 10.0601C75.8472 11.0735 76.3252 11.9139 76.8788 12.5813C77.4324 13.2363 78.1243 13.5639 78.9547 13.5639C79.4956 13.5639 79.936 13.4217 80.2757 13.1375C80.6279 12.8409 80.8041 12.3527 80.8041 11.6729C80.8041 11.1044 80.672 10.6101 80.4078 10.1899C80.1561 9.76967 79.8416 9.41126 79.4642 9.11465C79.0993 8.81803 78.6087 8.48434 77.9922 8.11357C77.4135 7.75516 76.948 7.44619 76.5957 7.18665C76.256 6.91476 75.9667 6.59343 75.7276 6.22266C75.5012 5.85189 75.388 5.41933 75.388 4.92497C75.388 4.28231 75.5704 3.73852 75.9352 3.2936C76.3001 2.83632 76.7719 2.50262 77.3506 2.29252C77.9419 2.07006 78.5646 1.95883 79.2189 1.95883C79.634 1.95883 80.0618 2.00209 80.5021 2.0886C80.955 2.16275 81.3325 2.26163 81.6344 2.38521C81.8231 2.48409 81.9175 2.6015 81.9175 2.73744L81.9552 5.25866C81.9552 5.29574 81.9175 5.32664 81.842 5.35135C81.7791 5.36371 81.7413 5.34518 81.7288 5.29574C81.5023 4.59128 81.1626 3.9239 80.7097 3.2936C80.2568 2.65093 79.6152 2.3296 78.7848 2.3296C78.2061 2.3296 77.7469 2.49644 77.4072 2.83014C77.0801 3.15147 76.9165 3.55931 76.9165 4.05367Z" fill="white"/>
<path d="M73.985 13.5269C74.0227 13.5269 74.0416 13.5639 74.0416 13.6381C74.0416 13.7122 74.0227 13.7493 73.985 13.7493C73.7585 13.7493 73.4188 13.737 72.9659 13.7122C72.4375 13.6875 72.0223 13.6752 71.7204 13.6752C71.4185 13.6752 71.0284 13.6875 70.5504 13.7122C70.1226 13.737 69.7955 13.7493 69.5691 13.7493C69.5187 13.7493 69.4936 13.7122 69.4936 13.6381C69.4936 13.5639 69.5187 13.5269 69.5691 13.5269C69.9716 13.5269 70.2547 13.4898 70.4183 13.4156C70.5944 13.3291 70.6825 13.1808 70.6825 12.9707C70.6825 12.7977 70.6133 12.5381 70.4749 12.1921L68.7953 8.05803H65.7759L64.3983 11.3393C64.197 11.8213 64.0963 12.2168 64.0963 12.5258C64.0963 12.8842 64.2284 13.1437 64.4926 13.3044C64.7694 13.4527 65.1909 13.5269 65.757 13.5269C65.8074 13.5269 65.8325 13.5639 65.8325 13.6381C65.8325 13.7122 65.8011 13.7493 65.7382 13.7493C65.5746 13.7493 65.2412 13.737 64.738 13.7122C64.1341 13.6875 63.6749 13.6752 63.3604 13.6752C63.0584 13.6752 62.7061 13.6875 62.3036 13.7122C61.9513 13.737 61.6619 13.7493 61.4355 13.7493C61.3851 13.7493 61.36 13.7122 61.36 13.6381C61.36 13.5639 61.3851 13.5269 61.4355 13.5269C61.8129 13.5269 62.2155 13.3415 62.6432 12.9707C63.0836 12.5876 63.4673 12.0314 63.7944 11.3022L67.814 1.99598C67.814 1.95891 67.8643 1.94037 67.965 1.94037C68.0782 1.94037 68.1537 1.96509 68.1914 2.01452L72.2865 12.1921C72.4501 12.5876 72.5822 12.8718 72.6828 13.0449C72.7961 13.2055 72.947 13.3291 73.1358 13.4156C73.3245 13.4898 73.6075 13.5269 73.985 13.5269ZM65.9646 7.59457H68.6066L67.3045 4.3689L65.9646 7.59457Z" fill="white"/>
<path d="M61.1522 2.16306C61.19 2.16306 61.2088 2.20013 61.2088 2.27429C61.2088 2.34844 61.19 2.38552 61.1522 2.38552C60.6364 2.38552 60.2338 2.55236 59.9444 2.88605C59.6551 3.20738 59.5104 3.66466 59.5104 4.25789L59.4915 13.8978C59.4915 13.9349 59.4601 13.9596 59.3972 13.972C59.3343 13.9967 59.2714 14.0091 59.2085 14.0091C59.1078 14.0091 59.0386 13.9844 59.0009 13.9349L51.0183 3.96128L50.9994 11.6547C50.9994 12.2603 51.1378 12.7238 51.4146 13.0451C51.6913 13.3664 52.0876 13.5271 52.6035 13.5271C52.6538 13.5271 52.6789 13.5642 52.6789 13.6383C52.6789 13.7125 52.6538 13.7495 52.6035 13.7495C52.2764 13.7495 52.0247 13.7434 51.8486 13.731L50.7352 13.7125L49.6784 13.731C49.4771 13.7434 49.194 13.7495 48.8292 13.7495C48.7788 13.7495 48.7537 13.7125 48.7537 13.6383C48.7537 13.5642 48.7788 13.5271 48.8292 13.5271C49.345 13.5271 49.7476 13.3664 50.0369 13.0451C50.3263 12.7238 50.471 12.2603 50.471 11.6547L50.4899 3.33097C50.1753 2.98492 49.8797 2.74392 49.6029 2.60798C49.3261 2.45967 49.0493 2.38552 48.7726 2.38552C48.7348 2.38552 48.7159 2.34844 48.7159 2.27429C48.7159 2.20013 48.7348 2.16306 48.7726 2.16306L49.6784 2.18159C49.8671 2.19395 50.1187 2.20013 50.4332 2.20013C50.7352 2.20013 50.9868 2.19395 51.1881 2.18159C51.402 2.16923 51.5467 2.16306 51.6221 2.16306C51.7228 2.16306 51.7983 2.18777 51.8486 2.23721C51.8989 2.28664 51.9681 2.37934 52.0562 2.51528C52.1946 2.73774 52.3393 2.94167 52.4902 3.12705L58.9631 11.2283L58.982 4.25789C58.9946 3.6523 58.8625 3.18884 58.5857 2.86751C58.3089 2.54618 57.9063 2.38552 57.3779 2.38552C57.3276 2.38552 57.3024 2.34844 57.3024 2.27429C57.3024 2.20013 57.3276 2.16306 57.3779 2.16306L58.0762 2.18159C58.5291 2.20631 58.9191 2.21867 59.2462 2.21867C59.4978 2.21867 59.8501 2.20631 60.303 2.18159L61.1522 2.16306Z" fill="white"/>
<path d="M48.2406 2.16306C48.3035 2.16306 48.335 2.20013 48.335 2.27429C48.335 2.34844 48.3035 2.38552 48.2406 2.38552C47.8003 2.38552 47.3851 2.54618 46.9951 2.86751C46.6051 3.17649 46.2151 3.65848 45.8251 4.31351L43.7681 7.98411V12.2479C43.7807 12.6311 43.8184 12.9091 43.8813 13.0822C43.9568 13.2552 44.0952 13.3726 44.2965 13.4344C44.4978 13.4962 44.8249 13.5271 45.2778 13.5271C45.3281 13.5271 45.3533 13.5642 45.3533 13.6383C45.3533 13.7125 45.3281 13.7495 45.2778 13.7495C44.8626 13.7495 44.5355 13.7434 44.2965 13.731L42.9 13.7125L41.4092 13.731C41.1701 13.7434 40.8493 13.7495 40.4467 13.7495C40.3964 13.7495 40.3712 13.7125 40.3712 13.6383C40.3712 13.5642 40.3964 13.5271 40.4467 13.5271C40.8996 13.5271 41.233 13.4962 41.4469 13.4344C41.6734 13.3602 41.8243 13.2366 41.8998 13.0636C41.9879 12.8906 42.0256 12.6187 42.0131 12.2479L41.9942 8.18803L38.9936 3.70174C38.6791 3.2321 38.3835 2.89841 38.1067 2.70067C37.8299 2.49057 37.5342 2.38552 37.2197 2.38552C37.1694 2.38552 37.1442 2.34844 37.1442 2.27429C37.1442 2.20013 37.1631 2.16306 37.2008 2.16306L38.1067 2.18159C38.5093 2.20631 38.8175 2.21867 39.0314 2.21867C39.3585 2.21867 39.8366 2.20631 40.4656 2.18159L41.4092 2.16306C41.4469 2.16306 41.4658 2.18777 41.4658 2.23721C41.4658 2.27429 41.4532 2.31136 41.428 2.34844C41.4155 2.37316 41.3966 2.38552 41.3714 2.38552C40.755 2.38552 40.4467 2.49057 40.4467 2.70067C40.4467 2.8119 40.5096 2.95403 40.6354 3.12705L43.5039 7.48357L45.391 4.01689C45.542 3.73264 45.6175 3.4731 45.6175 3.23828C45.6175 2.97874 45.5231 2.77482 45.3344 2.62651C45.1457 2.46585 44.8815 2.38552 44.5418 2.38552C44.4915 2.38552 44.4663 2.34844 44.4663 2.27429C44.4663 2.20013 44.4852 2.16306 44.523 2.16306L45.4854 2.18159C46.0641 2.20631 46.5233 2.21867 46.863 2.21867C47.0769 2.21867 47.3222 2.20631 47.599 2.18159L48.2406 2.16306Z" fill="white"/>
<path d="M30.7415 13.8234C30.3893 13.8234 29.993 13.8048 29.5526 13.7677C29.3891 13.7554 29.1815 13.743 28.9299 13.7307C28.6782 13.7183 28.4015 13.7121 28.0995 13.7121L26.7408 13.7307C26.5143 13.743 26.1998 13.7492 25.7972 13.7492C25.772 13.7492 25.7595 13.7121 25.7595 13.638C25.7595 13.5638 25.772 13.5267 25.7972 13.5267C26.1998 13.5267 26.4954 13.4958 26.6842 13.4341C26.8855 13.3723 27.0176 13.2548 27.0805 13.0818C27.1559 12.8964 27.1874 12.6184 27.1748 12.2476V3.66433C27.1622 3.29356 27.1182 3.02166 27.0427 2.84864C26.9672 2.67561 26.8351 2.5582 26.6464 2.49641C26.4577 2.42225 26.1746 2.38518 25.7972 2.38518C25.772 2.38518 25.7595 2.3481 25.7595 2.27395C25.7595 2.1998 25.772 2.16272 25.7972 2.16272L26.7219 2.18126C27.2755 2.20597 27.7221 2.21833 28.0618 2.21833C28.4769 2.21833 28.8921 2.19979 29.3073 2.16272C29.8357 2.138 30.2194 2.12564 30.4584 2.12564C31.7543 2.12564 32.9054 2.36664 33.9119 2.84864C34.9184 3.33064 35.6984 3.99802 36.252 4.85078C36.8055 5.70355 37.0823 6.67372 37.0823 7.76131C37.0823 8.94776 36.7867 10.0045 36.1954 10.9314C35.6166 11.8459 34.8429 12.5566 33.8742 13.0633C32.9054 13.57 31.8612 13.8234 30.7415 13.8234ZM30.5717 13.4897C31.4775 13.4897 32.2701 13.2857 32.9495 12.8779C33.6414 12.4577 34.1761 11.8459 34.5535 11.0426C34.931 10.2393 35.1197 9.28145 35.1197 8.16915C35.1197 7.18044 34.9498 6.25352 34.6102 5.3884C34.2705 4.52327 33.7484 3.81881 33.0438 3.27502C32.3393 2.73123 31.4712 2.45933 30.4396 2.45933C29.8609 2.45933 29.4646 2.55202 29.2507 2.73741C29.0494 2.91043 28.9487 3.23176 28.9487 3.7014V12.0437C28.9613 12.5627 29.0745 12.9335 29.2884 13.156C29.5149 13.3784 29.9426 13.4897 30.5717 13.4897Z" fill="white"/>
<path d="M131.407 23.4819V19.9133H133.405C133.623 19.9133 133.818 19.9609 133.991 20.056C134.168 20.1512 134.308 20.2804 134.412 20.4435C134.516 20.6032 134.568 20.7817 134.568 20.9788C134.568 21.1997 134.512 21.3951 134.401 21.5651C134.291 21.7316 134.14 21.8625 133.95 21.9576C133.763 22.0528 133.552 22.1004 133.317 22.1004H131.812V23.4819H131.407ZM134.277 23.4819L133.052 21.9117L133.462 21.7894L134.78 23.4819H134.277ZM131.812 21.7129H133.265C133.431 21.7129 133.58 21.6806 133.711 21.616C133.843 21.5515 133.947 21.4648 134.023 21.356C134.099 21.2473 134.137 21.1249 134.137 20.989C134.137 20.8598 134.099 20.7443 134.023 20.6423C133.947 20.537 133.844 20.4537 133.716 20.3925C133.588 20.3313 133.447 20.3008 133.291 20.3008H131.812V21.7129Z" fill="white"/>
<path d="M126.279 23.4819V19.9133H129.206V20.3008H126.683V23.0945H129.195V23.4819H126.279ZM126.497 21.8404V21.4529H128.915V21.8404H126.497Z" fill="white"/>
<path d="M120.076 23.4819V19.9133H120.491L123.615 23.0282L123.579 23.12C123.565 23.0418 123.555 22.9364 123.548 22.8039C123.544 22.6679 123.539 22.5218 123.532 22.3655C123.529 22.2091 123.525 22.0545 123.522 21.9015C123.522 21.7486 123.52 21.6127 123.516 21.4937C123.516 21.3713 123.516 21.2813 123.516 21.2235V19.9133H123.921V23.4819H123.491L120.397 20.4333L120.408 20.3262C120.411 20.3704 120.415 20.4384 120.418 20.5302C120.425 20.6185 120.432 20.7222 120.439 20.8411C120.446 20.9567 120.453 21.0774 120.46 21.2031C120.467 21.3289 120.472 21.4495 120.475 21.5651C120.479 21.6806 120.481 21.7792 120.481 21.8608V23.4819H120.076Z" fill="white"/>
<path d="M113.873 23.4819V19.9133H114.288L117.412 23.0282L117.376 23.12C117.362 23.0418 117.352 22.9364 117.345 22.8039C117.341 22.6679 117.336 22.5218 117.329 22.3655C117.326 22.2091 117.322 22.0545 117.319 21.9015C117.319 21.7486 117.317 21.6127 117.314 21.4937C117.314 21.3713 117.314 21.2813 117.314 21.2235V19.9133H117.718V23.4819H117.288L114.195 20.4333L114.205 20.3262C114.208 20.3704 114.212 20.4384 114.215 20.5302C114.222 20.6185 114.229 20.7222 114.236 20.8411C114.243 20.9567 114.25 21.0774 114.257 21.2031C114.264 21.3289 114.269 21.4495 114.272 21.5651C114.276 21.6806 114.278 21.7792 114.278 21.8608V23.4819H113.873Z" fill="white"/>
<path d="M107.968 23.4819L109.738 19.9133H110.246L112 23.4819H111.549L110.257 20.8615C110.212 20.7596 110.174 20.678 110.142 20.6168C110.115 20.5557 110.089 20.503 110.065 20.4588C110.04 20.4146 110.016 20.3653 109.992 20.3109C109.971 20.2566 109.947 20.1869 109.919 20.1019L110.039 20.0968C110.001 20.1954 109.968 20.2753 109.94 20.3364C109.916 20.3942 109.892 20.4486 109.867 20.4996C109.843 20.5472 109.816 20.5998 109.784 20.6576C109.757 20.7154 109.72 20.7919 109.675 20.887L108.394 23.4819H107.968ZM108.7 22.549L108.866 22.1615H111.087L111.16 22.549H108.7Z" fill="white"/>
<path d="M103.621 23.4819V19.9133H104.026V23.0945H106.496V23.4819H103.621Z" fill="white"/>
<path d="M98.3204 23.4819V19.9133H100.375C100.593 19.9133 100.789 19.9592 100.962 20.0509C101.135 20.1427 101.272 20.2685 101.372 20.4282C101.472 20.5879 101.522 20.7698 101.522 20.9737C101.522 21.1946 101.469 21.3917 101.362 21.5651C101.254 21.7384 101.109 21.8761 100.926 21.978C100.742 22.0766 100.535 22.1259 100.303 22.1259H98.7252V23.4819H98.3204ZM98.7252 21.7384H100.277C100.433 21.7384 100.571 21.7061 100.692 21.6415C100.817 21.5736 100.913 21.4818 100.983 21.3662C101.052 21.2507 101.086 21.1181 101.086 20.9686C101.086 20.8394 101.052 20.7256 100.983 20.627C100.913 20.5251 100.818 20.4452 100.697 20.3874C100.576 20.3296 100.436 20.3008 100.277 20.3008H98.7252V21.7384Z" fill="white"/>
<path d="M90.5571 23.4819V19.9133H90.9619V23.0945H93.4321V23.4819H90.5571Z" fill="white"/>
<path d="M85.4286 23.4819V19.9133H88.3555V20.3008H85.8334V23.0945H88.3452V23.4819H85.4286ZM85.6466 21.8404V21.4529H88.0649V21.8404H85.6466Z" fill="white"/>
<path d="M81.3573 23.4819L79.6655 19.9133H80.117L81.1601 22.1004C81.2016 22.1921 81.2466 22.289 81.295 22.391C81.3435 22.4895 81.3919 22.5915 81.4403 22.6968C81.4888 22.8022 81.5355 22.9076 81.5804 23.0129C81.6254 23.1183 81.6652 23.2236 81.6998 23.329H81.5493C81.6081 23.1727 81.6687 23.0231 81.7309 22.8804C81.7932 22.7342 81.8538 22.5949 81.9126 22.4623C81.9714 22.3298 82.0268 22.2057 82.0787 22.0902L83.101 19.9133H83.5629L81.8659 23.4819H81.3573Z" fill="white"/>
<path d="M74.6385 23.4819L76.4082 19.9133H76.9168L78.6709 23.4819H78.2194L76.9272 20.8615C76.8822 20.7596 76.8441 20.678 76.813 20.6168C76.7853 20.5557 76.7594 20.503 76.7352 20.4588C76.7109 20.4146 76.6867 20.3653 76.6625 20.3109C76.6418 20.2566 76.6175 20.1869 76.5899 20.1019L76.7092 20.0968C76.6712 20.1954 76.6383 20.2753 76.6106 20.3364C76.5864 20.3942 76.5622 20.4486 76.538 20.4996C76.5137 20.5472 76.4861 20.5998 76.4549 20.6576C76.4272 20.7154 76.3909 20.7919 76.3459 20.887L75.0641 23.4819H74.6385ZM75.3703 22.549L75.5364 22.1615H77.7575L77.8302 22.549H75.3703Z" fill="white"/>
<path d="M69.6429 23.4819V19.9133H71.641C71.8589 19.9133 72.0544 19.9609 72.2274 20.056C72.4038 20.1512 72.544 20.2804 72.6478 20.4435C72.7515 20.6032 72.8034 20.7817 72.8034 20.9788C72.8034 21.1997 72.7481 21.3951 72.6374 21.5651C72.5267 21.7316 72.3762 21.8625 72.1859 21.9576C71.999 22.0528 71.788 22.1004 71.5527 22.1004H70.0477V23.4819H69.6429ZM72.5128 23.4819L71.2881 21.9117L71.698 21.7894L73.0162 23.4819H72.5128ZM70.0477 21.7129H71.5008C71.6669 21.7129 71.8157 21.6806 71.9471 21.616C72.0786 21.5515 72.1824 21.4648 72.2585 21.356C72.3346 21.2473 72.3727 21.1249 72.3727 20.989C72.3727 20.8598 72.3346 20.7443 72.2585 20.6423C72.1824 20.537 72.0803 20.4537 71.9523 20.3925C71.8243 20.3313 71.6825 20.3008 71.5268 20.3008H70.0477V21.7129Z" fill="white"/>
<path d="M65.9198 23.4819V20.3008H64.5186V19.9133H67.7673V20.3008H66.3246V23.4819H65.9198Z" fill="white"/>
<path d="M59.4206 23.4818L59.0314 23.0791L58.8654 22.921L57.7755 21.9524C57.6648 21.8538 57.5506 21.757 57.433 21.6618C57.3188 21.5632 57.2133 21.4664 57.1164 21.3712C57.0196 21.2726 56.94 21.1741 56.8777 21.0755C56.8189 20.9736 56.7895 20.8665 56.7895 20.7543C56.7895 20.6082 56.8379 20.4672 56.9348 20.3312C57.0351 20.1953 57.1805 20.0831 57.3707 19.9947C57.561 19.903 57.7876 19.8571 58.0506 19.8571C58.2893 19.8571 58.5021 19.8877 58.6889 19.9489C58.8757 20.0066 59.0383 20.0899 59.1767 20.1987C59.3186 20.304 59.4345 20.4281 59.5244 20.5708L59.2442 20.8461C59.0954 20.6184 58.9155 20.4604 58.7045 20.372C58.4934 20.2836 58.2824 20.2394 58.0713 20.2394C57.9122 20.2394 57.7721 20.2598 57.651 20.3006C57.5333 20.338 57.4417 20.3941 57.3759 20.4689C57.3102 20.5402 57.2773 20.6252 57.2773 20.7238C57.2773 20.7917 57.2981 20.8614 57.3396 20.9328C57.3811 21.0041 57.4313 21.0704 57.4901 21.1316C57.5524 21.1928 57.6147 21.2472 57.6769 21.2947C57.7392 21.3423 57.7876 21.3814 57.8222 21.412L59.2546 22.6865L59.3688 22.8242L59.9915 23.4818H59.4206ZM57.8274 23.5532C57.4538 23.5532 57.1441 23.5022 56.8985 23.4002C56.6563 23.2983 56.4764 23.1623 56.3588 22.9924C56.2411 22.8225 56.1823 22.6355 56.1823 22.4316C56.1823 22.2039 56.2653 21.9898 56.4314 21.7892C56.6009 21.5887 56.857 21.4239 57.1995 21.2947L57.4797 21.5649C57.1822 21.6499 56.9711 21.7638 56.8466 21.9065C56.7255 22.0492 56.6649 22.2022 56.6649 22.3653C56.6649 22.4979 56.7065 22.6236 56.7895 22.7426C56.8725 22.8581 57.0005 22.9533 57.1735 23.0281C57.35 23.0994 57.5749 23.1351 57.8482 23.1351C58.0039 23.1351 58.1665 23.113 58.336 23.0689C58.509 23.0247 58.6682 22.9533 58.8135 22.8547C58.9622 22.7528 59.0851 22.6151 59.1819 22.4418C59.2823 22.2685 59.3376 22.0526 59.348 21.7943H59.7995C59.7891 22.0526 59.7407 22.2787 59.6542 22.4724C59.5677 22.6627 59.457 22.8276 59.322 22.9669C59.1871 23.1062 59.0366 23.2201 58.8705 23.3085C58.7045 23.3934 58.5315 23.4546 58.3516 23.492C58.1717 23.5328 57.997 23.5532 57.8274 23.5532Z" fill="white"/>
<path d="M49.795 23.4819V20.3008H48.3938V19.9133H51.6425V20.3008H50.1998V23.4819H49.795Z" fill="white"/>
<path d="M42.6683 23.4819V19.9133H43.0835L46.2077 23.0282L46.1713 23.12C46.1575 23.0418 46.1471 22.9364 46.1402 22.8039C46.1367 22.6679 46.1316 22.5218 46.1246 22.3655C46.1212 22.2091 46.1177 22.0545 46.1143 21.9015C46.1143 21.7486 46.1125 21.6127 46.1091 21.4937C46.1091 21.3713 46.1091 21.2813 46.1091 21.2235V19.9133H46.5139V23.4819H46.0831L42.9901 20.4333L43.0005 20.3262C43.0039 20.3704 43.0074 20.4384 43.0109 20.5302C43.0178 20.6185 43.0247 20.7222 43.0316 20.8411C43.0385 20.9567 43.0454 21.0774 43.0524 21.2031C43.0593 21.3289 43.0645 21.4495 43.0679 21.5651C43.0714 21.6806 43.0731 21.7792 43.0731 21.8608V23.4819H42.6683Z" fill="white"/>
<path d="M37.54 23.4819V19.9133H40.4669V20.3008H37.9448V23.0945H40.4566V23.4819H37.54ZM37.7579 21.8404V21.4529H40.1763V21.8404H37.7579Z" fill="white"/>
<path d="M33.4686 23.4819L31.7768 19.9133H32.2283L33.2714 22.1004C33.3129 22.1921 33.3579 22.289 33.4063 22.391C33.4548 22.4895 33.5032 22.5915 33.5517 22.6968C33.6001 22.8022 33.6468 22.9076 33.6918 23.0129C33.7368 23.1183 33.7765 23.2236 33.8111 23.329H33.6606C33.7195 23.1727 33.78 23.0231 33.8423 22.8804C33.9045 22.7342 33.9651 22.5949 34.0239 22.4623C34.0827 22.3298 34.1381 22.2057 34.19 22.0902L35.2123 19.9133H35.6742L33.9772 23.4819H33.4686Z" fill="white"/>
<path d="M27.1362 23.4819V19.9133H30.0631V20.3008H27.541V23.0945H30.0527V23.4819H27.1362ZM27.3541 21.8404V21.4529H29.7725V21.8404H27.3541Z" fill="white"/>
<path d="M0 26.1115H3.3437V2.94607C3.07621 0.471064 1.00311 -0.0470776 0 0.00322736V26.1115Z" fill="white"/>
<path fill-rule="evenodd" clip-rule="evenodd" d="M6.0249 0.00318048H5.8808C6.72959 0.179271 8.42716 1.04463 8.42716 3.09732V23.2218C8.41171 24.5802 7.75327 25.6518 5.8808 26.1147C7.65553 26.0308 11.7451 24.9972 11.7451 20.0019V5.27718C11.7451 0.833226 7.74645 0.0364225 6.0249 0.00318048Z" fill="white"/>
<path fill-rule="evenodd" clip-rule="evenodd" d="M21.8129 0.000708556H21.957C21.1082 0.176799 19.4106 1.04215 19.4106 3.09485V23.2193C19.4261 24.5777 20.0845 25.6494 21.957 26.1122C20.1822 26.0284 16.0926 24.9947 16.0926 19.9994V5.27471C16.0926 0.830754 20.0913 0.0339505 21.8129 0.000708556Z" fill="white"/>
</svg>
